<svg xmlns="http://www.w3.org/2000/svg" version="1.1" xmlns:xlink="http://www.w3.org/1999/xlink" width="512" height="512" x="0" y="0" viewBox="0 0 512 512" style="enable-background:new 0 0 512 512" xml:space="preserve" class=""><g><linearGradient id="a" x1="50.597" x2="466.212" y1="460.306" y2="44.691" gradientUnits="userSpaceOnUse"><stop stop-opacity="1" stop-color="#0664a4" offset="0"></stop><stop stop-opacity="1" stop-color="#0664a4" offset="0.1242283774374325"></stop><stop stop-opacity="1" stop-color="#0664a4" offset="1"></stop><stop stop-opacity="1" stop-color="#0664a4" offset="1"></stop></linearGradient><path fill="url(#a)" d="M71.74 466.625a6.984 6.984 0 0 1-5.331 2.459c-1.606 0-3.22-.55-4.538-1.673a164.766 164.766 0 0 1-9.555-8.824c-30.451-30.451-47.221-70.937-47.221-114s16.77-83.549 47.22-114c35.471-35.471 84.932-52.19 134.28-45.933l-3.028-3.284a7 7 0 0 1 10.293-9.491l17.516 18.997a7 7 0 0 1-2.314 11.147l-23.674 10.471a6.983 6.983 0 0 1-2.828.601 7 7 0 0 1-2.836-13.403l3.143-1.39c-44.409-5.024-88.734 10.267-120.652 42.186-57.401 57.4-57.401 150.799 0 208.199a150.201 150.201 0 0 0 8.738 8.07 7 7 0 0 1 .786 9.868zm208.306-239.424c-19.687-25.726-36.688-47.941-36.688-84.429C243.358 73.972 299.331 18 368.13 18s124.772 55.973 124.772 124.772c0 64.581-49.319 117.857-112.271 124.148l2.157-1.745a7 7 0 0 0-8.805-10.885l-19.107 15.455a7.002 7.002 0 0 0 .671 11.365l20.83 13.124a6.976 6.976 0 0 0 3.725 1.078 7 7 0 0 0 3.738-12.924l-2.364-1.489c70.281-6.739 125.425-66.111 125.425-138.128 0-76.52-62.253-138.772-138.772-138.772S229.357 66.252 229.357 142.771c0 41.229 19.221 66.346 39.57 92.937 14.998 19.599 30.507 39.864 38.888 68.138 14.774 51.497.443 106.997-37.4 144.84-41.964 41.964-103.873 54.38-158.062 32.935l3.477-.542a7 7 0 0 0 5.838-7.995c-.596-3.82-4.177-6.445-7.995-5.838l-25.546 3.98a7.003 7.003 0 0 0-5.121 10.168l11.987 22.855a6.997 6.997 0 0 0 9.451 2.948 7.001 7.001 0 0 0 2.948-9.45l-2.02-3.852a159.763 159.763 0 0 0 60.67 11.938c7.961 0 15.971-.588 23.978-1.771 34.407-5.088 65.631-20.813 90.295-45.477 41.44-41.44 57.135-102.213 40.94-158.66-9.132-30.81-25.439-52.118-41.209-72.726zm152.289 9.273h-128.41a7 7 0 0 1-7-7V62.242a7 7 0 0 1 7-7h96.4c1.856 0 3.637.738 4.95 2.051l32.01 32.009a7 7 0 0 1 2.05 4.95v135.222a7 7 0 0 1-7 7zm-25.01-149.223h8.11l-8.11-8.11zm18.01 135.223V101.251h-25.01a7 7 0 0 1-7-7V69.242h-82.4v153.232zm-21.74-83.801h-70.931a7 7 0 1 0 0 14h70.931a7 7 0 1 0 0-14zm0-28.371h-70.931a7 7 0 1 0 0 14h70.931a7 7 0 1 0 0-14zm0 85.115h-70.931a7 7 0 1 0 0 14h70.931a7 7 0 1 0 0-14zm0-28.372h-70.931a7 7 0 1 0 0 14h70.931a7 7 0 1 0 0-14zm-237.279 67.052c60.924 0 110.489 49.564 110.489 110.488S227.24 455.074 166.316 455.074 55.827 405.509 55.827 344.585s49.565-110.488 110.489-110.488zm0 14c-53.204 0-96.489 43.284-96.489 96.488s43.285 96.489 96.489 96.489 96.489-43.285 96.489-96.489-43.285-96.488-96.489-96.488zm0 10.332c47.506 0 86.156 38.649 86.156 86.156s-38.649 86.155-86.156 86.155-86.156-38.649-86.156-86.155 38.649-86.156 86.156-86.156zm52.822 37.071a6.997 6.997 0 0 1-1.501 7.664l-2.652 2.652c-1.367 1.366-3.158 2.05-4.95 2.05s-3.583-.684-4.95-2.05a7 7 0 0 1 0-9.9l2.652-2.652a7.002 7.002 0 0 1 7.665-1.5c-12.305-11.443-28.593-18.642-46.532-19.271a6.997 6.997 0 0 1 4.446 6.512v3.751a7 7 0 1 1-14 0v-3.751a6.995 6.995 0 0 1 4.446-6.512c-17.939.628-34.228 7.828-46.533 19.271a7.002 7.002 0 0 1 7.666 1.499l2.652 2.652a7 7 0 1 1-9.9 9.9l-2.652-2.652a6.999 6.999 0 0 1-1.5-7.665c-11.443 12.305-18.642 28.594-19.27 46.532a6.996 6.996 0 0 1 6.512-4.446h3.75a7 7 0 1 1 0 14h-3.75a6.995 6.995 0 0 1-6.512-4.446c.628 17.938 7.827 34.226 19.269 46.531a7 7 0 0 1 1.502-7.664l2.652-2.651a7 7 0 1 1 9.897 9.899l-2.652 2.652a6.98 6.98 0 0 1-4.949 2.049 7.004 7.004 0 0 1-2.713-.549c12.304 11.442 28.591 18.64 46.528 19.269a6.997 6.997 0 0 1-4.443-6.511v-3.751a7 7 0 1 1 14 0v3.751a6.996 6.996 0 0 1-4.443 6.511c17.936-.629 34.223-7.827 46.526-19.268a7.003 7.003 0 0 1-2.712.549 6.98 6.98 0 0 1-4.949-2.049l-2.652-2.652a7 7 0 1 1 9.897-9.899l2.652 2.651a6.997 6.997 0 0 1 1.502 7.663c11.441-12.304 18.639-28.591 19.268-46.526a6.997 6.997 0 0 1-6.511 4.443h-3.751a7 7 0 1 1 0-14h3.751a6.996 6.996 0 0 1 6.511 4.443c-.629-17.937-7.827-34.224-19.269-46.528zm-52.822 3.22a7 7 0 0 0-7 7v35.966l-21.806 21.806a6.999 6.999 0 0 0 0 9.899c1.367 1.367 3.158 2.051 4.95 2.051s3.583-.684 4.95-2.05l23.857-23.856a7 7 0 0 0 2.05-4.95v-38.865a7 7 0 0 0-7-7zM5.097 99.871v-25.37a7 7 0 0 1 5.646-6.868l11.644-2.295 3.854-9.293-6.613-9.862a7 7 0 0 1 .864-8.848l17.939-17.939a6.998 6.998 0 0 1 8.849-.864l9.862 6.613 9.292-3.854L68.73 9.646A7.001 7.001 0 0 1 75.598 4h25.37a7 7 0 0 1 6.868 5.646l2.296 11.645 9.293 3.854 9.862-6.613a6.997 6.997 0 0 1 8.849.864l17.939 17.939a6.998 6.998 0 0 1 .864 8.848l-6.613 9.862 3.855 9.293 11.644 2.295a7 7 0 0 1 5.646 6.868v25.37a7 7 0 0 1-5.646 6.868l-11.644 2.295-3.855 9.293 6.613 9.862a6.998 6.998 0 0 1-.864 8.848l-17.939 17.94a7 7 0 0 1-8.849.863l-9.862-6.613-9.293 3.854-2.296 11.645a7.001 7.001 0 0 1-6.868 5.646h-25.37a7 7 0 0 1-6.868-5.646l-2.296-11.645-9.292-3.854-9.862 6.613a7.003 7.003 0 0 1-8.849-.863l-17.939-17.94a6.998 6.998 0 0 1-.864-8.848l6.613-9.862-3.854-9.293-11.644-2.295a7 7 0 0 1-5.646-6.868zm14-5.755 9.674 1.907a7 7 0 0 1 5.112 4.187l6.728 16.219a6.998 6.998 0 0 1-.652 6.58l-5.498 8.198 9.801 9.802 8.198-5.498a7.003 7.003 0 0 1 6.581-.652l16.219 6.728a7 7 0 0 1 4.186 5.111l1.908 9.675h13.861l1.907-9.675a6.997 6.997 0 0 1 4.186-5.111l16.219-6.728a7.003 7.003 0 0 1 6.581.652l8.198 5.498 9.801-9.802-5.498-8.198a7 7 0 0 1-.652-6.581l6.728-16.219a7.003 7.003 0 0 1 5.112-4.186l9.674-1.907v-13.86l-9.674-1.907a7 7 0 0 1-5.112-4.186l-6.728-16.219a7 7 0 0 1 .652-6.581l5.498-8.198-9.801-9.802-8.198 5.498a6.99 6.99 0 0 1-6.581.652l-16.219-6.728a7 7 0 0 1-4.186-5.111l-1.908-9.675h-13.86l-1.908 9.675a6.997 6.997 0 0 1-4.186 5.111l-16.219 6.728a7.006 7.006 0 0 1-6.581-.652l-8.198-5.498-9.801 9.802 5.498 8.198a6.998 6.998 0 0 1 .652 6.58l-6.728 16.219a7.004 7.004 0 0 1-5.112 4.187l-9.674 1.907v13.86zm23.115-6.931c0-25.403 20.667-46.07 46.07-46.07s46.07 20.667 46.07 46.07-20.667 46.07-46.07 46.07-46.07-20.667-46.07-46.07zm14 0c0 17.684 14.387 32.07 32.07 32.07s32.07-14.387 32.07-32.07-14.387-32.07-32.07-32.07-32.07 14.387-32.07 32.07zm450.691 322.75v25.369a7 7 0 0 1-5.646 6.868l-11.644 2.295-3.854 9.294 6.613 9.862a7 7 0 0 1-.864 8.849l-17.939 17.938a7 7 0 0 1-8.849.863l-9.862-6.613-9.292 3.855-2.296 11.645a7.001 7.001 0 0 1-6.868 5.646h-25.37a7 7 0 0 1-6.868-5.646l-2.296-11.645-9.293-3.855-9.862 6.613a7.002 7.002 0 0 1-8.849-.863l-17.938-17.938a7 7 0 0 1-.864-8.849l6.613-9.862-3.855-9.294-11.644-2.295a7 7 0 0 1-5.646-6.868v-25.369a7 7 0 0 1 5.646-6.868l11.644-2.295 3.855-9.294-6.613-9.862a7.002 7.002 0 0 1 .864-8.849l17.938-17.938a6.999 6.999 0 0 1 8.848-.863l9.862 6.612 9.293-3.854 2.296-11.644a7.001 7.001 0 0 1 6.868-5.646h25.37a7 7 0 0 1 6.868 5.646l2.296 11.644 9.292 3.854 9.862-6.612a7 7 0 0 1 8.848.863l17.939 17.938a7 7 0 0 1 .864 8.849l-6.613 9.862 3.854 9.294 11.644 2.295a7 7 0 0 1 5.646 6.868zm-14 5.755-9.674-1.907a7 7 0 0 1-5.112-4.187l-6.728-16.22a6.998 6.998 0 0 1 .652-6.58l5.498-8.198-9.801-9.801-8.198 5.497a6.99 6.99 0 0 1-6.581.652l-16.219-6.728a7 7 0 0 1-4.186-5.111l-1.907-9.674h-13.861l-1.908 9.674a6.997 6.997 0 0 1-4.186 5.111l-16.219 6.728a7.012 7.012 0 0 1-6.581-.651l-8.199-5.498-9.8 9.801 5.498 8.198a6.998 6.998 0 0 1 .652 6.58l-6.728 16.22a7.004 7.004 0 0 1-5.112 4.187l-9.674 1.907v13.859l9.674 1.907a7 7 0 0 1 5.112 4.187l6.728 16.22a6.998 6.998 0 0 1-.652 6.58l-5.498 8.198 9.8 9.801 8.198-5.498a7.005 7.005 0 0 1 6.582-.652l16.218 6.729a7.001 7.001 0 0 1 4.186 5.111l1.908 9.675h13.86l1.908-9.675a7 7 0 0 1 4.186-5.111l16.218-6.729a7.005 7.005 0 0 1 6.582.652l8.198 5.498 9.801-9.801-5.498-8.198a6.998 6.998 0 0 1-.652-6.58l6.728-16.22a7.004 7.004 0 0 1 5.112-4.187l9.674-1.907V415.69zm-23.116 6.93c0 25.403-20.667 46.07-46.07 46.07s-46.07-20.667-46.07-46.07 20.667-46.07 46.07-46.07 46.07 20.667 46.07 46.07zm-14 0c0-17.684-14.387-32.07-32.07-32.07s-32.07 14.387-32.07 32.07 14.387 32.07 32.07 32.07 32.07-14.387 32.07-32.07z" opacity="1" data-original="url(#a)" class=""></path></g></svg>