<?xml version="1.0" encoding="utf-8"?>
<!-- Generator: Adobe Illustrator 25.0.0, SVG Export Plug-In . SVG Version: 6.00 Build 0)  -->
<svg version="1.1" id="Layer_1" xmlns="http://www.w3.org/2000/svg" xmlns:xlink="http://www.w3.org/1999/xlink" x="0px" y="0px"
	 viewBox="0 0 144.2 71.4" style="enable-background:new 0 0 144.2 71.4;" xml:space="preserve">
<style type="text/css">
	.st0{fill:#EEC919;}
</style>
<g>
	<path class="st0" d="M60,56.9c0,2.3-1.9,4.3-4.4,4.3c-2.5,0-4.3-1.9-4.3-4.3V38.3c0-2.3,1.9-4.3,4.3-4.3c2.5,0,4.4,1.9,4.4,4.3
		V56.9z M72.4,61.9c0,2.3-1.9,4.4-4.3,4.4s-4.1-1.9-4.1-4.3V33.5c0-2.3,1.9-4.3,4.3-4.3s4.3,1.9,4.3,4.3v28.4L72.4,61.9z M47.3,52.8
		c0,2.3-1.9,4.3-4.3,4.3c-2.5,0-4.4-1.9-4.4-4.3V42.6c0-2.3,1.9-4.3,4.4-4.3c2.5,0,4.3,2.1,4.3,4.3V52.8z M84.8,66.4
		c0,2.3-1.9,4.3-4.3,4.3c-2.3,0-4.1-2.1-4.1-4.3V28.7c0-2.3,1.9-4.4,4.3-4.4c2.3,0,4.3,1.9,4.3,4.4v37.7H84.8z"/>
	<path class="st0" d="M98.5,64.6c-0.8,0-1.4-0.2-2.3-0.4L91,62.5c-0.8-0.2-1.4-1.2-1-2.1c0.2-0.8,1.2-1.5,2.1-1l5.4,1.7
		c1,0.4,2.3,0.2,3.3-0.6c1-0.6,1.4-1.9,1.4-2.9V22.9c0-1.7-1-3.1-2.5-3.5L49,4.1c-1-0.4-2.3-0.2-3.3,0.4c-0.8,0.8-1.5,1.9-1.5,3.1
		v23.8c0,1-0.8,1.7-1.7,1.7c-1,0-1.7-0.8-1.7-1.7V7.6c0-2.3,1-4.3,2.9-5.6C45.7,0.6,48,0.4,50,1l50.5,15.3c2.9,0.8,5,3.7,5,6.8v34.6
		c0,2.3-1,4.3-2.9,5.8C101.4,63.9,99.9,64.6,98.5,64.6"/>
</g>
</svg>
