<?xml version="1.0" encoding="utf-8"?>
<!-- Generator: Adobe Illustrator 25.0.0, SVG Export Plug-In . SVG Version: 6.00 Build 0)  -->
<svg version="1.1" id="Layer_1" xmlns="http://www.w3.org/2000/svg" xmlns:xlink="http://www.w3.org/1999/xlink" width="175" height="70" x="0px" y="0px"
	 viewBox="0 0 144.2 71.4" style="enable-background:new 0 0 144.2 71.4;" xml:space="preserve">
<style type="text/css">
	.st0{fill:#262F3E;}
	.st1{fill-rule:evenodd;clip-rule:evenodd;fill:#F8991D;}
</style>
<g>
	<path class="st0" d="M50.3,27.5c0,1.2,0.1,2.2,0.4,3c0.3,0.7,0.6,1.5,1.1,2.4c0.2,0.3,0.2,0.5,0.2,0.8c0,0.3-0.2,0.7-0.6,1
		l-2.1,1.4c-0.3,0.2-0.6,0.3-0.9,0.3c-0.3,0-0.7-0.2-1-0.5c-0.5-0.5-0.9-1-1.2-1.6c-0.3-0.6-0.7-1.2-1-2c-2.6,3.1-5.9,4.6-9.8,4.6
		c-2.8,0-5-0.8-6.6-2.4c-1.6-1.6-2.5-3.7-2.5-6.4c0-2.8,1-5.1,3-6.8c2-1.7,4.7-2.6,8.1-2.6c1.1,0,2.3,0.1,3.5,0.3
		c1.2,0.2,2.5,0.4,3.8,0.7v-2.4c0-2.5-0.5-4.3-1.6-5.3c-1.1-1-2.9-1.5-5.4-1.5c-1.2,0-2.4,0.1-3.6,0.4c-1.2,0.3-2.4,0.7-3.6,1.1
		c-0.5,0.2-0.9,0.4-1.2,0.4c-0.2,0-0.4,0.1-0.5,0.1c-0.5,0-0.7-0.3-0.7-1V9.9c0-0.5,0.1-0.9,0.2-1.2c0.2-0.2,0.5-0.5,0.9-0.7
		c1.2-0.6,2.6-1.1,4.2-1.5c1.6-0.4,3.4-0.6,5.2-0.6c4,0,6.8,0.9,8.7,2.7c1.8,1.8,2.8,4.5,2.8,8.2L50.3,27.5L50.3,27.5z M36.8,32.6
		c1.1,0,2.2-0.2,3.4-0.6c1.2-0.4,2.3-1.1,3.2-2.1c0.5-0.6,0.9-1.3,1.1-2.1c0.2-0.8,0.3-1.8,0.3-2.9v-1.4c-1-0.2-2-0.4-3.1-0.6
		c-1.1-0.1-2.1-0.2-3.1-0.2c-2.2,0-3.9,0.4-5,1.3c-1.1,0.9-1.6,2.2-1.6,3.8c0,1.6,0.4,2.7,1.2,3.5C34.1,32.2,35.2,32.6,36.8,32.6z
		 M63.5,36.2c-0.6,0-1-0.1-1.3-0.3c-0.3-0.2-0.5-0.7-0.7-1.3L53.7,8.8c-0.2-0.7-0.3-1.1-0.3-1.3c0-0.5,0.3-0.8,0.8-0.8h3.3
		c0.6,0,1.1,0.1,1.3,0.3c0.3,0.2,0.5,0.7,0.7,1.3l5.6,22l5.2-22c0.2-0.7,0.4-1.1,0.6-1.3c0.3-0.2,0.7-0.3,1.3-0.3h2.7
		c0.6,0,1.1,0.1,1.3,0.3c0.3,0.2,0.5,0.7,0.6,1.3L82,30.6l5.8-22.3C88,7.7,88.2,7.2,88.4,7c0.3-0.2,0.7-0.3,1.3-0.3h3.1
		c0.5,0,0.8,0.3,0.8,0.8c0,0.2,0,0.3-0.1,0.5c0,0.2-0.1,0.5-0.2,0.8l-8,25.7c-0.2,0.7-0.4,1.1-0.7,1.3c-0.3,0.2-0.7,0.3-1.3,0.3
		h-2.9c-0.6,0-1.1-0.1-1.3-0.3c-0.3-0.2-0.5-0.7-0.6-1.3l-5.1-21.4l-5.1,21.4c-0.2,0.7-0.4,1.1-0.6,1.3c-0.3,0.2-0.7,0.3-1.3,0.3
		L63.5,36.2L63.5,36.2z M106.2,37.1c-1.7,0-3.5-0.2-5.1-0.6c-1.7-0.4-3-0.8-3.8-1.3c-0.5-0.3-0.9-0.6-1-0.9
		c-0.1-0.3-0.2-0.6-0.2-0.9v-1.7c0-0.7,0.3-1,0.8-1c0.2,0,0.4,0,0.6,0.1c0.2,0.1,0.5,0.2,0.8,0.3c1.1,0.5,2.4,0.9,3.7,1.2
		c1.3,0.3,2.6,0.4,4,0.4c2.1,0,3.7-0.4,4.9-1.1c1.1-0.7,1.7-1.8,1.7-3.2c0-0.9-0.3-1.7-0.9-2.3c-0.6-0.6-1.7-1.2-3.4-1.7l-4.8-1.5
		c-2.4-0.8-4.2-1.9-5.3-3.4c-1.1-1.5-1.7-3.1-1.7-4.8c0-1.4,0.3-2.6,0.9-3.7s1.4-2,2.4-2.7c1-0.8,2.1-1.3,3.5-1.7
		c1.3-0.4,2.7-0.6,4.2-0.6c0.7,0,1.5,0,2.2,0.1c0.8,0.1,1.5,0.2,2.2,0.4c0.7,0.2,1.3,0.3,1.9,0.5c0.6,0.2,1.1,0.4,1.4,0.6
		c0.5,0.3,0.8,0.5,1,0.8c0.2,0.3,0.3,0.6,0.3,1.1V11c0,0.7-0.3,1.1-0.8,1.1c-0.3,0-0.7-0.1-1.3-0.4c-1.9-0.9-4-1.3-6.4-1.3
		c-1.9,0-3.4,0.3-4.4,0.9c-1,0.6-1.6,1.6-1.6,3c0,0.9,0.3,1.7,1,2.4c0.7,0.6,1.9,1.3,3.7,1.8l4.7,1.5c2.4,0.8,4.1,1.8,5.2,3.2
		c1,1.4,1.5,2.9,1.5,4.7c0,1.4-0.3,2.7-0.9,3.9c-0.6,1.1-1.4,2.1-2.4,2.9c-1,0.8-2.3,1.4-3.7,1.9C109.5,36.8,107.9,37.1,106.2,37.1z
		"/>
	<g>
		<path class="st1" d="M112.5,53.2C101.5,61.3,85.6,65.6,72,65.6c-19.2,0-36.4-7.1-49.4-18.8c-1-0.9-0.1-2.2,1.1-1.5
			c14.1,8.2,31.5,13.1,49.5,13.1c12.1,0,25.5-2.5,37.7-7.7C112.7,49.9,114.3,51.9,112.5,53.2z"/>
		<path class="st1" d="M117,48c-1.4-1.8-9.2-0.9-12.8-0.4c-1.1,0.1-1.2-0.8-0.3-1.5c6.3-4.4,16.5-3.1,17.7-1.7
			c1.2,1.5-0.3,11.8-6.2,16.7c-0.9,0.8-1.8,0.4-1.4-0.6C115.5,57.2,118.4,49.8,117,48z"/>
	</g>
</g>
</svg>
