<?xml version="1.0" encoding="utf-8"?>
<!-- Generator: Adobe Illustrator 25.0.0, SVG Export Plug-In . SVG Version: 6.00 Build 0)  -->
<svg version="1.1" id="Layer_1" xmlns="http://www.w3.org/2000/svg" xmlns:xlink="http://www.w3.org/1999/xlink" width="175" height="70" x="0px" y="0px"
	 viewBox="0 0 171.2 71.4" style="enable-background:new 0 0 171.2 71.4;" xml:space="preserve">
<style type="text/css">
	.st0{fill:#424143;}
	.st1{fill:#F05423;}
</style>
<g id="XMLID_1_">
	<path id="XMLID_6_" class="st0" d="M70.1,57.8h-8.6V13h8.6v16.5c1.3-1.6,4.4-3.2,7.6-3.2c9,0,14,7.4,14,16.2c0,8.8-5,16.1-14,16.1
		c-3.2,0-6.3-1.6-7.6-3.2V57.8L70.1,57.8z M70.1,47.5c1,2.2,3.2,3.5,5.7,3.5c4.6,0,7.4-3.7,7.4-8.7s-2.8-8.7-7.4-8.7
		c-2.5,0-4.9,1.5-5.7,3.5V47.5z"/>
	<path id="XMLID_7_" class="st0" d="M129.3,26.2c6.4,0,10.2,4.4,10.2,11.3v20.2h-8.6V39.4c0-3.2-1.5-5.5-4.4-5.5
		c-2.2,0-4.3,1.3-4.7,4v19.9h-8.6V39.4c0-3.2-1.3-5.5-4.3-5.5c-2.2,0-4.3,1.3-4.9,4v19.9h-8.6V27h8.2v2.5c1.5-1.9,4.4-3.2,7.8-3.2
		c3.7,0,6.5,1.6,8.2,4C121.9,28.1,124.9,26.2,129.3,26.2z"/>
	<path id="XMLID_8_" class="st0" d="M157.6,26.2c7.8,0,12.7,4.6,13.6,11.1h-8.4c-0.5-2.4-2.4-3.8-5.1-3.8c-4,0-6.4,3.5-6.4,8.8
		c0,5.1,2.4,8.7,6.4,8.7c2.8,0,4.6-1.5,5.1-3.8h8.4c-0.9,6.6-5.7,11.1-13.6,11.1c-8.7,0-14.9-6.6-14.9-16.1
		C142.8,32.7,148.9,26.2,157.6,26.2z"/>
	<path id="XMLID_12_" class="st1" d="M7.8,71.1c-2.8,0-5.7-2.2-5.7-6.5v-10c0-4,2.5-8.6,6-10.5l14-8.2l-14-8.2
		c-3.4-2.2-6-6.6-6-10.6V6.8c0-4.3,3-6.5,5.9-6.5c1.2,0,2.5,0.3,3.7,1l31.5,18.7c2.2,1.3,3.4,3.4,3.4,5.5c0,2.2-1.3,4.3-3.4,5.5
		l-7.5,4.4l7.5,4.4c2.2,1.3,3.5,3.4,3.5,5.5c0,2.2-1.3,4.3-3.5,5.5L11.7,70.1C10.4,70.8,9.2,71.1,7.8,71.1z M28.9,39.8L11.7,50
		c-1.3,0.7-2.6,3.1-2.6,4.6v9L39,45.9L28.9,39.8z M9.1,8v9c0,1.5,1.3,3.8,2.6,4.6l17.2,10.2l10.2-6L9.1,8z"/>
</g>
</svg>
