<?xml version="1.0" encoding="utf-8"?>
<!-- Generator: Adobe Illustrator 25.0.0, SVG Export Plug-In . SVG Version: 6.00 Build 0)  -->
<svg version="1.1" id="Layer_1" xmlns="http://www.w3.org/2000/svg" xmlns:xlink="http://www.w3.org/1999/xlink" x="0px" y="0px"
	 viewBox="0 0 171.25 71.45" style="enable-background:new 0 0 171.25 71.45;" xml:space="preserve">
<style type="text/css">
	.st0{fill:#262F3E;}
	.st1{fill-rule:evenodd;clip-rule:evenodd;fill:#F8991D;}
	.st2{fill-rule:evenodd;clip-rule:evenodd;fill:#17A0DB;}
	.st3{fill-rule:evenodd;clip-rule:evenodd;fill:#FFFFFF;}
	.st4{fill:#424143;}
	.st5{fill:#F05423;}
	.st6{fill-rule:evenodd;clip-rule:evenodd;fill:#010101;}
	.st7{fill:#010101;}
	.st8{fill-rule:evenodd;clip-rule:evenodd;fill:#74C050;}
	.st9{fill:#EEC919;}
	.st10{fill:#27B7EA;}
</style>
<g id="XMLID_1_">
	<path id="XMLID_6_" class="st4" d="M70.05,57.79h-8.57V13.01h8.57V29.5c1.34-1.62,4.4-3.24,7.64-3.24
		c8.98,0,13.98,7.36,13.98,16.21c0,8.84-5,16.07-13.98,16.07c-3.24,0-6.35-1.62-7.64-3.24L70.05,57.79L70.05,57.79z M70.05,47.51
		c1.02,2.22,3.24,3.52,5.74,3.52c4.59,0,7.36-3.7,7.36-8.71s-2.78-8.71-7.36-8.71c-2.5,0-4.86,1.48-5.74,3.52V47.51z"/>
	<path id="XMLID_7_" class="st4" d="M129.28,26.25c6.35,0,10.19,4.4,10.19,11.35v20.19h-8.57V39.4c0-3.24-1.48-5.46-4.4-5.46
		c-2.22,0-4.26,1.34-4.72,3.98v19.91h-8.57V39.4c0-3.24-1.34-5.46-4.26-5.46c-2.22,0-4.26,1.34-4.86,3.98v19.91h-8.57V27.04h8.24
		v2.5c1.48-1.9,4.4-3.24,7.83-3.24c3.7,0,6.48,1.62,8.24,3.98C121.91,28.06,124.88,26.25,129.28,26.25z"/>
	<path id="XMLID_8_" class="st4" d="M157.57,26.25c7.83,0,12.69,4.59,13.57,11.07h-8.38c-0.46-2.36-2.36-3.84-5.14-3.84
		c-3.98,0-6.35,3.52-6.35,8.84c0,5.14,2.36,8.71,6.35,8.71c2.78,0,4.59-1.48,5.14-3.84h8.38c-0.88,6.62-5.74,11.07-13.57,11.07
		c-8.71,0-14.87-6.62-14.87-16.07C142.84,32.74,148.86,26.25,157.57,26.25z"/>
	<path id="XMLID_12_" class="st5" d="M7.85,71.08c-2.78,0-5.74-2.22-5.74-6.48v-10c0-3.98,2.5-8.57,6.02-10.47l13.98-8.24
		L8.13,27.64c-3.38-2.22-6.02-6.62-6.02-10.6V6.85c0-4.26,2.96-6.48,5.88-6.48c1.16,0,2.5,0.28,3.7,1.02L43.23,20.1
		c2.22,1.34,3.38,3.38,3.38,5.46c0,2.22-1.34,4.26-3.38,5.46l-7.5,4.4l7.5,4.4c2.22,1.34,3.52,3.38,3.52,5.46
		c0,2.22-1.34,4.26-3.52,5.46L11.7,70.06C10.36,70.76,9.2,71.08,7.85,71.08z M28.93,39.82L11.7,50.01c-1.34,0.74-2.64,3.1-2.64,4.59
		v8.98l29.92-17.69L28.93,39.82z M9.06,8.01v8.98c0,1.48,1.34,3.84,2.64,4.59l17.23,10.19l10.19-6.02L9.06,8.01z"/>
</g>
</svg>
