<svg xmlns="http://www.w3.org/2000/svg" version="1.1" xmlns:xlink="http://www.w3.org/1999/xlink" width="512" height="512" x="0" y="0" viewBox="0 0 682.667 682.667" style="enable-background:new 0 0 512 512" xml:space="preserve" class=""><g><defs><clipPath id="b" clipPathUnits="userSpaceOnUse"><path d="M0 512h512V0H0Z" fill="#0664a4" opacity="1" data-original="#000000"></path></clipPath></defs><mask id="a"><rect width="100%" height="100%" fill="#ffffff" opacity="1" data-original="#ffffff"></rect></mask><g mask="url(#a)"><g clip-path="url(#b)" transform="matrix(1.33333 0 0 -1.33333 0 682.667)"><path d="M0 0v286.962h-79.217c-5.244 0-9.495-4.251-9.495-9.494V-45.837C-59.607-33.438-29.756-18.351 0 0Z" style="stroke-width:15;stroke-linecap:round;stroke-linejoin:round;stroke-miterlimit:10;stroke-dasharray:none;stroke-opacity:1" transform="translate(279.894 118.07)" fill="none" stroke="#0664a4" stroke-width="15" stroke-linecap="round" stroke-linejoin="round" stroke-miterlimit="10" stroke-dasharray="none" stroke-opacity="" data-original="#000000" opacity="1" class=""></path><path d="M0 0v238.572h-79.217a9.495 9.495 0 0 1-9.495-9.495V-30.988C-60.642-23.205-30.738-13.096 0 0Z" style="stroke-width:15;stroke-linecap:round;stroke-linejoin:round;stroke-miterlimit:10;stroke-dasharray:none;stroke-opacity:1" transform="translate(191.183 72.233)" fill="none" stroke="#0664a4" stroke-width="15" stroke-linecap="round" stroke-linejoin="round" stroke-miterlimit="10" stroke-dasharray="none" stroke-opacity="" data-original="#000000" opacity="1" class=""></path><path d="M0 0v175.332h-79.218a9.494 9.494 0 0 1-9.494-9.495V-18.797A736.184 736.184 0 0 1 0 0Z" style="stroke-width:15;stroke-linecap:round;stroke-linejoin:round;stroke-miterlimit:10;stroke-dasharray:none;stroke-opacity:1" transform="translate(102.47 41.245)" fill="none" stroke="#0664a4" stroke-width="15" stroke-linecap="round" stroke-linejoin="round" stroke-miterlimit="10" stroke-dasharray="none" stroke-opacity="" data-original="#000000" opacity="1" class=""></path><path d="M0 0c94.841 46.085 151.923 98.87 163.642 110.246a3.345 3.345 0 0 0 4.61.047l25.82-23.957c2.146-1.99 5.634-.468 5.634 2.458v103.057a3.354 3.354 0 0 1-3.353 3.354H97.35c-2.96 0-4.469-3.556-2.412-5.684l26.891-27.825a3.36 3.36 0 0 0 .127-4.532C-13.371.999-187.403-48.271-293.237-63.604a4.705 4.705 0 0 1-4.026-4.661c0-2.665 2.212-4.811 4.875-4.716 102.382 3.65 189.913 28.197 260.225 58.297" style="stroke-width:15;stroke-linecap:round;stroke-linejoin:round;stroke-miterlimit:10;stroke-dasharray:none;stroke-opacity:1" transform="translate(304.779 85.724)" fill="none" stroke="#0664a4" stroke-width="15" stroke-linecap="round" stroke-linejoin="round" stroke-miterlimit="10" stroke-dasharray="none" stroke-opacity="" data-original="#000000" opacity="1" class=""></path><path d="M0 0v139.668a9.494 9.494 0 0 1-9.495 9.495h-69.722a9.494 9.494 0 0 1-9.495-9.495v-371.695C-58.753-213.552-28.896-191.772 0-166.09V-35" style="stroke-width:15;stroke-linecap:round;stroke-linejoin:round;stroke-miterlimit:10;stroke-dasharray:none;stroke-opacity:1" transform="translate(368.606 350.098)" fill="none" stroke="#0664a4" stroke-width="15" stroke-linecap="round" stroke-linejoin="round" stroke-miterlimit="10" stroke-dasharray="none" stroke-opacity="" data-original="#000000" opacity="1" class=""></path></g></g></g></svg>