<svg xmlns="http://www.w3.org/2000/svg" version="1.1" xmlns:xlink="http://www.w3.org/1999/xlink" width="512" height="512" x="0" y="0" viewBox="0 0 64 64" style="enable-background:new 0 0 512 512" xml:space="preserve" class=""><g><path d="M60 53h-1V18a3 3 0 0 0-3-3h-7a1 1 0 0 0-1-1h-1.548a14.85 14.85 0 0 0-1.408-3.387l1.1-1.1a1 1 0 0 0 0-1.414L41.9 3.858a1 1 0 0 0-1.414 0l-1.1 1.1A14.85 14.85 0 0 0 36 3.548V2a1 1 0 0 0-1-1h-6a1 1 0 0 0-1 1v1.548a14.85 14.85 0 0 0-3.387 1.408l-1.1-1.1a1 1 0 0 0-1.414 0L17.858 8.1a1 1 0 0 0 0 1.414l1.1 1.1A14.85 14.85 0 0 0 17.548 14H16a1 1 0 0 0-1 1H8a3 3 0 0 0-3 3v35H4a3 3 0 0 0-3 3v2a5.006 5.006 0 0 0 5 5h52a5.006 5.006 0 0 0 5-5v-2a3 3 0 0 0-3-3ZM16 22h1.548a14.85 14.85 0 0 0 1.408 3.387l-1.1 1.1a1 1 0 0 0 0 1.414l4.244 4.241a1 1 0 0 0 1.414 0l1.1-1.1A14.887 14.887 0 0 0 28 32.452V34a1 1 0 0 0 1 1h6a1 1 0 0 0 1-1v-1.548a14.887 14.887 0 0 0 3.387-1.408l1.1 1.1a1 1 0 0 0 1.414 0l4.241-4.244a1 1 0 0 0 0-1.414l-1.1-1.1A14.85 14.85 0 0 0 46.452 22H48a1 1 0 0 0 1-1h4v28H11V21h4a1 1 0 0 0 1 1Zm1-6h1.33a1 1 0 0 0 .977-.786A12.871 12.871 0 0 1 21.059 11a1 1 0 0 0-.135-1.248l-.945-.944 2.829-2.829.944.945A1 1 0 0 0 25 7.059a12.871 12.871 0 0 1 4.214-1.752A1 1 0 0 0 30 4.33V3h4v1.33a1 1 0 0 0 .786.977A12.871 12.871 0 0 1 39 7.059a1 1 0 0 0 1.248-.135l.944-.945 2.829 2.829-.945.944A1 1 0 0 0 42.941 11a12.871 12.871 0 0 1 1.752 4.214 1 1 0 0 0 .977.786H47v4h-1.33a1 1 0 0 0-.977.786A12.871 12.871 0 0 1 42.941 25a1 1 0 0 0 .135 1.248l.945.944-2.829 2.829-.944-.945A1 1 0 0 0 39 28.941a12.851 12.851 0 0 1-4.213 1.751 1 1 0 0 0-.787.977V33h-4v-1.331a1 1 0 0 0-.787-.977A12.851 12.851 0 0 1 25 28.941a1 1 0 0 0-1.248.135l-.944.945-2.829-2.829.945-.944A1 1 0 0 0 21.059 25a12.871 12.871 0 0 1-1.752-4.214A1 1 0 0 0 18.33 20H17ZM7 18a1 1 0 0 1 1-1h7v2h-5a1 1 0 0 0-1 1v30a1 1 0 0 0 1 1h44a1 1 0 0 0 1-1V20a1 1 0 0 0-1-1h-5v-2h7a1 1 0 0 1 1 1v35H7Zm20 37h10v1a1 1 0 0 1-1 1h-8a1 1 0 0 1-1-1Zm34 3a3 3 0 0 1-3 3H6a3 3 0 0 1-3-3v-2a1 1 0 0 1 1-1h21v1a3 3 0 0 0 3 3h8a3 3 0 0 0 3-3v-1h21a1 1 0 0 1 1 1Z" fill="#0664a4" opacity="1" data-original="#000000" class=""></path><path d="M32 29a11 11 0 1 0-11-11 11.013 11.013 0 0 0 11 11Zm-5-3.522V24a5 5 0 0 1 2.016-4.012 4.905 4.905 0 0 0 5.968 0A5 5 0 0 1 37 24v1.478a8.976 8.976 0 0 1-10 0ZM32 19a3 3 0 1 1 3-3 3 3 0 0 1-3 3Zm0-10a8.993 8.993 0 0 1 6.978 14.674 6.992 6.992 0 0 0-2.67-5.181A4.944 4.944 0 0 0 37 16a5 5 0 0 0-10 0 4.944 4.944 0 0 0 .692 2.493 6.992 6.992 0 0 0-2.67 5.181A8.993 8.993 0 0 1 32 9ZM21 47h2a3 3 0 0 0 3-3h-2a1 1 0 0 1-1 1h-2a1 1 0 0 1-1-1v-4a1 1 0 0 1 1-1h2a1 1 0 0 1 1 1h2a3 3 0 0 0-3-3h-2a3 3 0 0 0-3 3v4a3 3 0 0 0 3 3ZM29 43h1.7l.252.168A4.6 4.6 0 0 1 33 47h2a6.589 6.589 0 0 0-1.635-4.344A2.99 2.99 0 0 0 32 37h-4a1 1 0 0 0-1 1v9h2Zm0-4h3a1 1 0 0 1 0 2h-3ZM38 42.236l2.1 4.211a1.042 1.042 0 0 0 1.79 0L44 42.236V47h2v-9a1 1 0 0 0-1.9-.447L41 43.764l-3.1-6.211A1 1 0 0 0 36 38v9h2ZM2 11h7v1a1 1 0 0 0 1.707.707l5-5a1 1 0 0 0 0-1.414l-5-5A1 1 0 0 0 9 2v1H2a1 1 0 0 0-1 1v6a1 1 0 0 0 1 1Zm1-6h7a1 1 0 0 0 .937-.65L13.586 7l-2.649 2.649A1 1 0 0 0 10 9H3ZM62 3h-7V2a1 1 0 0 0-1.707-.707l-5 5a1 1 0 0 0 0 1.414l5 5A1 1 0 0 0 55 12v-1h7a1 1 0 0 0 1-1V4a1 1 0 0 0-1-1Zm-1 6h-7a1 1 0 0 0-.937.648L50.414 7l2.649-2.649A1 1 0 0 0 54 5h7Z" fill="#0664a4" opacity="1" data-original="#000000" class=""></path></g></svg>