<svg xmlns="http://www.w3.org/2000/svg" version="1.1" xmlns:xlink="http://www.w3.org/1999/xlink" width="512" height="512" x="0" y="0" viewBox="0 0 937 937.5" style="enable-background:new 0 0 512 512" xml:space="preserve" class=""><g><path d="M859.625 0h-718.75c-34.516 0-62.5 27.984-62.5 62.5v375h31.25v-375c0-17.262 13.988-31.25 31.25-31.25h718.75c17.262 0 31.25 13.988 31.25 31.25v625c0 17.262-13.988 31.25-31.25 31.25H531.5V750h328.125c34.516 0 62.5-27.984 62.5-62.5v-625c0-34.516-27.984-62.5-62.5-62.5Zm0 0" style="stroke:none;fill-rule:nonzero;fill-opacity:1;" fill="#0664a4" data-original="#000000" opacity="1" class=""></path><path d="M140.875 62.5h31.25v31.25h-31.25ZM203.375 62.5h31.25v31.25h-31.25ZM265.875 62.5h31.25v31.25h-31.25ZM140.875 125h718.75v31.25h-718.75ZM140.875 375c0 8.633 6.992 15.625 15.625 15.625H344c8.633 0 15.625-6.992 15.625-15.625V250c0-8.633-6.992-15.625-15.625-15.625h-71.656l-26.672-26.672a15.623 15.623 0 0 0-11.047-4.578H156.5c-8.633 0-15.625 6.992-15.625 15.625Zm31.25-140.625h56.031l26.672 26.672a15.623 15.623 0 0 0 11.047 4.578h62.5v93.75h-156.25ZM609.625 250c0-8.633-6.992-15.625-15.625-15.625h-71.656l-26.672-26.672a15.623 15.623 0 0 0-11.047-4.578H406.5c-8.633 0-15.625 6.992-15.625 15.625V375c0 8.633 6.992 15.625 15.625 15.625H594c8.633 0 15.625-6.992 15.625-15.625Zm-31.25 109.375h-156.25v-125h56.031l26.672 26.672a15.623 15.623 0 0 0 11.047 4.578h62.5ZM859.625 250c0-8.633-6.992-15.625-15.625-15.625h-71.656l-26.672-26.672a15.623 15.623 0 0 0-11.047-4.578H656.5c-8.633 0-15.625 6.992-15.625 15.625V375c0 8.633 6.992 15.625 15.625 15.625H844c8.633 0 15.625-6.992 15.625-15.625Zm-31.25 109.375h-156.25v-125h56.031l26.672 26.672a15.623 15.623 0 0 0 11.047 4.578h62.5ZM531.5 609.375v31.25H594c8.633 0 15.625-6.992 15.625-15.625V500c0-8.633-6.992-15.625-15.625-15.625h-71.656l-26.672-26.672a15.623 15.623 0 0 0-11.047-4.578H437.75v31.25h40.406l26.672 26.672a15.623 15.623 0 0 0 11.047 4.578h62.5v93.75ZM844 484.375h-71.656l-26.672-26.672a15.623 15.623 0 0 0-11.047-4.578H656.5c-8.633 0-15.625 6.992-15.625 15.625V625c0 8.633 6.992 15.625 15.625 15.625H844c8.633 0 15.625-6.992 15.625-15.625V500c0-8.633-6.992-15.625-15.625-15.625Zm-15.625 125h-156.25v-125h56.031l26.672 26.672a15.623 15.623 0 0 0 11.047 4.578h62.5ZM57.172 625H15.875C7.242 625 .25 631.992.25 640.625v93.75C.25 743.008 7.242 750 15.875 750h41.297a202.214 202.214 0 0 0 12.344 29.844l-29.188 29.183c-6.094 6.106-6.094 15.993 0 22.098l66.297 66.297c6.105 6.094 15.992 6.094 22.098 0l29.183-29.188a202.214 202.214 0 0 0 29.844 12.344v41.297c0 8.633 6.992 15.625 15.625 15.625h93.75c8.633 0 15.625-6.992 15.625-15.625v-41.297a202.214 202.214 0 0 0 29.844-12.344l29.183 29.188c6.106 6.094 15.993 6.094 22.098 0l66.297-66.297c6.094-6.105 6.094-15.992 0-22.098l-29.188-29.183A202.214 202.214 0 0 0 443.328 750h41.297c8.633 0 15.625-6.992 15.625-15.625v-93.75c0-8.633-6.992-15.625-15.625-15.625h-41.297a202.214 202.214 0 0 0-12.344-29.844l29.188-29.183c6.094-6.106 6.094-15.993 0-22.098l-66.297-66.297c-6.105-6.094-15.992-6.094-22.098 0l-29.183 29.188a202.214 202.214 0 0 0-29.844-12.344v-41.297c0-8.633-6.992-15.625-15.625-15.625h-93.75c-8.633 0-15.625 6.992-15.625 15.625v41.297a202.214 202.214 0 0 0-29.844 12.344l-29.183-29.188c-6.106-6.094-15.993-6.094-22.098 0l-66.297 66.297c-6.094 6.105-6.094 15.992 0 22.098l29.188 29.183a205.621 205.621 0 0 0-3.739 7.7A202.97 202.97 0 0 0 57.172 625Zm26.86 19.531a170.457 170.457 0 0 1 18.28-44.187c3.622-6.133 2.626-13.946-2.406-18.985L73.47 554.926l44.207-44.207 26.433 26.437c5.04 5.032 12.852 6.028 18.985 2.407a170.84 170.84 0 0 1 44.187-18.282A15.625 15.625 0 0 0 219 506.156V468.75h62.5v37.406a15.625 15.625 0 0 0 11.719 15.125 170.84 170.84 0 0 1 44.187 18.282c6.133 3.62 13.946 2.625 18.985-2.407l26.433-26.437 44.207 44.207-26.437 26.433c-5.031 5.04-6.028 12.852-2.406 18.985a170.84 170.84 0 0 1 18.28 44.187 15.625 15.625 0 0 0 15.126 11.719H469v62.5h-37.406a15.625 15.625 0 0 0-15.125 11.719 170.84 170.84 0 0 1-18.281 44.187c-3.622 6.133-2.625 13.946 2.406 18.985l26.437 26.433-44.207 44.207-26.433-26.437c-5.04-5.032-12.852-6.028-18.985-2.407a170.84 170.84 0 0 1-44.187 18.282 15.625 15.625 0 0 0-11.719 15.125v37.406H219v-37.406a15.625 15.625 0 0 0-11.719-15.125 170.84 170.84 0 0 1-44.187-18.282c-6.133-3.62-13.946-2.625-18.985 2.407l-26.433 26.437-44.207-44.207 26.437-26.433c5.031-5.04 6.028-12.852 2.406-18.985a170.84 170.84 0 0 1-18.28-44.187 15.625 15.625 0 0 0-15.126-11.719H31.5v-62.5h37.406a15.625 15.625 0 0 0 15.125-11.719Zm0 0" style="stroke:none;fill-rule:nonzero;fill-opacity:1;" fill="#0664a4" data-original="#000000" opacity="1" class=""></path><path d="M250.25 796.875c60.41 0 109.375-48.965 109.375-109.375S310.66 578.125 250.25 578.125 140.875 627.09 140.875 687.5c.07 60.375 49 109.305 109.375 109.375Zm0-187.5c43.145 0 78.125 34.98 78.125 78.125s-34.98 78.125-78.125 78.125-78.125-34.98-78.125-78.125c.055-43.125 35-78.07 78.125-78.125Zm0 0" style="stroke:none;fill-rule:nonzero;fill-opacity:1;" fill="#0664a4" data-original="#000000" opacity="1" class=""></path></g></svg>