<?xml version="1.0" encoding="utf-8"?>
<!-- Generator: Adobe Illustrator 25.0.0, SVG Export Plug-In . SVG Version: 6.00 Build 0)  -->
<svg version="1.1" id="Layer_1" xmlns="http://www.w3.org/2000/svg" xmlns:xlink="http://www.w3.org/1999/xlink" x="0px" y="0px"
	 viewBox="0 0 144.2 71.4" style="enable-background:new 0 0 144.2 71.4;" xml:space="preserve">
<style type="text/css">
	.st0{fill:url(#SVGID_1_);}
	.st1{fill-opacity:0.24;}
	.st2{fill-opacity:0.32;}
	.st3{fill:url(#SVGID_2_);}
	.st4{opacity:0.5;fill:url(#SVGID_3_);enable-background:new    ;}
	.st5{opacity:0.5;fill:#B0ADFF;enable-background:new    ;}
</style>
<g>
	<g>
		
			<linearGradient id="SVGID_1_" gradientUnits="userSpaceOnUse" x1="-836.4633" y1="631.1373" x2="-823.1713" y2="596.365" gradientTransform="matrix(1 0 0 -1 900 632)">
			<stop  offset="0" style="stop-color:#0B53CE"/>
			<stop  offset="1" style="stop-color:#7252AA"/>
		</linearGradient>
		<path class="st0" d="M47.1,0l50,17.9v24.5c0,0.5-0.1,0.9-0.3,1.3c-0.2,0.4-0.5,0.8-0.9,1c-0.4,0.3-0.8,0.4-1.3,0.5
			c-0.5,0.1-0.9,0-1.3-0.1l-10.5-3.7V27.5c0-1.5-0.4-2.9-1.3-4.1c-0.8-1.2-2-2.1-3.4-2.6L73.3,19c-0.2-0.1-0.4-0.1-0.7-0.1
			c-0.2,0-0.4,0.1-0.6,0.2c-0.2,0.1-0.3,0.3-0.5,0.5c-0.1,0.2-0.2,0.4-0.2,0.7v17l-24.3-8.7V0z"/>
		<path class="st1" d="M97.1,23.2c0,1.5-0.4,2.9-1.3,4.1c-0.8,1.2-2,2.1-3.4,2.6L60,41.7v28.6l37.1-13.6V23.2z"/>
		<path class="st2" d="M97.1,24.3c0,1.5-0.5,2.9-1.3,4.1c-0.8,1.2-2,2.1-3.4,2.6L60,42.9v28.6l37.1-13.6V24.3z"/>
		
			<linearGradient id="SVGID_2_" gradientUnits="userSpaceOnUse" x1="-821.4852" y1="564.5195" x2="-821.4852" y2="605.9718" gradientTransform="matrix(1 0 0 -1 900 632)">
			<stop  offset="0" style="stop-color:#2266E3"/>
			<stop  offset="1" style="stop-color:#AE7FE2"/>
		</linearGradient>
		<path class="st3" d="M97.1,22.9c0,1.5-0.5,2.9-1.3,4.1c-0.8,1.2-2,2.1-3.4,2.6L60,41.4V70l37.1-13.6V22.9z"/>
		
			<linearGradient id="SVGID_3_" gradientUnits="userSpaceOnUse" x1="-802.9252" y1="585.5688" x2="-817.1472" y2="585.5688" gradientTransform="matrix(1 0 0 -1 900 632)">
			<stop  offset="0" style="stop-color:#94B9FF"/>
			<stop  offset="0.29" style="stop-color:#94B9FF;stop-opacity:0.52"/>
			<stop  offset="1" style="stop-color:#538FFF;stop-opacity:0"/>
		</linearGradient>
		<path class="st4" d="M97.1,22.9c0,1.5-0.5,2.9-1.3,4.1c-0.8,1.2-2,2.1-3.4,2.6L60,41.4V70l37.1-13.6V22.9z"/>
		<path class="st5" d="M82.8,33.1l-11.4,4.2V54c0,0.2,0.1,0.5,0.2,0.7c0.1,0.2,0.3,0.4,0.5,0.5c0.2,0.1,0.4,0.2,0.6,0.2
			c0.2,0,0.5,0,0.7-0.1l4.9-1.8c1.4-0.5,2.5-1.4,3.4-2.6c0.8-1.2,1.3-2.6,1.3-4.1V33.1z"/>
	</g>
</g>
</svg>
