<svg id="Layer_1" data-name="Layer 1" xmlns="http://www.w3.org/2000/svg" xmlns:xlink="http://www.w3.org/1999/xlink" viewBox="0 0 55 55"><defs><style>.cls-1{fill:none;}.cls-2{clip-path:url(#clip-path);}.cls-3{fill:#0664a4;}</style><clipPath id="clip-path"><rect class="cls-1" x="2" y="2.1" width="51" height="50.81"/></clipPath></defs><g class="cls-2"><path class="cls-3" d="M52.18,7.83H2.82A.82.82,0,0,0,2,8.65V41.43a.82.82,0,0,0,.82.82H20.21l-2.44,3.64A.82.82,0,0,0,18,47a.8.8,0,0,0,.45.14H34.9a.83.83,0,0,0,.83-.82.86.86,0,0,0-.14-.46l-2.44-3.64h19a.82.82,0,0,0,.82-.82V8.65a.82.82,0,0,0-.82-.82ZM33.37,45.53H20l2.19-3.28h9l2.2,3.28Zm18-4.92H3.65V37.33h47.7Zm0-4.92H3.65V9.47h47.7Z"/><path class="cls-3" d="M29.15,12.75H7.76a.82.82,0,0,0-.82.82.69.69,0,0,0,0,.28l3.29,9a.8.8,0,0,0,.77.54H23.39V25H8.58a.82.82,0,1,0,0,1.64H9.72a3.26,3.26,0,0,0-.34,4.62,3.29,3.29,0,0,0,5-4.29,2.65,2.65,0,0,0-.34-.33h6.39a3.29,3.29,0,1,0,4.64.33,3.12,3.12,0,0,0-.46-.43.82.82,0,0,0,.44-.72V14.39h3.29v2.46a.83.83,0,0,0,1.65,0V13.57A.82.82,0,0,0,29.15,12.75Zm-17.28,18a1.64,1.64,0,1,1,1.65-1.64A1.64,1.64,0,0,1,11.87,30.78Zm-.25-9L8.93,14.39H23.39V16H12.69a.82.82,0,1,0,0,1.64h10.7v4.09Zm10.94,9a1.64,1.64,0,1,1,1.65-1.64A1.65,1.65,0,0,1,22.56,30.78Z"/><path class="cls-3" d="M47.24,11.93H35.73a.83.83,0,0,0-.83.82v4.92a.83.83,0,0,0,.83.82H47.24a.82.82,0,0,0,.82-.82V12.75A.82.82,0,0,0,47.24,11.93Zm-.82,4.92H36.55V13.57h9.87Z"/><path class="cls-3" d="M31.61,28.32H30V30h1.64Z"/><path class="cls-3" d="M38.19,28.32H33.26V30h4.93Z"/><path class="cls-3" d="M38.19,25H30v1.64h8.22Z"/><path class="cls-3" d="M31.61,21.76H30V23.4h1.64Z"/><path class="cls-3" d="M38.19,21.76H33.26V23.4h4.93Z"/><path class="cls-3" d="M47.24,26.68H43.13V25h4.11a.82.82,0,1,0,0-1.64H45.6v-.82a.83.83,0,0,0-1.65,0v.82H42.31a.83.83,0,0,0-.83.82V27.5a.83.83,0,0,0,.83.82h4.11V30H42.31a.82.82,0,1,0,0,1.64H44v.82a.83.83,0,0,0,1.65,0V31.6h1.64a.82.82,0,0,0,.82-.82V27.5A.82.82,0,0,0,47.24,26.68Z"/></g></svg>