<svg xmlns="http://www.w3.org/2000/svg" version="1.1" xmlns:xlink="http://www.w3.org/1999/xlink" width="512" height="512" x="0" y="0" viewBox="0 0 512 512" style="enable-background:new 0 0 512 512" xml:space="preserve" class=""><g><path d="M460.024 60.571H51.975c-7.232 0-13.117 5.885-13.117 13.118v229.526a8 8 0 0 0 8 8h418.285a8 8 0 0 0 8-8V73.689c0-7.233-5.885-13.118-13.119-13.118zm-259.69 234.644h-15.26v-43.972h15.26zm66.582 0h-15.26v-96.712h15.26zm66.582 0h-15.26v-75.393h15.26zm66.582 0h-15.26V157.497h15.26zm57.063 0H416.08V149.497a8 8 0 0 0-8-8h-31.26a8 8 0 0 0-8 8v145.718h-19.322v-83.393a8 8 0 0 0-8-8h-31.26a8 8 0 0 0-8 8v83.393h-19.322V190.503a8 8 0 0 0-8-8h-31.26a8 8 0 0 0-8 8v104.712h-19.322v-51.972a8 8 0 0 0-8-8h-31.26a8 8 0 0 0-8 8v51.972H54.857V76.571h402.285v218.644zM459.1 29.714H52.9c-24.758 0-44.9 20.142-44.9 44.9v253.858c0 24.758 20.143 44.9 44.9 44.9h119.671V416h-48.168c-21.763 0-39.468 14.868-39.468 33.143v25.143a8 8 0 0 0 8 8h326.129a8 8 0 0 0 8-8v-25.143c0-18.275-17.705-33.143-39.468-33.143h-48.168v-42.627H459.1c24.758 0 44.9-20.142 44.9-44.9V74.615c0-24.759-20.143-44.901-44.9-44.901zm-48.036 419.429v17.143H100.936v-17.143c0-9.292 10.747-17.143 23.468-17.143h263.193c12.72 0 23.467 7.85 23.467 17.143zM323.429 416H188.571v-42.627h134.857V416zM488 328.473c0 15.936-12.965 28.9-28.9 28.9H52.9c-15.936 0-28.9-12.965-28.9-28.9V74.615c0-15.936 12.965-28.9 28.9-28.9h406.2c15.936 0 28.9 12.965 28.9 28.9zM75.293 180.247l6.505 2.504a60.726 60.726 0 0 0 4.106 9.905l-2.831 6.374a8 8 0 0 0 1.655 8.904l11.858 11.858a7.999 7.999 0 0 0 8.903 1.655l6.377-2.833a60.723 60.723 0 0 0 9.9 4.104l2.505 6.507a7.999 7.999 0 0 0 7.466 5.127h16.77a8 8 0 0 0 7.466-5.126l2.504-6.505a60.674 60.674 0 0 0 9.905-4.106l6.374 2.831a8.002 8.002 0 0 0 8.904-1.654l11.857-11.858a8 8 0 0 0 1.654-8.904l-2.833-6.377c.424-.812.828-1.633 1.214-2.462a7.94 7.94 0 0 0 1.988-1.083l62.868-47.736 62.299 26.789a7.993 7.993 0 0 0 8.544-1.432l42.458-38.627-.123.62a8 8 0 0 0 7.857 9.552 8.003 8.003 0 0 0 7.839-6.45l4.824-24.404a7.993 7.993 0 0 0-1.676-6.641c-1.527-1.851-3.768-2.893-6.201-2.91l-24.876.091a8.001 8.001 0 0 0 .028 16h.03l4.082-.015-41.199 37.482-61.851-26.596a8 8 0 0 0-7.998.978l-44.369 33.69v-3.487a8 8 0 0 0-5.126-7.466l-6.505-2.504a60.638 60.638 0 0 0-4.106-9.905l2.831-6.374a8 8 0 0 0-1.654-8.904l-11.857-11.858a7.999 7.999 0 0 0-8.904-1.655l-6.378 2.833a60.686 60.686 0 0 0-9.9-4.104l-2.505-6.508a8 8 0 0 0-7.466-5.126h-16.77a8 8 0 0 0-7.466 5.126l-2.505 6.508a60.738 60.738 0 0 0-9.9 4.104l-6.378-2.833a8 8 0 0 0-8.904 1.655l-11.857 11.858a8 8 0 0 0-1.654 8.904l2.832 6.376a60.763 60.763 0 0 0-4.105 9.902l-6.506 2.504a8 8 0 0 0-5.127 7.466v16.77a8.003 8.003 0 0 0 5.127 7.466zm10.874-18.743 5.14-1.978a7.999 7.999 0 0 0 4.909-5.615 44.812 44.812 0 0 1 5.449-13.142 8.002 8.002 0 0 0 .499-7.441l-2.238-5.04 4.09-4.09 5.041 2.239a8 8 0 0 0 7.441-.5 44.82 44.82 0 0 1 13.141-5.448 8 8 0 0 0 5.613-4.909l1.979-5.141h5.783l1.979 5.141a8.002 8.002 0 0 0 5.613 4.909 44.83 44.83 0 0 1 13.141 5.448 8.003 8.003 0 0 0 7.441.5l5.041-2.239 4.09 4.09-2.237 5.038a8.001 8.001 0 0 0 .5 7.442 44.8 44.8 0 0 1 5.449 13.143 7.996 7.996 0 0 0 4.908 5.614l5.139 1.978v5.784l-5.141 1.979a8 8 0 0 0-4.909 5.614 44.817 44.817 0 0 1-5.449 13.141 8.004 8.004 0 0 0-.499 7.442l2.239 5.041-4.089 4.089-5.038-2.237a7.999 7.999 0 0 0-7.442.499 44.779 44.779 0 0 1-13.144 5.449 7.998 7.998 0 0 0-5.614 4.909l-1.979 5.139h-5.783l-1.979-5.14a8.001 8.001 0 0 0-5.614-4.91 44.826 44.826 0 0 1-13.141-5.448 8.002 8.002 0 0 0-7.441-.499l-5.041 2.239-4.09-4.09 2.237-5.038a8.001 8.001 0 0 0-.5-7.442 44.81 44.81 0 0 1-5.449-13.145 7.997 7.997 0 0 0-4.908-5.613l-5.139-1.978v-5.784zm53.956 40.138c20.537 0 37.245-16.708 37.245-37.246s-16.708-37.246-37.245-37.246-37.245 16.708-37.245 37.246 16.708 37.246 37.245 37.246zm0-58.492c11.715 0 21.245 9.531 21.245 21.246s-9.53 21.246-21.245 21.246-21.245-9.531-21.245-21.246 9.53-21.246 21.245-21.246z" fill="#0664a4" opacity="1" data-original="#000000" class=""></path></g></svg>