<svg xmlns="http://www.w3.org/2000/svg" version="1.1" xmlns:xlink="http://www.w3.org/1999/xlink" width="512" height="512" x="0" y="0" viewBox="0 0 509.703 509.703" style="enable-background:new 0 0 512 512" xml:space="preserve" class=""><g><path d="M451.533 379.864c-15.897 0-29.233 11.131-32.649 26.005H257.276v-8.56c0-8.168-5.831-15.283-13.866-16.919a129.898 129.898 0 0 1-30.252-10.182c-31.179-14.959-54.665-41.164-66.135-73.789-11.469-32.624-9.546-67.762 5.413-98.941 17.684-36.858 50.833-62.689 90.949-70.871 8.049-1.643 13.891-8.762 13.891-16.929V99.514h161.608c3.416 14.874 16.752 26.005 32.649 26.005 18.475 0 33.505-15.03 33.505-33.505s-15.03-33.505-33.505-33.505c-15.897 0-29.233 11.131-32.649 26.005H257.276V43.846h71.608c3.416 14.875 16.752 26.005 32.649 26.005 18.475 0 33.505-15.03 33.505-33.505s-15.03-33.505-33.505-33.505c-15.897 0-29.233 11.131-32.649 26.005h-71.608V17.275c0-4.991-2.157-9.737-5.918-13.022A17.212 17.212 0 0 0 237.72.157a259.798 259.798 0 0 0-62.274 16.518c-5.896 2.381-10.594 7.161-12.887 13.113a23.343 23.343 0 0 0 .773 18.511l13.499 27.843c1.857 3.832.465 8.491-3.172 10.606a193.362 193.362 0 0 0-44.665 35.765c-2.833 3.06-7.662 3.391-10.991.758l-24.24-19.169A23.259 23.259 0 0 0 75.9 99.365a23.388 23.388 0 0 0-15.73 9.882 259.622 259.622 0 0 0-34.526 72.252 23.386 23.386 0 0 0 2.194 18.446 23.266 23.266 0 0 0 14.909 10.922l30.144 6.815c4.142.936 6.915 4.902 6.314 9.027a193.358 193.358 0 0 0 .228 57.221c.637 4.158-2.113 8.168-6.261 9.13l-30.139 6.986a23.267 23.267 0 0 0-14.846 10.996 23.397 23.397 0 0 0-2.102 18.456 258.719 258.719 0 0 0 34.931 72.115 23.387 23.387 0 0 0 15.789 9.787 23.27 23.27 0 0 0 17.835-4.845l24.285-19.445c3.312-2.652 8.163-2.33 11.046.735 2.773 2.948 6.423 6.282 10.847 9.909a7.5 7.5 0 0 0 9.51-11.6c-3.926-3.218-7.099-6.107-9.43-8.584-8.203-8.723-21.974-9.676-31.348-2.168l-24.285 19.445a8.108 8.108 0 0 1-6.298 1.711 8.23 8.23 0 0 1-5.627-3.493 243.773 243.773 0 0 1-32.907-67.94 8.231 8.231 0 0 1 .745-6.582 8.106 8.106 0 0 1 5.241-3.883l30.139-6.986c11.745-2.722 19.52-14.15 17.7-26.016a178.414 178.414 0 0 1-.21-52.787c1.721-11.826-6.12-23.167-17.851-25.819l-30.143-6.815a8.112 8.112 0 0 1-5.266-3.857 8.223 8.223 0 0 1-.777-6.575 244.663 244.663 0 0 1 32.534-68.083 8.225 8.225 0 0 1 5.604-3.526 8.106 8.106 0 0 1 6.308 1.673l24.24 19.169c9.434 7.459 23.182 6.436 31.302-2.332a178.362 178.362 0 0 1 41.204-32.992c10.376-6.038 14.384-19.266 9.125-30.115L176.83 41.755a8.177 8.177 0 0 1-.273-6.574c.817-2.122 2.418-3.754 4.507-4.598a244.824 244.824 0 0 1 58.677-15.563 2.158 2.158 0 0 1 1.752.531c.293.256.784.82.784 1.723v92.404c0 1.087-.777 2.004-1.89 2.231-44.756 9.128-81.741 37.952-101.474 79.08-16.693 34.791-18.838 74-6.04 110.405 12.798 36.404 39.006 65.646 73.797 82.338a144.95 144.95 0 0 0 33.748 11.356c1.094.223 1.858 1.136 1.858 2.221v95.12c0 .902-.49 1.466-.782 1.722a2.14 2.14 0 0 1-1.742.533c-19.602-2.613-38.921-7.697-57.423-15.111a8.033 8.033 0 0 1-4.532-4.59 8.175 8.175 0 0 1 .243-6.56l.044-.093 15.205-32.937c3.954-8.565.932-18.845-7.032-23.913a547.726 547.726 0 0 1-14.562-9.583 7.498 7.498 0 0 0-10.422 1.971 7.5 7.5 0 0 0 1.971 10.422 566.256 566.256 0 0 0 14.961 9.845 3.952 3.952 0 0 1 1.466 4.971l-15.185 32.893a23.34 23.34 0 0 0-.664 18.432c2.315 5.939 7.027 10.701 12.928 13.066 19.657 7.877 40.188 13.279 61.021 16.056a17.214 17.214 0 0 0 13.605-4.115 17.292 17.292 0 0 0 5.901-13.008v-15.892h71.608c3.416 14.874 16.752 26.005 32.649 26.005 18.475 0 33.505-15.03 33.505-33.505s-15.03-33.505-33.505-33.505c-15.897 0-29.233 11.131-32.649 26.005h-71.608V420.87h161.608c3.416 14.875 16.752 26.005 32.649 26.005 18.475 0 33.505-15.03 33.505-33.505s-15.032-33.506-33.506-33.506zm0-306.356c10.204 0 18.505 8.301 18.505 18.505s-8.301 18.505-18.505 18.505-18.506-8.301-18.506-18.505 8.302-18.505 18.506-18.505zm-90-55.667c10.204 0 18.505 8.301 18.505 18.505s-8.301 18.505-18.505 18.505-18.506-8.301-18.506-18.505 8.302-18.505 18.506-18.505zm0 432.69c10.204 0 18.505 8.301 18.505 18.505s-8.301 18.505-18.505 18.505-18.506-8.301-18.506-18.505 8.302-18.505 18.506-18.505zm90-18.656c-10.204 0-18.506-8.301-18.506-18.505s8.302-18.505 18.506-18.505 18.505 8.301 18.505 18.505-8.301 18.505-18.505 18.505z" fill="#0664a4" opacity="1" data-original="#000000" class=""></path><path d="M263.447 229.108c4.143 0 7.5-3.358 7.5-7.5s-3.357-7.5-7.5-7.5h-27.159a7.5 7.5 0 0 0-7.5 7.5v64.455a7.5 7.5 0 0 0 7.5 7.5h27.159c4.143 0 7.5-3.358 7.5-7.5s-3.357-7.5-7.5-7.5h-19.659v-17.228h17.656c4.143 0 7.5-3.358 7.5-7.5s-3.357-7.5-7.5-7.5h-17.656v-17.228h19.659zM347.039 238.217c0-13.458-11.378-24.406-25.362-24.406H304.37a7.5 7.5 0 0 0-7.5 7.5v65.049c0 4.142 3.357 7.5 7.5 7.5s7.5-3.358 7.5-7.5v-20.086l22.039 25.041a7.483 7.483 0 0 0 5.633 2.545 7.5 7.5 0 0 0 5.627-12.455l-17.201-19.544c10.951-2.699 19.071-12.275 19.071-23.644zm-25.363 9.406c-2.255 0-6.178.017-9.708.034-.019-3.453-.035-7.26-.035-9.439 0-1.848-.01-5.79-.02-9.406h9.764c5.617 0 10.362 4.307 10.362 9.406 0 5.098-4.745 9.405-10.363 9.405zM375.002 286.361c0 4.142 3.357 7.5 7.5 7.5s7.5-3.358 7.5-7.5v-20.796c3.803-.02 8.156-.039 10.612-.039 14.455 0 26.216-11.599 26.216-25.857 0-14.257-11.761-25.857-26.216-25.857h-18.112a7.501 7.501 0 0 0-7.5 7.524zm25.612-57.549c6.08 0 11.216 4.972 11.216 10.857s-5.136 10.857-11.216 10.857c-2.438 0-6.739.019-10.528.039-.02-3.912-.051-17.66-.062-21.752h10.59z" fill="#0664a4" opacity="1" data-original="#000000" class=""></path><path d="M312.214 173.451h-55.396c-44.876 0-81.386 36.509-81.386 81.385s36.51 81.386 81.386 81.386H392.8c44.876 0 81.386-36.509 81.386-81.386 0-44.876-36.51-81.385-81.386-81.385h-50.587c-4.143 0-7.5 3.358-7.5 7.5s3.357 7.5 7.5 7.5H392.8c36.605 0 66.386 29.78 66.386 66.385s-29.78 66.386-66.386 66.386H256.818c-36.605 0-66.386-29.781-66.386-66.386s29.78-66.385 66.386-66.385h55.396a7.5 7.5 0 0 0 0-15z" fill="#0664a4" opacity="1" data-original="#000000" class=""></path></g></svg>