<svg id="Layer_1" data-name="Layer 1" xmlns="http://www.w3.org/2000/svg" viewBox="0 0 55 55"><defs><style>.cls-1{fill:#fff;}.cls-2{fill:#50b6cf;}.cls-3{fill:#0d0f23;}</style></defs><path class="cls-1" d="M43.41,6.44a3.43,3.43,0,0,1,3.44,3.43V44a3.44,3.44,0,0,1-3.44,3.44H5.58A3.44,3.44,0,0,1,2.14,44V9.87A3.43,3.43,0,0,1,5.58,6.44Z"/><path class="cls-1" d="M5.58,47.4H43.41A3.44,3.44,0,0,0,46.85,44V25.35C38.71,34.25,24.94,40.8,2.14,42V44A3.44,3.44,0,0,0,5.58,47.4Z"/><path class="cls-1" d="M43.41,52.86A9.46,9.46,0,1,0,34,43.41,9.45,9.45,0,0,0,43.41,52.86Z"/><path class="cls-1" d="M49.07,35.85A9.44,9.44,0,0,1,35.85,49.07,9.45,9.45,0,1,0,49.07,35.85Z"/><path class="cls-1" d="M46.85,15H2.14V9.87A3.44,3.44,0,0,1,5.58,6.44H43.41a3.44,3.44,0,0,1,3.44,3.43Z"/><path class="cls-1" d="M9.87,10.73A1.72,1.72,0,0,1,8.15,9V3.86a1.72,1.72,0,0,1,3.44,0V9A1.72,1.72,0,0,1,9.87,10.73Z"/><path class="cls-1" d="M19.33,10.73A1.72,1.72,0,0,1,17.61,9V3.86a1.72,1.72,0,0,1,3.44,0V9A1.72,1.72,0,0,1,19.33,10.73Z"/><path class="cls-1" d="M29.65,10.73A1.72,1.72,0,0,1,27.93,9V3.86a1.72,1.72,0,0,1,3.44,0V9A1.72,1.72,0,0,1,29.65,10.73Z"/><path class="cls-1" d="M39.11,10.73A1.72,1.72,0,0,1,37.39,9V3.86a1.72,1.72,0,1,1,3.44,0V9A1.72,1.72,0,0,1,39.11,10.73Z"/><path class="cls-2" d="M7.3,19.33h5.15v5.16H7.3Z"/><path class="cls-2" d="M16.75,19.33h5.16v5.16H16.75Z"/><path class="cls-2" d="M26.21,19.33h5.16v5.16H26.21Z"/><path class="cls-2" d="M35.67,19.33h5.16v5.16H35.67Z"/><path class="cls-2" d="M7.3,28.79h5.15V34H7.3Z"/><path class="cls-2" d="M16.75,28.79h5.16V34H16.75Z"/><path class="cls-2" d="M26.21,28.79h5.16V34H26.21Z"/><path class="cls-2" d="M35.67,28.79h5.16V34H35.67Z"/><path class="cls-2" d="M7.3,38.25h5.15v5.16H7.3Z"/><path class="cls-2" d="M16.75,38.25h5.16v5.16H16.75Z"/><path class="cls-2" d="M26.21,38.25h5.16v5.16H26.21Z"/><path class="cls-3" d="M47.7,34V9.87a4.29,4.29,0,0,0-4.29-4.29H41.69V3.86a2.58,2.58,0,0,0-5.16,0V5.58h-4.3V3.86a2.58,2.58,0,1,0-5.16,0V5.58H21.91V3.86a2.58,2.58,0,0,0-5.16,0V5.58h-4.3V3.86a2.58,2.58,0,1,0-5.15,0V5.58H5.58a4.3,4.3,0,0,0-4.3,4.29v34.4a4.3,4.3,0,0,0,4.3,4.29h28.9A10.31,10.31,0,1,0,47.7,34ZM38.25,3.86a.86.86,0,1,1,1.72,0V9a.86.86,0,0,1-1.72,0Zm-9.46,0a.86.86,0,0,1,1.72,0V9a.86.86,0,0,1-1.72,0Zm-10.32,0a.86.86,0,0,1,1.72,0V9a.86.86,0,0,1-1.72,0ZM9,3.86a.86.86,0,1,1,1.72,0V9A.86.86,0,0,1,9,9ZM5.58,7.3H7.3V9a2.58,2.58,0,1,0,5.15,0V7.3h4.3V9a2.58,2.58,0,0,0,5.16,0V7.3h5.16V9a2.58,2.58,0,1,0,5.16,0V7.3h4.3V9a2.58,2.58,0,1,0,5.16,0V7.3h1.72A2.58,2.58,0,0,1,46,9.87v4.3H3V9.87A2.57,2.57,0,0,1,5.58,7.3Zm0,39.55A2.58,2.58,0,0,1,3,44.27V15.89H46V33.43a10,10,0,0,0-2.58-.34,10.79,10.79,0,0,0-1.72.15V28.79a.86.86,0,0,0-.86-.86H35.67a.85.85,0,0,0-.86.86V34a.86.86,0,0,0,.86.86h2a10.27,10.27,0,0,0-4,12ZM40,33.09H36.53V29.65H40ZM43.41,52A8.6,8.6,0,1,1,52,43.41,8.6,8.6,0,0,1,43.41,52Z"/><path class="cls-3" d="M44.27,41.92V36.53H42.55v5.39a1.71,1.71,0,0,0-.86,1.49,2.11,2.11,0,0,0,0,.25l-3.14,2.51,1.07,1.35L42.78,45a1.9,1.9,0,0,0,.63.12,1.72,1.72,0,0,0,.86-3.21Z"/><path class="cls-3" d="M12.45,18.47H7.3a.86.86,0,0,0-.86.86v5.16a.85.85,0,0,0,.86.86h5.15a.85.85,0,0,0,.86-.86V19.33A.86.86,0,0,0,12.45,18.47Zm-.86,5.16H8.15V20.19h3.44Z"/><path class="cls-3" d="M21.91,18.47H16.75a.87.87,0,0,0-.86.86v5.16a.86.86,0,0,0,.86.86h5.16a.85.85,0,0,0,.86-.86V19.33A.86.86,0,0,0,21.91,18.47Zm-.86,5.16H17.61V20.19h3.44Z"/><path class="cls-3" d="M31.37,18.47H26.21a.87.87,0,0,0-.86.86v5.16a.86.86,0,0,0,.86.86h5.16a.86.86,0,0,0,.86-.86V19.33A.87.87,0,0,0,31.37,18.47Zm-.86,5.16H27.07V20.19h3.44Z"/><path class="cls-3" d="M35.67,25.35h5.16a.86.86,0,0,0,.86-.86V19.33a.87.87,0,0,0-.86-.86H35.67a.86.86,0,0,0-.86.86v5.16A.85.85,0,0,0,35.67,25.35Zm.86-5.16H40v3.44H36.53Z"/><path class="cls-3" d="M12.45,27.93H7.3a.85.85,0,0,0-.86.86V34a.86.86,0,0,0,.86.86h5.15a.86.86,0,0,0,.86-.86V28.79A.85.85,0,0,0,12.45,27.93Zm-.86,5.16H8.15V29.65h3.44Z"/><path class="cls-3" d="M21.91,27.93H16.75a.86.86,0,0,0-.86.86V34a.87.87,0,0,0,.86.86h5.16a.86.86,0,0,0,.86-.86V28.79A.85.85,0,0,0,21.91,27.93Zm-.86,5.16H17.61V29.65h3.44Z"/><path class="cls-3" d="M31.37,27.93H26.21a.86.86,0,0,0-.86.86V34a.87.87,0,0,0,.86.86h5.16a.87.87,0,0,0,.86-.86V28.79A.86.86,0,0,0,31.37,27.93Zm-.86,5.16H27.07V29.65h3.44Z"/><path class="cls-3" d="M12.45,37.39H7.3a.85.85,0,0,0-.86.86v5.16a.86.86,0,0,0,.86.86h5.15a.86.86,0,0,0,.86-.86V38.25A.85.85,0,0,0,12.45,37.39Zm-.86,5.16H8.15V39.11h3.44Z"/><path class="cls-3" d="M21.91,37.39H16.75a.86.86,0,0,0-.86.86v5.16a.87.87,0,0,0,.86.86h5.16a.86.86,0,0,0,.86-.86V38.25A.85.85,0,0,0,21.91,37.39Zm-.86,5.16H17.61V39.11h3.44Z"/><path class="cls-3" d="M31.37,37.39H26.21a.86.86,0,0,0-.86.86v5.16a.87.87,0,0,0,.86.86h5.16a.87.87,0,0,0,.86-.86V38.25A.86.86,0,0,0,31.37,37.39Zm-.86,5.16H27.07V39.11h3.44Z"/></svg>