<?xml version="1.0" encoding="utf-8"?>
<!-- Generator: Adobe Illustrator 25.0.0, SVG Export Plug-In . SVG Version: 6.00 Build 0)  -->
<svg version="1.1" id="Layer_1" xmlns="http://www.w3.org/2000/svg" xmlns:xlink="http://www.w3.org/1999/xlink" x="0px" y="0px"
	 viewBox="0 0 55 55" style="enable-background:new 0 0 55 55;" xml:space="preserve">
<style type="text/css">
	.st0{fill:#FFFFFF;}
	.st1{fill:#0664A4;}
</style>
<path class="st0" d="M43.4,6.4c1.9,0,3.4,1.5,3.4,3.4c0,0,0,0,0,0V44c0,1.9-1.5,3.4-3.4,3.4H5.6c-1.9,0-3.4-1.5-3.4-3.4V9.9
	c0-1.9,1.5-3.4,3.4-3.4c0,0,0,0,0,0H43.4z"/>
<path class="st0" d="M5.6,47.4h37.8c1.9,0,3.4-1.5,3.4-3.4V25.4C38.7,34.2,24.9,40.8,2.1,42v2C2.2,45.9,3.7,47.4,5.6,47.4z"/>
<path class="st0" d="M43.4,52.9c5.2,0,9.5-4.2,9.5-9.4c0-5.2-4.2-9.5-9.4-9.5S34,38.1,34,43.4c0,0,0,0,0,0.1
	C34,48.6,38.2,52.8,43.4,52.9z"/>
<path class="st0" d="M49.1,35.8c3.1,4.2,2.3,10.1-1.9,13.2c-3.4,2.5-8,2.5-11.4,0c3.1,4.2,9,5.1,13.2,2s5.1-9,2-13.2
	C50.5,37.1,49.8,36.4,49.1,35.8z"/>
<path class="st0" d="M46.8,15H2.1V9.9c0-1.9,1.5-3.4,3.4-3.4h37.8c1.9,0,3.4,1.5,3.4,3.4V15z"/>
<path class="st0" d="M9.9,10.7C8.9,10.7,8.1,10,8.1,9c0,0,0,0,0,0V3.9c0-0.9,0.8-1.7,1.7-1.7s1.7,0.8,1.7,1.7V9
	C11.6,9.9,10.8,10.7,9.9,10.7C9.9,10.7,9.9,10.7,9.9,10.7z"/>
<path class="st0" d="M19.3,10.7c-0.9,0-1.7-0.8-1.7-1.7c0,0,0,0,0,0V3.9c0-0.9,0.8-1.7,1.7-1.7c0.9,0,1.7,0.8,1.7,1.7V9
	C21.1,9.9,20.3,10.7,19.3,10.7C19.3,10.7,19.3,10.7,19.3,10.7z"/>
<path class="st0" d="M29.6,10.7c-0.9,0-1.7-0.8-1.7-1.7c0,0,0,0,0,0V3.9c0-0.9,0.8-1.7,1.7-1.7c0.9,0,1.7,0.8,1.7,1.7V9
	C31.4,9.9,30.6,10.7,29.6,10.7C29.7,10.7,29.7,10.7,29.6,10.7z"/>
<path class="st0" d="M39.1,10.7c-0.9,0-1.7-0.8-1.7-1.7c0,0,0,0,0,0V3.9c0-0.9,0.8-1.7,1.7-1.7c0.9,0,1.7,0.8,1.7,1.7c0,0,0,0,0,0V9
	C40.8,9.9,40.1,10.7,39.1,10.7C39.1,10.7,39.1,10.7,39.1,10.7z"/>
<path class="st0" d="M7.3,19.3h5.2v5.2H7.3V19.3z"/>
<path class="st0" d="M16.8,19.3h5.2v5.2h-5.2V19.3z"/>
<path class="st0" d="M26.2,19.3h5.2v5.2h-5.2V19.3z"/>
<path class="st0" d="M35.7,19.3h5.2v5.2h-5.2V19.3z"/>
<path class="st0" d="M7.3,28.8h5.2V34H7.3V28.8z"/>
<path class="st0" d="M16.8,28.8h5.2V34h-5.2V28.8z"/>
<path class="st0" d="M26.2,28.8h5.2V34h-5.2V28.8z"/>
<path class="st0" d="M35.7,28.8h5.2V34h-5.2V28.8z"/>
<path class="st0" d="M7.3,38.2h5.2v5.2H7.3V38.2z"/>
<path class="st0" d="M16.8,38.2h5.2v5.2h-5.2V38.2z"/>
<path class="st0" d="M26.2,38.2h5.2v5.2h-5.2V38.2z"/>
<path class="st1" d="M47.7,34V9.9c0-2.4-1.9-4.3-4.3-4.3l0,0h-1.7V3.9c0-1.4-1.2-2.6-2.6-2.6c-1.4,0-2.6,1.2-2.6,2.6v1.7h-4.3V3.9
	c0-1.4-1.2-2.6-2.6-2.6c-1.4,0-2.6,1.2-2.6,2.6c0,0,0,0,0,0v1.7h-5.2V3.9c0-1.4-1.2-2.6-2.6-2.6c-1.4,0-2.6,1.2-2.6,2.6v1.7h-4.3
	V3.9c0.1-1.4-1-2.6-2.4-2.7s-2.6,1-2.7,2.4c0,0.1,0,0.2,0,0.3v1.7H5.6c-2.4,0-4.3,1.9-4.3,4.3v34.4c0,2.4,1.9,4.3,4.3,4.3h28.9
	c2.9,4.9,9.2,6.6,14.1,3.7s6.6-9.2,3.7-14.1C51.2,36.3,49.6,34.9,47.7,34z M38.2,3.9c0-0.5,0.4-0.9,0.9-0.9S40,3.4,40,3.9V9
	c0,0.5-0.4,0.9-0.9,0.9S38.2,9.5,38.2,9V3.9z M28.8,3.9c0-0.5,0.4-0.9,0.9-0.9c0.5,0,0.9,0.4,0.9,0.9V9c0,0.5-0.4,0.9-0.9,0.9
	c-0.5,0-0.9-0.4-0.9-0.9V3.9z M18.5,3.9c0-0.5,0.4-0.9,0.9-0.9c0.5,0,0.9,0.4,0.9,0.9V9c0,0.5-0.4,0.9-0.9,0.9
	c-0.5,0-0.9-0.4-0.9-0.9V3.9z M9,3.9C9,3.4,9.4,3,9.9,3c0.5,0,0.9,0.4,0.9,0.9V9c0,0.5-0.4,0.9-0.9,0.9C9.4,9.9,9,9.5,9,9l0,0V3.9z
	 M5.6,7.3h1.7V9c-0.1,1.4,1,2.6,2.4,2.7s2.6-1,2.7-2.4c0-0.1,0-0.2,0-0.3V7.3h4.3V9c0,1.4,1.2,2.6,2.6,2.6c1.4,0,2.6-1.2,2.6-2.6
	V7.3h5.2V9c0,1.4,1.2,2.6,2.6,2.6s2.6-1.2,2.6-2.6c0,0,0,0,0,0V7.3h4.3V9c0,1.4,1.2,2.6,2.6,2.6c1.4,0,2.6-1.2,2.6-2.6c0,0,0,0,0,0
	V7.3h1.7c1.4,0,2.6,1.1,2.6,2.6c0,0,0,0,0,0v4.3H3V9.9C3,8.5,4.2,7.3,5.6,7.3C5.6,7.3,5.6,7.3,5.6,7.3z M5.6,46.8
	c-1.4,0-2.6-1.2-2.6-2.6V15.9h43v17.5c-0.8-0.2-1.7-0.3-2.6-0.3c-0.6,0-1.2,0.1-1.7,0.2v-4.5c0-0.5-0.4-0.9-0.9-0.9l0,0h-5.2
	c-0.5,0-0.9,0.4-0.9,0.8c0,0,0,0,0,0V34c0,0.5,0.4,0.9,0.9,0.9l0,0h2c-3.9,2.6-5.6,7.6-4,12L5.6,46.8z M40,33.1h-3.5v-3.4H40V33.1z
	 M43.4,52c-4.7,0-8.6-3.8-8.6-8.6s3.8-8.6,8.6-8.6s8.6,3.8,8.6,8.6c0,0,0,0,0,0C52,48.2,48.2,52,43.4,52z"/>
<path class="st1" d="M44.3,41.9v-5.4h-1.7v5.4c-0.5,0.3-0.9,0.9-0.9,1.5c0,0.1,0,0.2,0,0.2l-3.1,2.5l1.1,1.3l3.2-2.5
	c0.2,0.1,0.4,0.1,0.6,0.1c0.9,0,1.7-0.8,1.7-1.7C45.1,42.8,44.8,42.2,44.3,41.9L44.3,41.9z"/>
<path class="st1" d="M12.4,18.5H7.3c-0.5,0-0.9,0.4-0.9,0.9l0,0v5.2c0,0.5,0.4,0.9,0.8,0.9c0,0,0,0,0,0h5.2c0.5,0,0.9-0.4,0.9-0.8
	c0,0,0,0,0,0v-5.2C13.3,18.9,12.9,18.5,12.4,18.5L12.4,18.5z M11.6,23.6H8.1v-3.4h3.4V23.6z"/>
<path class="st1" d="M21.9,18.5h-5.2c-0.5,0-0.9,0.4-0.9,0.9v5.2c0,0.5,0.4,0.9,0.9,0.9l0,0h5.2c0.5,0,0.9-0.4,0.9-0.8c0,0,0,0,0,0
	v-5.2C22.8,18.9,22.4,18.5,21.9,18.5C21.9,18.5,21.9,18.5,21.9,18.5z M21,23.6h-3.4v-3.4h3.4L21,23.6z"/>
<path class="st1" d="M31.4,18.5h-5.2c-0.5,0-0.9,0.4-0.9,0.9v5.2c0,0.5,0.4,0.9,0.9,0.9c0,0,0,0,0,0h5.2c0.5,0,0.9-0.4,0.9-0.9
	c0,0,0,0,0,0v-5.2C32.2,18.9,31.8,18.5,31.4,18.5z M30.5,23.6h-3.4v-3.4h3.4V23.6z"/>
<path class="st1" d="M35.7,25.4h5.2c0.5,0,0.9-0.4,0.9-0.9c0,0,0,0,0,0v-5.2c0-0.5-0.4-0.9-0.9-0.9h-5.2c-0.5,0-0.9,0.4-0.9,0.9
	c0,0,0,0,0,0v5.2C34.8,25,35.2,25.3,35.7,25.4C35.7,25.4,35.7,25.4,35.7,25.4z M36.5,20.2H40v3.4h-3.5V20.2z"/>
<path class="st1" d="M12.4,27.9H7.3c-0.5,0-0.9,0.4-0.9,0.8c0,0,0,0,0,0V34c0,0.5,0.4,0.9,0.9,0.9c0,0,0,0,0,0h5.2
	c0.5,0,0.9-0.4,0.9-0.9l0,0v-5.2C13.3,28.3,12.9,27.9,12.4,27.9C12.5,27.9,12.5,27.9,12.4,27.9z M11.6,33.1H8.1v-3.4h3.4V33.1z"/>
<path class="st1" d="M21.9,27.9h-5.2c-0.5,0-0.9,0.4-0.9,0.9l0,0V34c0,0.5,0.4,0.9,0.9,0.9h5.2c0.5,0,0.9-0.4,0.9-0.9l0,0v-5.2
	C22.8,28.3,22.4,27.9,21.9,27.9C21.9,27.9,21.9,27.9,21.9,27.9z M21,33.1h-3.4v-3.4h3.4L21,33.1z"/>
<path class="st1" d="M31.4,27.9h-5.2c-0.5,0-0.9,0.4-0.9,0.9c0,0,0,0,0,0V34c0,0.5,0.4,0.9,0.9,0.9h5.2c0.5,0,0.9-0.4,0.9-0.9v-5.2
	C32.2,28.3,31.8,27.9,31.4,27.9z M30.5,33.1h-3.4v-3.4h3.4V33.1z"/>
<path class="st1" d="M12.4,37.4H7.3c-0.5,0-0.9,0.4-0.9,0.8c0,0,0,0,0,0v5.2c0,0.5,0.4,0.9,0.9,0.9c0,0,0,0,0,0h5.2
	c0.5,0,0.9-0.4,0.9-0.9l0,0v-5.2C13.3,37.8,12.9,37.4,12.4,37.4C12.5,37.4,12.5,37.4,12.4,37.4z M11.6,42.5H8.1v-3.4h3.4V42.5z"/>
<path class="st1" d="M21.9,37.4h-5.2c-0.5,0-0.9,0.4-0.9,0.9l0,0v5.2c0,0.5,0.4,0.9,0.9,0.9h5.2c0.5,0,0.9-0.4,0.9-0.9l0,0v-5.2
	C22.8,37.8,22.4,37.4,21.9,37.4C21.9,37.4,21.9,37.4,21.9,37.4z M21,42.5h-3.4v-3.4h3.4L21,42.5z"/>
<path class="st1" d="M31.4,37.4h-5.2c-0.5,0-0.9,0.4-0.9,0.9l0,0v5.2c0,0.5,0.4,0.9,0.9,0.9h5.2c0.5,0,0.9-0.4,0.9-0.9v-5.2
	C32.2,37.8,31.8,37.4,31.4,37.4z M30.5,42.5h-3.4v-3.4h3.4V42.5z"/>
</svg>
