<svg id="Layer_1" data-name="Layer 1" xmlns="http://www.w3.org/2000/svg" viewBox="0 0 55 55"><defs><style>.cls-1{fill:#fff;}.cls-2{fill:#0664a4;}</style></defs><path class="cls-1" d="M36,41.65,47.2,35.18a3.39,3.39,0,1,1,3.39,5.87L32.3,51.6a3.35,3.35,0,0,1-1.69.46H20.13a3.26,3.26,0,0,1-.93-.13L7.8,48.67V36h8.9a5,5,0,0,1,1.95.39,5,5,0,0,1,1.65,1.1l2.75,2.74H33.21a3.47,3.47,0,0,1,2.4,1C35.74,41.34,35.87,41.49,36,41.65Z"/><path class="cls-1" d="M32.36,2.94h5.08A5.09,5.09,0,0,1,32.36,8H27.28a5.09,5.09,0,0,1,5.08-5.08Z"/><path class="cls-1" d="M32.36,11.41h5.08a5.09,5.09,0,0,1-5.08,5.08H27.28a5.09,5.09,0,0,1,5.08-5.08Z"/><path class="cls-1" d="M27.28,36.82a8.47,8.47,0,1,0-8.47-8.47A8.47,8.47,0,0,0,27.28,36.82Z"/><path class="cls-1" d="M27.28,8H22.2a5.09,5.09,0,0,1-5.08-5.08H22.2A5.09,5.09,0,0,1,27.28,8Z"/><path class="cls-1" d="M27.28,16.49H22.2a5.09,5.09,0,0,1-5.08-5.08H22.2a5.09,5.09,0,0,1,5.08,5.08Z"/><path class="cls-1" d="M7.8,48.67v3.39H2.72V33.43H7.8V48.67Z"/><path class="cls-1" d="M35.75,28.35a8.47,8.47,0,0,1-8.47,8.47A7.45,7.45,0,0,1,26,36.71,8.47,8.47,0,0,0,26,20a7.44,7.44,0,0,1,1.25-.1,8.47,8.47,0,0,1,8.47,8.47Z"/><path class="cls-1" d="M37.44,2.94A5.09,5.09,0,0,1,32.36,8H29a5.09,5.09,0,0,0,5.09-5.08Z"/><path class="cls-1" d="M37.44,11.41a5.09,5.09,0,0,1-5.08,5.08H29a5.09,5.09,0,0,0,5.09-5.08Z"/><path class="cls-1" d="M51.82,39.81a3.4,3.4,0,0,0-4.62-1.24l-8.06,4.65L36,45c-.12-.16-.25-.31-.38-.46a3.42,3.42,0,0,0-2.4-1H23.05L20.3,40.85a5,5,0,0,0-1.65-1.11,5.21,5.21,0,0,0-1.95-.38H7.8V36h8.9a5,5,0,0,1,1.95.39,5,5,0,0,1,1.65,1.1l2.75,2.74H33.21a3.47,3.47,0,0,1,2.4,1c.13.15.26.3.38.46l3.15-1.82,8.06-4.65a3.38,3.38,0,0,1,5,2.5A3.3,3.3,0,0,1,51.82,39.81Z"/><path class="cls-2" d="M26.43,23.27v1a2.54,2.54,0,0,0-1.65,2.82,2.57,2.57,0,0,0,.86,1.51,2.52,2.52,0,0,0,1.64.59.8.8,0,0,1,.47.15.77.77,0,0,1,.31.38.82.82,0,0,1,.05.49.84.84,0,0,1-.66.66.82.82,0,0,1-.49-.05.77.77,0,0,1-.38-.31.8.8,0,0,1-.15-.47H24.74a2.56,2.56,0,0,0,1.69,2.39v1h1.7v-1a2.54,2.54,0,0,0,1.65-2.82,2.51,2.51,0,0,0-2.5-2.11.86.86,0,0,1-.47-.14A.87.87,0,0,1,26.5,27a.83.83,0,0,1-.05-.49.82.82,0,0,1,.23-.44,1,1,0,0,1,.43-.23.9.9,0,0,1,.49.05.77.77,0,0,1,.38.31.82.82,0,0,1,.15.47h1.69a2.54,2.54,0,0,0-1.69-2.38v-1Z"/><path class="cls-2" d="M32.36,17.34a5.94,5.94,0,0,0,5.93-5.93.85.85,0,0,0-.85-.85H32.36a5.88,5.88,0,0,0-2.3.47,5.78,5.78,0,0,0-1.93,1.32V8.87h4.23a5.94,5.94,0,0,0,5.93-5.93.85.85,0,0,0-.85-.85H32.36A6,6,0,0,0,27.28,5,6,6,0,0,0,22.2,2.09H17.12a.85.85,0,0,0-.85.85A5.94,5.94,0,0,0,22.2,8.87h4.23v3.48A5.78,5.78,0,0,0,24.5,11a5.88,5.88,0,0,0-2.3-.47H17.12a.85.85,0,0,0-.85.85,5.94,5.94,0,0,0,5.93,5.93h4.23v1.73a9.3,9.3,0,1,0,1.7,0V17.34Zm0-5.08h4.15a4.22,4.22,0,0,1-4.15,3.38H28.21a4.31,4.31,0,0,1,1.47-2.43A4.24,4.24,0,0,1,32.36,12.26Zm0-8.47h4.15A4.31,4.31,0,0,1,35,6.22a4.22,4.22,0,0,1-2.68,1H28.21a4.22,4.22,0,0,1,4.15-3.38ZM22.2,7.17a4.22,4.22,0,0,1-4.15-3.38H22.2a4.22,4.22,0,0,1,4.15,3.38Zm0,8.47a4.22,4.22,0,0,1-4.15-3.38H22.2a4.24,4.24,0,0,1,2.68,1,4.31,4.31,0,0,1,1.47,2.43ZM34.9,28.35a7.63,7.63,0,0,1-13,5.39,7.61,7.61,0,0,1-1.65-8.31,7.65,7.65,0,0,1,7-4.71,7.63,7.63,0,0,1,7.62,7.63Z"/><path class="cls-2" d="M3.57,2.09H5.26v1.7H3.57Z"/><path class="cls-2" d="M3.57,5.48H5.26V7.17H3.57Z"/><path class="cls-2" d="M1.87,3.79h1.7V5.48H1.87Z"/><path class="cls-2" d="M5.26,3.79H7V5.48H5.26Z"/><path class="cls-2" d="M8.65,12.26h1.69V14H8.65Z"/><path class="cls-2" d="M8.65,15.64h1.69v1.7H8.65Z"/><path class="cls-2" d="M7,14h1.7v1.69H7Z"/><path class="cls-2" d="M10.34,14H12v1.69h-1.7Z"/><path class="cls-2" d="M3.57,22.42H5.26v1.69H3.57Z"/><path class="cls-2" d="M3.57,25.81H5.26V27.5H3.57Z"/><path class="cls-2" d="M1.87,24.11h1.7v1.7H1.87Z"/><path class="cls-2" d="M5.26,24.11H7v1.7H5.26Z"/><path class="cls-2" d="M49.3,2.09H51v1.7H49.3Z"/><path class="cls-2" d="M49.3,5.48H51V7.17H49.3Z"/><path class="cls-2" d="M51,3.79h1.7V5.48H51Z"/><path class="cls-2" d="M47.61,3.79H49.3V5.48H47.61Z"/><path class="cls-2" d="M44.22,12.26h1.69V14H44.22Z"/><path class="cls-2" d="M44.22,15.64h1.69v1.7H44.22Z"/><path class="cls-2" d="M45.91,14h1.7v1.69h-1.7Z"/><path class="cls-2" d="M42.52,14h1.7v1.69h-1.7Z"/><path class="cls-2" d="M49.3,22.42H51v1.69H49.3Z"/><path class="cls-2" d="M49.3,25.81H51V27.5H49.3Z"/><path class="cls-2" d="M51,24.11h1.7v1.7H51Z"/><path class="cls-2" d="M47.61,24.11H49.3v1.7H47.61Z"/><path class="cls-2" d="M52.56,36a4.25,4.25,0,0,0-5.78-1.56L36.17,40.57a4.2,4.2,0,0,0-3-1.21H23.39l-2.49-2.5a5.88,5.88,0,0,0-4.2-1.74h-8V33.43a.85.85,0,0,0-.85-.85H2.72a.85.85,0,0,0-.85.85V52.06a.85.85,0,0,0,.85.85H7.8a.85.85,0,0,0,.85-.85V49.8l10.32,3a4.57,4.57,0,0,0,1.16.16H30.61a4.29,4.29,0,0,0,2.12-.57L51,41.79A4.25,4.25,0,0,0,52.56,36ZM7,51.21H3.57V34.28H7Zm44.4-12.44a2.65,2.65,0,0,1-.44.89,2.34,2.34,0,0,1-.75.65L31.88,50.87a2.49,2.49,0,0,1-1.27.34H20.13a2.3,2.3,0,0,1-.69-.1L8.65,48V36.82h8a4,4,0,0,1,1.63.32,4.08,4.08,0,0,1,1.37.92l2.74,2.75a.92.92,0,0,0,.61.24H33.21a2.42,2.42,0,0,1,1,.19,2.49,2.49,0,0,1,.82.54,3.27,3.27,0,0,1,.3.35,2.54,2.54,0,0,1-2.08,4H23.05v1.7H33.21a4.38,4.38,0,0,0,2-.49A4.29,4.29,0,0,0,36.73,46,4.13,4.13,0,0,0,37.42,44a4.18,4.18,0,0,0-.31-2l10.51-6.06a2.6,2.6,0,0,1,1.44-.34,2.65,2.65,0,0,1,1.38.52,2.54,2.54,0,0,1,.91,2.67Z"/></svg>