<svg xmlns="http://www.w3.org/2000/svg" version="1.1" xmlns:xlink="http://www.w3.org/1999/xlink" width="512" height="512" x="0" y="0" viewBox="0 0 512 512" style="enable-background:new 0 0 512 512" xml:space="preserve" class=""><g><path d="M110.98 338.776a6.03 6.03 0 0 0 5.953-6.999c-.83-5.123-2.149-14.314-2.149-17.175 0-12.556-10.219-22.775-22.775-22.775-12.561 0-22.779 10.219-22.779 22.775 0 12.561 10.219 22.78 22.779 22.78 3.719 0 14.527.985 18.377 1.367.198.017.396.027.594.027zm-18.971-13.461c-5.906 0-10.713-4.808-10.713-10.713 0-5.906 4.808-10.709 10.713-10.709 5.906 0 10.709 4.803 10.709 10.709 0 2.507.575 7.277 1.155 11.439-4.28-.363-9.248-.726-11.864-.726zM419.996 291.826c-12.556 0-22.775 10.219-22.775 22.775 0 2.856-1.324 12.047-2.154 17.171a6.03 6.03 0 0 0 6.547 6.976c3.851-.382 14.663-1.367 18.382-1.367 12.556 0 22.775-10.219 22.775-22.78 0-12.556-10.219-22.775-22.775-22.775zm0 33.489c-2.616 0-7.584.363-11.863.726.58-4.162 1.155-8.932 1.155-11.439 0-5.906 4.803-10.709 10.709-10.709s10.709 4.803 10.709 10.709c-.001 5.905-4.804 10.713-10.71 10.713z" fill="#0664a4" opacity="1" data-original="#000000" class=""></path><path d="M483.109 242.969h-14.865c-10.425 0-18.92 8.446-19.016 18.823l-.724.675-6.274-37.791c-1.014-5.985-5.357-10.956-11.101-12.694-22.877-6.901-45.465-10.715-68.053-11.728v-19.982a6.035 6.035 0 0 0-6.033-6.033h-16.748a91.248 91.248 0 0 0-9.508-22.636l10.908-10.908a6.03 6.03 0 0 0 0-8.543l-24.325-24.325c-2.317-2.365-6.178-2.365-8.495 0l-11.052 11.004a90.045 90.045 0 0 0-20.03-8.639V92.866a6.035 6.035 0 0 0-6.033-6.033h-34.364a6.035 6.035 0 0 0-6.033 6.033v15.879a91.185 91.185 0 0 0-24.325 9.315l-11.728-11.728c-2.365-2.317-6.178-2.317-8.543 0l-24.325 24.325c-1.11 1.11-1.786 2.654-1.786 4.247s.676 3.137 1.786 4.247l11.101 11.1a91.099 91.099 0 0 0-10.329 23.988h-16.748a6.035 6.035 0 0 0-6.033 6.033v20.464c-19.74 1.496-39.577 5.212-59.558 11.245-5.743 1.738-10.087 6.709-11.101 12.694L63.5 262.466l-.724-.675c-.097-10.377-8.591-18.823-19.016-18.823H28.891c-10.522 0-19.065 8.542-19.065 19.064 0 10.474 8.543 19.017 19.065 19.017h14.866c5.84 0 10.956-2.655 14.479-6.757l1.786 1.786-14.334 26.015c-3.33 6.081-5.116 12.935-5.116 19.885v76.547c0 9.315 7.626 16.941 16.941 16.941h32.096c9.315 0 16.893-7.626 16.893-16.941v-12.452h30.358v22.346c0 9.267 7.529 16.748 16.748 16.748h31.468c9.267 0 16.748-7.481 16.748-16.748v-12.114h105.313v12.114c0 9.267 7.481 16.748 16.699 16.748h31.517c9.218 0 16.748-7.481 16.748-16.748v-22.346H405.5v12.452c0 9.315 7.578 16.941 16.893 16.941h32.096c9.315 0 16.941-7.626 16.941-16.941v-76.547c0-6.95-1.786-13.804-5.116-19.885l-14.334-26.015 1.786-1.786c3.523 4.102 8.639 6.757 14.479 6.757h14.865c10.522 0 19.065-8.543 19.065-19.017-.002-10.521-8.544-19.063-19.066-19.063zM43.757 268.983H28.891c-3.861 0-6.998-3.089-6.998-6.95s3.137-6.998 6.998-6.998h14.866c3.861 0 6.998 3.137 6.998 6.998s-3.137 6.95-6.998 6.95zm383.896-45.417c1.4.386 2.413 1.641 2.655 3.089l7.046 42.328h-35.957c-2.317-7.723-9.46-13.418-17.906-13.418h-14.673c-10.28 0-18.63 8.301-18.775 18.533l-.483.483-6.129-36.874c-1.014-5.936-5.309-10.86-11.004-12.549a282.807 282.807 0 0 0-23.408-5.985c.434-1.158.772-2.365 1.158-3.523 39.191-6.563 77.899-4.053 117.476 7.916zM390.2 274.389c0 3.716-2.992 6.757-6.709 6.757h-14.673c-3.716 0-6.709-3.041-6.709-6.757s2.992-6.757 6.709-6.757h14.673c3.716 0 6.709 3.04 6.709 6.757zm-61.248-37.695c1.303.386 2.317 1.593 2.558 2.992l6.902 41.46H170.548l6.902-41.46c.193-1.4 1.207-2.606 2.558-2.992 50.098-15.107 98.845-15.107 148.944 0zM202.74 198.179c0-27.028 21.96-49.037 48.989-49.037 27.076 0 49.085 22.009 49.085 49.037 0 6.612-1.448 12.935-3.861 18.678-30.069-5.02-59.896-4.73-90.014.868-2.654-5.984-4.199-12.596-4.199-19.546zm-50.243-11.873h15.445c2.896 0 5.358-1.979 5.937-4.779a78.36 78.36 0 0 1 12.356-28.621 6.073 6.073 0 0 0-.724-7.722l-10.28-10.28 15.783-15.734 10.811 10.763c1.979 1.979 5.068 2.317 7.481.821a78.869 78.869 0 0 1 29.104-11.101 6.013 6.013 0 0 0 5.019-5.936V98.899h22.298v15.927c0 2.799 1.931 5.212 4.634 5.889 8.929 2.123 17.375 5.743 25.049 10.811 2.413 1.544 5.55 1.255 7.578-.772l10.135-10.135 15.783 15.783-10.039 10.039c-2.027 2.076-2.365 5.212-.772 7.626 5.599 8.446 9.508 17.713 11.535 27.462.579 2.8 3.041 4.779 5.937 4.779h15.444v13.659c-12.79.048-25.58 1.11-38.418 3.041.096-1.593.29-3.186.29-4.826 0-33.689-27.463-61.103-61.151-61.103-33.689 0-61.055 27.415-61.055 61.103 0 1.255.097 2.51.145 3.765-12.79-1.496-25.532-2.124-38.322-1.737v-13.904zm-70.804 40.349c.241-1.448 1.255-2.703 2.654-3.089 36.585-11.052 72.397-13.997 108.547-9.17.579 1.979 1.207 3.958 1.979 5.888a266.032 266.032 0 0 0-18.389 4.875c-5.647 1.69-9.991 6.613-10.956 12.549l-6.129 36.874-.531-.483c-.145-10.232-8.494-18.533-18.775-18.533h-14.624c-8.495 0-15.589 5.695-17.906 13.418H74.646zm65.157 47.734c0 3.716-3.041 6.757-6.757 6.757h-14.624c-3.716 0-6.757-3.041-6.757-6.757s3.041-6.757 6.757-6.757h14.624c3.716 0 6.757 3.04 6.757 6.757zM94.435 398.525c0 2.703-2.172 4.875-4.826 4.875H57.512c-2.654 0-4.874-2.172-4.874-4.875v-12.452h41.797zm42.424-24.518h-16.072l4.392-17.327c.338-1.496 1.689-2.558 3.282-2.558h8.398zm0-40.736v8.784h-8.398a15.438 15.438 0 0 0-15.01 11.68l-5.116 20.271H52.638v-52.029c0-4.923 1.255-9.75 3.62-14.045l14.817-26.883h36.874c2.703 7.095 9.508 12.163 17.52 12.163h14.624c5.695 0 10.763-2.606 14.19-6.613l1.641 1.641-14.045 25.436a40.813 40.813 0 0 0-5.02 19.595zm52.898 75.148a4.656 4.656 0 0 1-4.682 4.682h-31.468a4.687 4.687 0 0 1-4.682-4.682v-12.114h40.832zm26.111-24.181 4.247-16.893c.386-1.399 1.641-2.413 3.137-2.413h62.454c1.448 0 2.751 1.014 3.089 2.413l4.247 16.893zm144.166 24.181a4.686 4.686 0 0 1-4.682 4.682h-31.517c-2.558 0-4.633-2.076-4.633-4.682v-12.114h40.832zm0-24.181h-54.539l-4.971-19.836c-.869-3.427-2.799-6.275-5.454-8.301-2.606-2.076-5.84-3.235-9.363-3.235h-62.454c-6.998 0-13.128 4.73-14.817 11.536l-4.971 19.836h-54.539v-50.967c0-4.778 1.207-9.556 3.524-13.755l14.527-26.304h175.007l14.479 26.304c2.317 4.199 3.572 8.977 3.572 13.755v50.967zm12.066-10.231v-19.886h11.439a3.419 3.419 0 0 1 3.33 2.558l4.344 17.327H372.1zm87.263 24.518a4.861 4.861 0 0 1-4.875 4.875h-32.096c-2.654 0-4.826-2.172-4.826-4.875v-12.452h41.797zm-3.62-90.593a29.12 29.12 0 0 1 3.62 14.045v52.029h-55.697l-5.116-20.271a15.438 15.438 0 0 0-15.01-11.68H372.1v-8.784c0-6.854-1.737-13.61-5.068-19.595l-14.045-25.436 1.641-1.641c3.475 4.006 8.495 6.613 14.19 6.613h14.673c7.963 0 14.817-5.068 17.52-12.163h39.915zm27.366-38.949h-14.865c-3.861 0-6.998-3.089-6.998-6.95s3.137-6.998 6.998-6.998h14.865c3.861 0 6.998 3.137 6.998 6.998s-3.137 6.95-6.998 6.95z" fill="#0664a4" opacity="1" data-original="#000000" class=""></path><path d="M321.473 303.544c-12.391 0-22.473 10.082-22.473 22.478 0 2.795-1.296 11.816-2.112 16.845a6.02 6.02 0 0 0 1.555 5.095 6.026 6.026 0 0 0 4.992 1.876c3.78-.372 14.39-1.343 18.038-1.343 12.396 0 22.478-10.082 22.478-22.473 0-12.396-10.082-22.478-22.478-22.478zm0 32.885c-2.578 0-7.358.349-11.524.698.566-4.058 1.117-8.668 1.117-11.105 0-5.741 4.671-10.412 10.407-10.412 5.741 0 10.412 4.671 10.412 10.412 0 5.736-4.671 10.407-10.412 10.407zM209.946 326.022c0-12.396-10.082-22.478-22.473-22.478-12.396 0-22.478 10.082-22.478 22.478 0 12.391 10.082 22.473 22.478 22.473 3.648 0 14.258.971 18.038 1.343a6.03 6.03 0 0 0 6.547-6.971c-.816-5.029-2.112-14.05-2.112-16.845zm-22.473 10.407c-5.741 0-10.412-4.671-10.412-10.407 0-5.741 4.671-10.412 10.412-10.412 5.736 0 10.407 4.671 10.407 10.412 0 2.437.551 7.046 1.117 11.105-4.166-.35-8.946-.698-11.524-.698z" fill="#0664a4" opacity="1" data-original="#000000" class=""></path></g></svg>