<svg id="Layer_1" data-name="Layer 1" xmlns="http://www.w3.org/2000/svg" xmlns:xlink="http://www.w3.org/1999/xlink" viewBox="0 0 55 55"><defs><style>.cls-1{fill:none;}.cls-2{clip-path:url(#clip-path);}.cls-3{fill:#0664a4;}</style><clipPath id="clip-path"><rect class="cls-1" x="1.94" y="1.94" width="51.13" height="51.13"/></clipPath></defs><g class="cls-2"><path class="cls-3" d="M53.06,11.69C53,7.35,50.79,5,46.81,5a14,14,0,0,0-4,.66c.1-1.77.1-2.87.1-2.92V1.94H12.09V2.7s0,1.14.1,2.92a14,14,0,0,0-4-.66c-4,0-6.2,2.39-6.25,6.73A20.87,20.87,0,0,0,4.83,23,18.5,18.5,0,0,0,11,29.11a14.37,14.37,0,0,0,7.39,2,10.74,10.74,0,0,0,1.3-.07h.08a11.76,11.76,0,0,0,2.87,2.3,3,3,0,0,1,1.46,2,2.5,2.5,0,0,0,.07,4.8v3.19H20v3.32H16v6.41H39V46.65H35V43.33H30.86V40.14a2.5,2.5,0,0,0,.07-4.8,3,3,0,0,1,1.46-2,11.76,11.76,0,0,0,2.87-2.29c.32,0,.79.07,1.38.07h0a14.37,14.37,0,0,0,7.39-2A18.5,18.5,0,0,0,50.17,23,20.87,20.87,0,0,0,53.06,11.69ZM41.38,3.46c0,.27,0,.62,0,1H13.66c0-.41,0-.76,0-1Zm1,7A12,12,0,0,1,46,9.74a2.74,2.74,0,0,1,2.14.73,3.46,3.46,0,0,1,.47,2.77c-.74,5.34-3.06,9.51-6.53,11.75a8.39,8.39,0,0,1-3.61,1.21C40.75,21.34,41.87,15.25,42.41,10.43Zm-29,5.29a44.17,44.17,0,0,0,3.06,10.22c0,.09.08.17.13.26A8.39,8.39,0,0,1,13,25c-3.47-2.23-5.79-6.41-6.53-11.75a3.46,3.46,0,0,1,.47-2.77A2.74,2.74,0,0,1,9,9.74a12,12,0,0,1,3.56.69C12.77,12.07,13,13.87,13.37,15.72Zm5,13.89a12.8,12.8,0,0,1-6.61-1.81c-2.53-1.52-8.41-6.14-8.29-16.09,0-3.52,1.59-5.23,4.73-5.23a13.05,13.05,0,0,1,4.1.78c0,.51.08,1,.13,1.53A12.22,12.22,0,0,0,9,8.22,4.16,4.16,0,0,0,5.74,9.47a4.86,4.86,0,0,0-.82,4,21.32,21.32,0,0,0,2.54,7.82,14.34,14.34,0,0,0,4.67,5,10.12,10.12,0,0,0,5.24,1.51l0,0c.07.14.15.27.23.41l.08.12.22.37.09.13.16.24.16.23.15.22a.86.86,0,0,1,.07.1ZM37.5,48.17v3.37h-20V48.17h20Zm-6.64-3.32h2.59v1.8H21.55v-1.8h9.31Zm-5.2-1.52v-3.1h3.68v3.1Zm5.51-5.6a1,1,0,0,1-1,1H24.81a1,1,0,0,1,0-2h5.38A1,1,0,0,1,31.17,37.73ZM35,29.05l0,0-.22.28-.06.07a3.47,3.47,0,0,1-.25.29v0A10.49,10.49,0,0,1,31.65,32a4.55,4.55,0,0,0-2.25,3.21H25.6A4.55,4.55,0,0,0,23.35,32,10.18,10.18,0,0,1,20.79,30l-.19-.21a17,17,0,0,1-2.11-3.1l-.2-.37C15,20,14,10.85,13.74,6H41.27c0,.21,0,.43,0,.66v0c0,.24,0,.49,0,.73v0C41.11,8.23,41,9,41,9.79l0,.47c-.56,4.94-1.72,11.24-4.18,16l-.22.4A18.36,18.36,0,0,1,35,29.05Zm8.28-1.25a12.77,12.77,0,0,1-6.61,1.81h-.19c.1-.13.2-.27.29-.41l0-.05.24-.36.06-.1c.09-.13.17-.27.26-.41a.25.25,0,0,1,0-.07l.2-.35.05-.08a10.12,10.12,0,0,0,5.24-1.51,14.34,14.34,0,0,0,4.67-5,21.32,21.32,0,0,0,2.54-7.82,4.86,4.86,0,0,0-.82-4A4.14,4.14,0,0,0,46,8.22a12.22,12.22,0,0,0-3.39.57c.05-.52.09-1,.12-1.49v0a13.05,13.05,0,0,1,4.1-.78c3.14,0,4.69,1.71,4.73,5.23C51.66,21.66,45.78,26.28,43.25,27.8Z"/><path class="cls-3" d="M21.14,26.53l-1.26.83a12.71,12.71,0,0,0,1.38,1.78l1.11-1A12.58,12.58,0,0,1,21.14,26.53Z"/><path class="cls-3" d="M17.89,18.11l-1.49.33a30,30,0,0,0,2.89,8l1.32-.75A28.29,28.29,0,0,1,17.89,18.11Z"/><path class="cls-3" d="M46.24,35.24V33.72H45V32.44H43.44v1.28H42.16v1.52h1.28v1.28H45V35.24Z"/><path class="cls-3" d="M13.2,43.13V41.61H12.12V40.53H10.6v1.08H9.53v1.52H10.6V44.2h1.51V43.13Z"/><path class="cls-3" d="M8.25,30.71H6.81v1.52H8.25Z"/><path class="cls-3" d="M17.45,35.2H16v1.52h1.43Z"/><path class="cls-3" d="M40.54,39.77H39.11v1.52h1.43Z"/></g></svg>