<svg id="Layer_1" data-name="Layer 1" xmlns="http://www.w3.org/2000/svg" viewBox="0 0 55 55"><defs><style>.cls-1{fill:#0664a4;}</style></defs><path class="cls-1" d="M38.8,32.38a5.51,5.51,0,0,0-1-.82h0a5.5,5.5,0,0,0-6.76.83l-.13.13-.12-.13a5.54,5.54,0,0,0-7.82,0,5.32,5.32,0,0,0-.85,1.09,5.58,5.58,0,0,0,.84,6.8l7.35,7.39a.84.84,0,0,0,1.2,0h0l7.35-7.39A5.57,5.57,0,0,0,38.8,32.38Zm-.62,5.95a3.68,3.68,0,0,1-.57.73l-6.75,6.79-6.75-6.79a3.87,3.87,0,0,1-.57-4.73A3.82,3.82,0,0,1,28.78,33a3.9,3.9,0,0,1,.75.59l.73.73a.84.84,0,0,0,1.2,0h0l.73-.73A3.83,3.83,0,0,1,36.88,33,3.87,3.87,0,0,1,38.18,38.33Z"/><path class="cls-1" d="M52.15,23.25a11,11,0,0,0-9,4.67A25.42,25.42,0,0,0,30.9,25a24.92,24.92,0,0,0-13.37,3.66L17,26.78a14.45,14.45,0,0,1,.48-9.36l.39-1h8.77a.85.85,0,0,0,.79-.53l3.4-8.5a.86.86,0,0,0-.47-1.11h0L21,2.9a.84.84,0,0,0-.86.17l-9.35,8.5a.8.8,0,0,0-.24.38l-8,25.84a9.38,9.38,0,0,0-.5,3v6.24a.85.85,0,0,0,.58.81A34.13,34.13,0,0,0,13.33,49.6h6.15A25.66,25.66,0,0,0,30.9,52.15c7.41,0,14.17-2.91,17.47-7.47a11.07,11.07,0,0,0,3.78.67A.85.85,0,0,0,53,44.5V24.1A.85.85,0,0,0,52.15,23.25ZM51.3,43.61a9.46,9.46,0,0,1-2.91-.75.85.85,0,0,0-1.06.32c-2.82,4.42-9.27,7.27-16.43,7.27A23.9,23.9,0,0,1,20.07,48a.89.89,0,0,0-.39-.09H13.33A32.09,32.09,0,0,1,3.7,46.43V40.81a7.54,7.54,0,0,1,.43-2.49l8-25.65,8.79-8,4.77,1.74-2.12,4.94h-2v1.7H24.1a.84.84,0,0,0,.78-.52L27.26,7l1.68.61-2.87,7.15H17.3a.85.85,0,0,0-.79.53l-.6,1.51a16.24,16.24,0,0,0-.54,10.46l.85,3a7.79,7.79,0,0,0-.48.65,8.55,8.55,0,0,0-1.27,3.07l-.55,2.75a.84.84,0,0,0,.66,1h0l.17,0a.86.86,0,0,0,.83-.68l.55-2.76a6.85,6.85,0,0,1,2.92-4.35l1.27-.85a.93.93,0,0,0,.14-.14A24.28,24.28,0,0,1,30.9,26.65,23.3,23.3,0,0,1,43,29.79a.85.85,0,0,0,1.17-.28h0A9.25,9.25,0,0,1,51.3,25Z"/></svg>