<svg id="Layer_1" data-name="Layer 1" xmlns="http://www.w3.org/2000/svg" xmlns:xlink="http://www.w3.org/1999/xlink" viewBox="0 0 55 55"><defs><style>.cls-1{fill:none;}.cls-2{clip-path:url(#clip-path);}.cls-3{fill:#0465a5;}</style><clipPath id="clip-path"><rect class="cls-1" x="2.89" y="2.89" width="49.21" height="49.21"/></clipPath></defs><g class="cls-2"><path class="cls-3" d="M15,17.69A12.07,12.07,0,0,0,2.92,29.75c0,4.13,2,8.58,5.84,13.2.57.69,1.15,1.33,1.7,1.91-2.51.68-4,1.91-4,3.34,0,2.54,4.4,3.91,8.53,3.91s8.53-1.37,8.53-3.91c0-1.43-1.5-2.66-4-3.34a37.83,37.83,0,0,0,3.09-3.68.72.72,0,0,0-.15-1,.73.73,0,0,0-1,.15,37.49,37.49,0,0,1-3.73,4.31.77.77,0,0,0-.31.31c-1,1-1.92,1.79-2.42,2.2C14.49,46.73,13.63,46,12.6,45a.7.7,0,0,0-.36-.36c-3.27-3.29-7.88-9-7.88-14.86a10.63,10.63,0,0,1,21.25,0A16.26,16.26,0,0,1,23,38a.73.73,0,0,0,1.25.74,17.71,17.71,0,0,0,2.79-9A12.08,12.08,0,0,0,15,17.69Zm-.44,31a.73.73,0,0,0,.44.15.71.71,0,0,0,.44-.15,36.77,36.77,0,0,0,2.91-2.58c2.43.5,3.74,1.45,3.74,2.14,0,.52-.71,1.12-1.84,1.58a14.3,14.3,0,0,1-5.25.88c-4.32,0-7.08-1.45-7.08-2.46,0-.69,1.3-1.64,3.74-2.14A37,37,0,0,0,14.54,48.64Z"/><path class="cls-3" d="M15,24.51a5.24,5.24,0,0,0-3.14,1,.72.72,0,1,0,.87,1.15A3.77,3.77,0,0,1,15,26a3.81,3.81,0,1,1-3.8,3.8,3.7,3.7,0,0,1,.15-1.05.72.72,0,0,0-1.39-.4,5.08,5.08,0,0,0-.2,1.45A5.25,5.25,0,1,0,15,24.51Z"/><path class="cls-3" d="M46.43,23.86c.37-.39.75-.82,1.13-1.27,3-3.59,4.52-7,4.52-10.26A9.44,9.44,0,0,0,34,8.66a.72.72,0,1,0,1.32.56,8,8,0,0,1,15.37,3.11c0,6-6.26,11.68-8,13.15-.38-.32-1-.85-1.69-1.54a.71.71,0,0,0-.32-.32c-2.49-2.51-6-6.82-6-11.29a.73.73,0,0,0-1.45,0c0,3.22,1.53,6.67,4.53,10.26.38.45.76.87,1.13,1.27-1.87.56-2.94,1.51-2.94,2.65,0,1,.78,1.82,2.21,2.4a12.26,12.26,0,0,0,4.51.77,12.28,12.28,0,0,0,4.52-.77c1.42-.58,2.21-1.43,2.21-2.4C49.37,25.37,48.29,24.42,46.43,23.86Zm-3.79,4.38c-3.41,0-5.28-1.14-5.28-1.73,0-.38.85-1.07,2.66-1.46A29.15,29.15,0,0,0,42.2,27a.74.74,0,0,0,.89,0s1-.75,2.18-1.94a6.55,6.55,0,0,1,2,.72c.42.26.66.53.66.74C47.92,27.1,46.06,28.24,42.64,28.24Z"/><path class="cls-3" d="M42.64,8.14a4.2,4.2,0,1,0,4.2,4.19A4.2,4.2,0,0,0,42.64,8.14Zm0,7a2.76,2.76,0,1,1,2.76-2.76A2.76,2.76,0,0,1,42.64,15.09Z"/><path class="cls-3" d="M33.28,25.79H33a5.52,5.52,0,0,0-.71.05.72.72,0,0,0,.09,1.44h.1a4.53,4.53,0,0,1,.52,0h.33a.73.73,0,0,0,0-1.45Z"/><path class="cls-3" d="M30.9,47.44h-1a.72.72,0,0,0,0,1.44h1a.73.73,0,0,0,0-1.45Z"/><path class="cls-3" d="M34.14,35.14h-1a.72.72,0,1,0,0,1.44h1a.72.72,0,0,0,0-1.44Z"/><path class="cls-3" d="M30.32,27.26a.73.73,0,0,0-1,0,5.64,5.64,0,0,0-.73.82.73.73,0,0,0,.16,1,.75.75,0,0,0,.42.14.73.73,0,0,0,.59-.3,5.15,5.15,0,0,1,.53-.61A.72.72,0,0,0,30.32,27.26Z"/><path class="cls-3" d="M34.71,47.43h-1a.72.72,0,1,0,0,1.44h1a.72.72,0,0,0,0-1.44Z"/><path class="cls-3" d="M27.08,47.46h-.95a.72.72,0,1,0,0,1.44h1a.72.72,0,0,0,.72-.72A.73.73,0,0,0,27.08,47.46Z"/><path class="cls-3" d="M30.85,34.53a4.34,4.34,0,0,1-.64-.49.72.72,0,0,0-1,0,.73.73,0,0,0,0,1,5.6,5.6,0,0,0,.87.67.68.68,0,0,0,.38.12.71.71,0,0,0,.61-.34A.72.72,0,0,0,30.85,34.53Z"/><path class="cls-3" d="M29.07,32a4.88,4.88,0,0,1-.07-.76v0a.71.71,0,0,0-.71-.73h0a.71.71,0,0,0-.72.71v.06a5.16,5.16,0,0,0,.1,1,.72.72,0,0,0,.7.58h.14A.73.73,0,0,0,29.07,32Z"/><path class="cls-3" d="M38,35.14H37a.72.72,0,0,0,0,1.44h1a.72.72,0,0,0,0-1.44Z"/><path class="cls-3" d="M49.54,36.61a6.54,6.54,0,0,0-.89-.59.72.72,0,1,0-.7,1.25,6.45,6.45,0,0,1,.69.47.71.71,0,0,0,.45.16.75.75,0,0,0,.57-.28A.73.73,0,0,0,49.54,36.61Z"/><path class="cls-3" d="M46.86,47.94a.72.72,0,0,0-.81-.61,5.81,5.81,0,0,1-.72.05h-.14a.72.72,0,0,0,0,1.44h.14a6.84,6.84,0,0,0,.91-.06A.73.73,0,0,0,46.86,47.94Z"/><path class="cls-3" d="M50,45.91a.72.72,0,0,0-1,0,5.56,5.56,0,0,1-.65.53.73.73,0,0,0,.41,1.32.74.74,0,0,0,.41-.13,6,6,0,0,0,.83-.68A.72.72,0,0,0,50,45.91Z"/><path class="cls-3" d="M51.45,42.41a.72.72,0,0,0-.84.58,8.12,8.12,0,0,1-.22.81.72.72,0,0,0,.43.92.74.74,0,0,0,.93-.44,6,6,0,0,0,.27-1A.71.71,0,0,0,51.45,42.41Z"/><path class="cls-3" d="M51.88,40.09a7.09,7.09,0,0,0-.38-1,.72.72,0,1,0-1.3.61,7.47,7.47,0,0,1,.29.79.73.73,0,0,0,.69.52.64.64,0,0,0,.2,0A.72.72,0,0,0,51.88,40.09Z"/><path class="cls-3" d="M41.76,35.14h-.95a.72.72,0,0,0,0,1.44h.95a.72.72,0,1,0,0-1.44Z"/><path class="cls-3" d="M38.52,47.41h-1a.73.73,0,0,0-.72.73.72.72,0,0,0,.72.72h1a.71.71,0,0,0,.71-.72A.72.72,0,0,0,38.52,47.41Z"/><path class="cls-3" d="M45.61,35.15h-1a.72.72,0,1,0,0,1.44h1a.72.72,0,0,0,.72-.69A.71.71,0,0,0,45.61,35.15Z"/><path class="cls-3" d="M42.33,47.39h-.95a.72.72,0,1,0,0,1.44h1a.73.73,0,0,0,0-1.45Z"/></g></svg>