<svg fill="none" height="512" viewBox="0 0 32 32" width="512" xmlns="http://www.w3.org/2000/svg" xmlns:xlink="http://www.w3.org/1999/xlink"><linearGradient id="paint0_linear_110_218" gradientUnits="userSpaceOnUse" x1="16" x2="16" y1="4" y2="29"><stop offset="0" stop-color="#f12711"/><stop offset="1" stop-color="#f5af19"/></linearGradient><path d="m7.5 4c-.66304 0-1.29893.26339-1.76777.73223s-.73223 1.10473-.73223 1.76777.26339 1.29893.73223 1.76777 1.10473.73223 1.76777.73223c.47179-.00127.93359-.13602 1.33203-.38867l7.48637 5.64067c-.8236 1.0272-1.3184 2.3288-1.3184 3.748 0 1.5517.5941 2.9603 1.5605 4.0254l-3.0449 3.0449c-.1681-.0458-.3414-.0694-.5156-.0703-.5304 0-1.0391.2107-1.4142.5858s-.5858.8838-.5858 1.4142.2107 1.0391.5858 1.4142.8838.5858 1.4142.5858c.3064-.0004.6086-.0712.8832-.2069.2747-.1357.5145-.3327.701-.5758s.3146-.5258.3745-.8262c.0599-.3005.05-.6107-.029-.9067l3.209-3.209c.0005.0003.0014-.0003.0019 0 .8502.4618 1.8238.7246 2.8594.7246 3.314 0 6-2.686 6-6 0-2.9724-2.1633-5.4331-5-5.9102v-3.35933c.3805-.22048.6777-.56023.8457-.96666.1679-.40643.1972-.85689.0834-1.28165-.1139-.42477-.3646-.80017-.7133-1.0681s-.776-.41346-1.2158-.41406c-.4398.0006-.8671.14613-1.2158.41406s-.5994.64333-.7133 1.0681c-.1138.42476-.0845.87522.0834 1.28165.168.40643.4652.74618.8457.96666v3.35933c-.7785.131-1.5044.4125-2.1504.8125l-7.89257-5.94722c.06677-.36063.05337-.73153-.03926-1.0864-.09261-.35486-.26217-.68501-.49665-.96702-.23448-.282-.52813-.50897-.86014-.66479-.332-.15583-.69423-.23669-1.06098-.23687zm13.5 11c1.654 0 3 1.346 3 3s-1.346 3-3 3-3-1.346-3-3 1.346-3 3-3z" fill="url(#paint0_linear_110_218)"/></svg>