<?xml version="1.0" encoding="utf-8"?>
<!-- Generator: Adobe Illustrator 25.0.0, SVG Export Plug-In . SVG Version: 6.00 Build 0)  -->
<svg version="1.1" id="Layer_1" xmlns="http://www.w3.org/2000/svg" xmlns:xlink="http://www.w3.org/1999/xlink" x="0px" y="0px"
	 viewBox="0 0 73 102" style="enable-background:new 0 0 73 102;" xml:space="preserve">
<style type="text/css">
	.st0{clip-path:url(#SVGID_2_);}
	.st1{clip-path:url(#SVGID_4_);}
	.st2{clip-path:url(#SVGID_6_);}
	.st3{fill:#EAE3DD;}
	.st4{fill:#93828A;}
	.st5{fill:#846F7A;}
	.st6{fill:#FAB446;}
	.st7{fill:#73AF00;}
	.st8{fill:#F5F5F5;}
	.st9{fill:#41479B;}
	.st10{fill:#FFFFFF;}
	.st11{font-family:'ArialRoundedMTBold';}
	.st12{font-size:12px;}
</style>
<g>
	<defs>
		<rect id="SVGID_1_" width="73" height="101.8"/>
	</defs>
	<clipPath id="SVGID_2_">
		<use xlink:href="#SVGID_1_"  style="overflow:visible;"/>
	</clipPath>
	<g class="st0">
		<g>
			<defs>
				<rect id="SVGID_3_" width="73" height="101.8"/>
			</defs>
			<clipPath id="SVGID_4_">
				<use xlink:href="#SVGID_3_"  style="overflow:visible;"/>
			</clipPath>
			<g class="st1">
				<g>
					<defs>
						<rect id="SVGID_5_" x="0" width="73" height="101.8"/>
					</defs>
					<clipPath id="SVGID_6_">
						<use xlink:href="#SVGID_5_"  style="overflow:visible;"/>
					</clipPath>
					<g class="st2">
						<path class="st3" d="M56.2,98.9c0.8,0,1.5,0.3,2.1,0.8c0.5,0.5,0.8,1.3,0.8,2.1h4c0-1.6,1.2-2.9,2.8-3c1.6,0,2.9,1.2,3,2.8
							v0.1H73v-3.7c-0.5,0-1-0.1-1.4-0.4c-0.4-0.3-0.8-0.6-1.1-1.1c-0.3-0.4-0.4-0.9-0.4-1.4c0-0.5,0.1-1,0.4-1.4
							c0.3-0.4,0.6-0.8,1.1-1.1c0.4-0.3,0.9-0.4,1.4-0.4v-4c-1.6,0-2.9-1.2-3-2.8c0-1.6,1.2-2.9,2.8-3H73v-4c-1.6,0-2.9-1.2-3-2.8
							c0-1.6,1.2-2.9,2.8-3H73v-4c-0.5,0-1-0.1-1.4-0.4c-0.4-0.3-0.8-0.6-1.1-1.1c-0.3-0.4-0.4-0.9-0.4-1.4c0-0.5,0.1-1,0.4-1.4
							c0.3-0.4,0.6-0.8,1.1-1.1c0.4-0.3,0.9-0.4,1.4-0.4v-4c-1.6,0-2.9-1.2-3-2.8c0-1.6,1.2-2.9,2.8-3H73v-4c-0.5,0-1-0.1-1.4-0.4
							c-0.4-0.3-0.8-0.6-1.1-1.1c-0.3-0.4-0.4-0.9-0.4-1.4c0-0.5,0.1-1,0.4-1.4c0.3-0.4,0.6-0.8,1.1-1.1c0.4-0.3,0.9-0.4,1.4-0.4v-4
							c-0.5,0-1-0.1-1.4-0.4c-0.4-0.3-0.8-0.6-1.1-1.1c-0.3-0.4-0.4-0.9-0.4-1.4c0-0.5,0.1-1,0.4-1.4c0.3-0.4,0.6-0.8,1.1-1.1
							c0.4-0.3,0.9-0.4,1.4-0.4v-4c-0.5,0-1-0.1-1.4-0.4c-0.4-0.3-0.8-0.6-1.1-1.1c-0.3-0.4-0.4-0.9-0.4-1.4c0-0.5,0.1-1,0.4-1.4
							c0.3-0.4,0.6-0.8,1.1-1.1c0.4-0.3,0.9-0.4,1.4-0.4v-4c-0.8,0-1.5-0.3-2.1-0.8c-0.5-0.5-0.8-1.3-0.8-2.1s0.3-1.5,0.8-2.1
							c0.5-0.5,1.3-0.8,2.1-0.8v-4c-1.6,0-2.9-1.2-3-2.8c0-1.6,1.2-2.9,2.8-3H73V0h-4.1c0,0.8-0.3,1.5-0.8,2.1
							c-0.5,0.5-1.3,0.8-2.1,0.8c-0.8,0-1.5-0.3-2.1-0.8c-0.5-0.5-0.8-1.3-0.8-2.1h-4c0,0.8-0.3,1.5-0.8,2.1
							c-0.5,0.5-1.3,0.8-2.1,0.8c-0.4,0-0.8-0.1-1.1-0.2c-0.4-0.1-0.7-0.4-0.9-0.6c-0.3-0.3-0.5-0.6-0.6-0.9
							c-0.1-0.4-0.2-0.7-0.2-1.1h-4c0,0.8-0.3,1.5-0.8,2.1c-0.5,0.5-1.3,0.8-2.1,0.8c-0.8,0-1.5-0.3-2.1-0.8
							c-0.5-0.5-0.8-1.3-0.8-2.1h-4c0,0.8-0.3,1.5-0.8,2.1c-0.5,0.5-1.3,0.8-2.1,0.8S35,2.6,34.4,2.1c-0.5-0.5-0.8-1.3-0.8-2.1h-4
							c0,0.8-0.3,1.5-0.8,2.1c-0.5,0.5-1.3,0.8-2.1,0.8c-0.8,0-1.5-0.3-2.1-0.8c-0.5-0.5-0.9-1.3-0.9-2v0h-4c0,0.8-0.3,1.5-0.8,2.1
							c-0.5,0.5-1.3,0.8-2.1,0.8c-0.8,0-1.5-0.3-2.1-0.8c-0.5-0.5-0.8-1.3-0.8-2.1h-4c0,0.8-0.3,1.5-0.8,2C8.5,2.6,7.7,2.9,7,2.9
							c-0.8,0-1.5-0.3-2-0.8S4.1,0.8,4.1,0H0v3.7c0.8,0,1.5,0.3,2.1,0.8c0.5,0.5,0.8,1.3,0.8,2.1c0,0.8-0.3,1.5-0.8,2.1
							C1.5,9.2,0.8,9.5,0,9.5v4c0.8,0,1.5,0.3,2.1,0.8c0.5,0.5,0.8,1.3,0.8,2.1c0,0.4-0.1,0.8-0.2,1.1c-0.1,0.4-0.4,0.7-0.6,0.9
							c-0.3,0.3-0.6,0.5-0.9,0.6c-0.4,0.1-0.7,0.2-1.1,0.2v4c0.8,0,1.5,0.3,2.1,0.8c0.5,0.5,0.8,1.3,0.8,2.1c0,0.8-0.3,1.5-0.8,2.1
							c-0.5,0.5-1.3,0.8-2.1,0.8v4c0.8,0,1.5,0.3,2.1,0.8c0.5,0.5,0.8,1.3,0.8,2.1c0,0.8-0.3,1.5-0.9,2C1.5,38.7,0.8,39,0,39v4
							c0.8,0,1.5,0.3,2.1,0.8c0.5,0.5,0.8,1.3,0.8,2.1v0c0,0.8-0.3,1.5-0.8,2.1c-0.5,0.5-1.3,0.8-2.1,0.8v4c0.8,0,1.5,0.3,2.1,0.8
							c0.5,0.5,0.8,1.3,0.8,2.1c0,0.4-0.1,0.8-0.2,1.1c-0.1,0.4-0.4,0.7-0.6,0.9c-0.3,0.3-0.6,0.5-0.9,0.6c-0.4,0.1-0.7,0.2-1.1,0.2
							l0,4c0.8,0,1.5,0.3,2.1,0.8c0.5,0.5,0.8,1.3,0.8,2.1c0,0.4-0.1,0.8-0.2,1.1c-0.1,0.4-0.4,0.7-0.6,0.9
							c-0.3,0.3-0.6,0.5-0.9,0.6c-0.4,0.1-0.7,0.2-1.1,0.2v4c0.8,0,1.5,0.3,2.1,0.8c0.5,0.5,0.8,1.3,0.8,2.1v0
							c0,0.4-0.1,0.8-0.2,1.1c-0.1,0.4-0.4,0.7-0.6,0.9c-0.3,0.3-0.6,0.5-0.9,0.6c-0.4,0.1-0.7,0.2-1.1,0.2v4c0.8,0,1.5,0.3,2.1,0.8
							c0.5,0.5,0.8,1.3,0.8,2.1c0,0.4-0.1,0.8-0.2,1.1c-0.1,0.4-0.4,0.7-0.6,0.9c-0.3,0.3-0.6,0.5-0.9,0.6c-0.4,0.1-0.7,0.2-1.1,0.2
							v4c0.4,0,0.8,0.1,1.1,0.2c0.4,0.1,0.7,0.4,0.9,0.6c0.3,0.3,0.5,0.6,0.6,0.9c0.1,0.4,0.2,0.7,0.2,1.1s-0.1,0.8-0.2,1.1
							c-0.1,0.4-0.4,0.7-0.6,0.9c-0.3,0.3-0.6,0.5-0.9,0.6C0.8,98,0.4,98.1,0,98.1v3.7h4.1c0-0.8,0.3-1.5,0.8-2.1
							c0.5-0.5,1.3-0.8,2.1-0.8c0.8,0,1.5,0.3,2.1,0.8c0.5,0.5,0.8,1.3,0.8,2.1h4c0-0.8,0.3-1.5,0.8-2.1c0.5-0.5,1.3-0.8,2.1-0.8
							c0.8,0,1.5,0.3,2.1,0.8c0.5,0.5,0.8,1.3,0.8,2.1h4c0-1.6,1.2-2.9,2.8-3c1.6,0,2.9,1.2,3,2.8v0.1h4c0-0.8,0.3-1.5,0.8-2.1
							c0.5-0.5,1.3-0.8,2.1-0.8s1.5,0.3,2.1,0.8c0.5,0.5,0.8,1.3,0.8,2.1h4c0-0.8,0.3-1.5,0.8-2.1c0.5-0.5,1.3-0.8,2.1-0.8
							c0.4,0,0.8,0.1,1.1,0.2c0.3,0.1,0.7,0.4,0.9,0.6c0.3,0.3,0.5,0.6,0.6,0.9c0.1,0.4,0.2,0.7,0.2,1.1h4c0-0.8,0.3-1.5,0.8-2.1
							C54.6,99.2,55.4,98.9,56.2,98.9L56.2,98.9z"/>
						<path class="st4" d="M6.4,6.2h60.2v89.4H6.4V6.2z"/>
						<path class="st5" d="M66.2,6.6v88.5H6.8V6.6H66.2z M67,5.8H6V96H67L67,5.8z"/>
					</g>
				</g>
			</g>
		</g>
	</g>
</g>
<g>
	<path class="st6" d="M59.7,58.6H13.2v-9.3c0-0.4,0.4-0.8,0.8-0.8h44.8c0.4,0,0.8,0.4,0.8,0.8L59.7,58.6L59.7,58.6z"/>
	<path class="st7" d="M58.9,78.9H14c-0.4,0-0.8-0.4-0.8-0.8v-9.3h46.4v9.3C59.7,78.5,59.3,78.9,58.9,78.9z"/>
	<rect x="13.2" y="58.6" class="st8" width="46.4" height="10.1"/>
	<g>
		<path class="st9" d="M36.4,68c-2.4,0-4.3-1.9-4.3-4.3c0-2.4,1.9-4.3,4.3-4.3s4.3,1.9,4.3,4.3C40.7,66,38.8,68,36.4,68z M36.4,60.1
			c-1.9,0-3.5,1.6-3.5,3.5c0,1.9,1.6,3.5,3.5,3.5s3.5-1.6,3.5-3.5C39.9,61.7,38.4,60.1,36.4,60.1z"/>
		<circle class="st9" cx="36.4" cy="63.7" r="0.5"/>
		<polygon class="st9" points="36.4,63.7 35.2,63.9 32.5,63.7 32.5,63.6 35.2,63.5 36.4,63.6 		"/>
		<polygon class="st9" points="36.4,63.7 37.7,63.9 40.3,63.7 40.3,63.6 37.7,63.5 36.4,63.6 		"/>
		<polygon class="st9" points="36.4,63.7 36.2,62.4 36.4,59.7 36.5,59.7 36.6,62.4 36.5,63.7 		"/>
		<polygon class="st9" points="36.4,63.7 36.2,64.9 36.4,67.6 36.5,67.6 36.6,64.9 36.5,63.7 		"/>
		<polygon class="st9" points="36.4,63.7 35.4,62.9 33.6,60.9 33.7,60.8 35.7,62.6 36.5,63.6 		"/>
		<polygon class="st9" points="36.4,63.7 37.2,64.7 39.1,66.5 39.3,66.4 37.5,64.4 36.5,63.6 		"/>
		<polygon class="st9" points="36.4,63.6 37.2,62.6 39.1,60.8 39.3,60.9 37.5,62.9 36.5,63.7 		"/>
		<polygon class="st9" points="36.4,63.6 35.4,64.4 33.6,66.4 33.7,66.5 35.7,64.7 36.5,63.7 		"/>
		<polygon class="st9" points="36.5,63.7 35.4,64.3 32.9,65.2 32.8,65.1 35.2,63.9 36.4,63.6 		"/>
		<polygon class="st9" points="36.5,63.7 37.7,63.4 40.1,62.2 40,62.1 37.5,63 36.4,63.6 		"/>
		<polygon class="st9" points="36.4,63.7 35.8,62.6 34.9,60.1 35,60 36.1,62.4 36.5,63.6 		"/>
		<polygon class="st9" points="36.4,63.7 36.7,64.9 37.9,67.3 38,67.2 37.1,64.7 36.5,63.6 		"/>
		<polygon class="st9" points="36.4,63.7 35.2,63.4 32.8,62.2 32.9,62.1 35.4,63 36.5,63.6 		"/>
		<polygon class="st9" points="36.4,63.7 37.5,64.3 40,65.2 40.1,65.1 37.7,63.9 36.5,63.6 		"/>
		<polygon class="st9" points="36.4,63.6 36.7,62.4 37.9,60 38,60.1 37.1,62.6 36.5,63.7 		"/>
		<polygon class="st9" points="36.4,63.6 35.8,64.7 34.9,67.2 35,67.3 36.1,64.9 36.5,63.7 		"/>
	</g>
	<circle class="st8" cx="36.4" cy="63.7" r="0.7"/>
	<circle class="st9" cx="36.4" cy="63.7" r="0.4"/>
</g>
<g>
</g>
<g>
</g>
<g>
</g>
<g>
</g>
<g>
</g>
<g>
</g>
<g>
</g>
<g>
</g>
<g>
</g>
<g>
</g>
<g>
</g>
<g>
</g>
<g>
</g>
<g>
</g>
<g>
</g>
<text transform="matrix(1 0 0 1 21.9951 31.9034)" class="st10 st11 st12">India</text>
</svg>
