<?xml version="1.0" encoding="utf-8"?>
<!-- Generator: Adobe Illustrator 25.0.0, SVG Export Plug-In . SVG Version: 6.00 Build 0)  -->
<svg version="1.1" id="Layer_1" xmlns="http://www.w3.org/2000/svg" xmlns:xlink="http://www.w3.org/1999/xlink" x="0px" y="0px"
	 viewBox="0 0 175 70" style="enable-background:new 0 0 175 70;" xml:space="preserve">
<style type="text/css">
	.st0{fill:#424143;}
	.st1{font-family:'Switzer-Bold';}
	.st2{font-size:23px;}
	.st3{fill:#F0F0F0;}
	.st4{fill:#FFFFFF;}
	.st5{fill:#73E6FD;}
	.st6{fill:#5C77A5;}
	.st7{fill:#FDD37F;}
	.st8{fill:#FDB166;}
	.st9{fill:#FDE4B1;}
</style>
<text transform="matrix(1 0 0 1 57.8702 42.0778)" class="st0 st1 st2">Industries</text>
<g>
	<path class="st3" d="M5.5,67.2c-1.7,0-3.1-1.4-3.1-3.1v-2.7c0-1.7,1.4-3.1,3.1-3.1h0.3l1.7-36.4c0.1-1.5,1.2-2.8,2.7-2.9
		c-0.2-0.4-0.3-0.7-0.4-1.1C8.1,16.7,7,14.8,7,12.7c0-3.4,2.7-6.1,6.1-6.1c0.6,0,1.2,0.1,1.8,0.3c0.2-0.1,0.5-0.2,0.8-0.3
		c1-2.2,3.2-3.7,5.6-3.7c1.9,0,3.7,0.9,4.9,2.4c2.2,0.1,4.2,1.3,5.2,3.2c2.4,0.9,4,3.2,4,5.7c0,3.4-2.7,6.1-6.1,6.1
		c-1.2,0-2.3-0.3-3.3-1c-1,1-2.3,1.7-3.7,2c0,0.2,0.1,0.4,0.1,0.5l0.9,18.5l8.1-2.8c0.3-0.1,0.7-0.2,1-0.2c1.3,0,2.5,0.8,2.9,2.1
		c0,0,0,0,0,0c0.4,0.1,0.7,0.3,1,0.5c0.1,0.1,0.3,0.2,0.4,0.3l9-3.1c0.3-0.1,0.7-0.2,1-0.2c1.3,0,2.5,0.8,2.9,2.1
		c0.1,0.2,0.1,0.4,0.1,0.5c0.2,0.1,0.4,0.2,0.6,0.3c0.8,0.6,1.3,1.5,1.3,2.5v15.7h0.2c1.7,0,3.1,1.4,3.1,3.1v2.7
		c0,1.7-1.4,3.1-3.1,3.1H5.5z"/>
	<path class="st4" d="M51.9,59.1h-1V42.6c0-0.7-0.4-1.4-1-1.9c-0.3-0.2-0.6-0.3-0.9-0.4c0-0.3,0-0.6-0.1-0.9
		c-0.3-0.9-1.2-1.5-2.2-1.5c-0.3,0-0.5,0-0.7,0.1l-9.6,3.3c-0.2-0.2-0.3-0.4-0.6-0.6c-0.4-0.3-0.8-0.4-1.2-0.4
		c0-0.2-0.1-0.3-0.1-0.5c-0.3-0.9-1.2-1.5-2.2-1.5c-0.3,0-0.5,0-0.7,0.1l-9.2,3.2l-0.9-19.6c0-0.5-0.2-0.9-0.4-1.2
		c1.9-0.1,3.6-1,4.7-2.4c0.9,0.8,2.1,1.2,3.4,1.2c2.9,0,5.3-2.4,5.3-5.3c0-2.4-1.6-4.4-3.8-5.1c-0.8-1.9-2.7-3.1-4.8-3.1
		c-0.1,0-0.1,0-0.2,0c-1-1.5-2.6-2.4-4.5-2.4c-2.3,0-4.3,1.5-5,3.6c-0.5,0.1-0.9,0.3-1.3,0.5c-0.6-0.2-1.2-0.3-1.9-0.3
		c-2.9,0-5.3,2.4-5.3,5.3c0,2,1.1,3.7,2.8,4.7c0.2,0.9,0.6,1.7,1.1,2.4h-1.1c-1.2,0-2.2,1-2.3,2.2L6.6,59.1H5.5
		c-1.3,0-2.3,1-2.3,2.3v2.7c0,1.3,1,2.3,2.3,2.3h46.4c1.3,0,2.3-1,2.3-2.3v-2.7C54.2,60.2,53.2,59.1,51.9,59.1z"/>
	<g id="_x35_215_-_Factory_Chimneys">
		<g>
			<g id="XMLID_49_">
				<g>
					<g>
						<path class="st5" d="M29.3,11.2c1.7,0,3,1.3,3,3s-1.3,3-3,3c-1.6,0-2.9-1.3-3-2.9c-0.1,0-0.2,0-0.3,0c-0.3,0-0.6,0-0.9-0.1
							c-0.1,2.3-2,4.2-4.4,4.2c-0.8,0-1.6-0.2-2.3-0.6c-0.5,0.9-1.5,1.6-2.7,1.6c-1.7,0-3-1.3-3-3c0-0.2,0-0.5,0.1-0.7
							c-1.6-0.1-2.8-1.4-2.8-3c0-1.7,1.3-3,3-3c0.8,0,1.6,0.3,2.1,0.9c0.5-0.7,1.4-1.2,2.4-1.2c0.2,0,0.5,0,0.7,0.1
							c0-0.1,0-0.3,0-0.4c0-1.7,1.3-3,3-3c1.6,0,3,1.3,3,3c0.5-0.3,1.1-0.5,1.7-0.5c1.6,0,2.9,1.3,3,2.9
							C29.1,11.2,29.2,11.2,29.3,11.2z"/>
					</g>
					<g>
						<polygon class="st6" points="51.9,61.4 51.9,64.1 5.5,64.1 5.5,61.4 8.8,61.4 15,61.4 21.1,61.4 34.5,61.4 48.6,61.4 						
							"/>
					</g>
					<g>
						<rect x="43.2" y="49.6" class="st7" width="2.7" height="2.7"/>
					</g>
					<g>
						<rect x="43.2" y="55.5" class="st7" width="2.7" height="2.7"/>
					</g>
					<g>
						<rect x="37.2" y="55.5" class="st7" width="2.7" height="2.7"/>
					</g>
					<g>
						<rect x="37.2" y="49.6" class="st7" width="2.7" height="2.7"/>
					</g>
					<g>
						<rect x="29.1" y="55.5" class="st8" width="2.7" height="2.7"/>
					</g>
					<g>
						<rect x="29.1" y="49.6" class="st8" width="2.7" height="2.7"/>
					</g>
					<g>
						<rect x="23.1" y="49.6" class="st8" width="2.7" height="2.7"/>
					</g>
					<g>
						<rect x="23.1" y="55.5" class="st8" width="2.7" height="2.7"/>
					</g>
					<g>
						<path class="st9" d="M48.6,42.6v18.8H34.5V47.3L48.6,42.6z M45.9,58.3v-2.7h-2.7v2.7H45.9z M45.9,52.4v-2.7h-2.7v2.7H45.9z
							 M40,58.3v-2.7h-2.7v2.7H40z M40,52.4v-2.7h-2.7v2.7H40z"/>
					</g>
					<g>
						<path class="st7" d="M34.5,47.3v14.1H21.1l-0.7-14.1l14.1-4.7V47.3z M31.9,58.3v-2.7h-2.7v2.7H31.9z M31.9,52.4v-2.7h-2.7v2.7
							H31.9z M25.9,58.3v-2.7h-2.7v2.7H25.9z M25.9,52.4v-2.7h-2.7v2.7H25.9z"/>
					</g>
					<g>
						<path class="st9" d="M15,61.4H8.8l1.5-32.7c1.5,0.2,3.2,0.3,4.9,0.3c1.5,0,3-0.1,4.3-0.2l0.9,18.6l0.7,14.1H15L15,61.4z"/>
					</g>
					<g>
						<path class="st8" d="M19.3,22l0.3,6.7c-1.4,0.1-2.8,0.2-4.3,0.2c-1.7,0-3.4-0.1-4.9-0.3l0.3-6.6H19.3L19.3,22z"/>
					</g>
				</g>
				<g>
					<g>
						<path d="M48.6,62.1c-0.4,0-0.7-0.3-0.7-0.7V43.5L34.7,48c-0.4,0.1-0.7-0.1-0.9-0.4c-0.1-0.4,0.1-0.7,0.4-0.9l14.1-4.7
							c0.2-0.1,0.4,0,0.6,0.1s0.3,0.3,0.3,0.5v18.8C49.3,61.8,49,62.1,48.6,62.1z"/>
					</g>
					<g>
						<path d="M34.5,62.1c-0.4,0-0.7-0.3-0.7-0.7V43.5L20.7,48c-0.1,0-0.1,0-0.2,0c-0.4,0-0.7-0.3-0.7-0.7c0-0.3,0.2-0.6,0.5-0.6
							l14.1-4.7c0.2-0.1,0.4,0,0.6,0.1s0.3,0.3,0.3,0.5v18.8C35.2,61.8,34.9,62.1,34.5,62.1z"/>
					</g>
					<g>
						<path d="M8.8,62.1C8.8,62.1,8.8,62.1,8.8,62.1c-0.4,0-0.7-0.3-0.7-0.7L10,22c0-0.4,0.3-0.6,0.7-0.6h8.6c0.4,0,0.7,0.3,0.7,0.6
							l1.8,39.4c0,0.4-0.3,0.7-0.6,0.7c-0.4,0-0.7-0.3-0.7-0.6l-1.8-38.7h-7.4L9.5,61.4C9.5,61.8,9.2,62.1,8.8,62.1z"/>
					</g>
					<g>
						<path d="M51.9,64.8H5.5c-0.4,0-0.7-0.3-0.7-0.7v-2.7c0-0.4,0.3-0.7,0.7-0.7h46.4c0.4,0,0.7,0.3,0.7,0.7v2.7
							C52.6,64.5,52.3,64.8,51.9,64.8z M6.2,63.4h45v-1.3h-45V63.4z"/>
					</g>
					<g>
						<path d="M15.8,20.1c-2,0-3.7-1.7-3.7-3.7c0-0.1,0-0.1,0-0.2c-1.6-0.4-2.7-1.9-2.7-3.5c0-2,1.7-3.7,3.7-3.7
							c0.7,0,1.4,0.2,2,0.6c0.7-0.6,1.6-1,2.5-1c0.2-1.9,1.7-3.4,3.7-3.4c1.7,0,3.1,1.1,3.5,2.6c0.4-0.1,0.8-0.2,1.2-0.2
							c1.7,0,3.2,1.2,3.6,2.9c1.9,0.2,3.4,1.7,3.4,3.7c0,2-1.7,3.7-3.7,3.7c-1.7,0-3.2-1.2-3.6-2.9c0,0,0,0,0,0
							c-0.4,2.3-2.5,4.1-4.9,4.1c-0.7,0-1.4-0.1-2-0.4C18,19.5,16.9,20.1,15.8,20.1z M13.1,10.3c-1.3,0-2.3,1.1-2.3,2.3
							c0,1.2,0.9,2.2,2.2,2.3c0.2,0,0.4,0.1,0.5,0.3c0.1,0.2,0.2,0.4,0.1,0.6c0,0.2-0.1,0.4-0.1,0.5c0,1.3,1.1,2.3,2.3,2.3
							c0.9,0,1.7-0.5,2.1-1.2c0.1-0.2,0.2-0.3,0.4-0.3c0.2,0,0.4,0,0.5,0.1c0.6,0.4,1.2,0.5,1.9,0.5c2,0,3.6-1.6,3.7-3.5
							c0-0.2,0.1-0.4,0.3-0.5c0.2-0.1,0.4-0.2,0.6-0.1c0.2,0.1,0.5,0.1,0.7,0.1c0.1,0,0.1,0,0.2,0c0.2,0,0.4,0,0.5,0.2
							s0.2,0.3,0.2,0.5c0.1,1.2,1.1,2.2,2.3,2.2c1.3,0,2.3-1.1,2.3-2.3s-1.1-2.3-2.3-2.3c-0.1,0-0.1,0-0.2,0c-0.2,0-0.4,0-0.5-0.2
							c-0.1-0.1-0.2-0.3-0.2-0.5C28.3,10,27.2,9,26,9c-0.5,0-0.9,0.1-1.3,0.4c-0.2,0.1-0.5,0.2-0.7,0c-0.2-0.1-0.4-0.3-0.4-0.6
							c0-1.3-1.1-2.3-2.3-2.3C20,6.6,19,7.6,19,8.9c0,0.1,0,0.2,0,0.3c0,0.2,0,0.4-0.2,0.6c-0.2,0.2-0.4,0.2-0.6,0.2
							C18,10,17.8,10,17.6,10c-0.7,0-1.4,0.3-1.9,0.9c-0.1,0.2-0.3,0.3-0.5,0.3c-0.2,0-0.4-0.1-0.5-0.2
							C14.3,10.6,13.7,10.3,13.1,10.3z"/>
					</g>
					<g>
						<path d="M40,53h-2.7c-0.4,0-0.7-0.3-0.7-0.7v-2.7c0-0.4,0.3-0.7,0.7-0.7H40c0.4,0,0.7,0.3,0.7,0.7v2.7
							C40.6,52.7,40.3,53,40,53z M37.9,51.7h1.4v-1.4h-1.4V51.7z"/>
					</g>
					<g>
						<path d="M45.9,53h-2.7c-0.4,0-0.7-0.3-0.7-0.7v-2.7c0-0.4,0.3-0.7,0.7-0.7h2.7c0.4,0,0.7,0.3,0.7,0.7v2.7
							C46.6,52.7,46.3,53,45.9,53z M43.9,51.7h1.4v-1.4h-1.4V51.7z"/>
					</g>
					<g>
						<path d="M40,59h-2.7c-0.4,0-0.7-0.3-0.7-0.7v-2.7c0-0.4,0.3-0.7,0.7-0.7H40c0.4,0,0.7,0.3,0.7,0.7v2.7
							C40.6,58.7,40.3,59,40,59z M37.9,57.6h1.4v-1.4h-1.4V57.6z"/>
					</g>
					<g>
						<path d="M45.9,59h-2.7c-0.4,0-0.7-0.3-0.7-0.7v-2.7c0-0.4,0.3-0.7,0.7-0.7h2.7c0.4,0,0.7,0.3,0.7,0.7v2.7
							C46.6,58.7,46.3,59,45.9,59z M43.9,57.6h1.4v-1.4h-1.4V57.6z"/>
					</g>
					<g>
						<path d="M25.9,53h-2.7c-0.4,0-0.7-0.3-0.7-0.7v-2.7c0-0.4,0.3-0.7,0.7-0.7h2.7c0.4,0,0.7,0.3,0.7,0.7v2.7
							C26.5,52.7,26.2,53,25.9,53z M23.8,51.7h1.4v-1.4h-1.4V51.7z"/>
					</g>
					<g>
						<path d="M31.9,53h-2.7c-0.4,0-0.7-0.3-0.7-0.7v-2.7c0-0.4,0.3-0.7,0.7-0.7h2.7c0.4,0,0.7,0.3,0.7,0.7v2.7
							C32.5,52.7,32.2,53,31.9,53z M29.8,51.7h1.4v-1.4h-1.4V51.7z"/>
					</g>
					<g>
						<path d="M25.9,59h-2.7c-0.4,0-0.7-0.3-0.7-0.7v-2.7c0-0.4,0.3-0.7,0.7-0.7h2.7c0.4,0,0.7,0.3,0.7,0.7v2.7
							C26.5,58.7,26.2,59,25.9,59z M23.8,57.6h1.4v-1.4h-1.4V57.6z"/>
					</g>
					<g>
						<path d="M31.9,59h-2.7c-0.4,0-0.7-0.3-0.7-0.7v-2.7c0-0.4,0.3-0.7,0.7-0.7h2.7c0.4,0,0.7,0.3,0.7,0.7v2.7
							C32.5,58.7,32.2,59,31.9,59z M29.8,57.6h1.4v-1.4h-1.4V57.6z"/>
					</g>
					<g>
						<path d="M22.6,44.6c-0.3,0-0.5-0.2-0.6-0.5c-0.1-0.4,0.1-0.7,0.4-0.9l9.7-3.4c0.4-0.1,0.7,0.1,0.9,0.4s-0.1,0.7-0.4,0.9
							l-9.7,3.4C22.8,44.6,22.7,44.6,22.6,44.6z"/>
					</g>
					<g>
						<path d="M37,44.2c-0.3,0-0.5-0.2-0.6-0.5c-0.1-0.4,0.1-0.7,0.4-0.9l9.7-3.4c0.4-0.1,0.7,0.1,0.9,0.4c0.1,0.4-0.1,0.7-0.4,0.9
							l-9.7,3.4C37.2,44.2,37.1,44.2,37,44.2z"/>
					</g>
					<g>
						<path d="M15,62.1c-0.4,0-0.7-0.3-0.7-0.7v-6.3c0-0.4,0.3-0.7,0.7-0.7c0.4,0,0.7,0.3,0.7,0.7v6.3C15.6,61.8,15.3,62.1,15,62.1z
							"/>
					</g>
					<g>
						<path d="M15.2,29.6c-1.7,0-3.4-0.1-5-0.3c-0.4,0-0.6-0.4-0.6-0.7S10,28,10.4,28c1.6,0.2,3.2,0.3,4.8,0.3
							c1.4,0,2.9-0.1,4.3-0.2c0.4,0,0.7,0.2,0.7,0.6s-0.2,0.7-0.6,0.7C18.2,29.6,16.7,29.6,15.2,29.6z"/>
					</g>
				</g>
			</g>
		</g>
	</g>
</g>
</svg>
