<svg xmlns="http://www.w3.org/2000/svg" version="1.1" xmlns:xlink="http://www.w3.org/1999/xlink" width="512" height="512" x="0" y="0" viewBox="0 0 512 512" style="enable-background:new 0 0 512 512" xml:space="preserve" class=""><g><path fill-rule="evenodd" d="M315.32 221.963c-18.151 1.581-34.776 8.489-48.303 19.151 14.917 4.844 31.789 7.351 48.303 7.945zm-30.71 39.895c-4.788 13.457-7.345 28.176-8.01 42.778h38.72v-39.57c-10.735-.37-21.059-1.477-30.71-3.208zm-8.007 58.778c.725 15.743 3.568 30.32 8.007 42.785 9.651-1.73 19.975-2.837 30.71-3.207v-39.578zm14.702 57.845c6.576 11.999 14.938 20.56 24.016 23.768V376.22c-8.397.302-16.448 1.077-24.016 2.261zm-9.367 15.246c-2.543-3.759-4.824-7.753-6.864-11.905a139.726 139.726 0 0 0-8.05 2.341 91.109 91.109 0 0 0 14.914 9.564zm-12.984-26.783c-4.679-13.735-7.646-29.491-8.365-46.308h-8.52a8 8 0 0 1 0-16h8.523c.679-15.695 3.374-31.666 8.364-46.3-5.236-1.438-10.179-3.079-14.775-4.9-29.185 34.053-29.183 84.354.005 118.405 4.594-1.819 9.535-3.46 14.768-4.897zm8.071-239.025c9.518 0 17.833 5.931 21.109 14.569h52.164a8 8 0 0 1 8 8v33.584a133.213 133.213 0 0 1 32.082 13.323l23.771-23.772a8 8 0 0 1 11.313 0l7.606 7.606c-10.122-30.655-38.879-52.102-72.132-52.102v-.031a7.97 7.97 0 0 1-7.969-7.969c0-41.868-33.999-75.912-75.944-75.912-18.51 0-35.46 6.608-48.614 17.59-13.375 11.165-22.851 26.813-26.092 44.608-.994 5.822-7.914 8.82-12.777 5.02-21.808-17.043-53.142-15.239-72.868 4.489-10.055 10.056-16.132 23.723-16.132 38.949a8 8 0 0 1-8 8c-32.314 0-58.514 26.18-58.54 58.492 65.64-71.773 177.257-75.396 247.382-8.213 40.39-17.223 86.936-7.863 117.613 22.814 41.795 41.795 41.794 109.553 0 151.348s-109.554 41.794-151.348 0c-48.685-48.685-39.29-129.778 18.742-166.308-68.858-61.645-176.335-50.663-231.222 24.046-3.903 5.312-12.291 3.911-14.138-2.619-7.549-26.694-.689-54.234 18.805-73.727 11.816-11.816 27.58-19.683 45.143-21.453 4.812-45.279 50.678-74.437 93.774-59.605a70.173 70.173 0 0 1 10.673 4.703c11.97-37.813 47.196-64.132 87.602-64.132 47.976 0 87.65 36.833 91.563 84.228 22.171 1.832 42.125 11.55 57.052 26.349 15.866 15.731 26.022 37.224 27.085 61.093l10.14 10.14a8 8 0 0 1 0 11.313l-23.758 23.758a134.92 134.92 0 0 1 13.283 32.094H486a8 8 0 0 1 8 8v52.894a8 8 0 0 1-8 8h-33.584a133.196 133.196 0 0 1-13.323 32.082l23.771 23.771a8 8 0 0 1 0 11.313l-37.402 37.402a8 8 0 0 1-11.313 0l-23.758-23.758a134.865 134.865 0 0 1-32.095 13.282v33.611a8 8 0 0 1-8 8h-52.894a8 8 0 0 1-8-8v-33.584a133.17 133.17 0 0 1-32.081-13.322l-23.771 23.771a8 8 0 0 1-11.313 0l-37.402-37.402a8 8 0 0 1 0-11.313l23.758-23.758a134.865 134.865 0 0 1-13.282-32.095h-12.502c-5.769 15.215-25.442 19.584-37.067 7.958-14.186-14.187-4.077-38.527 15.958-38.527 9.516 0 17.834 5.931 21.109 14.568h18.783v.006a7.997 7.997 0 0 1 7.813 6.306 117.805 117.805 0 0 0 6.259 20.097 117.12 117.12 0 0 0 9.467 18.173 8.002 8.002 0 0 1-.791 10.393l-22.535 22.534 26.089 26.089 22.552-22.552.01.01a7.987 7.987 0 0 1 9.958-1.073 118.352 118.352 0 0 0 18.677 9.791 116.442 116.442 0 0 0 19.665 6.176 8.002 8.002 0 0 1 6.646 7.885v31.866h36.894v-31.892h.006a7.997 7.997 0 0 1 6.306-7.813 117.794 117.794 0 0 0 20.096-6.259 117.12 117.12 0 0 0 18.173-9.467 8.001 8.001 0 0 1 10.393.791l22.534 22.534 26.089-26.089-22.552-22.552.01-.01a7.986 7.986 0 0 1-1.073-9.958 118.395 118.395 0 0 0 9.791-18.677 116.322 116.322 0 0 0 6.176-19.665 8.001 8.001 0 0 1 7.885-6.646H478v-36.894h-31.892v-.006a7.997 7.997 0 0 1-7.813-6.306 117.908 117.908 0 0 0-6.258-20.096 117.12 117.12 0 0 0-9.467-18.173 8.001 8.001 0 0 1 .791-10.393l22.535-22.534-26.089-26.089-22.552 22.552-.01-.01a7.986 7.986 0 0 1-9.958 1.073 118.278 118.278 0 0 0-18.678-9.791 116.413 116.413 0 0 0-19.665-6.176 8.002 8.002 0 0 1-6.646-7.885v-31.866h-44.164c-5.772 15.218-25.444 19.582-37.067 7.958-14.186-14.189-4.077-38.528 15.958-38.528zm4.645 17.923c-4.124-4.124-11.214-1.194-11.214 4.645 0 5.84 7.091 8.769 11.214 4.645a6.571 6.571 0 0 0 0-9.29zM166.348 334.438c-4.124-4.124-11.214-1.195-11.214 4.645s7.091 8.769 11.214 4.645a6.571 6.571 0 0 0 0-9.29zm-46.779 4.645c0-23.27 18.863-42.133 42.133-42.133a8 8 0 0 0 0-16c-32.104 0-58.133 26.029-58.133 58.133a8 8 0 0 0 16 0zm42.133-100.918c-55.733 0-100.918 45.184-100.918 100.918a8 8 0 0 0 16 0c0-46.9 38.018-84.918 84.918-84.918a8 8 0 0 0 0-16zm0-42.784C82.339 195.381 18 259.72 18 339.083a8 8 0 0 0 16 0c0-70.53 57.173-127.702 127.702-127.702a8 8 0 0 0 0-16zm169.618 53.68c8.344-.299 16.256-1.045 24.019-2.263-6.575-12.001-14.94-20.566-24.019-23.775zm0 16.004v39.571h38.718c-.725-15.74-3.568-30.315-8.006-42.778-9.953 1.786-20.308 2.846-30.712 3.207zm0 55.571v39.579c10.395.36 20.762 1.421 30.708 3.206 4.789-13.457 7.348-28.183 8.012-42.785zm0 55.583v27.09c18.242-1.589 34.943-8.559 48.506-19.313a7.989 7.989 0 0 1-1.803-.335c-14.604-4.515-30.622-6.866-46.703-7.442zm46.363-9.277c1.709.469 3.385.959 5.028 1.469a7.98 7.98 0 0 1 5.629 7.921c14.335-14.631 23.771-34.082 25.653-55.697h-27.944c-.679 15.697-3.376 31.672-8.366 46.307zm8.367-62.306h27.943c-1.882-21.615-11.319-41.064-25.654-55.695a7.98 7.98 0 0 1-5.629 7.928c-1.641.51-3.315.999-5.022 1.467 4.679 13.734 7.643 29.488 8.362 46.3zm-6.213-63.353a91.056 91.056 0 0 0-15.135-9.738c2.545 3.763 4.826 7.756 6.867 11.911 2.026-.526 6.829-2.076 8.268-2.173z" clip-rule="evenodd" fill="#0664a4" opacity="1" data-original="#000000"></path></g></svg>