<svg xmlns="http://www.w3.org/2000/svg" version="1.1" xmlns:xlink="http://www.w3.org/1999/xlink" width="512" height="512" x="0" y="0" viewBox="0 0 32 32" style="enable-background:new 0 0 512 512" xml:space="preserve" class=""><g><path d="M7.5 7c-1.654 0-3-1.346-3-3s1.346-3 3-3 3 1.346 3 3-1.346 3-3 3zm0-5c-1.103 0-2 .897-2 2s.897 2 2 2 2-.897 2-2-.897-2-2-2zM7.5 31a.5.5 0 0 1-.5-.5v-10a.5.5 0 0 1 1 0v10a.5.5 0 0 1-.5.5z" fill="#0664a4" opacity="1" data-original="#000000" class=""></path><path d="M10.5 31a.5.5 0 0 1-.5-.5v-18a.5.5 0 0 1 1 0v1.1c.044.773.703 1.4 1.5 1.4h3a.5.5 0 0 0 0-1h-3a.5.5 0 0 1-.5-.5v-2C12 10.122 10.879 9 9.5 9h-4A2.503 2.503 0 0 0 3 11.5v7a.5.5 0 0 0 1 0 .5.5 0 0 1 1 0v12a.5.5 0 0 1-1 0V19.915A1.502 1.502 0 0 1 2 18.5v-7C2 9.57 3.57 8 5.5 8h4c1.93 0 3.5 1.57 3.5 3.5V13h2.5c.827 0 1.5.673 1.5 1.5s-.673 1.5-1.5 1.5h-3a2.49 2.49 0 0 1-1.5-.502V30.5a.5.5 0 0 1-.5.5z" fill="#0664a4" opacity="1" data-original="#000000" class=""></path><path d="M7.5 31a.5.5 0 0 1-.5-.5v-10a.5.5 0 0 1 1 0v10a.5.5 0 0 1-.5.5zM4.5 19a.5.5 0 0 1-.5-.5v-6a.5.5 0 0 1 1 0v6a.5.5 0 0 1-.5.5zM27.5 22h-12c-.827 0-1.5-.673-1.5-1.5v-5a.5.5 0 0 1 1 0v5a.5.5 0 0 0 .5.5h12a.5.5 0 0 0 .5-.5v-18a.5.5 0 0 0-.5-.5h-12a.5.5 0 0 0-.5.5v9a.5.5 0 0 1-1 0v-9c0-.827.673-1.5 1.5-1.5h12c.827 0 1.5.673 1.5 1.5v18c0 .827-.673 1.5-1.5 1.5z" fill="#0664a4" opacity="1" data-original="#000000" class=""></path><path d="M24.5 31a.5.5 0 0 1-.5-.5V22h-5v8.5a.5.5 0 0 1-.5.5h-8a.5.5 0 0 1 0-1H18v-8.5a.5.5 0 0 1 .5-.5h6a.5.5 0 0 1 .5.5v9a.5.5 0 0 1-.5.5zM19.5 20h-1a.5.5 0 0 1 0-1h1a.5.5 0 0 1 0 1zM24.5 20h-1a.5.5 0 0 1 0-1h1a.5.5 0 0 1 0 1zM28.5 18h-12a.5.5 0 0 1 0-1h12a.5.5 0 0 1 0 1z" fill="#0664a4" opacity="1" data-original="#000000" class=""></path></g></svg>