<svg id="Layer_1" data-name="Layer 1" xmlns="http://www.w3.org/2000/svg" xmlns:xlink="http://www.w3.org/1999/xlink" viewBox="0 0 73 102"><defs><style>.cls-1,.cls-15{fill:none;}.cls-2{clip-path:url(#clip-path);}.cls-3{clip-path:url(#clip-path-3);}.cls-4{fill:#eae3dc;}.cls-5{fill:#93828a;}.cls-6{fill:#856f7a;}.cls-7{fill:#bea27d;}.cls-8{fill:#c7aa7f;}.cls-9{fill:#7a685c;}.cls-10,.cls-11,.cls-12{fill:#e8dfe4;}.cls-10{opacity:0.6;isolation:isolate;}.cls-12{font-size:10px;font-family:CalistoMT, Calisto MT;}.cls-13{letter-spacing:-0.02em;}.cls-14{fill:#faeada;fill-rule:evenodd;}.cls-15{stroke:#fff;stroke-linecap:round;stroke-linejoin:round;stroke-width:0.1px;}</style><clipPath id="clip-path"><rect class="cls-1" x="0.01" y="0.12" width="72.98" height="101.77"/></clipPath><clipPath id="clip-path-3"><rect class="cls-1" x="0.01" y="0.12" width="72.98" height="101.77"/></clipPath></defs><g class="cls-2"><g class="cls-2"><g class="cls-3"><path class="cls-4" d="M56.18,99a2.9,2.9,0,0,1,2.9,2.9h4a2.9,2.9,0,0,1,5.79-.12v.12H73V98.17a2.94,2.94,0,0,1-1.45-.39,2.91,2.91,0,0,1-1.06-1.06A2.9,2.9,0,0,1,73,92.37v-4a2.9,2.9,0,0,1-.12-5.79H73v-4a2.89,2.89,0,1,1-.12-5.78H73v-4a2.9,2.9,0,0,1-2.51-4.35,2.91,2.91,0,0,1,1.06-1.06A2.94,2.94,0,0,1,73,62.87v-4a2.89,2.89,0,1,1-.12-5.78H73V49a2.94,2.94,0,0,1-1.45-.39,2.9,2.9,0,0,1-1.45-2.51,2.94,2.94,0,0,1,1.45-2.52A2.93,2.93,0,0,1,73,43.21V39.16a2.93,2.93,0,0,1-1.45-.38,2.86,2.86,0,0,1-1.06-1.07,2.87,2.87,0,0,1,0-2.89,2.86,2.86,0,0,1,1.06-1.07A2.93,2.93,0,0,1,73,33.37v-4a2.93,2.93,0,0,1-1.45-.38,2.94,2.94,0,0,1-1.45-2.52A2.83,2.83,0,0,1,70.48,25a2.86,2.86,0,0,1,1.06-1.07A2.93,2.93,0,0,1,73,23.53V19.48a2.9,2.9,0,0,1-2-.84,2.91,2.91,0,0,1,0-4.11,2.91,2.91,0,0,1,2-.85v-4a2.9,2.9,0,0,1-.12-5.79H73V.12H68.91a2.94,2.94,0,0,1-.85,2.05A2.87,2.87,0,0,1,66,3,2.9,2.9,0,0,1,64,2.17a2.89,2.89,0,0,1-.84-2h-4a2.89,2.89,0,0,1-.84,2.05A2.9,2.9,0,0,1,56.16,3a2.76,2.76,0,0,1-1.1-.21,3,3,0,0,1-.94-.63,2.69,2.69,0,0,1-.63-.93A3,3,0,0,1,53.26.13h-4a2.87,2.87,0,0,1-.85,2.05,2.91,2.91,0,0,1-2,.85,2.94,2.94,0,0,1-2-.85A2.91,2.91,0,0,1,43.42.13h-4a2.9,2.9,0,0,1-.84,2.05,2.94,2.94,0,0,1-2,.85,3,3,0,0,1-2.06-.85A2.9,2.9,0,0,1,33.59.13H29.54a2.86,2.86,0,0,1-.84,2.05A2.91,2.91,0,0,1,26.64,3a2.93,2.93,0,0,1-2.05-.84,2.92,2.92,0,0,1-.86-2h-4a2.87,2.87,0,0,1-.85,2.05,2.9,2.9,0,0,1-4.1,0A2.91,2.91,0,0,1,13.89.13h-4A2.89,2.89,0,0,1,7,3a2.88,2.88,0,0,1-2-.85,2.86,2.86,0,0,1-.83-2H0V3.84a2.86,2.86,0,0,1,2.05.84,2.91,2.91,0,0,1,.85,2.06,2.88,2.88,0,0,1-.85,2A2.91,2.91,0,0,1,0,9.64v4a2.87,2.87,0,0,1,2.05.85,2.87,2.87,0,0,1,.85,2,2.93,2.93,0,0,1-.84,2.05,3,3,0,0,1-.94.63,3,3,0,0,1-1.1.22v4a2.92,2.92,0,0,1,2.05.85,2.92,2.92,0,0,1,.85,2.05,2.91,2.91,0,0,1-.85,2.05A2.88,2.88,0,0,1,0,29.31v4.05a2.87,2.87,0,0,1,2.05.84,3,3,0,0,1,.85,2.06,2.9,2.9,0,0,1-.87,2A2.84,2.84,0,0,1,0,39.12v4.05A2.87,2.87,0,0,1,2.06,44a2.87,2.87,0,0,1,.85,2h0a2.87,2.87,0,0,1-.85,2.05A2.87,2.87,0,0,1,0,49v4a2.91,2.91,0,0,1,2.05.85,2.9,2.9,0,0,1,.85,2.05A2.78,2.78,0,0,1,2.69,57a2.92,2.92,0,0,1-.63.95,3,3,0,0,1-.94.62A2.82,2.82,0,0,1,0,58.82v4a2.87,2.87,0,0,1,2.05.85,2.87,2.87,0,0,1,.85,2,3,3,0,0,1-.22,1.1,3,3,0,0,1-.63.94,2.8,2.8,0,0,1-.94.62A2.81,2.81,0,0,1,0,68.64v4a2.87,2.87,0,0,1,2.05.85,2.87,2.87,0,0,1,.85,2h0a3,3,0,0,1-.22,1.11,2.84,2.84,0,0,1-.63.93,3,3,0,0,1-.94.63A2.81,2.81,0,0,1,0,78.48v4a2.87,2.87,0,0,1,2.05.85,2.87,2.87,0,0,1,.85,2.05,2.85,2.85,0,0,1-.22,1.11,2.8,2.8,0,0,1-.62.94,3,3,0,0,1-.94.63,3,3,0,0,1-1.1.22v4a3,3,0,0,1,1.11.22,3,3,0,0,1,.94.63,3,3,0,0,1,.63.94,3,3,0,0,1,.22,1.11,3,3,0,0,1-.22,1.11,3,3,0,0,1-.63.94,3,3,0,0,1-.94.63A2.85,2.85,0,0,1,0,98.17v3.72H4.11a2.9,2.9,0,0,1,5.8,0h4a2.9,2.9,0,0,1,4.95-2,2.87,2.87,0,0,1,.85,2h4a2.89,2.89,0,1,1,5.78-.12v.12h4a2.9,2.9,0,0,1,.84-2,2.91,2.91,0,0,1,4.11,0,2.9,2.9,0,0,1,.84,2h4.05a2.87,2.87,0,0,1,.85-2,2.91,2.91,0,0,1,2-.85,3,3,0,0,1,1.1.22,2.84,2.84,0,0,1,.93.63,2.74,2.74,0,0,1,.62,1,3,3,0,0,1,.21,1.1h4a2.87,2.87,0,0,1,.85-2,2.91,2.91,0,0,1,2-.85Z"/><path class="cls-5" d="M6.4,6.3H66.61V95.7H6.4Z"/><path class="cls-6" d="M66.18,6.73V95.26H6.83V6.73ZM67,5.87H6V96.14H67Z"/><path class="cls-7" d="M64.43,88.54H7.65v.65H65.36v-.65Z"/><path class="cls-8" d="M7.65,89.42H65.36V95.1H7.65Z"/><path class="cls-9" d="M7.65,89.31v.11H65.36v-.23H7.65Z"/></g></g></g><path class="cls-10" d="M58.69,39A1.69,1.69,0,0,0,57,37.89a2.26,2.26,0,0,0-.92.19,2.6,2.6,0,0,0-.9-.64,2.75,2.75,0,0,0-1.1-.2c-1.28,0-2.32.77-2.32,1.72h0c-.82.11-1.46.63-1.46,1.27s.8,1.28,1.76,1.28h6.39c1,0,1.77-.58,1.77-1.28S59.52,39.06,58.69,39Z"/><path class="cls-10" d="M24.3,34.44a1.68,1.68,0,0,0-1.73-1.08,2.39,2.39,0,0,0-.91.19,2.54,2.54,0,0,0-2-.83c-1.28,0-2.32.76-2.32,1.71h0c-.82.11-1.47.63-1.47,1.27S16.67,37,17.64,37H24c.95,0,1.76-.58,1.76-1.28S25.14,34.54,24.3,34.44Z"/><path class="cls-10" d="M37,30.11c0,.7.8,1.29,1.76,1.29h6.39c1,0,1.77-.58,1.77-1.29s-.65-1.15-1.47-1.26v0c0-.94-1-1.71-2.32-1.71a2.71,2.71,0,0,0-1.09.2,2.55,2.55,0,0,0-.91.64,2.23,2.23,0,0,0-.92-.19,1.69,1.69,0,0,0-1.71,1.08C37.66,28.94,37,29.47,37,30.11Z"/><path class="cls-11" d="M31.27,38.19l.27.41.27-.41a1.27,1.27,0,0,1,.45-.41,1.3,1.3,0,0,1,.58-.14h.09V37h-.09a1.9,1.9,0,0,0-1.3.51A1.92,1.92,0,0,0,30.23,37h-.08v.65h.08a1.15,1.15,0,0,1,.6.13A1.18,1.18,0,0,1,31.27,38.19Zm19.48-9,.21.31.21-.31a.92.92,0,0,1,.79-.42H52v-.5H52a1.46,1.46,0,0,1-1,.39,1.48,1.48,0,0,1-1-.39H49.9v.5H50a.88.88,0,0,1,.45.11A.85.85,0,0,1,50.75,29.16ZM54,47.55l.25.38.26-.38a1.11,1.11,0,0,1,1-.5h.08v-.61h-.08a1.78,1.78,0,0,1-2.43,0H53v.61h.08a1.06,1.06,0,0,1,.55.12A1.07,1.07,0,0,1,54,47.55ZM14.3,33l.21.32.22-.32a.93.93,0,0,1,.81-.42h.06V32h-.06a1.51,1.51,0,0,0-1,.4,1.47,1.47,0,0,0-1-.4h-.06v.51h.06a.92.92,0,0,1,.46.11A1,1,0,0,1,14.3,33Z"/><text class="cls-12" transform="translate(21.97 20.64)"><tspan class="cls-13">F</tspan><tspan x="6.04" y="0">rance</tspan></text><g id="Sun"><path class="cls-11" d="M41.71,54.27A2.31,2.31,0,1,1,44,52,2.32,2.32,0,0,1,41.71,54.27Zm0-4.2A1.89,1.89,0,1,0,43.6,52,1.89,1.89,0,0,0,41.71,50.07Z"/><path class="cls-11" d="M41.71,49a.22.22,0,0,1-.21-.21V47.55a.21.21,0,0,1,.21-.21.21.21,0,0,1,.21.21v1.26A.21.21,0,0,1,41.71,49Z"/><path class="cls-11" d="M41.71,46.5a.22.22,0,0,1-.21-.21v-.42a.22.22,0,0,1,.21-.22.21.21,0,0,1,.21.22v.42A.21.21,0,0,1,41.71,46.5Z"/><path class="cls-11" d="M39.86,49.62a.21.21,0,0,1-.17-.09l-.86-1.19a.21.21,0,0,1,0-.29.21.21,0,0,1,.3.05L40,49.29a.2.2,0,0,1-.05.29A.17.17,0,0,1,39.86,49.62Z"/><path class="cls-11" d="M38.5,47.75a.21.21,0,0,1-.17-.09l-.12-.17a.21.21,0,0,1,0-.29.21.21,0,0,1,.3,0l.12.17a.2.2,0,0,1-.05.29A.17.17,0,0,1,38.5,47.75Z"/><path class="cls-11" d="M38.72,51.2h-.07l-1.17-.39a.21.21,0,0,1-.14-.26.23.23,0,0,1,.27-.14l1.17.39a.2.2,0,0,1,.13.26A.2.2,0,0,1,38.72,51.2Z"/><path class="cls-11" d="M36.85,50.59h-.07l-.19-.06a.21.21,0,0,1-.13-.27.2.2,0,0,1,.26-.13l.19.06a.21.21,0,0,1,.14.26A.21.21,0,0,1,36.85,50.59Z"/><path class="cls-11" d="M37.32,53.6a.2.2,0,0,1-.2-.15.2.2,0,0,1,.13-.26l1.4-.46a.21.21,0,0,1,.26.14.2.2,0,0,1-.13.26l-1.4.46Z"/><path class="cls-11" d="M36.32,53.92a.2.2,0,0,1-.2-.14.21.21,0,0,1,.13-.27l.2-.06a.21.21,0,0,1,.27.13.23.23,0,0,1-.14.27l-.2.06Z"/><path class="cls-11" d="M39.59,55.1a.24.24,0,0,1-.13-.05.2.2,0,0,1,0-.29l.27-.37a.21.21,0,1,1,.34.24l-.27.38A.21.21,0,0,1,39.59,55.1Z"/><path class="cls-11" d="M38.38,56.76a.2.2,0,0,1-.13,0,.21.21,0,0,1,0-.29L39,55.37a.22.22,0,0,1,.3,0,.21.21,0,0,1,0,.29l-.76,1.05A.21.21,0,0,1,38.38,56.76Z"/><path class="cls-11" d="M41.71,56.79a.21.21,0,0,1-.21-.21V55.11a.22.22,0,0,1,.21-.21.21.21,0,0,1,.21.21v1.47A.21.21,0,0,1,41.71,56.79Z"/><path class="cls-11" d="M41.71,57.84a.21.21,0,0,1-.21-.21v-.21a.22.22,0,0,1,.21-.21.21.21,0,0,1,.21.21v.21A.21.21,0,0,1,41.71,57.84Z"/><path class="cls-11" d="M44.43,55.91a.21.21,0,0,1-.17-.09l-.86-1.19a.21.21,0,0,1,0-.29.21.21,0,0,1,.3,0l.86,1.19a.2.2,0,0,1-.05.29A.17.17,0,0,1,44.43,55.91Z"/><path class="cls-11" d="M45.05,56.76a.2.2,0,0,1-.17-.09l-.12-.17a.21.21,0,0,1,0-.29.2.2,0,0,1,.29,0l.13.17a.2.2,0,0,1,0,.29A.19.19,0,0,1,45.05,56.76Z"/><path class="cls-11" d="M45.06,53.26H45l-.35-.12a.21.21,0,0,1-.14-.26.23.23,0,0,1,.27-.14l.35.12a.2.2,0,0,1,.13.26A.21.21,0,0,1,45.06,53.26Z"/><path class="cls-11" d="M47,53.88h-.06l-1-.31a.23.23,0,0,1-.14-.27.21.21,0,0,1,.27-.13l1,.31a.21.21,0,0,1,.13.27A.2.2,0,0,1,47,53.88Z"/><path class="cls-11" d="M44.71,51.2a.21.21,0,0,1-.2-.15.21.21,0,0,1,.14-.26l1-.32a.2.2,0,0,1,.26.13.21.21,0,0,1-.13.27l-1,.32Z"/><path class="cls-11" d="M46.25,50.7a.21.21,0,0,1-.2-.15.2.2,0,0,1,.13-.26l.14,0a.21.21,0,0,1,.27.14.2.2,0,0,1-.14.26l-.14,0Z"/><path class="cls-11" d="M43.57,49.62a.2.2,0,0,1-.13,0,.21.21,0,0,1,0-.29l.24-.34a.21.21,0,0,1,.3-.05.21.21,0,0,1,0,.29l-.24.34A.21.21,0,0,1,43.57,49.62Z"/><path class="cls-11" d="M44.3,48.61a.2.2,0,0,1-.13,0,.21.21,0,0,1,0-.29l.66-.91a.21.21,0,1,1,.34.25l-.66.91A.23.23,0,0,1,44.3,48.61Z"/></g><path class="cls-14" d="M21.26,52a2.38,2.38,0,0,1,2.38-2.37,2.39,2.39,0,0,1-2.38-2.38,2.38,2.38,0,0,1-2.37,2.38A2.37,2.37,0,0,1,21.26,52Z"/><polygon class="cls-15" points="20.37 88.51 27.13 83.59 27.69 88.51 20.37 88.51"/><line class="cls-15" x1="27.13" y1="83.59" x2="31.89" y2="88.51"/><line class="cls-15" x1="26.84" y1="83.8" x2="27.06" y2="88.51"/><line class="cls-15" x1="26.43" y1="84.1" x2="26.63" y2="88.51"/><line class="cls-15" x1="26.01" y1="84.4" x2="26.21" y2="88.51"/><line class="cls-15" x1="25.6" y1="84.7" x2="25.78" y2="88.51"/><line class="cls-15" x1="25.18" y1="84.98" x2="25.35" y2="88.51"/><line class="cls-15" x1="24.77" y1="85.31" x2="24.92" y2="88.51"/><line class="cls-15" x1="24.35" y1="85.61" x2="24.49" y2="88.51"/><line class="cls-15" x1="23.94" y1="85.91" x2="24.06" y2="88.51"/><line class="cls-15" x1="23.52" y1="86.21" x2="23.63" y2="88.51"/><line class="cls-15" x1="23.11" y1="86.51" x2="23.2" y2="88.51"/><line class="cls-15" x1="22.69" y1="86.81" x2="22.77" y2="88.51"/><line class="cls-15" x1="22.28" y1="87.12" x2="22.34" y2="88.51"/><line class="cls-15" x1="21.86" y1="87.42" x2="21.91" y2="88.51"/><line class="cls-15" x1="21.45" y1="87.72" x2="21.48" y2="88.51"/><line class="cls-15" x1="21.03" y1="88.02" x2="21.05" y2="88.51"/><polyline class="cls-15" points="20.81 88.51 27.17 83.96 31.46 88.51"/><polyline class="cls-15" points="21.55 88.51 27.23 84.47 30.97 88.51"/><polyline class="cls-15" points="22.34 88.51 27.29 84.98 30.5 88.51"/><polyline class="cls-15" points="23.08 88.51 27.34 85.49 30.09 88.51"/><polyline class="cls-15" points="24.67 88.51 27.46 86.51 29.17 88.51"/><polyline class="cls-15" points="25.44 88.51 27.52 87.02 28.76 88.51"/><polyline class="cls-15" points="26.2 88.51 27.58 87.53 28.4 88.51"/><polyline class="cls-15" points="26.99 88.51 27.64 88.04 27.99 88.51"/><line class="cls-15" x1="27.49" y1="83.96" x2="27.89" y2="88.51"/><line class="cls-15" x1="27.84" y1="84.33" x2="28.15" y2="88.51"/><line class="cls-15" x1="28.31" y1="84.81" x2="28.55" y2="88.51"/><line class="cls-15" x1="28.76" y1="85.28" x2="28.93" y2="88.51"/><line class="cls-15" x1="29.13" y1="85.66" x2="29.25" y2="88.51"/><polyline class="cls-15" points="29.56 86.1 29.59 88.51 27.4 86 23.89 88.51"/><line class="cls-15" x1="29.96" y1="86.51" x2="29.96" y2="88.51"/><line class="cls-15" x1="30.39" y1="86.96" x2="30.39" y2="88.51"/><line class="cls-15" x1="30.83" y1="87.42" x2="30.83" y2="88.51"/><line class="cls-15" x1="31.29" y1="87.89" x2="31.29" y2="88.51"/><line class="cls-15" x1="43" y1="88.47" x2="42.47" y2="88.47"/><polygon class="cls-15" points="36.97 81.09 36.3 81.09 35.76 83.55 36.97 83.55 38.17 83.55 37.63 81.09 36.97 81.09"/><polygon class="cls-15" points="38.73 80.39 38.73 79.74 36.97 79.74 35.2 79.74 35.2 80.39 36.97 80.39 38.73 80.39"/><polygon class="cls-15" points="38.73 79.74 38.91 79.74 38.91 79.44 38.73 79.44 36.97 79.44 35.2 79.44 35.02 79.44 35.02 79.74 35.2 79.74 36.97 79.74 38.73 79.74"/><polygon class="cls-15" points="40.32 84.75 40.32 83.88 36.97 83.88 33.62 83.88 33.62 84.75 36.97 84.75 40.32 84.75"/><polygon class="cls-15" points="40.32 83.88 40.46 83.88 40.46 83.55 40.03 83.55 38.17 83.55 36.97 83.55 35.76 83.55 33.9 83.55 33.47 83.55 33.47 83.88 33.62 83.88 36.97 83.88 40.32 83.88"/><polygon class="cls-15" points="36.3 81.09 37.63 81.09 38.17 83.55 39.69 83.55 38.73 80.39 36.97 80.39 35.2 80.39 34.24 83.55 35.76 83.55 36.3 81.09"/><polyline class="cls-15" points="42.48 88.54 40.32 84.75 36.97 84.75 33.62 84.75 31.45 88.54"/><path class="cls-15" d="M33.9,88.54c0-2.77,3.07-2.86,3.07-2.86S40,85.77,40,88.54"/><path class="cls-15" d="M38.73,79.44C37.52,78.9,37.46,69,37.46,68.72a.34.34,0,0,1-.2.06h-.59a.36.36,0,0,1-.2-.06c0,.24,0,10.18-1.27,10.72h3.53Z"/><path class="cls-15" d="M37.64,67.88v-.14a.38.38,0,0,0-.35-.38h-.65a.38.38,0,0,0-.34.38v.14h1.34Z"/><path class="cls-15" d="M37,68.78h.29a.34.34,0,0,0,.2-.06.36.36,0,0,0,.18-.32v-.14H36.3v.14a.38.38,0,0,0,.17.32.36.36,0,0,0,.2.06Z"/><polygon class="cls-15" points="37.64 68.26 37.72 68.26 37.72 67.88 37.64 67.88 36.97 67.88 36.3 67.88 36.21 67.88 36.21 68.26 36.3 68.26 36.97 68.26 37.64 68.26"/><path class="cls-15" d="M37.29,67.36h0A9.71,9.71,0,0,1,37,64.94a9.33,9.33,0,0,1-.34,2.42h.66Z"/><polyline class="cls-15" points="36.97 84.75 36.57 85.72 36.09 84.75 35.76 85.93 35.29 84.75 34.7 85.93 34.32 84.75 33.74 85.93 33.62 84.75"/><line class="cls-15" x1="32.94" y1="85.93" x2="35.76" y2="85.93"/><line class="cls-15" x1="32.78" y1="86.22" x2="35.16" y2="86.22"/><polyline class="cls-15" points="34.77 86.5 34.62 86.22 33.73 87.11 33.35 86.22 32.27 87.11 34.26 87.11"/><polygon class="cls-15" points="32.27 88.54 32.09 87.42 32.95 87.42 34.08 87.42 33.23 88.54 32.95 87.42 32.27 88.54"/><polyline class="cls-15" points="36.97 84.75 37.37 85.72 37.84 84.75 38.17 85.93 38.65 84.75 39.23 85.93 39.61 84.75 40.19 85.93 40.32 84.75"/><line class="cls-15" x1="40.99" y1="85.93" x2="38.17" y2="85.93"/><line class="cls-15" x1="41.16" y1="86.22" x2="38.78" y2="86.22"/><polyline class="cls-15" points="39.16 86.5 39.31 86.22 40.21 87.11 40.59 86.22 41.66 87.11 39.68 87.11"/><polygon class="cls-15" points="41.66 88.54 41.84 87.42 40.99 87.42 39.85 87.42 40.7 88.54 40.99 87.42 41.66 88.54"/><line class="cls-15" x1="36.97" y1="83.88" x2="36.97" y2="84.75"/><line class="cls-15" x1="36.5" y1="83.88" x2="36.5" y2="84.75"/><line class="cls-15" x1="36.02" y1="83.88" x2="36.02" y2="84.75"/><line class="cls-15" x1="35.55" y1="83.88" x2="35.55" y2="84.75"/><line class="cls-15" x1="35.08" y1="83.88" x2="35.08" y2="84.75"/><line class="cls-15" x1="34.61" y1="83.88" x2="34.61" y2="84.75"/><line class="cls-15" x1="34.14" y1="83.88" x2="34.14" y2="84.75"/><line class="cls-15" x1="37.44" y1="83.88" x2="37.44" y2="84.75"/><line class="cls-15" x1="37.91" y1="83.88" x2="37.91" y2="84.75"/><line class="cls-15" x1="38.38" y1="83.88" x2="38.38" y2="84.75"/><line class="cls-15" x1="38.86" y1="83.88" x2="38.86" y2="84.75"/><line class="cls-15" x1="39.33" y1="83.88" x2="39.33" y2="84.75"/><line class="cls-15" x1="39.8" y1="83.88" x2="39.8" y2="84.75"/><line class="cls-15" x1="36.97" y1="80.39" x2="36.97" y2="79.74"/><line class="cls-15" x1="36.5" y1="79.74" x2="36.5" y2="80.39"/><line class="cls-15" x1="36.02" y1="79.74" x2="36.02" y2="80.39"/><line class="cls-15" x1="35.55" y1="79.74" x2="35.55" y2="80.39"/><line class="cls-15" x1="37.44" y1="79.74" x2="37.44" y2="80.39"/><line class="cls-15" x1="37.91" y1="79.74" x2="37.91" y2="80.39"/><line class="cls-15" x1="38.38" y1="79.74" x2="38.38" y2="80.39"/><polyline class="cls-15" points="34.24 83.55 35.91 82.88 34.65 82.2 36.14 81.84 34.96 81.21 36.3 81.09"/><polyline class="cls-15" points="35.2 80.39 35.66 81.14 36.06 80.39 36.5 81.09 36.97 80.39"/><line class="cls-15" x1="36.97" y1="80.39" x2="36.97" y2="79.74"/><polyline class="cls-15" points="39.69 83.55 38.02 82.88 39.28 82.2 37.8 81.84 38.98 81.21 37.63 81.09"/><polyline class="cls-15" points="38.73 80.39 38.27 81.14 37.87 80.39 37.44 81.09 36.97 80.39"/><polyline class="cls-15" points="36.47 68.72 36.97 69.79 37.46 68.72"/><polyline class="cls-15" points="37.46 70.86 36.97 69.79 36.47 70.86"/><line class="cls-15" x1="36.47" y1="69.79" x2="37.46" y2="69.79"/><line class="cls-15" x1="36.47" y1="70.87" x2="37.46" y2="70.87"/><polyline class="cls-15" points="36.47 70.86 36.97 71.94 37.46 70.86"/><polyline class="cls-15" points="37.46 73.01 36.97 71.94 36.47 73.01"/><line class="cls-15" x1="36.47" y1="71.94" x2="37.46" y2="71.94"/><line class="cls-15" x1="36.47" y1="73.01" x2="37.46" y2="73.01"/><polyline class="cls-15" points="36.47 73.01 36.97 74.08 37.46 73.01"/><polyline class="cls-15" points="37.46 75.15 36.97 74.08 36.47 75.15"/><line class="cls-15" x1="36.3" y1="74.08" x2="37.63" y2="74.08"/><line class="cls-15" x1="36.21" y1="75.15" x2="37.72" y2="75.15"/><polyline class="cls-15" points="36.47 75.15 36.97 76.22 37.46 75.15"/><polyline class="cls-15" points="37.46 77.3 36.97 76.22 36.47 77.3"/><line class="cls-15" x1="36.45" y1="77.29" x2="36.07" y2="76.47"/><line class="cls-15" x1="37.48" y1="77.29" x2="37.86" y2="76.47"/><line class="cls-15" x1="36.45" y1="79.44" x2="35.91" y2="78.34"/><line class="cls-15" x1="37.48" y1="79.44" x2="37.98" y2="78.37"/><line class="cls-15" x1="37.48" y1="77.29" x2="38.01" y2="78.37"/><line class="cls-15" x1="36.45" y1="77.29" x2="35.91" y2="78.37"/><line class="cls-15" x1="36.1" y1="76.22" x2="37.83" y2="76.22"/><line class="cls-15" x1="35.96" y1="77.29" x2="37.98" y2="77.29"/><polyline class="cls-15" points="36.47 77.3 36.97 78.37 37.46 77.3"/><polyline class="cls-15" points="37.46 79.44 36.97 78.37 36.47 79.44"/><line class="cls-15" x1="35.76" y1="78.37" x2="38.17" y2="78.37"/><line class="cls-15" x1="36.47" y1="79.44" x2="37.46" y2="79.44"/><polyline class="cls-15" points="47.14 82.46 51.28 82.46 51.28 81.75 47.14 81.75 43 81.75 43 82.46 47.14 82.46"/><polyline class="cls-15" points="45.48 88.47 45.48 87.39 43 87.39 43 88.47"/><rect class="cls-15" x="43" y="84.43" width="2.88" height="0.47"/><rect class="cls-15" x="43" y="84.9" width="2.48" height="2.5"/><rect class="cls-15" x="45.48" y="84.9" width="0.39" height="3.58"/><rect class="cls-15" x="43.41" y="83.03" width="1.66" height="0.96"/><polyline class="cls-15" points="48.8 88.47 48.8 87.39 51.28 87.39 51.28 88.47"/><rect class="cls-15" x="48.41" y="84.43" width="2.88" height="0.47" transform="translate(99.69 169.33) rotate(180)"/><rect class="cls-15" x="48.8" y="84.9" width="2.48" height="2.5" transform="translate(100.09 172.29) rotate(180)"/><rect class="cls-15" x="48.41" y="84.9" width="0.39" height="3.58" transform="translate(97.21 173.37) rotate(180)"/><path class="cls-15" d="M48.41,88.47V84.36a1.27,1.27,0,0,0-1.27-1.27h0a1.26,1.26,0,0,0-1.26,1.27v4.11"/><polyline class="cls-15" points="48.8 84.43 48.8 82.72 47.14 82.72 45.48 82.72 45.48 84.43"/><polyline class="cls-15" points="51.28 84.43 51.28 82.46 47.14 82.46 43 82.46 43 84.43"/><rect class="cls-15" x="49.21" y="83.03" width="1.66" height="0.96" transform="translate(100.09 167.02) rotate(180)"/><rect class="cls-15" x="46.94" y="82.72" width="0.39" height="0.37"/><rect class="cls-15" x="42.78" y="81.3" width="8.73" height="0.45"/><rect class="cls-15" x="43.01" y="80.07" width="8.26" height="0.25"/><rect class="cls-15" x="46.88" y="80.32" width="0.53" height="0.98"/><rect class="cls-15" x="46.55" y="80.32" width="0.33" height="0.98" transform="translate(93.42 161.62) rotate(180)"/><rect class="cls-15" x="46.01" y="80.32" width="0.53" height="0.98"/><rect class="cls-15" x="45.68" y="80.32" width="0.33" height="0.98" transform="translate(91.69 161.62) rotate(180)"/><rect class="cls-15" x="45.15" y="80.32" width="0.53" height="0.98"/><rect class="cls-15" x="44.82" y="80.32" width="0.33" height="0.98" transform="translate(89.97 161.62) rotate(180)"/><rect class="cls-15" x="44.29" y="80.32" width="0.53" height="0.98"/><rect class="cls-15" x="43.96" y="80.32" width="0.33" height="0.98" transform="translate(88.24 161.62) rotate(180)"/><rect class="cls-15" x="43.42" y="80.32" width="0.53" height="0.98"/><rect class="cls-15" x="43.09" y="80.32" width="0.33" height="0.98" transform="translate(86.52 161.62) rotate(180)"/><rect class="cls-15" x="47.41" y="80.32" width="0.33" height="0.98"/><rect class="cls-15" x="47.74" y="80.32" width="0.53" height="0.98" transform="translate(96.01 161.62) rotate(180)"/><rect class="cls-15" x="48.27" y="80.32" width="0.33" height="0.98"/><rect class="cls-15" x="48.6" y="80.32" width="0.53" height="0.98" transform="translate(97.74 161.62) rotate(180)"/><rect class="cls-15" x="49.13" y="80.32" width="0.33" height="0.98"/><rect class="cls-15" x="49.46" y="80.32" width="0.53" height="0.98" transform="translate(99.46 161.62) rotate(180)"/><rect class="cls-15" x="50" y="80.32" width="0.33" height="0.98"/><rect class="cls-15" x="50.33" y="80.32" width="0.53" height="0.98" transform="translate(101.19 161.62) rotate(180)"/><rect class="cls-15" x="50.86" y="80.32" width="0.33" height="0.98"/><path class="cls-15" d="M43.17,79.84h0a.1.1,0,0,0-.09.1v.13h.19v-.13A.11.11,0,0,0,43.17,79.84Z"/><path class="cls-15" d="M43.46,79.91h0a.07.07,0,0,0-.07.07v.09h.13V80A.07.07,0,0,0,43.46,79.91Z"/><path class="cls-15" d="M43.74,79.84h0a.11.11,0,0,0-.1.1v.13h.19v-.13A.1.1,0,0,0,43.74,79.84Z"/><path class="cls-15" d="M44,79.91h0A.07.07,0,0,0,44,80v.09h.13V80A.07.07,0,0,0,44,79.91Z"/><path class="cls-15" d="M44.31,79.84h0a.1.1,0,0,0-.1.1v.13h.19v-.13A.1.1,0,0,0,44.31,79.84Z"/><path class="cls-15" d="M44.59,79.91h0a.07.07,0,0,0-.06.07v.09h.13V80A.07.07,0,0,0,44.59,79.91Z"/><path class="cls-15" d="M44.87,79.84h0a.1.1,0,0,0-.09.1v.13H45v-.13A.11.11,0,0,0,44.87,79.84Z"/><path class="cls-15" d="M45.16,79.91h0a.07.07,0,0,0-.07.07v.09h.14V80A.07.07,0,0,0,45.16,79.91Z"/><path class="cls-15" d="M45.44,79.84h0a.1.1,0,0,0-.09.1v.13h.18v-.13A.1.1,0,0,0,45.44,79.84Z"/><path class="cls-15" d="M45.73,79.91h0a.07.07,0,0,0-.07.07v.09h.13V80A.07.07,0,0,0,45.73,79.91Z"/><path class="cls-15" d="M46,79.84h0a.11.11,0,0,0-.1.1v.13h.19v-.13A.1.1,0,0,0,46,79.84Z"/><path class="cls-15" d="M46.29,79.91h0a.07.07,0,0,0-.06.07v.09h.13V80A.07.07,0,0,0,46.29,79.91Z"/><path class="cls-15" d="M46.57,79.84h0a.1.1,0,0,0-.09.1v.13h.19v-.13A.1.1,0,0,0,46.57,79.84Z"/><path class="cls-15" d="M46.86,79.91h0a.07.07,0,0,0-.06.07v.09h.13V80A.07.07,0,0,0,46.86,79.91Z"/><path class="cls-15" d="M47.14,79.84h0a.1.1,0,0,0-.09.1v.13h.19v-.13A.11.11,0,0,0,47.14,79.84Z"/><path class="cls-15" d="M47.43,79.91h0a.07.07,0,0,0-.07.07v.09h.13V80A.07.07,0,0,0,47.43,79.91Z"/><path class="cls-15" d="M47.71,79.84h0a.11.11,0,0,0-.1.1v.13h.19v-.13A.1.1,0,0,0,47.71,79.84Z"/><path class="cls-15" d="M48,79.91h0a.07.07,0,0,0-.07.07v.09h.13V80A.07.07,0,0,0,48,79.91Z"/><path class="cls-15" d="M48.28,79.84h0a.1.1,0,0,0-.1.1v.13h.19v-.13A.1.1,0,0,0,48.28,79.84Z"/><path class="cls-15" d="M48.56,79.91h0a.07.07,0,0,0-.06.07v.09h.13V80A.07.07,0,0,0,48.56,79.91Z"/><path class="cls-15" d="M48.84,79.84h0a.1.1,0,0,0-.09.1v.13h.19v-.13A.1.1,0,0,0,48.84,79.84Z"/><path class="cls-15" d="M49.13,79.91h0s-.06,0-.06.07v.09h.13V80A.07.07,0,0,0,49.13,79.91Z"/><path class="cls-15" d="M49.41,79.84h0a.1.1,0,0,0-.09.1v.13h.19v-.13A.11.11,0,0,0,49.41,79.84Z"/><path class="cls-15" d="M49.7,79.91h0a.07.07,0,0,0-.07.07v.09h.13V80A.07.07,0,0,0,49.7,79.91Z"/><path class="cls-15" d="M50,79.84h0a.11.11,0,0,0-.1.1v.13h.19v-.13A.1.1,0,0,0,50,79.84Z"/><path class="cls-15" d="M50.27,79.91h0a.07.07,0,0,0-.07.07v.09h.13V80A.07.07,0,0,0,50.27,79.91Z"/><path class="cls-15" d="M50.55,79.84h0a.1.1,0,0,0-.1.1v.13h.19v-.13A.1.1,0,0,0,50.55,79.84Z"/><path class="cls-15" d="M50.83,79.91h0a.07.07,0,0,0-.06.07v.09h.13V80A.07.07,0,0,0,50.83,79.91Z"/><path class="cls-15" d="M51.11,79.84h0a.1.1,0,0,0-.09.1v.13h.19v-.13A.11.11,0,0,0,51.11,79.84Z"/><polyline class="cls-15" points="52.4 88.46 52.4 87.71 54.67 87.71 54.67 88.46"/><rect class="cls-15" x="52.53" y="87.15" width="2.02" height="0.56" transform="translate(107.07 174.86) rotate(180)"/><polygon class="cls-15" points="52.69 84.34 54.38 84.34 54.55 87.15 52.52 87.15 52.69 84.34"/><polygon class="cls-15" points="52.69 84.34 54.38 84.34 54.54 83.82 52.53 83.82 52.69 84.34"/><polygon class="cls-15" points="52.69 83.79 54.38 83.79 53.97 72.14 53.11 72.14 52.69 83.79"/><polyline class="cls-15" points="53.97 72.14 53.54 70.49 53.11 72.14"/><rect class="cls-15" x="59.28" y="85.64" width="2.58" height="0.54" transform="translate(121.14 171.82) rotate(180)"/><rect class="cls-15" x="61.54" y="86.18" width="0.32" height="2.28" transform="translate(123.39 174.64) rotate(180)"/><rect class="cls-15" x="61.87" y="85.64" width="3.5" height="0.54" transform="translate(127.24 171.82) rotate(180)"/><rect class="cls-15" x="62.66" y="86.18" width="0.32" height="2.28" transform="translate(125.65 174.64) rotate(180)"/><rect class="cls-15" x="58.15" y="85.64" width="1.12" height="0.54"/><rect class="cls-15" x="58.15" y="86.18" width="0.32" height="2.28"/><rect class="cls-15" x="61.04" y="86.18" width="0.32" height="2.28" transform="translate(122.4 174.64) rotate(180)"/><rect class="cls-15" x="59.28" y="86.18" width="0.32" height="2.28"/><rect class="cls-15" x="59.77" y="86.18" width="0.32" height="2.28"/><rect class="cls-15" x="59.28" y="82.83" width="2.58" height="0.54" transform="translate(121.14 166.19) rotate(180)"/><rect class="cls-15" x="61.54" y="83.36" width="0.32" height="2.28" transform="translate(123.39 169.01) rotate(180)"/><rect class="cls-15" x="61.87" y="82.83" width="3.5" height="0.54" transform="translate(127.24 166.19) rotate(180)"/><rect class="cls-15" x="62.66" y="83.36" width="0.32" height="2.28" transform="translate(125.65 169.01) rotate(180)"/><rect class="cls-15" x="58.15" y="82.83" width="1.12" height="0.54"/><rect class="cls-15" x="58.15" y="83.36" width="0.32" height="2.28"/><rect class="cls-15" x="61.04" y="83.36" width="0.32" height="2.28" transform="translate(122.4 169.01) rotate(180)"/><rect class="cls-15" x="59.28" y="83.36" width="0.32" height="2.28"/><rect class="cls-15" x="59.77" y="83.36" width="0.32" height="2.28"/><polyline class="cls-15" points="61.87 82.83 60.57 82.22 59.27 82.83"/><path class="cls-15" d="M61,84.4a.47.47,0,1,0-.94,0"/><path class="cls-15" d="M64.65,85.64V84.4a.47.47,0,0,0-.47-.48.48.48,0,0,0-.48.48v1.24"/><path class="cls-15" d="M64.65,88.46V87.21a.47.47,0,0,0-.47-.47.48.48,0,0,0-.48.47v1.25"/><path class="cls-15" d="M61,87a.47.47,0,1,0-.94,0"/><rect class="cls-15" x="57.95" y="80.71" width="5.25" height="0.35" transform="translate(121.14 161.77) rotate(180)"/><rect class="cls-15" x="58.19" y="80.35" width="4.75" height="0.35" transform="translate(121.14 161.06) rotate(180)"/><rect class="cls-15" x="58.19" y="79.42" width="4.75" height="0.94" transform="translate(121.14 159.77) rotate(180)"/><rect class="cls-15" x="62.62" y="81.06" width="0.37" height="1.76" transform="translate(125.61 163.89) rotate(180)"/><polygon class="cls-15" points="61.5 81.06 61.87 81.06 61.87 82.83 61.5 82.65 61.5 81.06"/><rect class="cls-15" x="58.15" y="81.06" width="0.37" height="1.76"/><polygon class="cls-15" points="59.63 81.06 59.27 81.06 59.27 82.83 59.63 82.66 59.63 81.06"/><polyline class="cls-15" points="60.39 82.31 60.39 81.06 60.75 81.06 60.75 82.31"/><path class="cls-15" d="M61.13,79.73h0a.38.38,0,0,1,.37.38v.24h-.75v-.24A.38.38,0,0,1,61.13,79.73Z"/><path class="cls-15" d="M62.24,79.73h0a.38.38,0,0,1,.38.38v.24h-.75v-.24A.38.38,0,0,1,62.24,79.73Z"/><path class="cls-15" d="M60,79.73h0a.38.38,0,0,1,.38.38v.24h-.76v-.24A.38.38,0,0,1,60,79.73Z"/><path class="cls-15" d="M58.89,79.73h0a.38.38,0,0,1,.38.38v.24h-.75v-.24A.37.37,0,0,1,58.89,79.73Z"/><path class="cls-15" d="M62.94,79.55a2.37,2.37,0,0,0-2.37-2.37h0a2.38,2.38,0,0,0-2.38,2.37"/><polyline class="cls-15" points="61.26 77.28 61.26 76.82 59.87 76.82 59.87 77.28"/><rect class="cls-15" x="59.8" y="76.49" width="1.53" height="0.33" transform="translate(121.14 153.31) rotate(180)"/><rect class="cls-15" x="61.05" y="75.79" width="0.22" height="0.7" transform="translate(122.31 152.28) rotate(180)"/><rect class="cls-15" x="60.46" y="75.79" width="0.22" height="0.7" transform="translate(121.14 152.28) rotate(180)"/><rect class="cls-15" x="59.87" y="75.79" width="0.22" height="0.7" transform="translate(119.96 152.28) rotate(180)"/><polygon class="cls-15" points="60.57 73.62 61.26 75.79 59.87 75.79 60.57 73.62"/><polyline class="cls-15" points="61.03 75.06 61.26 74.75 61.26 75.79"/><polyline class="cls-15" points="60.11 75.06 59.87 74.75 59.87 75.79"/><polyline class="cls-15" points="65.37 88.46 65.37 82.83 62.99 82.83 62.99 88.46"/><rect class="cls-15" x="55.77" y="85.64" width="3.5" height="0.54"/><rect class="cls-15" x="55.77" y="82.83" width="3.5" height="0.54"/><path class="cls-15" d="M56.49,85.64V84.4a.47.47,0,1,1,.94,0v1.24"/><path class="cls-15" d="M56.49,88.46V87.21a.47.47,0,0,1,.94,0v1.25"/><polyline class="cls-15" points="55.77 88.46 55.77 82.83 58.15 82.83 58.15 88.46"/><line class="cls-15" x1="51.3" y1="88.46" x2="52.4" y2="88.46"/><line class="cls-15" x1="55.77" y1="88.46" x2="54.67" y2="88.46"/><rect class="cls-15" x="8.88" y="72.01" width="3.73" height="0.95"/><rect class="cls-15" x="8.55" y="72.96" width="4.39" height="4.43"/><path class="cls-15" d="M10.19,73.44c-.19,0-.34.42-.34.6v3.09h.67V74C10.52,73.86,10.37,73.44,10.19,73.44Z"/><path class="cls-15" d="M11.31,73.44c.19,0,.34.42.34.6v3.09H11V74C11,73.86,11.12,73.44,11.31,73.44Z"/><rect class="cls-15" x="8.55" y="76.95" width="1.01" height="0.44"/><rect class="cls-15" x="8.55" y="72.96" width="1.01" height="0.44"/><rect class="cls-15" x="8.73" y="73.39" width="0.65" height="3.56"/><rect class="cls-15" x="8.55" y="82.67" width="1.01" height="0.44"/><rect class="cls-15" x="8.73" y="77.39" width="0.65" height="5.28"/><rect class="cls-15" x="8.55" y="88.11" width="1.01" height="0.44"/><rect class="cls-15" x="8.73" y="84.33" width="0.65" height="3.78"/><rect class="cls-15" x="11.94" y="88.11" width="1.01" height="0.44"/><rect class="cls-15" x="12.11" y="84.33" width="0.65" height="3.78"/><rect class="cls-15" x="11.94" y="82.67" width="1.01" height="0.44"/><rect class="cls-15" x="12.11" y="77.39" width="0.65" height="5.28"/><rect class="cls-15" x="11.94" y="76.95" width="1.01" height="0.44"/><rect class="cls-15" x="11.94" y="72.96" width="1.01" height="0.44"/><rect class="cls-15" x="12.11" y="73.39" width="0.65" height="3.56"/><polygon class="cls-15" points="9.85 71.67 9.22 71.21 9.22 72.01 9.85 72.01 9.85 71.67"/><line class="cls-15" x1="8.88" y1="72.48" x2="12.61" y2="72.48"/><line class="cls-15" x1="9.38" y1="79.71" x2="12.11" y2="79.71"/><polyline class="cls-15" points="8.55 77.17 8.24 77.17 8.24 81.72 7.96 82 7.96 83.45 7.75 83.66 7.75 88.55"/><polyline class="cls-15" points="9.37 85.91 10.75 84.53 12.12 85.9"/><path class="cls-15" d="M11.39,88.54H10.11V86a.64.64,0,0,1,.64-.64h0a.64.64,0,0,1,.64.64Z"/><path class="cls-15" d="M10.52,83.11h-.7V81.69a.35.35,0,0,1,.35-.35h0a.35.35,0,0,1,.35.35Z"/><path class="cls-15" d="M11.67,83.11H11V81.69a.35.35,0,0,1,.35-.35h0a.35.35,0,0,1,.35.35Z"/><polygon class="cls-15" points="10.06 79.71 9.38 79.71 9.38 78.3 9.72 77.95 9.72 77.95 10.06 78.3 10.06 79.71"/><polygon class="cls-15" points="10.75 79.71 10.06 79.71 10.06 78.3 10.4 77.95 10.4 77.95 10.75 78.3 10.75 79.71"/><polygon class="cls-15" points="13.41 78.97 12.76 79.71 12.76 78.3 13.08 77.95 13.08 77.95 13.41 78.3 13.41 78.97"/><polygon class="cls-15" points="14.05 78.24 13.41 78.97 13.41 78.3 13.73 77.95 13.73 77.95 14.05 78.24"/><polygon class="cls-15" points="11.43 79.71 10.75 79.71 10.75 78.3 11.09 77.95 11.09 77.95 11.43 78.3 11.43 79.71"/><polygon class="cls-15" points="12.12 79.71 11.43 79.71 11.43 78.3 11.77 77.95 11.77 77.95 12.12 78.3 12.12 79.71"/><path class="cls-15" d="M11.27,80.76a.53.53,0,1,1-.52-.52A.52.52,0,0,1,11.27,80.76Z"/><path class="cls-15" d="M14.44,81.58a.38.38,0,0,1-.39.39.39.39,0,0,1-.39-.39.4.4,0,0,1,.39-.39A.39.39,0,0,1,14.44,81.58Z"/><circle class="cls-15" cx="14.05" cy="81.58" r="1.22"/><rect class="cls-15" x="15.49" y="72.01" width="3.73" height="0.95" transform="translate(34.71 144.96) rotate(180)"/><rect class="cls-15" x="15.16" y="72.96" width="4.39" height="4.43" transform="translate(34.71 150.34) rotate(180)"/><path class="cls-15" d="M17.91,73.44c.19,0,.34.42.34.6v3.09h-.67V74C17.58,73.86,17.73,73.44,17.91,73.44Z"/><path class="cls-15" d="M16.79,73.44c-.19,0-.34.42-.34.6v3.09h.68V74C17.13,73.86,17,73.44,16.79,73.44Z"/><rect class="cls-15" x="18.54" y="76.95" width="1.01" height="0.44" transform="translate(38.09 154.34) rotate(180)"/><rect class="cls-15" x="18.54" y="72.96" width="1.01" height="0.44" transform="translate(38.09 146.35) rotate(180)"/><rect class="cls-15" x="18.72" y="73.39" width="0.65" height="3.56" transform="translate(38.09 150.34) rotate(180)"/><rect class="cls-15" x="18.54" y="82.67" width="1.01" height="0.44" transform="translate(38.09 165.78) rotate(180)"/><rect class="cls-15" x="18.72" y="77.39" width="0.65" height="5.28" transform="translate(38.09 160.06) rotate(180)"/><rect class="cls-15" x="18.54" y="88.11" width="1.01" height="0.44" transform="translate(38.09 176.65) rotate(180)"/><rect class="cls-15" x="18.72" y="84.33" width="0.65" height="3.78" transform="translate(38.09 172.43) rotate(180)"/><rect class="cls-15" x="15.16" y="88.11" width="1.01" height="0.44" transform="translate(31.32 176.65) rotate(180)"/><rect class="cls-15" x="15.34" y="84.33" width="0.65" height="3.78" transform="translate(31.32 172.43) rotate(180)"/><rect class="cls-15" x="15.16" y="82.67" width="1.01" height="0.44" transform="translate(31.32 165.78) rotate(180)"/><rect class="cls-15" x="15.34" y="77.39" width="0.65" height="5.28" transform="translate(31.32 160.06) rotate(180)"/><rect class="cls-15" x="15.16" y="76.95" width="1.01" height="0.44" transform="translate(31.32 154.34) rotate(180)"/><rect class="cls-15" x="15.16" y="72.96" width="1.01" height="0.44" transform="translate(31.32 146.35) rotate(180)"/><rect class="cls-15" x="15.34" y="73.39" width="0.65" height="3.56" transform="translate(31.32 150.34) rotate(180)"/><polygon class="cls-15" points="18.25 71.67 18.88 71.21 18.88 72.01 18.25 72.01 18.25 71.67"/><line class="cls-15" x1="19.22" y1="72.48" x2="15.49" y2="72.48"/><line class="cls-15" x1="18.72" y1="79.71" x2="15.99" y2="79.71"/><polyline class="cls-15" points="19.55 77.17 19.86 77.17 19.86 81.72 20.14 82 20.14 83.45 20.35 83.66 20.35 88.55"/><polygon class="cls-15" points="14.05 84.33 19.71 84.33 19.71 83.11 14.05 83.11 8.39 83.11 8.39 84.33 14.05 84.33"/><polyline class="cls-15" points="18.73 85.91 17.35 84.53 15.98 85.9"/><path class="cls-15" d="M16.71,88.54H18V86a.64.64,0,0,0-.64-.64h0a.64.64,0,0,0-.64.64Z"/><polyline class="cls-15" points="15.34 85.82 14.05 84.53 12.76 85.82"/><path class="cls-15" d="M14.69,88.54V86a.64.64,0,0,0-.64-.64h0a.64.64,0,0,0-.64.64v2.58"/><path class="cls-15" d="M17.58,83.11h.7V81.69a.35.35,0,0,0-.35-.35h0a.35.35,0,0,0-.35.35Z"/><path class="cls-15" d="M16.43,83.11h.7V81.69a.35.35,0,0,0-.35-.35h0a.35.35,0,0,0-.35.35Z"/><polygon class="cls-15" points="18.04 79.71 18.72 79.71 18.72 78.3 18.38 77.95 18.38 77.95 18.04 78.3 18.04 79.71"/><polygon class="cls-15" points="17.35 79.71 18.04 79.71 18.04 78.3 17.7 77.95 17.7 77.95 17.35 78.3 17.35 79.71"/><polygon class="cls-15" points="14.69 78.97 15.34 79.71 15.34 78.3 15.02 77.95 15.02 77.95 14.69 78.3 14.69 78.97"/><polygon class="cls-15" points="14.05 78.24 14.69 78.97 14.69 78.3 14.37 77.95 14.37 77.95 14.05 78.24"/><polygon class="cls-15" points="16.67 79.71 17.35 79.71 17.35 78.3 17.01 77.95 17.01 77.95 16.67 78.3 16.67 79.71"/><polygon class="cls-15" points="15.99 79.71 16.67 79.71 16.67 78.3 16.33 77.95 16.33 77.95 15.99 78.3 15.99 79.71"/><circle class="cls-15" cx="17.36" cy="80.76" r="0.52"/><polyline class="cls-15" points="14.05 78.24 15.34 79.71 14.05 79.71 12.76 79.71 14.05 78.24"/><polyline class="cls-15" points="15.34 77.39 14.05 77.39 12.76 77.39"/></svg>