<svg id="Layer_1" data-name="Layer 1" xmlns="http://www.w3.org/2000/svg" xmlns:xlink="http://www.w3.org/1999/xlink" viewBox="0 0 73 102"><defs><style>.cls-1{fill:none;}.cls-2{clip-path:url(#clip-path);}.cls-3{clip-path:url(#clip-path-3);}.cls-4{fill:#eae3dc;}.cls-5{fill:#93828a;}.cls-6{fill:#856f7a;}.cls-7{fill:#bea27d;}.cls-8{fill:#c7aa7f;}.cls-9{fill:#7a685c;}.cls-10,.cls-11,.cls-12,.cls-13{fill:#e8dfe4;}.cls-10{fill-rule:evenodd;}.cls-12{opacity:0.6;isolation:isolate;}.cls-13{font-size:10px;font-family:CalistoMT, Calisto MT;}.cls-14{letter-spacing:-0.08em;}</style><clipPath id="clip-path"><rect class="cls-1" x="0.01" y="0.12" width="72.98" height="101.77"/></clipPath><clipPath id="clip-path-3"><rect class="cls-1" x="0.01" y="0.12" width="72.98" height="101.77"/></clipPath></defs><g class="cls-2"><g class="cls-2"><g class="cls-3"><path class="cls-4" d="M56.18,99a2.9,2.9,0,0,1,2.9,2.9h4a2.9,2.9,0,0,1,5.79-.12v.12H73V98.17a2.94,2.94,0,0,1-1.45-.39,2.91,2.91,0,0,1-1.06-1.06A2.9,2.9,0,0,1,73,92.37v-4a2.9,2.9,0,0,1-.12-5.79H73v-4a2.89,2.89,0,1,1-.12-5.78H73v-4a2.9,2.9,0,0,1-2.51-4.35,2.91,2.91,0,0,1,1.06-1.06A2.94,2.94,0,0,1,73,62.87v-4a2.89,2.89,0,1,1-.12-5.78H73V49a2.94,2.94,0,0,1-1.45-.39,2.9,2.9,0,0,1-1.45-2.51,2.94,2.94,0,0,1,1.45-2.52A2.93,2.93,0,0,1,73,43.21V39.16a2.93,2.93,0,0,1-1.45-.38,2.86,2.86,0,0,1-1.06-1.07,2.87,2.87,0,0,1,0-2.89,2.86,2.86,0,0,1,1.06-1.07A2.93,2.93,0,0,1,73,33.37v-4a2.93,2.93,0,0,1-1.45-.38,2.94,2.94,0,0,1-1.45-2.52A2.83,2.83,0,0,1,70.48,25a2.86,2.86,0,0,1,1.06-1.07A2.93,2.93,0,0,1,73,23.53V19.48a2.9,2.9,0,0,1-2-.84,2.91,2.91,0,0,1,0-4.11,2.91,2.91,0,0,1,2-.85v-4a2.9,2.9,0,0,1-.12-5.79H73V.12H68.91a2.94,2.94,0,0,1-.85,2.05A2.87,2.87,0,0,1,66,3,2.9,2.9,0,0,1,64,2.17a2.89,2.89,0,0,1-.84-2h-4a2.89,2.89,0,0,1-.84,2.05A2.9,2.9,0,0,1,56.16,3a2.76,2.76,0,0,1-1.1-.21,3,3,0,0,1-.94-.63,2.69,2.69,0,0,1-.63-.93A3,3,0,0,1,53.26.13h-4a2.87,2.87,0,0,1-.85,2.05,2.91,2.91,0,0,1-2,.85,2.94,2.94,0,0,1-2-.85A2.91,2.91,0,0,1,43.42.13h-4a2.9,2.9,0,0,1-.84,2.05,2.94,2.94,0,0,1-2,.85,3,3,0,0,1-2.06-.85A2.9,2.9,0,0,1,33.59.13H29.54a2.86,2.86,0,0,1-.84,2.05A2.91,2.91,0,0,1,26.64,3a2.93,2.93,0,0,1-2.05-.84,2.92,2.92,0,0,1-.86-2h-4a2.87,2.87,0,0,1-.85,2.05,2.9,2.9,0,0,1-4.1,0A2.91,2.91,0,0,1,13.89.13h-4A2.89,2.89,0,0,1,7,3a2.88,2.88,0,0,1-2-.85,2.86,2.86,0,0,1-.83-2H0V3.84a2.86,2.86,0,0,1,2.05.84,2.91,2.91,0,0,1,.85,2.06,2.88,2.88,0,0,1-.85,2A2.91,2.91,0,0,1,0,9.64v4a2.87,2.87,0,0,1,2.05.85,2.87,2.87,0,0,1,.85,2,2.93,2.93,0,0,1-.84,2.05,3,3,0,0,1-.94.63,3,3,0,0,1-1.1.22v4a2.92,2.92,0,0,1,2.05.85,2.92,2.92,0,0,1,.85,2.05,2.91,2.91,0,0,1-.85,2.05A2.88,2.88,0,0,1,0,29.31v4.05a2.87,2.87,0,0,1,2.05.84,3,3,0,0,1,.85,2.06,2.9,2.9,0,0,1-.87,2A2.84,2.84,0,0,1,0,39.12v4.05A2.87,2.87,0,0,1,2.06,44a2.87,2.87,0,0,1,.85,2h0a2.87,2.87,0,0,1-.85,2.05A2.87,2.87,0,0,1,0,49v4a2.91,2.91,0,0,1,2.05.85,2.9,2.9,0,0,1,.85,2.05A2.78,2.78,0,0,1,2.69,57a2.92,2.92,0,0,1-.63.95,3,3,0,0,1-.94.62A2.82,2.82,0,0,1,0,58.82v4a2.87,2.87,0,0,1,2.05.85,2.87,2.87,0,0,1,.85,2,3,3,0,0,1-.22,1.1,3,3,0,0,1-.63.94,2.8,2.8,0,0,1-.94.62A2.81,2.81,0,0,1,0,68.64v4a2.87,2.87,0,0,1,2.05.85,2.87,2.87,0,0,1,.85,2h0a3,3,0,0,1-.22,1.11,2.84,2.84,0,0,1-.63.93,3,3,0,0,1-.94.63A2.81,2.81,0,0,1,0,78.48v4a2.87,2.87,0,0,1,2.05.85,2.87,2.87,0,0,1,.85,2.05,2.85,2.85,0,0,1-.22,1.11,2.8,2.8,0,0,1-.62.94,3,3,0,0,1-.94.63,3,3,0,0,1-1.1.22v4a3,3,0,0,1,1.11.22,3,3,0,0,1,.94.63,3,3,0,0,1,.63.94,3,3,0,0,1,.22,1.11,3,3,0,0,1-.22,1.11,3,3,0,0,1-.63.94,3,3,0,0,1-.94.63A2.85,2.85,0,0,1,0,98.17v3.72H4.11a2.9,2.9,0,0,1,5.8,0h4a2.9,2.9,0,0,1,4.95-2,2.87,2.87,0,0,1,.85,2h4a2.89,2.89,0,1,1,5.78-.12v.12h4a2.9,2.9,0,0,1,.84-2,2.91,2.91,0,0,1,4.11,0,2.9,2.9,0,0,1,.84,2h4.05a2.87,2.87,0,0,1,.85-2,2.91,2.91,0,0,1,2-.85,3,3,0,0,1,1.1.22,2.84,2.84,0,0,1,.93.63,2.74,2.74,0,0,1,.62,1,3,3,0,0,1,.21,1.1h4a2.87,2.87,0,0,1,.85-2,2.91,2.91,0,0,1,2-.85Z"/><path class="cls-5" d="M6.4,6.3H66.61V95.7H6.4Z"/><path class="cls-6" d="M66.18,6.73V95.26H6.83V6.73ZM67,5.87H6V96.14H67Z"/><path class="cls-7" d="M64.43,88.54H7.65v.65H65.36v-.65Z"/><path class="cls-8" d="M7.65,89.42H65.36V95.1H7.65Z"/><path class="cls-9" d="M7.65,89.31v.11H65.36v-.23H7.65Z"/></g></g></g><path class="cls-10" d="M15.05,56.2V88.48h6.63V50.07L15.05,56.2Zm2,12h2.55a.38.38,0,0,1,0,.76H17.09a.38.38,0,1,1,0-.76Zm0,1.56h2.55a.38.38,0,1,1,0,.75H17.09a.38.38,0,1,1,0-.75Zm-.38,1.93a.38.38,0,0,1,.38-.38h2.55a.38.38,0,0,1,0,.76H17.09a.38.38,0,0,1-.38-.38Zm.38,3.59h2.55a.37.37,0,0,1,.38.37.38.38,0,0,1-.38.38H17.09a.38.38,0,0,1-.38-.38.37.37,0,0,1,.38-.37Zm0,1.55h2.55a.38.38,0,0,1,0,.76H17.09a.38.38,0,1,1,0-.76Zm-.38,1.93a.38.38,0,0,1,.38-.37h2.55a.38.38,0,1,1,0,.75H17.09a.38.38,0,0,1-.38-.38Zm.38,3.59h2.55a.38.38,0,1,1,0,.75H17.09a.38.38,0,1,1,0-.75Zm-.38,1.93a.38.38,0,0,1,.38-.38h2.55a.38.38,0,0,1,0,.76H17.09a.38.38,0,0,1-.38-.38Zm0,1.56a.38.38,0,0,1,.38-.38h2.55a.38.38,0,1,1,0,.75H17.09a.38.38,0,0,1-.38-.37Z"/><path class="cls-10" d="M23,57.46v31h6.63V63.59L23,57.46Zm2,10.72h2.55a.38.38,0,1,1,0,.76H25.08a.38.38,0,1,1,0-.76Zm-.38,1.94a.38.38,0,0,1,.38-.38h2.55a.38.38,0,1,1,0,.75H25.08a.38.38,0,0,1-.38-.37Zm0,1.55a.38.38,0,0,1,.38-.38h2.55a.38.38,0,1,1,0,.76H25.08a.38.38,0,0,1-.38-.38Zm0,4a.37.37,0,0,1,.38-.37h2.55a.37.37,0,0,1,.38.37.38.38,0,0,1-.38.38H25.08a.38.38,0,0,1-.38-.38Zm0,1.56a.38.38,0,0,1,.38-.38h2.55a.38.38,0,1,1,0,.76H25.08a.38.38,0,0,1-.38-.38Zm0,1.55a.38.38,0,0,1,.38-.37h2.55a.38.38,0,1,1,0,.75H25.08a.38.38,0,0,1-.38-.38Zm0,4a.38.38,0,0,1,.38-.37h2.55a.38.38,0,1,1,0,.75H25.08a.38.38,0,0,1-.38-.38Zm0,1.56a.38.38,0,0,1,.38-.38h2.55a.38.38,0,0,1,0,.76H25.08a.38.38,0,0,1-.38-.38Zm0,1.56a.38.38,0,0,1,.38-.38h2.55a.38.38,0,1,1,0,.75H25.08a.38.38,0,0,1-.38-.37Z"/><path class="cls-10" d="M30.09,55.9ZM29,55Zm-3,1.31h6.94a0,0,0,0,0,0,0s0,0,0,0H30.68a.37.37,0,0,1-.36-.22.18.18,0,0,0-.08-.09.2.2,0,0,0-.11,0h-.06a.37.37,0,0,1-.42-.32.65.65,0,0,0-.23-.41A.62.62,0,0,0,29,55h0a.37.37,0,0,1-.37-.23,1.13,1.13,0,0,0-.42-.5,1.14,1.14,0,0,0-1.42.15,1.14,1.14,0,0,0-.33.8.49.49,0,0,0,0,.12s0,.07,0,.11a.36.36,0,0,1-.43.45h0a.21.21,0,0,0-.21.2.21.21,0,0,0,.21.21Z"/><polygon class="cls-10" points="32.94 74.69 32.94 88.48 34.8 88.48 34.8 74.69 34.2 74.69 32.94 74.69 32.94 74.69"/><path class="cls-10" d="M34.58,60.19V73.93h.6a.38.38,0,0,1,.38.38V88.48h.88V60.19H34.58Z"/><path class="cls-10" d="M36,59.44h.8a.38.38,0,0,1,.38.37V88.48h.67V45.65H36V59.44Z"/><path class="cls-10" d="M38.39,44.93Zm.12.09Zm0,0Zm0,0Zm.06.14Zm0,.07v43.2h1V48.63a.38.38,0,0,1,.38-.38h.27v-9H38.37v5.72h.06l0,0h.14Z"/><path class="cls-10" d="M40.33,49V88.48h.35V64.59a.38.38,0,0,1,.38-.38h1.13V49H40.33Z"/><path class="cls-10" d="M41.44,65V88.48H42V78.23a.38.38,0,0,1,.38-.38h.93V65H41.44Z"/><polygon class="cls-10" points="42.74 78.61 42.74 88.48 44.6 88.48 44.6 78.61 43.67 78.61 42.74 78.61 42.74 78.61"/><path class="cls-10" d="M47.28,83v5.53H59.44c0-2-.14-3.8-.31-5.53Zm1.49,4.64a.38.38,0,0,1,.37-.38H56A.38.38,0,1,1,56,88H49.14a.38.38,0,0,1-.37-.38Zm.37-2.73a.38.38,0,0,1,0-.76H56a.38.38,0,1,1,0,.76Zm0,1.55a.38.38,0,0,1,0-.75H56a.38.38,0,1,1,0,.75Z"/><path class="cls-10" d="M54.5,80.29a.38.38,0,1,1,0,.75H49.14a.38.38,0,0,1,0-.75Zm-7.22,1.9H59A50.19,50.19,0,0,0,58,76H47.28v6.17Zm7.22-4.26H49.14a.38.38,0,0,1-.37-.38.37.37,0,0,1,.37-.37H54.5a.37.37,0,0,1,.38.37.38.38,0,0,1-.38.38Zm.38,1.18a.38.38,0,0,1-.38.38H49.14a.38.38,0,0,1,0-.76H54.5a.38.38,0,0,1,.38.38Z"/><path class="cls-10" d="M47.28,75.27h10.5c-.12-.48-.25-.94-.38-1.39v0l-.06-.2,0,0,0-.17,0-.07,0-.15,0-.09,0-.12,0-.12,0-.08L57,72.66v0l-.16-.46L56.8,72h0l-.07-.2h0l0-.05-.05-.12,0-.1,0-.09-.06-.14v0l-.07-.18h0c-.09-.23-.17-.45-.26-.66v0l-.11-.28,0-.1L56,69.86l-.33-.77H47.28v6.18ZM53,73.36a.38.38,0,1,1,0,.75h-3.9a.38.38,0,0,1,0-.75Zm0-.8h-3.9a.38.38,0,0,1,0-.76H53a.38.38,0,0,1,0,.76ZM49.14,71a.38.38,0,0,1,0-.75H53A.38.38,0,1,1,53,71Z"/><path class="cls-10" d="M47.28,68.34h8c-2.57-5.4-5.54-7.79-6.54-7.79H47.28v7.79ZM51,66.63a.37.37,0,0,1-.37.37h-1.5a.37.37,0,0,1-.37-.37.38.38,0,0,1,.37-.38h1.5a.38.38,0,0,1,.37.38Zm0-1.56a.38.38,0,0,1-.37.38h-1.5a.38.38,0,0,1,0-.76h1.5a.38.38,0,0,1,.37.38Zm-1.87-1.18a.38.38,0,0,1,0-.75h1.5a.38.38,0,0,1,0,.75Z"/><path class="cls-10" d="M47.49,55.73Zm1.11-.9Zm3,1.31h-7s0,0,0,0v0h2.25a.38.38,0,0,0,.36-.22.16.16,0,0,1,.07-.09.2.2,0,0,1,.11,0h.06a.38.38,0,0,0,.43-.32.67.67,0,0,1,.66-.58h0A.39.39,0,0,0,49,54.6a1.11,1.11,0,0,1,.41-.5,1.19,1.19,0,0,1,.63-.18,1.08,1.08,0,0,1,.79.33,1.11,1.11,0,0,1,.34.8s0,.08,0,.12a.52.52,0,0,1,0,.11.38.38,0,0,0,0,.15.38.38,0,0,0,.44.3h0a.2.2,0,0,1,0,.4Z"/><polygon class="cls-11" points="38.94 38 38.94 35.58 39.67 35.58 39.67 38 38.94 38 38.94 38"/><path class="cls-10" d="M46.69,42.59Zm-1.11-.9Zm-3,1.31H49.5s0,0,0,0,0,0,0,0,0,0,0,0H47.28a.39.39,0,0,1-.36-.22.18.18,0,0,0-.08-.09.2.2,0,0,0-.11,0h-.06a.37.37,0,0,1-.42-.32.65.65,0,0,0-.23-.41.64.64,0,0,0-.44-.17h0a.37.37,0,0,1-.36-.23,1.13,1.13,0,0,0-.42-.5,1.16,1.16,0,0,0-.62-.18A1.13,1.13,0,0,0,43,41.91V42s0,.07,0,.1a.43.43,0,0,1,0,.16.37.37,0,0,1-.43.3h0a.2.2,0,0,0-.15.06.19.19,0,0,0,0,.28.2.2,0,0,0,.15.06Z"/><path class="cls-12" d="M58.69,39A1.69,1.69,0,0,0,57,37.89a2.26,2.26,0,0,0-.92.19,2.6,2.6,0,0,0-.9-.64,2.75,2.75,0,0,0-1.1-.2c-1.28,0-2.32.77-2.32,1.72h0c-.82.11-1.46.63-1.46,1.27s.8,1.28,1.76,1.28h6.39c1,0,1.77-.58,1.77-1.28S59.52,39.06,58.69,39Z"/><path class="cls-12" d="M24.3,34.44a1.68,1.68,0,0,0-1.73-1.08,2.39,2.39,0,0,0-.91.19,2.54,2.54,0,0,0-2-.83c-1.28,0-2.32.76-2.32,1.71h0c-.82.11-1.47.63-1.47,1.27S16.67,37,17.64,37H24c.95,0,1.76-.58,1.76-1.28S25.14,34.54,24.3,34.44Z"/><path class="cls-12" d="M37,30.11c0,.7.8,1.29,1.76,1.29h6.39c1,0,1.77-.58,1.77-1.29s-.65-1.15-1.47-1.26v0c0-.94-1-1.71-2.32-1.71a2.71,2.71,0,0,0-1.09.2,2.55,2.55,0,0,0-.91.64,2.23,2.23,0,0,0-.92-.19,1.69,1.69,0,0,0-1.71,1.08C37.66,28.94,37,29.47,37,30.11Z"/><path class="cls-11" d="M31.27,38.19l.27.41.27-.41a1.27,1.27,0,0,1,.45-.41,1.3,1.3,0,0,1,.58-.14h.09V37h-.09a1.9,1.9,0,0,0-1.3.51A1.92,1.92,0,0,0,30.23,37h-.08v.65h.08a1.15,1.15,0,0,1,.6.13A1.18,1.18,0,0,1,31.27,38.19Zm19.48-9,.21.31.21-.31a.92.92,0,0,1,.79-.42H52v-.5H52a1.46,1.46,0,0,1-1,.39,1.48,1.48,0,0,1-1-.39H49.9v.5H50a.88.88,0,0,1,.45.11A.85.85,0,0,1,50.75,29.16ZM54,47.55l.25.38.26-.38a1.11,1.11,0,0,1,1-.5h.08v-.61h-.08a1.78,1.78,0,0,1-2.43,0H53v.61h.08a1.06,1.06,0,0,1,.55.12A1.07,1.07,0,0,1,54,47.55ZM14.3,33l.21.32.22-.32a.93.93,0,0,1,.81-.42h.06V32h-.06a1.51,1.51,0,0,0-1,.4,1.47,1.47,0,0,0-1-.4h-.06v.51h.06a.92.92,0,0,1,.46.11A1,1,0,0,1,14.3,33Z"/><text class="cls-13" transform="translate(26.88 20.64)"><tspan class="cls-14">U</tspan><tspan x="7.23" y="0">AE</tspan></text></svg>