<svg id="Layer_1" data-name="Layer 1" xmlns="http://www.w3.org/2000/svg" xmlns:xlink="http://www.w3.org/1999/xlink" viewBox="0 0 73 102"><defs><style>.cls-1{fill:none;}.cls-2{clip-path:url(#clip-path);}.cls-3{clip-path:url(#clip-path-3);}.cls-4{fill:#eae3dc;}.cls-5{fill:#93828a;}.cls-6{fill:#856f7a;}.cls-7{fill:#bea27d;}.cls-8{fill:#c7aa7f;}.cls-9{fill:#7a685c;}.cls-10,.cls-11,.cls-12{fill:#e8dfe4;}.cls-10{opacity:0.6;isolation:isolate;}.cls-12{font-size:10px;font-family:CalistoMT, Calisto MT;}.cls-13{clip-path:url(#clip-path-4);}.cls-14{clip-path:url(#clip-path-5);}.cls-15{clip-path:url(#clip-path-6);}.cls-16{clip-path:url(#clip-path-7);}.cls-17{clip-path:url(#clip-path-8);}.cls-18{fill:#faeada;fill-rule:evenodd;}</style><clipPath id="clip-path"><rect class="cls-1" x="0.01" y="0.12" width="72.98" height="101.77"/></clipPath><clipPath id="clip-path-3"><rect class="cls-1" x="0.01" y="0.12" width="72.98" height="101.77"/></clipPath><clipPath id="clip-path-4"><path id="SVGID" class="cls-1" d="M21.26,64.34V85.56h-.63a.21.21,0,0,0-.21.21v1.89H18.74a.42.42,0,0,0,0,.84H13.07a.42.42,0,1,1,0-.84h2.31V64.34a.21.21,0,0,1,.21-.21,2.42,2.42,0,0,1,.84.2V61a.21.21,0,0,1,.21-.21.22.22,0,0,1,.21.21v3a1.5,1.5,0,0,1,1.47.89A1.5,1.5,0,0,1,19.79,64V61a.22.22,0,0,1,.21-.21.21.21,0,0,1,.21.21v3.35a2.42,2.42,0,0,1,.84-.2A.21.21,0,0,1,21.26,64.34Z"/></clipPath><clipPath id="clip-path-5"><path id="SVGID-2" data-name="SVGID" class="cls-1" d="M31.39,81.38l.14,3.84-.6,0v-.94a.21.21,0,0,0-.21-.21H28.08a.19.19,0,0,0,0-.13.26.26,0,0,0-.16-.09l-.48,0-.18-.45a.21.21,0,0,0-.13-.13.2.2,0,0,0-.18,0l-.4.26-.41-.26a.19.19,0,0,0-.18,0l-.05,0,.1-2-.2-5,.16-5.06-.26-5v0l.68-9.46c0-.11.15-.19.26-.19h1.26a.22.22,0,0,1,.21.15L28.44,58H29l.35-1.32a.21.21,0,0,1,.2-.15h1.27c.11,0,.14.08.15.19l.58,9.46v0l-.16,5.05.24,5Z"/></clipPath><clipPath id="clip-path-6"><path id="SVGID-3" data-name="SVGID" class="cls-1" d="M38.5,63.08v21H33.87v-21a.22.22,0,0,1,.21-.21h4.21A.22.22,0,0,1,38.5,63.08Z"/></clipPath><clipPath id="clip-path-7"><path id="SVGID-4" data-name="SVGID" class="cls-1" d="M49.43,64.55v20H48.16a.21.21,0,0,0-.21.21v.42H44.8v-.84a.21.21,0,0,0-.21-.21H44v-.63a.21.21,0,0,0-.21-.21h-1V64.55a.21.21,0,0,1,.21-.21h6.31A.22.22,0,0,1,49.43,64.55Z"/></clipPath><clipPath id="clip-path-8"><path id="SVGID-5" data-name="SVGID" class="cls-1" d="M52.16,87.67H50.48V84.73a.21.21,0,0,0-.21-.21H48.16a.21.21,0,0,0-.21.21v.42H44.8v-.84a.21.21,0,0,0-.21-.21H44v-.63a.21.21,0,0,0-.21-.21H39.13a.21.21,0,0,0-.21.21v.63H33.66a.21.21,0,0,0-.21.21v.83l-2.52.11v-.94a.21.21,0,0,0-.21-.21H28.09a.43.43,0,0,0,0,.05l-.13.46.38.31a.2.2,0,0,1,0,.32l-.38.31.13.46a.21.21,0,0,1-.19.27l-.48,0-.18.45a.19.19,0,0,1-.13.13H27a.27.27,0,0,1-.12,0l-.4-.27v1.5a.21.21,0,0,1-.21.21.21.21,0,0,1-.21-.21V86.86a.2.2,0,0,1-.17,0,.21.21,0,0,1-.13-.13l-.17-.45-.48,0a.19.19,0,0,1-.16-.09A.22.22,0,0,1,25,86l.13-.51L25,85.36h0a38.44,38.44,0,0,1-4.33.17c-.12,0-.21.14-.21.25v1.89H18.74a.42.42,0,0,0,0,.84H52.16a.42.42,0,0,0,0-.84Zm-8.7-2.43-.37.31.12.46a.19.19,0,0,1,0,.18.22.22,0,0,1-.16.09l-.48,0-.18.45a.19.19,0,0,1-.13.13h-.06a.27.27,0,0,1-.12,0l-.4-.27v1.5a.21.21,0,0,1-.21.21.21.21,0,0,1-.21-.21V86.86a.2.2,0,0,1-.17,0,.21.21,0,0,1-.13-.13l-.17-.45-.48,0a.22.22,0,0,1-.16-.09.19.19,0,0,1,0-.18l.12-.46-.37-.31a.2.2,0,0,1,0-.32l.37-.31-.12-.46a.19.19,0,0,1,0-.18.26.26,0,0,1,.16-.09l.48,0,.17-.45a.24.24,0,0,1,.13-.13.21.21,0,0,1,.19,0l.4.26.4-.26a.2.2,0,0,1,.18,0,.21.21,0,0,1,.13.13l.18.45.48,0a.26.26,0,0,1,.16.09.19.19,0,0,1,0,.18l-.12.46.37.31a.2.2,0,0,1,0,.32Z"/></clipPath></defs><g class="cls-2"><g class="cls-2"><g class="cls-3"><path class="cls-4" d="M56.18,99a2.9,2.9,0,0,1,2.9,2.9h4a2.9,2.9,0,0,1,5.79-.12v.12H73V98.17a2.94,2.94,0,0,1-1.45-.39,2.91,2.91,0,0,1-1.06-1.06A2.9,2.9,0,0,1,73,92.37v-4a2.9,2.9,0,0,1-.12-5.79H73v-4a2.89,2.89,0,1,1-.12-5.78H73v-4a2.9,2.9,0,0,1-2.51-4.35,2.91,2.91,0,0,1,1.06-1.06A2.94,2.94,0,0,1,73,62.87v-4a2.89,2.89,0,1,1-.12-5.78H73V49a2.94,2.94,0,0,1-1.45-.39,2.9,2.9,0,0,1-1.45-2.51,2.94,2.94,0,0,1,1.45-2.52A2.93,2.93,0,0,1,73,43.21V39.16a2.93,2.93,0,0,1-1.45-.38,2.86,2.86,0,0,1-1.06-1.07,2.87,2.87,0,0,1,0-2.89,2.86,2.86,0,0,1,1.06-1.07A2.93,2.93,0,0,1,73,33.37v-4a2.93,2.93,0,0,1-1.45-.38,2.94,2.94,0,0,1-1.45-2.52A2.83,2.83,0,0,1,70.48,25a2.86,2.86,0,0,1,1.06-1.07A2.93,2.93,0,0,1,73,23.53V19.48a2.9,2.9,0,0,1-2-.84,2.91,2.91,0,0,1,0-4.11,2.91,2.91,0,0,1,2-.85v-4a2.9,2.9,0,0,1-.12-5.79H73V.12H68.91a2.94,2.94,0,0,1-.85,2.05A2.87,2.87,0,0,1,66,3,2.9,2.9,0,0,1,64,2.17a2.89,2.89,0,0,1-.84-2h-4a2.89,2.89,0,0,1-.84,2.05A2.9,2.9,0,0,1,56.16,3a2.76,2.76,0,0,1-1.1-.21,3,3,0,0,1-.94-.63,2.69,2.69,0,0,1-.63-.93A3,3,0,0,1,53.26.13h-4a2.87,2.87,0,0,1-.85,2.05,2.91,2.91,0,0,1-2,.85,2.94,2.94,0,0,1-2-.85A2.91,2.91,0,0,1,43.42.13h-4a2.9,2.9,0,0,1-.84,2.05,2.94,2.94,0,0,1-2,.85,3,3,0,0,1-2.06-.85A2.9,2.9,0,0,1,33.59.13H29.54a2.86,2.86,0,0,1-.84,2.05A2.91,2.91,0,0,1,26.64,3a2.93,2.93,0,0,1-2.05-.84,2.92,2.92,0,0,1-.86-2h-4a2.87,2.87,0,0,1-.85,2.05,2.9,2.9,0,0,1-4.1,0A2.91,2.91,0,0,1,13.89.13h-4A2.89,2.89,0,0,1,7,3a2.88,2.88,0,0,1-2-.85,2.86,2.86,0,0,1-.83-2H0V3.84a2.86,2.86,0,0,1,2.05.84,2.91,2.91,0,0,1,.85,2.06,2.88,2.88,0,0,1-.85,2A2.91,2.91,0,0,1,0,9.64v4a2.87,2.87,0,0,1,2.05.85,2.87,2.87,0,0,1,.85,2,2.93,2.93,0,0,1-.84,2.05,3,3,0,0,1-.94.63,3,3,0,0,1-1.1.22v4a2.92,2.92,0,0,1,2.05.85,2.92,2.92,0,0,1,.85,2.05,2.91,2.91,0,0,1-.85,2.05A2.88,2.88,0,0,1,0,29.31v4.05a2.87,2.87,0,0,1,2.05.84,3,3,0,0,1,.85,2.06,2.9,2.9,0,0,1-.87,2A2.84,2.84,0,0,1,0,39.12v4.05A2.87,2.87,0,0,1,2.06,44a2.87,2.87,0,0,1,.85,2h0a2.87,2.87,0,0,1-.85,2.05A2.87,2.87,0,0,1,0,49v4a2.91,2.91,0,0,1,2.05.85,2.9,2.9,0,0,1,.85,2.05A2.78,2.78,0,0,1,2.69,57a2.92,2.92,0,0,1-.63.95,3,3,0,0,1-.94.62A2.82,2.82,0,0,1,0,58.82v4a2.87,2.87,0,0,1,2.05.85,2.87,2.87,0,0,1,.85,2,3,3,0,0,1-.22,1.1,3,3,0,0,1-.63.94,2.8,2.8,0,0,1-.94.62A2.81,2.81,0,0,1,0,68.64v4a2.87,2.87,0,0,1,2.05.85,2.87,2.87,0,0,1,.85,2h0a3,3,0,0,1-.22,1.11,2.84,2.84,0,0,1-.63.93,3,3,0,0,1-.94.63A2.81,2.81,0,0,1,0,78.48v4a2.87,2.87,0,0,1,2.05.85,2.87,2.87,0,0,1,.85,2.05,2.85,2.85,0,0,1-.22,1.11,2.8,2.8,0,0,1-.62.94,3,3,0,0,1-.94.63,3,3,0,0,1-1.1.22v4a3,3,0,0,1,1.11.22,3,3,0,0,1,.94.63,3,3,0,0,1,.63.94,3,3,0,0,1,.22,1.11,3,3,0,0,1-.22,1.11,3,3,0,0,1-.63.94,3,3,0,0,1-.94.63A2.85,2.85,0,0,1,0,98.17v3.72H4.11a2.9,2.9,0,0,1,5.8,0h4a2.9,2.9,0,0,1,4.95-2,2.87,2.87,0,0,1,.85,2h4a2.89,2.89,0,1,1,5.78-.12v.12h4a2.9,2.9,0,0,1,.84-2,2.91,2.91,0,0,1,4.11,0,2.9,2.9,0,0,1,.84,2h4.05a2.87,2.87,0,0,1,.85-2,2.91,2.91,0,0,1,2-.85,3,3,0,0,1,1.1.22,2.84,2.84,0,0,1,.93.63,2.74,2.74,0,0,1,.62,1,3,3,0,0,1,.21,1.1h4a2.87,2.87,0,0,1,.85-2,2.91,2.91,0,0,1,2-.85Z"/><path class="cls-5" d="M6.4,6.3H66.61V95.7H6.4Z"/><path class="cls-6" d="M66.18,6.73V95.26H6.83V6.73ZM67,5.87H6V96.14H67Z"/><path class="cls-7" d="M64.43,88.54H7.65v.65H65.36v-.65Z"/><path class="cls-8" d="M7.65,89.42H65.36V95.1H7.65Z"/><path class="cls-9" d="M7.65,89.31v.11H65.36v-.23H7.65Z"/></g></g></g><path class="cls-10" d="M58.69,39A1.69,1.69,0,0,0,57,37.89a2.26,2.26,0,0,0-.92.19,2.6,2.6,0,0,0-.9-.64,2.75,2.75,0,0,0-1.1-.2c-1.28,0-2.32.77-2.32,1.72h0c-.82.11-1.46.63-1.46,1.27s.8,1.28,1.76,1.28h6.39c1,0,1.77-.58,1.77-1.28S59.52,39.06,58.69,39Z"/><path class="cls-10" d="M24.3,34.44a1.68,1.68,0,0,0-1.73-1.08,2.39,2.39,0,0,0-.91.19,2.54,2.54,0,0,0-2-.83c-1.28,0-2.32.76-2.32,1.71h0c-.82.11-1.47.63-1.47,1.27S16.67,37,17.64,37H24c.95,0,1.76-.58,1.76-1.28S25.14,34.54,24.3,34.44Z"/><path class="cls-10" d="M37,30.11c0,.7.8,1.29,1.76,1.29h6.39c1,0,1.77-.58,1.77-1.29s-.65-1.15-1.47-1.26v0c0-.94-1-1.71-2.32-1.71a2.71,2.71,0,0,0-1.09.2,2.55,2.55,0,0,0-.91.64,2.23,2.23,0,0,0-.92-.19,1.69,1.69,0,0,0-1.71,1.08C37.66,28.94,37,29.47,37,30.11Z"/><path class="cls-11" d="M31.27,38.19l.27.41.27-.41a1.27,1.27,0,0,1,.45-.41,1.3,1.3,0,0,1,.58-.14h.09V37h-.09a1.9,1.9,0,0,0-1.3.51A1.92,1.92,0,0,0,30.23,37h-.08v.65h.08a1.15,1.15,0,0,1,.6.13A1.18,1.18,0,0,1,31.27,38.19Zm19.48-9,.21.31.21-.31a.92.92,0,0,1,.79-.42H52v-.5H52a1.46,1.46,0,0,1-1,.39,1.48,1.48,0,0,1-1-.39H49.9v.5H50a.88.88,0,0,1,.45.11A.85.85,0,0,1,50.75,29.16ZM54,47.55l.25.38.26-.38a1.11,1.11,0,0,1,1-.5h.08v-.61h-.08a1.78,1.78,0,0,1-2.43,0H53v.61h.08a1.06,1.06,0,0,1,.55.12A1.07,1.07,0,0,1,54,47.55ZM14.3,33l.21.32.22-.32a.93.93,0,0,1,.81-.42h.06V32h-.06a1.51,1.51,0,0,0-1,.4,1.47,1.47,0,0,0-1-.4h-.06v.51h.06a.92.92,0,0,1,.46.11A1,1,0,0,1,14.3,33Z"/><text class="cls-12" transform="translate(8.66 20.64)">Saudi Arabia</text><g id="Sun"><path class="cls-11" d="M41.71,54.27A2.31,2.31,0,1,1,44,52,2.32,2.32,0,0,1,41.71,54.27Zm0-4.2A1.89,1.89,0,1,0,43.6,52,1.89,1.89,0,0,0,41.71,50.07Z"/><path class="cls-11" d="M41.71,49a.22.22,0,0,1-.21-.21V47.55a.21.21,0,0,1,.21-.21.21.21,0,0,1,.21.21v1.26A.21.21,0,0,1,41.71,49Z"/><path class="cls-11" d="M41.71,46.5a.22.22,0,0,1-.21-.21v-.42a.22.22,0,0,1,.21-.22.21.21,0,0,1,.21.22v.42A.21.21,0,0,1,41.71,46.5Z"/><path class="cls-11" d="M39.86,49.62a.21.21,0,0,1-.17-.09l-.86-1.19a.21.21,0,0,1,0-.29.21.21,0,0,1,.3.05L40,49.29a.2.2,0,0,1-.05.29A.17.17,0,0,1,39.86,49.62Z"/><path class="cls-11" d="M38.5,47.75a.21.21,0,0,1-.17-.09l-.12-.17a.21.21,0,0,1,0-.29.21.21,0,0,1,.3,0l.12.17a.2.2,0,0,1-.05.29A.17.17,0,0,1,38.5,47.75Z"/><path class="cls-11" d="M38.72,51.2h-.07l-1.17-.39a.21.21,0,0,1-.14-.26.23.23,0,0,1,.27-.14l1.17.39a.2.2,0,0,1,.13.26A.2.2,0,0,1,38.72,51.2Z"/><path class="cls-11" d="M36.85,50.59h-.07l-.19-.06a.21.21,0,0,1-.13-.27.2.2,0,0,1,.26-.13l.19.06a.21.21,0,0,1,.14.26A.21.21,0,0,1,36.85,50.59Z"/><path class="cls-11" d="M37.32,53.6a.2.2,0,0,1-.2-.15.2.2,0,0,1,.13-.26l1.4-.46a.21.21,0,0,1,.26.14.2.2,0,0,1-.13.26l-1.4.46Z"/><path class="cls-11" d="M36.32,53.92a.2.2,0,0,1-.2-.14.21.21,0,0,1,.13-.27l.2-.06a.21.21,0,0,1,.27.13.23.23,0,0,1-.14.27l-.2.06Z"/><path class="cls-11" d="M39.59,55.1a.24.24,0,0,1-.13-.05.2.2,0,0,1,0-.29l.27-.37a.21.21,0,1,1,.34.24l-.27.38A.21.21,0,0,1,39.59,55.1Z"/><path class="cls-11" d="M38.38,56.76a.2.2,0,0,1-.13,0,.21.21,0,0,1,0-.29L39,55.37a.22.22,0,0,1,.3,0,.21.21,0,0,1,0,.29l-.76,1.05A.21.21,0,0,1,38.38,56.76Z"/><path class="cls-11" d="M41.71,56.79a.21.21,0,0,1-.21-.21V55.11a.22.22,0,0,1,.21-.21.21.21,0,0,1,.21.21v1.47A.21.21,0,0,1,41.71,56.79Z"/><path class="cls-11" d="M41.71,57.84a.21.21,0,0,1-.21-.21v-.21a.22.22,0,0,1,.21-.21.21.21,0,0,1,.21.21v.21A.21.21,0,0,1,41.71,57.84Z"/><path class="cls-11" d="M44.43,55.91a.21.21,0,0,1-.17-.09l-.86-1.19a.21.21,0,0,1,0-.29.21.21,0,0,1,.3,0l.86,1.19a.2.2,0,0,1-.05.29A.17.17,0,0,1,44.43,55.91Z"/><path class="cls-11" d="M45.05,56.76a.2.2,0,0,1-.17-.09l-.12-.17a.21.21,0,0,1,0-.29.2.2,0,0,1,.29,0l.13.17a.2.2,0,0,1,0,.29A.19.19,0,0,1,45.05,56.76Z"/><path class="cls-11" d="M45.06,53.26H45l-.35-.12a.21.21,0,0,1-.14-.26.23.23,0,0,1,.27-.14l.35.12a.2.2,0,0,1,.13.26A.21.21,0,0,1,45.06,53.26Z"/><path class="cls-11" d="M47,53.88h-.06l-1-.31a.23.23,0,0,1-.14-.27.21.21,0,0,1,.27-.13l1,.31a.21.21,0,0,1,.13.27A.2.2,0,0,1,47,53.88Z"/><path class="cls-11" d="M44.71,51.2a.21.21,0,0,1-.2-.15.21.21,0,0,1,.14-.26l1-.32a.2.2,0,0,1,.26.13.21.21,0,0,1-.13.27l-1,.32Z"/><path class="cls-11" d="M46.25,50.7a.21.21,0,0,1-.2-.15.2.2,0,0,1,.13-.26l.14,0a.21.21,0,0,1,.27.14.2.2,0,0,1-.14.26l-.14,0Z"/><path class="cls-11" d="M43.57,49.62a.2.2,0,0,1-.13,0,.21.21,0,0,1,0-.29l.24-.34a.21.21,0,0,1,.3-.05.21.21,0,0,1,0,.29l-.24.34A.21.21,0,0,1,43.57,49.62Z"/><path class="cls-11" d="M44.3,48.61a.2.2,0,0,1-.13,0,.21.21,0,0,1,0-.29l.66-.91a.21.21,0,1,1,.34.25l-.66.91A.23.23,0,0,1,44.3,48.61Z"/></g><g id="Riyadh"><g id="Riyadh_building_6" data-name="Riyadh building 6"><path class="cls-11" d="M59.93,88.51H49a.42.42,0,0,1-.42-.42.42.42,0,0,1,.42-.42H59.93a.42.42,0,0,1,.42.42A.41.41,0,0,1,59.93,88.51Z"/><path class="cls-11" d="M54.47,88.3a.21.21,0,0,1-.21-.21V69.81a.21.21,0,1,1,.42,0V88.09A.21.21,0,0,1,54.47,88.3Z"/><path class="cls-11" d="M57.1,88.3H52.05a.21.21,0,0,1-.21-.21,62.71,62.71,0,0,1,2.4-17.93.22.22,0,0,1,.2-.14h0a.2.2,0,0,1,.2.14,56.65,56.65,0,0,1,2.67,17.93A.21.21,0,0,1,57.1,88.3Zm-4.84-.42h4.63a58.53,58.53,0,0,0-2.44-17A64.82,64.82,0,0,0,52.26,87.88Z"/><path class="cls-11" d="M55.31,73.8H53.63a.11.11,0,0,1-.11-.1.11.11,0,0,1,.11-.11h1.68a.1.1,0,0,1,.1.11A.1.1,0,0,1,55.31,73.8Z"/><path class="cls-11" d="M55.73,75.69H53.21a.1.1,0,0,1-.11-.1.11.11,0,0,1,.11-.11h2.52a.11.11,0,0,1,.11.11A.1.1,0,0,1,55.73,75.69Z"/><path class="cls-11" d="M55.94,76.53H53a.1.1,0,0,1-.11-.1.11.11,0,0,1,.11-.11h2.94a.11.11,0,0,1,.11.11A.1.1,0,0,1,55.94,76.53Z"/><path class="cls-11" d="M55.94,77.16H53a.1.1,0,0,1-.11-.1A.11.11,0,0,1,53,77h2.94a.11.11,0,0,1,.11.11A.1.1,0,0,1,55.94,77.16Z"/><path class="cls-11" d="M56.57,79.9h-4a.11.11,0,0,1-.11-.11.1.1,0,0,1,.11-.1h4a.1.1,0,0,1,.11.1A.11.11,0,0,1,56.57,79.9Z"/><path class="cls-11" d="M56.57,80.53h-4.2a.11.11,0,0,1-.11-.11.1.1,0,0,1,.11-.1h4.2a.1.1,0,0,1,.11.1A.11.11,0,0,1,56.57,80.53Z"/><path class="cls-11" d="M56.78,83.26H52.16a.11.11,0,0,1-.11-.11.11.11,0,0,1,.11-.1h4.62a.11.11,0,0,1,.11.1A.11.11,0,0,1,56.78,83.26Z"/><path class="cls-11" d="M56.78,83.89H52.16a.11.11,0,0,1-.11-.11.11.11,0,0,1,.11-.1h4.62a.11.11,0,0,1,.11.1A.11.11,0,0,1,56.78,83.89Z"/><path class="cls-11" d="M57,87.25H52a.1.1,0,0,1-.11-.1A.11.11,0,0,1,52,87h5a.11.11,0,0,1,.11.11A.1.1,0,0,1,57,87.25Z"/><path class="cls-11" d="M55.31,73.17H53.63a.11.11,0,0,1-.11-.1.11.11,0,0,1,.11-.11h1.68a.1.1,0,0,1,.1.11A.1.1,0,0,1,55.31,73.17Z"/><path class="cls-11" d="M55.1,72.54H53.84a.11.11,0,0,1-.11-.1.11.11,0,0,1,.11-.11H55.1a.1.1,0,0,1,.1.11A.1.1,0,0,1,55.1,72.54Z"/><path class="cls-11" d="M54.36,77.06l0,0-.58-.38-.57.38A.1.1,0,0,1,53,77a.1.1,0,0,1,0-.14l.64-.42a.08.08,0,0,1,.11,0l.63.42a.1.1,0,0,1,0,.14A.11.11,0,0,1,54.36,77.06Z"/><path class="cls-11" d="M54.36,80.42h0l-.8-.4-.79.4a.1.1,0,0,1-.14,0,.1.1,0,0,1,0-.14l.84-.42h.09l.84.42a.11.11,0,0,1,.05.14A.11.11,0,0,1,54.36,80.42Z"/><path class="cls-11" d="M54.36,83.78h0l-1-.41-1,.41a.12.12,0,0,1-.14-.06.11.11,0,0,1,.06-.14l1.05-.42h.08l1,.42a.1.1,0,0,1,.06.14A.09.09,0,0,1,54.36,83.78Z"/><path class="cls-11" d="M54.36,87.78h0l-1-.4-1,.4a.11.11,0,0,1-.14-.06.1.1,0,0,1,.06-.13l1.05-.43a.11.11,0,0,1,.08,0l1,.43a.1.1,0,0,1,.06.13A.1.1,0,0,1,54.36,87.78Z"/><path class="cls-11" d="M56.89,87.78h0l-1-.4-1,.4a.1.1,0,1,1-.07-.19l1-.43a.09.09,0,0,1,.07,0l1.06.43a.09.09,0,0,1,0,.13A.1.1,0,0,1,56.89,87.78Z"/><path class="cls-11" d="M56.89,83.78h0l-1-.41-1,.41a.11.11,0,0,1-.07-.2l1-.42h.07l1.06.42a.1.1,0,0,1,0,.14A.09.09,0,0,1,56.89,83.78Z"/><path class="cls-11" d="M56.47,80.42h0l-.79-.4-.8.4a.1.1,0,0,1-.14,0,.11.11,0,0,1,.05-.14l.84-.42h.09l.84.42a.11.11,0,0,1,.05.14A.11.11,0,0,1,56.47,80.42Z"/><path class="cls-11" d="M56.05,77.06,56,77l-.58-.38-.57.38a.1.1,0,0,1-.14,0,.09.09,0,0,1,0-.14l.63-.42a.08.08,0,0,1,.11,0l.63.42a.09.09,0,0,1,0,.14A.1.1,0,0,1,56.05,77.06Z"/><path class="cls-11" d="M54.57,75.59a.95.95,0,1,1,1-1A.95.95,0,0,1,54.57,75.59Zm0-1.68a.74.74,0,1,0,.74.73A.73.73,0,0,0,54.57,73.91Z"/><path class="cls-11" d="M53.84,77.58H52.79a.1.1,0,0,1-.11-.1.11.11,0,0,1,.11-.11h1.05a.1.1,0,0,1,.1.11A.09.09,0,0,1,53.84,77.58Z"/><path class="cls-11" d="M53.84,78.22H52.79a.11.11,0,0,1-.11-.11.1.1,0,0,1,.11-.1h1.05a.09.09,0,0,1,.1.1A.1.1,0,0,1,53.84,78.22Z"/><path class="cls-11" d="M53.84,81H52.37a.11.11,0,0,1-.11-.11.1.1,0,0,1,.11-.1h1.47a.09.09,0,0,1,.1.1A.1.1,0,0,1,53.84,81Z"/><path class="cls-11" d="M53.84,84.31H52.16a.11.11,0,0,1-.11-.1.11.11,0,0,1,.11-.11h1.68a.1.1,0,0,1,.1.11A.1.1,0,0,1,53.84,84.31Z"/><path class="cls-11" d="M53.84,84.94H52.16a.11.11,0,0,1-.11-.1.11.11,0,0,1,.11-.11h1.68a.1.1,0,0,1,.1.11A.1.1,0,0,1,53.84,84.94Z"/><path class="cls-11" d="M53.84,85.57H52.16a.11.11,0,0,1-.11-.1.11.11,0,0,1,.11-.11h1.68a.1.1,0,0,1,.1.11A.1.1,0,0,1,53.84,85.57Z"/><path class="cls-11" d="M53.84,86.2H52.16a.11.11,0,0,1-.11-.1.11.11,0,0,1,.11-.11h1.68a.1.1,0,0,1,.1.11A.1.1,0,0,1,53.84,86.2Z"/><path class="cls-11" d="M53.84,86.83H52.16a.1.1,0,0,1-.11-.1.11.11,0,0,1,.11-.11h1.68a.1.1,0,0,1,.1.11A.09.09,0,0,1,53.84,86.83Z"/><path class="cls-11" d="M56.78,84.31H55.1a.11.11,0,0,1-.11-.1.11.11,0,0,1,.11-.11h1.68a.11.11,0,0,1,.11.11A.11.11,0,0,1,56.78,84.31Z"/><path class="cls-11" d="M56.78,84.94H55.1a.11.11,0,0,1-.11-.1.11.11,0,0,1,.11-.11h1.68a.11.11,0,0,1,.11.11A.11.11,0,0,1,56.78,84.94Z"/><path class="cls-11" d="M56.78,85.57H55.1a.11.11,0,0,1-.11-.1.11.11,0,0,1,.11-.11h1.68a.11.11,0,0,1,.11.11A.11.11,0,0,1,56.78,85.57Z"/><path class="cls-11" d="M56.78,86.2H55.1a.11.11,0,0,1-.11-.1A.11.11,0,0,1,55.1,86h1.68a.11.11,0,0,1,.11.11A.11.11,0,0,1,56.78,86.2Z"/><path class="cls-11" d="M56.78,86.83H55.1a.1.1,0,0,1-.11-.1.11.11,0,0,1,.11-.11h1.68a.11.11,0,0,1,.11.11A.1.1,0,0,1,56.78,86.83Z"/><path class="cls-11" d="M53.84,81.58H52.37a.11.11,0,0,1-.11-.11.1.1,0,0,1,.11-.1h1.47a.09.09,0,0,1,.1.1A.1.1,0,0,1,53.84,81.58Z"/><path class="cls-11" d="M53.84,82.21H52.37a.11.11,0,0,1-.11-.11.11.11,0,0,1,.11-.1h1.47a.1.1,0,0,1,.1.1A.1.1,0,0,1,53.84,82.21Z"/><path class="cls-11" d="M53.84,82.84H52.16a.11.11,0,0,1-.11-.11.11.11,0,0,1,.11-.1h1.68a.1.1,0,0,1,.1.1A.1.1,0,0,1,53.84,82.84Z"/><path class="cls-11" d="M56.57,81H55.1a.11.11,0,0,1-.11-.11.1.1,0,0,1,.11-.1h1.47a.1.1,0,0,1,.11.1A.11.11,0,0,1,56.57,81Z"/><path class="cls-11" d="M56.57,81.58H55.1a.11.11,0,0,1-.11-.11.1.1,0,0,1,.11-.1h1.47a.1.1,0,0,1,.11.1A.11.11,0,0,1,56.57,81.58Z"/><path class="cls-11" d="M56.78,82.21H55.1A.11.11,0,0,1,55,82.1a.11.11,0,0,1,.11-.1h1.68a.11.11,0,0,1,.11.1A.11.11,0,0,1,56.78,82.21Z"/><path class="cls-11" d="M56.78,82.84H55.1a.11.11,0,0,1-.11-.11.11.11,0,0,1,.11-.1h1.68a.11.11,0,0,1,.11.1A.11.11,0,0,1,56.78,82.84Z"/><path class="cls-11" d="M53.84,78.85H52.58a.11.11,0,0,1-.11-.11.1.1,0,0,1,.11-.1h1.26a.09.09,0,0,1,.1.1A.1.1,0,0,1,53.84,78.85Z"/><path class="cls-11" d="M53.84,79.48H52.58a.11.11,0,0,1-.11-.11.1.1,0,0,1,.11-.1h1.26a.09.09,0,0,1,.1.1A.1.1,0,0,1,53.84,79.48Z"/><path class="cls-11" d="M56.15,77.58h-1a.1.1,0,0,1-.11-.1.11.11,0,0,1,.11-.11h1a.11.11,0,0,1,.11.11A.1.1,0,0,1,56.15,77.58Z"/><path class="cls-11" d="M56.15,78.22h-1a.11.11,0,0,1-.11-.11.1.1,0,0,1,.11-.1h1a.1.1,0,0,1,.11.1A.11.11,0,0,1,56.15,78.22Z"/><path class="cls-11" d="M56.36,78.85H55.1a.11.11,0,0,1-.11-.11.1.1,0,0,1,.11-.1h1.26a.1.1,0,0,1,.11.1A.11.11,0,0,1,56.36,78.85Z"/><path class="cls-11" d="M56.36,79.48H55.1a.11.11,0,0,1-.11-.11.1.1,0,0,1,.11-.1h1.26a.1.1,0,0,1,.11.1A.11.11,0,0,1,56.36,79.48Z"/><rect class="cls-11" x="52.79" y="83.26" width="0.21" height="0.42"/><rect class="cls-11" x="52.58" y="87.25" width="0.21" height="0.42"/><rect class="cls-11" x="56.15" y="87.25" width="0.21" height="0.42"/><rect class="cls-11" x="53" y="79.9" width="0.21" height="0.42"/><rect class="cls-11" x="53.42" y="76.53" width="0.21" height="0.42"/><rect class="cls-11" x="55.31" y="76.53" width="0.21" height="0.42"/><rect class="cls-11" x="55.73" y="79.9" width="0.21" height="0.42"/><rect class="cls-11" x="55.94" y="83.26" width="0.21" height="0.42"/></g><g id="Tree"><path class="cls-11" d="M27,86.89a.27.27,0,0,1-.12,0l-.4-.27-.41.27a.22.22,0,0,1-.18,0,.22.22,0,0,1-.13-.12l-.17-.46-.48,0a.19.19,0,0,1-.16-.09A.22.22,0,0,1,25,86l.13-.46-.38-.31a.22.22,0,0,1,0-.32l.38-.31L25,84.15A.23.23,0,0,1,25,84a.22.22,0,0,1,.16-.09l.48,0,.17-.45a.21.21,0,0,1,.13-.13.19.19,0,0,1,.18,0l.41.26.4-.26a.19.19,0,0,1,.18,0,.21.21,0,0,1,.13.13l.18.45.48,0a.26.26,0,0,1,.16.09.23.23,0,0,1,0,.18l-.12.46.37.31a.2.2,0,0,1,0,.32l-.37.31.12.46a.21.21,0,0,1-.19.27l-.48,0-.18.46a.22.22,0,0,1-.13.12Zm-.52-.76a.15.15,0,0,1,.11,0l.3.19.13-.34a.22.22,0,0,1,.19-.13l.36,0-.1-.35a.2.2,0,0,1,.08-.21l.27-.23-.27-.22a.22.22,0,0,1-.08-.22l.1-.35-.36,0a.22.22,0,0,1-.19-.13l-.13-.34-.3.2a.24.24,0,0,1-.23,0l-.3-.2-.13.34a.21.21,0,0,1-.18.13l-.36,0,.09.35a.23.23,0,0,1-.07.22l-.28.22.28.23a.21.21,0,0,1,.07.21l-.09.35.36,0A.21.21,0,0,1,26,86l.13.34.3-.19A.19.19,0,0,1,26.52,86.13Z"/><path class="cls-11" d="M26.31,88.3a.21.21,0,0,1-.21-.21V86a.21.21,0,0,1,.21-.21.22.22,0,0,1,.21.21v2.1A.21.21,0,0,1,26.31,88.3Z"/></g><g id="Tree-2" data-name="Tree"><path class="cls-11" d="M42.17,86.89a.27.27,0,0,1-.12,0l-.4-.27-.41.27a.2.2,0,0,1-.17,0,.24.24,0,0,1-.14-.12l-.17-.46-.48,0a.22.22,0,0,1-.16-.09.19.19,0,0,1,0-.18l.12-.46-.37-.31a.2.2,0,0,1,0-.32l.37-.31-.12-.46a.19.19,0,0,1,0-.18.26.26,0,0,1,.16-.09l.48,0,.17-.45a.23.23,0,0,1,.14-.13.17.17,0,0,1,.17,0l.41.26.4-.26a.2.2,0,0,1,.18,0,.21.21,0,0,1,.13.13l.18.45.48,0a.26.26,0,0,1,.16.09.19.19,0,0,1,0,.18l-.12.46.37.31a.2.2,0,0,1,0,.32l-.37.31.12.46a.19.19,0,0,1,0,.18.22.22,0,0,1-.16.09l-.48,0-.18.46a.22.22,0,0,1-.13.12Zm-.52-.76a.15.15,0,0,1,.11,0l.31.19.12-.34a.22.22,0,0,1,.19-.13l.36,0-.09-.35a.18.18,0,0,1,.07-.21l.28-.23-.28-.22a.19.19,0,0,1-.07-.22l.09-.35-.36,0a.22.22,0,0,1-.19-.13l-.12-.34-.31.2a.24.24,0,0,1-.23,0l-.3-.2-.13.34a.21.21,0,0,1-.18.13l-.36,0,.09.35a.21.21,0,0,1-.07.22l-.28.22.28.23a.19.19,0,0,1,.07.21l-.09.35.36,0a.21.21,0,0,1,.18.13l.13.34.3-.19A.19.19,0,0,1,41.65,86.13Z"/><path class="cls-11" d="M41.44,88.3a.21.21,0,0,1-.21-.21V86a.21.21,0,0,1,.42,0v2.1A.21.21,0,0,1,41.44,88.3Z"/></g><g class="cls-13"><g id="Riyadh_building_3" data-name="Riyadh building 3"><path class="cls-11" d="M19.58,66.24H16.43a.11.11,0,0,1-.11-.11.1.1,0,0,1,.11-.1h3.15a.1.1,0,0,1,.11.1A.11.11,0,0,1,19.58,66.24Z"/><path class="cls-11" d="M19.58,66.87H16.43a.11.11,0,0,1-.11-.11.1.1,0,0,1,.11-.1h3.15a.1.1,0,0,1,.11.1A.11.11,0,0,1,19.58,66.87Z"/><path class="cls-11" d="M19.58,67.5H16.43a.11.11,0,0,1-.11-.11.1.1,0,0,1,.11-.1h3.15a.1.1,0,0,1,.11.1A.11.11,0,0,1,19.58,67.5Z"/><path class="cls-11" d="M19.58,68.13H16.43a.11.11,0,0,1-.11-.11.1.1,0,0,1,.11-.1h3.15a.1.1,0,0,1,.11.1A.11.11,0,0,1,19.58,68.13Z"/><path class="cls-11" d="M19.58,68.76H16.43a.11.11,0,0,1-.11-.11.1.1,0,0,1,.11-.1h3.15a.1.1,0,0,1,.11.1A.11.11,0,0,1,19.58,68.76Z"/><path class="cls-11" d="M19.58,69.39H16.43a.11.11,0,0,1-.11-.11.11.11,0,0,1,.11-.1h3.15a.11.11,0,0,1,.11.1A.11.11,0,0,1,19.58,69.39Z"/><path class="cls-11" d="M19.58,70H16.43a.11.11,0,0,1-.11-.11.11.11,0,0,1,.11-.1h3.15a.11.11,0,0,1,.11.1A.11.11,0,0,1,19.58,70Z"/><path class="cls-11" d="M19.58,70.65H16.43a.11.11,0,0,1-.11-.11.11.11,0,0,1,.11-.1h3.15a.11.11,0,0,1,.11.1A.11.11,0,0,1,19.58,70.65Z"/><path class="cls-11" d="M19.58,71.28H16.43a.11.11,0,0,1-.11-.11.11.11,0,0,1,.11-.1h3.15a.11.11,0,0,1,.11.1A.11.11,0,0,1,19.58,71.28Z"/><path class="cls-11" d="M19.58,71.91H16.43a.11.11,0,0,1-.11-.1.11.11,0,0,1,.11-.11h3.15a.11.11,0,0,1,.11.11A.11.11,0,0,1,19.58,71.91Z"/><path class="cls-11" d="M19.58,72.54H16.43a.11.11,0,0,1-.11-.1.11.11,0,0,1,.11-.11h3.15a.11.11,0,0,1,.11.11A.11.11,0,0,1,19.58,72.54Z"/><path class="cls-11" d="M19.58,73.17H16.43a.11.11,0,0,1-.11-.1.11.11,0,0,1,.11-.11h3.15a.11.11,0,0,1,.11.11A.11.11,0,0,1,19.58,73.17Z"/><path class="cls-11" d="M19.58,73.8H16.43a.11.11,0,0,1-.11-.1.11.11,0,0,1,.11-.11h3.15a.11.11,0,0,1,.11.11A.11.11,0,0,1,19.58,73.8Z"/><path class="cls-11" d="M19.58,74.43H16.43a.1.1,0,0,1-.11-.1.11.11,0,0,1,.11-.11h3.15a.11.11,0,0,1,.11.11A.1.1,0,0,1,19.58,74.43Z"/><path class="cls-11" d="M19.58,75.06H16.43a.1.1,0,0,1-.11-.1.11.11,0,0,1,.11-.11h3.15a.11.11,0,0,1,.11.11A.1.1,0,0,1,19.58,75.06Z"/><path class="cls-11" d="M19.58,75.69H16.43a.1.1,0,0,1-.11-.1.11.11,0,0,1,.11-.11h3.15a.11.11,0,0,1,.11.11A.1.1,0,0,1,19.58,75.69Z"/><path class="cls-11" d="M19.58,76.32H16.43a.1.1,0,0,1-.11-.1.11.11,0,0,1,.11-.11h3.15a.11.11,0,0,1,.11.11A.1.1,0,0,1,19.58,76.32Z"/><path class="cls-11" d="M19.58,77H16.43a.1.1,0,0,1-.11-.1.11.11,0,0,1,.11-.11h3.15a.11.11,0,0,1,.11.11A.1.1,0,0,1,19.58,77Z"/><path class="cls-11" d="M19.58,77.58H16.43a.1.1,0,0,1-.11-.1.11.11,0,0,1,.11-.11h3.15a.11.11,0,0,1,.11.11A.1.1,0,0,1,19.58,77.58Z"/><path class="cls-11" d="M19.58,78.22H16.43a.11.11,0,0,1-.11-.11.1.1,0,0,1,.11-.1h3.15a.1.1,0,0,1,.11.1A.11.11,0,0,1,19.58,78.22Z"/><path class="cls-11" d="M19.58,78.85H16.43a.11.11,0,0,1-.11-.11.1.1,0,0,1,.11-.1h3.15a.1.1,0,0,1,.11.1A.11.11,0,0,1,19.58,78.85Z"/><path class="cls-11" d="M19.58,79.48H16.43a.11.11,0,0,1-.11-.11.1.1,0,0,1,.11-.1h3.15a.1.1,0,0,1,.11.1A.11.11,0,0,1,19.58,79.48Z"/><path class="cls-11" d="M19.58,80.11H16.43a.11.11,0,0,1-.11-.11.1.1,0,0,1,.11-.1h3.15a.1.1,0,0,1,.11.1A.11.11,0,0,1,19.58,80.11Z"/><path class="cls-11" d="M19.58,80.74H16.43a.11.11,0,0,1-.11-.11.1.1,0,0,1,.11-.1h3.15a.1.1,0,0,1,.11.1A.11.11,0,0,1,19.58,80.74Z"/><path class="cls-11" d="M19.58,81.37H16.43a.11.11,0,0,1-.11-.11.1.1,0,0,1,.11-.1h3.15a.1.1,0,0,1,.11.1A.11.11,0,0,1,19.58,81.37Z"/><path class="cls-11" d="M19.58,82H16.43a.11.11,0,0,1-.11-.11.11.11,0,0,1,.11-.1h3.15a.11.11,0,0,1,.11.1A.11.11,0,0,1,19.58,82Z"/><path class="cls-11" d="M19.58,82.63H16.43a.11.11,0,0,1-.11-.11.11.11,0,0,1,.11-.1h3.15a.11.11,0,0,1,.11.1A.11.11,0,0,1,19.58,82.63Z"/><path class="cls-11" d="M19.58,83.26H16.43a.11.11,0,0,1-.11-.11.11.11,0,0,1,.11-.1h3.15a.11.11,0,0,1,.11.1A.11.11,0,0,1,19.58,83.26Z"/><path class="cls-11" d="M19.58,83.89H16.43a.11.11,0,0,1-.11-.11.11.11,0,0,1,.11-.1h3.15a.11.11,0,0,1,.11.1A.11.11,0,0,1,19.58,83.89Z"/><path class="cls-11" d="M19.58,84.52H16.43a.11.11,0,0,1-.11-.1.11.11,0,0,1,.11-.11h3.15a.11.11,0,0,1,.11.11A.11.11,0,0,1,19.58,84.52Z"/><path class="cls-11" d="M19.58,85.15H16.43a.11.11,0,0,1-.11-.1.11.11,0,0,1,.11-.11h3.15a.11.11,0,0,1,.11.11A.11.11,0,0,1,19.58,85.15Z"/><path class="cls-11" d="M19.58,85.78H16.43a.11.11,0,0,1-.11-.1.11.11,0,0,1,.11-.11h3.15a.11.11,0,0,1,.11.11A.11.11,0,0,1,19.58,85.78Z"/><path class="cls-11" d="M19.58,86.41H16.43a.11.11,0,0,1-.11-.1.11.11,0,0,1,.11-.11h3.15a.11.11,0,0,1,.11.11A.11.11,0,0,1,19.58,86.41Z"/><path class="cls-11" d="M19.58,87H16.43a.1.1,0,0,1-.11-.1.11.11,0,0,1,.11-.11h3.15a.11.11,0,0,1,.11.11A.1.1,0,0,1,19.58,87Z"/><path class="cls-11" d="M23.57,88.51H13.07a.41.41,0,0,1-.42-.42.42.42,0,0,1,.42-.42h10.5a.42.42,0,0,1,.43.42A.42.42,0,0,1,23.57,88.51Z"/><path class="cls-11" d="M15.59,88.3a.21.21,0,0,1-.21-.21V64.34a.21.21,0,0,1,.21-.21A2.59,2.59,0,0,1,17.89,66a.21.21,0,0,1-.4.15,2.19,2.19,0,0,0-1.69-1.52V88.09A.21.21,0,0,1,15.59,88.3Z"/><path class="cls-11" d="M21.05,88.3a.21.21,0,0,1-.21-.21V64.58a2.21,2.21,0,0,0-1.69,1.52.21.21,0,0,1-.27.12.21.21,0,0,1-.13-.27,2.59,2.59,0,0,1,2.3-1.82.21.21,0,0,1,.21.21V88.09A.21.21,0,0,1,21.05,88.3Z"/><path class="cls-11" d="M19.16,65.61H17.48a.21.21,0,0,1-.21-.21.21.21,0,0,1,.21-.21h1.68a.21.21,0,0,1,.21.21A.21.21,0,0,1,19.16,65.61Z"/><path class="cls-11" d="M18.32,65.29h0a.09.09,0,0,1-.07-.13A1.54,1.54,0,0,1,19.92,64a.1.1,0,0,1,.08.1v.42a.1.1,0,0,1-.1.11.11.11,0,0,1-.11-.11v-.32a1.3,1.3,0,0,0-1.37,1A.11.11,0,0,1,18.32,65.29Z"/><path class="cls-11" d="M18.32,65.29a.12.12,0,0,1-.1-.07,1.3,1.3,0,0,0-1.37-1v.32a.11.11,0,0,1-.11.11.11.11,0,0,1-.1-.11v-.42a.11.11,0,0,1,.09-.1,1.53,1.53,0,0,1,1.69,1.12.09.09,0,0,1-.07.13Z"/><path class="cls-11" d="M16.64,64.55a.21.21,0,0,1-.21-.21V61a.21.21,0,0,1,.42,0v3.36A.21.21,0,0,1,16.64,64.55Z"/><path class="cls-11" d="M20,64.55a.21.21,0,0,1-.21-.21V61a.22.22,0,0,1,.21-.21.21.21,0,0,1,.21.21v3.36A.21.21,0,0,1,20,64.55Z"/><path class="cls-11" d="M18.22,87.78a.11.11,0,0,1-.11-.11c0-12.88-.42-22.18-.42-22.27a.1.1,0,0,1,.1-.11.11.11,0,0,1,.11.1c0,.09.42,9.4.42,22.28A.11.11,0,0,1,18.22,87.78Z"/><path class="cls-11" d="M18.64,87.78a.11.11,0,0,1-.11-.11c0-12.88.42-22.19.42-22.28a.11.11,0,0,1,.11-.1.1.1,0,0,1,.1.11c0,.09-.42,9.39-.42,22.27A.11.11,0,0,1,18.64,87.78Z"/><path class="cls-11" d="M16.85,65.61h-.42a.11.11,0,0,1-.11-.11.1.1,0,0,1,.11-.1h.42a.09.09,0,0,1,.1.1A.1.1,0,0,1,16.85,65.61Z"/></g></g><g class="cls-14"><g id="Riyadh_building_4" data-name="Riyadh building 4"><path class="cls-11" d="M34.08,88.51H19a.42.42,0,0,1-.42-.42.42.42,0,0,1,.42-.42H34.08a.42.42,0,0,1,.42.42A.41.41,0,0,1,34.08,88.51Z"/><path class="cls-11" d="M22.79,88.3a.21.21,0,0,1-.18-.09.21.21,0,0,1,.06-.29l3.09-2L26,81.36l-.2-5L26,71.27l-.21-5v0l.63-9.46a.21.21,0,0,1,.21-.19h1.26a.22.22,0,0,1,.21.15l.63,2.4.64-2.4a.21.21,0,0,1,.2-.15h1.27a.21.21,0,0,1,.21.19l.63,9.46v0l-.21,5.05.21,5-.27,5.06.16,4.6v2.11a.21.21,0,1,1-.42,0V86L31,81.38l.27-5.07-.21-5,.21-5.05L30.63,57h-.9l-.8,3a.22.22,0,0,1-.21.15.21.21,0,0,1-.2-.15l-.8-3h-.9l-.62,9.25.21,5-.21,5.06.2,5L26.18,86a.23.23,0,0,1-.1.17l-3.18,2.1A.2.2,0,0,1,22.79,88.3Z"/><path class="cls-11" d="M28.41,86.83c-.06,0-.1-.09-.11-.15l-.21-5.28.21-5.07-.21-5,.21-5.06-.21-4.4-.36-4.62a.1.1,0,0,1,.09-.12.12.12,0,0,1,.12.1l.36,4.62.21,4.42-.21,5,.21,5-.21,5.05.21,5.3c0,.06,0,0-.1.16Z"/><path class="cls-11" d="M29,86.83h0c-.05-.21-.1-.1-.1-.16l.21-5.28-.21-5,.21-5.06-.21-5,.21-4.42.37-4.63a.12.12,0,0,1,.12-.1.11.11,0,0,1,.09.12l-.37,4.62-.21,4.41.21,5-.21,5,.21,5-.21,5.32C29.14,86.74,29.1,86.83,29,86.83Z"/><path class="cls-11" d="M26,66.34h0a.1.1,0,0,1-.06-.13L28,61.15a.1.1,0,0,1,.13-.06.11.11,0,0,1,.06.14l-2.1,5.05A.11.11,0,0,1,26,66.34Z"/><path class="cls-11" d="M26,86.1h0A.1.1,0,0,1,25.9,86L28,81.53a.11.11,0,0,1,.14,0,.11.11,0,0,1,.05.14L26.09,86A.13.13,0,0,1,26,86.1Z"/><path class="cls-11" d="M26,76.43h0a.11.11,0,0,1-.06-.14l2.11-5a.1.1,0,0,1,.13-.06.11.11,0,0,1,.06.14l-2.1,5A.12.12,0,0,1,26,76.43Z"/><path class="cls-11" d="M28.09,71.38a.09.09,0,0,1-.09-.06l-2.11-5a.11.11,0,0,1,.06-.14.11.11,0,0,1,.14.06l2.1,5a.11.11,0,0,1-.06.14Z"/><path class="cls-11" d="M28.09,81.47a.09.09,0,0,1-.09-.06l-2.11-5a.1.1,0,0,1,.06-.13.11.11,0,0,1,.14,0l2.1,5a.1.1,0,0,1-.06.13Z"/><path class="cls-11" d="M31.46,66.34a.1.1,0,0,1-.1-.06l-2.1-5.05a.11.11,0,0,1,0-.14.11.11,0,0,1,.14.06l2.1,5.05a.09.09,0,0,1-.05.13Z"/><path class="cls-11" d="M31.46,86.1a.13.13,0,0,1-.1-.06l-2.1-4.42a.11.11,0,0,1,0-.14.11.11,0,0,1,.14,0L31.55,86a.11.11,0,0,1-.05.14Z"/><path class="cls-11" d="M31.46,76.43a.11.11,0,0,1-.1-.07l-2.1-5a.11.11,0,0,1,0-.14.11.11,0,0,1,.14.06l2.1,5a.1.1,0,0,1-.05.14Z"/><path class="cls-11" d="M29.35,71.38h0a.11.11,0,0,1,0-.14l2.1-5a.1.1,0,0,1,.14-.06.1.1,0,0,1,.05.14l-2.1,5A.1.1,0,0,1,29.35,71.38Z"/><path class="cls-11" d="M29.35,81.47h0a.1.1,0,0,1,0-.13l2.1-5a.11.11,0,0,1,.14,0,.09.09,0,0,1,.05.13l-2.1,5A.1.1,0,0,1,29.35,81.47Z"/><path class="cls-11" d="M28.2,66.45H26.1a.11.11,0,0,1-.11-.11.1.1,0,0,1,.11-.1h2.1a.09.09,0,0,1,.1.1A.1.1,0,0,1,28.2,66.45Z"/><path class="cls-11" d="M31.14,66.45H29a.11.11,0,0,1-.11-.11.1.1,0,0,1,.11-.1h2.1a.1.1,0,0,1,.11.1A.11.11,0,0,1,31.14,66.45Z"/><path class="cls-11" d="M28,71.49H26.1a.11.11,0,0,1-.11-.11.11.11,0,0,1,.11-.1H28a.1.1,0,0,1,.1.1A.1.1,0,0,1,28,71.49Z"/><path class="cls-11" d="M28,81.58H26.1a.11.11,0,0,1-.11-.11.1.1,0,0,1,.11-.1H28a.09.09,0,0,1,.1.1A.1.1,0,0,1,28,81.58Z"/><path class="cls-11" d="M31.14,81.58H29.25a.11.11,0,0,1-.11-.11.1.1,0,0,1,.11-.1h1.89a.1.1,0,0,1,.11.1A.11.11,0,0,1,31.14,81.58Z"/><path class="cls-11" d="M31.14,71.49H29.25a.11.11,0,0,1-.11-.11.11.11,0,0,1,.11-.1h1.89a.11.11,0,0,1,.11.1A.11.11,0,0,1,31.14,71.49Z"/><path class="cls-11" d="M28.2,76.53H26.1a.1.1,0,0,1-.11-.1.11.11,0,0,1,.11-.11h2.1a.1.1,0,0,1,.1.11A.09.09,0,0,1,28.2,76.53Z"/><path class="cls-11" d="M31.14,76.53H29a.1.1,0,0,1-.11-.1.11.11,0,0,1,.11-.11h2.1a.11.11,0,0,1,.11.11A.1.1,0,0,1,31.14,76.53Z"/><path class="cls-11" d="M28.3,86.83h-.05l-2.31-.63a.2.2,0,0,1-.15-.25.2.2,0,0,1,.26-.15l2.31.63a.21.21,0,0,1-.06.41Z"/><path class="cls-11" d="M29.06,86.83a.21.21,0,0,1-.06-.41l2.31-.63a.21.21,0,0,1,.26.15.2.2,0,0,1-.15.25l-2.31.63Z"/><path class="cls-11" d="M28.41,88a.1.1,0,0,1-.1-.07l-.42-1.26a.11.11,0,0,1,.07-.14.1.1,0,0,1,.13.07l.42,1.26a.1.1,0,0,1-.07.13Z"/><path class="cls-11" d="M26,88a.1.1,0,0,1-.1-.11V86a.09.09,0,0,1,.1-.1.1.1,0,0,1,.11.1v1.89A.11.11,0,0,1,26,88Z"/><path class="cls-11" d="M29,88h0a.1.1,0,0,1-.07-.13l.42-1.26a.1.1,0,0,1,.13-.07.11.11,0,0,1,.07.14l-.42,1.26A.12.12,0,0,1,29,88Z"/><path class="cls-11" d="M21.79,88.09a.21.21,0,0,1-.21-.19l-.21-2.1a.19.19,0,0,1,.05-.16.21.21,0,0,1,.15-.07L26,85.36a.21.21,0,0,1,.22.2.2.2,0,0,1-.2.22l-4.19.2L22,87.86a.21.21,0,0,1-.19.23Z"/><path class="cls-11" d="M29,86.83H28.2a.1.1,0,0,1-.11-.1.11.11,0,0,1,.11-.11H29a.1.1,0,0,1,.1.11A.09.09,0,0,1,29,86.83Z"/><path class="cls-11" d="M29,58.25H28.2a.11.11,0,0,1-.11-.11.11.11,0,0,1,.11-.1H29a.1.1,0,0,1,.1.1A.1.1,0,0,1,29,58.25Z"/></g></g><g class="cls-15"><g id="Riyadh_building_2" data-name="Riyadh building 2"><path class="cls-11" d="M36.39,64.13H35.13A.1.1,0,0,1,35,64a.11.11,0,0,1,.1-.11h1.26a.11.11,0,0,1,.11.11A.1.1,0,0,1,36.39,64.13Z"/><path class="cls-11" d="M36.61,65H35.34a.1.1,0,0,1-.1-.1.11.11,0,0,1,.1-.11h1.27a.11.11,0,0,1,.1.11A.1.1,0,0,1,36.61,65Z"/><path class="cls-11" d="M36.82,65.82H35.55a.11.11,0,0,1-.1-.11.1.1,0,0,1,.1-.1h1.27a.1.1,0,0,1,.1.1A.11.11,0,0,1,36.82,65.82Z"/><path class="cls-11" d="M37,66.66H36a.11.11,0,0,1-.1-.11.1.1,0,0,1,.1-.1H37a.1.1,0,0,1,.1.1A.11.11,0,0,1,37,66.66Z"/><path class="cls-11" d="M37.24,67.5H36.18a.11.11,0,0,1-.1-.11.1.1,0,0,1,.1-.1h1.06a.1.1,0,0,1,.1.1A.11.11,0,0,1,37.24,67.5Z"/><path class="cls-11" d="M35.13,87.25H34.08a.1.1,0,0,1-.1-.1.11.11,0,0,1,.1-.11h1.05a.11.11,0,0,1,.11.11A.1.1,0,0,1,35.13,87.25Z"/><path class="cls-11" d="M34.92,86.62h-.84a.11.11,0,0,1-.1-.1.11.11,0,0,1,.1-.11h.84a.11.11,0,0,1,.11.11A.11.11,0,0,1,34.92,86.62Z"/><path class="cls-11" d="M34.71,86h-.63a.11.11,0,0,1-.1-.1.11.11,0,0,1,.1-.11h.63a.11.11,0,0,1,.11.11A.11.11,0,0,1,34.71,86Z"/><path class="cls-11" d="M34.5,85.36h-.42a.11.11,0,0,1-.1-.1.11.11,0,0,1,.1-.11h.42a.11.11,0,0,1,.11.11A.11.11,0,0,1,34.5,85.36Z"/><path class="cls-11" d="M34.29,84.73h-.21a.11.11,0,0,1-.1-.1.11.11,0,0,1,.1-.11h.21a.11.11,0,0,1,.11.11A.11.11,0,0,1,34.29,84.73Z"/><path class="cls-11" d="M37.45,68.34H36.39a.11.11,0,0,1-.1-.11.1.1,0,0,1,.1-.1h1.06a.1.1,0,0,1,.1.1A.11.11,0,0,1,37.45,68.34Z"/><path class="cls-11" d="M37.66,69.18h-1a.11.11,0,0,1-.11-.11.11.11,0,0,1,.11-.1h1a.11.11,0,0,1,.1.1A.11.11,0,0,1,37.66,69.18Z"/><path class="cls-11" d="M37.87,70H37a.11.11,0,0,1-.11-.11.11.11,0,0,1,.11-.1h.84a.11.11,0,0,1,.1.1A.11.11,0,0,1,37.87,70Z"/><path class="cls-11" d="M37.87,70.86h-.63a.11.11,0,0,1-.11-.11.11.11,0,0,1,.11-.1h.63a.11.11,0,0,1,.1.1A.11.11,0,0,1,37.87,70.86Z"/><path class="cls-11" d="M37.87,71.7h-.42a.11.11,0,0,1-.11-.1.11.11,0,0,1,.11-.11h.42a.11.11,0,0,1,.1.11A.11.11,0,0,1,37.87,71.7Z"/><path class="cls-11" d="M41.23,88.51H31.14a.42.42,0,0,1-.42-.42.42.42,0,0,1,.42-.42H41.23a.42.42,0,0,1,.42.42A.42.42,0,0,1,41.23,88.51Z"/><path class="cls-11" d="M38.29,88.3H34.08a.21.21,0,0,1-.21-.21v-25a.22.22,0,0,1,.21-.21h4.21a.22.22,0,0,1,.21.21v25A.21.21,0,0,1,38.29,88.3Zm-4-.42h3.79V63.29H34.29Z"/><path class="cls-11" d="M38.26,73.75a.21.21,0,0,1-.2-.15L34.62,63.15a.21.21,0,0,1,.13-.27A.23.23,0,0,1,35,63l3.44,10.45a.21.21,0,0,1-.13.27Z"/><path class="cls-11" d="M36.08,87.88a.2.2,0,0,1-.2-.14L34,81.85a.2.2,0,0,1,.13-.26.21.21,0,0,1,.27.13l1.89,5.89a.2.2,0,0,1-.14.26Z"/><path class="cls-11" d="M34.92,79.69h-.84a.22.22,0,0,1-.21-.21.21.21,0,0,1,.21-.21h.84a.21.21,0,0,1,.21.21A.21.21,0,0,1,34.92,79.69Z"/><path class="cls-11" d="M36,79.06h-.63a.22.22,0,0,1-.21-.21.21.21,0,0,1,.21-.21H36a.21.21,0,0,1,.21.21A.21.21,0,0,1,36,79.06Z"/><path class="cls-11" d="M38.08,79.06h-.84a.21.21,0,0,1-.21-.21.21.21,0,0,1,.21-.21h.84a.21.21,0,0,1,.21.21A.22.22,0,0,1,38.08,79.06Z"/><path class="cls-11" d="M34.71,78.43h-.42a.22.22,0,0,1-.21-.21.21.21,0,0,1,.21-.21h.42a.21.21,0,0,1,.21.21A.21.21,0,0,1,34.71,78.43Z"/><path class="cls-11" d="M36.82,78.43h-.64a.22.22,0,0,1-.21-.21.21.21,0,0,1,.21-.21h.64a.21.21,0,0,1,.21.21A.22.22,0,0,1,36.82,78.43Z"/><path class="cls-11" d="M36.61,79.69h-.43a.22.22,0,0,1-.21-.21.21.21,0,0,1,.21-.21h.43a.21.21,0,0,1,.21.21A.22.22,0,0,1,36.61,79.69Z"/><path class="cls-11" d="M34.71,75.06h-.63a.21.21,0,0,1-.21-.21.22.22,0,0,1,.21-.21h.63a.21.21,0,0,1,.21.21A.21.21,0,0,1,34.71,75.06Z"/><path class="cls-11" d="M34.71,67.71h-.63a.22.22,0,0,1-.21-.21.21.21,0,0,1,.21-.21h.63a.21.21,0,0,1,.21.21A.21.21,0,0,1,34.71,67.71Z"/><path class="cls-11" d="M35.76,74.43h-.42a.21.21,0,0,1-.21-.21.22.22,0,0,1,.21-.21h.42a.21.21,0,0,1,.21.21A.21.21,0,0,1,35.76,74.43Z"/><path class="cls-11" d="M38.08,74.43H37a.21.21,0,0,1-.21-.21A.21.21,0,0,1,37,74h1a.22.22,0,0,1,.21.21A.21.21,0,0,1,38.08,74.43Z"/><path class="cls-11" d="M34.92,73.8h-.63a.21.21,0,0,1-.21-.21.22.22,0,0,1,.21-.21h.63a.21.21,0,0,1,.21.21A.21.21,0,0,1,34.92,73.8Z"/><path class="cls-11" d="M35.34,69H34.08a.22.22,0,0,1-.21-.21.21.21,0,0,1,.21-.21h1.26a.21.21,0,0,1,.21.21A.21.21,0,0,1,35.34,69Z"/><path class="cls-11" d="M36.61,73.8H36a.21.21,0,0,1-.21-.21.22.22,0,0,1,.21-.21h.64a.22.22,0,0,1,.21.21A.21.21,0,0,1,36.61,73.8Z"/><path class="cls-11" d="M36.82,75.06h-.43a.21.21,0,0,1-.21-.21.22.22,0,0,1,.21-.21h.43a.22.22,0,0,1,.21.21A.21.21,0,0,1,36.82,75.06Z"/><path class="cls-11" d="M35.76,83.47h-1a.11.11,0,0,1-.1-.11.11.11,0,0,1,.1-.1h1a.11.11,0,0,1,.11.1A.11.11,0,0,1,35.76,83.47Z"/><path class="cls-11" d="M35.76,80.53h-1a.11.11,0,0,1-.1-.11.1.1,0,0,1,.1-.1h1a.1.1,0,0,1,.11.1A.11.11,0,0,1,35.76,80.53Z"/><path class="cls-11" d="M36.18,82.21h-1a.11.11,0,0,1-.1-.11.11.11,0,0,1,.1-.1h1a.11.11,0,0,1,.11.1A.11.11,0,0,1,36.18,82.21Z"/><path class="cls-11" d="M38.08,81H37a.11.11,0,0,1-.11-.11.1.1,0,0,1,.11-.1h1a.1.1,0,0,1,.1.1A.11.11,0,0,1,38.08,81Z"/><path class="cls-11" d="M35.76,77.16h-1a.1.1,0,0,1-.1-.1.11.11,0,0,1,.1-.11h1a.11.11,0,0,1,.11.11A.1.1,0,0,1,35.76,77.16Z"/><path class="cls-11" d="M35.76,75.69h-1a.1.1,0,0,1-.1-.1.11.11,0,0,1,.1-.11h1a.11.11,0,0,1,.11.11A.1.1,0,0,1,35.76,75.69Z"/><path class="cls-11" d="M37,76.32H36a.1.1,0,0,1-.1-.1.11.11,0,0,1,.1-.11H37a.11.11,0,0,1,.1.11A.1.1,0,0,1,37,76.32Z"/><path class="cls-11" d="M38.08,75.48H37a.1.1,0,0,1-.11-.1.11.11,0,0,1,.11-.11h1a.11.11,0,0,1,.1.11A.1.1,0,0,1,38.08,75.48Z"/><path class="cls-11" d="M35.13,71.49H34.08a.11.11,0,0,1-.1-.11.11.11,0,0,1,.1-.1h1.05a.11.11,0,0,1,.11.1A.11.11,0,0,1,35.13,71.49Z"/><path class="cls-11" d="M37.87,73h-1a.11.11,0,0,1-.11-.1.11.11,0,0,1,.11-.11h1a.11.11,0,0,1,.1.11A.11.11,0,0,1,37.87,73Z"/><path class="cls-11" d="M38.08,83.89h-.84a.11.11,0,0,1-.11-.11.11.11,0,0,1,.11-.1h.84a.11.11,0,0,1,.1.1A.11.11,0,0,1,38.08,83.89Z"/><path class="cls-11" d="M36.82,82.84H36a.11.11,0,0,1-.1-.11.11.11,0,0,1,.1-.1h.85a.11.11,0,0,1,.1.1A.11.11,0,0,1,36.82,82.84Z"/><path class="cls-11" d="M36.18,81.16h-.84a.11.11,0,0,1-.1-.11.1.1,0,0,1,.1-.1h.84a.1.1,0,0,1,.11.1A.11.11,0,0,1,36.18,81.16Z"/><path class="cls-11" d="M37.87,80.32H37a.11.11,0,0,1-.11-.11.1.1,0,0,1,.11-.1h.84a.1.1,0,0,1,.1.1A.11.11,0,0,1,37.87,80.32Z"/><path class="cls-11" d="M34.92,81.58h-.84a.11.11,0,0,1-.1-.11.1.1,0,0,1,.1-.1h.84a.1.1,0,0,1,.11.1A.11.11,0,0,1,34.92,81.58Z"/><path class="cls-11" d="M37.66,77.16h-.84a.1.1,0,0,1-.11-.1.11.11,0,0,1,.11-.11h.84a.11.11,0,0,1,.1.11A.1.1,0,0,1,37.66,77.16Z"/><path class="cls-11" d="M35.13,76.53h-.84a.1.1,0,0,1-.1-.1.11.11,0,0,1,.1-.11h.84a.11.11,0,0,1,.11.11A.1.1,0,0,1,35.13,76.53Z"/><path class="cls-11" d="M35.55,70h-.84a.11.11,0,0,1-.1-.11.11.11,0,0,1,.1-.1h.84a.11.11,0,0,1,.11.1A.11.11,0,0,1,35.55,70Z"/><path class="cls-11" d="M36.61,71.07h-.85a.11.11,0,0,1-.1-.11.11.11,0,0,1,.1-.1h.85a.11.11,0,0,1,.1.1A.11.11,0,0,1,36.61,71.07Z"/><path class="cls-11" d="M35.55,73h-.84a.11.11,0,0,1-.1-.1.11.11,0,0,1,.1-.11h.84a.11.11,0,0,1,.11.11A.11.11,0,0,1,35.55,73Z"/><path class="cls-11" d="M37.45,71.91h-.63a.11.11,0,0,1-.11-.1.11.11,0,0,1,.11-.11h.63a.11.11,0,0,1,.1.11A.11.11,0,0,1,37.45,71.91Z"/><path class="cls-11" d="M35.34,82.84h-.42a.11.11,0,0,1-.1-.11.11.11,0,0,1,.1-.1h.42a.11.11,0,0,1,.11.1A.11.11,0,0,1,35.34,82.84Z"/><path class="cls-11" d="M37.87,83.05h-.42a.11.11,0,0,1-.11-.11.11.11,0,0,1,.11-.1h.42a.11.11,0,0,1,.1.1A.11.11,0,0,1,37.87,83.05Z"/><path class="cls-11" d="M38.08,76.32h-.42a.1.1,0,0,1-.11-.1.11.11,0,0,1,.11-.11h.42a.11.11,0,0,1,.1.11A.1.1,0,0,1,38.08,76.32Z"/><path class="cls-11" d="M36.82,83.89h-.43a.11.11,0,0,1-.1-.11.11.11,0,0,1,.1-.1h.43a.11.11,0,0,1,.1.1A.11.11,0,0,1,36.82,83.89Z"/><path class="cls-11" d="M35.76,84.31h-.42a.11.11,0,0,1-.1-.1.11.11,0,0,1,.1-.11h.42a.11.11,0,0,1,.11.11A.11.11,0,0,1,35.76,84.31Z"/><path class="cls-11" d="M37.24,84.73h-.42a.11.11,0,0,1-.11-.1.11.11,0,0,1,.11-.11h.42a.11.11,0,0,1,.1.11A.11.11,0,0,1,37.24,84.73Z"/><path class="cls-11" d="M37.24,82h-.42a.11.11,0,0,1-.11-.11.11.11,0,0,1,.11-.1h.42a.11.11,0,0,1,.1.1A.11.11,0,0,1,37.24,82Z"/><path class="cls-11" d="M38.08,81.58h-.42a.11.11,0,0,1-.11-.11.1.1,0,0,1,.11-.1h.42a.1.1,0,0,1,.1.1A.11.11,0,0,1,38.08,81.58Z"/><path class="cls-11" d="M36.18,84.94h-.42a.11.11,0,0,1-.1-.1.11.11,0,0,1,.1-.11h.42a.11.11,0,0,1,.11.11A.11.11,0,0,1,36.18,84.94Z"/><path class="cls-11" d="M36.82,86.41h-.43a.11.11,0,0,1-.1-.1.11.11,0,0,1,.1-.11h.43a.11.11,0,0,1,.1.11A.11.11,0,0,1,36.82,86.41Z"/><path class="cls-11" d="M37.24,85.57h-.42a.11.11,0,0,1-.11-.1.11.11,0,0,1,.11-.11h.42a.11.11,0,0,1,.1.11A.11.11,0,0,1,37.24,85.57Z"/><path class="cls-11" d="M38.08,86h-.42a.11.11,0,0,1-.11-.1.11.11,0,0,1,.11-.11h.42a.11.11,0,0,1,.1.11A.11.11,0,0,1,38.08,86Z"/><path class="cls-11" d="M38.29,84.52h-.42a.11.11,0,0,1-.11-.1.11.11,0,0,1,.11-.11h.42a.11.11,0,0,1,.1.11A.11.11,0,0,1,38.29,84.52Z"/><path class="cls-11" d="M37.87,78h-.42a.11.11,0,0,1-.11-.11.1.1,0,0,1,.11-.1h.42a.1.1,0,0,1,.1.1A.11.11,0,0,1,37.87,78Z"/><path class="cls-11" d="M34.5,77.58h-.42a.1.1,0,0,1-.1-.1.11.11,0,0,1,.1-.11h.42a.11.11,0,0,1,.11.11A.1.1,0,0,1,34.5,77.58Z"/><path class="cls-11" d="M36,77.8h-.42a.11.11,0,0,1,0-.22H36a.11.11,0,0,1,0,.22Z"/><path class="cls-11" d="M35.13,70.65h-.42a.11.11,0,0,1-.1-.11.11.11,0,0,1,.1-.1h.42a.11.11,0,0,1,.11.1A.11.11,0,0,1,35.13,70.65Z"/><path class="cls-11" d="M34.71,72.33h-.42a.11.11,0,0,1-.1-.1.11.11,0,0,1,.1-.11h.42a.11.11,0,0,1,.11.11A.11.11,0,0,1,34.71,72.33Z"/><path class="cls-11" d="M36,72.12h-.42a.11.11,0,0,1-.1-.1.11.11,0,0,1,.1-.11H36a.11.11,0,0,1,.11.11A.11.11,0,0,1,36,72.12Z"/><path class="cls-11" d="M36.39,70.23H36a.11.11,0,0,1-.1-.11A.11.11,0,0,1,36,70h.42a.11.11,0,0,1,.11.1A.11.11,0,0,1,36.39,70.23Z"/><path class="cls-11" d="M34.92,65.4H34.5a.11.11,0,0,1-.1-.11.1.1,0,0,1,.1-.1h.42a.1.1,0,0,1,.11.1A.11.11,0,0,1,34.92,65.4Z"/><path class="cls-11" d="M35.55,66h-.42a.11.11,0,0,1-.1-.11.1.1,0,0,1,.1-.1h.42a.1.1,0,0,1,.11.1A.11.11,0,0,1,35.55,66Z"/><path class="cls-11" d="M35.13,66.66h-.42a.11.11,0,0,1-.1-.11.1.1,0,0,1,.1-.1h.42a.1.1,0,0,1,.11.1A.11.11,0,0,1,35.13,66.66Z"/><path class="cls-11" d="M36,67.5h-.63a.11.11,0,0,1-.1-.11.1.1,0,0,1,.1-.1H36a.1.1,0,0,1,.11.1A.11.11,0,0,1,36,67.5Z"/><path class="cls-11" d="M35.34,68.13h-.42a.11.11,0,0,1-.1-.11.1.1,0,0,1,.1-.1h.42a.1.1,0,0,1,.11.1A.11.11,0,0,1,35.34,68.13Z"/><path class="cls-11" d="M36.39,68.76H36a.11.11,0,0,1-.1-.11.1.1,0,0,1,.1-.1h.42a.1.1,0,0,1,.11.1A.11.11,0,0,1,36.39,68.76Z"/></g></g><g class="cls-16"><g id="Riyadh_building_1" data-name="Riyadh building 1"><path class="cls-11" d="M44.07,87.78a.11.11,0,0,1-.11-.11V71.28a.11.11,0,0,1,.11-.11.11.11,0,0,1,.1.11V87.67A.11.11,0,0,1,44.07,87.78Z"/><path class="cls-11" d="M51.53,88.51H40.6a.42.42,0,0,1-.42-.42.42.42,0,0,1,.42-.42H51.53a.42.42,0,0,1,.42.42A.42.42,0,0,1,51.53,88.51Z"/><path class="cls-11" d="M49.22,88.3a.21.21,0,0,1-.22-.21V64.76H43.12V88.09a.21.21,0,1,1-.42,0V64.55a.21.21,0,0,1,.21-.21h6.31a.22.22,0,0,1,.21.21V88.09A.21.21,0,0,1,49.22,88.3Z"/><path class="cls-11" d="M46.17,72.33c-1.34,0-2.11-5.13-2.31-6.7A.2.2,0,0,1,44,65.4a12.66,12.66,0,0,1,2.15-.21,12.33,12.33,0,0,1,2.14.21.21.21,0,0,1,.17.23C48.28,67.2,47.51,72.33,46.17,72.33ZM44.3,65.78c.4,3,1.22,6.13,1.87,6.13s1.46-3.15,1.86-6.13a11.69,11.69,0,0,0-1.86-.17A11.84,11.84,0,0,0,44.3,65.78Z"/><path class="cls-11" d="M44.07,65.71a.11.11,0,0,1-.09,0l-.63-1a.11.11,0,0,1,0-.15.11.11,0,0,1,.15,0l.63,1a.11.11,0,0,1,0,.15Z"/><path class="cls-11" d="M48.27,65.71h-.05a.11.11,0,0,1,0-.15l.63-1a.1.1,0,0,1,.14,0,.11.11,0,0,1,0,.15l-.63,1A.12.12,0,0,1,48.27,65.71Z"/><path class="cls-11" d="M46.17,73.7c-1.85,0-3-8.11-3.13-9a.11.11,0,1,1,.21,0c.33,2.47,1.51,8.86,2.92,8.86s2.58-6.39,2.91-8.86a.11.11,0,0,1,.21,0C49.17,65.59,48,73.7,46.17,73.7Z"/><path class="cls-11" d="M44.8,73.59h-.63a.1.1,0,0,1-.1-.1.1.1,0,0,1,.1-.11h.63a.11.11,0,0,1,.11.11A.11.11,0,0,1,44.8,73.59Z"/><path class="cls-11" d="M44.59,73h-.42a.1.1,0,0,1-.1-.1.1.1,0,0,1,.1-.11h.42a.11.11,0,0,1,.11.11A.11.11,0,0,1,44.59,73Z"/><path class="cls-11" d="M44.8,74.22h-.63a.09.09,0,0,1-.1-.1.1.1,0,0,1,.1-.11h.63a.11.11,0,0,1,.11.11A.1.1,0,0,1,44.8,74.22Z"/><path class="cls-11" d="M44.8,74.85h-.63a.09.09,0,0,1-.1-.1.1.1,0,0,1,.1-.11h.63a.11.11,0,0,1,.11.11A.1.1,0,0,1,44.8,74.85Z"/><path class="cls-11" d="M44.8,75.48h-.63a.09.09,0,0,1-.1-.1.1.1,0,0,1,.1-.11h.63a.11.11,0,0,1,.11.11A.1.1,0,0,1,44.8,75.48Z"/><path class="cls-11" d="M44.8,76.11h-.63a.09.09,0,0,1-.1-.1.1.1,0,0,1,.1-.11h.63a.11.11,0,0,1,.11.11A.1.1,0,0,1,44.8,76.11Z"/><path class="cls-11" d="M44.8,76.74h-.63a.09.09,0,0,1-.1-.1.1.1,0,0,1,.1-.11h.63a.11.11,0,0,1,.11.11A.1.1,0,0,1,44.8,76.74Z"/><path class="cls-11" d="M44.8,77.37h-.63a.09.09,0,0,1-.1-.1.1.1,0,0,1,.1-.11h.63a.11.11,0,0,1,.11.11A.1.1,0,0,1,44.8,77.37Z"/><path class="cls-11" d="M44.8,78h-.63a.1.1,0,0,1-.1-.11.09.09,0,0,1,.1-.1h.63a.1.1,0,0,1,.11.1A.11.11,0,0,1,44.8,78Z"/><path class="cls-11" d="M44.8,78.64h-.63a.1.1,0,0,1-.1-.11.09.09,0,0,1,.1-.1h.63a.1.1,0,0,1,.11.1A.11.11,0,0,1,44.8,78.64Z"/><path class="cls-11" d="M44.8,79.27h-.63a.1.1,0,0,1-.1-.11.09.09,0,0,1,.1-.1h.63a.1.1,0,0,1,.11.1A.11.11,0,0,1,44.8,79.27Z"/><path class="cls-11" d="M44.8,79.9h-.63a.1.1,0,0,1-.1-.11.09.09,0,0,1,.1-.1h.63a.1.1,0,0,1,.11.1A.11.11,0,0,1,44.8,79.9Z"/><path class="cls-11" d="M44.8,80.53h-.63a.1.1,0,0,1-.1-.11.09.09,0,0,1,.1-.1h.63a.1.1,0,0,1,.11.1A.11.11,0,0,1,44.8,80.53Z"/><path class="cls-11" d="M44.8,81.16h-.63a.1.1,0,0,1-.1-.11.09.09,0,0,1,.1-.1h.63a.1.1,0,0,1,.11.1A.11.11,0,0,1,44.8,81.16Z"/><path class="cls-11" d="M44.8,81.79h-.63a.1.1,0,0,1-.1-.11.1.1,0,0,1,.1-.1h.63a.11.11,0,0,1,.11.1A.11.11,0,0,1,44.8,81.79Z"/><path class="cls-11" d="M44.8,82.42h-.63a.1.1,0,0,1-.1-.11.1.1,0,0,1,.1-.1h.63a.11.11,0,0,1,.11.1A.11.11,0,0,1,44.8,82.42Z"/><path class="cls-11" d="M44.8,83.05h-.63a.1.1,0,0,1-.1-.11.1.1,0,0,1,.1-.1h.63a.11.11,0,0,1,.11.1A.11.11,0,0,1,44.8,83.05Z"/><path class="cls-11" d="M44.8,83.68h-.63a.1.1,0,0,1-.1-.11.1.1,0,0,1,.1-.1h.63a.11.11,0,0,1,.11.1A.11.11,0,0,1,44.8,83.68Z"/><path class="cls-11" d="M44.8,84.31h-.63a.1.1,0,0,1-.1-.1.1.1,0,0,1,.1-.11h.63a.11.11,0,0,1,.11.11A.11.11,0,0,1,44.8,84.31Z"/><path class="cls-11" d="M44.8,84.94h-.63a.1.1,0,0,1-.1-.1.1.1,0,0,1,.1-.11h.63a.11.11,0,0,1,.11.11A.11.11,0,0,1,44.8,84.94Z"/><path class="cls-11" d="M44.8,85.57h-.63a.1.1,0,0,1-.1-.1.1.1,0,0,1,.1-.11h.63a.11.11,0,0,1,.11.11A.11.11,0,0,1,44.8,85.57Z"/><path class="cls-11" d="M44.8,86.2h-.63a.1.1,0,0,1-.1-.1.1.1,0,0,1,.1-.11h.63a.11.11,0,0,1,.11.11A.11.11,0,0,1,44.8,86.2Z"/><path class="cls-11" d="M44.8,86.83h-.63a.09.09,0,0,1-.1-.1.1.1,0,0,1,.1-.11h.63a.11.11,0,0,1,.11.11A.1.1,0,0,1,44.8,86.83Z"/></g></g><g class="cls-17"><g id="Riyadh_building_7" data-name="Riyadh building 7"><path class="cls-11" d="M52.16,88.51H18.74a.42.42,0,0,1-.42-.42.42.42,0,0,1,.42-.42H52.16a.42.42,0,0,1,.42.42A.42.42,0,0,1,52.16,88.51Z"/><path class="cls-11" d="M38.94,88.3a.21.21,0,0,1-.21-.18l-.36-2.92c-2.18.39-15.17.73-17.53.79v2.1a.21.21,0,0,1-.21.21.21.21,0,0,1-.21-.21V85.78a.21.21,0,0,1,.21-.21c6.82-.17,17.2-.52,17.83-.82a.19.19,0,0,1,.19,0,.21.21,0,0,1,.11.15l.39,3.16a.2.2,0,0,1-.18.23Z"/><path class="cls-11" d="M50.27,88.3a.21.21,0,0,1-.21-.21V84.94H48.37v.42a.21.21,0,0,1-.21.21H38.71a.21.21,0,0,1,0-.42H48v-.42a.21.21,0,0,1,.21-.21h2.11a.21.21,0,0,1,.21.21v3.36A.21.21,0,0,1,50.27,88.3Z"/><path class="cls-11" d="M48.16,88.3a.21.21,0,0,1-.21-.21V86.41H38.71a.21.21,0,0,1-.21-.21.21.21,0,0,1,.21-.21h9.45a.21.21,0,0,1,.21.21v1.89A.21.21,0,0,1,48.16,88.3Z"/><path class="cls-11" d="M47.22,88a.11.11,0,0,1-.11-.11V86.2a.1.1,0,0,1,.11-.1.09.09,0,0,1,.1.1v1.68A.1.1,0,0,1,47.22,88Z"/><path class="cls-11" d="M46.38,88a.11.11,0,0,1-.11-.11V86.2a.1.1,0,0,1,.11-.1.09.09,0,0,1,.1.1v1.68A.1.1,0,0,1,46.38,88Z"/><path class="cls-11" d="M45.54,88a.11.11,0,0,1-.11-.11V86.2a.1.1,0,0,1,.11-.1.09.09,0,0,1,.1.1v1.68A.1.1,0,0,1,45.54,88Z"/><path class="cls-11" d="M43.86,88a.11.11,0,0,1-.11-.11V86.2a.1.1,0,0,1,.11-.1.1.1,0,0,1,.1.1v1.68A.11.11,0,0,1,43.86,88Z"/><path class="cls-11" d="M43,88a.11.11,0,0,1-.11-.11V86.2a.1.1,0,0,1,.11-.1.1.1,0,0,1,.1.1v1.68A.11.11,0,0,1,43,88Z"/><path class="cls-11" d="M42.17,88a.11.11,0,0,1-.1-.11V86.2a.1.1,0,0,1,.1-.1.1.1,0,0,1,.11.1v1.68A.11.11,0,0,1,42.17,88Z"/><path class="cls-11" d="M41.33,88a.11.11,0,0,1-.1-.11V86.2a.1.1,0,0,1,.1-.1.1.1,0,0,1,.11.1v1.68A.11.11,0,0,1,41.33,88Z"/><path class="cls-11" d="M40.49,88a.11.11,0,0,1-.1-.11V86.2a.1.1,0,0,1,.1-.1.1.1,0,0,1,.11.1v1.68A.11.11,0,0,1,40.49,88Z"/><path class="cls-11" d="M39.65,88a.1.1,0,0,1-.1-.11V86.2a.09.09,0,0,1,.1-.1.1.1,0,0,1,.11.1v1.68A.11.11,0,0,1,39.65,88Z"/><path class="cls-11" d="M43.75,85.57H39.13a.21.21,0,0,1-.21-.21V83.47a.21.21,0,0,1,.21-.21h4.62a.21.21,0,0,1,.21.21v1.89A.21.21,0,0,1,43.75,85.57Zm-4.41-.42h4.2V83.68h-4.2Z"/><path class="cls-11" d="M33.66,85.36a.21.21,0,0,1-.21-.21v-.84a.21.21,0,0,1,.21-.21h5.47a.21.21,0,0,1,0,.42H33.87v.63A.21.21,0,0,1,33.66,85.36Z"/><path class="cls-11" d="M33.66,88.3H30.72a.21.21,0,0,1-.21-.21V86.2a.21.21,0,0,1,.21-.21h2.94a.21.21,0,0,1,.21.21v1.89A.21.21,0,0,1,33.66,88.3Zm-2.73-.42h2.52V86.41H30.93Z"/><path class="cls-11" d="M30.72,85.57a.21.21,0,0,1-.21-.21v-.84H28.62v.84a.21.21,0,0,1-.21.21.21.21,0,0,1-.21-.21v-1a.21.21,0,0,1,.21-.21h2.31a.21.21,0,0,1,.21.21v1A.21.21,0,0,1,30.72,85.57Z"/><path class="cls-11" d="M26.73,85.57a.21.21,0,0,1-.21-.21v-1a.21.21,0,0,1,.21-.21h1.68a.21.21,0,0,1,0,.42H26.94v.84A.21.21,0,0,1,26.73,85.57Z"/><path class="cls-11" d="M28.41,84.94H26.73a.11.11,0,0,1-.11-.1.11.11,0,0,1,.11-.11h1.68a.1.1,0,0,1,.1.11A.1.1,0,0,1,28.41,84.94Z"/><path class="cls-11" d="M29.46,88.09H21.89a.21.21,0,0,1-.21-.21v-1a.22.22,0,0,1,.21-.21h7.57a.21.21,0,0,1,.21.21v1A.21.21,0,0,1,29.46,88.09Zm-7.36-.42h7.15V87H22.1Z"/><path class="cls-11" d="M23.47,88.2a.11.11,0,0,1-.11-.11V87a.1.1,0,0,1,.11-.1.09.09,0,0,1,.1.1v1A.1.1,0,0,1,23.47,88.2Z"/><path class="cls-11" d="M24.94,88.2a.1.1,0,0,1-.1-.11V87a.09.09,0,0,1,.1-.1.1.1,0,0,1,.11.1v1A.11.11,0,0,1,24.94,88.2Z"/><path class="cls-11" d="M26.41,88.2a.1.1,0,0,1-.1-.11V87a.09.09,0,0,1,.1-.1.1.1,0,0,1,.11.1v1A.11.11,0,0,1,26.41,88.2Z"/><path class="cls-11" d="M27.88,88.2a.11.11,0,0,1-.1-.11V87a.1.1,0,0,1,.1-.1A.1.1,0,0,1,28,87v1A.11.11,0,0,1,27.88,88.2Z"/><path class="cls-11" d="M44.59,85.57a.21.21,0,0,1-.21-.21v-.84h-.63a.21.21,0,0,1,0-.42h.84a.21.21,0,0,1,.21.21v1A.21.21,0,0,1,44.59,85.57Z"/><path class="cls-11" d="M44.59,88.09a.21.21,0,0,1-.21-.21V86.2a.22.22,0,0,1,.21-.21.21.21,0,0,1,.21.21v1.68A.21.21,0,0,1,44.59,88.09Z"/><path class="cls-11" d="M48.16,87H38.92a.1.1,0,0,1-.11-.1.11.11,0,0,1,.11-.11h9.24a.11.11,0,0,1,.11.11A.1.1,0,0,1,48.16,87Z"/><path class="cls-11" d="M39.23,86.94a.1.1,0,0,1-.1-.11v-.42a.09.09,0,0,1,.1-.1.1.1,0,0,1,.11.1v.42A.11.11,0,0,1,39.23,86.94Z"/><path class="cls-11" d="M40.07,86.94a.1.1,0,0,1-.1-.11v-.42a.09.09,0,0,1,.1-.1.1.1,0,0,1,.11.1v.42A.11.11,0,0,1,40.07,86.94Z"/><path class="cls-11" d="M40.91,86.94a.11.11,0,0,1-.1-.11v-.42a.1.1,0,0,1,.1-.1.1.1,0,0,1,.11.1v.42A.11.11,0,0,1,40.91,86.94Z"/><path class="cls-11" d="M41.75,86.94a.11.11,0,0,1-.1-.11v-.42a.1.1,0,0,1,.1-.1.1.1,0,0,1,.11.1v.42A.11.11,0,0,1,41.75,86.94Z"/><path class="cls-11" d="M42.59,86.94a.11.11,0,0,1-.1-.11v-.42a.1.1,0,0,1,.1-.1.1.1,0,0,1,.11.1v.42A.11.11,0,0,1,42.59,86.94Z"/><path class="cls-11" d="M43.44,86.94a.11.11,0,0,1-.11-.11v-.42a.1.1,0,0,1,.11-.1.1.1,0,0,1,.1.1v.42A.11.11,0,0,1,43.44,86.94Z"/><path class="cls-11" d="M45.12,86.94a.11.11,0,0,1-.11-.11v-.42a.1.1,0,0,1,.11-.1.1.1,0,0,1,.1.1v.42A.11.11,0,0,1,45.12,86.94Z"/><path class="cls-11" d="M46,86.94a.11.11,0,0,1-.11-.11v-.42a.1.1,0,0,1,.11-.1.09.09,0,0,1,.1.1v.42A.1.1,0,0,1,46,86.94Z"/><path class="cls-11" d="M46.8,86.94a.11.11,0,0,1-.11-.11v-.42a.1.1,0,0,1,.11-.1.09.09,0,0,1,.1.1v.42A.1.1,0,0,1,46.8,86.94Z"/><path class="cls-11" d="M47.64,86.94a.11.11,0,0,1-.11-.11v-.42a.1.1,0,0,1,.11-.1.09.09,0,0,1,.1.1v.42A.1.1,0,0,1,47.64,86.94Z"/><path class="cls-11" d="M40.07,87.78a.1.1,0,0,1-.1-.11v-.21a.09.09,0,0,1,.1-.1.1.1,0,0,1,.11.1v.21A.11.11,0,0,1,40.07,87.78Z"/><path class="cls-11" d="M39.23,87.78a.1.1,0,0,1-.1-.11v-.21a.09.09,0,0,1,.1-.1.1.1,0,0,1,.11.1v.21A.11.11,0,0,1,39.23,87.78Z"/><path class="cls-11" d="M40.91,87.78a.11.11,0,0,1-.1-.11v-.21a.1.1,0,0,1,.1-.1.1.1,0,0,1,.11.1v.21A.11.11,0,0,1,40.91,87.78Z"/><path class="cls-11" d="M41.75,87.78a.11.11,0,0,1-.1-.11v-.21a.1.1,0,0,1,.1-.1.1.1,0,0,1,.11.1v.21A.11.11,0,0,1,41.75,87.78Z"/><path class="cls-11" d="M42.59,87.78a.11.11,0,0,1-.1-.11v-.21a.1.1,0,0,1,.1-.1.1.1,0,0,1,.11.1v.21A.11.11,0,0,1,42.59,87.78Z"/><path class="cls-11" d="M43.44,87.78a.11.11,0,0,1-.11-.11v-.21a.1.1,0,0,1,.11-.1.1.1,0,0,1,.1.1v.21A.11.11,0,0,1,43.44,87.78Z"/><path class="cls-11" d="M44.28,87.78a.11.11,0,0,1-.11-.11v-.21a.1.1,0,0,1,.11-.1.1.1,0,0,1,.1.1v.21A.11.11,0,0,1,44.28,87.78Z"/><path class="cls-11" d="M45.12,87.78a.11.11,0,0,1-.11-.11v-.21a.1.1,0,0,1,.11-.1.1.1,0,0,1,.1.1v.21A.11.11,0,0,1,45.12,87.78Z"/><path class="cls-11" d="M46,87.78a.11.11,0,0,1-.11-.11v-.21a.1.1,0,0,1,.11-.1.09.09,0,0,1,.1.1v.21A.1.1,0,0,1,46,87.78Z"/><path class="cls-11" d="M46.8,87.78a.11.11,0,0,1-.11-.11v-.21a.1.1,0,0,1,.11-.1.09.09,0,0,1,.1.1v.21A.1.1,0,0,1,46.8,87.78Z"/><path class="cls-11" d="M47.64,87.78a.11.11,0,0,1-.11-.11v-.21a.1.1,0,0,1,.11-.1.09.09,0,0,1,.1.1v.21A.1.1,0,0,1,47.64,87.78Z"/><path class="cls-11" d="M49.22,88.3a.21.21,0,0,1-.22-.21v-.84a.22.22,0,0,1,.43,0v.84A.21.21,0,0,1,49.22,88.3Z"/><path class="cls-11" d="M48.79,86.41h-.21a.11.11,0,0,1-.1-.1.11.11,0,0,1,.1-.11h.21a.11.11,0,0,1,.11.11A.11.11,0,0,1,48.79,86.41Z"/><path class="cls-11" d="M49.43,86.41h-.21a.11.11,0,0,1-.11-.1.11.11,0,0,1,.11-.11h.21a.11.11,0,0,1,.1.11A.11.11,0,0,1,49.43,86.41Z"/><path class="cls-11" d="M50.06,86.41h-.21a.11.11,0,0,1-.11-.1.11.11,0,0,1,.11-.11h.21a.11.11,0,0,1,.1.11A.11.11,0,0,1,50.06,86.41Z"/></g></g></g><path class="cls-18" d="M21.26,52a2.38,2.38,0,0,1,2.38-2.37,2.39,2.39,0,0,1-2.38-2.38,2.38,2.38,0,0,1-2.37,2.38A2.37,2.37,0,0,1,21.26,52Z"/></svg>