<svg id="Layer_1" data-name="Layer 1" xmlns="http://www.w3.org/2000/svg" xmlns:xlink="http://www.w3.org/1999/xlink" viewBox="0 0 55 55"><defs><style>.cls-1{fill:none;}.cls-2{clip-path:url(#clip-path);}.cls-3{fill:#0664a4;}</style><clipPath id="clip-path"><rect class="cls-1" x="2.89" y="2.89" width="49.21" height="49.21"/></clipPath></defs><g class="cls-2"><path class="cls-3" d="M49.9,44.1a3.23,3.23,0,0,0,.57-1.84,3.29,3.29,0,0,0-6.57,0,3.23,3.23,0,0,0,.57,1.84,3.28,3.28,0,0,0-2,2,3.35,3.35,0,0,0-.76-.37,3.23,3.23,0,0,0,.56-1.84,3.28,3.28,0,0,0-6.56,0,3.23,3.23,0,0,0,.57,1.84,3.35,3.35,0,0,0-.76.37,3.28,3.28,0,0,0-2-2,3.28,3.28,0,1,0-5.44,0,3.27,3.27,0,0,0-2.2,3.09v2.46a.82.82,0,0,0,.82.82h7.38v.82a.82.82,0,0,0,.82.82h8.2a.82.82,0,0,0,.82-.82v-.82h7.39a.82.82,0,0,0,.82-.82V47.19A3.28,3.28,0,0,0,49.9,44.1ZM30.78,40.62a1.64,1.64,0,1,1-1.64,1.64A1.64,1.64,0,0,1,30.78,40.62Zm3.28,8.21H27.5V47.19a1.65,1.65,0,0,1,1.64-1.65h3.28a1.64,1.64,0,0,1,1.64,1.65ZM39,42.26a1.64,1.64,0,1,1-1.64,1.64A1.64,1.64,0,0,1,39,42.26Zm3.28,7.39v.82H35.7V48.83a1.64,1.64,0,0,1,1.64-1.64h3.28a1.63,1.63,0,0,1,1.64,1.64Zm4.93-9a1.64,1.64,0,1,1-1.65,1.64A1.65,1.65,0,0,1,47.19,40.62Zm3.28,8.21H43.9V47.19a1.65,1.65,0,0,1,1.64-1.65h3.29a1.65,1.65,0,0,1,1.64,1.65Z"/><path class="cls-3" d="M28.08,29.38,24,25.28A.83.83,0,0,0,23.4,25H19.3v-4.1a.82.82,0,0,0-.82-.82H3.71a.82.82,0,0,0-.82.82v16.4a.82.82,0,0,0,.82.82H6.29a3.27,3.27,0,0,0,6.33,0h6.79a3.27,3.27,0,0,0,6.33,0H27.5a.82.82,0,0,0,.82-.82V30A.83.83,0,0,0,28.08,29.38ZM4.53,21.76H17.66v9H4.53ZM9.46,39a1.64,1.64,0,1,1,1.64-1.64A1.64,1.64,0,0,1,9.46,39Zm13.12,0a1.64,1.64,0,1,1,1.64-1.64A1.63,1.63,0,0,1,22.58,39Zm4.1-2.46h-.92c0-.11-.08-.21-.12-.32s0-.11-.05-.16a3.74,3.74,0,0,0-.28-.52.39.39,0,0,1-.08-.1c-.09-.12-.19-.24-.29-.35l-.15-.14-.3-.24-.19-.13L24,34.38l-.2-.09-.39-.12-.19-.05a4.07,4.07,0,0,0-.61-.06,4.2,4.2,0,0,0-.62.06l-.19.05c-.13,0-.26.07-.38.12l-.21.1-.33.17-.18.13a3.5,3.5,0,0,0-.3.24l-.15.14a3.17,3.17,0,0,0-.29.35.76.76,0,0,0-.08.11,3.15,3.15,0,0,0-.28.51l-.06.16c0,.11-.08.21-.11.32H12.63c0-.11-.07-.21-.11-.32a1,1,0,0,0-.06-.16,3.15,3.15,0,0,0-.28-.51.76.76,0,0,0-.08-.11,3.17,3.17,0,0,0-.29-.35l-.15-.14a3.36,3.36,0,0,0-.29-.24l-.19-.13-.33-.17-.2-.1-.39-.12-.19-.05a4.07,4.07,0,0,0-.61-.06,4.07,4.07,0,0,0-.62.06l-.19.05-.39.12-.2.1-.33.17-.19.13a3.36,3.36,0,0,0-.29.24s-.11.09-.15.14a3.17,3.17,0,0,0-.29.35.76.76,0,0,0-.08.11,2.53,2.53,0,0,0-.28.51,1,1,0,0,0-.06.16c0,.11-.08.21-.11.32H4.53v-4.1h14a.82.82,0,0,0,.82-.82V26.68h3.76l3.62,3.62Z"/><path class="cls-3" d="M51.29,2.89H46.37a.83.83,0,0,0-.83.82V13.1l-4.92,3.08V13.56a.82.82,0,0,0-1.25-.7l-5.31,3.32V13.56a.82.82,0,0,0-1.25-.7L26.24,17a.84.84,0,0,0-.38.7v6.56a.82.82,0,0,0,.82.82H51.29a.82.82,0,0,0,.82-.82V3.71A.82.82,0,0,0,51.29,2.89ZM32.42,17.66V23.4H27.5V18.11L32.42,15Zm6.56,0V23.4H34.06V18.11L39,15ZM45.54,16V23.4H40.62V18.11L45.54,15Zm4.93,7.38H47.19V16.84h3.28Zm0-8.2H47.19V4.53h3.28Z"/><path class="cls-3" d="M37.34,19.3H35.7v2.46h1.64Z"/><path class="cls-3" d="M43.9,19.3H42.26v2.46H43.9Z"/><path class="cls-3" d="M30.78,19.3H29.14v2.46h1.64Z"/><path class="cls-3" d="M46.94,29.82c-.09.52-.19,1-.32,1.54l1.6.39c.13-.55.24-1.11.33-1.67Z"/><path class="cls-3" d="M47.18,26.68c0,.53,0,1.06-.06,1.57l1.64.13c0-.56.07-1.13.07-1.7Z"/><path class="cls-3" d="M45,35.77c-.25.46-.51.92-.79,1.37l1.39.87c.3-.48.59-1,.85-1.48Z"/><path class="cls-3" d="M46.19,32.87c-.16.5-.35,1-.55,1.48l1.51.64c.22-.52.42-1.06.6-1.6Z"/><path class="cls-3" d="M13.51,11.4c-.43.38-.84.77-1.24,1.17l1.17,1.15c.37-.37.75-.74,1.15-1.08Z"/><path class="cls-3" d="M34.3,7.28l-.53,1.56a15.33,15.33,0,0,1,1.47.56l.65-1.51C35.37,7.67,34.83,7.46,34.3,7.28Z"/><path class="cls-3" d="M16.26,9.38c-.48.29-1,.62-1.42.95l1,1.32c.42-.31.86-.61,1.3-.88Z"/><path class="cls-3" d="M9.16,16.62c-.29.47-.56,1-.82,1.5l1.48.72a15.17,15.17,0,0,1,.75-1.38Z"/><path class="cls-3" d="M11.13,13.84a16.72,16.72,0,0,0-1,1.35l1.34.94c.3-.42.62-.84,1-1.24Z"/><path class="cls-3" d="M27.59,6.17V7.81c.52,0,1.05,0,1.57.07l.14-1.63C28.74,6.2,28.16,6.18,27.59,6.17Z"/><path class="cls-3" d="M31,6.46l-.27,1.62a15.56,15.56,0,0,1,1.54.32l.4-1.6C32.11,6.67,31.55,6.55,31,6.46Z"/><path class="cls-3" d="M37.43,8.62l-.76,1.46c.46.24.91.5,1.36.79l.88-1.39C38.43,9.17,37.93,8.89,37.43,8.62Z"/><path class="cls-3" d="M25.89,6.23c-.57,0-1.14.11-1.69.2l.25,1.62c.51-.08,1-.14,1.56-.18Z"/><path class="cls-3" d="M19.28,7.82c-.52.21-1,.46-1.54.72L18.49,10c.46-.24.94-.46,1.42-.66Z"/><path class="cls-3" d="M22.52,6.76c-.55.13-1.1.29-1.64.46l.51,1.56c.5-.16,1-.31,1.51-.43Z"/><path class="cls-3" d="M20,45.93l-.58,1.54c.53.2,1.08.38,1.62.53l.46-1.57C21,46.28,20.5,46.11,20,45.93Z"/><path class="cls-3" d="M17.17,44.59,16.35,46c.49.28,1,.55,1.51.79l.7-1.48C18.09,45.09,17.62,44.85,17.17,44.59Z"/><path class="cls-3" d="M23,46.8l-.33,1.61c.56.11,1.13.2,1.69.27l.19-1.63C24.07,47,23.55,46.9,23,46.8Z"/><path class="cls-3" d="M12.52,40.89,11.31,42c.31.33.62.65.95,1l1.13-1.19C13.09,41.48,12.8,41.19,12.52,40.89Z"/><path class="cls-3" d="M14.57,42.81l-1,1.27a16.77,16.77,0,0,0,1.37,1l.92-1.35C15.41,43.46,15,43.14,14.57,42.81Z"/></g></svg>