<svg id="Layer_1" data-name="Layer 1" xmlns="http://www.w3.org/2000/svg" viewBox="0 0 55 55"><defs><style>.cls-1{fill:#0664a4;}</style></defs><path class="cls-1" d="M47.17,25.05A4.13,4.13,0,0,0,44,21.83V12.7a2.47,2.47,0,1,0-4.93,0V13L21.56,20.93h-13a5.76,5.76,0,0,0-.83,11.45V44.79a.83.83,0,0,0,.83.82h6.58a.82.82,0,0,0,.82-.82v-6.6a4.33,4.33,0,0,0,4.11-4.34v-1.4H21.6L39,38.78V39A2.47,2.47,0,1,0,44,39V29.9A4.12,4.12,0,0,0,47.17,25.05ZM14.34,44H9.4V42.32H11V40.67H9.4V39H11V37.38H9.4V35.74H11V34.09H9.4V32.45h4.94Zm4.11-10.12A2.68,2.68,0,0,1,16,36.53V32.45h2.47Zm2.47-3.05H8.58a4.11,4.11,0,1,1,0-8.22H20.92ZM39,37l-16.46-6V22.28L39,14.8Zm3.29,2a.83.83,0,0,1-1.65,0V12.7a.83.83,0,0,1,1.65,0Zm3.15-12.36A2.41,2.41,0,0,1,44,28.18V23.55A2.44,2.44,0,0,1,45.46,26.67Z"/><path class="cls-1" d="M11.87,24.22a2.47,2.47,0,1,0,2.47,2.47A2.47,2.47,0,0,0,11.87,24.22Zm0,3.29a.82.82,0,1,1,.82-.82A.82.82,0,0,1,11.87,27.51Z"/><path class="cls-1" d="M25.85,43.14a1.65,1.65,0,1,0-1.64-1.64A1.64,1.64,0,0,0,25.85,43.14Z"/><path class="cls-1" d="M52,8.13h0A.82.82,0,0,0,50.9,7.9h0L46,11.2a.82.82,0,1,0,.91,1.36l4.93-3.29A.82.82,0,0,0,52,8.13Z"/><path class="cls-1" d="M52.13,19.1a.81.81,0,0,0-.93-.62h0l-4.11.82a.82.82,0,0,0,.16,1.63l.17,0,4.11-.82A.81.81,0,0,0,52.13,19.1Z"/><path class="cls-1" d="M51.52,31.64l-4.11-.82a.82.82,0,0,0-.38,1.6h.06l4.11.82.16,0a.82.82,0,0,0,.16-1.63Z"/><path class="cls-1" d="M51.73,40.76l-4.94-2.47a.82.82,0,0,0-1.1.37.83.83,0,0,0,.36,1.11L51,42.23a.81.81,0,0,0,1.1-.36A.82.82,0,0,0,51.73,40.76Z"/><path class="cls-1" d="M11.61,10.48a.83.83,0,0,0-1.15,0l-7.4,7.4a.82.82,0,0,0,0,1.16.82.82,0,0,0,1.16,0l7.41-7.4A.83.83,0,0,0,11.61,10.48Z"/><path class="cls-1" d="M10.22,19.28a1.65,1.65,0,1,0-1.64-1.64A1.64,1.64,0,0,0,10.22,19.28Z"/><path class="cls-1" d="M4.46,13.53a1.65,1.65,0,1,0-1.64-1.65A1.65,1.65,0,0,0,4.46,13.53Z"/><path class="cls-1" d="M36.31,44.2,28.9,36.8a.78.78,0,0,0-.58-.24H21.74a.82.82,0,0,0-.82.82l0,6.57a.78.78,0,0,0,.24.57l7.4,7.41a.82.82,0,0,0,1.16,0h0l6.57-6.57A.82.82,0,0,0,36.31,44.2Zm-7.15,6-6.58-6.58,0-5.4H28l6.58,6.58Z"/><path class="cls-1" d="M31.61,7.77a.83.83,0,0,0,.83-.83V3.65a.83.83,0,0,0-.83-.82H15.16a.82.82,0,0,0-.82.82V6.94a.82.82,0,0,0,.82.83.82.82,0,0,1,0,1.64.82.82,0,0,0-.82.82v3.3a.82.82,0,0,0,.82.82H31.61a.83.83,0,0,0,.83-.82v-3.3a.83.83,0,0,0-.83-.82.82.82,0,0,1,0-1.64Zm-.82-1.51a2.48,2.48,0,0,0-1.51,3.15,2.51,2.51,0,0,0,1.51,1.51V12.7H26.68v-.82H25v.82H16V10.92a2.47,2.47,0,0,0,0-4.66V4.48H30.79Z"/><path class="cls-1" d="M26.68,5.3H25V6.94h1.65Z"/><path class="cls-1" d="M26.68,8.59H25v1.64h1.65Z"/></svg>