<?xml version="1.0" encoding="utf-8"?>
<!-- Generator: Adobe Illustrator 25.0.0, SVG Export Plug-In . SVG Version: 6.00 Build 0)  -->
<svg version="1.1" id="Layer_1" xmlns="http://www.w3.org/2000/svg" xmlns:xlink="http://www.w3.org/1999/xlink" width="175" height="70" x="0px" y="0px"
	 viewBox="0 0 144.2 71.4" style="enable-background:new 0 0 144.2 71.4;" xml:space="preserve">
<style type="text/css">
	.st0{fill:#E32124;}
	.st1{fill:#FEFEFE;}
</style>
<g id="Layer_x0020_1">
	<polygon class="st0" points="0,62.1 144.2,62.1 144.2,9.4 0,9.4 	"/>
	<path class="st1" d="M125.6,30.5c0.1,0,0.2,0,0.3-0.1c0,0,0-0.1,0-0.1c0-0.1,0-0.2-0.1-0.2c-0.1,0-0.2,0-0.3,0h-0.1v0.5L125.6,30.5
		L125.6,30.5z M125.5,29.7c0.2,0,0.3,0,0.4,0c0.3,0.1,0.3,0.4,0.3,0.5c0,0,0,0.1,0,0.1c0,0.1,0,0.2-0.2,0.3c0,0,0,0-0.1,0l0.4,0.7
		h-0.4l-0.3-0.6h-0.2v0.6h-0.3v-1.7C125.1,29.7,125.5,29.7,125.5,29.7z M125.6,32.1c0.8,0,1.5-0.7,1.5-1.5c0-0.8-0.7-1.5-1.5-1.5
		c-0.8,0-1.5,0.7-1.5,1.5C124.1,31.4,124.8,32.1,125.6,32.1z M124.4,30.6c0-0.6,0.5-1.2,1.2-1.2c0.7,0,1.2,0.5,1.2,1.2
		c0,0.6-0.5,1.2-1.2,1.2C125,31.7,124.4,31.2,124.4,30.6z M114.1,40c-2,0-3.6-1.3-4.1-3.1h10.8l1.5-2.3H110c0.5-1.8,2.2-3.1,4.1-3.1
		h7.5l1.5-2.3H114c-3.7,0-6.6,3-6.6,6.6c0,3.6,3,6.6,6.6,6.6h7.8l1.5-2.3L114.1,40L114.1,40z M83.1,42.3c-3.6,0-6.6-3-6.6-6.6
		s3-6.6,6.6-6.6h9.1l-1.5,2.3h-7.5c-2.4,0-4.3,1.9-4.3,4.3s1.9,4.3,4.3,4.3h9.1l-1.5,2.3L83.1,42.3L83.1,42.3z M35,40
		c2.4,0,4.3-1.9,4.3-4.3s-1.9-4.3-4.3-4.3h-7.3c-2.4,0-4.3,1.9-4.3,4.3s1.9,4.3,4.3,4.3H35z M27.5,42.3c-3.7,0-6.6-3-6.6-6.6
		s3-6.6,6.6-6.6h7.7c3.6,0,6.6,3,6.6,6.6c0,3.6-3,6.6-6.6,6.6H27.5z M54.2,38.1c2.5,0,4.5-2,4.5-4.5s-2-4.5-4.5-4.5H43.1v13.2h2.5
		V31.5H54c1.2,0,2.1,1,2.1,2.1c0,1.2-1,2.1-2.1,2.1h-7.2l7.6,6.6h3.7L53,38.1H54.2L54.2,38.1z M96.1,40V29.2h-2.5v11.9
		c0,0.3,0.1,0.6,0.4,0.9c0.2,0.2,0.6,0.4,0.9,0.4h11.6L108,40L96.1,40L96.1,40z M65.1,37.7h6.8l-3.6-5.8l-6.6,10.4h-3l8-12.5
		c0.4-0.5,0.9-0.8,1.6-0.8c0.6,0,1.2,0.3,1.5,0.8l8,12.5h-3L73.4,40h-6.8L65.1,37.7L65.1,37.7z"/>
</g>
</svg>
