<svg xmlns="http://www.w3.org/2000/svg" version="1.1" xmlns:xlink="http://www.w3.org/1999/xlink" width="512" height="512" x="0" y="0" viewBox="0 0 512 512" style="enable-background:new 0 0 512 512" xml:space="preserve" class=""><g><path d="M269.87 225.852c-.959-1.015-8.28-8.228-19.694-4.79-11.26 3.392-14.744 16.934-6.821 26.062 4.106 4.731 11.004 6.279 19.913 9.428 19.94 7.049 12.569 35.17-7.714 35.305-7.916.053-11.616-.45-18.57-4.998M256 293.065v11.647M256 207.297v11.648" style="stroke-width:15;stroke-linecap:round;stroke-linejoin:round;stroke-miterlimit:10;" fill="none" stroke="#0664a4" stroke-width="15" stroke-linecap="round" stroke-linejoin="round" stroke-miterlimit="10" data-original="#000000" opacity="1" class=""></path><circle cx="256" cy="256" r="85.132" style="stroke-width:15;stroke-linecap:round;stroke-linejoin:round;stroke-miterlimit:10;" fill="none" stroke="#0664a4" stroke-width="15" stroke-linecap="round" stroke-linejoin="round" stroke-miterlimit="10" data-original="#000000" opacity="1" class=""></circle><path d="M338.97 347.29c24.82-22.57 40.39-55.11 40.39-91.29 0-68.13-55.23-123.36-123.36-123.36S132.64 187.87 132.64 256 187.87 379.36 256 379.36c19.37 0 37.69-4.46 54-12.42M256 168.059v-33.288M179.841 212.029l-28.828-16.643M179.841 299.971l-28.828 16.643M256 343.941v33.288M332.159 299.971l28.828 16.643M332.159 212.029l28.828-16.643M59.934 311.034c-11.165-39.685-9.726-80.12 2.028-116.885" style="stroke-width:15;stroke-linecap:round;stroke-linejoin:round;stroke-miterlimit:10;" fill="none" stroke="#0664a4" stroke-width="15" stroke-linecap="round" stroke-linejoin="round" stroke-miterlimit="10" data-original="#000000" opacity="1" class=""></path><path d="M76.114 288.756 61.24 317.848l-27.593-15.606M311.034 452.066c-39.685 11.165-80.12 9.726-116.885-2.028" style="stroke-width:15;stroke-linecap:round;stroke-linejoin:round;stroke-miterlimit:10;" fill="none" stroke="#0664a4" stroke-width="15" stroke-linecap="round" stroke-linejoin="round" stroke-miterlimit="10" data-original="#000000" opacity="1" class=""></path><path d="m288.756 435.886 29.092 14.874-15.606 27.593M452.066 200.966c11.165 39.685 9.726 80.12-2.028 116.885" style="stroke-width:15;stroke-linecap:round;stroke-linejoin:round;stroke-miterlimit:10;" fill="none" stroke="#0664a4" stroke-width="15" stroke-linecap="round" stroke-linejoin="round" stroke-miterlimit="10" data-original="#000000" opacity="1" class=""></path><path d="m435.886 223.244 14.874-29.092 27.593 15.606M200.966 59.934c39.685-11.165 80.12-9.726 116.885 2.028" style="stroke-width:15;stroke-linecap:round;stroke-linejoin:round;stroke-miterlimit:10;" fill="none" stroke="#0664a4" stroke-width="15" stroke-linecap="round" stroke-linejoin="round" stroke-miterlimit="10" data-original="#000000" opacity="1" class=""></path><path d="M223.244 76.114 194.152 61.24l15.606-27.593M163.28 96.96c-5.41 37.95-38.04 67.12-77.49 67.12-43.24 0-78.29-35.05-78.29-78.29S42.55 7.5 85.79 7.5c34.93 0 64.51 22.87 74.59 54.46M499.86 452.82c-10.89 30.14-39.75 51.68-73.65 51.68-43.24 0-78.29-35.05-78.29-78.29s35.05-78.29 78.29-78.29c40.41 0 73.66 30.61 77.84 69.9M103.01 502.6c34.96-7.85 61.07-39.07 61.07-76.39 0-43.24-35.05-78.29-78.29-78.29S7.5 382.97 7.5 426.21c0 37.12 25.84 68.21 60.51 76.27" style="stroke-width:15;stroke-linecap:round;stroke-linejoin:round;stroke-miterlimit:10;" fill="none" stroke="#0664a4" stroke-width="15" stroke-linecap="round" stroke-linejoin="round" stroke-miterlimit="10" data-original="#000000" opacity="1" class=""></path><circle cx="426.208" cy="85.792" r="78.292" style="stroke-width:15;stroke-linecap:round;stroke-linejoin:round;stroke-miterlimit:10;" fill="none" stroke="#0664a4" stroke-width="15" stroke-linecap="round" stroke-linejoin="round" stroke-miterlimit="10" data-original="#000000" opacity="1" class=""></circle><path d="M411.867 465.939c-14.408-9.218-23.01-24.934-23.01-42.038v-32.52l3.179-.633a101.977 101.977 0 0 0 32.156-12.324l2.015-1.194 2.015 1.194a101.977 101.977 0 0 0 32.156 12.324l3.179.633v32.616c0 17.055-8.563 32.746-22.907 41.972l-14.33 9.218-14.453-9.248zM71.217 96.512v15.469a5.498 5.498 0 0 1-4.034 5.3l-13.585 3.754a19.832 19.832 0 0 0-8.664 5.014h0a19.842 19.842 0 0 0-5.894 14.113v4.966M100.368 96.512v15.469a5.498 5.498 0 0 0 4.034 5.3l13.585 3.754a19.832 19.832 0 0 1 8.664 5.014h0a19.842 19.842 0 0 1 5.894 14.113v4.966M102.863 118.619h0c-7.267 13.683-26.873 13.683-34.14 0h0M73.681 97.58l3.388 1.923a17.672 17.672 0 0 0 17.447 0l3.388-1.923a29.7 29.7 0 0 0 15.037-25.827v-7.544c0-10.67-6.26-20.348-15.992-24.723h0a27.206 27.206 0 0 0-22.312 0h0a27.107 27.107 0 0 0-15.992 24.723v7.544A29.7 29.7 0 0 0 73.681 97.58zM463.826 118.021h-75.237a6.28 6.28 0 0 1-6.281-6.281V59.844a6.28 6.28 0 0 1 6.281-6.281h75.237a6.28 6.28 0 0 1 6.281 6.281v51.897a6.282 6.282 0 0 1-6.281 6.28zM386.617 92.979h77.872M73.177 453.3v-35.958M131.043 456.023H40.542M98.408 417.342V453.3M47.945 453.3v-35.958M123.64 417.342V453.3M45.791 413.355l18.831-26h42.341l18.831 26M40.542 413.355h90.501M426.208 381.383v86.808" style="stroke-width:15;stroke-linecap:round;stroke-linejoin:round;stroke-miterlimit:10;" fill="none" stroke="#0664a4" stroke-width="15" stroke-linecap="round" stroke-linejoin="round" stroke-miterlimit="10" data-original="#000000" opacity="1" class=""></path></g></svg>