<svg xmlns="http://www.w3.org/2000/svg" version="1.1" xmlns:xlink="http://www.w3.org/1999/xlink" width="512" height="512" x="0" y="0" viewBox="0 0 500 500" style="enable-background:new 0 0 512 512" xml:space="preserve" class=""><g><path fill-rule="evenodd" d="M328.73 386.877c0 3.656-2.98 6.625-6.599 6.625h-49.489c-3.672 0-6.652-2.969-6.652-6.625 0-3.667 2.98-6.631 6.652-6.631h49.489c3.619 0 6.599 2.964 6.599 6.631zm0-37.702c0 3.656-2.98 6.625-6.599 6.625h-58.535c-3.672 0-6.598-2.969-6.598-6.625 0-3.667 2.927-6.631 6.598-6.631h58.535c3.619 0 6.599 2.964 6.599 6.631zm0-111.068c0 3.656-2.98 6.625-6.599 6.625h-94.827c-3.672 0-6.652-2.969-6.652-6.625s2.98-6.625 6.652-6.625h94.827c3.619 0 6.599 2.969 6.599 6.625zm0 37.702c0 3.656-2.98 6.631-6.599 6.631h-74.446c-3.619 0-6.598-2.975-6.598-6.631s2.98-6.625 6.598-6.625h74.446c3.619 0 6.599 2.969 6.599 6.625zm0-111.058c0 3.661-2.98 6.625-6.599 6.625h-94.827c-3.672 0-6.652-2.964-6.652-6.625 0-3.667 2.98-6.625 6.652-6.625h94.827c3.619 0 6.599 2.959 6.599 6.625zm0-37.702c0 3.656-2.98 6.625-6.599 6.625h-94.827c-3.672 0-6.652-2.969-6.652-6.625 0-3.667 2.98-6.625 6.652-6.625h94.827c3.619 0 6.599 2.959 6.599 6.625zm88.601 240.969c0 16.454-13.357 29.842-29.8 29.842-16.496 0-29.853-13.389-29.853-29.842 0-16.449 13.357-29.837 29.853-29.837a29.663 29.663 0 0 1 18.731 6.652l-21.445 25.979-9.579-13.234c-2.128-2.959-6.279-3.624-9.259-1.474-2.98 2.145-3.618 6.29-1.49 9.259l14.634 20.163c2.496 3.489 7.687 3.691 10.483.325l25.01-30.3c1.757 3.804 2.715 8.023 2.715 12.467zm16.975-46.749a6.619 6.619 0 0 0-9.312.894l-10.27 12.457c-7.45-6.051-16.922-9.695-27.192-9.695-23.787 0-43.103 19.338-43.103 43.093 0 23.771 19.317 43.093 43.103 43.093 23.733 0 43.05-19.322 43.05-43.093a43.03 43.03 0 0 0-6.918-23.425l11.547-13.995c2.341-2.815 1.916-6.992-.905-9.329zm-16.975-64.303c0 16.448-13.357 29.837-29.8 29.837-16.496 0-29.853-13.389-29.853-29.837 0-16.464 13.357-29.848 29.853-29.848a29.61 29.61 0 0 1 18.731 6.657l-21.445 25.974-9.579-13.229c-2.128-2.964-6.279-3.624-9.259-1.479-2.98 2.15-3.618 6.295-1.49 9.254l14.634 20.163c2.521 3.523 7.716 3.666 10.483.335l25.01-30.295c1.757 3.789 2.715 8.008 2.715 12.468zm16.975-46.754a6.599 6.599 0 0 0-9.312.894l-10.27 12.457c-7.45-6.061-16.922-9.701-27.192-9.701-23.787 0-43.103 19.333-43.103 43.103 0 23.755 19.317 43.087 43.103 43.087 23.733 0 43.05-19.333 43.05-43.087a43.002 43.002 0 0 0-6.918-23.425l11.547-14.001c2.341-2.824 1.916-6.996-.905-9.327zm-16.975-64.315c0 16.449-13.357 29.837-29.8 29.837-16.496 0-29.853-13.389-29.853-29.837 0-16.454 13.357-29.842 29.853-29.842a29.614 29.614 0 0 1 18.731 6.662l-21.445 25.968-9.579-13.234c-2.128-2.959-6.279-3.624-9.259-1.474-2.98 2.144-3.618 6.29-1.49 9.259l14.634 20.163c2.495 3.487 7.689 3.694 10.483.325l25.01-30.295c1.757 3.8 2.715 8.02 2.715 12.468zm16.975-46.753a6.613 6.613 0 0 0-9.312.894l-10.27 12.457c-7.45-6.051-16.922-9.69-27.192-9.69-23.787 0-43.103 19.333-43.103 43.093 0 23.755 19.317 43.093 43.103 43.093 23.733 0 43.05-19.338 43.05-43.093a43.002 43.002 0 0 0-6.918-23.425l11.547-13.995c2.341-2.821 1.916-6.998-.905-9.334zm21.126 318.837V82.014c0-5.96-4.842-10.808-10.803-10.808H201.655c-5.96 0-10.803 4.848-10.803 10.808v174.265c19.104 3.172 33.738 19.812 33.738 39.799 0 13.069-6.226 24.707-15.911 32.083 24.585 9.765 42.039 33.791 42.039 61.835v35.467c0 1.139-.106 2.251-.319 3.331H444.63c5.96-.001 10.802-4.854 10.802-10.813zM134.34 428.793a3.337 3.337 0 0 1-3.353-3.331v-35.467c0-29.299 23.907-53.246 53.267-53.246 29.374 0 53.214 23.888 53.214 53.246v35.467c0 1.836-1.49 3.331-3.299 3.331zm-38.315-30.374 21.765-11.111c.585-14.517 5.853-27.841 14.314-38.522-17.082-14.969-27.086-36.766-27.086-59.653 0-41.448 31.982-75.575 72.584-78.948v-60.701h-8.248l-8.514 26.266c-.745 2.155-2.501 3.81-4.683 4.374-10.217 2.623-20.008 6.689-29.161 12.09-1.916 1.149-4.31 1.224-6.332.191l-24.638-12.548-21.073 21.053 12.559 24.633c1.011 2.011.958 4.427-.213 6.38a113.69 113.69 0 0 0-12.079 29.14 6.504 6.504 0 0 1-4.364 4.656l-26.288 8.535v29.768l26.288 8.536c2.182.697 3.778 2.459 4.364 4.656a113.747 113.747 0 0 0 12.079 29.14c1.171 1.953 1.224 4.358.213 6.38l-12.559 24.633zm88.229-75.239c-14.953 0-27.139-12.159-27.139-27.102s12.186-27.097 27.139-27.097 27.086 12.154 27.086 27.097c0 14.942-12.133 27.102-27.086 27.102zm-42.943 16.065a66.407 66.407 0 0 1 18.518-11.085c-9.685-7.375-15.964-19.013-15.964-32.083 0-19.987 14.634-36.627 33.738-39.799v-32.785c-33.259 3.326-59.333 31.497-59.333 65.639-.001 19.281 8.513 37.634 23.041 50.113zM444.63 57.951H201.655c-13.25 0-24.053 10.797-24.053 24.063v54.214h-13.091c-2.82 0-5.375 1.847-6.279 4.577l-8.887 27.443a125.128 125.128 0 0 0-25.862 10.728l-25.756-13.112a6.59 6.59 0 0 0-7.663 1.219L62.18 194.946c-2.022 2.033-2.501 5.135-1.224 7.695l13.091 25.729c-4.523 8.2-8.088 16.869-10.696 25.846l-27.458 8.924a6.637 6.637 0 0 0-4.577 6.301v39.4a6.64 6.64 0 0 0 4.577 6.3l27.458 8.924c2.608 8.977 6.173 17.646 10.696 25.846L60.956 375.64c-1.277 2.559-.798 5.662 1.224 7.695l27.884 27.858c2.001 2.039 5.128 2.51 7.663 1.224l20.008-10.19v23.239c0 9.147 7.45 16.587 16.603 16.587h310.29c13.303 0 24.053-10.802 24.053-24.068V82.014c.002-13.266-10.748-24.063-24.051-24.063z" clip-rule="evenodd" fill="#0664a4" opacity="1" data-original="#000000" class=""></path></g></svg>