<?xml version="1.0" encoding="utf-8"?>
<!-- Generator: Adobe Illustrator 16.0.0, SVG Export Plug-In . SVG Version: 6.00 Build 0)  -->
<!DOCTYPE svg PUBLIC "-//W3C//DTD SVG 1.1//EN" "http://www.w3.org/Graphics/SVG/1.1/DTD/svg11.dtd">
<svg version="1.1" id="Layer_1" xmlns="http://www.w3.org/2000/svg" xmlns:xlink="http://www.w3.org/1999/xlink" x="0px" y="0px"
	 width="512px" height="512px" viewBox="0 0 512 512" enable-background="new 0 0 512 512" xml:space="preserve">
<g id="Surfaces">
	<g id="Photo_Surface">
		<g id="Outline_no_shadow">
			<path fill="#330000" d="M-1627-234.972h312c46.392,0,84,37.608,84,84v296c0,46.392-37.608,84-84,84h-312
				c-46.392,0-84-37.608-84-84v-296C-1711-197.364-1673.392-234.972-1627-234.972z"/>
		</g>
	</g>
</g>
<g>
	<path fill="#FF9A00" d="M-1469.42,53.028H-1541l-18.48,53.359c-0.213,1.761-1.327,2.641-3.34,2.641h-33.6
		c-2.24,0-3.02-1.1-2.34-3.3l64.84-192.58c1.831-5.864,2.735-11.978,2.68-18.12c-0.13-0.975,0.555-1.87,1.529-2
		c0.156-0.021,0.315-0.021,0.471,0h47.04c1.36,0,2.14,0.56,2.36,1.64l72.56,211.4c0.681,2,0.12,2.96-1.68,2.96h-37.62
		c-1.424,0.085-2.756-0.707-3.359-2L-1469.42,53.028z M-1533,17.028h55.76c-1.34-2.939-26.42-83.86-28.22-90.68h-0.32L-1533,17.028z
		"/>
	<path fill="#FF9A00" d="M-1367.18-66.972c-6.372,0.272-12.582-2.043-17.221-6.42c-4.542-4.618-6.937-10.931-6.6-17.4
		c-0.301-6.551,2.158-12.928,6.78-17.58c4.676-4.451,10.948-6.83,17.399-6.6c6.469-0.337,12.782,2.058,17.4,6.6
		c4.417,4.758,6.731,11.095,6.42,17.58c0.337,6.469-2.058,12.782-6.6,17.4C-1354.358-68.975-1360.695-66.661-1367.18-66.972z"/>
	<path fill="#FF9A00" d="M-1387,106.028v-154.32c-0.19-1.29,0.7-2.489,1.989-2.68c0.229-0.034,0.462-0.034,0.69,0h34.641
		c1.302-0.178,2.502,0.734,2.68,2.036c0.029,0.214,0.029,0.43,0,0.644v154.64c0.19,1.289-0.7,2.488-1.989,2.68
		c-0.229,0.033-0.462,0.033-0.69,0H-1384c-1.455,0.201-2.798-0.814-3-2.27C-1387.033,106.516-1387.033,106.27-1387,106.028z"/>
</g>
<path fill-rule="evenodd" clip-rule="evenodd" fill="#FEA51A" d="M116.805,501.433c0.127-1.897,0.365-3.796,0.366-5.694
	c0.021-45.039,0.016-90.078,0.016-135.118c0-8.206,0-8.206,8.446-8.206c33.38,0,66.761-0.054,100.14,0.079
	c3.506,0.014,5.882-1.066,8.315-3.526c18.309-18.506,36.73-36.903,55.212-55.236c2.193-2.177,3.24-4.327,3.222-7.485
	c-0.131-21.241-0.118-42.484-0.012-63.726c0.015-2.933-0.793-5.025-2.911-7.123c-17.698-17.535-35.31-35.16-52.848-52.856
	c-2.2-2.22-4.432-3.123-7.557-3.114c-35.616,0.095-71.233-0.02-106.848,0.166c-4.296,0.022-5.268-1.178-5.254-5.336
	c0.15-45.998,0.1-91.996,0.079-137.993c0-1.898-0.238-3.797-0.366-5.696c49.854,0,99.707,0,149.561,0
	c-0.025,36.745-0.031,73.489-0.122,110.234c-0.006,2.291,0.781,3.844,2.354,5.411c19.132,19.05,38.242,38.124,57.251,57.297
	c2.04,2.058,4.162,2.472,6.826,2.467c31.794-0.056,63.587,0.022,95.379-0.114c3.655-0.016,4.85,0.807,4.837,4.686
	c-0.143,43.616-0.138,87.231-0.007,130.846c0.013,3.773-1.004,4.771-4.771,4.753c-32.91-0.149-65.822-0.048-98.733-0.152
	c-2.967-0.01-5.019,0.863-7.093,2.955c-17.657,17.813-35.407,35.535-53.181,53.233c-1.764,1.756-2.9,3.405-2.891,6.14
	c0.13,37.703,0.123,75.407,0.149,113.11C216.512,501.433,166.658,501.433,116.805,501.433z M213.692,66.683
	c0.08-2.66-0.634-3.556-3.422-3.523c-12.28,0.147-24.563,0.148-36.843,0.003c-2.919-0.035-3.807,0.812-3.77,3.761
	c0.156,12.12,0.145,24.244,0.007,36.365c-0.033,2.889,0.798,3.882,3.765,3.849c12.28-0.139,24.563-0.138,36.843,0
	c2.833,0.032,3.479-1.01,3.413-3.613c-0.157-6.216-0.05-12.439-0.05-18.66C213.636,78.804,213.512,72.739,213.692,66.683z
	 M213.688,408.786c0.076-2.725-0.404-3.986-3.584-3.939c-12.279,0.182-24.563,0.13-36.843,0.028
	c-2.646-0.021-3.621,0.757-3.593,3.526c0.126,12.279,0.12,24.563,0.003,36.843c-0.025,2.631,0.645,3.619,3.445,3.589
	c12.44-0.133,24.882-0.118,37.322-0.006c2.473,0.022,3.325-0.64,3.253-3.199c-0.174-6.216-0.057-12.44-0.056-18.661
	C213.636,420.906,213.52,414.843,213.688,408.786z"/>
</svg>
