<svg xmlns="http://www.w3.org/2000/svg" version="1.1" xmlns:xlink="http://www.w3.org/1999/xlink" width="512" height="512" x="0" y="0" viewBox="0 0 512 512" style="enable-background:new 0 0 512 512" xml:space="preserve" class=""><g><path d="M339.576 256.998H172.424c-8.199 0-14.845-6.646-14.845-14.845v-37.134c0-8.199 6.646-14.845 14.845-14.845h167.151c8.199 0 14.845 6.646 14.845 14.845v37.134c.001 8.198-6.646 14.845-14.844 14.845zM339.576 323.827H172.424c-8.199 0-14.845-6.646-14.845-14.845v-37.134c0-8.199 6.646-14.845 14.845-14.845h167.151c8.199 0 14.845 6.646 14.845 14.845v37.134c.001 8.199-6.646 14.845-14.844 14.845zM195.263 223.585h0M231.091 223.585h0M195.263 290.415h0M231.091 290.415h0M10 10h126.756v143.703H10zM375.244 10H502v143.703H375.244zM136.756 385.406v-27.109H10V502h126.756v-28.598M375.244 358.297H502V502H375.244zM257.179 153.703v-50.254c0-11.928-9.67-21.598-21.598-21.598h-40.447M393.601 255h24.064c11.928 0 21.598-9.67 21.598-21.598V205.05" style="stroke-width:20;stroke-linecap:round;stroke-linejoin:round;stroke-miterlimit:10;" fill="none" stroke="#0664a4" stroke-width="20" stroke-linecap="round" stroke-linejoin="round" stroke-miterlimit="10" data-original="#000000" opacity="1" class=""></path><path d="m463.452 214.812-24.19-24.19-24.19 24.19M202.538 57.661l-24.19 24.191 24.19 24.19M254.821 362.918v50.254c0 11.928 9.67 21.598 21.598 21.598h40.447M115.512 256h-19.01c-11.928 0-21.598 9.67-21.598 21.598v29.411" style="stroke-width:20;stroke-linecap:round;stroke-linejoin:round;stroke-miterlimit:10;" fill="none" stroke="#0664a4" stroke-width="20" stroke-linecap="round" stroke-linejoin="round" stroke-miterlimit="10" data-original="#000000" opacity="1" class=""></path><path d="m50.714 297.247 24.191 24.19 24.19-24.19M309.462 458.96l24.191-24.19-24.191-24.19M70.694 58.661h23.381M52.694 101.641h41.381M435.932 58.661h23.38M417.932 101.641h41.38M70.694 406.45h23.381M52.694 449.429h41.381M435.932 406.45h23.38M417.932 449.429h41.38M136.756 430.148h0" style="stroke-width:20;stroke-linecap:round;stroke-linejoin:round;stroke-miterlimit:10;" fill="none" stroke="#0664a4" stroke-width="20" stroke-linecap="round" stroke-linejoin="round" stroke-miterlimit="10" data-original="#000000" opacity="1" class=""></path></g></svg>