<svg id="Layer_1" data-name="Layer 1" xmlns="http://www.w3.org/2000/svg" viewBox="0 0 55 55"><defs><style>.cls-1{fill:#0664a4;}</style></defs><path class="cls-1" d="M52,33.55a3.09,3.09,0,0,0-4.27-.83L41.32,37l0-13.29,2.22,2.08a2.51,2.51,0,0,0,1.73.68h0A2.53,2.53,0,0,0,47,22.08l-4.2-3.94a.72.72,0,0,0-1,1.05L46,23.12a1.09,1.09,0,0,1,.35.77A1.08,1.08,0,0,1,45.25,25h0a1.13,1.13,0,0,1-.76-.29h0L27.81,9.1a.73.73,0,0,0-1,0L10.18,24.78a1,1,0,0,1-.79.3,1.08,1.08,0,0,1-.77-.34,1.11,1.11,0,0,1,.05-1.57L26.56,6.32a1.1,1.1,0,0,1,1.51,0l10.47,9.8a.7.7,0,0,0,1,0,.71.71,0,0,0,0-1L29.05,5.28a2.55,2.55,0,0,0-3.47,0l-5.73,5.4v-1a1.14,1.14,0,0,0-1.14-1.14H14.62a1.13,1.13,0,0,0-1.14,1.14v6.94l-5.8,5.47a2.52,2.52,0,0,0-.8,1.76,2.56,2.56,0,0,0,.69,1.82,2.53,2.53,0,0,0,1.77.79h.08a2.48,2.48,0,0,0,1.73-.69l2.21-2.08V30a14.18,14.18,0,0,0-2.16-.16H10v-.43a2.59,2.59,0,0,0-2.6-2.6H5.11a2.6,2.6,0,0,0-2.61,2.6V40.61a.72.72,0,1,0,1.43,0V29.43a1.18,1.18,0,0,1,1.18-1.18H7.39a1.18,1.18,0,0,1,1.18,1.18v16.9a1.18,1.18,0,0,1-1.18,1.18H5.11a1.18,1.18,0,0,1-1.18-1.18V45.08a.72.72,0,0,0-1.43,0v1.25a2.61,2.61,0,0,0,2.61,2.61H7.39A2.6,2.6,0,0,0,10,46.33v-.1l10.46,4,.06,0a4.84,4.84,0,0,0,1.35.19,4.28,4.28,0,0,0,.72,0l15.36-2.22h0a7.61,7.61,0,0,0,3.57-1.59l0,0,9.93-8.92A3.1,3.1,0,0,0,52,33.55ZM18.42,10v2l-3.5,3.3V10Zm8.9.59L39.87,22.36l0,15.59-2,1.35-2.14-.12,0-.57a4.53,4.53,0,0,0-3.64-4V25.34a1.29,1.29,0,0,0-1.29-1.29h-6.8a1.28,1.28,0,0,0-1.29,1.3v8.08a13.69,13.69,0,0,1-3.84-1.52l-.45-.25-.18-.1-.28-.14-.23-.11-.24-.11-.25-.11L17,31l-.26-.1-.23-.09-.25-.09L16,30.64l-.25-.08-.26-.08-.23-.07-.3-.08-.14,0V22.4Zm3.3,23.84-6-.69-.56-.07,0-8.19H30.6Zm19.89,2.08L40.6,45.44a6.08,6.08,0,0,1-2.87,1.28L22.38,48.93h0a3.54,3.54,0,0,1-1.44-.09L10,44.71V31.29h1.23a13.7,13.7,0,0,1,3.07.35l.12,0,.36.09h0l.36.1.07,0,.39.13h0l.79.31h.05l.38.18h0l.37.18,0,0,.36.19.06,0,.36.2a14.79,14.79,0,0,0,5.5,1.91h0l8,.92.13,0a3.09,3.09,0,0,1,2.42,2.22,3,3,0,0,1,.1.52l0,.32-15-1.31a.71.71,0,0,0-.12,1.42L35,40.57h0l3,.17h.24l.07,0,0,0,.1-.05L41,38.92h0l7.49-5a1.65,1.65,0,0,1,2,2.61Z"/></svg>