<svg xmlns="http://www.w3.org/2000/svg" version="1.1" xmlns:xlink="http://www.w3.org/1999/xlink" width="512" height="512" x="0" y="0" viewBox="0 0 32 32" style="enable-background:new 0 0 512 512" xml:space="preserve" class=""><g><g data-name="Layer 10"><path d="M29.65 28.08a2.34 2.34 0 0 0 1.84-2.29 2.32 2.32 0 0 0-.58-1.53 1.85 1.85 0 0 0 .11-.63 1.87 1.87 0 1 0-3.75 0 1.85 1.85 0 0 0 .11.63 2.31 2.31 0 0 0-.58 1.53 2.34 2.34 0 0 0 1.84 2.29v2.17h-2.15V9.53L14 4.42v4.7L2.45 4.42v25.82H.5v1H31v-1h-1.35zm-1.84-2.29a1.33 1.33 0 0 1 .5-1l.35-.28-.24-.38a.87.87 0 1 1 1.47 0l-.24.38.34.28a1.34 1.34 0 1 1-2.18 1zM15 5.91l10.52 4.29v18.1H15zm-1 5.8h-1.6v1H14v2.48h-1.6v1H14v2.48h-1.6v1H14v2.9h-1.6v1H14v2.75H9.25v-.75h1.49v-1H9.25v-2.65h1.49v-1H9.25v-2.65h1.49v-1H9.25v-2.64h1.49v-1H9.25V11h1.49v-1H9.25V8.28L14 10.21zm-6.8 15.6v2.93H6.09v-2.92zm1 0h1.05v2.93H8.17zm2.08 0h1.08v2.93h-1.11zm-2-19.45v18.46H3.45V5.91zM3.45 27.32h1.64v2.93H3.45zm8.88 2.93v-2.93H14v2.93zm2.64 0v-.94h10.52v.94z" fill="#0664a4" opacity="1" data-original="#000000"></path><path d="M4.47 12.9h1.78v1H4.47zM4.47 15.19h1.78v1H4.47zM4.47 17.48h1.78v1H4.47zM4.47 19.77h1.78v1H4.47zM4.47 22.06h1.78v1H4.47zM21.88 12.9h1.78v1h-1.78zM21.88 15.19h1.78v1h-1.78zM21.88 17.48h1.78v1h-1.78zM21.88 19.77h1.78v1h-1.78zM21.88 22.06h1.78v1h-1.78zM21.88 24.35h1.78v1h-1.78zM16.8 12.9h1.78v1H16.8zM16.8 15.19h1.78v1H16.8zM16.8 17.48h1.78v1H16.8zM16.8 19.77h1.78v1H16.8zM16.8 22.06h1.78v1H16.8zM16.8 24.35h1.78v1H16.8zM4.47 24.35h1.78v1H4.47z" fill="#0664a4" opacity="1" data-original="#000000"></path></g></g></svg>