<svg id="Layer_1" data-name="Layer 1" xmlns="http://www.w3.org/2000/svg" xmlns:xlink="http://www.w3.org/1999/xlink" viewBox="0 0 55 55"><defs><style>.cls-1{fill:none;}.cls-2{clip-path:url(#clip-path);}.cls-3{fill:#0664a4;}</style><clipPath id="clip-path"><rect class="cls-1" x="2.38" y="2.38" width="50.23" height="50.23"/></clipPath></defs><g class="cls-2"><path class="cls-3" d="M38,19.31l-.54-1.77a3.85,3.85,0,0,0-7.28,0l-.54,1.77a10,10,0,0,0-.27,4.61,4.31,4.31,0,0,0,2.23,3L31,40.39a2.68,2.68,0,0,0,.67,2.06,2.93,2.93,0,0,0,4.14.19l.18-.19a2.58,2.58,0,0,0,.67-2L36,26.93a4.29,4.29,0,0,0,2.22-3A10,10,0,0,0,38,19.31Zm-1.38,4.32a2.65,2.65,0,0,1-1.73,2,.85.85,0,0,0-.55.82l.64,14.13a1,1,0,0,1-.25.76,1.29,1.29,0,0,1-1.82,0,1,1,0,0,1-.25-.81l.63-14.08a.82.82,0,0,0-.54-.82,2.65,2.65,0,0,1-1.73-2,8.14,8.14,0,0,1,.23-3.83L31.74,18a2.18,2.18,0,0,1,4.08,0l.53,1.77A8.14,8.14,0,0,1,36.58,23.63Z"/><path class="cls-3" d="M25,14.94a.85.85,0,0,0-.84.84V23l-2.27,2.26a.88.88,0,0,0-.24.64l.73,14.65a1.17,1.17,0,0,1-.31.85,1.18,1.18,0,0,1-1.67,0h0a1.18,1.18,0,0,1-.32-.85l.74-14.65a.88.88,0,0,0-.24-.64L18.29,23V15.78a.84.84,0,1,0-1.67,0v7.53a.83.83,0,0,0,.24.6l2.25,2.25L18.4,40.44a2.83,2.83,0,1,0,5.65.27v-.27l-.72-14.28,2.25-2.25a.84.84,0,0,0,.25-.6V15.78A.85.85,0,0,0,25,14.94Z"/><path class="cls-3" d="M20,14.94a.84.84,0,0,0-.83.84v6.7a.84.84,0,0,0,1.67,0v-6.7A.84.84,0,0,0,20,14.94Z"/><path class="cls-3" d="M22.48,14.94a.84.84,0,0,0-.84.84v6.7a.84.84,0,0,0,1.67,0v-6.7A.84.84,0,0,0,22.48,14.94Z"/><path class="cls-3" d="M27.5,2.38A25.12,25.12,0,1,0,52.62,27.5,25.12,25.12,0,0,0,27.5,2.38Zm0,48.56A23.44,23.44,0,1,1,50.94,27.5,23.43,23.43,0,0,1,27.5,50.94Z"/><path class="cls-3" d="M30.22,43.22a.86.86,0,0,0-.92-.76h0a16.11,16.11,0,0,1-3.54,0,.84.84,0,1,0-.2,1.66,17.3,17.3,0,0,0,3.94,0A.83.83,0,0,0,30.22,43.22Z"/><path class="cls-3" d="M40.31,16.71a.84.84,0,0,0-1.18-.1h0a.83.83,0,0,0-.1,1.18,15.07,15.07,0,0,1-.89,20.38.84.84,0,0,0,0,1.19.83.83,0,0,0,1.18,0A16.74,16.74,0,0,0,40.31,16.71Z"/><path class="cls-3" d="M31.45,11.22a16.94,16.94,0,0,0-9.86.61.84.84,0,0,0,.3,1.62.93.93,0,0,0,.29,0,15.13,15.13,0,0,1,8.88-.55.84.84,0,0,0,.39-1.63Z"/><path class="cls-3" d="M16.82,38.13a15.07,15.07,0,0,1-1.51-19.49.84.84,0,1,0-1.34-1v0a16.75,16.75,0,0,0,1.68,21.67.83.83,0,0,0,1.18,0A.84.84,0,0,0,16.82,38.13Z"/></g></svg>