<?xml version="1.0" encoding="utf-8"?>
<!-- Generator: Adobe Illustrator 25.0.0, SVG Export Plug-In . SVG Version: 6.00 Build 0)  -->
<svg version="1.1" id="Layer_1" xmlns="http://www.w3.org/2000/svg" xmlns:xlink="http://www.w3.org/1999/xlink" x="0px" y="0px"
	 viewBox="0 0 144.2 71.4" style="enable-background:new 0 0 144.2 71.4;" xml:space="preserve">
<style type="text/css">
	.st0{fill-rule:evenodd;clip-rule:evenodd;fill:#17A0DB;}
	.st1{fill-rule:evenodd;clip-rule:evenodd;fill:#FFFFFF;}
</style>
<g transform="matrix(1.04987 0 0 1.04987 137.132 99.4751)">
	<path class="st0" d="M-69.4-84.9c2.8-3,6.8-4.8,11.2-4.8c5.8,0,10.9,3.3,13.6,8.1c2.4-1.1,5.1-1.6,7.7-1.6
		c10.5,0,19.1,8.6,19.1,19.2s-8.5,19.2-19.1,19.2c-1.3,0-2.5-0.1-3.8-0.4c-2.4,4.3-6.9,7.1-12.2,7.1c-2.1,0-4.2-0.5-6.1-1.4
		c-2.4,5.7-8.1,9.7-14.6,9.7c-6.8,0-12.7-4.3-14.9-10.4c-1,0.2-2,0.3-3,0.3c-8.1,0-14.8-6.7-14.8-14.9c0-5.5,3-10.3,7.4-12.9
		c-0.9-2.1-1.4-4.5-1.4-6.8c0-9.5,7.7-17.1,17.2-17.1C-77.5-91.7-72.5-89-69.4-84.9"/>
	<g>
		<path class="st1" d="M-93.4-59.6c-0.1,0.1,0,0.2,0,0.2c0.2,0.1,0.3,0.2,0.5,0.3c0.9,0.5,1.8,0.6,2.6,0.6c1.8,0,2.9-1,2.9-2.5v0
			c0-1.4-1.3-2-2.5-2.3l-0.2,0c-0.9-0.3-1.7-0.5-1.7-1.1v0c0-0.5,0.5-0.9,1.2-0.9c0.8,0,1.7,0.3,2.3,0.6c0,0,0.2,0.1,0.2-0.1
			c0-0.1,0.3-0.9,0.4-1c0-0.1,0-0.2-0.1-0.2c-0.7-0.4-1.6-0.7-2.6-0.7h-0.2c-1.7,0-2.8,1-2.8,2.4v0c0,1.5,1.3,2,2.5,2.4l0.2,0.1
			c0.9,0.3,1.6,0.5,1.6,1.1v0c0,0.6-0.5,1-1.3,1c-0.3,0-1.3,0-2.3-0.7c-0.1-0.1-0.2-0.1-0.3-0.2c-0.1,0-0.2-0.1-0.2,0.1L-93.4-59.6z
			 M-66.8-59.6c-0.1,0.1,0,0.2,0,0.2c0.2,0.1,0.3,0.2,0.5,0.3c0.9,0.5,1.8,0.6,2.6,0.6c1.8,0,2.9-1,2.9-2.5v0c0-1.4-1.3-2-2.5-2.3
			l-0.2,0c-0.9-0.3-1.7-0.5-1.7-1.1v0c0-0.5,0.5-0.9,1.2-0.9c0.8,0,1.7,0.3,2.3,0.6c0,0,0.2,0.1,0.2-0.1c0-0.1,0.3-0.9,0.4-1
			c0-0.1,0-0.2-0.1-0.2c-0.7-0.4-1.6-0.7-2.6-0.7h-0.2c-1.7,0-2.8,1-2.8,2.4v0c0,1.5,1.3,2,2.5,2.4l0.2,0.1c0.9,0.3,1.6,0.5,1.6,1.1
			v0c0,0.6-0.5,1-1.3,1c-0.3,0-1.3,0-2.3-0.7c-0.1-0.1-0.2-0.1-0.3-0.2c0,0-0.2-0.1-0.2,0.1L-66.8-59.6z M-48.7-62.6
			c0,0.9-0.2,1.6-0.5,2.1c-0.3,0.5-0.8,0.7-1.5,0.7c-0.7,0-1.2-0.2-1.5-0.7c-0.3-0.5-0.5-1.2-0.5-2.1s0.2-1.6,0.5-2
			c0.3-0.5,0.8-0.7,1.5-0.7c0.7,0,1.2,0.2,1.5,0.7C-48.8-64.2-48.7-63.5-48.7-62.6 M-47.2-64.2c-0.1-0.5-0.4-0.9-0.7-1.3
			c-0.3-0.4-0.7-0.7-1.2-0.9c-0.5-0.2-1-0.3-1.6-0.3s-1.2,0.1-1.6,0.3s-0.9,0.5-1.2,0.9s-0.5,0.8-0.7,1.3c-0.1,0.5-0.2,1.1-0.2,1.6
			c0,0.6,0.1,1.1,0.2,1.6c0.1,0.5,0.4,0.9,0.7,1.3c0.3,0.4,0.7,0.7,1.2,0.9s1,0.3,1.6,0.3s1.2-0.1,1.6-0.3c0.5-0.2,0.9-0.5,1.2-0.9
			c0.3-0.4,0.5-0.8,0.7-1.3c0.1-0.5,0.2-1.1,0.2-1.6S-47-63.7-47.2-64.2 M-34.7-60.1c0-0.1-0.2-0.1-0.2-0.1
			c-0.2,0.1-0.5,0.2-0.7,0.2c-0.2,0-0.5,0.1-0.8,0.1c-0.7,0-1.3-0.2-1.7-0.6c-0.4-0.4-0.7-1.1-0.7-2.1c0-0.9,0.2-1.5,0.6-2
			c0.4-0.5,0.9-0.7,1.7-0.7c0.6,0,1.1,0.1,1.6,0.2c0,0,0.1,0.1,0.2-0.1c0.1-0.4,0.2-0.6,0.4-1c0-0.1-0.1-0.2-0.1-0.2
			c-0.2-0.1-0.7-0.2-1-0.3c-0.3,0-0.7-0.1-1.1-0.1c-0.6,0-1.2,0.1-1.7,0.3c-0.5,0.2-0.9,0.5-1.2,0.9c-0.3,0.4-0.6,0.8-0.7,1.3
			c-0.2,0.5-0.2,1.1-0.2,1.6c0,1.3,0.3,2.3,1,3c0.7,0.7,1.7,1.1,3,1.1c0.8,0,1.6-0.2,2.1-0.4c0,0,0.1-0.1,0.1-0.2L-34.7-60.1z
			 M-32.1-63.5c0.1-0.5,0.2-0.9,0.4-1.2c0.3-0.5,0.8-0.7,1.5-0.7s1.1,0.3,1.4,0.7c0.2,0.3,0.3,0.7,0.3,1.2H-32.1z M-27-64.5
			c-0.1-0.5-0.4-1-0.7-1.2c-0.3-0.4-0.7-0.6-1-0.7c-0.5-0.2-1-0.3-1.5-0.3c-0.6,0-1.2,0.1-1.7,0.3c-0.5,0.2-0.9,0.5-1.2,0.9
			c-0.3,0.4-0.5,0.8-0.7,1.3c-0.1,0.5-0.2,1.1-0.2,1.6c0,0.6,0.1,1.1,0.2,1.6c0.2,0.5,0.4,0.9,0.7,1.3c0.3,0.4,0.8,0.7,1.3,0.9
			s1.1,0.3,1.9,0.3c1.5,0,2.3-0.3,2.6-0.5c0.1,0,0.1-0.1,0-0.2l-0.3-0.9c-0.1-0.1-0.2-0.1-0.2-0.1c-0.4,0.1-0.9,0.4-2.1,0.4
			c-0.8,0-1.4-0.2-1.8-0.6c-0.4-0.4-0.6-0.9-0.6-1.7h5.1c0,0,0.1,0,0.1-0.1C-26.8-62.4-26.7-63.4-27-64.5L-27-64.5z M-73.1-63.5
			c0.1-0.5,0.2-0.9,0.4-1.2c0.3-0.5,0.8-0.7,1.5-0.7c0.7,0,1.1,0.3,1.4,0.7c0.2,0.3,0.3,0.7,0.3,1.2H-73.1z M-68-64.5
			c-0.1-0.5-0.4-1-0.7-1.2c-0.3-0.4-0.7-0.6-1-0.7c-0.5-0.2-1-0.3-1.5-0.3c-0.6,0-1.2,0.1-1.7,0.3c-0.5,0.2-0.9,0.5-1.2,0.9
			c-0.3,0.4-0.5,0.8-0.7,1.3c-0.1,0.5-0.2,1.1-0.2,1.6c0,0.6,0.1,1.1,0.2,1.6c0.2,0.5,0.4,0.9,0.7,1.3c0.3,0.4,0.8,0.7,1.3,0.9
			c0.5,0.2,1.1,0.3,1.9,0.3c1.5,0,2.3-0.3,2.6-0.5c0.1,0,0.1-0.1,0-0.2l-0.3-0.9c-0.1-0.1-0.2-0.1-0.2-0.1c-0.4,0.1-0.9,0.4-2.1,0.4
			c-0.8,0-1.4-0.2-1.8-0.6c-0.4-0.4-0.6-0.9-0.6-1.7h5.1c0,0,0.1,0,0.1-0.1C-67.9-62.4-67.7-63.4-68-64.5z M-84.2-60.1
			c-0.2-0.2-0.2-0.2-0.3-0.3c-0.1-0.2-0.2-0.4-0.2-0.7c0-0.5,0.1-0.8,0.5-1c0,0,0.4-0.4,1.5-0.4c0.5,0,0.9,0,1.4,0.1v2.3l0,0
			c0,0-0.7,0.1-1.4,0.2C-83.8-59.7-84.2-60.1-84.2-60.1L-84.2-60.1z M-82.2-63.7c-0.2,0-0.5,0-0.8,0c-0.4,0-0.9,0.1-1.3,0.2
			c-0.4,0.1-0.8,0.3-1.1,0.5c-0.3,0.2-0.6,0.5-0.7,0.8c-0.2,0.3-0.3,0.7-0.3,1.2c0,0.5,0.1,0.8,0.2,1.2c0.2,0.3,0.4,0.6,0.7,0.8
			c0.3,0.2,0.6,0.4,1,0.5c0.4,0.1,0.9,0.1,1.4,0.1c0.5,0,1.1,0,1.6-0.1c0.4-0.1,0.9-0.2,1.3-0.2c0.2,0,0.4-0.1,0.4-0.1
			c0.1,0,0.1-0.2,0.1-0.2v-4.7c0-1-0.3-1.8-0.8-2.3c-0.5-0.5-1.3-0.7-2.4-0.7c-0.4,0-1,0.1-1.4,0.1c0,0-1.1,0.2-1.6,0.6
			c0,0-0.1,0.1,0,0.2l0.4,1c0,0.1,0.2,0.1,0.2,0.1s0,0,0.1,0c1-0.5,2.2-0.5,2.2-0.5c0.6,0,1,0.1,1.3,0.3c0.3,0.2,0.4,0.5,0.4,1.2
			v0.2C-81.8-63.7-82.2-63.7-82.2-63.7z M-40.8-66.3C-40.8-66.4-40.8-66.4-40.8-66.3c0-0.1,0-0.2-0.1-0.2c-0.1,0-0.5-0.1-0.9-0.1
			c-0.6,0-1,0.1-1.3,0.2s-0.7,0.4-0.9,0.6v-0.6c0-0.1-0.1-0.2-0.1-0.2h-1.3c-0.1,0-0.1,0.1-0.1,0.2v7.6c0,0.1,0.1,0.2,0.2,0.2h1.3
			c0.1,0,0.2-0.1,0.2-0.2v-3.8c0-0.5,0.1-1,0.2-1.3c0.1-0.3,0.3-0.6,0.5-0.8c0.2-0.2,0.4-0.3,0.6-0.4c0.2-0.1,0.5-0.1,0.7-0.1
			c0.3,0,0.6,0.1,0.6,0.1c0.1,0,0.2,0,0.2-0.1C-41.1-65.5-40.9-66.2-40.8-66.3"/>
		<path class="st1" d="M-53.5-69.9c-0.2,0-0.3-0.1-0.5-0.1c-0.2,0-0.5-0.1-0.7-0.1c-0.9,0-1.7,0.3-2.2,0.8c-0.5,0.5-0.9,1.3-1,2.3
			l-0.1,0.4h-1.2c0,0-0.1,0-0.2,0.1l-0.2,1.1c0,0.1,0,0.2,0.2,0.2h1.1l-1.2,6.4c-0.1,0.5-0.2,0.9-0.3,1.3c-0.1,0.3-0.2,0.6-0.4,0.7
			c-0.1,0.2-0.3,0.3-0.5,0.4c-0.2,0.1-0.4,0.1-0.6,0.1c-0.1,0-0.3,0-0.4,0c-0.1,0-0.2-0.1-0.3-0.1c0,0-0.1,0-0.2,0.1
			c0,0.1-0.3,0.9-0.4,1c0,0.1,0,0.2,0.1,0.2c0.1,0.1,0.3,0.1,0.5,0.1C-61.5-55-61.2-55-61-55c0.5,0,0.9-0.1,1.3-0.2
			c0.4-0.1,0.7-0.4,0.9-0.7c0.3-0.3,0.5-0.7,0.7-1.1c0.2-0.5,0.3-1.1,0.5-1.7l1.2-6.5h1.7c0,0,0.1,0,0.2-0.1l0.2-1.1
			c0-0.1,0-0.2-0.2-0.2h-1.6c0,0,0.1-0.6,0.3-1.2c0.1-0.2,0.2-0.4,0.4-0.5c0.1-0.1,0.3-0.2,0.4-0.3c0.2-0.1,0.4-0.1,0.6-0.1
			c0.2,0,0.3,0,0.4,0c0.2,0,0.2,0.1,0.3,0.1c0.2,0.1,0.2,0,0.2-0.1l0.4-1.1C-53.3-69.8-53.4-69.9-53.5-69.9 M-76.4-58.8
			c0,0.1-0.1,0.2-0.1,0.2h-1.4c-0.1,0-0.1-0.1-0.1-0.2v-10.9c0-0.1,0.1-0.2,0.1-0.2h1.4c0.1,0,0.1,0.1,0.1,0.2V-58.8z"/>
	</g>
</g>
</svg>
