<?xml version="1.0" encoding="UTF-8"?> <svg xmlns="http://www.w3.org/2000/svg" xmlns:xlink="http://www.w3.org/1999/xlink" width="146px" height="22px" viewBox="0 0 146 22"><!-- Generator: Sketch 52.2 (67145) - http://www.bohemiancoding.com/sketch --><title>logo-saltstack</title><desc>Created with Sketch.</desc><g id="Home" stroke="none" stroke-width="1" fill="none" fill-rule="evenodd"><g id="001-HomePage-Post-animate1" transform="translate(-89.000000, -64.000000)" fill="#FFFFFF" fill-rule="nonzero"><path d="M113.511654,66.9943757 L117.767183,66.9943757 L124.138374,85.4011249 L120.057133,85.4011249 L118.871007,81.6197975 L112.238384,81.6197975 L111.018369,85.4011249 L107.082368,85.4011249 L113.511654,66.9943757 Z M113.264746,78.4472441 L117.873693,78.4472441 L115.598268,71.2013498 L113.264746,78.4472441 Z M125.852205,66.9943757 L129.613918,66.9943757 L129.613918,82.0949381 L138.609109,82.0949381 L138.609109,85.4011249 L125.852205,85.4011249 L125.852205,66.9943757 Z M150.518781,66.9943757 L150.518781,70.2510686 L145.130381,70.2510686 L145.130381,85.4011249 L141.344461,85.4011249 L141.344461,70.2510686 L135.931854,70.2510686 L135.931854,66.9943757 L150.518781,66.9943757 Z M181.241862,66.9943757 L181.241862,70.2510686 L175.858303,70.2510686 L175.858303,85.4011249 L172.067542,85.4011249 L172.067542,70.2510686 L166.654935,70.2510686 L166.654935,66.9943757 L181.241862,66.9943757 Z M186.025096,66.9943757 L190.285467,66.9943757 L196.656657,85.4011249 L192.575416,85.4011249 L191.38929,81.6197975 L184.756668,81.6197975 L183.536653,85.4011249 L179.600651,85.4011249 L186.025096,66.9943757 Z M185.778189,78.4472441 L190.391976,78.4472441 L188.116551,71.2013498 L185.778189,78.4472441 Z M199.338754,69.0335208 C200.761376,67.4870343 202.752362,66.6200953 204.828822,66.6429696 C207.823992,66.5769779 210.03648,67.5454068 211.466286,69.5482565 C212.20337,70.5383323 212.654511,71.7196467 212.768604,72.9583802 L209.00689,73.0375703 C208.823052,72.3157132 208.4932,71.6412849 208.038624,71.0578178 C207.253756,70.2421171 206.151222,69.8312562 205.037,69.9392576 C203.763228,69.9309929 202.57613,70.5977194 201.899818,71.7012373 C201.151025,72.8362955 200.795994,74.4349456 200.834725,76.4971879 C200.873456,78.5594301 201.314017,80.0970379 202.156408,81.1100112 C202.912702,82.0882291 204.079562,82.6396476 205.298431,82.5948256 C206.428212,82.636618 207.508862,82.1210592 208.20323,81.2089989 C208.638356,80.5596537 208.941298,79.8274769 209.094034,79.056018 L212.831541,78.9718785 C212.614568,80.8495249 211.777767,82.595397 210.459289,83.9212598 C209.091659,85.2300048 207.277844,85.9404635 205.404941,85.9010124 C202.842263,85.9538058 200.810518,85.1487064 199.309706,83.4857143 C197.808894,81.8227222 197.027826,79.4981627 196.966502,76.512036 C196.914862,73.3048369 197.705612,70.8119985 199.338754,69.0335208 Z M215.063394,66.9943757 L218.747646,66.9943757 L218.747646,74.5768279 L225.719162,66.9943757 L230.584699,66.9943757 L223.191987,74.5619798 L230.962322,85.4011249 L226.120992,85.4011249 L220.577669,77.3633296 L218.747646,79.2440945 L218.747646,85.4011249 L215.04887,85.4011249 L215.063394,66.9943757 Z M96.5766816,70.1718785 L96.5766816,66.7419573 C97.3937064,66.5575732 98.2284563,66.4679184 99.0651253,66.4746907 C100.826655,66.4247479 102.55526,66.9691661 103.983917,68.023847 C105.348762,69.0759385 106.140233,70.7309884 106.114102,72.4782902 L102.497628,72.4782902 C102.49788,71.4712793 101.933177,70.5533625 101.045229,70.1174353 C100.344248,69.7842655 99.5762666,69.6248672 98.8036934,69.6521935 C98.0294666,69.6210626 97.2610116,69.8003857 96.5766816,70.1718785 Z M105.078057,76.2596175 C106.183071,77.1806715 106.783775,78.591466 106.69022,80.0458943 C106.718998,81.6674359 106.015327,83.2120861 104.782736,84.2330709 C103.51108,85.3450319 101.714947,85.9010124 99.3943357,85.9010124 C97.0253115,85.904312 95.1597857,85.3565804 93.7977581,84.2578178 C92.4468087,83.1766842 91.6880823,81.4963944 91.7595582,79.743982 L95.3324598,79.743982 C95.386903,80.42539 95.6248512,81.0780773 96.0199286,81.6296963 C96.6444602,82.3869516 97.7095528,82.768054 99.2248892,82.768054 C99.9719857,82.7918359 100.717822,82.6898372 101.432536,82.4661417 C102.507311,82.0850394 103.039857,81.3723285 103.039857,80.3329584 C103.070872,79.7451054 102.777378,79.1889734 102.279768,78.8926884 C101.494671,78.4734848 100.650066,78.182883 99.7768008,78.0314961 L97.8402687,77.5910011 C95.9263296,77.1587552 94.6111016,76.6885639 93.8945847,76.1804274 C92.6810246,75.3291339 92.0742446,74.0010499 92.0742446,72.1961755 C92.0742446,72.0427447 92.0742446,71.8992126 92.0742446,71.7507312 L95.5357956,71.7507312 C95.5357956,71.8101237 95.5357956,71.8596175 95.5357956,71.9190101 C95.5107911,72.548658 95.8555627,73.1328564 96.4120764,73.4038245 C97.178087,73.7495838 97.980616,74.0036877 98.8036934,74.1610799 L101.965082,74.9232846 C103.083593,75.1383585 104.144663,75.5938531 105.078057,76.2596175 Z M155.592495,70.3005624 L155.592495,66.8755906 C156.40952,66.6912064 157.24427,66.6015517 158.080939,66.608324 C159.840419,66.5569305 161.567442,67.0996469 162.994889,68.1525309 C164.365318,69.2003952 165.159672,70.8577065 165.129916,72.6069741 L161.513442,72.6069741 C161.509055,71.601336 160.945771,70.6857265 160.061043,70.2461192 C159.35989,69.9134825 158.592035,69.7541103 157.819507,69.7808774 C157.045172,69.7485525 156.276416,69.927946 155.592495,70.3005624 Z M164.093871,76.3734533 C165.193119,77.2903431 165.793199,78.6923031 165.706034,80.1399325 C165.73195,81.7622538 165.028977,83.307195 163.79855,84.3320585 C162.52528,85.4407199 160.772719,86 158.405308,86 C156.037898,86 154.169144,85.4506187 152.813572,84.3568054 C151.4612,83.2746382 150.702312,81.5921484 150.775372,79.8380202 L154.357956,79.8380202 C154.40875,80.510126 154.638084,81.1552977 155.021218,81.703937 C155.640909,82.4661417 156.710843,82.8422947 158.226179,82.8422947 C158.972876,82.8649502 159.718277,82.7646821 160.433825,82.5453318 C161.505373,82.1592801 162.041147,81.4465692 162.041147,80.4071991 C162.056422,79.8232421 161.752092,79.2792564 161.25201,78.9966254 C160.469025,78.5764646 159.625861,78.2857963 158.753884,78.1354331 L156.817352,77.6949381 C154.900185,77.2742407 153.588185,76.7793026 152.871668,76.2843645 C151.656494,75.4380202 151.046486,74.1066367 151.046486,72.3001125 C151.046486,72.151631 151.070693,72.0031496 151.070693,71.8546682 L154.551609,71.8546682 C154.551609,71.9140607 154.551609,71.9635546 154.551609,72.0278965 C154.525305,72.6578846 154.870476,73.2427597 155.42789,73.5127109 C156.192522,73.8633434 156.995429,74.1192287 157.819507,74.2749156 L160.980896,75.0371204 C162.098438,75.255482 163.158859,75.7106978 164.093871,76.3734533 Z M89,64 L93.7687101,64 L93.7687101,68.8751406 L89,68.8751406 L89,64 Z M234.143076,84.0152981 C234.089293,84.0996974 234.0116,84.1653109 233.920375,84.2033746 L234.288316,84.9061867 L233.983312,84.9061867 L233.654102,84.2578178 L233.334574,84.2578178 L233.334574,84.9061867 L233.048936,84.9061867 L233.048936,83.2233971 L233.629895,83.2233971 C233.715051,83.2217156 233.799955,83.2334 233.881644,83.2580427 C233.948849,83.2755558 234.011588,83.3076255 234.065615,83.352081 C234.11654,83.3942596 234.156458,83.4486718 234.181807,83.5104612 C234.210406,83.5809393 234.223623,83.6569466 234.220537,83.7331834 C234.225114,83.8332965 234.197946,83.9322441 234.143076,84.0152981 Z M233.857438,83.9460067 C233.890735,83.9188006 233.913126,83.8800627 233.920375,83.8371204 C233.928079,83.7995838 233.928079,83.7608211 233.920375,83.7232846 C233.92542,83.6855146 233.92542,83.6472188 233.920375,83.6094488 C233.905675,83.5753328 233.886096,83.5436404 233.862279,83.5154106 C233.834083,83.4905404 233.801097,83.4719933 233.765452,83.4609674 C233.720627,83.4527158 233.67472,83.4527158 233.629895,83.4609674 L233.334574,83.4609674 L233.334574,84.0053993 L233.629895,84.0053993 C233.674921,84.0108994 233.720427,84.0108994 233.765452,84.0053993 C233.799982,83.9926926 233.831377,83.9724218 233.857438,83.9460067 Z M233.61053,82.6492688 C234.376805,82.6519842 234.997335,83.2863635 234.999992,84.0697413 C235.001949,84.6471665 234.662958,85.1687562 234.141505,85.3906528 C233.620053,85.6125494 233.019166,85.4909113 232.619776,85.0826075 C232.220386,84.6743038 232.101403,84.060006 232.318455,83.5269152 C232.535508,82.9938245 233.045711,82.6472673 233.61053,82.6492688 Z M233.61053,85.2575928 L233.61053,85.2823397 C233.921676,85.2797439 234.218919,85.1501989 234.436196,84.9224963 C234.653473,84.6947936 234.772783,84.3877988 234.767608,84.0697413 C234.767604,83.5888507 234.483984,83.1554071 234.04921,82.971844 C233.614436,82.7882809 233.114296,82.8908189 232.782374,83.2315691 C232.450452,83.5723192 232.352241,84.084045 232.533611,84.5277523 C232.71498,84.9714596 233.140142,85.2595965 233.61053,85.2575928 Z" id="logo-saltstack"></path></g></g></svg> 