<?xml version="1.0" encoding="utf-8"?>
<!-- Generator: Adobe Illustrator 25.0.0, SVG Export Plug-In . SVG Version: 6.00 Build 0)  -->
<svg version="1.1" id="Layer_1" xmlns="http://www.w3.org/2000/svg" xmlns:xlink="http://www.w3.org/1999/xlink" width="175" height="70" x="0px" y="0px"
	 viewBox="0 0 144.2 71.4" style="enable-background:new 0 0 144.2 71.4;" xml:space="preserve">
<style type="text/css">
	.st0{fill:#27B7EA;}
	.st1{fill-rule:evenodd;clip-rule:evenodd;fill:#FFFFFF;}
</style>
<g>
	<path class="st0" d="M11.9,0v59.5h60.8L132.2,0L11.9,0L11.9,0z"/>
	<path class="st0" d="M88.9,53.4v4.4h0.7v-1.9h0.8l1.2,1.9h0.8L91,55.9c0.6-0.1,1.2-0.5,1.2-1.3c0-0.9-0.5-1.3-1.6-1.3H88.9z
		 M89.6,54h0.9c0.4,0,1,0.1,1,0.6c0,0.7-0.5,0.8-1.1,0.8h-0.8C89.6,55.4,89.6,54,89.6,54z M90.5,51.8c-2.1,0-3.9,1.6-3.9,3.9
		c0,2.2,1.8,3.9,3.9,3.9c2.1,0,3.9-1.7,3.9-3.9C94.3,53.4,92.5,51.8,90.5,51.8L90.5,51.8z M90.5,52.4c1.7,0,3.1,1.4,3.1,3.2
		c0,1.9-1.4,3.2-3.1,3.2c-1.8,0-3.2-1.4-3.2-3.2C87.3,53.8,88.7,52.4,90.5,52.4z"/>
	<path class="st1" d="M84,28.5h-2.6v-9.5H84c3.5,0,6.3,1.1,6.3,4.7C90.3,27.3,87.5,28.5,84,28.5 M56,35.3c-1.4,0-2.7-0.2-3.8-0.7
		l3.8-11.8H56l3.7,11.9C58.6,35,57.3,35.3,56,35.3 M83.3,11.2H71.5v28.2L61.1,11.2H50.9l-8.8,23.5c-0.9-5.9-7.1-8-11.9-9.5
		c-3.2-1-6.6-2.5-6.5-4.2c0-1.4,1.8-2.6,5.4-2.4c2.4,0.1,4.5,0.3,8.7,2.3l4.1-7.2c-3.8-1.9-9.1-3.2-13.4-3.2h0
		c-5,0-9.2,1.6-11.8,4.3c-1.8,1.9-2.8,4.3-2.8,6.9c-0.1,3.6,1.3,6.2,4.1,8.3c2.4,1.7,5.4,2.8,8.1,3.7c3.3,1,6,1.9,5.9,3.8
		c0,0.7-0.3,1.3-0.8,1.8c-0.8,0.8-2.1,1.2-3.8,1.2c-3.4,0.1-5.8-0.5-9.8-2.8L13.6,45c4,2.2,8.6,3.6,13.4,3.6h0.6
		c4.2-0.1,7.5-1.3,10.2-3.4l0.4-0.4L37.1,48h10.7l1.8-5.5c1.9,0.6,4,1,6.3,1c2.2,0,4.3-0.3,6.2-0.9l1.7,5.4h17.5V36.6h3.8
		c9.2,0,14.7-4.7,14.7-12.6C100,15.2,94.7,11.2,83.3,11.2"/>
</g>
</svg>
