<svg id="Layer_1" data-name="Layer 1" xmlns="http://www.w3.org/2000/svg" xmlns:xlink="http://www.w3.org/1999/xlink" viewBox="0 0 73 102"><defs><style>.cls-1{fill:none;}.cls-2{clip-path:url(#clip-path);}.cls-3{clip-path:url(#clip-path-3);}.cls-4{fill:#eae3dd;}.cls-5{fill:#93828a;}.cls-6{fill:#846f7a;}.cls-7{font-size:12px;font-family:ArialRoundedMTBold, Arial Rounded MT Bold;}.cls-11,.cls-7{fill:#fff;}.cls-8{letter-spacing:-0.02em;}.cls-9{letter-spacing:-0.01em;}.cls-10{fill:#3d9635;}</style><clipPath id="clip-path"><rect class="cls-1" width="72.98" height="101.77"/></clipPath><clipPath id="clip-path-3"><rect class="cls-1" width="72.98" height="101.77"/></clipPath></defs><g class="cls-2"><g class="cls-2"><g class="cls-3"><path class="cls-4" d="M56.17,98.87a2.91,2.91,0,0,1,2,.85,2.87,2.87,0,0,1,.85,2h4a2.9,2.9,0,0,1,5.79-.12v.12H73V98.05a2.9,2.9,0,0,1-1.45-5.41A2.94,2.94,0,0,1,73,92.25v-4a2.89,2.89,0,0,1-.12-5.78H73V78.38a2.89,2.89,0,0,1-.12-5.78H73v-4a2.94,2.94,0,0,1-1.45-.39,2.91,2.91,0,0,1-1.06-1.06A2.9,2.9,0,0,1,73,62.76v-4a2.9,2.9,0,0,1-.12-5.79H73v-4a2.9,2.9,0,0,1,0-5.8v-4a2.9,2.9,0,0,1,0-5.8v-4a2.9,2.9,0,0,1,0-5.8v-4a2.9,2.9,0,0,1,0-5.8v-4a2.89,2.89,0,0,1-.12-5.78H73V0H68.9a2.91,2.91,0,0,1-.85,2.05,2.88,2.88,0,0,1-2,.85,2.91,2.91,0,0,1-2.06-.85,2.86,2.86,0,0,1-.84-2H59.05a2.86,2.86,0,0,1-.84,2.05,2.91,2.91,0,0,1-2.06.85,2.77,2.77,0,0,1-1.1-.22,2.8,2.8,0,0,1-.94-.62,2.83,2.83,0,0,1-.63-.94A3,3,0,0,1,53.25,0h-4a2.91,2.91,0,0,1-.85,2.06,2.9,2.9,0,0,1-2,.84,2.93,2.93,0,0,1-2.05-.84A3,3,0,0,1,43.41,0h-4a2.94,2.94,0,0,1-.84,2.06,2.93,2.93,0,0,1-2.05.84,2.94,2.94,0,0,1-2.06-.84A2.94,2.94,0,0,1,33.58,0h-4a2.9,2.9,0,0,1-.84,2.06,2.9,2.9,0,0,1-2.06.84,2.88,2.88,0,0,1-2.05-.83A2.92,2.92,0,0,1,23.72,0h-4a2.88,2.88,0,0,1-.85,2.05,2.9,2.9,0,0,1-4.1,0,2.92,2.92,0,0,1-.85-2h-4a2.88,2.88,0,0,1-.85,2,2.87,2.87,0,0,1-2,.84,2.93,2.93,0,0,1-2-.85,2.88,2.88,0,0,1-.83-2H0V3.72a2.87,2.87,0,0,1,2.05.85,2.9,2.9,0,0,1,0,4.1,2.87,2.87,0,0,1-2,.85v4a2.91,2.91,0,0,1,2.05.85,2.88,2.88,0,0,1,.85,2.05,2.93,2.93,0,0,1-.84,2.05,2.83,2.83,0,0,1-.94.63,2.77,2.77,0,0,1-1.1.22v4a2.88,2.88,0,0,1,2.05.85,2.91,2.91,0,0,1,.85,2.05,2.92,2.92,0,0,1-.85,2.05,2.92,2.92,0,0,1-2,.85v4a2.88,2.88,0,0,1,2.05.85,2.91,2.91,0,0,1,.85,2,2.9,2.9,0,0,1-.87,2A2.85,2.85,0,0,1,0,39v4a2.91,2.91,0,0,1,2.05.85A2.88,2.88,0,0,1,2.9,46v0A2.88,2.88,0,0,1,2.05,48a2.91,2.91,0,0,1-2,.85v4a2.87,2.87,0,0,1,2.05.85,2.87,2.87,0,0,1,.85,2.05,2.82,2.82,0,0,1-.22,1.11,3,3,0,0,1-.63.94,3,3,0,0,1-.94.63A3,3,0,0,1,0,58.71v4a2.91,2.91,0,0,1,2.05.85,2.88,2.88,0,0,1,.85,2.05,3,3,0,0,1-.22,1.11,2.84,2.84,0,0,1-.63.93,3,3,0,0,1-.94.63A3,3,0,0,1,0,68.53v4a2.91,2.91,0,0,1,2.05.85,2.88,2.88,0,0,1,.85,2v0a3,3,0,0,1-.22,1.1,3,3,0,0,1-.63.94,2.8,2.8,0,0,1-.94.62A2.82,2.82,0,0,1,0,78.37v4a2.91,2.91,0,0,1,2.05.85,2.88,2.88,0,0,1,.85,2,2.93,2.93,0,0,1-.84,2,3,3,0,0,1-.94.63,2.77,2.77,0,0,1-1.1.22v4.05a2.85,2.85,0,0,1,1.11.22,2.83,2.83,0,0,1,.94.63,2.88,2.88,0,0,1,.63.94,3,3,0,0,1,.22,1.11,3,3,0,0,1-.22,1.11,3,3,0,0,1-.63.94,3,3,0,0,1-.94.63A3,3,0,0,1,0,98.06v3.72H4.1a2.91,2.91,0,0,1,.85-2,2.9,2.9,0,0,1,4.1,0,2.91,2.91,0,0,1,.85,2h4a2.9,2.9,0,0,1,2.9-2.9,2.9,2.9,0,0,1,2.9,2.9h4a2.89,2.89,0,0,1,5.78-.12v.12h4.05a2.9,2.9,0,1,1,5.79,0h4.05a2.9,2.9,0,0,1,2.9-2.9,2.77,2.77,0,0,1,1.1.22,2.84,2.84,0,0,1,.93.63,2.8,2.8,0,0,1,.62.94,3,3,0,0,1,.21,1.11h4a2.9,2.9,0,0,1,2.9-2.9Z"/><path class="cls-5" d="M6.39,6.19H66.6V95.58H6.39Z"/><path class="cls-6" d="M66.17,6.62V95.15H6.82V6.62ZM67,5.76H6V96H67Z"/></g></g></g><text class="cls-7" transform="translate(17.28 25.9)">Saudi<tspan x="0" y="14.4">A</tspan><tspan class="cls-8" x="8.63" y="14.4">r</tspan><tspan class="cls-9" x="13.59" y="14.4">a</tspan><tspan x="20.56" y="14.4">bia</tspan></text><path class="cls-10" d="M13.1,47.41H59.9V78.12H13.1Z"/><path class="cls-11" d="M21.82,54.07c-.07,1.08-.16,3,.65,3.17,1,.1.44-1.87.8-2.23.06-.17.19-.17.2.05v1.68a.78.78,0,0,0,.56.81c.26,0,.43,0,.53.27l.12,2.9s.6.2.63-1.63a17.58,17.58,0,0,1-.07-2.18c0-.2.23-.22.4-.11s.37.45.77.35c.61-.19,1-.51,1-1a5,5,0,0,0-.28-1.5c0-.09-.12-.32-.08-.42.1.2.27.18.3,0a1.48,1.48,0,0,0-.52-.9c-.21-.22-.53-.17-.65.28a2.72,2.72,0,0,0,.5,1.61,1.73,1.73,0,0,1,.13.81.38.38,0,0,1-.5-.11s-.49-.42-.49-.5a2.18,2.18,0,0,0,0-1.29,1.6,1.6,0,0,0-.32-.7c-.12-.16-.28-.16-.36,0a2.7,2.7,0,0,0,0,1.71c.1.36.28.59.2.59-.07.21-.21.16-.3-.08A6.35,6.35,0,0,1,24.85,54c-.05-.41-.1-1.3-.34-1.53s-.36-.11-.44.11a9.51,9.51,0,0,0,0,1.19,15.79,15.79,0,0,1,.3,1.93c0,.91-.47.4-.44-.06a4.84,4.84,0,0,0,0-1.74c-.08-.24-.18-.3-.37-.25s-.55.47-.66,1.27a7.45,7.45,0,0,0-.14.8c-.06.41-.3.7-.47-.07-.14-.56-.24-1.94-.48-1.62"/><path class="cls-11" d="M24.49,58.48c-.87.49-1.71.93-2.57,1.39A2.74,2.74,0,0,1,24,58c.53,0,.39.23.54.46"/><path class="cls-11" d="M27.75,52.4a.52.52,0,0,0-.16.06.53.53,0,0,0-.34.67c.24,1.69.4,3,.65,4.66,0,.2-.11.45-.29.43-.33-.24-.41-.75-1-.73a1.14,1.14,0,0,0-.91,1,2.55,2.55,0,0,0,0,1.1.75.75,0,0,0,.91.26c.24-.11.44-.39.53-.32s0,1-1.14,1.66c-.7.35-1.26.44-1.56-.2-.18-.41,0-1.93-.44-1.58-1.35,3.91,3.16,4.46,3.66.16,0-.12.13-.24.2-.21s.06.06.07.16c-.11,3.88-3.49,4.14-4.06,2.92a3.9,3.9,0,0,1-.2-1.31.69.69,0,0,0-.15-.44c-.13-.11-.32.19-.36.71a5.92,5.92,0,0,0,0,.94c.18,3.09,4.53,1.76,5.25-.78a10.4,10.4,0,0,0,.11-2.43h0c.44.52,1,.06,1.17-.12a.19.19,0,0,1,.26-.07l0,0a.66.66,0,0,0,.93-.1.57.57,0,0,0,.12-.23,12,12,0,0,0,.15-1.46,1.07,1.07,0,0,0-.47.22.09.09,0,0,0,0,.07l-.06.41s0,0,0,0,0,0,0,0a.15.15,0,0,1-.2,0,.14.14,0,0,1,0-.06c-.11-.53-.53-.61-.8.22-.18.16-.49.19-.53,0,.05-.56-.15-.63-.55-.38-.13-1.1-.26-2.15-.39-3.25.17,0,.32.14.47-.07a6.51,6.51,0,0,0-.71-1.87l0,0h0l0,0a.06.06,0,0,0-.06,0m-1.21,6a.23.23,0,0,1,.24.17.33.33,0,0,1-.05.29c0,.07-.15,0-.24,0a.21.21,0,0,1-.21-.12c0-.1.06-.2.1-.28v0a.26.26,0,0,1,.15-.07"/><path class="cls-11" d="M30.8,52.31a.85.85,0,0,0-.31.09.73.73,0,0,0-.1.88c.17.08.34.28.23.38-.49.59-1.75,1.56-1.81,1.74h0a3,3,0,0,0,.94,0h0a13.73,13.73,0,0,0,1.56-1.76l-.2-.18a.12.12,0,0,1,0-.17s0,0,0,0a.64.64,0,0,0,.06-.88.76.76,0,0,0-.39-.08m-.06.5c.08,0,.17.09.22.2s0,.24-.05.27-.19-.07-.24-.19,0-.25.06-.27h0"/><path class="cls-11" d="M22,61.26a3.15,3.15,0,0,0-.26,2.53.52.52,0,0,0,.54.2,1.18,1.18,0,0,0,.36-1.08c-.1-.19-.18-.22-.28-.06-.21.48-.3.15-.32-.13a7.74,7.74,0,0,1,.06-1.36c.05-.37,0-.26-.11-.11"/><path class="cls-11" d="M42.58,59.88c-.46-1.13-1.11-2.24-1.32-2.66s-1.76-2.95-2-3.25c-.51-.67.82.29-.17-1-.37-.36-.39-.38-.71-.67-.15-.13-.54-.35-.6,0a2.15,2.15,0,0,0,0,.8,2.44,2.44,0,0,0,.4.68,52.15,52.15,0,0,1,4.3,7.78c.21-.11.17-1.45,0-1.64"/><path class="cls-11" d="M40.54,63.64c-.1.11.22.62.63.61.69-.08,1.3-.53,1.86-1.67a3.34,3.34,0,0,0,.43-1.29A31.57,31.57,0,0,0,43,54.78a1.14,1.14,0,0,1,0-.45c0-.06.19,0,.28-.14s-.31-1.26-.56-1.69c-.09-.2-.12-.33-.26,0a2.78,2.78,0,0,0-.25,1.24c.33,2.55.43,4.8.65,7.36a1.11,1.11,0,0,1-.16.75,6.45,6.45,0,0,1-2.17,1.78"/><path class="cls-11" d="M48.44,67.38c-.5.32-.5.7-.1.71A2.37,2.37,0,0,0,50.41,67a4.21,4.21,0,0,0,.34-1.44,38.4,38.4,0,0,0-.38-7,3.7,3.7,0,0,1-.07-.66c.05-.12.27,0,.35-.13s-.58-1.15-.83-1.58c-.08-.19-.11-.32-.26,0a2.21,2.21,0,0,0-.14,1.22,75.26,75.26,0,0,1,.69,7.94A2.9,2.9,0,0,1,50,66a4.94,4.94,0,0,1-.67.89c-.23.19-.71.37-.87.51"/><path class="cls-11" d="M50.22,61.14c0-.65,0-1.21,0-1.7s-.22-2.31-.28-2.69-.13-1-.23-1.45a4.67,4.67,0,0,1-.08-.83c0-.13.19,0,.26-.15a5.48,5.48,0,0,0-.65-2c-.09-.19-.26-.13-.46.19s-.13.66-.06,1.1a44.7,44.7,0,0,1,.79,8.72c0,.23.73-.71.72-1.15"/><path class="cls-11" d="M46.57,57.54c-.31,0-1-.68-1.16-1.08a.83.83,0,0,1,0-.58c.12-.09.29-.19.42-.09S46,56,46,56c.16.09.24,0,.26,0s-.06-.22-.06-.36c.08-.42.49-.47.65-.21a1.58,1.58,0,0,1,.17.71c0,.12-.17,0-.26,0s-.12.15-.13.26c0,.3,0,.77,0,1.13"/><path class="cls-11" d="M40.82,61.86c.09-.89,0-2.69,0-3.21,0-1.23-.21-3.61-.29-4-.1-.75.27.08.22-.36a5.26,5.26,0,0,0-.92-1.94c-.14-.22-.14-.26-.35.06a2.59,2.59,0,0,0,0,1.51,30.6,30.6,0,0,1,.59,4.37,42.43,42.43,0,0,1,0,4.65c.24,0,.62-.44.75-1.07"/><path class="cls-11" d="M51.28,60.44c-.54-1-1.38-2.25-1.59-2.66s-2.1-3.5-2.34-3.78c-.68-.8.32-.13-.12-.76a6.17,6.17,0,0,0-.81-.88c-.16-.11-.27-.34-.32,0a8.47,8.47,0,0,0,0,1,1.28,1.28,0,0,0,.27.62,58.16,58.16,0,0,1,4.92,8c.21-.11.14-1.45,0-1.63"/><path class="cls-11" d="M44.64,70.28a.53.53,0,0,0-.36.67.5.5,0,0,0,.2.29c-5.13,0-13-.09-14.68-.09-.95,0-3.93-.13-4-.13a2.89,2.89,0,0,0,2.78,1.28l15.83,0a1.31,1.31,0,0,0,.19,1.24h0s0,0,0,0h0c.2.06.29-.11.36-.22a19.61,19.61,0,0,0,2.3,0c.11.18.22.35.44.33s.66-.14.68-1c0,0,0-1.45-.89-1.36l-.77.09c-.65-.08-1.13-.09-1.87-.12.07-.09.19-.49.05-.63a.24.24,0,0,0-.18,0h0l0,0h0a1.83,1.83,0,0,1-.08-.25h0M45,72.36c.74,0,1.45,0,2.19,0a.33.33,0,0,1,0,.43s0,0,0,0h0l-.62,0s0,0,0,0c-.06-.19-.47-.17-.57,0h0v0a0,0,0,0,0,0,0,5.14,5.14,0,0,1-1,0c-.09-.13-.08-.37,0-.43"/><path class="cls-11" d="M31.66,53.19c-.5,1.6.29,3.37.83,3.2.4.17.64-.67.81-1.59.11-.26.19-.29.25-.16,0,1.23.07,1.51.36,1.88a.81.81,0,0,0,1.15,0l0,0,.49-.55A.27.27,0,0,1,36,56l0,0c.15.15.13.42.44.59a.88.88,0,0,0,1-.23c.18-.34.22-.46.3-.58s.35-.11.35,0-.15.21-.06.4.19,0,.28,0c.32-.17.56-.94.56-.94,0-.3-.13-.27-.23-.21s-.13.11-.25.2-.46.13-.6-.12-.16-.76-.28-1.07c0,0-.2-.49,0-.52s.29.08.33-.11-.21-.72-.43-1a.44.44,0,0,0-.61-.1.6.6,0,0,0-.08.08.88.88,0,0,0-.18.57,1,1,0,0,0,.16.77A2.56,2.56,0,0,1,37,55.26a.58.58,0,0,1-.51.29c-.13,0-.35-.1-.47-1.06a7.32,7.32,0,0,0-.25-2.23c-.1-.29-.17-.58-.41-.07a1.24,1.24,0,0,0-.15,1.09A3.64,3.64,0,0,1,35.4,55a2.88,2.88,0,0,1-.3.47.44.44,0,0,1-.61.09.74.74,0,0,1-.37-.58,9.08,9.08,0,0,0,0-1.88.28.28,0,0,0-.5-.12,4.44,4.44,0,0,0-.92,2.12c-.15.52-.29.37-.4.16-.26-.27-.28-2.4-.59-2.05"/><path class="cls-11" d="M33.35,56.51s0,0,0,0h0s-.07.08-.16.15a.86.86,0,0,0-.16.69c0,.05.27.88.5,1.48a5,5,0,0,1,.19,2,4.65,4.65,0,0,1-1.78,2.09.83.83,0,0,1-.75,0h0a.54.54,0,0,1-.2-.48,4.55,4.55,0,0,0,1.8-2.08,2.51,2.51,0,0,0,0-1.51,1.6,1.6,0,0,0-.31-.69h0c.1,0,.36.17.4,0a2.31,2.31,0,0,0-.51-1.07.41.41,0,0,0-.57-.1.19.19,0,0,0-.07.06c-.21.14-.26.62-.16,1.06s.44.36.66,1h0a1.37,1.37,0,0,1,0,.67,7,7,0,0,1-1.34,1.42h0a.74.74,0,0,0,0-.21c0-.19.07-.63.07-.71h0c-.39.29-.52,1.15-.59,1.41a17.38,17.38,0,0,0-2.73,2.1c-.34.59,2.3-.68,2.6-.83h0a2.21,2.21,0,0,0,.23.55,1.33,1.33,0,0,0,1.42.52,4.69,4.69,0,0,0,2.06-1.93c.08-.13.21-.23.32-.13a3.16,3.16,0,0,0,2.91,1.72c.33-.45.18-.68,0-.76s-.71-.33-.81-.63.09-.5.41-.69a12.9,12.9,0,0,0,2.69-.58,2.71,2.71,0,0,1,.3-1,.42.42,0,0,1,.14-.18h0v0l-.14-.1-2.93,0-.08-.05h0a.15.15,0,0,1,.09-.06c.7-.1,1.94-.34,2-1.69a1.13,1.13,0,0,0-1-1.27h-.06a1.16,1.16,0,0,0-.9,1.33c0,.17.06.53-.11.57-1.07.12-2.25.88-2.29,1.41h0a.32.32,0,0,1-.15-.33,7.07,7.07,0,0,0-.74-2.81c-.14-.17-.21-.24-.26-.25h0m4.28,1.21a.32.32,0,0,1,.23.06.35.35,0,0,1,.18.28v0h0l0,0c-.06.07-.18.06-.31,0a.39.39,0,0,1-.18-.27h0a0,0,0,0,1,0,0v0l0,0,.07,0m-2.72,2.78h0a8.6,8.6,0,0,0,1.23.15c.34,0,.5.32.19.45s-.62.21-.62.73a.66.66,0,0,1,0,.44s0,0,0,0h0c-.08,0-.19-.09-.27-.12a1.88,1.88,0,0,1-.81-1.35.33.33,0,0,1,.29-.36h0"/><path class="cls-11" d="M25.5,53.21c.34.17,1,.1.94-.51,0-.05,0-.23,0-.29s-.26-.14-.29.05,0,.16,0,.19-.14,0-.14-.15a.2.2,0,0,0-.06-.14.09.09,0,0,0-.07,0c-.05,0-.05,0-.07.06a.77.77,0,0,0,0,.15c0,.06,0,.08-.07.09s0,0-.07,0-.05,0-.05-.08a.77.77,0,0,0,0-.15.16.16,0,0,0-.08-.06c-.19,0-.2.24-.19.33s0,.44.23.57"/><path class="cls-11" d="M35.38,57.91c.33.18,1.14.08.94-.51a2.64,2.64,0,0,0,0-.29c-.06-.19-.25-.14-.29,0s0,.17,0,.21-.14,0-.14-.17a.24.24,0,0,0-.05-.14.11.11,0,0,0-.08,0s0,0-.07.07a.59.59,0,0,0,0,.14.08.08,0,0,1-.07.09s0,0-.07,0-.05,0-.05-.08a.39.39,0,0,0,0-.15.1.1,0,0,0-.08,0c-.18,0-.19.24-.19.33s0,.43.23.56"/><path class="cls-11" d="M41.14,56c.33.17,1,.09.94-.52,0,0,0-.23,0-.28s-.27-.14-.3,0,0,.16,0,.19-.13,0-.13-.16a.3.3,0,0,0,0-.15h-.08s0,0-.07.06a.78.78,0,0,0,0,.14.08.08,0,0,1-.07.09s0,0-.07,0a.1.1,0,0,1,0-.08.78.78,0,0,0,0-.16l-.08,0c-.18,0-.2.24-.19.32s0,.44.23.56"/><path class="cls-11" d="M44.12,60.85a2.56,2.56,0,0,0-.2,2.24,1.75,1.75,0,0,0,.73.92.47.47,0,0,0,.67,0,.27.27,0,0,0,.09-.12c.35-.4.35-1.42.51-1.62.12-.38.4-.32.54-.15a1.6,1.6,0,0,0,.49.48.77.77,0,0,0,1.08.09h0a1.37,1.37,0,0,0,.58-.79,32.81,32.81,0,0,0,0-4.65c0-.11-.33-1.91-.33-1.93s0-.92-.08-1.13,0-.12,0-.11.1.1.15.12.16-.15.11-.3c-.26-.55-.53-1.11-.8-1.66-.06-.08-.15-.15-.25,0a.72.72,0,0,0-.2.5c0,.39.09.8.11,1.19.11.67.21,1.35.32,2,.1,1.45.13,2.77.23,4.21,0,.61-.18,1.43-.35,1.5a.33.33,0,0,1-.4,0,5.15,5.15,0,0,1-.58-.88c-.24-.25-.4-.18-.58,0a9.41,9.41,0,0,0-1,2.13c-.09.15-.32.28-.58,0a3.36,3.36,0,0,1-.35-2.09"/><path class="cls-11" d="M41.29,52.42a1.31,1.31,0,0,1,.44,1.16c-.06.41-.22.88-.34.81s.09-.42,0-.79-.48-.69-.44-.83a.28.28,0,0,1,.17-.35.31.31,0,0,1,.19,0"/><path class="cls-11" d="M45.09,61.26A11,11,0,0,0,45,59.44c0-.48-.49-4.42-.59-4.79-.11-.69.46-.09.39-.49s-.68-1.25-.84-1.69c-.09-.2-.05-.36-.26,0a4.4,4.4,0,0,0-.19,1.73,41.39,41.39,0,0,1,.93,8.3c.23,0,.5-.59.62-1.19"/><path class="cls-11" d="M48.83,57.15c.28.16.44,1,.41,1.26-.05.45-.2.94-.31.88s0-.67,0-.85-.44-.76-.4-.9c-.07-.31.17-.43.33-.39"/><path class="cls-11" d="M29.8,59.69c.26.11.42.75.38.93-.05.33-.19.68-.29.64s0-.49,0-.63c0-.34-.39-.51-.38-.66s.15-.31.32-.28"/><path class="cls-11" d="M22.76,52.21c.39.13.41.77.39,1s-.19.71-.29.67,0-.51-.06-.66-.38-.57-.34-.68.15-.34.31-.29"/><path class="cls-11" d="M30.43,55.24a.85.85,0,0,0-.23,1,.43.43,0,0,0,.49.16c.29.05.46-.61.46-.61s0-.19-.33.16c-.15,0-.17,0-.21-.12a1,1,0,0,1,.05-.51c.05-.17-.06-.24-.23-.12"/><path class="cls-11" d="M32.67,52a1.23,1.23,0,0,0-.46.86c0,.22-.05.22.08.37s.2.14.39,0a.47.47,0,0,0,.18-.29c0-.26-.24.12-.28-.17s.12-.37.3-.63c0-.18,0-.29-.22-.16"/><path class="cls-11" d="M34.47,52.32a5.59,5.59,0,0,0-.13,1c-.06.25.23.36.36,0a3.15,3.15,0,0,0,.2-1.1c0-.37-.29-.35-.43.06"/><path class="cls-11" d="M45.82,58.82l1.6-1.29c.16-.06.12.64,0,.63a6.12,6.12,0,0,1-1.65,1.3c-.08,0-.16-.49,0-.64"/><path class="cls-11" d="M47.24,58.81c.28.15.39,1,.36,1.3,0,.48-.27.86-.37.81s0-.6,0-.79a4.09,4.09,0,0,1-.25-.91c-.08-.31.14-.47.31-.41"/><path class="cls-11" d="M38,62.7a2.55,2.55,0,0,1,.44-.43.24.24,0,0,1,.3.06c0,.17-.09.33-.05.56s.05.21.2.16a1,1,0,0,1,.74-.24c.19,0,.19.37.08.37a5.76,5.76,0,0,0-1,.39.21.21,0,0,1-.29,0h0a.36.36,0,0,1,0-.32c0-.19-.05-.3-.19-.28s-.19.11-.24,0,0-.15,0-.21"/><path class="cls-11" d="M48.88,63.19a.23.23,0,0,1,0,.34l-.29.29c-.05.1-.08.25.08.29s1-.39,1-.41a.25.25,0,0,0,.07-.27c-.07-.08-.21,0-.31,0s-.19,0-.12-.18a1.11,1.11,0,0,0,.12-.27c0-.11,0-.19-.16-.25a1,1,0,0,0-.42,0c-.1,0-.13.08-.14.21s.11.19.23.27"/></svg>