<svg xmlns="http://www.w3.org/2000/svg" version="1.1" xmlns:xlink="http://www.w3.org/1999/xlink" width="512" height="512" x="0" y="0" viewBox="0 0 64 64" style="enable-background:new 0 0 512 512" xml:space="preserve" class=""><g><path d="M43.051 5h-.102C36.36 5 31 10.36 31 16.949c0 2.852 1.021 5.613 2.877 7.776L37 28.37V31c0 3.309 2.691 6 6 6s6-2.691 6-6v-2.63l3.123-3.645A11.946 11.946 0 0 0 55 16.949C55 10.36 49.64 5 43.051 5zM43 35c-2.206 0-4-1.794-4-4v-2h8v2c0 2.206-1.794 4-4 4zm-1.665-17h3.33l-.601 9h-2.129zm9.27 5.425L47.54 27h-1.471l.6-9H48c1.654 0 3-1.346 3-3s-1.346-3-3-3h-.129a3.006 3.006 0 0 0-2.993 2.801L44.798 16h-3.596l-.08-1.198A3.006 3.006 0 0 0 38.129 12H38c-1.654 0-3 1.346-3 3s1.346 3 3 3h1.331l.6 9H38.46l-3.065-3.575A9.96 9.96 0 0 1 33 16.949C33 11.463 37.463 7 42.949 7h.102C48.537 7 53 11.463 53 16.949a9.96 9.96 0 0 1-2.395 6.476zM46.803 16l.071-1.067c.034-.523.473-.933.997-.933H48a1 1 0 0 1 0 2zm-7.606 0H38a1 1 0 0 1 0-2h.129c.524 0 .963.41.997.934z" fill="#0664a4" opacity="1" data-original="#000000"></path><path d="M60 1H26c-1.654 0-3 1.346-3 3v27H4c-1.654 0-3 1.346-3 3v26c0 1.654 1.346 3 3 3h28c1.654 0 3-1.346 3-3V41h25c1.654 0 3-1.346 3-3V4c0-1.654-1.346-3-3-3zM33 60a1 1 0 0 1-1 1H4a1 1 0 0 1-1-1V34a1 1 0 0 1 1-1h28a1 1 0 0 1 1 1zm28-22a1 1 0 0 1-1 1H35v-5c0-1.654-1.346-3-3-3h-7V4a1 1 0 0 1 1-1h34a1 1 0 0 1 1 1z" fill="#0664a4" opacity="1" data-original="#000000"></path><path d="M18 35c-4.963 0-9 4.037-9 9v.193c0 2.036.7 4.032 1.972 5.623L13 52.351V54c0 2.757 2.243 5 5 5s5-2.243 5-5v-1.649l2.028-2.534A9.038 9.038 0 0 0 27 44.193V44c0-4.963-4.037-9-9-9zm0 22c-1.654 0-3-1.346-3-3v-1h6v1c0 1.654-1.346 3-3 3zm-1-13a1 1 0 1 1 2 0 1 1 0 0 1-2 0zm8 .193a7.027 7.027 0 0 1-1.534 4.373L21.519 51H19v-4.184A2.996 2.996 0 0 0 21 44c0-1.654-1.346-3-3-3s-3 1.346-3 3c0 1.302.839 2.402 2 2.816V51h-2.519l-1.946-2.434A7.022 7.022 0 0 1 11 44.193V44c0-3.859 3.141-7 7-7s7 3.141 7 7zM57 50c0 1.654-1.346 3-3 3H35.586l6.707 6.707 1.414-1.414L40.414 55H54c2.757 0 5-2.243 5-5v-7h-2zM37 49h2v2h-2z" fill="#0664a4" opacity="1" data-original="#000000"></path><path d="M41 49h2v2h-2zM55 49v-6h-2v6h-8v2h8c1.103 0 2-.897 2-2zM3 20c0-1.654 1.346-3 3-3h16.414l-6.707-6.707-1.414 1.414L17.586 15H6c-2.757 0-5 2.243-5 5v7h2zM19 19h2v2h-2z" fill="#0664a4" opacity="1" data-original="#000000"></path><path d="M15 19h2v2h-2zM5 21v6h2v-6h6v-2H7c-1.103 0-2 .897-2 2zM5 57h2v2H5zM5 53h2v2H5zM5 49h2v2H5zM29 39h2v2h-2zM29 35h2v2h-2zM29 43h2v2h-2zM57 35h2v2h-2zM57 31h2v2h-2zM57 27h2v2h-2zM27 13h2v2h-2zM27 9h2v2h-2zM27 5h2v2h-2z" fill="#0664a4" opacity="1" data-original="#000000"></path></g></svg>