<svg id="Capa_1" enable-background="new 0 0 512 512" height="512" viewBox="0 0 512 512" width="512" xmlns="http://www.w3.org/2000/svg" xmlns:xlink="http://www.w3.org/1999/xlink"><linearGradient id="SVGID_1_" gradientUnits="userSpaceOnUse" x1="256" x2="256" y1="512" y2="0"><stop offset="0" stop-color="#009efd"/><stop offset="1" stop-color="#2af598"/></linearGradient><g><g><g><path d="m156 156c22.056 0 40 17.944 40 40h40c0-44.112-35.888-80-80-80s-80 35.888-80 80 35.888 80 80 80c22.056 0 40 17.944 40 40s-17.944 40-40 40-40-17.944-40-40h-40c0 44.112 35.888 80 80 80s80-35.888 80-80-35.888-80-80-80c-22.056 0-40-17.944-40-40s17.944-40 40-40zm296-156h-392c-33.084 0-60 26.916-60 60v392c0 33.084 26.916 60 60 60h392c33.084 0 60-26.916 60-60v-392c0-33.084-26.916-60-60-60zm20 452c0 11.028-8.972 20-20 20h-392c-11.028 0-20-8.972-20-20v-392c0-11.028 8.972-20 20-20h392c11.028 0 20 8.972 20 20zm-116-256c-23.836 0-45.271 12.127-60.358 34.148-12.483 18.219-19.642 42.221-19.642 65.852 0 23.583 7.14 47.557 19.588 65.773 15.083 22.072 36.538 34.227 60.412 34.227 22.149 0 43.445-11.457 58.427-31.432l-32-24c-4.323 5.764-13.504 15.432-26.427 15.432-18.399 0-32.155-18.348-37.528-40h117.528v-20c0-23.583-7.14-47.557-19.588-65.773-15.083-22.072-36.538-34.227-60.412-34.227zm-37.528 80c5.373-21.652 19.129-40 37.528-40s32.155 18.348 37.528 40z" fill="url(#SVGID_1_)"/></g></g></g></svg>