<svg id="Layer_1" data-name="Layer 1" xmlns="http://www.w3.org/2000/svg" viewBox="0 0 134.39 63.91"><defs><style>.cls-1,.cls-2{fill:#010101;}.cls-1,.cls-3{fill-rule:evenodd;}.cls-3{fill:#74c050;}</style></defs><path class="cls-1" d="M58.35,10a9.52,9.52,0,0,0-6.12,2.21v-2H46.64V32h5.81V18.06a6.89,6.89,0,0,1,5.27-2.69,6,6,0,0,1,2.33.35V10.14a9.76,9.76,0,0,0-1.7-.15" transform="translate(-4.9)"/><path class="cls-1" d="M7.71,25.32a9,9,0,0,0,5.94,2.15c1.55,0,2.77-.76,2.77-1.84,0-3.27-10.5-2.1-10.5-9.1,0-4.17,4-6.78,8.3-6.78A13.45,13.45,0,0,1,21.55,12l-2.72,4.2a7.26,7.26,0,0,0-4.15-1.47c-1.61,0-2.95.62-2.95,1.75,0,2.82,10.5,1.7,10.5,9.23,0,4.17-4.06,6.73-8.62,6.73A14.93,14.93,0,0,1,4.9,29.49Z" transform="translate(-4.9)"/><path class="cls-1" d="M44.16,20.88c0-6-4.23-11.12-10.22-11.12-6.44,0-10.55,5.29-10.55,11.35a10.85,10.85,0,0,0,10.38,11.3c.32,0,.65,0,1,0a11.68,11.68,0,0,0,8.89-3.9L40.32,25.2a7.62,7.62,0,0,1-5.45,2.5A5.7,5.7,0,0,1,29,22.55H44A10.35,10.35,0,0,0,44.16,20.88ZM29.29,18.29a4.69,4.69,0,0,1,4.65-3.81,4.33,4.33,0,0,1,4.29,3.81Z" transform="translate(-4.9)"/><polygon class="cls-1" points="69 23.48 74.94 10.21 80.97 10.21 71.01 31.96 66.99 31.96 57.03 10.21 63.05 10.21 69 23.48"/><path class="cls-1" d="M90.74,0a4.44,4.44,0,1,1-.07,0h.07" transform="translate(-4.9)"/><rect class="cls-2" x="82.94" y="10.21" width="5.81" height="21.75"/><path class="cls-1" d="M117.65,27.52a11.48,11.48,0,0,1-9.83,4.89,11.33,11.33,0,0,1-.58-22.66h.62A11.59,11.59,0,0,1,117,14.1l-4.11,3.63a6.29,6.29,0,0,0-5-2.6,5.82,5.82,0,0,0-5.84,5.8v.16A5.73,5.73,0,0,0,107.56,27H108a6.33,6.33,0,0,0,5.18-2.87Z" transform="translate(-4.9)"/><path class="cls-1" d="M138.75,28.5a11.74,11.74,0,0,1-8.89,3.91,10.86,10.86,0,0,1-11.35-10.34,7.85,7.85,0,0,1,0-1c0-6.05,4.11-11.35,10.55-11.35,6,0,10.22,5.07,10.22,11.12a10.14,10.14,0,0,1-.13,1.66h-15A5.7,5.7,0,0,0,130,27.69a7.68,7.68,0,0,0,5.45-2.5Zm-5.41-10.21a4.31,4.31,0,0,0-4.28-3.81,4.71,4.71,0,0,0-4.65,3.81Z" transform="translate(-4.9)"/><path class="cls-1" d="M29.38,63.45V41.7H35v1.75a9.53,9.53,0,0,1,6.11-2.19,9.71,9.71,0,0,1,7.51,3.5,11,11,0,0,1,2.23,7.63V63.45H45V51.92a5.29,5.29,0,0,0-1.29-4.08,4.55,4.55,0,0,0-3.27-1.21,6.88,6.88,0,0,0-5.26,2.68V63.44H29.38Z" transform="translate(-4.9)"/><path class="cls-3" d="M65.78,41.26a12.71,12.71,0,0,0-8.76,22,2.51,2.51,0,0,0,3.26.17,9.06,9.06,0,0,1,10.84,0,2.52,2.52,0,0,0,3.28-.19,12.72,12.72,0,0,0-8.62-21.94M65.7,60.32a6.17,6.17,0,0,1-6.33-6V54A6.34,6.34,0,0,1,72,54a6.17,6.17,0,0,1-6,6.33H65.7" transform="translate(-4.9)"/><polygon class="cls-1" points="84.97 63.45 80.64 63.45 72.01 41.7 77.81 41.7 82.54 54.13 87.18 41.7 92.02 41.7 96.61 54.13 101.38 41.7 107.19 41.7 98.57 63.45 94.24 63.45 89.6 51.06 84.97 63.45"/><path class="cls-2" d="M112.15,61h-.49v.92h-.42V59.4h1a.8.8,0,0,1,.81.8h0a.79.79,0,0,1-.5.73l.57,1h-.45Zm-.49-.37h.6a.43.43,0,1,0,0-.86h-.6Z" transform="translate(-4.9)"/><path class="cls-2" d="M112.09,58.36a2.34,2.34,0,1,1-2.33,2.34h0a2.33,2.33,0,0,1,2.33-2.34m0-.37a2.72,2.72,0,1,0,2.72,2.72A2.72,2.72,0,0,0,112.09,58Z" transform="translate(-4.9)"/></svg>