<?xml version="1.0" encoding="utf-8"?>
<!-- Generator: Adobe Illustrator 25.0.0, SVG Export Plug-In . SVG Version: 6.00 Build 0)  -->
<svg version="1.1" id="Layer_1" xmlns="http://www.w3.org/2000/svg" xmlns:xlink="http://www.w3.org/1999/xlink" x="0px" y="0px"
	 viewBox="0 0 175 70" style="enable-background:new 0 0 175 70;" xml:space="preserve">
<style type="text/css">
	.st0{fill:#424143;}
	.st1{font-family:'Switzer-Bold';}
	.st2{font-size:27.533px;}
	.st3{fill:#1E1D26;}
	.st4{fill:#FFC94D;}
	.st5{opacity:0.1;}
	.st6{fill:#FFFFFF;}
	.st7{fill:#3D68F8;}
	.st8{fill:#64C682;}
</style>
<text transform="matrix(1 0 0 1 59.9044 43.4733)" class="st0 st1 st2">Services</text>
<g>
	<g>
		<g>
			<path class="st3" d="M22.5,35l0.3-4.3l3.4-0.3c0.3-0.9,0.7-1.8,1.2-2.7c0.4-0.7,0.9-1.3,1.4-2l-1.9-3l3.3-2.8l2.8,2.4
				c1.5-0.8,3.1-1.3,4.8-1.5l0.9-3.7l4.3,0.3l0.3,3.9c1.6,0.5,3,1.2,4.3,2.2l3.3-2l2.8,3.3l-2.5,2.9c0.9,1.7,1.5,3.3,1.8,4.8
				l3.4,0.8l-0.3,4.3l-3.3,0.2c-0.5,1.7-1.4,3.2-2.6,4.6l1.9,3.1l-3.3,2.8l-3.1-2.6c-1.4,0.7-2.9,1.2-4.5,1.4l-0.9,3.9L36,50.8
				l-0.3-3.6c-1.7-0.4-3.4-1-4.9-2.1l-2.8,1.7l-2.8-3.3l2.1-2.4c-0.3-0.6-0.6-1.1-0.8-1.8c-0.4-1.1-0.7-2.3-0.8-3.5L22.5,35z"/>
			<path class="st3" d="M40.3,51.7C40.3,51.7,40.3,51.7,40.3,51.7L36,51.4c-0.3,0-0.5-0.2-0.5-0.5l-0.2-3.2c-1.6-0.4-3.1-1-4.4-1.9
				l-2.5,1.5c-0.2,0.1-0.6,0.1-0.7-0.1l-2.8-3.3c-0.2-0.2-0.2-0.5,0-0.7l1.8-2.1c-0.2-0.5-0.5-1-0.7-1.5c-0.4-1-0.7-2.1-0.8-3.2
				l-2.8-0.7c-0.3-0.1-0.5-0.3-0.4-0.6l0.3-4.3c0-0.3,0.2-0.5,0.5-0.5l3-0.2c0.3-0.8,0.6-1.7,1.1-2.4c0.3-0.6,0.7-1.2,1.2-1.7
				L26.5,23c-0.1-0.2-0.1-0.6,0.1-0.7l3.3-2.8c0.2-0.2,0.5-0.2,0.7,0l2.5,2.2c1.4-0.7,2.8-1.1,4.2-1.3l0.8-3.3
				c0.1-0.3,0.3-0.5,0.6-0.4l4.3,0.3c0.3,0,0.5,0.2,0.5,0.5l0.3,3.5c1.4,0.5,2.6,1.1,3.8,2l3-1.8c0.2-0.1,0.6-0.1,0.7,0.1l2.8,3.3
				c0.2,0.2,0.2,0.5,0,0.7L52,27.8c0.8,1.4,1.3,2.8,1.6,4.2l3,0.7c0.3,0.1,0.5,0.3,0.4,0.6l-0.3,4.3c0,0.3-0.2,0.5-0.5,0.5l-2.9,0.2
				c-0.5,1.5-1.3,2.8-2.4,4.1l1.7,2.8c0.1,0.2,0.1,0.6-0.1,0.7l-3.3,2.8c-0.2,0.2-0.5,0.2-0.7,0l-2.8-2.4c-1.3,0.6-2.6,1-3.9,1.3
				l-0.8,3.6C40.8,51.5,40.6,51.7,40.3,51.7z M36.5,50.2l3.3,0.3l0.8-3.4c0.1-0.2,0.2-0.4,0.5-0.4c1.5-0.3,2.9-0.7,4.3-1.4
				c0.2-0.1,0.5-0.1,0.6,0.1l2.7,2.3l2.5-2.2l-1.7-2.7c-0.1-0.2-0.1-0.5,0.1-0.7c1.2-1.3,2-2.8,2.5-4.3c0.1-0.2,0.3-0.4,0.5-0.4
				l2.8-0.2l0.3-3.3l-2.9-0.7c-0.2-0.1-0.4-0.2-0.4-0.5c-0.3-1.5-0.9-3.1-1.7-4.6c-0.1-0.2-0.1-0.5,0.1-0.7l2.1-2.5l-2.2-2.5
				l-2.9,1.8c-0.2,0.1-0.5,0.1-0.6,0c-1.3-0.9-2.6-1.7-4.1-2.1c-0.2-0.1-0.4-0.3-0.4-0.5l-0.3-3.4l-3.3-0.3L38.4,21
				c-0.1,0.2-0.3,0.4-0.5,0.4c-1.6,0.2-3.1,0.7-4.6,1.4c-0.2,0.1-0.5,0.1-0.6-0.1l-2.4-2.1l-2.5,2.2l1.6,2.6
				c0.1,0.2,0.1,0.5-0.1,0.7c-0.5,0.6-0.9,1.2-1.3,1.9c-0.5,0.8-0.8,1.7-1.1,2.6c-0.1,0.2-0.3,0.4-0.5,0.4l-2.9,0.2l-0.3,3.3
				l2.7,0.7c0.2,0.1,0.4,0.3,0.4,0.5c0.1,1.2,0.4,2.3,0.8,3.3c0.2,0.6,0.5,1.2,0.8,1.7c0.1,0.2,0.1,0.5-0.1,0.7L26,43.4l2.2,2.5
				l2.4-1.5c0.2-0.1,0.5-0.1,0.6,0c1.3,1,2.9,1.7,4.6,2c0.3,0.1,0.4,0.3,0.5,0.5L36.5,50.2z"/>
		</g>
		<g>
			<path class="st4" d="M47.2,23.1c-1.3-1-2.8-1.7-4.3-2.2L42.6,17l-4.3-0.3l-0.4,1.6l-0.5,2.1c-1.7,0.2-3.3,0.7-4.8,1.5l-2.8-2.4
				l-3.3,2.8l1.8,3c-0.5,0.6-1,1.3-1.4,2c-0.5,0.8-0.9,1.7-1.2,2.7l-3.4,0.3l-0.3,4.3l3.2,0.8c0.1,1.2,0.4,2.4,0.8,3.5
				c0.2,0.6,0.5,1.2,0.8,1.8l-2.1,2.4l0.7,0.8l2.1,2.5l2.8-1.7c0.2,0.1,0.4,0.3,0.6,0.4c1.3,0.8,2.8,1.4,4.2,1.7l0.3,3.6l4.3,0.3
				l0.9-3.9c1.5-0.3,3.1-0.8,4.5-1.4l3.1,2.6l3.3-2.8l-1.9-3.1c1.2-1.3,2.1-2.8,2.6-4.6l3.3-0.2l0.1-1.4l0.2-2.9l-2.7-0.6L52.6,32
				c0-0.2-0.1-0.5-0.1-0.7c-0.3-1.3-0.9-2.7-1.7-4.1l2.5-2.9l-2.8-3.3L47.2,23.1z M44.8,38.5c-3.9,4.9-13.1,3.5-13.9-4.8
				c-0.7-6.8,7.8-10.9,13.1-5.9C46.9,30.5,47.2,35.4,44.8,38.5z"/>
		</g>
		<g class="st5">
			<path class="st3" d="M50.5,21.1l2.8,3.3l-2.5,2.9c0.8,1.4,1.3,2.8,1.7,4.1c0.1,0.2,0.1,0.5,0.1,0.7l0.7,0.2l2.7,0.6l-0.2,2.9
				l-0.1,1.4l-3.3,0.2c-0.5,1.7-1.4,3.2-2.6,4.6l1.9,3.1l-3.3,2.8l-3.1-2.6c-1.4,0.7-2.9,1.2-4.5,1.4l-0.9,3.9l-4.3-0.3l-0.3-3.6
				c-1.5-0.3-2.9-0.9-4.3-1.7c-0.2-0.1-0.4-0.3-0.6-0.4l-2.8,1.7l-2.1-2.5c2.3-1,4.9-1.4,7.3-2.1c2.7-0.7,5.5-1.7,7.5-3.7
				c2-2,3.1-5.1,2-7.7c-0.6-1.4-1.9-2.7-1.8-4.3c0.1-1.4,1.3-2.6,1.2-4c-0.1-1.3-1.2-2.2-2.3-2.9c-0.5-0.3-1-0.6-1.6-0.9l0.4-1.6
				l4.3,0.3l0.3,3.9c1.6,0.5,3,1.2,4.3,2.2L50.5,21.1z"/>
		</g>
		<g>
			<path class="st6" d="M44.8,38.5c2.4-3.1,2.1-8-0.8-10.7c-5.3-5-13.8-0.9-13.1,5.9C31.7,42,40.9,43.4,44.8,38.5z"/>
		</g>
		<g>
			<path class="st3" d="M39.9,51.3C39.9,51.3,39.9,51.3,39.9,51.3l-4.4-0.3c-0.3,0-0.6-0.3-0.6-0.6l-0.2-3.1c-1.6-0.4-3-1-4.2-1.9
				L28,46.8c-0.3,0.2-0.7,0.1-0.9-0.1l-2.8-3.3c-0.2-0.3-0.2-0.6,0-0.9l1.8-2.1c-0.2-0.5-0.4-0.9-0.6-1.4c-0.4-1-0.7-2.1-0.8-3.2
				L22,35.1c-0.3-0.1-0.6-0.4-0.5-0.7l0.3-4.3c0-0.3,0.3-0.6,0.6-0.6l2.9-0.2c0.3-0.8,0.6-1.6,1.1-2.4c0.3-0.6,0.7-1.1,1.1-1.7
				l-1.6-2.6c-0.2-0.3-0.1-0.7,0.1-0.9l3.3-2.8c0.3-0.2,0.6-0.2,0.9,0l2.5,2.1c1.3-0.6,2.7-1.1,4.1-1.3l0.8-3.2
				c0.1-0.3,0.4-0.6,0.7-0.5l4.3,0.3c0.3,0,0.6,0.3,0.6,0.6l0.3,3.4c1.3,0.5,2.6,1.1,3.7,1.9l2.9-1.8c0.3-0.2,0.7-0.1,0.9,0.1
				l2.8,3.3c0.2,0.3,0.2,0.6,0,0.9l-2.2,2.5c0.7,1.4,1.3,2.8,1.6,4.1l3,0.7c0.3,0.1,0.6,0.4,0.5,0.7l-0.3,4.3c0,0.3-0.3,0.6-0.6,0.6
				L52.9,38c-0.5,1.4-1.3,2.8-2.3,4l1.6,2.7c0.2,0.3,0.1,0.7-0.1,0.9l-3.3,2.8c-0.3,0.2-0.6,0.2-0.9,0L45.2,46
				c-1.2,0.6-2.5,1-3.8,1.2l-0.8,3.5C40.5,51.1,40.2,51.3,39.9,51.3z M36.2,49.6l3.1,0.3l0.8-3.3c0.1-0.3,0.3-0.5,0.6-0.5
				c1.5-0.3,2.9-0.7,4.3-1.4c0.2-0.1,0.5-0.1,0.8,0.1l2.6,2.3l2.4-2l-1.6-2.6C49,42,49,41.7,49.2,41.5c1.2-1.3,2-2.7,2.5-4.3
				c0.1-0.3,0.3-0.5,0.6-0.5l2.7-0.2l0.3-3.1l-2.8-0.7c-0.3-0.1-0.5-0.3-0.5-0.5c-0.3-1.5-0.8-3-1.7-4.6c-0.1-0.3-0.1-0.6,0.1-0.8
				l2.1-2.4l-2-2.4l-2.8,1.7c-0.2,0.1-0.5,0.1-0.8,0c-1.2-0.9-2.6-1.6-4.1-2.1c-0.3-0.1-0.5-0.3-0.5-0.6L42,17.6l-3.1-0.3l-0.7,3.1
				C38,20.8,37.8,21,37.5,21c-1.6,0.2-3.1,0.7-4.5,1.4c-0.2,0.1-0.6,0.1-0.8-0.1l-2.4-2l-2.4,2l1.5,2.5c0.2,0.3,0.1,0.6-0.1,0.8
				c-0.5,0.6-0.9,1.2-1.3,1.9c-0.4,0.8-0.8,1.6-1.1,2.5c-0.1,0.3-0.3,0.5-0.6,0.5l-2.8,0.2l-0.3,3.1l2.6,0.6
				c0.3,0.1,0.5,0.3,0.5,0.6c0.1,1.1,0.4,2.3,0.8,3.3c0.2,0.6,0.5,1.2,0.8,1.7c0.1,0.3,0.1,0.6-0.1,0.8l-1.7,2l2,2.4l2.3-1.4
				c0.2-0.1,0.5-0.1,0.8,0c1.3,1,2.9,1.7,4.6,2c0.3,0.1,0.5,0.3,0.5,0.6L36.2,49.6z"/>
		</g>
		<g>
			<path class="st3" d="M38.8,42c-0.8,0-1.6-0.1-2.4-0.3c-3.5-1-5.8-4-6.1-7.9c-0.3-3.4,1.4-6.5,4.5-8c3.3-1.6,7.1-1,9.8,1.5
				c3.1,2.9,3.5,8.2,0.8,11.6l0,0C43.8,40.9,41.3,42,38.8,42z M38.6,26.3c-1.2,0-2.3,0.3-3.2,0.7c-2.6,1.3-4,3.8-3.8,6.6
				c0.3,3.4,2.3,5.9,5.2,6.7c2.8,0.8,5.8-0.1,7.5-2.3c2.2-2.8,1.9-7.3-0.7-9.7C42,26.9,40.2,26.3,38.6,26.3z"/>
		</g>
		<g>
			<path class="st6" d="M28.6,37.1c-0.2,0-0.4-0.1-0.5-0.3c-1-2.1-1.1-4.6-0.2-6.7c0.1-0.3,0.4-0.4,0.7-0.3c0.3,0.1,0.4,0.4,0.3,0.7
				c-0.7,1.8-0.7,4,0.2,5.8c0.1,0.3,0,0.6-0.3,0.8C28.8,37.1,28.7,37.1,28.6,37.1z"/>
		</g>
		<g>
			<path class="st6" d="M29.5,28.5c-0.1,0-0.2,0-0.2,0C29,28.4,28.9,28,29,27.7l0.1-0.3c0.1-0.3,0.5-0.4,0.8-0.3
				c0.3,0.1,0.4,0.5,0.3,0.8L30,28.2C30,28.4,29.7,28.5,29.5,28.5z"/>
		</g>
	</g>
	<g>
		<g>
			<path class="st3" d="M1.5,14.4l1.5-2.8l2.4,0.9c0.5-0.5,1-1,1.6-1.5c0.5-0.4,1-0.7,1.5-0.9L8.2,7.4l3.1-0.9L12.5,9
				C13.8,9,15,9.1,16.2,9.5l1.7-2.2l2.8,1.5l-1,2.7c0.9,0.8,1.7,1.8,2.3,2.8l2.9-0.4l0.9,3.1l-2.6,1.2c0.1,1.4,0,2.7-0.2,3.8
				l2.1,1.6l-1.5,2.8l-2.3-0.8c-0.9,1-2,1.8-3.2,2.3l0.4,2.7l-3.1,0.9L14,28.8c-1.2,0-2.4-0.1-3.5-0.4l-1.8,2.4l-2.8-1.5l0.9-2.6
				c-1.1-0.8-2-1.7-2.7-2.9l-2.4,0.3L0.8,21L3,20c0-0.5,0-1,0-1.5c0-0.9,0.2-1.8,0.5-2.6L1.5,14.4z"/>
			<path class="st3" d="M15.3,32.1c-0.2,0-0.4-0.1-0.5-0.3l-1.1-2.4c-1,0-1.9-0.1-2.9-0.3l-1.6,2.1c-0.2,0.2-0.5,0.3-0.7,0.2
				l-2.8-1.5c-0.2-0.1-0.4-0.4-0.3-0.7L6.1,27c-0.9-0.7-1.7-1.6-2.3-2.5l-2,0.3c-0.3,0-0.5-0.1-0.6-0.4l-0.9-3.1
				c-0.1-0.3,0.1-0.6,0.3-0.7l1.8-0.9c0-0.4,0-0.8,0-1.1c0-0.8,0.2-1.6,0.4-2.4l-1.6-1.2C1,14.7,0.9,14.4,1,14.2l1.5-2.8
				C2.7,11.1,3,11,3.3,11.1l2,0.7c0.4-0.5,0.9-0.9,1.4-1.3C7.1,10.2,7.5,10,8,9.7L7.7,7.5c0-0.3,0.1-0.5,0.4-0.6L11.2,6
				c0.3-0.1,0.6,0.1,0.7,0.3l1,2.2C14,8.4,15,8.6,16,8.8l1.5-1.9c0.2-0.2,0.5-0.3,0.7-0.2l2.8,1.5c0.2,0.1,0.4,0.4,0.3,0.7l-0.8,2.4
				c0.7,0.7,1.4,1.5,1.9,2.4l2.5-0.3c0.3,0,0.5,0.1,0.6,0.4l0.9,3.1c0.1,0.3-0.1,0.6-0.3,0.7l-2.2,1c0.1,1.1,0,2.2-0.2,3.2l1.8,1.4
				c0.2,0.2,0.3,0.5,0.2,0.7l-1.5,2.8C24,27,23.7,27.1,23.4,27l-2-0.7c-0.8,0.8-1.7,1.5-2.7,2l0.3,2.3c0,0.3-0.1,0.5-0.4,0.6
				l-3.1,0.9C15.4,32.1,15.4,32.1,15.3,32.1z M14,28.3c0.2,0,0.4,0.1,0.5,0.3l1.1,2.3l2.2-0.6L17.5,28c0-0.3,0.1-0.5,0.3-0.6
				c1.2-0.5,2.2-1.2,3-2.1c0.2-0.2,0.4-0.2,0.6-0.2l1.9,0.7l1.1-2l-1.7-1.3c-0.2-0.1-0.3-0.4-0.2-0.6c0.3-1.1,0.3-2.3,0.2-3.6
				c0-0.2,0.1-0.5,0.3-0.6l2.1-1l-0.6-2.2l-2.4,0.3c-0.2,0-0.5-0.1-0.6-0.3c-0.6-1-1.3-1.9-2.1-2.7c-0.2-0.2-0.2-0.4-0.2-0.6
				l0.8-2.3l-2-1.1l-1.4,1.9C16.5,10,16.3,10.1,16,10c-1.1-0.3-2.3-0.5-3.5-0.4c-0.2,0-0.5-0.1-0.6-0.3l-1-2.1L8.9,7.8L9.2,10
				c0,0.2-0.1,0.5-0.3,0.6c-0.5,0.3-1,0.5-1.4,0.9c-0.5,0.4-1.1,0.9-1.5,1.4C5.7,13,5.5,13.1,5.3,13l-1.9-0.7l-1.1,2l1.6,1.2
				C4,15.6,4.1,15.9,4,16.1c-0.3,0.8-0.4,1.6-0.5,2.5c0,0.5,0,0.9,0,1.4c0,0.2-0.1,0.5-0.3,0.6l-1.7,0.8l0.6,2.2l1.9-0.3
				c0.2,0,0.5,0.1,0.6,0.3c0.6,1.1,1.4,2,2.5,2.7c0.2,0.1,0.3,0.4,0.2,0.7L6.6,29l2,1.1l1.5-2c0.1-0.2,0.4-0.3,0.6-0.2
				C11.8,28.2,12.9,28.3,14,28.3C14,28.3,14,28.3,14,28.3z"/>
		</g>
		<g>
			<path class="st7" d="M21.9,13.8c-0.6-1.1-1.4-2-2.3-2.8l1-2.7l-2.8-1.5l-0.7,1l-1,1.3c-1.2-0.4-2.4-0.5-3.7-0.4L11.2,6L8.1,6.9
				l0.3,2.6c-0.5,0.3-1,0.6-1.5,0.9c-0.6,0.4-1.1,0.9-1.6,1.5L3,11.1l-1.5,2.8l1.9,1.5c-0.3,0.8-0.5,1.7-0.5,2.6c0,0.5,0,1,0,1.5
				l-2.2,1l0.2,0.7l0.7,2.4L4,23.3c0.1,0.2,0.2,0.3,0.3,0.5c0.6,1,1.4,1.8,2.4,2.5l-0.9,2.6l2.8,1.5l1.8-2.4
				c1.1,0.3,2.3,0.4,3.5,0.4l1.3,2.7l3.1-0.9l-0.4-2.7c1.2-0.5,2.3-1.3,3.2-2.3l2.3,0.8l0.5-0.9l1-1.9l-1.6-1.3l-0.4-0.3
				c0-0.2,0.1-0.3,0.1-0.5c0.2-1,0.2-2.1,0.1-3.3l2.6-1.2l-0.9-3.1L21.9,13.8z M15.6,23.6c-4.1,2.2-10-1.6-8-7.5
				c1.6-4.8,8.6-5,10.7,0C19.5,18.8,18.2,22.3,15.6,23.6z"/>
		</g>
		<g class="st5">
			<path class="st3" d="M24.8,13.5l0.9,3.1l-2.6,1.2c0.1,1.2,0.1,2.3-0.1,3.3c0,0.2-0.1,0.4-0.1,0.5l0.4,0.3l1.6,1.2l-1,1.9L23.5,26
				l-2.3-0.8c-0.9,1-2,1.8-3.2,2.3l0.4,2.7l-3.1,0.9l-1.3-2.7c-1.2,0-2.3-0.1-3.5-0.4l-1.8,2.4l-2.8-1.6l0.9-2.6
				c-0.9-0.7-1.7-1.5-2.4-2.5c-0.1-0.2-0.2-0.3-0.3-0.5l-2.4,0.3l-0.7-2.4c1.9,0.1,3.7,0.5,5.6,0.8c2.1,0.3,4.3,0.5,6.2-0.2
				c2-0.7,3.7-2.5,3.7-4.6c0-1.2-0.5-2.4,0.1-3.4c0.5-0.9,1.7-1.4,2-2.4c0.3-0.9-0.1-1.9-0.7-2.7c-0.3-0.4-0.5-0.7-0.8-1.1l0.7-1
				l2.8,1.5l-1,2.7c0.9,0.8,1.7,1.8,2.3,2.8L24.8,13.5z"/>
		</g>
		<g>
			<path class="st6" d="M15.6,23.6c2.6-1.4,3.8-4.8,2.7-7.5c-2.1-5-9.1-4.8-10.7,0C5.6,22,11.5,25.8,15.6,23.6z"/>
		</g>
		<g>
			<path class="st3" d="M15.2,31.8c-0.3,0-0.5-0.1-0.6-0.4L13.5,29c0,0,0,0,0,0c-0.9,0-1.9-0.1-2.8-0.3l-1.6,2
				C8.9,31,8.6,31.1,8.3,31l-2.8-1.5c-0.3-0.2-0.4-0.5-0.3-0.8l0.7-2.1C5,25.8,4.2,25,3.7,24.1l-2,0.3c-0.3,0-0.7-0.2-0.8-0.5
				L0,20.7c-0.1-0.3,0.1-0.7,0.4-0.8l1.8-0.8c0-0.3,0-0.7,0-1.1c0-0.8,0.2-1.6,0.4-2.3L1,14.5c-0.3-0.2-0.3-0.6-0.2-0.9l1.5-2.8
				c0.2-0.3,0.5-0.4,0.8-0.3l2,0.7c0.4-0.5,0.9-0.9,1.4-1.2c0.4-0.3,0.8-0.5,1.2-0.8L7.4,7c0-0.3,0.2-0.7,0.5-0.7L11,5.4
				c0.3-0.1,0.7,0.1,0.8,0.4l1,2.1c1,0,2,0.1,3,0.4l1.4-1.9c0.2-0.3,0.6-0.3,0.9-0.2L21,7.7c0.3,0.2,0.4,0.5,0.3,0.8l-0.8,2.3
				c0.7,0.7,1.3,1.4,1.8,2.3l2.4-0.3c0.3,0,0.7,0.2,0.8,0.5l0.9,3.1c0.1,0.3-0.1,0.7-0.4,0.8l-2.1,1c0.1,1.1,0,2.1-0.2,3.1l1.7,1.3
				c0.3,0.2,0.3,0.6,0.2,0.9l-1.5,2.8c-0.2,0.3-0.5,0.4-0.8,0.3L21.3,26c-0.7,0.8-1.6,1.4-2.6,1.9l0.3,2.2c0,0.3-0.2,0.7-0.5,0.7
				l-3.1,0.9C15.3,31.7,15.3,31.8,15.2,31.8z M13.9,27.7c0.3,0,0.5,0.2,0.6,0.4l1,2.2l2-0.6l-0.3-2.1c0-0.3,0.1-0.6,0.4-0.7
				c1.2-0.5,2.2-1.2,2.9-2.1c0.2-0.2,0.5-0.3,0.8-0.2l1.8,0.6l1-1.8l-1.6-1.2c-0.2-0.2-0.3-0.4-0.2-0.7c0.3-1.1,0.3-2.3,0.2-3.6
				c0-0.3,0.1-0.6,0.4-0.7l2-1l-0.6-2L22,14.5c-0.3,0-0.6-0.1-0.7-0.4c-0.6-1-1.3-1.9-2.1-2.6C19,11.3,18.9,11,19,10.8l0.8-2.2
				l-1.8-1l-1.4,1.8c-0.2,0.2-0.5,0.3-0.8,0.2c-1.1-0.3-2.3-0.5-3.4-0.4c-0.3,0-0.5-0.1-0.7-0.4l-0.9-2l-2,0.6l0.3,2
				c0,0.3-0.1,0.6-0.4,0.7c-0.5,0.2-1,0.5-1.4,0.9c-0.5,0.4-1,0.9-1.5,1.4c-0.2,0.2-0.5,0.3-0.7,0.2l-1.8-0.7l-1,1.8l1.5,1.1
				C4,15.1,4.1,15.4,4,15.6c-0.3,0.8-0.4,1.6-0.5,2.4c0,0.5,0,0.9,0,1.4c0,0.3-0.1,0.6-0.4,0.7l-1.6,0.8l0.6,2l1.8-0.2
				c0.3,0,0.6,0.1,0.7,0.3c0.6,1.1,1.4,2,2.5,2.7c0.3,0.2,0.4,0.5,0.2,0.8l-0.7,2l1.8,1l1.5-1.9c0.2-0.2,0.4-0.3,0.7-0.2
				C11.7,27.6,12.8,27.7,13.9,27.7C13.9,27.7,13.9,27.7,13.9,27.7z"/>
		</g>
		<g>
			<path class="st3" d="M13.1,24.9c-1.5,0-3.1-0.5-4.3-1.6c-2.1-1.8-2.8-4.6-1.8-7.4c0.8-2.5,3-4.1,5.7-4.2c2.8-0.1,5.3,1.5,6.3,4.1
				c1.2,3-0.1,6.8-3,8.4l0,0C15.1,24.7,14.1,24.9,13.1,24.9z M12.9,13.1c-0.1,0-0.1,0-0.2,0C11,13.2,9,14.1,8.3,16.4
				c-0.8,2.3-0.3,4.5,1.4,5.9c1.6,1.4,3.9,1.6,5.6,0.7c2.3-1.2,3.4-4.2,2.4-6.6C16.7,14,14.6,13.1,12.9,13.1z"/>
		</g>
		<g>
			<path class="st6" d="M5.2,17.9c-0.3,0-0.6-0.2-0.6-0.6c0-1.8,0.7-3.5,1.9-4.8c0.2-0.2,0.6-0.2,0.8,0c0.2,0.2,0.2,0.6,0,0.8
				c-1,1-1.6,2.5-1.6,3.9C5.8,17.6,5.5,17.9,5.2,17.9C5.2,17.9,5.2,17.9,5.2,17.9z"/>
		</g>
		<g>
			<path class="st6" d="M8.4,12.4c-0.2,0-0.3-0.1-0.4-0.2c-0.2-0.2-0.2-0.6,0-0.8l0.2-0.1C8.4,11,8.8,11,9,11.2
				c0.2,0.2,0.2,0.6,0,0.8l-0.2,0.1C8.7,12.3,8.5,12.4,8.4,12.4z"/>
		</g>
	</g>
	<g>
		<path class="st6" d="M58.8,44.2c-2.6,4.5-7.4,7.1-12.1,9.4c-3.7,1.8-7.8,3.6-11.9,2.8c-2-0.4-3.8-1.4-5.6-2.3
			c-1.8-0.9-3.7-1.8-5.7-2c-2-0.2-3.8,0.4-5.4,2.2l-3.1-12.5c2.1-1.9,4.3-3.8,6.9-5c0,0,0,0,0,0c2.6-1.2,5.8-1.5,8.3-0.1
			c2.1,1.1,3.5,3.2,5.7,4.1c1.4,0.6,3,0.6,4.6,0.7c1.5,0.1,3.2,0.5,4.3,1.5c0.6,0.5,0.9,1.3,1,2.1l0.1,0c3.2-1.3,6.6-2.6,9.9-3.8
			c0.1,0,0.2-0.1,0.4-0.1c1-0.4,2.2-0.7,2.9,0C59.8,41.9,59.4,43.2,58.8,44.2z"/>
	</g>
	<g class="st5">
		<path class="st3" d="M58.8,44.2c-2.6,4.5-7.4,7.1-12.1,9.4c-3.7,1.8-7.8,3.6-11.9,2.8c-2-0.4-3.8-1.4-5.6-2.3
			c-1.8-0.9-3.7-1.8-5.7-2c-2-0.2-3.8,0.4-5.4,2.2l-3.1-12.5c2.1-1.9,4.3-3.8,6.9-5c0.9,1,1.4,2.4,1.7,3.8c0.4,2.1,0.4,4.5,1.6,6.3
			c0.9,1.4,2.5,2.3,4.1,2.8c1.6,0.5,3.5,1.2,5.2,1.6c4.9,1.1,10.1,0.1,14.3-2.6c2.8-1.8,5.2-4.3,6.9-7.3c0.1,0,0.2-0.1,0.4-0.1
			c1-0.4,2.2-0.7,2.9,0C59.8,41.9,59.4,43.2,58.8,44.2z"/>
	</g>
	<g>
		<path class="st3" d="M42.7,48.4c-0.1,0-0.3,0-0.4,0c-2.6-0.1-5.3-0.8-7.6-1.9c-0.3-0.2-0.5-0.6-0.3-0.9c0.2-0.3,0.6-0.5,0.9-0.3
			c2.2,1.1,4.6,1.7,7.1,1.8c0.7,0,1.6,0,2.2-0.5c0.4-0.3,0.5-0.8,0.5-1.2c0-0.7-0.3-1.4-0.8-1.9c-1-1-2.6-1.2-3.9-1.3
			c-0.3,0-0.6,0-0.9-0.1c-1.3-0.1-2.6-0.2-3.9-0.7c-1.3-0.5-2.3-1.4-3.3-2.3c-0.8-0.7-1.5-1.4-2.4-1.8c-2.1-1.1-4.9-1.1-7.6,0.1
			c-2.5,1.1-4.7,3-6.7,4.9c-0.3,0.3-0.7,0.2-1-0.1c-0.3-0.3-0.2-0.7,0.1-1c2.1-1.9,4.4-3.9,7.1-5.1c3.1-1.4,6.4-1.4,8.9-0.1
			c1,0.5,1.8,1.3,2.7,2c1,0.8,1.8,1.6,2.9,2.1c1.1,0.4,2.2,0.5,3.5,0.6c0.3,0,0.6,0,0.9,0.1c1.5,0.1,3.4,0.4,4.7,1.7
			c0.8,0.7,1.2,1.9,1.2,3c0,0.9-0.4,1.7-1,2.2C44.6,48.3,43.6,48.4,42.7,48.4z"/>
	</g>
	<g>
		<path class="st3" d="M37,57.2c-0.8,0-1.5-0.1-2.3-0.2c-1.9-0.4-3.7-1.3-5.3-2.2l-0.4-0.2c-1.7-0.9-3.5-1.8-5.4-1.9
			c-1.9-0.2-3.4,0.5-4.8,2c-0.2,0.3-0.7,0.3-1,0.1c-0.3-0.3-0.3-0.7-0.1-1c1.6-1.9,3.6-2.7,5.9-2.5c2.2,0.2,4.1,1.1,6,2.1l0.4,0.2
			c1.6,0.8,3.2,1.7,5,2c3.8,0.8,7.7-0.9,11.4-2.7c4.6-2.2,9.3-4.8,11.8-9.1c0.4-0.7,0.7-1.7,0.3-2.2c-0.4-0.3-1.1-0.3-2.2,0.1
			c-1.7,0.7-3.4,1.3-5.1,2c-1.7,0.7-3.4,1.3-5.1,2c-0.4,0.1-0.8,0-0.9-0.4c-0.1-0.4,0-0.8,0.4-0.9c1.7-0.6,3.4-1.3,5.1-2
			c1.7-0.7,3.5-1.3,5.1-2c0.7-0.3,2.5-1,3.6,0.2c0.9,0.9,0.9,2.3,0,3.8c-2.7,4.7-7.6,7.3-12.4,9.6C43.8,55.7,40.4,57.2,37,57.2z"/>
	</g>
	<g>
		<path class="st6" d="M22.1,51.4L18,39.3c-0.4-1.2-1.6-2-2.8-2c-0.4,0-0.7,0-1.1,0.2l-12.5,4v19.7l18.5-5.9
			C21.8,54.7,22.6,53,22.1,51.4z"/>
	</g>
	<g>
		<path class="st3" d="M1.7,61.8c-0.1,0-0.3,0-0.4-0.1C1.1,61.5,1,61.3,1,61.1V41.4c0-0.3,0.2-0.6,0.5-0.7l12.5-4
			c0.9-0.3,1.9-0.3,2.8,0.2c0.9,0.4,1.6,1.2,1.9,2.1l4.1,12.1l0,0c0.6,1.9-0.4,4-2.3,4.7L1.9,61.8C1.9,61.8,1.8,61.8,1.7,61.8z
			 M2.4,41.9v18.3l17.6-5.6c1.2-0.4,1.8-1.7,1.4-2.9l-4.1-12.1c-0.2-0.6-0.6-1.1-1.2-1.3c-0.6-0.3-1.2-0.3-1.8-0.1L2.4,41.9z"/>
	</g>
	<g>
		<path class="st8" d="M17,59.1L1.7,64V38.6l7.4-2.4c0.5-0.2,0.9-0.2,1.4-0.2c0.2,0,0.4,0,0.5,0.1c1.4,0.2,2.5,1.2,3,2.6l5.2,15.5
			C20,56.2,19,58.4,17,59.1z"/>
	</g>
	<g class="st5">
		<path class="st3" d="M17,59.1L1.7,64v-4.8c2.3-2,4.4-4.2,6-6.8c1.4-2.3,2.5-4.9,3-7.5c0.6-2.9,0.7-5.8,0.3-8.7
			c1.4,0.2,2.5,1.2,3,2.6l5.2,15.5C20,56.2,19,58.4,17,59.1z"/>
	</g>
	<g>
		<path class="st3" d="M1.7,64.7c-0.1,0-0.3,0-0.4-0.1C1.1,64.4,1,64.2,1,64V38.6c0-0.3,0.2-0.6,0.5-0.7L9,35.6
			c1.1-0.4,2.4-0.3,3.5,0.2c1.1,0.5,1.9,1.5,2.3,2.6L20,54c0.8,2.3-0.5,4.9-2.8,5.8L1.9,64.6C1.9,64.6,1.8,64.7,1.7,64.7z M2.4,39.1
			V63l14.4-4.6c1.6-0.6,2.5-2.4,1.9-4l0,0l-5.2-15.5c-0.3-0.8-0.9-1.5-1.6-1.8c-0.8-0.4-1.6-0.4-2.5-0.1L2.4,39.1z"/>
	</g>
	<g>
		<path class="st3" d="M15,56.4c1.9-1.6-0.7-4.3-2.6-2.9C10.4,54.9,13.1,58,15,56.4z"/>
	</g>
</g>
</svg>
