<svg id="Layer_1" data-name="Layer 1" xmlns="http://www.w3.org/2000/svg" xmlns:xlink="http://www.w3.org/1999/xlink" viewBox="0 0 55 55"><defs><style>.cls-1{fill:none;}.cls-2{clip-path:url(#clip-path);}.cls-3{fill:#0664a4;}</style><clipPath id="clip-path"><rect class="cls-1" x="3.66" y="3.66" width="47.68" height="47.68"/></clipPath></defs><g class="cls-2"><path class="cls-3" d="M14.19,7.51a1.25,1.25,0,0,1-.27.92c-.38.36-2.51.26-2.72.26V10.2h2.05v1.65A1.36,1.36,0,0,1,11.9,13.2h0a1.35,1.35,0,0,1-1.34-1.35V10.3H9v1.55a2.86,2.86,0,0,0,2.85,2.85h0a2.86,2.86,0,0,0,2.85-2.85V9.69L15,9.52a2.65,2.65,0,0,0,.73-2Z"/><path class="cls-3" d="M11.94,3.66a8.28,8.28,0,1,0,8.28,8.28A8.28,8.28,0,0,0,11.94,3.66Zm5.11,12.73-2.24-2.05-1,1.11,2.14,2a6.73,6.73,0,0,1-8,0l2.14-2-1-1.11L6.84,16.39a6.78,6.78,0,1,1,10.21,0Z"/><path class="cls-3" d="M45.31,38.63a1.25,1.25,0,0,1-.28.92c-.38.36-2.5.26-2.71.26v1.52h2V43A1.34,1.34,0,0,1,43,44.31h0A1.35,1.35,0,0,1,41.65,43V41.41h-1.5V43A2.86,2.86,0,0,0,43,45.82h0A2.86,2.86,0,0,0,45.87,43V40.81l.2-.17a2.66,2.66,0,0,0,.74-2Z"/><path class="cls-3" d="M43.06,34.78a8.28,8.28,0,1,0,8.28,8.28A8.28,8.28,0,0,0,43.06,34.78Zm5.1,12.73-2.23-2-1,1.11,2.14,2a6.77,6.77,0,0,1-8,0l2.14-2-1-1.11-2.24,2a6.78,6.78,0,1,1,10.21,0Z"/><path class="cls-3" d="M19.78,19.11l-1,1.09,1.09,1,1-1.09Z"/><path class="cls-3" d="M23.48,22.59l-1,1.1,1.09,1,1-1.1Z"/><path class="cls-3" d="M27.6,26.48l-1,1.09,1.09,1,1-1.1Z"/><path class="cls-3" d="M35.84,34.25l-1,1.09,1.1,1,1-1.1Z"/><path class="cls-3" d="M31.82,30.46l-1,1.1,1.1,1,1-1.1Z"/><path class="cls-3" d="M33.3,45.94a19.56,19.56,0,0,1-10.57.29,21.27,21.27,0,0,1-2.85-6H32.52V38.69H19.45a44.09,44.09,0,0,1-1.37-10.44h6.59v-1.5H18.08a48.58,48.58,0,0,1,.36-5.18l-1.5-.19a49.74,49.74,0,0,0-.36,5.37H8.19a19.66,19.66,0,0,1,.87-5.05l-1.43-.45A20.83,20.83,0,0,0,33.75,47.37ZM11.76,38.69A19.2,19.2,0,0,1,8.19,28.25h8.39a45.25,45.25,0,0,0,1.3,10.44ZM13,40.2h5.34a25.59,25.59,0,0,0,2.2,5.31A19.5,19.5,0,0,1,13,40.2Z"/><path class="cls-3" d="M27.5,6.67a20.65,20.65,0,0,0-6.25,1l.45,1.43a19.56,19.56,0,0,1,10.57-.29,21.27,21.27,0,0,1,2.85,6H22.48v1.51H35.55a44.09,44.09,0,0,1,1.37,10.44H30.51v1.5h6.41a48.58,48.58,0,0,1-.36,5.18l1.5.19a49.74,49.74,0,0,0,.36-5.37h8.39a19.58,19.58,0,0,1-.87,5l1.44.45A20.86,20.86,0,0,0,27.5,6.67Zm9.21,8.13a25.59,25.59,0,0,0-2.2-5.31,19.5,19.5,0,0,1,7.54,5.31Zm1.71,12a45.25,45.25,0,0,0-1.3-10.44h6.12a19.2,19.2,0,0,1,3.57,10.44Z"/></g></svg>