<?xml version="1.0" encoding="utf-8"?>
<!-- Generator: Adobe Illustrator 25.0.0, SVG Export Plug-In . SVG Version: 6.00 Build 0)  -->
<svg version="1.1" id="Layer_1" xmlns="http://www.w3.org/2000/svg" xmlns:xlink="http://www.w3.org/1999/xlink" x="0px" y="0px"
	 viewBox="0 0 175 70" style="enable-background:new 0 0 175 70;" xml:space="preserve">
<style type="text/css">
	.st0{fill:#4D81C2;}
	.st1{fill:#03A8DD;}
	.st2{fill:#424143;}
	.st3{font-family:'Switzer-Bold';}
	.st4{font-size:27.533px;}
</style>
<g>
	<path class="st0" d="M28,64.6c0,0.8,0.6,1.5,1.2,1.5h7.3c0.7,0,1.2-0.7,1.2-1.5v-1.1H28V64.6z"/>
	<rect x="28" y="59.4" class="st0" width="9.7" height="2.6"/>
	<path class="st1" d="M15.9,48.4L15.9,48.4c-3.8,0-6.9-3.1-6.9-6.9c0-3.9,3.3-7.1,7.2-6.9c-0.5-2.5-0.3-5.1,0.5-7.6h-3.4v2.8
		c0,0.3-0.2,0.6-0.5,0.7c-1.8,0.5-3.4,1.5-4.8,2.7c-0.2,0.2-0.6,0.3-0.8,0.1l-2.4-1.4L2,36.5l2.4,1.4c0.3,0.2,0.4,0.5,0.3,0.8
		c-0.4,1.8-0.4,3.7,0,5.5c0.1,0.3-0.1,0.6-0.3,0.8L2,46.4L4.7,51l2.4-1.4c0.3-0.2,0.6-0.1,0.8,0.1c1.3,1.3,3,2.2,4.8,2.7
		c0.3,0.1,0.5,0.4,0.5,0.7V56h5.3v-2.8c0-0.3,0.2-0.6,0.5-0.7c2-0.6,3.2-1.4,4.8-2.8c-0.6-1.5-1.4-2.9-2.2-4.3
		C20.3,47.3,18.2,48.4,15.9,48.4z"/>
	<path class="st0" d="M32.8,16.7L32.8,16.7c-10.8,0-18.5,10.7-14.4,20.7c2,5,6.1,8.3,7.3,13.9c0.4,1.8,0.5,3.9,0.5,5.8
		c0,0.5,0.5,1,1,1h4.8V44.8l-7.5-3.6c-0.3-0.1-0.4-0.4-0.4-0.6v-4.8c-1.2-0.3-2.1-1.4-2.1-2.7c0-1.6,1.3-2.8,2.8-2.8
		s2.8,1.3,2.8,2.8c0,1.3-0.9,2.4-2.1,2.7v4.3l6.5,3.1v-7.5C30.9,35.4,30,34.3,30,33c0-1.6,1.3-2.8,2.8-2.8c1.6,0,2.8,1.3,2.8,2.8
		c0,1.3-0.9,2.4-2.1,2.7v7.5l6.5-3.1v-4.3c-1.2-0.3-2.1-1.4-2.1-2.7c0-1.6,1.3-2.8,2.8-2.8s2.8,1.3,2.8,2.8c0,1.3-0.9,2.4-2.1,2.7
		v4.8c0,0.3-0.2,0.5-0.4,0.6l-7.5,3.6V58h4.8c0.5,0,1-0.4,1-1c0-2,0.1-4,0.5-5.8c0.7-3.2,2.5-5.8,4.2-8.4c1.2-1.8,2.4-3.6,3.2-5.5
		C51.2,27.5,43.8,16.7,32.8,16.7z"/>
	<path class="st1" d="M10.4,41.5c0,3,2.5,5.5,5.5,5.5c2,0,3.9-1.1,4.9-2.9c-0.1-0.2-0.2-0.3-0.3-0.5c-1.2-1.8-2.5-3.7-3.3-5.7
		c-0.3-0.6-0.5-1.2-0.6-1.9l0,0C13.2,35.7,10.4,38.2,10.4,41.5z"/>
	<path class="st1" d="M24.9,31.6c-0.8,0-1.4,0.6-1.4,1.4s0.6,1.4,1.4,1.4s1.4-0.6,1.4-1.4S25.7,31.6,24.9,31.6z"/>
	<path class="st1" d="M60.9,21.2c0.4-1.8,0.4-3.7,0-5.5c-0.1-0.3,0.1-0.6,0.3-0.8l2.4-1.4L61,8.9l-2.4,1.4c-0.3,0.2-0.6,0.1-0.8-0.1
		c-1.3-1.3-3-2.2-4.8-2.7c-0.3-0.1-0.5-0.4-0.5-0.7V3.9h-5.3v2.8c0,0.3-0.2,0.6-0.5,0.7c-1.8,0.5-3.4,1.5-4.8,2.7
		c-0.2,0.2-0.6,0.3-0.8,0.1l-2.4-1.4l-2.7,4.6l2.4,1.4c0.3,0.2,0.4,0.5,0.3,0.8c0,0.2-0.1,0.4-0.1,0.6c1.5,0.6,3,1.3,4.3,2.3
		c-0.1-3.9,3.1-7,6.9-7c3.8,0,6.9,3.1,6.9,6.9s-3.1,6.9-6.9,6.9c-0.5,0-0.9,0-1.4-0.1c0.2,0.4,0.4,0.9,0.5,1.3
		c0.7,2.1,1,4.2,0.8,6.4h2.7v-2.8c0-0.3,0.2-0.6,0.5-0.7c1.8-0.5,3.4-1.5,4.8-2.7c0.2-0.2,0.6-0.3,0.8-0.1L61,28l2.7-4.6l-2.4-1.4
		C60.9,21.8,60.8,21.5,60.9,21.2z"/>
	<path class="st1" d="M47.4,23.4c0.7,0.4,1.5,0.5,2.4,0.5c3,0,5.5-2.5,5.5-5.5c0-3-2.5-5.5-5.5-5.5c-3.6,0-6.2,3.5-5.3,6.9
		C45.6,20.9,46.6,22.1,47.4,23.4z"/>
	<path class="st1" d="M42.1,33c0-0.8-0.6-1.4-1.4-1.4s-1.4,0.6-1.4,1.4s0.6,1.4,1.4,1.4S42.1,33.8,42.1,33z"/>
	<path class="st1" d="M34.2,33c0-0.8-0.6-1.4-1.4-1.4s-1.4,0.6-1.4,1.4s0.6,1.4,1.4,1.4S34.2,33.8,34.2,33z"/>
</g>
<text transform="matrix(1 0 0 1 50.4689 55.4733)" class="st2 st3 st4">Solutions</text>
</svg>
