<svg xmlns="http://www.w3.org/2000/svg" version="1.0" viewBox="0 0 810 810"><defs><clipPath id="a"><path d="M33.805 31.77h742.5v746.25h-742.5Zm0 0"/></clipPath></defs><path fill="#151312" d="M157.727 35.79h494.66c67.035 0 121.37 54.315 121.37 121.323v494.45c0 67-54.335 121.32-121.37 121.32h-494.66c-67.032 0-121.375-54.32-121.375-121.32v-494.45c0-67.008 54.343-121.324 121.375-121.324Zm0 0"/><g clip-path="url(#a)"><path fill="none" stroke="#000" d="M27 .878h108c14.636 0 26.5 11.864 26.5 26.5v108c0 14.635-11.864 26.5-26.5 26.5H27c-14.635 0-26.5-11.865-26.5-26.5v-108C.5 12.742 12.365.878 27 .878Zm0 0" transform="matrix(4.58017 0 0 4.57822 34.063 31.77)"/></g><path fill="#FFF" d="M217.91 414.492c-13.097-11.582-23.351-25.61-30.758-42.09-7.402-16.68-11.105-34.144-11.105-52.394 0-23.156 5.508-44.25 16.52-63.281 11.011-19.23 25.722-34.536 44.14-45.918 18.606-11.38 39.11-17.07 61.512-17.07h339.465v84.179H298.219c-11.2 0-20.79 4.121-28.762 12.363-7.977 8.242-11.96 18.149-11.96 29.727s4.366 21.683 13.1 30.316c6.833 5.692 15.567 9.223 26.2 10.598 10.633 1.176 22.496 1.765 35.598 1.765h7.121c31.894.586 63.789.688 95.683.293h9.399a3546.38 3546.38 0 0 0 46.418-.882c5.32 0 10.726-.098 16.238-.293 12.719-.395 26.101.195 40.148 1.765 14.243 1.57 28.383 5.79 42.438 12.657 35.125 18.64 56.765 48.171 64.926 88.593 3.422 19.035 2.851 37.774-1.707 56.22-4.938 19.624-13.957 36.987-27.055 52.1-11.766 13.34-25.438 23.641-41.008 30.903-15.566 7.262-31.894 10.89-48.98 10.89H189.719v-84.18h346.297c11.011 0 20.785-4.612 29.332-13.835 8.73-10.203 11.863-22.27 9.398-36.203-2.66-13.344-9.59-22.957-20.793-28.844-12.148-5.101-27.242-7.062-45.281-5.887a434.02 434.02 0 0 1-15.945.293 3581.92 3581.92 0 0 1-47.559.883h-9.398c-32.465.59-65.122.492-97.965-.293h-6.266c-17.656.395-36.453-1.078-56.387-4.414-19.746-3.531-38.824-12.855-57.242-27.96Zm0 0"/></svg>