<?xml version="1.0" encoding="utf-8"?>
<!-- Generator: Adobe Illustrator 25.0.0, SVG Export Plug-In . SVG Version: 6.00 Build 0)  -->
<svg version="1.1" id="Layer_1" xmlns="http://www.w3.org/2000/svg" xmlns:xlink="http://www.w3.org/1999/xlink" x="0px" y="0px"
	 viewBox="0 0 175 70" style="enable-background:new 0 0 175 70;" xml:space="preserve">
<style type="text/css">
	.st0{fill:#424143;}
	.st1{font-family:'Switzer-Bold';}
	.st2{font-size:23px;}
	.st3{fill:#1B75BB;}
	.st4{fill:#F6921E;}
</style>
<text transform="matrix(1 0 0 1 48.8702 43.4733)" class="st0 st1 st2">Technology</text>
<g id="XMLID_1013_">
	<path id="XMLID_877_" class="st3" d="M34.8,35.6c-2,0-3.6,1.6-3.6,3.6c0,1.6,1,3,2.6,3.5v2.3l-6.9,6.9v2.3h-1.5V40.5l3.7-3.7V24.4
		c1.5-0.5,2.6-1.9,2.6-3.5c0-2-1.6-3.6-3.6-3.6c-2,0-3.6,1.6-3.6,3.6c0,1.6,1,3,2.6,3.5v11.5l-3.7,3.7v6.9l-1.6-1.6V33.4
		c1.5-0.5,2.6-1.9,2.6-3.5c0-2-1.6-3.6-3.6-3.6c-2,0-3.6,1.6-3.6,3.6c0,1.6,1,3,2.6,3.5v12.4l3.7,3.7v4.7h-1.5v-2.3l-6.9-6.9v-2.3
		c1.5-0.5,2.6-1.9,2.6-3.5c0-2-1.6-3.6-3.6-3.6c-2,0-3.6,1.6-3.6,3.6c0,1.6,1,3,2.6,3.5v3.1l6.9,6.9v1.5h-1.8v2.1h12.8v-2.1h-1.8
		v-1.5l6.9-6.9v-3.1c1.5-0.5,2.6-1.9,2.6-3.5C38.5,37.2,36.8,35.6,34.8,35.6z M26.2,20.9c0-1,0.8-1.8,1.8-1.8c1,0,1.8,0.8,1.8,1.8
		c0,1-0.8,1.8-1.8,1.8C27.1,22.7,26.2,21.9,26.2,20.9z M18.8,29.9c0-1,0.8-1.8,1.8-1.8c1,0,1.8,0.8,1.8,1.8c0,1-0.8,1.8-1.8,1.8
		C19.6,31.7,18.8,30.9,18.8,29.9z M12,39.2c0-1,0.8-1.8,1.8-1.8c1,0,1.8,0.8,1.8,1.8c0,1-0.8,1.8-1.8,1.8C12.8,41,12,40.2,12,39.2z
		 M34.8,41c-1,0-1.8-0.8-1.8-1.8c0-1,0.8-1.8,1.8-1.8c1,0,1.8,0.8,1.8,1.8C36.6,40.2,35.8,41,34.8,41z"/>
	<path id="XMLID_876_" class="st3" d="M18.7,57.6v1.8l0,0c0,0,2.9,2,5.6,2c2.7,0,5.6-2,5.6-2l0,0v-1.8H18.7z"/>
	<path id="XMLID_916_" class="st4" d="M48.4,29.7l-3.1-1.1c-0.6-2.7-1.6-5.2-3.1-7.5l1.4-3c-1.3-1.7-2.8-3.2-4.6-4.6l-3,1.4
		c-2.2-1.5-4.8-2.5-7.5-3.1l-1.1-3.1c-1.1-0.1-2.1-0.2-3.2-0.2c0,0,0,0,0,0s0,0,0,0c-1.1,0-2.2,0.1-3.2,0.2L20,11.9
		c-2.7,0.6-5.2,1.6-7.5,3.1l-3-1.4c-1.7,1.3-3.2,2.8-4.6,4.6l1.4,3c-1.5,2.2-2.5,4.8-3.1,7.5l-3.1,1.1C0.1,30.8,0,31.8,0,32.9
		c0,1.1,0.1,2.2,0.2,3.2l3.1,1.1c0.6,2.7,1.6,5.2,3.1,7.5l-1.4,3c1.3,1.7,2.8,3.2,4.6,4.6l3-1.4c1.4,0.9,3,1.7,4.6,2.3h1.5v0
		c0,0-13.5-7.1-13.5-20.2c0-10.6,8.6-19.2,19.2-19.2c0,0,0,0,0,0s0,0,0,0c10.6,0,19.2,8.6,19.2,19.2C43.5,46,30,53.1,30,53.1v0h1.5
		c1.6-0.6,3.2-1.4,4.6-2.3l3,1.4c1.7-1.3,3.2-2.8,4.6-4.6l-1.4-3c1.5-2.2,2.5-4.8,3.1-7.5l3.1-1.1c0.1-1.1,0.2-2.1,0.2-3.2
		C48.6,31.8,48.6,30.8,48.4,29.7z"/>
</g>
</svg>
