<svg id="Layer_1" data-name="Layer 1" xmlns="http://www.w3.org/2000/svg" xmlns:xlink="http://www.w3.org/1999/xlink" viewBox="0 0 73 102"><defs><style>.cls-1{fill:none;}.cls-2{clip-path:url(#clip-path);}.cls-3{clip-path:url(#clip-path-3);}.cls-4{fill:#eae3dd;}.cls-5{fill:#93828a;}.cls-6{fill:#846f7a;}.cls-7{font-size:12px;fill:#fff;font-family:ArialRoundedMTBold, Arial Rounded MT Bold;}.cls-8{letter-spacing:-0.05em;}.cls-9{fill:#73af00;}.cls-10{fill:#464655;}.cls-11{fill:#f5f5f5;}.cls-12{fill:#ff4b55;}</style><clipPath id="clip-path"><rect class="cls-1" width="72.98" height="101.77"/></clipPath><clipPath id="clip-path-3"><rect class="cls-1" width="72.98" height="101.77"/></clipPath></defs><g class="cls-2"><g class="cls-2"><g class="cls-3"><path class="cls-4" d="M56.17,98.87a2.91,2.91,0,0,1,2,.85,2.87,2.87,0,0,1,.85,2h4a2.9,2.9,0,0,1,5.79-.12v.12H73V98.05a2.9,2.9,0,0,1-1.45-5.41A2.94,2.94,0,0,1,73,92.25v-4a2.89,2.89,0,0,1-.12-5.78H73V78.38a2.89,2.89,0,0,1-.12-5.78H73v-4a2.94,2.94,0,0,1-1.45-.39,2.91,2.91,0,0,1-1.06-1.06A2.9,2.9,0,0,1,73,62.76v-4a2.9,2.9,0,0,1-.12-5.79H73v-4a2.9,2.9,0,0,1,0-5.8v-4a2.9,2.9,0,0,1,0-5.8v-4a2.9,2.9,0,0,1,0-5.8v-4a2.9,2.9,0,0,1,0-5.8v-4a2.89,2.89,0,0,1-.12-5.78H73V0H68.9a2.91,2.91,0,0,1-.85,2.05,2.88,2.88,0,0,1-2,.85,2.91,2.91,0,0,1-2.06-.85,2.86,2.86,0,0,1-.84-2H59.05a2.86,2.86,0,0,1-.84,2.05,2.91,2.91,0,0,1-2.06.85,2.77,2.77,0,0,1-1.1-.22,2.8,2.8,0,0,1-.94-.62,2.83,2.83,0,0,1-.63-.94A3,3,0,0,1,53.25,0h-4a2.91,2.91,0,0,1-.85,2.06,2.9,2.9,0,0,1-2,.84,2.93,2.93,0,0,1-2.05-.84A3,3,0,0,1,43.41,0h-4a2.94,2.94,0,0,1-.84,2.06,2.93,2.93,0,0,1-2.05.84,2.94,2.94,0,0,1-2.06-.84A2.94,2.94,0,0,1,33.58,0h-4a2.9,2.9,0,0,1-.84,2.06,2.9,2.9,0,0,1-2.06.84,2.88,2.88,0,0,1-2.05-.83A2.92,2.92,0,0,1,23.72,0h-4a2.88,2.88,0,0,1-.85,2.05,2.9,2.9,0,0,1-4.1,0,2.92,2.92,0,0,1-.85-2h-4a2.88,2.88,0,0,1-.85,2,2.87,2.87,0,0,1-2,.84,2.93,2.93,0,0,1-2-.85,2.88,2.88,0,0,1-.83-2H0V3.72a2.87,2.87,0,0,1,2.05.85,2.9,2.9,0,0,1,0,4.1,2.87,2.87,0,0,1-2,.85v4a2.91,2.91,0,0,1,2.05.85,2.88,2.88,0,0,1,.85,2.05,2.93,2.93,0,0,1-.84,2.05,2.83,2.83,0,0,1-.94.63,2.77,2.77,0,0,1-1.1.22v4a2.88,2.88,0,0,1,2.05.85,2.91,2.91,0,0,1,.85,2.05,2.92,2.92,0,0,1-.85,2.05,2.92,2.92,0,0,1-2,.85v4a2.88,2.88,0,0,1,2.05.85,2.91,2.91,0,0,1,.85,2,2.9,2.9,0,0,1-.87,2A2.85,2.85,0,0,1,0,39v4a2.91,2.91,0,0,1,2.05.85A2.88,2.88,0,0,1,2.9,46v0A2.88,2.88,0,0,1,2.05,48a2.91,2.91,0,0,1-2,.85v4a2.87,2.87,0,0,1,2.05.85,2.87,2.87,0,0,1,.85,2.05,2.82,2.82,0,0,1-.22,1.11,3,3,0,0,1-.63.94,3,3,0,0,1-.94.63A3,3,0,0,1,0,58.71v4a2.91,2.91,0,0,1,2.05.85,2.88,2.88,0,0,1,.85,2.05,3,3,0,0,1-.22,1.11,2.84,2.84,0,0,1-.63.93,3,3,0,0,1-.94.63A3,3,0,0,1,0,68.53v4a2.91,2.91,0,0,1,2.05.85,2.88,2.88,0,0,1,.85,2v0a3,3,0,0,1-.22,1.1,3,3,0,0,1-.63.94,2.8,2.8,0,0,1-.94.62A2.82,2.82,0,0,1,0,78.37v4a2.91,2.91,0,0,1,2.05.85,2.88,2.88,0,0,1,.85,2,2.93,2.93,0,0,1-.84,2,3,3,0,0,1-.94.63,2.77,2.77,0,0,1-1.1.22v4.05a2.85,2.85,0,0,1,1.11.22,2.83,2.83,0,0,1,.94.63,2.88,2.88,0,0,1,.63.94,3,3,0,0,1,.22,1.11,3,3,0,0,1-.22,1.11,3,3,0,0,1-.63.94,3,3,0,0,1-.94.63A3,3,0,0,1,0,98.06v3.72H4.1a2.91,2.91,0,0,1,.85-2,2.9,2.9,0,0,1,4.1,0,2.91,2.91,0,0,1,.85,2h4a2.9,2.9,0,0,1,2.9-2.9,2.9,2.9,0,0,1,2.9,2.9h4a2.89,2.89,0,0,1,5.78-.12v.12h4.05a2.9,2.9,0,1,1,5.79,0h4.05a2.9,2.9,0,0,1,2.9-2.9,2.77,2.77,0,0,1,1.1.22,2.84,2.84,0,0,1,.93.63,2.8,2.8,0,0,1,.62.94,3,3,0,0,1,.21,1.11h4a2.9,2.9,0,0,1,2.9-2.9Z"/><path class="cls-5" d="M6.39,6.19H66.6V95.58H6.39Z"/><path class="cls-6" d="M66.17,6.62V95.15H6.82V6.62ZM67,5.76H6V96H67Z"/></g></g></g><text class="cls-7" transform="translate(23.92 31.9)"><tspan class="cls-8">U</tspan><tspan x="8.52" y="0">AE</tspan></text><path class="cls-9" d="M59.91,57.87H27.62V47.65H59.1a.81.81,0,0,1,.81.81v9.41Z"/><path class="cls-10" d="M59.1,78.33H27.62V68.1H59.91v9.42A.81.81,0,0,1,59.1,78.33Z"/><rect class="cls-11" x="27.62" y="57.87" width="32.29" height="10.23"/><path class="cls-12" d="M27.62,78.33H13.9a.81.81,0,0,1-.81-.81V48.46a.81.81,0,0,1,.81-.81H27.62Z"/></svg>