<svg xmlns="http://www.w3.org/2000/svg" version="1.1" xmlns:xlink="http://www.w3.org/1999/xlink" width="512" height="512" x="0" y="0" viewBox="0 0 512 512" style="enable-background:new 0 0 512 512" xml:space="preserve" class=""><g><circle cx="408.5" cy="374.422" r="7.5" fill="#0664a4" opacity="1" data-original="#000000" class=""></circle><circle cx="435" cy="374.422" r="7.5" fill="#0664a4" opacity="1" data-original="#000000" class=""></circle><circle cx="461.5" cy="374.422" r="7.5" fill="#0664a4" opacity="1" data-original="#000000" class=""></circle><path d="M485.875 59.36H378.517C349.864 23.223 305.595 0 256 0s-93.864 23.223-122.518 59.36H26.125c-12.407 0-22.5 10.093-22.5 22.5v302.187c0 15.164 12.336 27.5 27.5 27.5h159.964v43.949H78.222c-6.893 0-12.5 5.607-12.5 12.5V499.5c0 6.893 5.607 12.5 12.5 12.5h355.555c6.893 0 12.5-5.607 12.5-12.5v-31.504c0-6.893-5.607-12.5-12.5-12.5H395c-4.143 0-7.5 3.358-7.5 7.5s3.357 7.5 7.5 7.5h36.277V497H80.722v-26.504H360c4.143 0 7.5-3.358 7.5-7.5s-3.357-7.5-7.5-7.5h-39.089v-43.949h159.964c15.164 0 27.5-12.336 27.5-27.5V81.86c0-12.406-10.094-22.5-22.5-22.5zM382.552 93.5a140.269 140.269 0 0 1 14.549 55.299h-59.877c-.463-19.322-2.728-37.999-6.601-55.299zm-71.565 140.599c-10.685 33.712-27.947 57.61-47.487 62.546v-62.546zm-47.487-15V163.8h58.715c-.51 19.659-3.013 38.397-7.07 55.299zm51.413 45.751c4.64-9.353 8.6-19.688 11.852-30.751h47.126c-17.888 27.017-44.801 47.558-76.411 57.284 6.365-7.157 12.228-16.04 17.433-26.533zm15.71-45.751c3.873-17.3 6.138-35.977 6.601-55.299H397.1a140.269 140.269 0 0 1-14.549 55.299zM373.891 78.5h-47.126c-3.252-11.063-7.213-21.398-11.852-30.751-5.205-10.493-11.068-19.376-17.432-26.533 31.61 9.727 58.522 30.268 76.41 57.284zM263.5 15.955c19.541 4.936 36.802 28.834 47.487 62.545H263.5zM256 109.5a7.5 7.5 0 0 0 7.5-7.5v-8.5h51.645c4.058 16.902 6.56 35.64 7.07 55.299H263.5V138a7.5 7.5 0 0 0-15 0v10.8h-58.715c.51-19.659 3.013-38.398 7.07-55.299H248.5v8.5a7.5 7.5 0 0 0 7.5 7.499zm-70.765 124.599c3.252 11.063 7.212 21.399 11.852 30.751 5.205 10.493 11.068 19.376 17.432 26.533-31.61-9.726-58.522-30.268-76.411-57.284zm-55.787-15a140.281 140.281 0 0 1-14.549-55.299h59.878c.463 19.321 2.728 37.999 6.601 55.299zm71.565 15H248.5v62.546c-19.541-4.937-36.802-28.834-47.487-62.546zm-4.158-15c-4.058-16.902-6.56-35.64-7.07-55.299H248.5v55.299zM248.5 15.955V78.5h-47.487c10.685-33.711 27.947-57.609 47.487-62.545zm-33.981 5.262c-6.365 7.156-12.227 16.04-17.432 26.533-4.639 9.353-8.6 19.688-11.852 30.751h-47.127c17.889-27.017 44.801-47.558 76.411-57.284zM181.378 93.5c-3.873 17.3-6.138 35.978-6.601 55.299H114.9A140.265 140.265 0 0 1 129.449 93.5zm124.533 361.996h-99.822v-43.949h99.822zm187.464-115.735H152.999a7.5 7.5 0 0 0 0 15h340.376v29.286c0 6.893-5.607 12.5-12.5 12.5H31.125c-6.893 0-12.5-5.607-12.5-12.5v-29.286H118a7.5 7.5 0 0 0 0-15H18.625V81.86c0-4.136 3.364-7.5 7.5-7.5h96.831C108.219 98.201 99.7 126.272 99.7 156.3c0 86.184 70.116 156.3 156.3 156.3s156.3-70.116 156.3-156.3c0-30.027-8.519-58.099-23.256-81.939h96.831c4.136 0 7.5 3.364 7.5 7.5z" fill="#0664a4" opacity="1" data-original="#000000" class=""></path><path d="M98.125 299h-48a7.5 7.5 0 0 0 0 15h48a7.5 7.5 0 0 0 0-15zM50.125 288h18a7.5 7.5 0 0 0 0-15h-18a7.5 7.5 0 0 0 0 15zM462.125 299h-20c-4.143 0-7.5 3.358-7.5 7.5s3.357 7.5 7.5 7.5h20c4.143 0 7.5-3.358 7.5-7.5s-3.357-7.5-7.5-7.5zM462.125 273h-20c-4.143 0-7.5 3.358-7.5 7.5s3.357 7.5 7.5 7.5h20c4.143 0 7.5-3.358 7.5-7.5s-3.357-7.5-7.5-7.5zM462.125 247h-20c-4.143 0-7.5 3.358-7.5 7.5s3.357 7.5 7.5 7.5h20c4.143 0 7.5-3.358 7.5-7.5s-3.357-7.5-7.5-7.5z" fill="#0664a4" opacity="1" data-original="#000000" class=""></path></g></svg>