<?xml version="1.0" encoding="utf-8"?>
<!-- Generator: Adobe Illustrator 16.0.0, SVG Export Plug-In . SVG Version: 6.00 Build 0)  -->
<!DOCTYPE svg PUBLIC "-//W3C//DTD SVG 1.1//EN" "http://www.w3.org/Graphics/SVG/1.1/DTD/svg11.dtd">
<svg version="1.1" id="Layer_1" xmlns="http://www.w3.org/2000/svg" xmlns:xlink="http://www.w3.org/1999/xlink" x="0px" y="0px"
	 width="512px" height="512px" viewBox="0 0 512 512" enable-background="new 0 0 512 512" xml:space="preserve">
<g id="Surfaces">
	<g id="Photo_Surface">
		<g id="Outline_no_shadow">
			<path fill="#330000" d="M-1627-234.972h312c46.392,0,84,37.608,84,84v296c0,46.392-37.608,84-84,84h-312
				c-46.392,0-84-37.608-84-84v-296C-1711-197.364-1673.392-234.972-1627-234.972z"/>
		</g>
	</g>
</g>
<g>
	<path fill="#FF9A00" d="M-1469.42,53.028H-1541l-18.48,53.359c-0.213,1.761-1.327,2.641-3.34,2.641h-33.6
		c-2.24,0-3.02-1.1-2.34-3.3l64.84-192.58c1.831-5.864,2.735-11.978,2.68-18.12c-0.13-0.975,0.555-1.87,1.529-2
		c0.156-0.021,0.315-0.021,0.471,0h47.04c1.36,0,2.14,0.56,2.36,1.64l72.56,211.4c0.681,2,0.12,2.96-1.68,2.96h-37.62
		c-1.424,0.085-2.756-0.707-3.359-2L-1469.42,53.028z M-1533,17.028h55.76c-1.34-2.939-26.42-83.86-28.22-90.68h-0.32L-1533,17.028z
		"/>
	<path fill="#FF9A00" d="M-1367.18-66.972c-6.372,0.272-12.582-2.043-17.221-6.42c-4.542-4.618-6.937-10.931-6.6-17.4
		c-0.301-6.551,2.158-12.928,6.78-17.58c4.676-4.451,10.948-6.83,17.399-6.6c6.469-0.337,12.782,2.058,17.4,6.6
		c4.417,4.758,6.731,11.095,6.42,17.58c0.337,6.469-2.058,12.782-6.6,17.4C-1354.358-68.975-1360.695-66.661-1367.18-66.972z"/>
	<path fill="#FF9A00" d="M-1387,106.028v-154.32c-0.19-1.29,0.7-2.489,1.989-2.68c0.229-0.034,0.462-0.034,0.69,0h34.641
		c1.302-0.178,2.502,0.734,2.68,2.036c0.029,0.214,0.029,0.43,0,0.644v154.64c0.19,1.289-0.7,2.488-1.989,2.68
		c-0.229,0.033-0.462,0.033-0.69,0H-1384c-1.455,0.201-2.798-0.814-3-2.27C-1387.033,106.516-1387.033,106.27-1387,106.028z"/>
</g>
<path fill-rule="evenodd" clip-rule="evenodd" fill="#FEA51A" d="M-947.195,411.433c0.127-1.897,0.365-3.796,0.366-5.694
	c0.021-45.039,0.016-90.078,0.016-135.118c0-8.206,0-8.206,8.446-8.206c33.38,0,66.761-0.054,100.14,0.079
	c3.506,0.014,5.882-1.066,8.315-3.526c18.309-18.506,36.73-36.903,55.212-55.236c2.193-2.177,3.24-4.327,3.222-7.485
	c-0.131-21.241-0.118-42.484-0.012-63.726c0.015-2.933-0.793-5.025-2.911-7.123c-17.698-17.535-35.31-35.16-52.848-52.856
	c-2.2-2.22-4.432-3.123-7.557-3.114c-35.616,0.095-71.233-0.02-106.848,0.166c-4.296,0.022-5.268-1.178-5.254-5.336
	c0.15-45.998,0.1-91.996,0.079-137.993c0-1.898-0.238-3.797-0.366-5.696c49.854,0,99.707,0,149.561,0
	c-0.025,36.745-0.031,73.489-0.122,110.234c-0.006,2.291,0.781,3.844,2.354,5.411c19.132,19.05,38.242,38.124,57.251,57.297
	c2.04,2.058,4.162,2.472,6.826,2.467c31.794-0.056,63.587,0.022,95.379-0.114c3.655-0.016,4.85,0.807,4.837,4.686
	c-0.143,43.616-0.138,87.231-0.007,130.846c0.013,3.773-1.004,4.771-4.771,4.753c-32.91-0.149-65.822-0.048-98.733-0.152
	c-2.967-0.01-5.019,0.863-7.093,2.955c-17.657,17.813-35.407,35.535-53.181,53.233c-1.764,1.756-2.9,3.405-2.891,6.14
	c0.13,37.703,0.123,75.407,0.149,113.11C-847.488,411.433-897.342,411.433-947.195,411.433z M-850.308-23.317
	c0.08-2.66-0.634-3.556-3.422-3.523c-12.28,0.147-24.563,0.148-36.843,0.003c-2.919-0.035-3.807,0.812-3.77,3.761
	c0.156,12.12,0.145,24.244,0.007,36.365c-0.033,2.889,0.798,3.882,3.765,3.849c12.28-0.139,24.563-0.138,36.843,0
	c2.833,0.032,3.479-1.01,3.413-3.613c-0.157-6.216-0.05-12.439-0.05-18.66C-850.364-11.196-850.488-17.261-850.308-23.317z
	 M-850.312,318.786c0.076-2.725-0.404-3.986-3.584-3.939c-12.279,0.182-24.563,0.13-36.843,0.028
	c-2.646-0.021-3.621,0.757-3.593,3.526c0.126,12.279,0.12,24.563,0.003,36.843c-0.025,2.631,0.645,3.619,3.445,3.589
	c12.44-0.133,24.882-0.118,37.322-0.006c2.473,0.022,3.325-0.64,3.253-3.199c-0.174-6.216-0.057-12.44-0.056-18.661
	C-850.364,330.906-850.48,324.843-850.312,318.786z"/>
<path fill-rule="evenodd" clip-rule="evenodd" fill="#0A9847" d="M52.167,512c-9.597-5.24-10.639-13.548-9.021-23.347
	c11.922-72.221,23.668-144.47,35.481-216.706c2.449-14.974,4.496-30.032,7.511-44.891c5.35-26.362,26.654-45.813,53.354-46.301
	c55.853-1.02,111.733-0.963,167.598-0.68c10.916,0.056,16.621-1.667,17.018-14.252c0.367-11.639,3.256-23.275,5.782-34.749
	c1.98-9,0.607-13.548-10.026-12.254c-8.533,1.038-16.623-0.897-22.894-7.656c-5.529-5.961-7.913-12.945-6.681-20.905
	c3.535-22.853,7.441-45.652,10.858-68.523c1.68-11.231,9.112-17.524,17.904-22.978c28.134,0,56.267,0,84.399,0
	c7.046,4.152,15.418,5.253,22.216,10.148c20.443,14.723,29.352,34.606,25.64,59.341c-5.969,39.764-12.746,79.403-19.164,119.1
	c-2.117,13.098-4.452,26.17-6.184,39.317c-1.496,11.365-6.838,19.354-16.782,25.433c-46.939,28.693-93.6,57.842-140.372,86.809
	c-13.435,8.323-22.92,7.766-35.368-2.116c-20.813-16.523-41.601-33.082-62.375-49.652c-9.608-7.666-11.771-16.001-6.15-23.325
	c5.758-7.503,15.113-7.545,25.01,0.249c18.797,14.807,37.618,29.589,56.091,44.793c4.95,4.074,8.286,4.21,13.789,0.746
	c42.706-26.887,85.615-53.455,128.629-79.849c5.315-3.261,7.876-6.798,8.88-13.156c7.8-49.436,16.396-98.746,24.134-148.19
	c3.996-25.535-8.98-39.82-34.771-39.858c-15.965-0.023-31.936,0.26-47.889-0.143c-5.885-0.149-8.933,1.139-9.822,7.494
	c-2.108,15.022-4.559,30.01-7.391,44.915c-1.45,7.636,1.613,9.211,8.413,8.759c8.77-0.583,17.456-0.361,24.437,6.59
	c6.809,6.775,8.768,14.747,7.219,23.94c-3.592,21.327-7.199,42.652-10.683,63.997c-3.002,18.385-10.527,25.317-28.789,25.341
	c-56.957,0.08-113.913,0.098-170.869-0.102c-23.13-0.082-33.895,8.733-37.693,31.925c-11.892,72.609-23.783,145.218-35.639,217.833
	c-0.3,1.839-0.194,3.743-0.354,7.363c16.126-9.951,31.358-18.984,46.186-28.639c8.313-5.412,16.978-7.612,26.835-7.576
	c60.055,0.207,120.113,0.13,180.168,0.092c23.298-0.016,32.929-8.188,36.811-31.27c3.649-21.692,7.167-43.409,10.678-65.125
	c1.748-10.807,8.336-16.739,17.286-15.365c9.074,1.396,13.761,8.666,12.08,19.702c-3.657,23.996-7.232,48.011-11.477,71.905
	c-5.302,29.842-29.511,49.724-60.413,49.802c-60.793,0.156-121.589,0.116-182.384-0.067c-5.953-0.018-10.844,1.339-15.89,4.542
	C112.216,480.505,86.714,496.188,61.291,512C58.25,512,55.209,512,52.167,512z"/>
</svg>
