<?xml version="1.0" encoding="utf-8"?>
<!-- Generator: Adobe Illustrator 25.0.0, SVG Export Plug-In . SVG Version: 6.00 Build 0)  -->
<svg version="1.1" id="Layer_1" xmlns="http://www.w3.org/2000/svg" xmlns:xlink="http://www.w3.org/1999/xlink" x="0px" y="0px"
	 viewBox="0 0 512 512" style="enable-background:new 0 0 512 512;" xml:space="preserve">
<style type="text/css">
	.st0{fill:#0664A4;}
</style>
<g>
	<path class="st0" d="M202.7,136c-30.1,0-54.7,21.5-54.7,48c0,2,0.2,4,0.5,6c-16.8,7.4-27.9,23.7-28.5,42c0,10.2,3.7,20.2,10.3,28
		c-6.6,7.8-10.2,17.8-10.3,28c0.5,18.2,11.4,34.5,28,41.9c1.2,25.6,25.2,46.1,54.6,46.1c16.5,0.2,32.3-6.7,43.4-19
		c1.3-1.5,2-3.3,2-5.2V160.2c0-1.9-0.7-3.8-2-5.2C235,142.7,219.2,135.7,202.7,136z M202.7,360c-17.8,1.2-33.8-10.7-38-28
		c13.2-3.5,22.5-15.3,22.7-28.9h-16c-0.3,7.1-5.6,13-12.6,14.1c-12.9-4-22-15.6-22.7-29.1c0.2-8.5,4.1-16.6,10.7-22
		c3.3-2.9,3.7-8,0.8-11.3c-0.2-0.3-0.5-0.5-0.8-0.8c-6.6-5.4-10.5-13.4-10.7-22c0.8-14.1,10.7-26.1,24.4-29.6h0.1
		c7.5,0.6,13.5,6.7,13.8,14.2h16c-0.3-14.9-11.3-27.5-26.1-29.8c-0.1-0.9-0.2-1.8-0.3-2.7c0-17.6,17.3-32,38.7-32
		c10.9-0.2,21.4,3.9,29.3,11.4v74.4c-13.6,2.8-24.7,12.6-29.1,25.8l-0.4,1.1l15.2,5.1l0.4-1.1c2.2-6.6,7.3-11.9,13.9-14.3v94.3
		C224.1,356.1,213.6,360.2,202.7,360z"/>
	<path class="st0" d="M291.1,172.7c1.5,2.1,3.9,3.3,6.5,3.3h14.5c6.7,11.4,21.3,15.3,32.7,8.6c11.4-6.7,15.3-21.3,8.6-32.7
		c-6.7-11.4-21.3-15.3-32.7-8.6c-6.1,3.6-10.4,9.7-11.6,16.7h-7.5l-15.2-20.7c-1.5-2.1-3.9-3.3-6.5-3.3h-24v16h19.9L291.1,172.7z
		 M332.8,156c4.4,0,8,3.6,8,8s-3.6,8-8,8s-8-3.6-8-8S328.4,156,332.8,156z"/>
	<path class="st0" d="M345.5,216h-32.8l-16.8-21c-1.5-1.9-3.8-3-6.2-3h-32v16h28.2l16.8,21c1.5,1.9,3.8,3,6.2,3h36.7
		c4.4,12.5,18.1,19,30.6,14.6s19-18.1,14.6-30.6s-18.1-19-30.6-14.6C353.3,203.8,347.9,209.2,345.5,216z M376,224c0,4.4-3.6,8-8,8
		s-8-3.6-8-8s3.6-8,8-8S376,219.6,376,224z"/>
	<path class="st0" d="M332.8,324c-8.5,0-16.4,4.6-20.7,12h-14.5c-2.5,0-4.9,1.2-6.5,3.3L275.9,360H256v16h24c2.5,0,4.9-1.2,6.5-3.3
		l15.2-20.7h7.5c2.2,13,14.6,21.8,27.7,19.6c13-2.2,21.8-14.6,19.6-27.7C354.5,332.4,344.5,324,332.8,324L332.8,324z M332.8,356
		c-4.4,0-8-3.6-8-8s3.6-8,8-8s8,3.6,8,8S337.2,356,332.8,356z"/>
	<path class="st0" d="M366.4,264c-10.1,0-19.2,6.4-22.5,16h-36.7c-2.4,0-4.7,1.1-6.2,3l-16.8,21H256v16h32c2.4,0,4.7-1.1,6.2-3
		l16.8-21h32.8c4.4,12.5,18.1,19,30.6,14.5c12.5-4.4,19-18.1,14.5-30.6C385.6,270.3,376.5,264,366.4,264z M366.4,296
		c-4.4,0-8-3.6-8-8s3.6-8,8-8s8,3.6,8,8S370.8,296,366.4,296z"/>
	<path class="st0" d="M491.5,201.8h-15.6c-6.6-0.2-12.4-4.7-14.2-11.1c-3.7-11.7-8.4-23-14.1-33.9c-3.3-5.8-2.4-13.1,2.2-17.9
		l11.1-11.1c2.7-2.7,3.1-7,1-10.1c-18-26.7-40.9-49.6-67.6-67.5c-3.2-2.1-7.4-1.7-10.1,1l-11.1,11.1c-4.9,4.6-12.1,5.5-17.9,2.2
		C344.3,58.7,333,54,321.3,50.3c-6.4-1.8-10.9-7.5-11.1-14.2V20.5c0-3.8-2.7-7.1-6.5-7.9c-31.5-6.2-64-6.2-95.5,0
		c-3.8,0.7-6.5,4-6.5,7.9v15.6c-0.2,6.6-4.7,12.4-11.1,14.2c-11.7,3.7-23,8.4-33.9,14.1c-5.8,3.3-13.1,2.4-17.9-2.2l-11.1-11.1
		c-2.7-2.7-7-3.1-10.1-1C91,68.1,68.1,91,50.2,117.7c-2.1,3.2-1.7,7.4,1,10.1l11.1,11.1c4.6,4.9,5.5,12.1,2.2,17.9
		C58.8,167.7,54,179,50.3,190.7c-1.8,6.4-7.5,10.9-14.2,11.1H20.5c-3.8,0-7.1,2.7-7.9,6.5c-6.3,31.5-6.3,64,0,95.5
		c0.7,3.8,4,6.5,7.9,6.5h15.6c6.6,0.2,12.4,4.7,14.2,11.1c3.7,11.7,8.4,23,14.1,33.9c3.3,5.8,2.4,13.1-2.2,17.9l-11.1,11.1
		c-2.7,2.7-3.1,7-1,10.1c17.9,26.7,40.8,49.6,67.5,67.5c3.2,2.2,7.4,1.7,10.1-1l11.1-11.1c4.8-4.6,12.1-5.5,17.9-2.2
		c10.9,5.7,22.2,10.4,33.9,14.1c6.4,1.8,10.9,7.5,11.1,14.2v15.6c0,3.8,2.7,7.1,6.5,7.9c31.5,6.3,64,6.3,95.5,0
		c3.8-0.7,6.5-4,6.5-7.9v-15.6c0.2-6.6,4.7-12.4,11.1-14.2c11.7-3.7,23-8.4,33.9-14.1c5.8-3.3,13.1-2.4,17.9,2.2l11.1,11.1
		c2.7,2.7,7,3.1,10.1,1c26.7-17.9,49.6-40.8,67.5-67.5c2.1-3.2,1.7-7.4-1-10.1l-11.1-11.1c-4.6-4.9-5.5-12.1-2.2-17.9
		c5.7-10.9,10.4-22.2,14.1-33.9c1.8-6.4,7.5-10.9,14.2-11.1h15.6c3.8,0,7.1-2.7,7.9-6.5c6.3-31.5,6.3-64,0-95.5
		C498.6,204.5,495.3,201.8,491.5,201.8z M484.8,294.2h-8.9c-13.6,0.2-25.6,9.2-29.4,22.3c-3.4,10.8-7.8,21.3-13,31.4
		c-6.5,12-4.4,26.8,5.1,36.6l6.4,6.4c-14.9,20.9-33.1,39.1-54,54l-6.4-6.4c-9.8-9.5-24.6-11.6-36.6-5.1c-10.1,5.2-20.5,9.6-31.4,13
		c-13.1,3.9-22.1,15.8-22.3,29.4v8.9c-25.3,4.3-51.1,4.3-76.4,0v-8.9c-0.2-13.6-9.2-25.6-22.3-29.4c-10.8-3.4-21.3-7.8-31.4-13
		c-12-6.5-26.8-4.5-36.6,5.1l-6.4,6.4c-20.9-14.9-39.1-33.1-54-54l6.4-6.4c9.5-9.8,11.6-24.6,5.1-36.6c-5.2-10.1-9.6-20.5-13-31.4
		c-3.9-13.1-15.8-22.1-29.4-22.3h-8.9c-4.3-25.3-4.3-51.1,0-76.4h8.9c13.6-0.2,25.6-9.2,29.4-22.3c3.4-10.8,7.8-21.3,13-31.4
		c6.5-12,4.4-26.8-5.1-36.6l-6.4-6.4c14.9-20.9,33.1-39.1,54-54l6.4,6.4c9.8,9.5,24.6,11.6,36.6,5.1c10.1-5.2,20.5-9.6,31.4-13
		c13.1-3.9,22.1-15.8,22.3-29.4v-8.9c25.3-4.3,51.1-4.3,76.4,0v8.9c0.2,13.6,9.2,25.6,22.3,29.4c10.8,3.4,21.3,7.8,31.4,13
		c12,6.5,26.8,4.4,36.6-5.1l6.4-6.4c20.9,14.9,39.1,33.1,54,54l-6.4,6.4c-9.5,9.8-11.6,24.6-5.1,36.6c5.2,10.1,9.6,20.5,13,31.4
		c3.9,13.1,15.8,22.1,29.4,22.3h8.9C489.1,243.1,489.1,268.9,484.8,294.2L484.8,294.2z"/>
	<path class="st0" d="M256,80c-97.2,0-176,78.8-176,176s78.8,176,176,176s176-78.8,176-176C431.9,158.8,353.2,80.1,256,80z M256,416
		c-88.4,0-160-71.6-160-160S167.6,96,256,96s160,71.6,160,160C415.9,344.3,344.3,415.9,256,416z"/>
	<rect x="264" y="224" class="st0" width="16" height="16"/>
	<rect x="280" y="256" class="st0" width="16" height="16"/>
</g>
</svg>
