<?xml version="1.0" encoding="utf-8"?>
<!-- Generator: Adobe Illustrator 25.0.0, SVG Export Plug-In . SVG Version: 6.00 Build 0)  -->
<svg version="1.1" id="Layer_1" xmlns="http://www.w3.org/2000/svg" xmlns:xlink="http://www.w3.org/1999/xlink" x="0px" y="0px"
	 viewBox="0 0 512 512" style="enable-background:new 0 0 512 512;" xml:space="preserve">
<style type="text/css">
	.st0{fill:#0664A4;}
</style>
<g id="Page-1">
	<g id="_008---AR-Visor">
		<path id="Shape" class="st0" d="M180.1,173c-0.9-4.4-5.2-7.2-9.6-6.3c-10,2.1-19.2,7.2-26.2,14.6c-1.4,1.5-2.2,3.5-2.2,5.5V199
			c0.2,4.5,3.9,8,8.4,7.8c4.3-0.1,7.7-3.6,7.8-7.8v-8.8c4.4-3.8,9.7-6.5,15.4-7.6C178.2,181.7,181,177.4,180.1,173z"/>
		<path id="Shape-2" class="st0" d="M20.1,101.5c4.5,0,8.1-3.6,8.1-8.1c0,0,0,0,0,0V36.4c0-4.5,3.6-8.1,8.1-8.1l0,0h56.9
			c4.5,0.2,8.3-3.4,8.4-7.8s-3.4-8.3-7.8-8.4c-0.2,0-0.4,0-0.6,0H36.4C22.9,12,12,22.9,12,36.4c0,0,0,0,0,0v56.9
			C12,97.8,15.6,101.5,20.1,101.5C20.1,101.5,20.1,101.5,20.1,101.5z"/>
		<path id="Shape-3" class="st0" d="M475.6,12h-56.9c-4.5-0.2-8.3,3.4-8.4,7.8c-0.2,4.5,3.4,8.3,7.8,8.4c0.2,0,0.4,0,0.6,0h56.9
			c4.5,0,8.1,3.6,8.1,8.1c0,0,0,0,0,0v56.9c-0.2,4.5,3.4,8.3,7.8,8.4c4.5,0.2,8.3-3.4,8.4-7.8c0-0.2,0-0.4,0-0.6V36.4
			C500,22.9,489.1,12,475.6,12C475.6,12,475.6,12,475.6,12z"/>
		<path id="Shape-4" class="st0" d="M36.4,402.4h56.9c4.5,0.2,8.3-3.4,8.4-7.8c0.2-4.5-3.4-8.3-7.8-8.4c-0.2,0-0.4,0-0.6,0H36.4
			c-4.5,0-8.1-3.6-8.1-8.1l0,0v-56.9c0.2-4.5-3.4-8.3-7.8-8.4c-4.5-0.2-8.3,3.4-8.4,7.8c0,0.2,0,0.4,0,0.6V378
			C12,391.5,22.9,402.4,36.4,402.4C36.4,402.4,36.4,402.4,36.4,402.4z"/>
		<path id="Shape-5" class="st0" d="M491.9,312.9c-4.5,0-8.1,3.6-8.1,8.1c0,0,0,0,0,0V378c0,4.5-3.6,8.1-8.1,8.1l0,0h-56.9
			c-4.5-0.2-8.3,3.4-8.4,7.8c-0.2,4.5,3.4,8.3,7.8,8.4c0.2,0,0.4,0,0.6,0h56.9c13.5,0,24.4-10.9,24.4-24.4c0,0,0,0,0,0v-56.9
			C500,316.6,496.4,312.9,491.9,312.9C491.9,312.9,491.9,312.9,491.9,312.9z"/>
		<path id="Shape-6" class="st0" d="M52.7,60.8h8.1c4.5-0.2,8-3.9,7.8-8.4c-0.1-4.3-3.6-7.7-7.8-7.8h-8.1c-4.5-0.2-8.3,3.4-8.4,7.8
			c-0.2,4.5,3.4,8.3,7.8,8.4C52.3,60.8,52.5,60.8,52.7,60.8z"/>
		<path id="Shape-7" class="st0" d="M85.2,52.7c0,4.5,3.6,8.1,8.1,8.1h32.5c4.5-0.2,8-3.9,7.8-8.4c-0.1-4.3-3.6-7.7-7.8-7.8H93.3
			C88.8,44.5,85.2,48.2,85.2,52.7C85.2,52.7,85.2,52.7,85.2,52.7z"/>
		<path id="Shape-8" class="st0" d="M109.6,85.2c0-4.5-3.6-8.1-8.1-8.1H52.7c-4.5,0-8.1,3.6-8.1,8.1c0,4.5,3.6,8.1,8.1,8.1l0,0h48.8
			C106,93.3,109.6,89.7,109.6,85.2L109.6,85.2z"/>
		<path id="Shape-9" class="st0" d="M459.3,60.8c4.5,0.2,8.3-3.4,8.4-7.8c0.2-4.5-3.4-8.3-7.8-8.4c-0.2,0-0.4,0-0.6,0h-8.1
			c-4.5,0.2-8,3.9-7.8,8.4c0.1,4.3,3.6,7.7,7.8,7.8H459.3z"/>
		<path id="Shape-10" class="st0" d="M386.1,60.8h32.5c4.5-0.2,8-3.9,7.8-8.4c-0.1-4.3-3.6-7.7-7.8-7.8h-32.5
			c-4.5,0.2-8,3.9-7.8,8.4C378.4,57.2,381.9,60.7,386.1,60.8z"/>
		<path id="Shape-11" class="st0" d="M402.4,85.2c0,4.5,3.6,8.1,8.1,8.1l0,0h48.8c4.5,0,8.1-3.6,8.1-8.1c0-4.5-3.6-8.1-8.1-8.1
			h-48.8C406,77.1,402.4,80.7,402.4,85.2L402.4,85.2z"/>
		<path id="Shape-12" class="st0" d="M52.7,353.6c-4.5-0.2-8.3,3.4-8.4,7.8c-0.2,4.5,3.4,8.3,7.8,8.4c0.2,0,0.4,0,0.6,0h8.1
			c4.5-0.2,8-3.9,7.8-8.4c-0.1-4.3-3.6-7.7-7.8-7.8H52.7z"/>
		<path id="Shape-13" class="st0" d="M85.2,361.7c0,4.5,3.6,8.1,8.1,8.1c0,0,0,0,0,0h32.5c4.5-0.2,8-3.9,7.8-8.4
			c-0.1-4.3-3.6-7.7-7.8-7.8H93.3C88.8,353.6,85.2,357.2,85.2,361.7z"/>
		<path id="Shape-14" class="st0" d="M101.5,321.1H52.7c-4.5,0-8.1,3.6-8.1,8.1s3.6,8.1,8.1,8.1l0,0h48.8c4.5,0,8.1-3.6,8.1-8.1
			S106,321.1,101.5,321.1z"/>
		<path id="Shape-15" class="st0" d="M459.3,353.6h-8.1c-4.5,0.2-8,3.9-7.8,8.4c0.1,4.3,3.6,7.7,7.8,7.8h8.1
			c4.5,0.2,8.3-3.4,8.4-7.8c0.2-4.5-3.4-8.3-7.8-8.4C459.7,353.6,459.5,353.6,459.3,353.6L459.3,353.6z"/>
		<path id="Shape-16" class="st0" d="M386.1,353.6c-4.5,0.2-8,3.9-7.8,8.4c0.1,4.3,3.6,7.7,7.8,7.8h32.5c4.5-0.2,8-3.9,7.8-8.4
			c-0.1-4.3-3.6-7.7-7.8-7.8H386.1z"/>
		<path id="Shape-17" class="st0" d="M459.3,321.1h-48.8c-4.5,0-8.1,3.6-8.1,8.1s3.6,8.1,8.1,8.1l0,0h48.8c4.5,0,8.1-3.6,8.1-8.1
			S463.8,321.1,459.3,321.1z"/>
		<path id="Shape-18" class="st0" d="M464.9,448.2c-44-5.7-87.1-17.4-127.9-34.9c-2.5-13.3-3.3-26.8-2.3-40.3
			c21.8-26,34.2-58.7,35.2-92.6c0-1.2,0.1-2.3,0.1-3.5c25.9-9.4,38.1-43.2,34.3-96.4c-0.7-13.8-7.9-26.5-19.4-34.3
			c-1.9-1.2-3.9-2.3-5.9-3.5c-0.1-1.7-0.1-3.4-0.2-5.1C374.4,42.3,265.7,36.5,264.2,36.4h-16.8c-1.1,0-109.8,5.9-114.2,101.2
			c-0.1,1.8-0.1,3.4-0.2,5.1c-2,1.2-4,2.2-5.9,3.5c-11.5,7.7-18.7,20.4-19.4,34.3c-3.8,53.3,8.4,87.1,34.3,96.4
			c0,1.2,0.1,2.4,0.1,3.6c1,33.9,13.4,66.5,35.2,92.5c1,13.5,0.2,27-2.3,40.3c-40.8,17.4-83.8,29.2-127.9,34.9
			c-20.1,2.8-35,20-35.1,40.3v3.4c0,4.5,3.6,8.1,8.1,8.1c0,0,0,0,0,0h471.7c4.5,0,8.1-3.6,8.1-8.1l0,0v-3.4
			C499.9,468.2,485,451,464.9,448.2z M247.8,52.7h16.1c3.8,0.2,91.3,5.2,98.3,81.1c-33.5-15-69.5-23.2-106.2-24.2
			c-36.6,1-72.7,9.2-106.2,24.2C156.8,57.8,244.3,52.8,247.8,52.7L247.8,52.7z M123.9,181.6c0.3-8.7,4.8-16.8,11.9-21.7
			c52.7-33.5,119.5-34,120.2-34s67.4,0.4,120.2,34c7.2,5,11.6,13,11.9,21.7c1.6,22.6,2.1,75.6-27.9,81.2
			c-24.2,5.3-49.4-3.7-64.7-23.2c-15.5-29.3-63.6-29.3-79,0c-15.3,19.5-40.5,28.5-64.7,23.2C121.8,257.3,122.3,204.2,123.9,181.6
			L123.9,181.6z M158.4,280.1c27.8,2.6,55-9.4,71.8-31.7c0.2-0.4,0.4-0.7,0.6-1.1c5.2-8.9,14.9-14,25.1-13.3
			c10.2-0.7,19.9,4.4,25.1,13.2c0.2,0.4,0.4,0.8,0.7,1.2c15.2,20.2,39,32.1,64.3,32c2.4,0,4.9-0.1,7.5-0.3
			c0,50.2-37,104.5-87.1,122.8c-6.5,3.8-14.5,3.8-21,0C194.8,382.6,160.7,334.6,158.4,280.1L158.4,280.1z M28.7,483.7
			c2-10.2,10.3-18,20.6-19.4c18.6-2.5,37-6,55.2-10.5c4,10.8,9.7,20.9,16.9,29.9L28.7,483.7z M367.2,483.7H144.8
			c-11.1-8.9-19.5-20.7-24.4-34c18.2-5,33.2-10.2,44.2-14.4c-2.9,3.6-6.4,6.6-10.4,9c-3.8,2.4-4.9,7.4-2.5,11.2
			c2.3,3.7,7.2,4.9,11,2.7c26.3-15.9,30.9-44.6,31.2-68c14.8,13.4,32.3,23.5,51.2,29.8c7.1,2.5,14.9,2.5,22,0
			c18.9-6.3,36.4-16.4,51.2-29.8c0.4,23.3,4.9,52.1,31.2,68c3.8,2.3,8.8,1.1,11.2-2.8s1.1-8.8-2.8-11.2l0,0c-3.9-2.4-7.4-5.4-10.4-9
			c11,4.2,25.9,9.4,44.1,14.4C386.7,463,378.3,474.8,367.2,483.7z M390.6,483.7c7.2-9,12.9-19.1,16.9-29.9
			c18.2,4.4,36.7,7.9,55.2,10.5c10.3,1.5,18.6,9.2,20.6,19.4H390.6z"/>
	</g>
</g>
</svg>
