<svg id="Layer_1" data-name="Layer 1" xmlns="http://www.w3.org/2000/svg" viewBox="0 0 512 512"><g id="Page-1"><g id="_008---AR-Visor" data-name="008---AR-Visor"><path id="Shape" d="M180.14,173a8.14,8.14,0,0,0-9.61-6.32,49.75,49.75,0,0,0-26.22,14.64,8.16,8.16,0,0,0-2.18,5.51v12.2a8.14,8.14,0,0,0,16.27,0v-8.79a33.72,33.72,0,0,1,15.45-7.65,8.13,8.13,0,0,0,6.29-9.59Z"/><path id="Shape-2" data-name="Shape" d="M20.13,101.47a8.13,8.13,0,0,0,8.14-8.14V36.4a8.13,8.13,0,0,1,8.13-8.13H93.33a8.14,8.14,0,1,0,0-16.27H36.4A24.39,24.39,0,0,0,12,36.4V93.33A8.13,8.13,0,0,0,20.13,101.47Z"/><path id="Shape-3" data-name="Shape" d="M475.6,12H418.67a8.14,8.14,0,1,0,0,16.27H475.6a8.13,8.13,0,0,1,8.13,8.13V93.33a8.14,8.14,0,1,0,16.27,0V36.4A24.39,24.39,0,0,0,475.6,12Z"/><path id="Shape-4" data-name="Shape" d="M36.4,402.4H93.33a8.14,8.14,0,1,0,0-16.27H36.4A8.13,8.13,0,0,1,28.27,378V321.07a8.14,8.14,0,1,0-16.27,0V378A24.39,24.39,0,0,0,36.4,402.4Z"/><path id="Shape-5" data-name="Shape" d="M491.87,312.93a8.13,8.13,0,0,0-8.14,8.14V378a8.13,8.13,0,0,1-8.13,8.13H418.67a8.14,8.14,0,1,0,0,16.27H475.6A24.39,24.39,0,0,0,500,378V321.07A8.13,8.13,0,0,0,491.87,312.93Z"/><path id="Shape-6" data-name="Shape" d="M52.67,60.8H60.8a8.14,8.14,0,0,0,0-16.27H52.67a8.14,8.14,0,1,0,0,16.27Z"/><path id="Shape-7" data-name="Shape" d="M85.2,52.67a8.13,8.13,0,0,0,8.13,8.13h32.54a8.14,8.14,0,0,0,0-16.27H93.33A8.13,8.13,0,0,0,85.2,52.67Z"/><path id="Shape-8" data-name="Shape" d="M109.6,85.2a8.13,8.13,0,0,0-8.13-8.13H52.67a8.13,8.13,0,1,0,0,16.26h48.8A8.13,8.13,0,0,0,109.6,85.2Z"/><path id="Shape-9" data-name="Shape" d="M459.33,60.8a8.14,8.14,0,1,0,0-16.27H451.2a8.14,8.14,0,0,0,0,16.27Z"/><path id="Shape-10" data-name="Shape" d="M386.13,60.8h32.54a8.14,8.14,0,0,0,0-16.27H386.13a8.14,8.14,0,0,0,0,16.27Z"/><path id="Shape-11" data-name="Shape" d="M402.4,85.2a8.13,8.13,0,0,0,8.13,8.13h48.8a8.13,8.13,0,1,0,0-16.26h-48.8A8.13,8.13,0,0,0,402.4,85.2Z"/><path id="Shape-12" data-name="Shape" d="M52.67,353.6a8.14,8.14,0,1,0,0,16.27H60.8a8.14,8.14,0,0,0,0-16.27Z"/><path id="Shape-13" data-name="Shape" d="M85.2,361.73a8.13,8.13,0,0,0,8.13,8.14h32.54a8.14,8.14,0,0,0,0-16.27H93.33A8.13,8.13,0,0,0,85.2,361.73Z"/><path id="Shape-14" data-name="Shape" d="M101.47,321.07H52.67a8.13,8.13,0,1,0,0,16.26h48.8a8.13,8.13,0,0,0,0-16.26Z"/><path id="Shape-15" data-name="Shape" d="M459.33,353.6H451.2a8.14,8.14,0,0,0,0,16.27h8.13a8.14,8.14,0,1,0,0-16.27Z"/><path id="Shape-16" data-name="Shape" d="M386.13,353.6a8.14,8.14,0,0,0,0,16.27h32.54a8.14,8.14,0,0,0,0-16.27Z"/><path id="Shape-17" data-name="Shape" d="M459.33,321.07h-48.8a8.13,8.13,0,0,0,0,16.26h48.8a8.13,8.13,0,1,0,0-16.26Z"/><path id="Shape-18" data-name="Shape" d="M464.88,448.18A484.79,484.79,0,0,1,337,413.32,153.14,153.14,0,0,1,334.71,373a150.67,150.67,0,0,0,35.16-92.6c0-1.17.1-2.32.14-3.48,25.94-9.37,38.12-43.16,34.34-96.45a44,44,0,0,0-19.42-34.27C383,145,381,143.86,379,142.7c-.07-1.68-.13-3.35-.21-5.06C374.36,42.3,265.66,36.46,264.21,36.4H247.43c-1.09.05-109.8,5.9-114.24,101.16-.08,1.75-.14,3.41-.21,5.11-2,1.16-4,2.25-5.91,3.49a44,44,0,0,0-19.42,34.3c-3.78,53.29,8.4,87.08,34.34,96.45,0,1.2.14,2.35.14,3.58A150.59,150.59,0,0,0,177.29,373a152.54,152.54,0,0,1-2.3,40.3A483.12,483.12,0,0,1,47.12,448.18,40.8,40.8,0,0,0,12,488.44v3.43A8.13,8.13,0,0,0,20.13,500H491.87a8.13,8.13,0,0,0,8.13-8.13v-3.43a40.8,40.8,0,0,0-35.12-40.26ZM247.79,52.67h16.06c3.8.18,91.32,5.16,98.32,81.1A278.3,278.3,0,0,0,256,109.6a278.47,278.47,0,0,0-106.17,24.16c6.94-75.94,94.51-80.92,98-81.09ZM123.87,181.61a27.77,27.77,0,0,1,11.94-21.72c52.68-33.54,119.52-34,120.19-34s67.38.39,120.19,34a27.75,27.75,0,0,1,11.94,21.72c1.63,22.57,2.08,75.64-27.88,81.2a64.78,64.78,0,0,1-64.74-23.22c-15.45-29.28-63.57-29.28-79,0a64.71,64.71,0,0,1-64.74,23.23c-29.95-5.54-29.48-58.64-27.88-81.22Zm34.53,98.5a80.31,80.31,0,0,0,71.82-31.72,12.5,12.5,0,0,0,.63-1.13A27,27,0,0,1,256,233.93a27,27,0,0,1,25.12,13.22,8.08,8.08,0,0,0,.68,1.22,80.12,80.12,0,0,0,64.34,32c2.44,0,4.92-.13,7.47-.34,0,50.22-37,104.51-87.13,122.81a21,21,0,0,1-21,0,138.54,138.54,0,0,1-87.1-122.76ZM28.73,483.73a24.5,24.5,0,0,1,20.6-19.43,548,548,0,0,0,55.24-10.46,106.69,106.69,0,0,0,16.86,29.89Zm338.49,0H144.78a78.56,78.56,0,0,1-24.4-34c18.22-5,33.15-10.19,44.15-14.44a41.14,41.14,0,0,1-10.38,9,8.14,8.14,0,0,0,8.42,13.93c26.28-15.9,30.86-44.65,31.22-68A143.89,143.89,0,0,0,245,420a32.89,32.89,0,0,0,22,0,143.93,143.93,0,0,0,51.16-29.83c.36,23.34,4.94,52.09,31.22,68a8.13,8.13,0,0,0,8.42-13.92,41.17,41.17,0,0,1-10.38-9c11,4.25,25.93,9.41,44.14,14.44A78.46,78.46,0,0,1,367.22,483.73Zm23.35,0a106.69,106.69,0,0,0,16.86-29.89,548,548,0,0,0,55.24,10.46,24.5,24.5,0,0,1,20.6,19.43Z"/></g></g></svg>