<svg id="Layer_1" data-name="Layer 1" xmlns="http://www.w3.org/2000/svg" viewBox="0 0 512 512"><path d="M72,456a24,24,0,1,0,24,24A24,24,0,0,0,72,456Zm0,32a8,8,0,1,1,8-8A8,8,0,0,1,72,488Z"/><path d="M32.41,440.4l11.31,11.31a40,40,0,0,1,56.56,0l11.31-11.31a56,56,0,0,0-79.18,0Z"/><path d="M9.78,417.78l11.31,11.31a72.09,72.09,0,0,1,101.83,0l11.31-11.31A88.08,88.08,0,0,0,9.78,417.78Z"/><path d="M472,456H456V424H440v32H424V440H408v16H392V408H376v64h96Z"/><path d="M480,200H416a24,24,0,0,0-24,24v24H359.59a103.43,103.43,0,0,0-24.7-59.58L411.31,112H472a32,32,0,0,0,7.48-63.12,48,48,0,0,0-95,0A31.91,31.91,0,0,0,389,111.7l-65.41,65.41A103.43,103.43,0,0,0,264,152.41V120h24a24,24,0,0,0,24-24V32A24,24,0,0,0,288,8H224a24,24,0,0,0-24,24V96a24,24,0,0,0,24,24h24v32.41a103.43,103.43,0,0,0-59.58,24.7l-38.51-38.52a80.22,80.22,0,1,0-11.32,11.31l38.51,38.52A103.5,103.5,0,0,0,152.4,248H120V224a24,24,0,0,0-24-24H32A24,24,0,0,0,8,224v64a24,24,0,0,0,24,24H96a24,24,0,0,0,24-24V264h32.41a103.43,103.43,0,0,0,24.7,59.58l-54.77,54.76,11.32,11.32,54.76-54.77A103.43,103.43,0,0,0,248,359.59V392H224a24,24,0,0,0-24,24v64a24,24,0,0,0,24,24h64a24,24,0,0,0,24-24V416a24,24,0,0,0-24-24H264V359.59a103.43,103.43,0,0,0,59.58-24.7L365,376.3A24,24,0,0,0,344,400v80a24,24,0,0,0,24,24H480a24,24,0,0,0,24-24V400a24,24,0,0,0-24-24H387.31l-52.42-52.42A103.43,103.43,0,0,0,359.59,264H392v24a24,24,0,0,0,24,24h64a24,24,0,0,0,24-24V224a24,24,0,0,0-24-24ZM296,72H216V56h80ZM224,24h64a8,8,0,0,1,8,8v8H216V32A8,8,0,0,1,224,24Zm-8,72V88h80v8a8,8,0,0,1-8,8H224A8,8,0,0,1,216,96ZM32,216H96a8,8,0,0,1,8,8v8H24v-8A8,8,0,0,1,32,216Zm72,32v16H24V248Zm-8,48H32a8,8,0,0,1-8-8v-8h80v8A8,8,0,0,1,96,296ZM216,440h80v16H216Zm72,48H224a8,8,0,0,1-8-8v-8h80v8A8,8,0,0,1,288,488Zm8-72v8H216v-8a8,8,0,0,1,8-8h64A8,8,0,0,1,296,416Zm-40-72c-8.6,0-17.76-12.22-24.07-32h48.15c-6.32,19.78-15.48,32-24.08,32Zm-28.15-48a197.85,197.85,0,0,1-3.68-32h63.66a197.85,197.85,0,0,1-3.68,32Zm-59.44-32h39.77a218.39,218.39,0,0,0,3.27,32H177.72a86.94,86.94,0,0,1-9.31-32ZM256,168c8.6,0,17.76,12.22,24.07,32H231.92c6.32-19.78,15.48-32,24.08-32Zm28.15,48a197.85,197.85,0,0,1,3.68,32H224.17a197.85,197.85,0,0,1,3.68-32Zm-76,32H168.41a87.13,87.13,0,0,1,9.31-32h33.73a218.39,218.39,0,0,0-3.27,32Zm95.64,16h39.77a87.13,87.13,0,0,1-9.31,32H300.55A218.39,218.39,0,0,0,303.82,264Zm0-16a218.39,218.39,0,0,0-3.27-32h33.73a87.32,87.32,0,0,1,9.31,32ZM376,80a16,16,0,0,1,16-16h8V56a32,32,0,0,1,63.27-6.79A32.07,32.07,0,0,0,440,80h16a16,16,0,1,1,16,16H392A16,16,0,0,1,376,80ZM323.83,200h-27a110.86,110.86,0,0,0-11.13-26.73A88.36,88.36,0,0,1,323.83,200Zm-97.54-26.73A110.46,110.46,0,0,0,215.16,200h-27A88.24,88.24,0,0,1,226.29,173.27ZM88,24a64.07,64.07,0,0,1,64,64,63.42,63.42,0,0,1-8.76,32.16A64.45,64.45,0,0,0,112,93a32,32,0,1,0-48,0,64.5,64.5,0,0,0-31.25,27.21A63.88,63.88,0,0,1,88,24ZM72,72A16,16,0,1,1,88,88,16,16,0,0,1,72,72ZM43.66,134.05a47.74,47.74,0,0,1,88.68,0,63.74,63.74,0,0,1-88.68,0ZM188.17,312h27a110.86,110.86,0,0,0,11.13,26.73A88.36,88.36,0,0,1,188.17,312Zm97.54,26.73A110.46,110.46,0,0,0,296.84,312h27A88.24,88.24,0,0,1,285.71,338.73ZM488,400v80a8,8,0,0,1-8,8H368a8,8,0,0,1-8-8V400a8,8,0,0,1,8-8H480A8,8,0,0,1,488,400ZM416,216h64a8,8,0,0,1,8,8v8H408v-8A8,8,0,0,1,416,216Zm72,32v16H408V248Zm-8,48H416a8,8,0,0,1-8-8v-8h80v8A8,8,0,0,1,480,296Z"/></svg>