<?xml version="1.0" encoding="utf-8"?>
<!-- Generator: Adobe Illustrator 25.0.0, SVG Export Plug-In . SVG Version: 6.00 Build 0)  -->
<svg version="1.1" id="Layer_1" xmlns="http://www.w3.org/2000/svg" xmlns:xlink="http://www.w3.org/1999/xlink" x="0px" y="0px"
	 viewBox="0 0 512 512" style="enable-background:new 0 0 512 512;" xml:space="preserve">
<style type="text/css">
	.st0{fill:#0664A4;}
</style>
<path class="st0" d="M72,456c-13.3,0-24,10.7-24,24s10.7,24,24,24s24-10.7,24-24S85.3,456,72,456z M72,488c-4.4,0-8-3.6-8-8
	s3.6-8,8-8s8,3.6,8,8S76.4,488,72,488z"/>
<path class="st0" d="M32.4,440.4l11.3,11.3c15.6-15.6,40.9-15.6,56.6,0l11.3-11.3C89.7,418.5,54.3,418.5,32.4,440.4z"/>
<path class="st0" d="M9.8,417.8l11.3,11.3c28.1-28.1,73.7-28.1,101.8,0l11.3-11.3C99.8,383.5,44.2,383.5,9.8,417.8z"/>
<path class="st0" d="M472,456h-16v-32h-16v32h-16v-16h-16v16h-16v-48h-16v64h96V456z"/>
<path class="st0" d="M480,200h-64c-13.3,0-24,10.7-24,24v24h-32.4c-1.7-22-10.3-42.9-24.7-59.6l76.4-76.4H472c17.7,0,32-14.3,32-32
	c0-14.8-10.1-27.7-24.5-31.1c-3.8-26.2-28.2-44.4-54.4-40.6c-21,3.1-37.5,19.6-40.6,40.6c-17.1,4.1-27.7,21.3-23.6,38.4
	c3.2,13.3,14.5,23.1,28.2,24.4l-65.4,65.4c-16.7-14.4-37.6-23-59.6-24.7V120h24c13.3,0,24-10.7,24-24V32c0-13.3-10.7-24-24-24h-64
	c-13.3,0-24,10.7-24,24v64c0,13.3,10.7,24,24,24h24v32.4c-22,1.7-42.9,10.3-59.6,24.7l-38.5-38.5c28.1-34.3,23-84.8-11.3-112.9
	S53.8,2.7,25.8,37S2.7,121.8,37,149.9c29.5,24.2,72,24.2,101.6,0l38.5,38.5c-14.4,16.7-23,37.6-24.7,59.6H120v-24
	c0-13.3-10.7-24-24-24H32c-13.3,0-24,10.7-24,24v64c0,13.3,10.7,24,24,24h64c13.3,0,24-10.7,24-24v-24h32.4
	c1.7,22,10.3,42.9,24.7,59.6l-54.8,54.8l11.3,11.3l54.8-54.8c16.7,14.4,37.6,23,59.6,24.7V392h-24c-13.3,0-24,10.7-24,24v64
	c0,13.3,10.7,24,24,24h64c13.3,0,24-10.7,24-24v-64c0-13.3-10.7-24-24-24h-24v-32.4c22-1.7,42.9-10.3,59.6-24.7l41.4,41.4
	c-12,1.5-20.9,11.6-21,23.7v80c0,13.3,10.7,24,24,24h112c13.3,0,24-10.7,24-24v-80c0-13.3-10.7-24-24-24h-92.7l-52.4-52.4
	c14.4-16.7,23-37.6,24.7-59.6H392v24c0,13.3,10.7,24,24,24h64c13.3,0,24-10.7,24-24v-64C504,210.7,493.3,200,480,200z M296,72h-80
	V56h80V72z M224,24h64c4.4,0,8,3.6,8,8v8h-80v-8C216,27.6,219.6,24,224,24z M216,96v-8h80v8c0,4.4-3.6,8-8,8h-64
	C219.6,104,216,100.4,216,96z M32,216h64c4.4,0,8,3.6,8,8v8H24v-8C24,219.6,27.6,216,32,216z M104,248v16H24v-16H104z M96,296H32
	c-4.4,0-8-3.6-8-8v-8h80v8C104,292.4,100.4,296,96,296z M216,440h80v16h-80V440z M288,488h-64c-4.4,0-8-3.6-8-8v-8h80v8
	C296,484.4,292.4,488,288,488z M296,416v8h-80v-8c0-4.4,3.6-8,8-8h64C292.4,408,296,411.6,296,416z M256,344
	c-8.6,0-17.8-12.2-24.1-32h48.1C273.8,331.8,264.6,344,256,344L256,344z M227.9,296c-2.1-10.5-3.3-21.3-3.7-32h63.7
	c-0.4,10.7-1.6,21.5-3.7,32H227.9z M168.4,264h39.8c0.3,10.7,1.4,21.4,3.3,32h-33.7C172.6,286,169.4,275.2,168.4,264z M256,168
	c8.6,0,17.8,12.2,24.1,32h-48.2C238.2,180.2,247.4,168,256,168z M284.1,216c2.1,10.5,3.3,21.3,3.7,32h-63.7
	c0.4-10.7,1.6-21.5,3.7-32H284.1z M208.1,248h-39.7c1-11.2,4.2-22,9.3-32h33.7C209.6,226.6,208.5,237.3,208.1,248L208.1,248z
	 M303.8,264h39.8c-1,11.2-4.2,22-9.3,32h-33.7C302.4,285.4,303.5,274.7,303.8,264L303.8,264z M303.8,248c-0.3-10.7-1.4-21.4-3.3-32
	h33.7c5.1,10,8.3,20.8,9.3,32H303.8z M376,80c0-8.8,7.2-16,16-16h8v-8c0-17.7,14.3-32,32-32c15.1,0,28.1,10.5,31.3,25.2
	C449.5,53.1,440,65.7,440,80h16c0-8.8,7.2-16,16-16s16,7.2,16,16s-7.2,16-16,16h-80C383.2,96,376,88.8,376,80z M323.8,200h-27
	c-2.5-9.4-6.3-18.3-11.1-26.7C300.6,178.6,313.7,187.8,323.8,200z M226.3,173.3c-4.9,8.4-8.6,17.4-11.1,26.7h-27
	C198.2,187.8,211.4,178.6,226.3,173.3L226.3,173.3z M88,24c35.3,0,64,28.7,64,64c0,11.3-3,22.4-8.8,32.2
	c-7.1-12.2-18.1-21.8-31.2-27.2c11.7-13.3,10.4-33.5-2.8-45.2S75.7,37.4,64,50.7C53.3,62.8,53.3,80.9,64,93
	c-13.1,5.4-24.1,14.9-31.2,27.2c-17.9-30.4-7.7-69.6,22.8-87.4C65.4,27,76.6,24,88,24z M72,72c0-8.8,7.2-16,16-16s16,7.2,16,16
	s-7.2,16-16,16S72,80.8,72,72z M43.7,134.1c9.8-24.5,37.5-36.4,62-26.6c12.2,4.9,21.8,14.5,26.6,26.6C107.6,158,68.4,158,43.7,134.1
	z M188.2,312h27c2.5,9.4,6.3,18.3,11.1,26.7C211.4,333.4,198.3,324.2,188.2,312z M285.7,338.7c4.9-8.4,8.6-17.4,11.1-26.7h27
	C313.8,324.2,300.6,333.4,285.7,338.7z M488,400v80c0,4.4-3.6,8-8,8H368c-4.4,0-8-3.6-8-8v-80c0-4.4,3.6-8,8-8h112
	C484.4,392,488,395.6,488,400z M416,216h64c4.4,0,8,3.6,8,8v8h-80v-8C408,219.6,411.6,216,416,216z M488,248v16h-80v-16H488z
	 M480,296h-64c-4.4,0-8-3.6-8-8v-8h80v8C488,292.4,484.4,296,480,296z"/>
</svg>
