<?xml version="1.0" encoding="utf-8"?>
<!-- Generator: Adobe Illustrator 25.0.0, SVG Export Plug-In . SVG Version: 6.00 Build 0)  -->
<svg version="1.1" id="Layer_1" xmlns="http://www.w3.org/2000/svg" xmlns:xlink="http://www.w3.org/1999/xlink" x="0px" y="0px"
	 viewBox="0 0 512 512" style="enable-background:new 0 0 512 512;" xml:space="preserve">
<style type="text/css">
	.st0{fill:#0664A4;}
</style>
<g>
	<path class="st0" d="M340.4,175.6c-4.7-1.3-9.6-1.3-14.3-0.1l-15.6-27.2l-13,7.5l15.6,27.2c-3.4,3.4-5.8,7.6-7.1,12.4
		c-2,7.2-1,14.8,2.7,21.3l7.8,13.7c3.7,6.5,9.7,11.2,17,13.1c2.4,0.7,4.9,1,7.4,1c2.3,0,4.6-0.3,6.9-0.9l3.1,5.3
		c-8.6,8.7-10.8,22.5-4.4,33.6l7.8,13.7c3.7,6.5,9.7,11.2,17,13.1c2.4,0.7,4.9,1,7.4,1c2.3,0,4.6-0.3,6.9-0.9l15.7,27.4l13-7.5
		l-15.7-27.4c8.6-8.7,10.8-22.5,4.4-33.6l-7.8-13.7c-6.4-11.2-19.3-16.3-31.2-13.2l-3.1-5.3c3.4-3.4,5.8-7.6,7.1-12.4
		c2-7.2,1-14.8-2.7-21.3l-7.8-13.6C353.7,182.2,347.7,177.6,340.4,175.6z M382.1,262.1l7.8,13.7c2.2,3.8,2.2,8.2,0.5,11.9L386,280
		l-13,7.5l4.4,7.6c-0.7-0.1-1.5-0.2-2.2-0.4c-3.4-0.9-6.1-3.1-7.9-6.1l-7.8-13.6c-2.2-3.8-2.2-8.2-0.5-11.9l4.5,7.8l13-7.5l-4.5-7.8
		C376.1,256,379.9,258.3,382.1,262.1z M348.3,214.1l-13,7.5l4.4,7.6c-0.7-0.1-1.5-0.2-2.2-0.4c-3.4-0.9-6.1-3.1-7.9-6.1l-7.8-13.7
		c-1.7-3-2.2-6.5-1.3-9.9c0.2-0.7,0.4-1.4,0.8-2.1l4.5,7.8l13-7.5l-4.5-7.8c4.1,0.4,7.9,2.7,10,6.5l7.8,13.7c1.7,3,2.2,6.5,1.3,9.9
		c-0.2,0.7-0.4,1.4-0.8,2.1L348.3,214.1z"/>
	<path class="st0" d="M111.2,336.7l15.7-27.4c2.3,0.6,4.6,0.9,6.8,0.9c9.7,0,19.2-5.1,24.4-14.1l7.8-13.6c3.7-6.5,4.7-14.1,2.7-21.3
		c-1.3-4.7-3.7-9-7.1-12.4l3.1-5.3c2.3,0.6,4.6,0.9,6.8,0.9c9.7,0,19.2-5.1,24.4-14.1l7.8-13.7c6.4-11.2,4.2-24.9-4.4-33.6
		l15.6-27.2l-13-7.5l-15.6,27.2c-11.9-3-24.8,2.1-31.2,13.2l-7.8,13.7c-6.4,11.2-4.2,24.9,4.4,33.6l-3.1,5.4
		c-4.6-1.2-9.5-1.2-14.3,0.1c-7.2,2-13.2,6.6-17,13.1l-7.8,13.7c-6.4,11.2-4.2,24.9,4.4,33.6l-15.7,27.4L111.2,336.7z M159,219.7
		c-0.9-3.4-0.5-6.9,1.3-9.9l7.8-13.7c2.2-3.8,6-6.1,10-6.5l-4.5,7.8l13,7.5l4.5-7.8c1.7,3.7,1.7,8.1-0.5,11.9l-7.8,13.7
		c-2.2,3.8-6,6.1-10,6.5l4.4-7.6l-13-7.5l-4.4,7.6C159.4,221.1,159.2,220.4,159,219.7z M122.5,275.7l7.8-13.7c1.7-3,4.5-5.2,7.9-6.1
		c0.7-0.2,1.4-0.3,2.2-0.4l-4.5,7.8l13,7.5l4.5-7.8c1.7,3.7,1.7,8.1-0.5,11.9l-7.8,13.6c-2.2,3.8-6,6.1-10,6.5l4.4-7.6l-13-7.5
		l-4.4,7.6C120.3,283.9,120.4,279.5,122.5,275.7z"/>
	<path class="st0" d="M331.6,415.8l31.3-0.1v-15l-31.4,0.1c-3.3-11.8-14.2-20.4-27-20.4h-0.1h-15.7c-12.9,0-23.7,8.8-26.9,20.6h-6.2
		c-1.3-4.6-3.7-8.8-7.2-12.3c-5.3-5.3-12.3-8.2-19.8-8.2h-0.1h-15.7c-7.5,0-14.5,3-19.8,8.3c-3.5,3.5-5.9,7.7-7.2,12.3l-31.6,0.1v15
		l31.6-0.1c3.3,11.8,14.2,20.4,27,20.4h0.1h15.7c7.5,0,14.5-3,19.8-8.3c3.5-3.5,5.9-7.7,7.2-12.3h6.2c1.3,4.6,3.8,8.8,7.2,12.3
		c5.3,5.3,12.3,8.1,19.8,8.1h0.1h15.7c7.5,0,14.5-3,19.8-8.3C327.9,424.6,330.3,420.4,331.6,415.8z M237.9,417.7
		c-2.4,2.5-5.7,3.8-9.2,3.8H213l0,0c-4.4,0-8.2-2.2-10.6-5.5h8.8v-15h-8.8c0.4-0.6,0.9-1.2,1.4-1.7c2.4-2.5,5.7-3.8,9.2-3.8h15.7
		l0,0c3.5,0,6.7,1.3,9.2,3.8c0.5,0.5,1,1.1,1.4,1.7h-9v15h9C238.9,416.6,238.4,417.2,237.9,417.7z M304.6,421.3h-15.7l0,0
		c-3.5,0-6.7-1.3-9.2-3.8c-0.5-0.5-1-1.1-1.4-1.7h8.8v-15h-8.8c2.3-3.3,6.2-5.5,10.6-5.5h15.7l0,0c4.4,0,8.2,2.2,10.6,5.5h-9v15h9
		c-0.4,0.6-0.9,1.2-1.4,1.7C311.3,420,308.1,421.3,304.6,421.3z"/>
	<path class="st0" d="M263.7,211.8v-83.2l72-41.6l-7.5-13l-72,41.6l-72-41.6l-7.5,13l72,41.6v83.2H263.7z"/>
	<path class="st0" d="M480.7,337.4l-72,41.6l-72.1-41.6l-7.5,13l72.1,41.6v83.2h15V392l72-41.6L480.7,337.4z"/>
	<path class="st0" d="M110.8,474.6v-83.2l72-41.6l-7.5-13l-72,41.6l-72-41.6l-7.5,13l72,41.6v83.2L110.8,474.6L110.8,474.6z"/>
	<path class="st0" d="M167.9,73.3l88.3-51l88.3,51v93.4h15v-102L256.2,5L152.9,64.7v102.1h15V73.3z"/>
	<path class="st0" d="M256.2,243.6l41.5-23.9l-7.5-13l-34,19.6l-34-19.6l-7.5,13L256.2,243.6z"/>
	<path class="st0" d="M103.3,489.1l-88.3-51v-102l82-47.4l-7.5-13L0,327.5v119.3l103.3,59.6l95.4-55.1l-7.5-13L103.3,489.1z"/>
	<path class="st0" d="M206.6,370.4v-42.9l-40.3-23.3l-7.5,13l32.8,18.9v34.3H206.6z"/>
	<path class="st0" d="M511.9,328l-89.1-51.4l-7.5,13l81.6,47l0.1,102l-88.3,51l-86.3-49.8l-7.5,13l93.8,54.1L512,447.3L511.9,328z"
		/>
	<path class="st0" d="M346.3,304.4l-40.9,23.7v40.6h15v-31.9l33.4-19.3L346.3,304.4z"/>
	<path class="st0" d="M209.1,78.6l-7.5-13l13-7.5l7.5,13L209.1,78.6z M298.2,75.5l-42-24.2l-3.8,2.2l-7.5-13l11.3-6.6l49.5,28.6
		L298.2,75.5z M230.7,66l-7.5-13l13-7.5l7.5,13L230.7,66z"/>
	<path class="st0" d="M437.5,461.4l-7.5-13l42-24.3v-4.4h15v13.1L437.5,461.4z M471.9,409.7v-15h15v15H471.9z M471.8,384.7v-15h15
		v15H471.8z"/>
	<path class="st0" d="M79.8,463.8L25,432.3v-15.7h15v7l47.2,27.2L79.8,463.8z M25,406.6v-15h15v15H25z M40,381.6H25v-15h15V381.6z"
		/>
</g>
</svg>
