<svg id="Layer_1" data-name="Layer 1" xmlns="http://www.w3.org/2000/svg" viewBox="0 0 512 512"><path d="M311.46,181.46a9.52,9.52,0,0,1-6.77-2.8,109.82,109.82,0,0,0-155.15,0A9.57,9.57,0,0,1,136,165.13a129,129,0,0,1,182.22,0,9.57,9.57,0,0,1-6.76,16.33Z"/><path d="M344.2,148.72a9.56,9.56,0,0,1-6.8-2.83l-.11-.12a9.57,9.57,0,0,1,13.47-13.59l.23.23a9.56,9.56,0,0,1-6.79,16.31Z"/><path d="M110,148.72a9.57,9.57,0,0,1-6.76-16.34,173.29,173.29,0,0,1,104.19-50.2,176,176,0,0,1,111,24.55,9.57,9.57,0,1,1-10,16.33,155.49,155.49,0,0,0-191.67,22.86A9.58,9.58,0,0,1,110,148.72Z"/><path d="M227.11,384.54A128.43,128.43,0,0,1,136,346.87a9.57,9.57,0,0,1,13.54-13.54,109.82,109.82,0,0,0,155.15,0,9.57,9.57,0,0,1,13.53,13.54A128.45,128.45,0,0,1,227.11,384.54Z"/><path d="M227.23,430.91A175.51,175.51,0,0,1,130.71,402a9.57,9.57,0,1,1,10.55-16c61.49,40.6,144,32.19,196.17-20A9.57,9.57,0,0,1,351,379.61a175.47,175.47,0,0,1-107.08,50.51C238.34,430.64,232.77,430.91,227.23,430.91Z"/><path d="M110.36,382.75a9.53,9.53,0,0,1-6.73-2.77l-.4-.4a9.57,9.57,0,1,1,13.59-13.47l.26.26a9.57,9.57,0,0,1-6.72,16.38Z"/><path d="M227,291.37A35.37,35.37,0,1,1,262.34,256,35.42,35.42,0,0,1,227,291.37Zm0-51.6A16.23,16.23,0,1,0,243.2,256,16.26,16.26,0,0,0,227,239.77Z"/><path d="M46.37,349.67A35.41,35.41,0,0,1,11,314.3V197.7a35.37,35.37,0,1,1,70.74,0V314.3A35.41,35.41,0,0,1,46.37,349.67Zm0-168.21A16.26,16.26,0,0,0,30.14,197.7V314.3a16.23,16.23,0,0,0,32.46,0V197.7A16.26,16.26,0,0,0,46.37,181.46Z"/><path d="M428.54,349.67a31.11,31.11,0,0,1-31.07-31.07V225.15H387.15a31.07,31.07,0,1,1,0-62.14h82.78a31.07,31.07,0,0,1,0,62.14H459.61V318.6A31.11,31.11,0,0,1,428.54,349.67ZM387.15,182.15a11.93,11.93,0,1,0,0,23.86H407a9.56,9.56,0,0,1,9.57,9.57v103a11.93,11.93,0,0,0,23.86,0v-103A9.57,9.57,0,0,1,450,206h19.89a11.93,11.93,0,1,0,0-23.86Z"/><path d="M227,337.81A81.82,81.82,0,1,1,308.79,256,81.91,81.91,0,0,1,227,337.81Zm0-144.48A62.67,62.67,0,1,0,289.65,256,62.74,62.74,0,0,0,227,193.33Z"/></svg>