<?xml version="1.0" encoding="utf-8"?>
<!-- Generator: Adobe Illustrator 25.0.0, SVG Export Plug-In . SVG Version: 6.00 Build 0)  -->
<svg version="1.1" id="Layer_1" xmlns="http://www.w3.org/2000/svg" xmlns:xlink="http://www.w3.org/1999/xlink" x="0px" y="0px"
	 viewBox="0 0 512 512" style="enable-background:new 0 0 512 512;" xml:space="preserve">
<style type="text/css">
	.st0{fill:#0664A4;}
</style>
<path class="st0" d="M311.5,181.5c-2.5,0-5-1-6.8-2.8c-42.9-42.8-112.3-42.8-155.1,0c-3.7,3.7-9.8,3.7-13.5,0s-3.7-9.8,0-13.5l0,0
	c50.4-50.2,131.9-50.2,182.2,0c3.7,3.7,3.7,9.8,0,13.5C316.4,180.5,314,181.5,311.5,181.5z"/>
<path class="st0" d="M344.2,148.7c-2.6,0-5-1-6.8-2.8l-0.1-0.1c-3.7-3.8-3.5-9.9,0.3-13.5c3.7-3.5,9.5-3.6,13.2-0.1l0.2,0.2
	c3.7,3.7,3.7,9.8,0,13.5C349.2,147.7,346.7,148.7,344.2,148.7L344.2,148.7z"/>
<path class="st0" d="M110,148.7c-5.3,0-9.6-4.3-9.6-9.6c0-2.5,1-5,2.8-6.8c28-28.2,64.7-45.9,104.2-50.2c38.7-4.3,77.7,4.3,111,24.6
	c4.5,2.8,5.9,8.7,3.2,13.2c-2.8,4.5-8.7,5.9-13.2,3.2C247,85.3,167.6,94.8,116.8,145.9C115,147.7,112.5,148.7,110,148.7z"/>
<path class="st0" d="M227.1,384.5c-34.2,0.1-67-13.5-91.1-37.7c-3.7-3.7-3.7-9.8,0-13.5c3.7-3.7,9.8-3.7,13.5,0l0,0
	c42.9,42.8,112.3,42.8,155.2,0c3.7-3.7,9.8-3.7,13.5,0s3.7,9.8,0,13.5C294.1,371,261.3,384.6,227.1,384.5z"/>
<path class="st0" d="M227.2,430.9c-34.3,0-67.9-10-96.5-28.9c-4.4-2.9-5.6-8.9-2.7-13.3s8.9-5.6,13.3-2.7l0,0
	c61.5,40.6,144,32.2,196.2-20c3.8-3.7,9.8-3.7,13.6,0s3.7,9.8,0,13.6l0,0c-28.8,28.7-66.6,46.6-107.1,50.5
	C238.3,430.6,232.8,430.9,227.2,430.9z"/>
<path class="st0" d="M110.4,382.8c-2.5,0-4.9-1-6.7-2.8l-0.4-0.4c-3.8-3.7-3.9-9.7-0.3-13.5c3.7-3.8,9.7-3.9,13.5-0.3
	c0.1,0.1,0.2,0.2,0.3,0.3l0.3,0.3c3.8,3.7,3.8,9.8,0.1,13.5C115.4,381.7,112.9,382.7,110.4,382.8L110.4,382.8z"/>
<path class="st0" d="M227,291.4c-19.5,0-35.4-15.8-35.4-35.3s15.8-35.4,35.3-35.4s35.4,15.8,35.4,35.3c0,0,0,0,0,0
	C262.3,275.5,246.5,291.3,227,291.4z M227,239.8c-9,0-16.2,7.2-16.3,16.2c0,9,7.2,16.2,16.2,16.3c9,0,16.2-7.2,16.3-16.2
	c0,0,0,0,0,0C243.2,247.1,235.9,239.8,227,239.8L227,239.8z"/>
<path class="st0" d="M46.4,349.7c-19.5,0-35.3-15.8-35.4-35.4V197.7c0-19.5,15.8-35.4,35.4-35.4s35.4,15.8,35.4,35.4c0,0,0,0,0,0
	v116.6C81.7,333.8,65.9,349.6,46.4,349.7z M46.4,181.5c-9,0-16.2,7.3-16.2,16.2v116.6c0,9,7.3,16.2,16.2,16.2s16.2-7.3,16.2-16.2
	V197.7C62.6,188.7,55.3,181.5,46.4,181.5z"/>
<path class="st0" d="M428.5,349.7c-17.2,0-31-13.9-31.1-31.1v-93.5h-10.3c-17.2,0-31.1-13.9-31.1-31.1S370,163,387.1,163
	c0,0,0,0,0,0h82.8c17.2,0,31.1,13.9,31.1,31.1c0,17.2-13.9,31.1-31.1,31.1h-10.3v93.5C459.6,335.8,445.7,349.6,428.5,349.7z
	 M387.1,182.1c-6.6,0-11.9,5.3-11.9,11.9c0,6.6,5.3,11.9,11.9,11.9H407c5.3,0,9.6,4.3,9.6,9.5c0,0,0,0,0,0v103
	c0,6.6,5.4,11.9,11.9,11.9c6.6,0,11.9-5.3,11.9-11.9v-103c0-5.3,4.3-9.6,9.6-9.6c0,0,0,0,0,0h19.9c6.6,0,11.9-5.3,11.9-11.9
	c0-6.6-5.3-11.9-11.9-11.9L387.1,182.1z"/>
<path class="st0" d="M227,337.8c-45.2,0-81.8-36.6-81.8-81.8c0-45.2,36.6-81.8,81.8-81.8c45.2,0,81.8,36.6,81.8,81.8c0,0,0,0,0,0
	C308.7,301.2,272.2,337.7,227,337.8z M227,193.3c-34.6,0-62.7,28-62.7,62.6s28,62.7,62.6,62.7s62.7-28,62.7-62.6c0,0,0,0,0,0
	C289.6,221.4,261.6,193.4,227,193.3z"/>
</svg>
