<?xml version="1.0" encoding="utf-8"?>
<!-- Generator: Adobe Illustrator 25.0.0, SVG Export Plug-In . SVG Version: 6.00 Build 0)  -->
<svg version="1.1" id="Layer_1" xmlns="http://www.w3.org/2000/svg" xmlns:xlink="http://www.w3.org/1999/xlink" x="0px" y="0px"
	 viewBox="0 0 512 512" style="enable-background:new 0 0 512 512;" xml:space="preserve">
<style type="text/css">
	.st0{fill:#0664A4;}
</style>
<g id="l">
	<path class="st0" d="M256,10C118.1,10,10,50.5,10,102.2v253.7c0,27.4,28.4,51.2,82.2,68.8c0.8,0.3,1.6,0.4,2.4,0.4
		c4.2,0,7.7-3.4,7.7-7.7l0,0v-118c26.8-8.2,58.8-14.3,93-17.5l-1.4-15.3c-33.3,3.1-64.7,8.9-91.5,16.8V163.8c0-3.3-2.1-6.3-5.3-7.3
		c-45.5-14.9-71.6-34.6-71.6-54.2c0-37.1,92.7-76.9,230.6-76.9s230.6,39.8,230.6,76.9c0,19.6-26.1,39.3-71.6,54.2
		c-3.2,1-5.3,4-5.3,7.3v119.6c-26.8-7.8-58.2-13.6-91.5-16.8l-1.4,15.3c34.2,3.2,66.2,9.3,93,17.5v118c0,4.2,3.4,7.7,7.7,7.7l0,0
		c0.8,0,1.6-0.1,2.4-0.4c53.7-17.6,82.1-41.3,82.1-68.8V102.2C502,50.5,394,10,256,10z M86.9,169.3v237.4
		c-39.2-14.4-61.5-32.6-61.5-50.7V135.3C38.2,148.1,58.8,159.6,86.9,169.3L86.9,169.3z M486.6,355.9c0,18.1-22.3,36.3-61.5,50.7
		V169.3c28-9.7,48.7-21.2,61.5-34V355.9L486.6,355.9z"/>
	<path class="st0" d="M325.2,125.3c2.4,0,4.7-1.1,6.1-3.1l23.1-30.8c2-2.7,2-6.5,0-9.2l-23.1-30.7c-2.8-3.4-7.9-3.9-11.3-1
		c-0.4,0.3-0.7,0.7-1,1l-23,30.8c-2.1,2.7-2.1,6.5,0,9.2l23,30.7C320.5,124.2,322.8,125.3,325.2,125.3z M325.2,68.9l13.5,17.9
		l-13.5,17.9l-13.5-17.9L325.2,68.9z"/>
	<path class="st0" d="M125.3,248.3h30.8c4.2,0,7.7-3.4,7.7-7.7l0,0v-30.8c0-4.2-3.4-7.7-7.7-7.7l0,0h-30.8c-4.2,0-7.7,3.4-7.7,7.7
		l0,0v30.8C117.6,244.9,121.1,248.3,125.3,248.3C125.3,248.3,125.3,248.3,125.3,248.3z M133,217.6h15.4v15.4H133V217.6z"/>
	<path class="st0" d="M402.1,117.6h30.8c4.2,0,7.7-3.4,7.7-7.7c0,0,0,0,0,0V79.2c0-4.2-3.4-7.7-7.7-7.7c0,0,0,0,0,0h-30.8
		c-4.2,0-7.7,3.4-7.7,7.7c0,0,0,0,0,0v30.8C394.4,114.2,397.8,117.6,402.1,117.6C402.1,117.6,402.1,117.6,402.1,117.6z M409.8,86.9
		h15.4v15.4h-15.4V86.9z"/>
	<path class="st0" d="M125.3,153.4c4.2,0,7.7-3.5,7.7-7.7c0-3.2-2.1-6.1-5.1-7.2c-20-7.1-30.5-29-23.5-49.1s29-30.5,49.1-23.5
		c15.4,5.4,25.6,20,25.7,36.3c0,4.2,3.4,7.7,7.7,7.7s7.7-3.4,7.7-7.7c0-29.7-24.1-53.8-53.8-53.8s-53.8,24.1-53.8,53.8
		c0,22.8,14.4,43.1,35.9,50.7C123.6,153.3,124.4,153.4,125.3,153.4z"/>
	<path class="st0" d="M302.1,236.9l43.1,18.5c3.9,1.7,8.4-0.1,10.1-4l46.1-107.6c1.7-3.9-0.1-8.4-4-10.1c-0.4-0.2-0.8-0.3-1.2-0.4
		l-30.8-7.7c-3.6-0.9-7.4,0.9-8.9,4.3l-27.7,62.4l-31.6-12.6c-0.9-0.4-1.9-0.5-2.9-0.5h-8.3c5.3-6.5,8.2-14.7,8.4-23.1v-15.4
		c0-20.5-18-38.4-38.4-38.4s-38.4,18-38.4,38.4v15.4c0.1,8.4,3.1,16.5,8.4,23.1h-4.1L154.9,75c-2.1-3.3-6.4-4.5-9.9-2.7l-30.8,15.4
		c-3.8,1.9-5.3,6.5-3.4,10.3c0.1,0.3,0.3,0.5,0.4,0.7l98.7,151.8v74.1l-23,168.6c-0.6,4.2,2.4,8.1,6.6,8.7c0.3,0,0.7,0.1,1,0.1h38.4
		c3.8,0,7.1-2.8,7.6-6.6L256,382.1l15.4,113.3c0.5,3.8,3.8,6.7,7.6,6.6h38.4c4.2,0,7.7-3.4,7.7-7.7c0-0.3,0-0.7-0.1-1l-23-168.6
		L302.1,236.9L302.1,236.9z M232.9,156.1v-15.4c0-13,12.4-23.1,23.1-23.1c10.7,0,23.1,10.1,23.1,23.1v15.4c0,13-12.4,23.1-23.1,23.1
		S232.9,169.1,232.9,156.1z M308.7,486.6h-22.9l-22.1-162.5c-0.6-4.2-4.4-7.2-8.7-6.6c-3.4,0.5-6.1,3.2-6.6,6.6l-22.1,162.5h-22.9
		l21.9-160.4c0-0.3,0.1-0.7,0.1-1v-76.9c0-1.5-0.4-2.9-1.2-4.2L128.8,97.6l16.9-8.4L211.1,191c1.4,2.2,3.8,3.5,6.5,3.5H293l37,14.8
		c3.8,1.5,8.2-0.2,9.9-4L368,142l15.8,4l-39.5,92.3l-46.8-20c-3.9-1.7-8.4,0.1-10.1,4c-0.4,1-0.6,2-0.6,3.1v99.9c0,0.3,0,0.7,0.1,1
		L308.7,486.6L308.7,486.6z"/>
</g>
</svg>
