<svg id="Layer_1" data-name="Layer 1" xmlns="http://www.w3.org/2000/svg" viewBox="0 0 512 512"><g id="l"><path d="M256,10C118.05,10,10,50.52,10,102.25V355.94c0,27.43,28.41,51.23,82.17,68.81a7.51,7.51,0,0,0,2.39.38,7.69,7.69,0,0,0,7.69-7.69v-118c26.8-8.25,58.75-14.31,93-17.55l-1.44-15.3c-33.34,3.15-64.72,8.91-91.53,16.76V163.75a7.7,7.7,0,0,0-5.3-7.31c-45.49-14.87-71.58-34.62-71.58-54.19,0-37.12,92.68-76.87,230.63-76.87s230.63,39.75,230.63,76.87c0,19.57-26.09,39.32-71.58,54.19a7.7,7.7,0,0,0-5.3,7.31V283.33c-26.81-7.84-58.19-13.61-91.53-16.76l-1.44,15.3c34.22,3.24,66.17,9.3,93,17.55v118a7.69,7.69,0,0,0,7.69,7.69,7.56,7.56,0,0,0,2.39-.38C473.59,407.17,502,383.38,502,355.94V102.25C502,50.52,394,10,256,10ZM86.87,169.28V406.64c-39.24-14.4-61.5-32.63-61.5-50.7V135.27c12.8,12.85,33.47,24.32,61.5,34ZM486.63,355.94c0,18.08-22.26,36.3-61.5,50.7V169.28c28-9.69,48.7-21.16,61.5-34V356Z"/><path d="M325.19,125.31a7.68,7.68,0,0,0,6.15-3.07L354.4,91.49a7.7,7.7,0,0,0,0-9.23L331.34,51.51a8,8,0,0,0-12.3,0L296,82.26a7.67,7.67,0,0,0,0,9.23L319,122.24A7.65,7.65,0,0,0,325.19,125.31Zm0-56.37,13.45,17.94-13.45,17.93L311.74,86.88Z"/><path d="M125.31,248.32h30.75a7.69,7.69,0,0,0,7.69-7.69V209.88a7.69,7.69,0,0,0-7.69-7.69H125.31a7.69,7.69,0,0,0-7.69,7.69v30.75A7.69,7.69,0,0,0,125.31,248.32ZM133,217.57h15.37v15.37H133Z"/><path d="M402.06,117.63h30.76a7.68,7.68,0,0,0,7.68-7.69V79.19a7.68,7.68,0,0,0-7.68-7.69H402.06a7.68,7.68,0,0,0-7.68,7.69v30.75A7.68,7.68,0,0,0,402.06,117.63Zm7.69-30.75h15.38v15.37H409.75Z"/><path d="M125.31,153.44a7.69,7.69,0,0,0,2.56-14.93,38.45,38.45,0,1,1,51.25-36.26,7.69,7.69,0,0,0,15.38,0A53.82,53.82,0,1,0,122.75,153a7.92,7.92,0,0,0,2.56.44Z"/><path d="M302.13,236.92l43.09,18.46a7.7,7.7,0,0,0,10.09-4l46.12-107.63a7.69,7.69,0,0,0-5.19-10.49l-30.75-7.69a7.69,7.69,0,0,0-8.89,4.34L328.86,192.3,297.3,179.67a7.76,7.76,0,0,0-2.85-.54H286.1a37.63,37.63,0,0,0,8.35-23.07V140.69c0-20.48-18-38.44-38.44-38.44s-38.44,18-38.44,38.44v15.37a37.63,37.63,0,0,0,8.35,23.07h-4.15L154.85,75a7.7,7.7,0,0,0-9.91-2.72L114.19,87.68a7.7,7.7,0,0,0-3,11.07l98.7,151.83v74.08l-23,168.61a7.69,7.69,0,0,0,7.62,8.73h38.43a7.69,7.69,0,0,0,7.62-6.65L256,382.08l15.44,113.27a7.69,7.69,0,0,0,7.62,6.65h38.44a7.69,7.69,0,0,0,7.62-8.73l-23-168.61V236.92Zm-69.19-80.86V140.69c0-13,12.39-23.06,23.06-23.06s23.06,10.08,23.06,23.06v15.37c0,13-12.39,23.07-23.06,23.07S232.94,169.05,232.94,156.06Zm75.75,330.57H285.77L263.62,324.15a7.69,7.69,0,0,0-15.24,0L226.23,486.63H203.31l21.88-160.4a9.08,9.08,0,0,0,.07-1V248.32a7.67,7.67,0,0,0-1.24-4.19L128.75,97.59l16.89-8.44L211.1,191a7.65,7.65,0,0,0,6.46,3.53H293L330,209.33a7.72,7.72,0,0,0,9.88-4L368,142,383.75,146l-39.54,92.26-46.75-20a7.67,7.67,0,0,0-10.71,7.06V325.2a7.27,7.27,0,0,0,.07,1l21.88,160.4Z"/></g></svg>