<?xml version="1.0" encoding="utf-8"?>
<!-- Generator: Adobe Illustrator 25.0.0, SVG Export Plug-In . SVG Version: 6.00 Build 0)  -->
<svg version="1.1" id="Layer_1" xmlns="http://www.w3.org/2000/svg" xmlns:xlink="http://www.w3.org/1999/xlink" x="0px" y="0px"
	 viewBox="0 0 512 512" style="enable-background:new 0 0 512 512;" xml:space="preserve">
<style type="text/css">
	.st0{fill:#0664A4;}
</style>
<g>
	<path class="st0" d="M489.1,313.1l-20-4.7c-1.1-5.1-2.4-10.2-4.1-15.1l14.9-14c2.5-2.3,3.2-6,1.8-9.1c-4.4-9.7-9.8-18.9-16-27.5
		c-2-2.8-5.5-4-8.8-3l-19.4,5.9c-3.5-3.9-7.2-7.6-11.1-11.1l5.9-19.4c1-3.3-0.2-6.8-3-8.8c-4.3-3.1-8.8-6-13.3-8.6V56
		c0-22.1-17.9-40-40-40H56c-22.1,0-40,17.9-40,40v208c0,22.1,17.9,40,40,40h84.6l-26.2,72H72c-4.4,0-8,3.6-8,8c0,22.1,17.9,40,40,40
		h98.8c1.2,1.8,2.2,3.6,3.5,5.3c2,2.8,5.5,4,8.8,3l19.4-5.9c3.5,3.9,7.2,7.6,11.1,11.1l-5.9,19.4c-1,3.3,0.2,6.8,3,8.8
		c8.6,6.2,17.8,11.6,27.5,16c3.1,1.4,6.8,0.7,9.1-1.8l14-14.9c5,1.6,10,3,15.1,4l4.7,20c0.8,3.3,3.6,5.8,7,6.1
		c5.4,0.5,10.8,0.8,15.9,0.8s10.5-0.3,15.9-0.8c3.4-0.3,6.2-2.8,7-6.1l4.7-20c5.1-1.1,10.1-2.4,15.1-4.1l14,14.9
		c2.3,2.5,6,3.2,9.1,1.8c9.7-4.4,18.9-9.8,27.5-16c2.8-2,4-5.5,3-8.8l-5.9-19.4c3.9-3.5,7.7-7.2,11.2-11.1l19.4,5.9
		c3.3,1,6.8-0.2,8.8-3c6.2-8.6,11.6-17.8,16-27.5c1.4-3.1,0.7-6.8-1.8-9.1l-14.9-14c1.6-5,3-10,4-15.1l20-4.7c3.3-0.8,5.8-3.6,6.1-7
		c0.5-5.4,0.8-10.7,0.8-15.9s-0.3-10.5-0.8-15.9C494.9,316.6,492.4,313.8,489.1,313.1L489.1,313.1z M56,32h320c13.3,0,24,10.7,24,24
		v133.8c-2.7-0.5-5.4,0.3-7.3,2.3l-14,14.9c-5-1.6-10-3-15.1-4l-4.7-20c-0.8-3.3-3.6-5.8-7-6.1c-10.6-1.1-21.2-1.1-31.8,0
		c-3.4,0.3-6.2,2.8-7,6.1l-4.7,20c-5.1,1-10.2,2.4-15.1,4l-14-14.9c-2.3-2.5-6-3.2-9.1-1.8c-9.7,4.4-18.9,9.8-27.5,16
		c-2.8,2-4,5.5-3,8.8l2.7,9H80V128h80v-16H80V64h272v96h16V56c0-4.4-3.6-8-8-8H72c-4.4,0-8,3.6-8,8v168H32V56C32,42.7,42.7,32,56,32
		z M240,240c-1.9,1.9-3.8,3.6-5.6,5.6l-18.3-5.6H240z M32,264v-24h177.7c-1.4,0.5-2.6,1.5-3.4,2.7c-6.2,8.6-11.6,17.8-15.9,27.5
		c-1.4,3.1-0.7,6.8,1.8,9.1l9.3,8.7H56C42.7,288,32,277.3,32,264z M157.6,304H204c-0.4,1.5-0.7,2.9-1.1,4.4l-20,4.7
		c-3.3,0.8-5.8,3.6-6.1,7c-0.5,5.4-0.8,10.7-0.8,15.9s0.3,10.5,0.8,15.9c0.3,3.4,2.8,6.2,6.1,7l20,4.7c0.9,4.2,2.1,8.3,3.3,12.4
		h-74.9L157.6,304z M104,408c-10.2,0-19.2-6.4-22.6-16h111.5l-0.7,0.7c-2.5,2.3-3.2,6-1.8,9.1c1,2.1,2.1,4.1,3.2,6.2H104z
		 M479.7,344.7l-19.4,4.5c-3.1,0.7-5.5,3.3-6.1,6.5c-1.3,7.7-3.3,15.2-6,22.5c-1.1,3-0.4,6.4,2,8.6l14.5,13.5
		c-2.6,5.2-5.5,10.2-8.7,15l-18.8-5.7c-3.1-0.9-6.4,0.1-8.5,2.6c-5,6-10.5,11.6-16.5,16.5c-2.5,2.1-3.5,5.4-2.6,8.5l5.7,18.7
		c-4.8,3.2-9.8,6.1-15,8.7l-13.5-14.5c-2.2-2.3-5.6-3.1-8.6-2c-7.3,2.7-14.8,4.7-22.5,6c-3.2,0.5-5.8,2.9-6.5,6.1l-4.5,19.4
		c-5.8,0.4-11.5,0.4-17.3,0l-4.5-19.4c-0.7-3.1-3.3-5.5-6.5-6.1c-7.7-1.3-15.2-3.3-22.5-6c-3-1.1-6.4-0.4-8.6,2l-13.5,14.5
		c-5.2-2.6-10.2-5.5-15-8.7l5.7-18.8c0.9-3.1-0.1-6.4-2.6-8.5c-6-5-11.6-10.5-16.6-16.5c-2.1-2.5-5.4-3.5-8.5-2.6l-18.8,5.7
		c-3.2-4.8-6.1-9.8-8.7-15l14.5-13.5c2.4-2.2,3.1-5.6,2-8.6c-2.7-7.3-4.7-14.8-6-22.5c-0.5-3.2-2.9-5.8-6.1-6.5l-19.4-4.5
		c-0.2-2.9-0.3-5.8-0.3-8.6s0.1-5.7,0.3-8.7l19.4-4.5c3.1-0.7,5.5-3.3,6.1-6.5c1.3-7.7,3.3-15.2,6-22.5c1.1-3,0.4-6.4-2-8.6
		l-14.5-13.5c2.6-5.2,5.5-10.2,8.7-15l18.8,5.7c3.1,0.9,6.4-0.1,8.5-2.6c5-6,10.5-11.6,16.5-16.6c2.5-2.1,3.5-5.4,2.6-8.5l-5.7-18.7
		c4.8-3.2,9.8-6.1,15-8.7l13.5,14.5c2.2,2.3,5.6,3.1,8.6,2c7.3-2.7,14.8-4.7,22.5-6c3.2-0.5,5.8-2.9,6.5-6.1l4.5-19.4
		c5.8-0.4,11.5-0.4,17.3,0l4.5,19.4c0.7,3.2,3.3,5.5,6.5,6.1c7.7,1.3,15.2,3.3,22.5,6c3,1.1,6.4,0.4,8.6-2l13.5-14.5
		c5.2,2.6,10.2,5.5,15,8.7l-5.7,18.8c-0.9,3.1,0.1,6.5,2.6,8.5c6,5,11.6,10.5,16.5,16.5c2.1,2.5,5.4,3.5,8.5,2.6l18.7-5.8
		c3.2,4.8,6.1,9.8,8.7,15l-14.5,13.5c-2.4,2.2-3.1,5.6-2,8.6c2.7,7.3,4.7,14.8,6,22.5c0.5,3.2,2.9,5.8,6.1,6.5l19.4,4.5
		c0.2,2.9,0.3,5.8,0.3,8.7S479.9,341.8,479.7,344.7L479.7,344.7z"/>
	<path class="st0" d="M392,336c0-30.9-25.1-56-56-56s-56,25.1-56,56s25.1,56,56,56C366.9,392,392,366.9,392,336z M336,376
		c-22.1,0-40-17.9-40-40s17.9-40,40-40s40,17.9,40,40S358.1,376,336,376z"/>
	<path class="st0" d="M271.2,289.1l-13-9.4c-3.4,4.7-6.3,9.6-8.8,14.8l14.4,6.9C265.9,297.1,268.3,293,271.2,289.1z"/>
	<path class="st0" d="M332.2,256.1l-0.8-16c-5.7,0.3-11.4,1.1-17,2.3L318,258C322.7,257,327.4,256.3,332.2,256.1z"/>
	<path class="st0" d="M395.6,260.7l-10,12.5c3.8,3,7.2,6.3,10.4,9.9l12-10.6C404.3,268.3,400.1,264.3,395.6,260.7L395.6,260.7z"/>
	<path class="st0" d="M258.9,357.5l-15.4,4.2c1.5,5.5,3.6,10.9,6.1,16.1l14.4-7C261.9,366.5,260.2,362,258.9,357.5L258.9,357.5z"/>
	<path class="st0" d="M297.9,265.6l-7.6-14.1c-5,2.7-9.8,5.9-14.3,9.5l10,12.5C289.7,270.6,293.7,267.9,297.9,265.6L297.9,265.6z"/>
	<path class="st0" d="M414.7,350.3l15.8,2.8c1-5.7,1.5-11.4,1.5-17.1v-0.3l-16,0.3C416,340.8,415.6,345.6,414.7,350.3z"/>
	<path class="st0" d="M339.7,415.9l0.7,16c5.7-0.3,11.5-1,17.1-2.3l-3.6-15.6C349.2,415.1,344.5,415.7,339.7,415.9z"/>
	<path class="st0" d="M400.8,383l12.9,9.4c3.4-4.6,6.3-9.6,8.8-14.8l-14.4-7C406,375,403.6,379.1,400.8,383z"/>
	<path class="st0" d="M413,314.4l15.4-4.3c-1.5-5.6-3.6-11-6.1-16.1l-14.4,7C410.1,305.3,411.8,309.8,413,314.4z"/>
	<path class="st0" d="M374,406.4l7.6,14.1c5-2.7,9.8-5.9,14.3-9.5l-10-12.5c-3.8,3-7.8,5.6-12,7.9L374,406.4z"/>
	<path class="st0" d="M298.4,424.3c5.3,2.3,10.8,4,16.4,5.3l3.5-15.6c-4.7-1.1-9.2-2.5-13.6-4.4L298.4,424.3z"/>
	<path class="st0" d="M275.8,388.7l-12,10.5c3.8,4.3,8,8.3,12.5,11.9l10-12.5C282.5,395.6,279,392.3,275.8,388.7L275.8,388.7z"/>
	<path class="st0" d="M373.5,247.6c-5.3-2.2-10.8-4-16.4-5.3l-3.5,15.6c4.7,1,9.2,2.5,13.6,4.4L373.5,247.6z"/>
	<path class="st0" d="M257.2,321.9l-15.8-2.8c-1,5.6-1.5,11.3-1.5,16.9v0.2l16-0.2C256,331.3,256.4,326.5,257.2,321.9z"/>
	<path class="st0" d="M301.7,90.3l-11.3,11.3l18.4,18.3H208c-22.1,0-40,17.9-40,40v48h16v-48c0-13.3,10.7-24,24-24h100.7l-18.4,18.3
		l11.3,11.3l32-32c3.1-3.1,3.1-8.2,0-11.3c0,0,0,0,0,0L301.7,90.3z"/>
	<path class="st0" d="M96,80h16v16H96V80z"/>
	<path class="st0" d="M128,80h16v16h-16V80z"/>
	<path class="st0" d="M160,80h16v16h-16V80z"/>
</g>
</svg>
