<svg id="Layer_1" data-name="Layer 1" xmlns="http://www.w3.org/2000/svg" viewBox="0 0 512 512"><path d="M489.06,313.1l-20-4.68A136.45,136.45,0,0,0,465,293.3l14.9-14a8,8,0,0,0,1.83-9.14,159.73,159.73,0,0,0-16-27.52,8,8,0,0,0-8.82-3l-19.39,5.89a138,138,0,0,0-11.15-11.15l5.9-19.38a8,8,0,0,0-3-8.82c-4.3-3.1-8.76-6-13.34-8.64V56a40,40,0,0,0-40-40H56A40,40,0,0,0,16,56V264a40,40,0,0,0,40,40h84.58L114.4,376H72a8,8,0,0,0-8,8,40,40,0,0,0,40,40h98.76c1.17,1.77,2.22,3.62,3.46,5.34a8,8,0,0,0,8.82,3l19.39-5.89a138,138,0,0,0,11.15,11.15L239.68,457a8,8,0,0,0,3,8.82,159.34,159.34,0,0,0,27.53,16,8,8,0,0,0,9.14-1.82l14-14.92a132.21,132.21,0,0,0,15.13,4l4.67,20a8,8,0,0,0,7,6.14c5.39.54,10.75.81,15.89.81s10.5-.27,15.9-.8a8,8,0,0,0,7-6.14l4.68-20A135.45,135.45,0,0,0,378.71,465l14,14.91a8,8,0,0,0,9.14,1.83,160.49,160.49,0,0,0,27.52-16,8,8,0,0,0,3-8.83l-5.9-19.39a138,138,0,0,0,11.16-11.14L457,432.31a8,8,0,0,0,8.82-3,160.75,160.75,0,0,0,15.95-27.53,8,8,0,0,0-1.83-9.14l-14.9-14a136.2,136.2,0,0,0,4.05-15.14l20-4.67a8,8,0,0,0,6.15-7c.52-5.38.79-10.73.79-15.89s-.27-10.51-.81-15.9a8,8,0,0,0-6.13-7ZM56,32H376a24,24,0,0,1,24,24V189.77a7.93,7.93,0,0,0-7.32,2.32l-14,14.91A134.87,134.87,0,0,0,363.58,203l-4.68-20a8,8,0,0,0-7-6.15,159.4,159.4,0,0,0-31.8,0,8,8,0,0,0-7,6.15l-4.67,20A135,135,0,0,0,293.28,207l-14-14.91a8,8,0,0,0-9.13-1.83,160.16,160.16,0,0,0-27.52,16,8,8,0,0,0-3,8.82l2.74,9H80V128h80V112H80V64H352v96h16V56a8,8,0,0,0-8-8H72a8,8,0,0,0-8,8V224H32V56A24,24,0,0,1,56,32ZM240,240c-1.86,1.86-3.83,3.61-5.58,5.57L216.1,240ZM32,264V240H209.67a7.86,7.86,0,0,0-3.45,2.66,159.63,159.63,0,0,0-15.95,27.52,8,8,0,0,0,1.83,9.14l9.26,8.68H56a24,24,0,0,1-24-24Zm125.6,40H204c-.36,1.47-.74,2.94-1.05,4.42l-20,4.68a8,8,0,0,0-6.14,7c-.53,5.39-.8,10.74-.8,15.9s.27,10.5.81,15.9a8,8,0,0,0,6.14,7l20,4.68c.86,4.2,2.06,8.32,3.32,12.42H131.42ZM104,408a24,24,0,0,1-22.63-16H192.82l-.73.68a8,8,0,0,0-1.83,9.14c1,2.1,2.14,4.12,3.19,6.18Zm375.73-63.34-19.42,4.53a8,8,0,0,0-6.07,6.49,119.09,119.09,0,0,1-6,22.49,8,8,0,0,0,2,8.65l14.45,13.54a143.13,143.13,0,0,1-8.67,15l-18.81-5.72a8,8,0,0,0-8.5,2.57,121,121,0,0,1-16.55,16.55,8,8,0,0,0-2.57,8.5L415.32,456a145.22,145.22,0,0,1-15,8.67l-13.54-14.45a8,8,0,0,0-8.64-2,119.48,119.48,0,0,1-22.5,6,8,8,0,0,0-6.49,6.07l-4.53,19.42a138.86,138.86,0,0,1-17.31,0l-4.53-19.42a8,8,0,0,0-6.48-6.07,120.45,120.45,0,0,1-22.5-6,8,8,0,0,0-8.65,2L271.66,464.7a141.25,141.25,0,0,1-15-8.67l5.73-18.8a8,8,0,0,0-2.57-8.5,121,121,0,0,1-16.55-16.55,8,8,0,0,0-8.51-2.57L216,415.32a144.93,144.93,0,0,1-8.67-15l14.46-13.54a8,8,0,0,0,2-8.65,119.16,119.16,0,0,1-6-22.5,8,8,0,0,0-6.08-6.49l-19.41-4.53c-.19-2.93-.29-5.83-.29-8.65s.1-5.72.27-8.66l19.42-4.53a8,8,0,0,0,6.07-6.49,118.89,118.89,0,0,1,6-22.49,8,8,0,0,0-2-8.65L207.3,271.63a145.22,145.22,0,0,1,8.67-15l18.81,5.71a8,8,0,0,0,8.5-2.56,121,121,0,0,1,16.55-16.56,8,8,0,0,0,2.57-8.5L256.68,216a147.07,147.07,0,0,1,15-8.67l13.54,14.46a8,8,0,0,0,8.64,2,119.46,119.46,0,0,1,22.5-6,8,8,0,0,0,6.49-6.08l4.53-19.41a138.86,138.86,0,0,1,17.31,0l4.53,19.41a8,8,0,0,0,6.48,6.08,120.43,120.43,0,0,1,22.5,6,8,8,0,0,0,8.65-2l13.53-14.46a143,143,0,0,1,15,8.67l-5.73,18.8a8,8,0,0,0,2.57,8.51,120.4,120.4,0,0,1,16.55,16.55,8,8,0,0,0,8.51,2.57L456,256.66a147.07,147.07,0,0,1,8.67,15l-14.46,13.55a8,8,0,0,0-2,8.65,119.26,119.26,0,0,1,6,22.49,8,8,0,0,0,6.08,6.49l19.41,4.54c.19,2.94.29,5.84.29,8.66s-.1,5.72-.27,8.66Z"/><path d="M392,336a56,56,0,1,0-56,56A56.07,56.07,0,0,0,392,336Zm-56,40a40,40,0,1,1,40-40A40,40,0,0,1,336,376Z"/><path d="M271.16,289.14l-13-9.39a95.56,95.56,0,0,0-8.81,14.79l14.42,6.92A80.11,80.11,0,0,1,271.16,289.14Z"/><path d="M332.17,256.1l-.75-16a96.63,96.63,0,0,0-17.05,2.34L318,258A81,81,0,0,1,332.17,256.1Z"/><path d="M395.61,260.74l-9.95,12.53a81.77,81.77,0,0,1,10.41,9.89l12-10.58a98.23,98.23,0,0,0-12.46-11.84Z"/><path d="M258.91,357.45l-15.42,4.25a94.41,94.41,0,0,0,6.07,16.11l14.41-7a79.46,79.46,0,0,1-5.06-13.39Z"/><path d="M297.9,265.63l-7.64-14.06A97.19,97.19,0,0,0,276,261.09l10,12.48a80.3,80.3,0,0,1,11.93-7.94Z"/><path d="M414.73,350.29l15.75,2.84A96.74,96.74,0,0,0,432,336v-.34L416,336A80.87,80.87,0,0,1,414.73,350.29Z"/><path d="M339.67,415.92l.72,16a96.69,96.69,0,0,0,17.06-2.3L353.89,414a80.79,80.79,0,0,1-14.22,1.92Z"/><path d="M400.75,383l12.94,9.42a96.28,96.28,0,0,0,8.83-14.77l-14.41-6.95a81.33,81.33,0,0,1-7.36,12.3Z"/><path d="M413.05,314.41l15.42-4.28A94.3,94.3,0,0,0,422.35,294L408,301A79.29,79.29,0,0,1,413.05,314.41Z"/><path d="M374,406.44l7.59,14.08A95.1,95.1,0,0,0,395.9,411l-10-12.49a80.81,80.81,0,0,1-12,7.91Z"/><path d="M298.36,424.34a94.68,94.68,0,0,0,16.39,5.3L318.26,414a79,79,0,0,1-13.62-4.41Z"/><path d="M275.83,388.72l-12,10.54a95.86,95.86,0,0,0,12.46,11.88l9.95-12.52a79.63,79.63,0,0,1-10.38-9.9Z"/><path d="M373.46,247.58a95,95,0,0,0-16.4-5.26l-3.5,15.61a79.33,79.33,0,0,1,13.63,4.38Z"/><path d="M257.24,321.87l-15.75-2.81A96.81,96.81,0,0,0,240,336v.18l16-.18A81.3,81.3,0,0,1,257.24,321.87Z"/><path d="M301.66,90.34l-11.32,11.32L308.69,120H208a40,40,0,0,0-40,40v48h16V160a24,24,0,0,1,24-24H308.69l-18.35,18.34,11.32,11.32,32-32a8,8,0,0,0,0-11.32Z"/><path d="M96,80h16V96H96Z"/><path d="M128,80h16V96H128Z"/><path d="M160,80h16V96H160Z"/></svg>