<?xml version="1.0" encoding="utf-8"?>
<!-- Generator: Adobe Illustrator 25.0.0, SVG Export Plug-In . SVG Version: 6.00 Build 0)  -->
<svg version="1.1" id="Layer_1" xmlns="http://www.w3.org/2000/svg" xmlns:xlink="http://www.w3.org/1999/xlink" x="0px" y="0px"
	 viewBox="0 0 512 512" style="enable-background:new 0 0 512 512;" xml:space="preserve">
<style type="text/css">
	.st0{fill:#0664A4;}
</style>
<path class="st0" d="M403.4,185.3h-36.8c-3.6,0-7.1,0.3-10.6,1c-11.4-14-26.8-24.6-43.9-30c-2.8-0.9-5.7,0.3-7.1,2.9l-28.7,53.3
	l-5.9-21.1c-0.8-2.7-0.3-5.2,1.3-7.5l16-22.4c1.3-1.8,1.5-4.2,0.5-6.2s-3.1-3.2-5.3-3.2h-53.7c-2.2,0-4.3,1.3-5.3,3.2
	c-1,2-0.9,4.4,0.4,6.2l16,22.4c1.6,2.3,2.1,4.8,1.3,7.5l-5.8,21.3L207,159.2c-1.4-2.5-4.3-3.8-7.1-2.9c-17.1,5.4-32.6,16-43.9,30
	c-3.5-0.7-7.1-1-10.6-1h-36.8c-34,0-61.6,29.5-61.6,65.8v6.9v53.2c0,11,8.9,19.9,19.9,19.9h33.7c3.5,0,6.4,2.1,7.5,5.4
	c2.4,7.4,5.4,14.7,9,21.6c1.6,3.1,1,6.6-1.5,9.1l-23.8,23.8c-7.8,7.8-7.8,20.4,0,28.1l33,33c7.8,7.8,20.4,7.8,28.1,0l23.8-23.8
	c2.5-2.5,6-3,9.1-1.5c7,3.5,14.2,6.5,21.6,9c3.3,1.1,5.4,4,5.4,7.5v33.7c0,11,8.9,19.9,19.9,19.9h46.7c11,0,19.9-8.9,19.9-19.9
	v-33.7c0-3.5,2.1-6.4,5.4-7.5c7.4-2.4,14.7-5.5,21.6-9c3.1-1.6,6.6-1,9.1,1.5l23.8,23.8c3.8,3.8,8.7,5.8,14,5.8s10.3-2.1,14-5.8
	l33-33c3.8-3.8,5.8-8.7,5.8-14c0-5.3-2.1-10.3-5.8-14l-23.8-23.8c-2.5-2.5-3-6-1.5-9.1c3.5-7,6.5-14.2,9-21.6c1.1-3.3,4-5.4,7.5-5.4
	h33.7c11,0,19.9-8.9,19.9-19.9V258v-6.9C465.1,214.8,437.4,185.3,403.4,185.3L403.4,185.3z M313.1,169.3
	c30.9,11.9,51.3,41.3,51.3,74.7v23.3h-35.1v-25.9c0-3.3-2.7-6-6-6s-6,2.7-6,6v25.9H260c0.5-0.5,0.9-1,1.2-1.6L313.1,169.3z
	 M172.1,279.3h167.9v5.3c0,46.3-37.6,83.9-83.9,83.9s-83.9-37.6-83.9-83.9V279.3z M250.1,176.9l-9.2-12.9h30.3l-9.2,12.9
	c-3.7,5.2-4.9,11.5-3.1,17.7l9.3,33.1L256,250.2L244.1,228l9.2-33.4C254.9,188.4,253.8,182.1,250.1,176.9L250.1,176.9z M198.9,169.3
	l51.9,96.3c0.3,0.6,0.8,1.1,1.2,1.6h-57.3v-25.9c0-3.3-2.7-6-6-6s-6,2.7-6,6v25.9h-35.1V244C147.6,210.6,168,181.2,198.9,169.3z
	 M59,251.1c0-29.7,22.2-53.8,49.6-53.8h36.8c1,0,2,0,2.9,0.1c-8.3,14.1-12.7,30-12.7,46.6v23.3H68.2c-5.1,0-9.2-4.1-9.2-9.2
	L59,251.1z M445.2,319.2h-33.7c-8.7,0-16.1,5.4-18.9,13.7c-2.2,6.8-5,13.5-8.3,20c-4,7.8-2.5,16.9,3.7,23l23.8,23.8
	c1.5,1.5,2.3,3.5,2.3,5.6s-0.8,4.1-2.3,5.6l-33,33c-1.5,1.5-3.5,2.3-5.6,2.3s-4.1-0.8-5.6-2.3L343.9,420c-6.2-6.2-15.2-7.6-23-3.7
	c-6.4,3.2-13.1,6-20,8.3c-8.3,2.7-13.7,10.1-13.7,18.9v33.7c0,4.3-3.5,7.9-7.9,7.9h-46.7c-4.3,0-7.9-3.5-7.9-7.9v-33.7
	c0-8.7-5.4-16.1-13.7-18.9c-6.8-2.2-13.5-5-20-8.3c-7.8-4-16.9-2.5-23,3.7l-23.8,23.8c-3.1,3.1-8.1,3.1-11.1,0l-33-33
	c-3.1-3.1-3.1-8.1,0-11.1l23.8-23.8c6.2-6.2,7.6-15.2,3.7-23c-3.2-6.4-6-13.1-8.3-20c-2.7-8.3-10.1-13.7-18.9-13.7H66.8
	c-4.3,0-7.9-3.5-7.9-7.9v-34.2c2.8,1.4,5.9,2.1,9.2,2.1h73.4h18.5v5.3c0,52.9,43,95.9,95.9,95.9s95.9-43,95.9-95.9v-5.3h18.5h73.4
	c3.3,0,6.4-0.8,9.2-2.1v34.2C453,315.6,449.5,319.2,445.2,319.2L445.2,319.2z M443.8,267.3h-67.4V244c0-16.6-4.4-32.5-12.7-46.6
	c1-0.1,2-0.1,3-0.1h36.8c27.4,0,49.6,24.1,49.6,53.8v6.9C453,263.1,448.9,267.3,443.8,267.3L443.8,267.3z M385.1,176
	c17.8,0,32-9.6,39-26.4c7.9-18.9,5-43-6.6-54.8c-8.5-8.7-18.8-12.7-32.4-12.7c-13.6,0-23.9,4-32.4,12.7
	c-11.6,11.8-14.5,35.9-6.6,54.8C353.1,166.4,367.3,176,385.1,176L385.1,176z M361.2,103.2c6.3-6.4,13.4-9.1,23.9-9.1
	c10.4,0,17.5,2.7,23.8,9.1c8.2,8.3,10.1,27.5,4.1,41.8c-3.6,8.7-11.4,19-27.9,19c-16.5,0-24.3-10.4-28-19
	C351.1,130.7,353,111.6,361.2,103.2z M127,176c17.8,0,32-9.6,39-26.4c7.9-18.9,5-43-6.6-54.8c-8.5-8.7-18.8-12.7-32.4-12.7
	c-13.6,0-23.9,4-32.4,12.7c-11.6,11.8-14.5,35.9-6.6,54.8C95,166.4,109.2,176,127,176z M103.1,103.2c6.3-6.4,13.4-9.1,23.9-9.1
	c10.4,0,17.5,2.7,23.8,9.1c8.2,8.3,10.1,27.5,4.1,41.8c-3.6,8.7-11.4,19-27.9,19c-16.5,0-24.3-10.4-28-19
	C93,130.7,94.9,111.6,103.1,103.2z M256,145.8c24.6,0,44.3-13.3,54.1-36.6c11.1-26.5,7.1-60.1-9-76.6c-11.8-12-26.1-17.6-45-17.6
	c-18.9,0-33.3,5.6-45.1,17.6c-16.2,16.4-20.1,50.1-9,76.5C211.7,132.4,231.4,145.8,256,145.8z M219.5,41c9.5-9.7,20.8-14,36.5-14
	c15.7,0,26.9,4.3,36.5,14c12.8,13,15.7,41.5,6.5,63.5c-4.6,10.9-16.3,29.2-43,29.2c-26.8,0-38.4-18.3-43-29.3
	C203.8,82.5,206.7,54.1,219.5,41L219.5,41z"/>
</svg>
