<svg id="Layer_1" enable-background="new 0 0 512 512" viewBox="0 0 512 512" xmlns="http://www.w3.org/2000/svg"><path d="m403.44 185.32h-36.78c-3.58 0-7.14.34-10.65.99-11.35-14.02-26.82-24.63-43.91-30.04-2.75-.87-5.73.34-7.09 2.88l-28.7 53.31-5.9-21.07c-.77-2.74-.34-5.2 1.32-7.52l15.99-22.38c1.31-1.83 1.48-4.23.45-6.23s-3.09-3.25-5.34-3.25h-53.66c-2.25 0-4.31 1.26-5.34 3.25-1.03 2-.85 4.41.45 6.23l16.02 22.42c1.64 2.3 2.08 4.75 1.33 7.47l-5.83 21.28-28.8-53.51c-1.37-2.54-4.34-3.75-7.09-2.88-17.1 5.41-32.56 16.02-43.91 30.04-3.51-.66-7.08-.99-10.65-.99h-36.78c-33.97 0-61.61 29.51-61.61 65.79v6.94 53.25c0 10.96 8.91 19.87 19.87 19.87h33.67c3.52 0 6.38 2.08 7.48 5.42 2.43 7.39 5.45 14.67 8.98 21.63 1.59 3.14 1.03 6.63-1.46 9.12l-23.82 23.82c-7.75 7.75-7.75 20.35 0 28.1l33.01 33.01c7.75 7.75 20.35 7.75 28.1 0l23.82-23.82c2.49-2.49 5.98-3.05 9.12-1.46 6.96 3.52 14.24 6.54 21.64 8.98 3.34 1.1 5.41 3.96 5.41 7.48v33.67c0 10.96 8.91 19.87 19.87 19.87h46.69c10.96 0 19.87-8.91 19.87-19.87v-33.67c0-3.52 2.07-6.38 5.41-7.48 7.39-2.43 14.67-5.45 21.64-8.98 3.14-1.59 6.63-1.03 9.12 1.45l23.82 23.82c3.75 3.75 8.74 5.81 14.05 5.81s10.31-2.06 14.05-5.81l33.01-33.01c3.75-3.75 5.81-8.74 5.81-14.05 0-5.32-2.06-10.31-5.81-14.05l-23.82-23.82c-2.49-2.49-3.05-5.98-1.46-9.12 3.53-6.96 6.55-14.24 8.98-21.63 1.1-3.34 3.96-5.42 7.48-5.42h33.67c10.96 0 19.87-8.91 19.87-19.87v-53.25-6.94c.02-36.27-27.62-65.78-61.59-65.78zm-90.3-15.98c30.88 11.87 51.29 41.28 51.29 74.66v23.27h-35.13v-25.9c0-3.31-2.69-6-6-6s-6 2.69-6 6v25.9h-57.27c.5-.45.93-.99 1.25-1.6zm-141.07 109.93h167.86v5.29c0 46.28-37.65 83.93-83.93 83.93s-83.93-37.65-83.93-83.93zm78-102.33-9.24-12.93h30.34l-9.21 12.89c-3.74 5.24-4.85 11.54-3.11 17.73l9.26 33.06-12.11 22.48-11.95-22.19 9.16-33.42c1.69-6.16.58-12.42-3.14-17.62zm-51.21-7.6 51.86 96.33c.33.61.76 1.15 1.25 1.6h-57.27v-25.9c0-3.31-2.69-6-6-6s-6 2.69-6 6v25.9h-35.13v-23.27c-.01-33.38 20.41-62.79 51.29-74.66zm-139.91 81.77c0-29.66 22.25-53.79 49.61-53.79h36.78c.99 0 1.97.04 2.95.1-8.34 14.09-12.72 30.01-12.72 46.58v23.27h-67.39c-5.09 0-9.23-4.14-9.23-9.22zm386.22 68.06h-33.67c-8.74 0-16.15 5.37-18.88 13.67-2.24 6.82-5.03 13.53-8.28 19.96-3.95 7.81-2.51 16.85 3.68 23.03l23.82 23.82c1.48 1.48 2.29 3.46 2.29 5.57s-.81 4.09-2.3 5.57l-33.01 33.01c-1.48 1.48-3.46 2.29-5.57 2.29s-4.09-.81-5.57-2.29l-23.82-23.82c-6.19-6.18-15.23-7.63-23.03-3.67-6.42 3.25-13.14 6.04-19.96 8.28-8.3 2.73-13.67 10.14-13.67 18.88v33.67c0 4.34-3.53 7.87-7.87 7.87h-46.69c-4.34 0-7.87-3.53-7.87-7.87v-33.67c0-8.74-5.37-16.15-13.67-18.88-6.82-2.24-13.54-5.03-19.96-8.28-7.8-3.95-16.85-2.51-23.03 3.68l-23.82 23.82c-3.07 3.07-8.06 3.07-11.13 0l-33.01-33.01c-3.07-3.07-3.07-8.07 0-11.13l23.82-23.82c6.19-6.19 7.63-15.23 3.68-23.03-3.25-6.42-6.04-13.14-8.28-19.96-2.73-8.3-10.14-13.67-18.88-13.67h-33.66c-4.34 0-7.87-3.53-7.87-7.87v-34.17c2.79 1.36 5.92 2.14 9.23 2.14h73.39 18.51v5.29c0 52.9 43.03 95.93 95.93 95.93s95.93-43.03 95.93-95.93v-5.29h18.51 73.39c3.31 0 6.43-.78 9.23-2.14v34.17c-.03 4.32-3.57 7.85-7.91 7.85zm-1.35-51.9h-67.39v-23.27c0-16.58-4.38-32.49-12.72-46.58.98-.06 1.97-.1 2.95-.1h36.78c27.35 0 49.61 24.13 49.61 53.79v6.94c0 5.08-4.14 9.22-9.23 9.22zm-58.76-91.24c17.75 0 31.97-9.62 39-26.39 7.93-18.9 5.02-42.98-6.61-54.81-8.52-8.67-18.81-12.71-32.37-12.71-13.6 0-23.91 4.04-32.43 12.71-11.63 11.83-14.54 35.91-6.61 54.81 7.03 16.77 21.26 26.39 39.02 26.39zm-23.85-72.79c6.28-6.39 13.42-9.12 23.87-9.12 10.41 0 17.53 2.73 23.81 9.12 8.21 8.35 10.09 27.48 4.1 41.76-3.64 8.68-11.44 19.03-27.93 19.03-16.5 0-24.31-10.35-27.95-19.04-5.99-14.28-4.11-33.4 4.1-41.75zm-234.25 72.79c17.75 0 31.97-9.62 39-26.39 7.93-18.9 5.02-42.98-6.61-54.81-8.52-8.67-18.81-12.71-32.37-12.71-13.6 0-23.91 4.04-32.43 12.71-11.63 11.83-14.53 35.91-6.61 54.81 7.03 16.77 21.25 26.39 39.02 26.39zm-23.85-72.79c6.28-6.39 13.42-9.12 23.87-9.12 10.41 0 17.53 2.73 23.81 9.12 8.21 8.35 10.09 27.48 4.1 41.76-3.64 8.68-11.44 19.03-27.93 19.03-16.5 0-24.31-10.35-27.95-19.04-5.99-14.28-4.11-33.4 4.1-41.75zm152.9 42.54c24.6 0 44.31-13.34 54.06-36.61 11.1-26.48 7.14-60.1-9.02-76.55-11.81-12.02-26.11-17.62-45.01-17.62-18.95 0-33.28 5.6-45.1 17.62-16.16 16.44-20.12 50.06-9.02 76.54 9.76 23.27 29.48 36.62 54.09 36.62zm-36.51-104.75c9.54-9.7 20.81-14.03 36.54-14.03 15.67 0 26.92 4.33 36.45 14.03 12.81 13.03 15.73 41.51 6.51 63.49-4.58 10.92-16.26 29.25-43 29.25-26.75 0-38.44-18.33-43.02-29.26-9.2-21.97-6.28-50.45 6.52-63.48z"/></svg>