<svg id="Layer_1" data-name="Layer 1" xmlns="http://www.w3.org/2000/svg" viewBox="0 0 512 512"><path d="M449.21,146.17h-13a53.11,53.11,0,0,0-39-48.56C355.92-6.52,232.41-8.32,171.08,29.63c-25.19,15.59-43.86,38.46-55.59,68a53.11,53.11,0,0,0-39,48.56H62.79a14.91,14.91,0,0,0-14.9,14.89v51.09A14.91,14.91,0,0,0,62.79,227H76.53a53.09,53.09,0,0,0,39.11,48.51c10.61,32.88,28.12,65.14,53.92,88.76a139.33,139.33,0,0,1-8,47.4c-12.58,35.73-37.6,62.58-74.37,79.79-6.84,3.2-4.54,13.5,3,13.5H422.61c7.55,0,9.84-10.3,3-13.5-36.77-17.22-61.79-44.06-74.37-79.79a139.73,139.73,0,0,1-8-47.4c25.75-23.56,43.29-55.81,53.93-88.76A53.11,53.11,0,0,0,436.25,227h13a14.91,14.91,0,0,0,14.9-14.89V161.06a14.91,14.91,0,0,0-14.9-14.89ZM76.46,212.87c-12.85-.29-14.39.63-14.39-.72.33-52.64-.69-51.81.72-51.81H76.46v52.53ZM256.39,21.35c58.78,0,102.63,26.3,124.7,74.38H131.69C153.75,47.65,197.61,21.35,256.39,21.35ZM395.71,490.83H117.06c40-27.08,63-69.12,66.34-114.87,47.65,32,100.94,30.55,146-.15,3.3,45.12,25.71,87.53,66.35,115ZM198,368.34c-28.79-17.74-52.13-49-66.8-90.94h84A22.85,22.85,0,0,0,238,254.58a9.37,9.37,0,0,1,9.36-9.36h18a9.37,9.37,0,0,1,9.36,9.36,22.85,22.85,0,0,0,22.82,22.82h84c-35.76,102.15-118,129.46-183.61,90.94ZM422,224.4a38.75,38.75,0,0,1-38.72,38.7H297.58a8.53,8.53,0,0,1-8.52-8.52,23.69,23.69,0,0,0-23.66-23.65h-18a23.69,23.69,0,0,0-23.66,23.65,8.53,8.53,0,0,1-8.52,8.52H129.48a38.75,38.75,0,0,1-38.72-38.7V148.73A38.76,38.76,0,0,1,129.48,110H383.3A38.76,38.76,0,0,1,422,148.73V224.4Zm27.19-11.53H436.32V160.34c12,.29,13.61-.64,13.61.72C449.61,213.7,450.62,212.87,449.21,212.87Zm-112.66-82a7.08,7.08,0,0,0-9.26,3.84L310.64,175,294,134.71a7.09,7.09,0,0,0-13.1,5.41l22.83,55.2c2.48,6,11.46,5.76,13.84,0l22.83-55.2a7.09,7.09,0,0,0-3.84-9.25Zm49.95,41.65a22.3,22.3,0,0,0-10.08-42.19H357.84a7.09,7.09,0,0,0-7.09,7.09v55.72a7.09,7.09,0,0,0,14.18,0v-18.2h6.18l14.62,22.11a7.08,7.08,0,0,0,11.82-7.81Zm-10.08-11.75H364.93V144.5h11.49a8.14,8.14,0,0,1,0,16.27Zm-266.25,28a7.08,7.08,0,0,0-7.08,7.08V207a7.09,7.09,0,1,0,14.17,0V195.86A7.08,7.08,0,0,0,110.17,188.78Zm23.52-66.89c-17.74,0-30.6,12.86-30.6,30.59V173.2a7.09,7.09,0,1,0,14.17,0V152.48c0-7.58,4.3-16.42,16.42-16.42a7.09,7.09,0,1,0,0-14.17Z"/></svg>