<?xml version="1.0" encoding="utf-8"?>
<!-- Generator: Adobe Illustrator 25.0.0, SVG Export Plug-In . SVG Version: 6.00 Build 0)  -->
<svg version="1.1" id="Layer_1" xmlns="http://www.w3.org/2000/svg" xmlns:xlink="http://www.w3.org/1999/xlink" x="0px" y="0px"
	 viewBox="0 0 503.9 512" style="enable-background:new 0 0 503.9 512;" xml:space="preserve">
<style type="text/css">
	.st0{fill:#0664A4;}
</style>
<path class="st0" d="M336.7,40.9H206.1c-4.2,0.2-7.5,3.7-7.3,7.9c0.1,4,3.3,7.2,7.3,7.3h130.6c4.2-0.2,7.5-3.7,7.3-7.9
	C343.9,44.2,340.7,41,336.7,40.9z"/>
<path class="st0" d="M264.3,73.3h-58.2c-4.2,0.2-7.5,3.7-7.3,7.9c0.1,4,3.3,7.2,7.3,7.3h58.2c4.2,0.2,7.7-3.1,7.9-7.3
	c0.2-4.2-3.1-7.7-7.3-7.9C264.6,73.3,264.5,73.3,264.3,73.3z"/>
<path class="st0" d="M475.1,74.7c-4.2,0-7.6,3.4-7.6,7.6s3.4,7.6,7.6,7.6c7.5,0,13.6,6.1,13.6,13.6v216.3h-55.5V89.9h12.7
	c4.2,0,7.6-3.4,7.6-7.6s-3.4-7.6-7.6-7.6h-12.7V22.9c0-12.6-10.2-22.9-22.9-22.9H91.6C79,0,68.8,10.2,68.8,22.9v51.8H28.8
	C12.9,74.7,0,87.6,0,103.5v294c0,15.9,12.9,28.8,28.8,28.8h46.9c4.2,0.2,7.7-3.1,7.9-7.3c0.2-4.2-3.1-7.7-7.3-7.9
	c-0.2,0-0.4,0-0.6,0H28.8c-7.5,0-13.6-6.1-13.6-13.6V335h473.4v62.5c0,7.5-6.1,13.6-13.6,13.6H111.6c-4.2-0.2-7.7,3.1-7.9,7.3
	c-0.2,4.2,3.1,7.7,7.3,7.9c0.2,0,0.4,0,0.6,0h78v40.3c-20.6,0.4-37,17.2-37.1,37.7c0,4.2,3.4,7.6,7.6,7.6h183.7
	c4.2,0,7.6-3.4,7.6-7.6c0-20.6-16.5-37.3-37.1-37.7v-40.3h160.7c15.9,0,28.8-12.9,28.8-28.8v-294C503.9,87.6,491,74.7,475.1,74.7z
	 M68.8,319.8H15.2V103.5c0-7.5,6.1-13.6,13.6-13.6h39.9V319.8z M417.9,111.2H158.6c-4.2,0-7.6,3.4-7.6,7.6s3.4,7.6,7.6,7.6h259.3
	v193.3H83.9V126.4h35c4.2,0,7.6-3.4,7.6-7.6s-3.4-7.6-7.6-7.6h-35V22.9c0-4.2,3.4-7.6,7.7-7.6h318.6c4.2,0,7.6,3.4,7.6,7.6V111.2z
	 M204.8,426.3h94.3v40.3h-94.3V426.3z M334.9,496.8H169c3.2-8.9,11.7-14.9,21.2-14.9h123.4C323.2,481.9,331.6,487.8,334.9,496.8z"/>
<path class="st0" d="M256,350c-12.7,0-23,10.3-23,23s10.3,23,23,23s23-10.3,23-23S268.7,350,256,350L256,350z M256,380.8
	c-4.3,0-7.8-3.5-7.8-7.8s3.5-7.8,7.8-7.8s7.8,3.5,7.8,7.8l0,0C263.8,377.3,260.3,380.8,256,380.8C256,380.8,256,380.8,256,380.8
	L256,380.8z"/>
<path class="st0" d="M167.3,78.7l-25.1-43.4c-2.1-3.6-6.7-4.9-10.4-2.8c-1.2,0.7-2.1,1.6-2.8,2.8L104,78.7
	c-2.1,3.6-0.8,8.3,2.8,10.4c1.2,0.7,2.5,1,3.8,1h50.1c4.2,0,7.6-3.4,7.6-7.6C168.3,81.2,168,79.9,167.3,78.7z M123.8,74.9l11.9-20.6
	l11.9,20.6H123.8z"/>
<path class="st0" d="M395.5,154.5H285.2c-4.2,0-7.6,3.4-7.6,7.6s3.4,7.6,7.6,7.6h110.2c4.2,0,7.6-3.4,7.6-7.6
	S399.7,154.5,395.5,154.5z"/>
<path class="st0" d="M395.5,188H285.2c-4.2,0-7.6,3.4-7.6,7.6s3.4,7.6,7.6,7.6h110.2c4.2,0,7.6-3.4,7.6-7.6S399.7,188,395.5,188z"/>
<path class="st0" d="M395.5,221.4H285.2c-4.2,0.2-7.5,3.7-7.3,7.9c0.1,4,3.3,7.2,7.3,7.3h110.2c4.2-0.2,7.5-3.7,7.3-7.9
	C402.6,224.8,399.4,221.6,395.5,221.4z"/>
<path class="st0" d="M395.5,254.9H285.2c-4.2,0-7.6,3.4-7.6,7.6c0,4.2,3.4,7.6,7.6,7.6h110.2c4.2,0,7.6-3.4,7.6-7.6
	C403.1,258.3,399.7,254.9,395.5,254.9z"/>
<path class="st0" d="M336.7,288.4h-51.5c-4.2,0-7.6,3.4-7.6,7.6c0,4.2,3.4,7.6,7.6,7.6h51.5c4.2,0,7.6-3.4,7.6-7.6
	C344.3,291.8,340.9,288.4,336.7,288.4z"/>
<path class="st0" d="M250.9,148.1H110.6c-4.2,0-7.6,3.4-7.6,7.6l0,0V296c0,4.2,3.4,7.6,7.6,7.6h140.3c4.2,0,7.6-3.4,7.6-7.6V155.7
	C258.5,151.5,255.1,148.1,250.9,148.1z M118.2,163.3h125.1v79.6c-0.9-0.1-1.7-0.3-2.6-0.4c-13.3-1.5-20.9,3.8-27,8.1
	c-4.6,3.2-8.6,6-15.2,6.5c-10.8,0.9-17.7-4.8-26.4-12.1c-9.7-8-20.8-17.2-38.3-16.1c-5.3,0.3-10.6,1.6-15.5,3.6L118.2,163.3
	L118.2,163.3z M243.3,288.4H118.2v-38.9c5-3.1,10.6-5,16.4-5.4c11.6-0.7,19.1,5.5,27.7,12.6c9.6,7.9,20.4,16.9,37.4,15.5
	c10.7-0.9,17.4-5.5,22.7-9.2s9.1-6.3,16.6-5.5c1.4,0.2,2.8,0.4,4.2,0.8V288.4L243.3,288.4z"/>
<path class="st0" d="M200.9,180.3c-12.9,0-23.3,10.4-23.3,23.3s10.4,23.3,23.3,23.3s23.3-10.4,23.3-23.3
	C224.1,190.7,213.7,180.3,200.9,180.3z M200.9,211.7c-4.5,0-8.1-3.6-8-8.1c0-4.5,3.6-8.1,8.1-8c4.4,0,8,3.6,8.1,8.1
	C208.9,208.1,205.3,211.7,200.9,211.7L200.9,211.7z"/>
</svg>
