<svg id="Layer_1" data-name="Layer 1" xmlns="http://www.w3.org/2000/svg" viewBox="0 0 503.88 512"><path d="M340.78,40.9H210.17a7.62,7.62,0,0,0,0,15.23H340.78a7.62,7.62,0,0,0,0-15.23Z" transform="translate(-4.06)"/><path d="M268.33,73.34H210.17a7.62,7.62,0,0,0,0,15.23h58.16a7.62,7.62,0,1,0,0-15.23Z" transform="translate(-4.06)"/><path d="M479.13,74.67a7.61,7.61,0,0,0,0,15.22,13.6,13.6,0,0,1,13.58,13.58V319.76H437.16V89.89h12.69a7.61,7.61,0,0,0,0-15.22H437.16V22.87A22.9,22.9,0,0,0,414.29,0H95.68A22.9,22.9,0,0,0,72.81,22.87v51.8H32.87a28.84,28.84,0,0,0-28.81,28.8v294a28.84,28.84,0,0,0,28.81,28.81H79.74a7.62,7.62,0,1,0,0-15.23H32.87a13.59,13.59,0,0,1-13.58-13.58V335H492.71v62.53a13.59,13.59,0,0,1-13.58,13.58H115.61a7.62,7.62,0,1,0,0,15.23h78v40.33a37.8,37.8,0,0,0-37.07,37.74,7.61,7.61,0,0,0,7.61,7.61h183.7a7.61,7.61,0,0,0,7.61-7.61,37.8,37.8,0,0,0-37.07-37.74V426.32H479.13a28.84,28.84,0,0,0,28.81-28.81v-294A28.84,28.84,0,0,0,479.13,74.67ZM72.81,319.76H19.29V103.47A13.6,13.6,0,0,1,32.87,89.89H72.81ZM421.94,111.21H162.63a7.61,7.61,0,1,0,0,15.22H421.94V319.76H88V126.43h35a7.61,7.61,0,0,0,0-15.22H88V22.87a7.66,7.66,0,0,1,7.65-7.65H414.29a7.66,7.66,0,0,1,7.65,7.65v88.34ZM208.83,426.32h94.34v40.32H208.83V426.32Zm130.08,70.46H173.09a22.56,22.56,0,0,1,21.2-14.92H317.71A22.56,22.56,0,0,1,338.91,496.78Z" transform="translate(-4.06)"/><path d="M260.08,350a23,23,0,1,0,23,23A23,23,0,0,0,260.08,350Zm0,30.79a7.78,7.78,0,1,1,7.78-7.78A7.79,7.79,0,0,1,260.08,380.82Z" transform="translate(-4.06)"/><path d="M171.37,78.73,146.31,35.34a7.6,7.6,0,0,0-13.18,0L108.07,78.73a7.62,7.62,0,0,0,6.6,11.42h50.1a7.62,7.62,0,0,0,6.6-11.42Zm-43.52-3.8,11.87-20.56,11.87,20.56Z" transform="translate(-4.06)"/><path d="M399.51,154.5H289.27a7.61,7.61,0,0,0,0,15.22H399.51a7.61,7.61,0,1,0,0-15.22Z" transform="translate(-4.06)"/><path d="M399.51,188H289.27a7.61,7.61,0,0,0,0,15.22H399.51a7.61,7.61,0,1,0,0-15.22Z" transform="translate(-4.06)"/><path d="M399.51,221.45H289.27a7.62,7.62,0,0,0,0,15.23H399.51a7.62,7.62,0,0,0,0-15.23Z" transform="translate(-4.06)"/><path d="M399.51,254.93H289.27a7.61,7.61,0,0,0,0,15.22H399.51a7.61,7.61,0,1,0,0-15.22Z" transform="translate(-4.06)"/><path d="M340.78,288.41H289.27a7.61,7.61,0,1,0,0,15.22h51.51a7.61,7.61,0,1,0,0-15.22Z" transform="translate(-4.06)"/><path d="M255,148.09H114.66a7.61,7.61,0,0,0-7.61,7.61V296a7.61,7.61,0,0,0,7.61,7.61H255A7.61,7.61,0,0,0,262.6,296V155.7A7.61,7.61,0,0,0,255,148.09ZM122.28,163.31H247.37V242.9c-.85-.15-1.7-.28-2.55-.37-13.27-1.49-20.9,3.82-27,8.09-4.6,3.2-8.58,6-15.23,6.5-10.77.88-17.68-4.84-26.43-12.08-9.73-8-20.78-17.17-38.33-16.11a48.67,48.67,0,0,0-15.52,3.6V163.31Zm125.09,125.1H122.28V249.54a36,36,0,0,1,16.44-5.42c11.56-.7,19.05,5.49,27.71,12.65,9.57,7.92,20.42,16.89,37.36,15.52,10.74-.87,17.37-5.47,22.69-9.17s9.07-6.3,16.65-5.46a30.61,30.61,0,0,1,4.24.79v30Z" transform="translate(-4.06)"/><path d="M204.91,180.31A23.29,23.29,0,1,0,228.2,203.6,23.32,23.32,0,0,0,204.91,180.31Zm0,31.36A8.07,8.07,0,1,1,213,203.6,8.08,8.08,0,0,1,204.91,211.67Z" transform="translate(-4.06)"/></svg>