<svg id="Layer_1" data-name="Layer 1" xmlns="http://www.w3.org/2000/svg" xmlns:xlink="http://www.w3.org/1999/xlink" viewBox="0 0 156.35 53.04"><defs><style>.cls-1{fill:#fff;}.cls-2{fill:url(#linear-gradient);}.cls-3{fill:url(#linear-gradient-2);}.cls-4{fill:url(#linear-gradient-3);}.cls-5{fill:url(#linear-gradient-4);}.cls-6{fill:url(#linear-gradient-5);}.cls-7{fill:url(#linear-gradient-6);}.cls-8{fill:url(#linear-gradient-7);}.cls-9{fill:url(#linear-gradient-8);}.cls-10{fill:url(#linear-gradient-9);}.cls-11{fill:url(#linear-gradient-10);}.cls-12{fill:url(#linear-gradient-11);}.cls-13{fill:url(#linear-gradient-12);}.cls-14{fill:#0fa4e1;}.cls-15{fill:url(#linear-gradient-13);}.cls-16{fill:url(#linear-gradient-14);}.cls-17{fill:url(#linear-gradient-15);}.cls-18{fill:url(#linear-gradient-16);}.cls-19{fill:url(#linear-gradient-17);}.cls-20{fill:url(#linear-gradient-18);}.cls-21{fill:url(#linear-gradient-19);}.cls-22{fill:url(#linear-gradient-20);}.cls-23{fill:url(#linear-gradient-21);}.cls-24{fill:url(#linear-gradient-22);}.cls-25{fill:url(#linear-gradient-23);}.cls-26{fill:url(#linear-gradient-24);}.cls-27{fill:url(#linear-gradient-25);}.cls-28{fill:url(#linear-gradient-26);}.cls-29{fill:url(#linear-gradient-27);}.cls-30{fill:url(#linear-gradient-28);}</style><linearGradient id="linear-gradient" x1="-840.87" y1="616.98" x2="-836.12" y2="629.07" gradientTransform="matrix(1, 0, 0, -1, 900, 624.07)" gradientUnits="userSpaceOnUse"><stop offset="0" stop-color="#662d91"/><stop offset="0.2" stop-color="#0664a4"/><stop offset="0.35" stop-color="#1099de"/><stop offset="0.49" stop-color="#11a1e7"/><stop offset="0.61" stop-color="#04b1bf"/><stop offset="1" stop-color="#8edff8"/></linearGradient><linearGradient id="linear-gradient-2" x1="-865.54" y1="572.98" x2="-818.59" y2="651.27" gradientTransform="matrix(1, 0, 0, -1, 900, 624.07)" gradientUnits="userSpaceOnUse"><stop offset="0" stop-color="#662d91"/><stop offset="0.27" stop-color="#0664a4"/><stop offset="0.49" stop-color="#11a1e7"/><stop offset="0.74" stop-color="#04b1bf"/><stop offset="1" stop-color="#8edff8"/></linearGradient><linearGradient id="linear-gradient-3" x1="-884.53" y1="584.37" x2="-837.59" y2="662.67" xlink:href="#linear-gradient-2"/><linearGradient id="linear-gradient-4" x1="-819.82" y1="648.15" x2="-863.46" y2="616.17" gradientTransform="matrix(1, 0, 0, -1, 900, 624.07)" gradientUnits="userSpaceOnUse"><stop offset="0" stop-color="#662d91"/><stop offset="0.51" stop-color="#ed1e79"/><stop offset="1" stop-color="#f7931e"/></linearGradient><linearGradient id="linear-gradient-5" x1="-829.16" y1="599.67" x2="-857.24" y2="579.4" xlink:href="#linear-gradient-4"/><linearGradient id="linear-gradient-6" x1="-810.11" y1="634.91" x2="-853.75" y2="602.92" xlink:href="#linear-gradient-4"/><linearGradient id="linear-gradient-7" x1="-878.8" y1="563.78" x2="-849.97" y2="584.8" gradientTransform="matrix(1, 0, 0, -1, 900, 624.07)" gradientUnits="userSpaceOnUse"><stop offset="0" stop-color="#fff33b"/><stop offset="0.04" stop-color="#fee72e"/><stop offset="0.12" stop-color="#fed51b"/><stop offset="0.2" stop-color="#fdca10"/><stop offset="0.28" stop-color="#fdc70c"/><stop offset="0.67" stop-color="#f3903f"/><stop offset="0.89" stop-color="#ed683c"/><stop offset="1" stop-color="#e93e3a"/></linearGradient><linearGradient id="linear-gradient-8" x1="-840.82" y1="617.07" x2="-836.06" y2="629.19" gradientTransform="matrix(1, 0, 0, -1, 900, 624.07)" gradientUnits="userSpaceOnUse"><stop offset="0" stop-color="#fff"/><stop offset="0.2" stop-color="#0664a4"/><stop offset="0.35" stop-color="#1099de"/><stop offset="0.49" stop-color="#11a1e7"/><stop offset="0.61" stop-color="#04b1bf"/><stop offset="1" stop-color="#8edff8"/></linearGradient><linearGradient id="linear-gradient-9" x1="-809.98" y1="635.03" x2="-853.72" y2="602.97" xlink:href="#linear-gradient-4"/><linearGradient id="linear-gradient-10" x1="-815.9" y1="579.59" x2="-815.09" y2="637.03" xlink:href="#linear-gradient-2"/><linearGradient id="linear-gradient-11" x1="-782.9" y1="579.12" x2="-782.09" y2="636.57" xlink:href="#linear-gradient-2"/><linearGradient id="linear-gradient-12" x1="-755.27" y1="578.73" x2="-754.46" y2="636.18" xlink:href="#linear-gradient-2"/><linearGradient id="linear-gradient-13" x1="-787.75" y1="575.55" x2="-787.66" y2="584.54" xlink:href="#linear-gradient-2"/><linearGradient id="linear-gradient-14" x1="-840.87" y1="616.97" x2="-836.12" y2="629.07" xlink:href="#linear-gradient"/><linearGradient id="linear-gradient-15" x1="-880.4" y1="581.89" x2="-833.45" y2="660.19" xlink:href="#linear-gradient-2"/><linearGradient id="linear-gradient-16" x1="-865.54" y1="572.98" x2="-818.59" y2="651.27" xlink:href="#linear-gradient-2"/><linearGradient id="linear-gradient-17" x1="-884.53" y1="584.37" x2="-837.59" y2="662.67" xlink:href="#linear-gradient-2"/><linearGradient id="linear-gradient-18" x1="-819.82" y1="648.15" x2="-863.46" y2="616.17" xlink:href="#linear-gradient-4"/><linearGradient id="linear-gradient-19" x1="-829.16" y1="599.67" x2="-857.24" y2="579.4" xlink:href="#linear-gradient-4"/><linearGradient id="linear-gradient-20" x1="-810.11" y1="634.91" x2="-853.75" y2="602.92" xlink:href="#linear-gradient-4"/><linearGradient id="linear-gradient-21" x1="-878.8" y1="563.78" x2="-849.97" y2="584.8" xlink:href="#linear-gradient-7"/><linearGradient id="linear-gradient-22" x1="-879.91" y1="579.45" x2="-841.83" y2="654.9" xlink:href="#linear-gradient-2"/><linearGradient id="linear-gradient-23" x1="-865.52" y1="572.19" x2="-827.44" y2="647.64" xlink:href="#linear-gradient-2"/><linearGradient id="linear-gradient-24" x1="-883.23" y1="581.13" x2="-845.15" y2="656.57" xlink:href="#linear-gradient-2"/><linearGradient id="linear-gradient-25" x1="-840.82" y1="617.07" x2="-836.06" y2="629.19" xlink:href="#linear-gradient"/><linearGradient id="linear-gradient-26" x1="-819.73" y1="648.32" x2="-863.46" y2="616.27" xlink:href="#linear-gradient-4"/><linearGradient id="linear-gradient-27" x1="-829.09" y1="599.74" x2="-857.23" y2="579.42" xlink:href="#linear-gradient-4"/><linearGradient id="linear-gradient-28" x1="-809.98" y1="635.03" x2="-853.72" y2="602.97" xlink:href="#linear-gradient-4"/></defs><path class="cls-1" d="M100.25,40.74a6.57,6.57,0,0,1-4.06-1.68,2,2,0,0,1-.69-1.5V0L85.76,4.12C90.1,5.67,90.1,7.25,90.1,7.25v7.64a19.69,19.69,0,0,0-11-.5,15.44,15.44,0,0,0-10.57,12,14.48,14.48,0,0,0,6,15.33c8,4.51,15.72-2.76,15.72-2.76V43Zm-20.35-2c-6.19-2.59-5.25-11.66-5.25-11.66,0-11.19,8.06-11.46,8.06-11.46a5.8,5.8,0,0,1,6.11,2.46,7.93,7.93,0,0,1,1.43,4.61V37.56C84.58,41.21,79.9,38.72,79.9,38.72Z" transform="translate(0 0)"/><path class="cls-1" d="M128.62,18.75c-5.42-6.62-14-4.63-14-4.63-15.38,4.26-11.14,19.82-11.14,19.82,2.39,7.19,8.43,8.82,12.62,9a15,15,0,0,0,8.73-2.27c5.66-3.6,6.8-9.19,6.8-13.06A14,14,0,0,0,128.62,18.75Zm-9.17,22.9s-8.67,1.55-10-12.4c0,0-1.38-10.1,4-13.26a5.2,5.2,0,0,1,3.52-.61c2,.37,5,1.8,7.07,6.95a21.1,21.1,0,0,1,1,11.85C124.36,37.46,122.85,41.08,119.45,41.65Z" transform="translate(0 0)"/><path class="cls-1" d="M133.62,17.42l11.24-10V16l10.92-1.38v3.21l-10.94-.69V34s.69,8.6,11.51,3.77c0,0-3.87,7.49-12.08,4.76a9,9,0,0,1-5.4-7.91V17.47Z" transform="translate(0 0)"/><path class="cls-1" d="M71.84,49.12v1.3h-.1a1.53,1.53,0,0,0-.54-.81,1.24,1.24,0,0,0-.81-.27,1,1,0,0,0-.7.24,1.15,1.15,0,0,0-.39.67,3.5,3.5,0,0,0-.12.86,3.64,3.64,0,0,0,.12.94.94.94,0,0,0,.42.59,1.28,1.28,0,0,0,.67.2.86.86,0,0,0,.27,0l.29-.07V52a1.07,1.07,0,0,0,0-.3s-.08-.07-.13-.12a.54.54,0,0,0-.22-.05h-.1v-.1h1.8v.1a.65.65,0,0,0-.29.05c-.08,0-.1.07-.13.14a.73.73,0,0,0,0,.25v.76a4.3,4.3,0,0,1-.74.25,4.12,4.12,0,0,1-.81.08,2.37,2.37,0,0,1-.89-.15,2.75,2.75,0,0,1-.62-.37,2.23,2.23,0,0,1-.42-.52,2,2,0,0,1-.19-.84,1.93,1.93,0,0,1,.59-1.43,2,2,0,0,1,1.48-.59,3.37,3.37,0,0,1,.49,0c.07,0,.22.05.39.12a1.11,1.11,0,0,0,.32.1.3.3,0,0,0,.15,0,.6.6,0,0,0,.13-.22h.12Z" transform="translate(0 0)"/><path class="cls-1" d="M76.87,51.63l-.15,1.31H73.44v-.1h.12a1.16,1.16,0,0,0,.28-.05.26.26,0,0,0,.09-.12.88.88,0,0,0,0-.35V49.88a1,1,0,0,0,0-.37.16.16,0,0,0-.12-.12.55.55,0,0,0-.25,0h-.12v-.1h2v.1h-.17a.82.82,0,0,0-.28,0s-.07.07-.12.12a1.3,1.3,0,0,0,0,.35v2.36a1.49,1.49,0,0,0,0,.37.28.28,0,0,0,.12.12.79.79,0,0,0,.32,0h.32a1.06,1.06,0,0,0,.5-.1,1,1,0,0,0,.34-.32,2.05,2.05,0,0,0,.27-.67h.13Z" transform="translate(0 0)"/><path class="cls-1" d="M80.24,49.17a1.85,1.85,0,0,1,1.46.51,1.89,1.89,0,0,1,.56,1.38,2.09,2.09,0,0,1-.41,1.26,2.07,2.07,0,0,1-3.11,0,2,2,0,0,1-.44-1.29,1.89,1.89,0,0,1,.56-1.38A1.74,1.74,0,0,1,80.24,49.17Zm0,.17a.86.86,0,0,0-.79.52,2.71,2.71,0,0,0-.22,1.23,2.34,2.34,0,0,0,.34,1.4.73.73,0,0,0,.67.32.77.77,0,0,0,.47-.14,1,1,0,0,0,.37-.57,4.24,4.24,0,0,0,0-2.12,1.12,1.12,0,0,0-.34-.52A.93.93,0,0,0,80.27,49.34Z" transform="translate(0 0)"/><path class="cls-1" d="M85.94,51a1.8,1.8,0,0,1,.74.29.85.85,0,0,1,.29.64.86.86,0,0,1-.34.69,1.92,1.92,0,0,1-1.21.32H83.55v-.1a.79.79,0,0,0,.34-.05.23.23,0,0,0,.12-.12.87.87,0,0,0,0-.37V49.86a.87.87,0,0,0,0-.37.3.3,0,0,0-.12-.13,1.1,1.1,0,0,0-.34,0v-.09h1.77a2.44,2.44,0,0,1,.91.12,1,1,0,0,1,.42.34.89.89,0,0,1,.15.5.63.63,0,0,1-.2.46A1.54,1.54,0,0,1,85.94,51Zm-1,.14v1.36a.25.25,0,0,0,.29.29.75.75,0,0,0,.69-.37A.74.74,0,0,0,86,52a1.06,1.06,0,0,0-.12-.47.66.66,0,0,0-.32-.3A1.26,1.26,0,0,0,84.93,51.11Zm0-.22a1,1,0,0,0,.56-.1,1.06,1.06,0,0,0,.3-.24.75.75,0,0,0,.1-.42.66.66,0,0,0-.1-.4.69.69,0,0,0-.27-.24,1.69,1.69,0,0,0-.59-.08Z" transform="translate(0 0)"/><path class="cls-1" d="M90.52,51.88H89.21l-.14.37a.85.85,0,0,0-.08.29.26.26,0,0,0,.12.22,1.5,1.5,0,0,0,.37.08v.1H88.25v-.1a.55.55,0,0,0,.32-.17,2.35,2.35,0,0,0,.32-.57l1.33-3h0l1.36,3.05a1.25,1.25,0,0,0,.32.54.44.44,0,0,0,.27.1v.1h-1.8v-.1h.08a.62.62,0,0,0,.29-.05s0-.07,0-.12a.2.2,0,0,0,0-.1,1.63,1.63,0,0,0-.08-.19Zm-.1-.2-.57-1.28-.56,1.28Z" transform="translate(0 0)"/><path class="cls-1" d="M96.78,51.63l-.15,1.31h-3.3v-.1h.12a1,1,0,0,0,.27-.05.28.28,0,0,0,.1-.12.88.88,0,0,0,0-.35V49.88a1,1,0,0,0,0-.37.18.18,0,0,0-.12-.12.55.55,0,0,0-.25,0h-.12v-.1h2v.1h-.18a.76.76,0,0,0-.27,0s-.07.07-.12.12a.88.88,0,0,0,0,.35v2.36a1,1,0,0,0,0,.37.23.23,0,0,0,.12.12.88.88,0,0,0,.35,0h.32a1,1,0,0,0,.49-.1,1,1,0,0,0,.35-.32,2.62,2.62,0,0,0,.27-.67h.12Z" transform="translate(0 0)"/><path class="cls-1" d="M103.29,49.22v1h-.1a1.42,1.42,0,0,0-.2-.5.82.82,0,0,0-.3-.24,1,1,0,0,0-.37-.05h-.27v2.88a1,1,0,0,0,0,.37.23.23,0,0,0,.12.12.55.55,0,0,0,.25,0h.12V53h-1.95v-.1h.13a.76.76,0,0,0,.27,0s.07-.07.12-.12a.85.85,0,0,0,0-.34V49.46h-.28a.79.79,0,0,0-.54.15,1.06,1.06,0,0,0-.29.64H100v-1h3.33Z" transform="translate(0 0)"/><path class="cls-1" d="M106,49.41v1.53h.08a.56.56,0,0,0,.51-.22,1.36,1.36,0,0,0,.2-.67h.1v2h-.1a1.19,1.19,0,0,0-.15-.52.54.54,0,0,0-.24-.27.94.94,0,0,0-.42-.07V52.2a1.54,1.54,0,0,0,0,.37.53.53,0,0,0,.1.12.55.55,0,0,0,.22.05h.22a1.26,1.26,0,0,0,.84-.25,1.3,1.3,0,0,0,.45-.74h.09l-.17,1.19h-3.23v-.1h.13a1.17,1.17,0,0,0,.27-.05.38.38,0,0,0,.1-.12,1.3,1.3,0,0,0,0-.35V49.88a1.16,1.16,0,0,0,0-.32.28.28,0,0,0-.1-.15.56.56,0,0,0-.3-.07h-.12v-.1h3.13v1.11h-.1a1.32,1.32,0,0,0-.22-.59.68.68,0,0,0-.42-.25,3,3,0,0,0-.57,0H106Z" transform="translate(0 0)"/><path class="cls-1" d="M113,49.12V50.4h-.1a1.26,1.26,0,0,0-.44-.77,1.2,1.2,0,0,0-.74-.27,1.27,1.27,0,0,0-.64.2,1,1,0,0,0-.42.52,2.27,2.27,0,0,0-.17.91,3.58,3.58,0,0,0,.12.91,1.15,1.15,0,0,0,.39.62,1.07,1.07,0,0,0,.7.22,1.37,1.37,0,0,0,.64-.15,2,2,0,0,0,.61-.54v.32a2,2,0,0,1-.64.47,1.92,1.92,0,0,1-.79.15,2.21,2.21,0,0,1-1.06-.25,1.58,1.58,0,0,1-.71-.69,1.81,1.81,0,0,1-.25-1,2.15,2.15,0,0,1,.27-1,2,2,0,0,1,.77-.74,2.09,2.09,0,0,1,1-.27,2.21,2.21,0,0,1,.84.17,1.1,1.1,0,0,0,.32.1.23.23,0,0,0,.14-.08.26.26,0,0,0,.08-.19H113Z" transform="translate(0 0)"/><path class="cls-1" d="M115.81,51.14V52.3a1.54,1.54,0,0,0,0,.37.46.46,0,0,0,.12.12.73.73,0,0,0,.25.05h.12v.1h-1.94v-.1h.12a1,1,0,0,0,.27-.05.38.38,0,0,0,.1-.12,1.3,1.3,0,0,0,0-.35V49.88a1.49,1.49,0,0,0,0-.37s-.05-.1-.12-.12a.55.55,0,0,0-.25,0h-.12v-.1h1.94v.1h-.12a.72.72,0,0,0-.27,0c-.05,0-.07.07-.12.12a.88.88,0,0,0,0,.35v1.06h1.31V49.86a1,1,0,0,0,0-.37.22.22,0,0,0-.12-.13.92.92,0,0,0-.25,0h-.12v-.09h2v.09h-.13a1.08,1.08,0,0,0-.27,0c-.05,0-.07.08-.12.13a.82.82,0,0,0,0,.34v2.44a1,1,0,0,0,0,.37.18.18,0,0,0,.12.12.66.66,0,0,0,.25.05h.12v.1h-1.95v-.1h.13a.76.76,0,0,0,.27-.05s.07-.07.12-.12a.85.85,0,0,0,0-.34V51.14Z" transform="translate(0 0)"/><path class="cls-1" d="M121,49.22l1.85,2.31v-1.6a.66.66,0,0,0-.1-.44.6.6,0,0,0-.44-.15v-.1h1.23v.1a1.59,1.59,0,0,0-.32.07.32.32,0,0,0-.13.15,1.35,1.35,0,0,0-.05.37V53H123l-2.52-3.11V52.3a.52.52,0,0,0,.15.44.62.62,0,0,0,.35.12h.09V53h-1.33v-.1a.62.62,0,0,0,.42-.12.57.57,0,0,0,.13-.42V49.68l-.08-.1a.82.82,0,0,0-.19-.19.63.63,0,0,0-.28,0v-.1H121Z" transform="translate(0 0)"/><path class="cls-1" d="M126.87,49.17a1.82,1.82,0,0,1,1.45.51,1.9,1.9,0,0,1,.57,1.38,2.1,2.1,0,0,1-.42,1.26,2.06,2.06,0,0,1-3.1,0,2,2,0,0,1-.45-1.29,1.9,1.9,0,0,1,.57-1.38A1.71,1.71,0,0,1,126.87,49.17Zm0,.17a.85.85,0,0,0-.78.52,2.71,2.71,0,0,0-.22,1.23,2.34,2.34,0,0,0,.34,1.4.72.72,0,0,0,.66.32.75.75,0,0,0,.47-.14.94.94,0,0,0,.37-.57,2.85,2.85,0,0,0,.13-1,3.14,3.14,0,0,0-.15-1.11,1.06,1.06,0,0,0-.35-.52A.9.9,0,0,0,126.89,49.34Z" transform="translate(0 0)"/><path class="cls-1" d="M133.6,51.63l-.15,1.31h-3.3v-.1h.12a1,1,0,0,0,.27-.05.28.28,0,0,0,.1-.12.88.88,0,0,0,0-.35V49.88a1,1,0,0,0,0-.37.18.18,0,0,0-.12-.12.55.55,0,0,0-.25,0h-.12v-.1h2v.1H132a.72.72,0,0,0-.27,0s-.07.07-.12.12a.88.88,0,0,0,0,.35v2.36a1,1,0,0,0,0,.37.23.23,0,0,0,.12.12.88.88,0,0,0,.35,0h.32a1,1,0,0,0,.49-.1.93.93,0,0,0,.34-.32,2.28,2.28,0,0,0,.28-.67h.12Z" transform="translate(0 0)"/><path class="cls-1" d="M137,49.17a1.83,1.83,0,0,1,1.45.51,1.9,1.9,0,0,1,.57,1.38,2.1,2.1,0,0,1-.42,1.26,2.07,2.07,0,0,1-3.11,0,2,2,0,0,1-.44-1.29,1.9,1.9,0,0,1,.57-1.38A1.69,1.69,0,0,1,137,49.17Zm0,.17a.86.86,0,0,0-.79.52,2.71,2.71,0,0,0-.22,1.23,2.34,2.34,0,0,0,.34,1.4.73.73,0,0,0,.67.32.77.77,0,0,0,.47-.14,1,1,0,0,0,.37-.57,2.87,2.87,0,0,0,.12-1,3.14,3.14,0,0,0-.15-1.11,1,1,0,0,0-.34-.52A.93.93,0,0,0,137,49.34Z" transform="translate(0 0)"/><path class="cls-1" d="M144.05,49.12v1.3H144a1.53,1.53,0,0,0-.54-.81,1.25,1.25,0,0,0-.82-.27,1,1,0,0,0-.69.24,1.15,1.15,0,0,0-.39.67,3.5,3.5,0,0,0-.12.86,3.64,3.64,0,0,0,.12.94.94.94,0,0,0,.42.59,1.28,1.28,0,0,0,.66.2.89.89,0,0,0,.28,0l.29-.07V52a1.07,1.07,0,0,0,0-.3s-.08-.07-.13-.12a.54.54,0,0,0-.22-.05h-.1v-.1h1.8v.1a.65.65,0,0,0-.29.05.26.26,0,0,0-.13.14.73.73,0,0,0,0,.25v.76a4.61,4.61,0,0,1-.74.25,4.15,4.15,0,0,1-.82.08,2.31,2.31,0,0,1-.88-.15,2.55,2.55,0,0,1-.62-.37,2.23,2.23,0,0,1-.42-.52,2,2,0,0,1-.19-.84,1.93,1.93,0,0,1,.59-1.43,2,2,0,0,1,1.48-.59,3.37,3.37,0,0,1,.49,0c.07,0,.22.05.39.12a1.11,1.11,0,0,0,.32.1.3.3,0,0,0,.15,0,.6.6,0,0,0,.13-.22h.12Z" transform="translate(0 0)"/><path class="cls-1" d="M147.57,52.84v.1h-1.95v-.1h.13a1,1,0,0,0,.27-.05.38.38,0,0,0,.1-.12,1.3,1.3,0,0,0,0-.35V49.88a1.49,1.49,0,0,0,0-.37s-.05-.1-.13-.12a.48.48,0,0,0-.24,0h-.13v-.1h1.95v.1h-.12a.72.72,0,0,0-.27,0c-.05,0-.08.07-.13.12a1.3,1.3,0,0,0,0,.35V52.3a1.54,1.54,0,0,0,0,.37.5.5,0,0,0,.13.12.73.73,0,0,0,.25.05Z" transform="translate(0 0)"/><path class="cls-1" d="M150.23,49.41v1.53h.08a.55.55,0,0,0,.51-.22,1.36,1.36,0,0,0,.2-.67h.1v2H151a1.35,1.35,0,0,0-.14-.52.55.55,0,0,0-.25-.27.91.91,0,0,0-.42-.07V52.2a1.54,1.54,0,0,0,0,.37.53.53,0,0,0,.1.12.6.6,0,0,0,.22.05h.23a1.21,1.21,0,0,0,1.28-1h.1L152,52.94h-3.22v-.1h.12a1.08,1.08,0,0,0,.27-.05.38.38,0,0,0,.1-.12,1.3,1.3,0,0,0,0-.35V49.88a1.16,1.16,0,0,0,0-.32.28.28,0,0,0-.1-.15.53.53,0,0,0-.3-.07h-.12v-.1h3.13v1.11h-.1a1.32,1.32,0,0,0-.22-.59.68.68,0,0,0-.42-.25,3,3,0,0,0-.57,0h-.32Z" transform="translate(0 0)"/><path class="cls-1" d="M156.07,49.12l0,1.23H156a1.24,1.24,0,0,0-.39-.77,1,1,0,0,0-.67-.29.59.59,0,0,0-.44.15.52.52,0,0,0-.18.34.79.79,0,0,0,.05.22,1,1,0,0,0,.25.25l.59.32a2.48,2.48,0,0,1,.89.62,1.05,1.05,0,0,1,.22.66,1.07,1.07,0,0,1-.37.82A1.32,1.32,0,0,1,155,53a1.47,1.47,0,0,1-.31,0l-.4-.13a2,2,0,0,0-.22,0,.44.44,0,0,0-.15,0,.3.3,0,0,0-.12.18h-.1V51.63h.1a1.62,1.62,0,0,0,.47.91,1.08,1.08,0,0,0,.73.32.71.71,0,0,0,.5-.17.53.53,0,0,0,.17-.39.41.41,0,0,0-.07-.25,1.28,1.28,0,0,0-.23-.25,3.6,3.6,0,0,0-.51-.29,8,8,0,0,1-.74-.42,1.31,1.31,0,0,1-.35-.4,1,1,0,0,1-.12-.46,1,1,0,0,1,.32-.77,1.18,1.18,0,0,1,.81-.32,1.73,1.73,0,0,1,.35,0l.32.12a1.17,1.17,0,0,0,.27.1c.05,0,.07,0,.12,0s.05-.1.08-.22h.14Z" transform="translate(0 0)"/><path class="cls-1" d="M156.35,45.94H68.19v.81h88.16Z" transform="translate(0 0)"/><path class="cls-2" d="M60.28,7a2.84,2.84,0,1,0-2.83-2.83A2.84,2.84,0,0,0,60.28,7Z" transform="translate(0 0)"/><path class="cls-1" d="M56.88,16.29c-6.46,6.56-18,16.17-32.63,19l.32-.13.12,0s.08,0,.13,0a1.07,1.07,0,0,0,.27-.12s0,0,.05,0l.07,0s.05,0,.08-.05a.14.14,0,0,0,.09,0s0,0,.05,0h0s.05,0,.05,0l.19-.07s.08,0,.13-.05.32-.15.52-.22l.29-.15.49-.22.32-.15.37-.17a1.25,1.25,0,0,1,.27-.12,3.73,3.73,0,0,1,.4-.2,1.19,1.19,0,0,1,.25-.13s0,0,.09,0a1.2,1.2,0,0,1,.28-.13h0s0,0,.05,0,.27-.13.39-.2l.15-.07c.12-.08.25-.13.37-.2a1,1,0,0,1,.25-.12,1.41,1.41,0,0,1,.24-.13l.13-.07.14-.07.33-.18.17-.1a.1.1,0,0,0,.07-.05l.35-.19.12-.08.1-.05a.4.4,0,0,0,.15-.09l.24-.15.18-.1s0,0,0,0L33,31l.28-.15.27-.14s0,0,.07-.05a1,1,0,0,0,.27-.17l.17-.1.28-.15c.17-.1.34-.2.51-.32l.18-.1a2.32,2.32,0,0,1,.46-.27.35.35,0,0,1,.08-.05s.05,0,.07-.05c.64-.39,1.31-.81,2-1.26a.35.35,0,0,0,.08-.05c.19-.12.39-.27.59-.39,0,0,0,0,.07-.05s0,0,0,0a7.24,7.24,0,0,1,.61-.42l0,0,0,0,.64-.45.2-.14a1.3,1.3,0,0,1,.15-.1,1.73,1.73,0,0,0,.2-.15c.19-.12.36-.27.54-.39l.12-.08s0,0,0,0,0,0,0,0l.55-.39,0,0a.35.35,0,0,0,.08-.05.23.23,0,0,1,.09-.07.35.35,0,0,0,.08,0s0,0,.07-.05l.32-.25c.17-.14.35-.27.54-.41,0,0,0-.05.08-.05h0l0,0a0,0,0,0,0,0,0l.84-.67a.19.19,0,0,0,.1-.1c.29-.24.61-.49.91-.76s.42-.37.64-.57a.92.92,0,0,1,.25-.19s.07-.05.1-.1c.29-.27.59-.52.88-.82l.05,0,0,0,.1-.1c.14-.15.29-.27.44-.42l.17-.17.32-.32.1-.1c.22-.2.42-.42.64-.64a.87.87,0,0,0,.13-.15l0,0,.07-.08c.15-.14.3-.32.45-.46l0,0s0-.07.08-.1l0,0,.29-.29c.15-.15.27-.3.4-.45a.68.68,0,0,1,.17-.17c.05-.07.12-.12.17-.2l0,0c.14-.17.29-.32.44-.49l.49-.6c.25-.29.49-.61.72-.91l.07-.1a.83.83,0,0,0,.12-.17c.27-.34.52-.69.79-1.06l0,0A.29.29,0,0,1,53,14a2.55,2.55,0,0,0,.27-.4c.12-.17.25-.37.4-.56s.07-.1.09-.15,0-.07.08-.1,0,0,0-.05l.37-.57c0-.09.13-.17.18-.27a1.19,1.19,0,0,1,.17-.27l.12-.19a5.24,5.24,0,0,0,.32-.57,1.86,1.86,0,0,0,.1-.2,28,28,0,0,0-3-2.88c-2.07,2.83-16.42,21.46-40.84,26a59.71,59.71,0,0,1-10.77,1H0s3.65,3.13,12.3,2.46a26.1,26.1,0,0,0,8.33,10.75C42.31,39.46,53.77,25.14,59,16.71a43.13,43.13,0,0,0,3.52-6.78A66.56,66.56,0,0,1,58.09,15C57.72,15.45,57.32,15.87,56.88,16.29Z" transform="translate(0 0)"/><path class="cls-3" d="M44.46,38.89A61.92,61.92,0,0,1,24.84,50.45,70.6,70.6,0,0,1,16.39,53a38.69,38.69,0,0,0,11.24-1.35A56.75,56.75,0,0,0,37.88,48a68.54,68.54,0,0,0,13.46-8.31S44.9,48.13,36.45,53a25.49,25.49,0,0,0,23.24-34.5A58.85,58.85,0,0,1,44.46,38.89Z" transform="translate(0 0)"/><path class="cls-4" d="M10.45,29.28a76.9,76.9,0,0,0,34.4-17.23s0,0,0-.05a58.9,58.9,0,0,0,5.75-5.3A44.59,44.59,0,0,0,55.8.15a51.55,51.55,0,0,1-7.08,5.32,66.67,66.67,0,0,1-8.87,4.73,56.53,56.53,0,0,1-6.58,2.44,65.89,65.89,0,0,1-7.2,1.78,57.69,57.69,0,0,1-8.45.91A87.19,87.19,0,0,0,31.55,9.54,58.71,58.71,0,0,0,42,2.74a21.69,21.69,0,0,0-2.27-.45A28.32,28.32,0,0,0,35.88,2,25.48,25.48,0,0,0,10.4,27.5c0,.3,0,.62,0,.91A5.1,5.1,0,0,0,10.45,29.28Z" transform="translate(0 0)"/><path class="cls-5" d="M17.62,15.3a55.08,55.08,0,0,0,8.45-.91,61.62,61.62,0,0,0,7.2-1.77,67,67,0,0,0,6.58-2.44,66.57,66.57,0,0,0,8.87-4.73A25.72,25.72,0,0,0,42,2.71a61,61,0,0,1-10.4,6.8A86.08,86.08,0,0,1,17.62,15.3Z" transform="translate(0 0)"/><path class="cls-6" d="M51.33,39.65A66.81,66.81,0,0,1,37.88,48a59.16,59.16,0,0,1-10.25,3.65,25.88,25.88,0,0,0,6.65,1.3c.52,0,1.06.05,1.58.05h.59C44.9,48.11,51.33,39.65,51.33,39.65Z" transform="translate(0 0)"/><path class="cls-7" d="M56.76,12.89A27.3,27.3,0,0,0,55,10.62a.71.71,0,0,1-.12.2c-.1.2-.22.37-.32.57l-.12.19a1.16,1.16,0,0,1-.18.27,1.53,1.53,0,0,1-.17.27c-.12.2-.25.4-.37.57s0,0,0,.05l-.08.1a1.3,1.3,0,0,1-.1.15,6.31,6.31,0,0,1-.39.56,4,4,0,0,0-.27.4s-.05.07-.08.1l0,0c-.25.35-.52.72-.79,1.06-.05,0-.07.1-.12.15s0,.07-.08.1c-.24.29-.46.61-.71.91l-.49.59c-.15.17-.3.35-.45.49l0,0c0,.07-.13.12-.17.2a1,1,0,0,1-.18.17c-.12.15-.27.29-.39.44l-.3.3,0,0a.29.29,0,0,0-.07.1l0,0-.45.47-.07.07,0,0a.53.53,0,0,0-.12.15c-.2.22-.42.41-.64.64l-.1.09-.32.32-.17.18q-.22.23-.45.42l-.09.09,0,0,0,0c-.29.27-.59.54-.89.79a.3.3,0,0,0-.09.1,1.18,1.18,0,0,1-.25.19l-.64.57c-.3.25-.59.52-.91.76,0,0-.08.05-.1.1l-.84.67a0,0,0,0,0,0,0l0,0h0s-.05.05-.08.05l-.54.42-.32.24s0,.05-.07.05a.35.35,0,0,1-.08.05.2.2,0,0,1-.1.07s0,0-.07.05l0,0-.54.39s0,0,0,0l0,0-.12.08c-.18.14-.37.27-.55.39a1.57,1.57,0,0,0-.19.15,1.3,1.3,0,0,0-.15.1l-.2.14-.64.45,0,0,0,0c-.2.15-.39.27-.62.42a0,0,0,0,0,0,0s0,0-.07.05c-.2.12-.4.27-.6.39,0,0,0,0-.07.05-.66.45-1.33.87-2,1.26l-.07.05a.35.35,0,0,0-.08.05,2.4,2.4,0,0,1-.47.27l-.17.1c-.17.1-.34.22-.52.32l-.27.15-.17.1a.83.83,0,0,0-.27.17.35.35,0,0,0-.08.05l-.27.15c-.1,0-.17.09-.27.14l-.37.23s0,0,0,0l-.17.1-.25.15a.55.55,0,0,0-.14.09s-.05,0-.1.05l-.13.08a2.77,2.77,0,0,0-.34.2.1.1,0,0,0-.07,0c-.08,0-.13.08-.18.1l-.32.18-.15.07-.12.07a1.41,1.41,0,0,1-.24.13,1.13,1.13,0,0,1-.25.12c-.12.07-.25.12-.37.2l-.15.07a3.6,3.6,0,0,1-.39.2s0,0-.05,0h0a1.66,1.66,0,0,1-.27.13l-.1,0a1.07,1.07,0,0,0-.24.12c-.13.07-.27.12-.4.2a1.59,1.59,0,0,1-.27.12l-.37.17L27,34c-.49.25-.94.44-1.3.62a1,1,0,0,1-.13,0l-.2.08a.07.07,0,0,0,0,0h0s0,0-.05,0-.07,0-.1.05-.05,0-.07,0l-.07,0s0,0,0,0-.2.07-.28.12a2.08,2.08,0,0,1-.24.1l-.3.12c14.59-2.86,26.18-12.47,32.63-19,.42-.45.84-.87,1.21-1.26A8.78,8.78,0,0,0,56.76,12.89Z" transform="translate(0 0)"/><path class="cls-8" d="M51.36,39.6a68.34,68.34,0,0,1-13.48,8.33A56.7,56.7,0,0,1,27.6,51.58a25.8,25.8,0,0,0,6.66,1.31c.51,0,1.06,0,1.57,0h.6C44.93,48.11,51.36,39.6,51.36,39.6Z" transform="translate(0 0)"/><path class="cls-1" d="M56.93,16.22c-6.46,6.55-18.07,16.19-32.7,19.07l.32-.12.12-.05s.07,0,.12,0a1.31,1.31,0,0,0,.27-.12s0,0,.05,0l.08,0s0,0,.07,0a.24.24,0,0,0,.1-.05s0,0,.05,0h0a.08.08,0,0,0,.05,0l.2-.08s.07,0,.12,0l.52-.23.3-.14c.14-.08.32-.15.49-.25l.32-.15.37-.17a1.07,1.07,0,0,1,.27-.12,3.55,3.55,0,0,1,.39-.2,1.13,1.13,0,0,1,.25-.12s.05,0,.1,0a1,1,0,0,1,.27-.13h0s0,0,0,0,.28-.12.4-.2l.15-.07c.12-.08.24-.13.37-.2a.9.9,0,0,1,.24-.12l.25-.13.12-.07.15-.07c.1,0,.2-.13.32-.18l.17-.1s.05,0,.08,0l.34-.2.13-.08s0,0,.09,0a.65.65,0,0,0,.15-.1l.25-.15.17-.1s0,0,0,0L33,31l.27-.14.27-.15a.35.35,0,0,1,.08-.05,1.53,1.53,0,0,0,.27-.17l.17-.1.27-.15c.17-.1.35-.2.52-.32l.17-.1a5.35,5.35,0,0,1,.47-.29s.05,0,.07-.05a.35.35,0,0,1,.08-.05c.64-.4,1.3-.82,2-1.26,0,0,0,0,.07-.05.2-.12.4-.27.59-.39a.35.35,0,0,1,.08-.05s0,0,0,0c.2-.15.4-.27.62-.42l0,0,0,0c.22-.14.42-.29.64-.44.07-.05.12-.1.2-.15a1.21,1.21,0,0,0,.14-.1,1.15,1.15,0,0,0,.2-.14c.2-.13.37-.28.54-.4l.13-.07s0,0,0,0,0,0,0,0l.54-.4,0,0s.05,0,.07-.05a.43.43,0,0,1,.1-.07s.05,0,.07,0a.35.35,0,0,1,.08-.05,3.49,3.49,0,0,0,.32-.25c.17-.15.34-.27.54-.42,0,0,.05,0,.07,0h0l0,0a0,0,0,0,0,0,0l.84-.66a.22.22,0,0,0,.09-.1c.3-.25.62-.49.92-.76s.42-.37.64-.57a.78.78,0,0,1,.24-.2.24.24,0,0,0,.1-.1l.89-.81,0-.05,0,0,.1-.1a5.76,5.76,0,0,1,.45-.42l.17-.17.32-.32.1-.1c.22-.2.42-.42.64-.64a.53.53,0,0,0,.12-.15l0,0,.07-.07c.15-.15.29-.32.44-.47l0,0,.07-.1,0-.05.3-.3.42-.44a.68.68,0,0,1,.17-.17c.05-.08.12-.13.17-.2l0,0c.14-.18.29-.33.44-.5s.32-.39.49-.59.49-.62.72-.91l.07-.1a1.25,1.25,0,0,0,.12-.17c.27-.35.55-.69.79-1.06l0,0a.23.23,0,0,1,.07-.09,4,4,0,0,0,.27-.4c.12-.17.25-.37.4-.57s.07-.09.09-.14,0-.08.08-.1,0,0,0-.05c.13-.2.25-.4.37-.57s.13-.17.18-.27a1,1,0,0,1,.17-.27c0-.07.07-.12.12-.2a5.09,5.09,0,0,0,.32-.56c0-.08.08-.13.1-.2a23.52,23.52,0,0,0-3-2.89c-2.07,2.86-16.46,21.52-40.93,26a60.06,60.06,0,0,1-10.8,1H0s3.67,3.13,12.32,2.47a25.63,25.63,0,0,0,6.36,9.12c.64.59,1.31,1.13,2,1.65C42.39,39.43,53.9,25.09,59.1,16.64a46.88,46.88,0,0,0,3.55-6.81A65,65,0,0,1,58.24,15C57.77,15.35,57.35,15.8,56.93,16.22Z" transform="translate(0 0)"/><path class="cls-1" d="M44.46,38.86A62.57,62.57,0,0,1,24.79,50.45,71.11,71.11,0,0,1,16.31,53a38.9,38.9,0,0,0,11.27-1.35A59.9,59.9,0,0,0,37.85,48a68.52,68.52,0,0,0,13.48-8.33S44.9,48.11,36.42,53A25.55,25.55,0,0,0,59.71,18.38,58.7,58.7,0,0,1,44.46,38.86Z" transform="translate(0 0)"/><path class="cls-1" d="M10.38,29.23A77.13,77.13,0,0,0,44.85,12s0,0,0-.05A58,58,0,0,0,50.64,6.6,42.84,42.84,0,0,0,55.8,0a48.84,48.84,0,0,1-7.1,5.33,63.28,63.28,0,0,1-8.9,4.73,65.13,65.13,0,0,1-6.58,2.46A65.89,65.89,0,0,1,26,14.32a57.67,57.67,0,0,1-8.47.91,86.16,86.16,0,0,0,14-5.82A60.27,60.27,0,0,0,42,2.61c-.74-.17-1.51-.34-2.27-.44a28.39,28.39,0,0,0-3.82-.3A25.54,25.54,0,0,0,10.33,27.4c0,.3,0,.62,0,.92A9,9,0,0,0,10.38,29.23Z" transform="translate(0 0)"/><path class="cls-9" d="M60.33,6.93a2.86,2.86,0,1,0-2.86-2.86A2.86,2.86,0,0,0,60.33,6.93Z" transform="translate(0 0)"/><path class="cls-1" d="M17.57,15.23a58.26,58.26,0,0,0,8.48-.91,58.74,58.74,0,0,0,7.2-1.78,65.13,65.13,0,0,0,6.58-2.46,65.78,65.78,0,0,0,8.89-4.73A25.06,25.06,0,0,0,42,2.61a58.4,58.4,0,0,1-10.43,6.8A85.18,85.18,0,0,1,17.57,15.23Z" transform="translate(0 0)"/><path class="cls-1" d="M51.38,39.6A68,68,0,0,1,37.9,47.93a56.9,56.9,0,0,1-10.27,3.65,25.72,25.72,0,0,0,6.65,1.31c.52,0,1.06,0,1.58,0h.59C44.93,48.11,51.38,39.6,51.38,39.6Z" transform="translate(0 0)"/><path class="cls-10" d="M56.81,12.82A23.1,23.1,0,0,0,55,10.55a.67.67,0,0,1-.12.19c-.1.2-.22.37-.32.57l-.12.2a1.41,1.41,0,0,1-.18.27c0,.1-.12.17-.17.27s-.25.4-.37.57,0,0,0,.05,0,.07-.08.1a1.21,1.21,0,0,1-.1.14,6.42,6.42,0,0,1-.39.57,3,3,0,0,0-.27.39s0,.08-.08.1l0,0c-.25.34-.52.71-.79,1.06,0,0-.07.1-.12.15s-.05.07-.08.09c-.24.3-.46.62-.71.92s-.32.39-.49.59-.3.34-.45.49l0,0c-.05.07-.13.12-.17.19a.74.74,0,0,1-.18.17,5.76,5.76,0,0,1-.42.45l-.29.29,0,.05s-.05.08-.08.1l0,0c-.15.14-.3.32-.44.46l-.08.08,0,0a.87.87,0,0,0-.13.15c-.19.22-.41.42-.64.64l-.09.1-.33.32-.17.17a5.68,5.68,0,0,1-.44.42l-.1.1,0,0-.05,0-.89.81a.24.24,0,0,0-.1.1,1,1,0,0,1-.25.19l-.64.57c-.29.25-.61.52-.91.76,0,0-.07.05-.1.1-.27.23-.56.45-.84.67a0,0,0,0,0,0,0l0,0h0s0,.05-.07.05c-.18.15-.35.27-.55.42l-.32.24s0,.05-.07.05-.05,0-.07.05l-.1.08-.08,0,0,0-.54.39s0,0,0,0l0,0-.12.08c-.17.14-.37.27-.54.39a1.15,1.15,0,0,0-.2.15,1.3,1.3,0,0,0-.15.1l-.19.15c-.23.14-.42.29-.65.44l0,0,0,0c-.2.15-.4.27-.62.42,0,0,0,0,0,0s0,0-.07,0c-.2.12-.39.27-.59.4a.1.1,0,0,0-.07,0c-.67.45-1.34.87-2,1.26,0,0-.05,0-.07,0s0,0-.07.05a2.73,2.73,0,0,1-.47.27l-.17.1c-.18.1-.35.22-.52.32l-.27.15-.18.1a1.53,1.53,0,0,0-.27.17s0,0-.07.05l-.27.15-.27.14-.37.23s0,0-.05,0l-.17.1L32,31.4a.44.44,0,0,0-.15.1s-.05,0-.1.05l-.12.07a2.91,2.91,0,0,0-.35.2s0,0-.07.05A1.31,1.31,0,0,0,31,32l-.32.18-.15.07-.12.07-.25.13a.82.82,0,0,1-.25.12l-.37.2-.14.07a3,3,0,0,1-.4.2L29,33h0a1.66,1.66,0,0,1-.27.13l-.1.05c-.1,0-.17.07-.25.12s-.27.12-.39.2a1.25,1.25,0,0,1-.27.12l-.37.17L27,34c-.5.25-.94.44-1.31.62,0,0-.07,0-.12.05l-.2.07a.08.08,0,0,0-.05,0h0s0,0-.05,0-.08,0-.1,0a.35.35,0,0,0-.08.05l-.07,0s0,0,0,0a2.38,2.38,0,0,0-.27.12l-.25.1a2.53,2.53,0,0,0-.29.12c14.61-2.86,26.24-12.49,32.7-19.07.42-.45.84-.87,1.23-1.26A13.57,13.57,0,0,0,56.81,12.82Z" transform="translate(0 0)"/><path class="cls-11" d="M100.25,40.74a6.57,6.57,0,0,1-4.06-1.68,2,2,0,0,1-.69-1.5V0L85.76,4.12C90.1,5.67,90.1,7.25,90.1,7.25v7.64a19.69,19.69,0,0,0-11-.5,15.44,15.44,0,0,0-10.57,12,14.48,14.48,0,0,0,6,15.33c8,4.51,15.72-2.76,15.72-2.76V43Zm-20.35-2c-6.19-2.59-5.25-11.66-5.25-11.66,0-11.19,8.06-11.46,8.06-11.46a5.8,5.8,0,0,1,6.11,2.46,7.93,7.93,0,0,1,1.43,4.61V37.56C84.58,41.21,79.9,38.72,79.9,38.72Z" transform="translate(0 0)"/><path class="cls-12" d="M128.62,18.75c-5.42-6.63-14-4.63-14-4.63-15.38,4.26-11.14,19.82-11.14,19.82,2.39,7.19,8.43,8.82,12.62,9a14.9,14.9,0,0,0,8.72-2.27c5.67-3.6,6.81-9.19,6.81-13.06A14,14,0,0,0,128.62,18.75Zm-9.17,22.9s-8.67,1.55-10-12.4c0,0-1.38-10.1,4-13.26a5.19,5.19,0,0,1,3.52-.61c2,.37,5,1.8,7.07,6.95a21.1,21.1,0,0,1,1,11.85C124.36,37.46,122.85,41.08,119.45,41.65Z" transform="translate(0 0)"/><path class="cls-13" d="M133.62,17.42l11.24-10V16l10.92-1.38v3.21l-10.94-.69V34s.69,8.6,11.51,3.77c0,0-3.87,7.49-12.08,4.76a9,9,0,0,1-5.4-7.91V17.47Z" transform="translate(0 0)"/><path class="cls-14" d="M71.84,49.12v1.3h-.1a1.53,1.53,0,0,0-.54-.81,1.25,1.25,0,0,0-.82-.27.94.94,0,0,0-.69.25,1.09,1.09,0,0,0-.39.66,3.5,3.5,0,0,0-.12.86,3.64,3.64,0,0,0,.12.94.94.94,0,0,0,.42.59,1.28,1.28,0,0,0,.66.2.89.89,0,0,0,.28,0l.29-.07V52a1.07,1.07,0,0,0,0-.3s-.08-.07-.13-.12a.54.54,0,0,0-.22-.05h-.1v-.1h1.8v.1a.65.65,0,0,0-.29.05c-.08,0-.1.07-.13.14a.73.73,0,0,0,0,.25v.77a5.31,5.31,0,0,1-.74.24,4.12,4.12,0,0,1-.81.08,2.37,2.37,0,0,1-.89-.15,2.75,2.75,0,0,1-.62-.37,2.23,2.23,0,0,1-.42-.52,2,2,0,0,1-.19-.84,1.93,1.93,0,0,1,.59-1.43,2,2,0,0,1,1.48-.59,3.37,3.37,0,0,1,.49,0c.07,0,.22.05.39.12a1.11,1.11,0,0,0,.32.1.3.3,0,0,0,.15,0,.6.6,0,0,0,.13-.22h.12Z" transform="translate(0 0)"/><path class="cls-14" d="M76.87,51.63l-.15,1.31H73.44v-.1h.12a1.16,1.16,0,0,0,.28-.05.27.27,0,0,0,.09-.12.88.88,0,0,0,0-.35V49.88a1,1,0,0,0,0-.37.18.18,0,0,0-.12-.12.55.55,0,0,0-.25,0h-.12v-.1h2v.1h-.17a.82.82,0,0,0-.28,0s-.07.07-.12.12a1.3,1.3,0,0,0,0,.35v2.36a1.49,1.49,0,0,0,0,.37.37.37,0,0,0,.12.13,1.16,1.16,0,0,0,.32,0h.32a1,1,0,0,0,.5-.1,1,1,0,0,0,.34-.32,2.08,2.08,0,0,0,.27-.66h.13Z" transform="translate(0 0)"/><path class="cls-14" d="M80.24,49.17a1.85,1.85,0,0,1,1.46.51,1.89,1.89,0,0,1,.56,1.38,2.09,2.09,0,0,1-.41,1.26,2.07,2.07,0,0,1-3.11,0,2,2,0,0,1-.44-1.29,1.89,1.89,0,0,1,.56-1.38A1.74,1.74,0,0,1,80.24,49.17Zm0,.17a.86.86,0,0,0-.79.52,2.71,2.71,0,0,0-.22,1.23,2.34,2.34,0,0,0,.34,1.4.73.73,0,0,0,.67.32.79.79,0,0,0,.47-.14,1,1,0,0,0,.37-.57,4.24,4.24,0,0,0,0-2.12,1.12,1.12,0,0,0-.34-.52A1,1,0,0,0,80.27,49.34Z" transform="translate(0 0)"/><path class="cls-14" d="M85.94,51a1.8,1.8,0,0,1,.74.29.85.85,0,0,1,.29.64.86.86,0,0,1-.34.69,1.94,1.94,0,0,1-1.21.32H83.55v-.1a.79.79,0,0,0,.34-.05.23.23,0,0,0,.12-.12.87.87,0,0,0,0-.37V49.86a.87.87,0,0,0,0-.37.3.3,0,0,0-.12-.13,1.1,1.1,0,0,0-.34,0v-.09h1.77a2.44,2.44,0,0,1,.91.12,1,1,0,0,1,.42.34.89.89,0,0,1,.15.5.67.67,0,0,1-.2.46A1.54,1.54,0,0,1,85.94,51Zm-1,.14v1.36a.25.25,0,0,0,.29.29.75.75,0,0,0,.69-.37A.74.74,0,0,0,86,52a1.06,1.06,0,0,0-.12-.47.66.66,0,0,0-.32-.3A1.26,1.26,0,0,0,84.93,51.11Zm0-.22a1,1,0,0,0,.56-.1,1.06,1.06,0,0,0,.3-.24.75.75,0,0,0,.1-.42.66.66,0,0,0-.1-.4.69.69,0,0,0-.27-.24,1.69,1.69,0,0,0-.59-.08Z" transform="translate(0 0)"/><path class="cls-14" d="M90.52,51.88H89.21l-.14.37a.85.85,0,0,0-.08.29.25.25,0,0,0,.12.22,1.5,1.5,0,0,0,.37.08v.1H88.25v-.1a.55.55,0,0,0,.32-.17,2.35,2.35,0,0,0,.32-.57l1.33-3h0l1.36,3.05a1.38,1.38,0,0,0,.32.55.51.51,0,0,0,.27.09v.1h-1.8v-.1h.07a.64.64,0,0,0,.3-.05s0-.07,0-.12a.2.2,0,0,0,0-.1,1.63,1.63,0,0,0-.08-.19Zm-.1-.2-.57-1.28-.56,1.28Z" transform="translate(0 0)"/><path class="cls-14" d="M96.78,51.63l-.15,1.31h-3.3v-.1h.12a1,1,0,0,0,.27-.05.23.23,0,0,0,.1-.12.88.88,0,0,0,0-.35V49.88a1,1,0,0,0,0-.37.18.18,0,0,0-.12-.12.55.55,0,0,0-.25,0h-.12v-.1h2v.1h-.18a.76.76,0,0,0-.27,0s-.07.07-.12.12a.88.88,0,0,0,0,.35v2.36a1,1,0,0,0,0,.37.3.3,0,0,0,.12.13,1.3,1.3,0,0,0,.35,0h.32a.89.89,0,0,0,.49-.1,1,1,0,0,0,.35-.32,2.69,2.69,0,0,0,.27-.66h.12Z" transform="translate(0 0)"/><path class="cls-14" d="M103.29,49.22v1h-.1a1.42,1.42,0,0,0-.2-.5.82.82,0,0,0-.3-.24,1,1,0,0,0-.37-.05h-.27v2.88a1,1,0,0,0,0,.37.23.23,0,0,0,.12.12.55.55,0,0,0,.25,0h.12V53h-1.95v-.1h.13a.72.72,0,0,0,.27,0s.07-.07.12-.12a.85.85,0,0,0,0-.34V49.46h-.27a.8.8,0,0,0-.55.15,1.06,1.06,0,0,0-.29.64H100v-1h3.33Z" transform="translate(0 0)"/><path class="cls-14" d="M106,49.41v1.53h.07a.57.57,0,0,0,.52-.22,1.36,1.36,0,0,0,.2-.67h.1v2h-.1a1.19,1.19,0,0,0-.15-.52.59.59,0,0,0-.24-.27.94.94,0,0,0-.42-.07V52.2a1.54,1.54,0,0,0,0,.37.53.53,0,0,0,.1.12.42.42,0,0,0,.22.05h.22a1.26,1.26,0,0,0,.84-.25,1.24,1.24,0,0,0,.44-.74h.1l-.17,1.19h-3.23v-.1h.13a1.17,1.17,0,0,0,.27-.05.29.29,0,0,0,.1-.12,1.3,1.3,0,0,0,0-.35V49.88a1.16,1.16,0,0,0,0-.32.28.28,0,0,0-.1-.15.56.56,0,0,0-.3-.07h-.12v-.1h3.13v1.11h-.1a1.32,1.32,0,0,0-.22-.59.68.68,0,0,0-.42-.25,3,3,0,0,0-.57,0H106Z" transform="translate(0 0)"/><path class="cls-14" d="M113,49.12V50.4h-.1a1.26,1.26,0,0,0-.44-.77,1.2,1.2,0,0,0-.74-.27,1.27,1.27,0,0,0-.64.2,1,1,0,0,0-.42.52,2.27,2.27,0,0,0-.17.91,3.58,3.58,0,0,0,.12.91,1.15,1.15,0,0,0,.39.62,1.06,1.06,0,0,0,.69.22,1.38,1.38,0,0,0,.65-.15,2,2,0,0,0,.61-.54v.32a2,2,0,0,1-.64.47,1.92,1.92,0,0,1-.79.15,2.21,2.21,0,0,1-1.06-.25,1.58,1.58,0,0,1-.71-.69,1.91,1.91,0,0,1-.25-1,2.15,2.15,0,0,1,.27-1,2,2,0,0,1,.77-.74,2.09,2.09,0,0,1,1-.27,2.13,2.13,0,0,1,.83.17,1.23,1.23,0,0,0,.33.1.23.23,0,0,0,.14-.08.26.26,0,0,0,.08-.19H113Z" transform="translate(0 0)"/><path class="cls-14" d="M115.81,51.14V52.3a1.54,1.54,0,0,0,0,.37.34.34,0,0,0,.12.12.73.73,0,0,0,.25.05h.12v.1h-1.94v-.1h.12a1,1,0,0,0,.27-.05.38.38,0,0,0,.1-.12,1.3,1.3,0,0,0,0-.35V49.88a1.49,1.49,0,0,0,0-.37s-.05-.1-.12-.12a.55.55,0,0,0-.25,0h-.12v-.1h1.94v.1h-.12a.72.72,0,0,0-.27,0c-.05,0-.08.07-.12.12a.88.88,0,0,0,0,.35v1.06h1.31V49.86a1,1,0,0,0,0-.37.22.22,0,0,0-.12-.13.85.85,0,0,0-.25,0h-.12v-.09h2v.09h-.13a1.08,1.08,0,0,0-.27,0c-.05,0-.07.08-.12.13a.82.82,0,0,0,0,.34v2.44a1,1,0,0,0,0,.37.18.18,0,0,0,.12.12.66.66,0,0,0,.25.05h.12v.1h-1.95v-.1h.13a.72.72,0,0,0,.27-.05s.07-.07.12-.12a.85.85,0,0,0,0-.34V51.14Z" transform="translate(0 0)"/><path class="cls-14" d="M121,49.22l1.85,2.31v-1.6a.66.66,0,0,0-.1-.44.6.6,0,0,0-.44-.15v-.1h1.23v.1a1.59,1.59,0,0,0-.32.07.32.32,0,0,0-.13.15,1.46,1.46,0,0,0,0,.37V53H123l-2.52-3.11V52.3a.52.52,0,0,0,.15.44.62.62,0,0,0,.35.12h.09V53h-1.33v-.1a.62.62,0,0,0,.42-.12.57.57,0,0,0,.13-.42V49.68l-.08-.09a.61.61,0,0,0-.2-.2.53.53,0,0,0-.27,0v-.1H121Z" transform="translate(0 0)"/><path class="cls-14" d="M126.87,49.17a1.83,1.83,0,0,1,1.45.51,1.9,1.9,0,0,1,.57,1.38,2.1,2.1,0,0,1-.42,1.26,2.06,2.06,0,0,1-3.1,0,2,2,0,0,1-.45-1.29,1.9,1.9,0,0,1,.57-1.38A1.71,1.71,0,0,1,126.87,49.17Zm0,.17a.85.85,0,0,0-.79.52,2.69,2.69,0,0,0-.23,1.23,2.33,2.33,0,0,0,.35,1.4.73.73,0,0,0,.67.32.74.74,0,0,0,.46-.14.94.94,0,0,0,.37-.57,2.85,2.85,0,0,0,.13-1,3.14,3.14,0,0,0-.15-1.11,1.06,1.06,0,0,0-.35-.52A.89.89,0,0,0,126.9,49.34Z" transform="translate(0 0)"/><path class="cls-14" d="M133.6,51.63l-.15,1.31h-3.3v-.1h.12a1,1,0,0,0,.27-.05.23.23,0,0,0,.1-.12.88.88,0,0,0,0-.35V49.88a1,1,0,0,0,0-.37.18.18,0,0,0-.12-.12.55.55,0,0,0-.25,0h-.12v-.1h2v.1H132a.76.76,0,0,0-.27,0s-.07.07-.12.12a.88.88,0,0,0,0,.35v2.36a1,1,0,0,0,0,.37.3.3,0,0,0,.12.13,1.3,1.3,0,0,0,.35,0h.32a.91.91,0,0,0,.49-.1.93.93,0,0,0,.34-.32,2.32,2.32,0,0,0,.28-.66h.12Z" transform="translate(0 0)"/><path class="cls-14" d="M137,49.17a1.84,1.84,0,0,1,1.46.51,1.9,1.9,0,0,1,.57,1.38,2.1,2.1,0,0,1-.42,1.26,2.07,2.07,0,0,1-3.11,0,2,2,0,0,1-.44-1.29,1.93,1.93,0,0,1,.56-1.38A1.72,1.72,0,0,1,137,49.17Zm0,.17a.86.86,0,0,0-.79.52,2.71,2.71,0,0,0-.22,1.23,2.34,2.34,0,0,0,.34,1.4.73.73,0,0,0,.67.32.77.77,0,0,0,.47-.14,1,1,0,0,0,.37-.57,2.87,2.87,0,0,0,.12-1,3.14,3.14,0,0,0-.15-1.11,1,1,0,0,0-.34-.52A.93.93,0,0,0,137,49.34Z" transform="translate(0 0)"/><path class="cls-14" d="M144.05,49.12v1.3H144a1.53,1.53,0,0,0-.54-.81,1.25,1.25,0,0,0-.82-.27.94.94,0,0,0-.69.25,1.09,1.09,0,0,0-.39.66,3.5,3.5,0,0,0-.12.86,3.64,3.64,0,0,0,.12.94.94.94,0,0,0,.42.59,1.28,1.28,0,0,0,.66.2.8.8,0,0,0,.27,0l.3-.07V52a1.07,1.07,0,0,0,0-.3s-.08-.07-.13-.12a.59.59,0,0,0-.22-.05h-.1v-.1h1.8v.1a.65.65,0,0,0-.29.05.26.26,0,0,0-.13.14.73.73,0,0,0,0,.25v.77a5.31,5.31,0,0,1-.74.24,4.12,4.12,0,0,1-.81.08,2.33,2.33,0,0,1-.89-.15,2.75,2.75,0,0,1-.62-.37,2.23,2.23,0,0,1-.42-.52,2,2,0,0,1-.19-.84,1.93,1.93,0,0,1,.59-1.43,2,2,0,0,1,1.48-.59,3.37,3.37,0,0,1,.49,0c.07,0,.22.05.39.12a1.11,1.11,0,0,0,.32.1.3.3,0,0,0,.15,0,.49.49,0,0,0,.12-.22h.13Z" transform="translate(0 0)"/><path class="cls-14" d="M147.57,52.84v.1h-1.94v-.1h.12a1,1,0,0,0,.27-.05.29.29,0,0,0,.1-.12,1.3,1.3,0,0,0,0-.35V49.88a1.49,1.49,0,0,0,0-.37s-.05-.1-.13-.12a.48.48,0,0,0-.24,0h-.12v-.1h1.94v.1h-.12a.72.72,0,0,0-.27,0c-.05,0-.08.07-.13.12a1.3,1.3,0,0,0,0,.35V52.3a1.54,1.54,0,0,0,0,.37.37.37,0,0,0,.13.12.72.72,0,0,0,.24.05Z" transform="translate(0 0)"/><path class="cls-14" d="M150.23,49.41v1.53h.08a.58.58,0,0,0,.52-.22,1.49,1.49,0,0,0,.19-.67h.1v2H151a1.19,1.19,0,0,0-.15-.52.54.54,0,0,0-.24-.27.91.91,0,0,0-.42-.07V52.2a1.54,1.54,0,0,0,0,.37.53.53,0,0,0,.1.12.45.45,0,0,0,.22.05h.23a1.21,1.21,0,0,0,1.28-1h.1L152,52.94h-3.22v-.1h.12a1,1,0,0,0,.27-.05.29.29,0,0,0,.1-.12,1.3,1.3,0,0,0,0-.35V49.88a1.16,1.16,0,0,0,0-.32.28.28,0,0,0-.1-.15.51.51,0,0,0-.3-.07h-.12v-.1h3.13v1.11h-.1a1.32,1.32,0,0,0-.22-.59.68.68,0,0,0-.42-.25,2.9,2.9,0,0,0-.57,0h-.32Z" transform="translate(0 0)"/><path class="cls-14" d="M156.07,49.12l0,1.23H156a1.19,1.19,0,0,0-.39-.76,1,1,0,0,0-.67-.3.59.59,0,0,0-.44.15.52.52,0,0,0-.18.34.79.79,0,0,0,.05.22,1,1,0,0,0,.25.25c.07,0,.3.17.59.32a2.48,2.48,0,0,1,.89.62,1.05,1.05,0,0,1,.22.66,1.07,1.07,0,0,1-.37.82A1.31,1.31,0,0,1,155,53a1.67,1.67,0,0,1-.33,0l-.39-.13a2,2,0,0,0-.22,0,.44.44,0,0,0-.15,0,.3.3,0,0,0-.12.18h-.1V51.63h.1a1.59,1.59,0,0,0,.47.91,1.08,1.08,0,0,0,.74.32.7.7,0,0,0,.49-.17.53.53,0,0,0,.17-.39.41.41,0,0,0-.07-.25,1.28,1.28,0,0,0-.23-.25,3.6,3.6,0,0,0-.51-.29,8,8,0,0,1-.74-.42,1.31,1.31,0,0,1-.35-.4,1,1,0,0,1-.12-.46,1,1,0,0,1,.32-.77,1.18,1.18,0,0,1,.81-.32,1.73,1.73,0,0,1,.35,0l.32.12a1.17,1.17,0,0,0,.27.1c.05,0,.07,0,.12,0s.05-.1.08-.22h.14Z" transform="translate(0 0)"/><path class="cls-15" d="M156.35,45.94H68.19v.81h88.16Z" transform="translate(0 0)"/><path class="cls-16" d="M60.28,7a2.84,2.84,0,1,0-2.83-2.83A2.83,2.83,0,0,0,60.28,7Z" transform="translate(0 0)"/><path class="cls-17" d="M56.88,16.29c-6.46,6.56-18,16.17-32.63,19l.32-.13.12,0s.08,0,.13,0a1.07,1.07,0,0,0,.27-.12s0,0,.05,0l.07,0s.05,0,.08-.05a.14.14,0,0,0,.09,0s0,0,.05,0h0s.05,0,.05,0l.19-.07s.08,0,.13-.05.32-.15.51-.22l.3-.15.49-.22.32-.15.37-.17a1.25,1.25,0,0,1,.27-.12,3.73,3.73,0,0,1,.4-.2.82.82,0,0,1,.25-.12s0,0,.09,0a1.2,1.2,0,0,1,.28-.13h0s0,0,.05,0,.27-.13.39-.2l.15-.07c.12-.08.25-.13.37-.2a.82.82,0,0,1,.25-.12,1.41,1.41,0,0,1,.24-.13l.13-.07.14-.07.33-.18.17-.1a.1.1,0,0,0,.07-.05l.35-.19.12-.08.1-.05a.4.4,0,0,0,.15-.09l.24-.15.18-.1s0,0,0,0L33,31c.1-.05.18-.1.28-.14l.27-.15s0,0,.07-.05a1,1,0,0,0,.27-.17l.17-.1.28-.15c.17-.1.34-.2.51-.32l.18-.1a2.32,2.32,0,0,1,.46-.27.35.35,0,0,1,.08-.05s.05,0,.07-.05c.64-.39,1.31-.81,2-1.26a.35.35,0,0,0,.08-.05c.19-.12.39-.27.59-.39,0,0,0,0,.07-.05s0,0,0,0a7.24,7.24,0,0,1,.61-.42l0,0,0,0,.64-.45.2-.14a1.3,1.3,0,0,1,.15-.1,1.73,1.73,0,0,0,.2-.15c.19-.12.36-.27.54-.39l.12-.08s0,0,0,0,0,0,0,0l.55-.39,0,0a.35.35,0,0,0,.08-.05.23.23,0,0,1,.09-.07.35.35,0,0,0,.08,0s0,0,.07-.05l.32-.24c.17-.15.35-.28.54-.42,0,0,0-.05.08-.05h0l0,0a0,0,0,0,0,0,0l.84-.67a.19.19,0,0,0,.1-.1c.29-.24.61-.49.91-.76s.42-.37.64-.57a.92.92,0,0,1,.25-.19s.07-.05.1-.1c.29-.27.59-.52.88-.82l.05,0,0,0,.1-.1c.14-.15.29-.27.44-.42l.17-.17.32-.32.1-.1c.22-.2.42-.42.64-.64a.87.87,0,0,0,.13-.15l0,0,.07-.08c.15-.14.3-.32.45-.46l0,0s0-.07.08-.1l0,0,.29-.29c.15-.15.27-.3.4-.45a.68.68,0,0,1,.17-.17c.05-.07.12-.12.17-.2l0,0,.45-.49.49-.6c.25-.29.49-.61.72-.91l.07-.1a.62.62,0,0,0,.12-.17c.27-.34.52-.69.79-1.06l0,0A.29.29,0,0,1,53,14a2.55,2.55,0,0,0,.27-.4c.12-.17.25-.37.4-.56s.07-.1.09-.15,0-.07.08-.1,0,0,0-.05c.13-.2.25-.39.37-.56s.13-.18.18-.28a1.19,1.19,0,0,1,.17-.27l.12-.19a5.24,5.24,0,0,0,.32-.57,1.24,1.24,0,0,0,.1-.2,28,28,0,0,0-3-2.88c-2.07,2.83-16.42,21.46-40.84,26a59.71,59.71,0,0,1-10.77,1H0s3.65,3.13,12.3,2.46a26.1,26.1,0,0,0,8.33,10.75C42.31,39.46,53.77,25.14,59,16.71a43.13,43.13,0,0,0,3.52-6.78A62.3,62.3,0,0,1,58.09,15C57.72,15.45,57.32,15.87,56.88,16.29Z" transform="translate(0 0)"/><path class="cls-18" d="M44.46,38.89A61.92,61.92,0,0,1,24.84,50.45,71.15,71.15,0,0,1,16.39,53a38.69,38.69,0,0,0,11.24-1.35A56.75,56.75,0,0,0,37.88,48a68.2,68.2,0,0,0,13.45-8.31S44.9,48.13,36.45,53a25.49,25.49,0,0,0,23.24-34.5A58.85,58.85,0,0,1,44.46,38.89Z" transform="translate(0 0)"/><path class="cls-19" d="M10.45,29.28a76.9,76.9,0,0,0,34.4-17.23s0,0,0-.05a57.66,57.66,0,0,0,5.74-5.3A44,44,0,0,0,55.8.15a51.55,51.55,0,0,1-7.08,5.32,65.52,65.52,0,0,1-8.87,4.73,56.53,56.53,0,0,1-6.58,2.44,65.89,65.89,0,0,1-7.2,1.78,57.69,57.69,0,0,1-8.45.91A87.19,87.19,0,0,0,31.55,9.54,58.71,58.71,0,0,0,42,2.74a21.69,21.69,0,0,0-2.27-.45A28.32,28.32,0,0,0,35.88,2,25.48,25.48,0,0,0,10.4,27.5c0,.3,0,.62,0,.92A5.05,5.05,0,0,0,10.45,29.28Z" transform="translate(0 0)"/><path class="cls-20" d="M17.62,15.3a55.08,55.08,0,0,0,8.45-.91,61.62,61.62,0,0,0,7.2-1.77,68,68,0,0,0,6.58-2.44,66.57,66.57,0,0,0,8.87-4.73,25.65,25.65,0,0,0-6.78-2.74,60.25,60.25,0,0,1-10.4,6.8A85.79,85.79,0,0,1,17.62,15.3Z" transform="translate(0 0)"/><path class="cls-21" d="M51.33,39.65A66.81,66.81,0,0,1,37.88,48a59.16,59.16,0,0,1-10.25,3.65,25.88,25.88,0,0,0,6.65,1.3c.52,0,1.06.05,1.58.05h.59C44.9,48.11,51.33,39.65,51.33,39.65Z" transform="translate(0 0)"/><path class="cls-22" d="M56.76,12.89A27.3,27.3,0,0,0,55,10.62a.71.71,0,0,1-.12.2c-.1.2-.22.37-.32.57l-.12.19a1.16,1.16,0,0,1-.18.27,2.09,2.09,0,0,1-.17.28c-.12.19-.25.39-.37.56s0,0,0,.05,0,.08-.08.1a1.3,1.3,0,0,1-.1.15,6.31,6.31,0,0,1-.39.56,4,4,0,0,0-.27.4s-.05.07-.08.1l0,0c-.25.35-.52.72-.79,1.06-.05,0-.07.1-.12.15s0,.07-.08.1c-.24.29-.46.61-.71.91l-.49.59c-.15.17-.3.35-.45.49l0,0c0,.07-.13.12-.17.2a1,1,0,0,1-.18.17c-.12.15-.27.29-.39.44l-.3.3,0,0a.29.29,0,0,0-.07.1l0,0c-.14.15-.29.32-.44.47l-.07.07,0,0a.53.53,0,0,0-.12.15c-.2.22-.42.41-.64.64l-.1.09-.32.32-.17.18q-.22.23-.45.42l-.09.09,0,0,0,0c-.29.27-.59.54-.89.79a.3.3,0,0,0-.09.1,1.18,1.18,0,0,1-.25.19l-.64.57c-.3.25-.59.52-.91.76,0,0-.08.05-.1.1l-.84.67a0,0,0,0,0,0,0l0,0h0s-.05.05-.08.05l-.54.42-.32.24s0,.05-.07.05a.35.35,0,0,1-.08.05.2.2,0,0,1-.1.07s0,0-.07.05l0,0-.54.39s0,0,0,0l0,0-.13.08c-.17.14-.36.27-.54.39a1,1,0,0,0-.19.15,1.3,1.3,0,0,0-.15.1l-.2.14-.64.45,0,0,0,0c-.2.15-.39.27-.62.42a0,0,0,0,0,0,0s0,0-.07.05c-.2.12-.4.27-.6.39,0,0,0,0-.07.05-.66.45-1.33.87-2,1.26a.35.35,0,0,1-.08.05l-.07.05a2.4,2.4,0,0,1-.47.27l-.17.1c-.17.1-.34.22-.52.32l-.27.15-.17.1a.83.83,0,0,0-.27.17.35.35,0,0,0-.08.05l-.27.15L32.8,31l-.37.23s0,0,0,0l-.17.1-.25.15a.55.55,0,0,0-.14.09s-.05,0-.1.05l-.13.08a2.77,2.77,0,0,0-.34.2.1.1,0,0,0-.07,0c-.08,0-.13.08-.18.1l-.32.18-.15.07-.12.07a1.19,1.19,0,0,1-.25.13.9.9,0,0,1-.24.12c-.12.07-.25.12-.37.2l-.15.07a2.4,2.4,0,0,1-.39.2s0,0-.05,0h0a1.66,1.66,0,0,1-.27.13l-.1,0a1.07,1.07,0,0,0-.24.12c-.13.07-.27.12-.4.2a1.59,1.59,0,0,1-.27.12l-.37.17L27,34c-.49.25-.94.44-1.31.62,0,0-.07,0-.12,0l-.2.08a.07.07,0,0,0,0,0h0s0,0-.05,0-.07,0-.1.05-.05,0-.07,0l-.08,0s0,0,0,0-.2.07-.28.12a2.08,2.08,0,0,1-.24.1l-.3.12c14.59-2.86,26.18-12.47,32.63-19,.42-.45.84-.87,1.21-1.26A8.78,8.78,0,0,0,56.76,12.89Z" transform="translate(0 0)"/><path class="cls-23" d="M51.36,39.6a68.34,68.34,0,0,1-13.48,8.33A56.7,56.7,0,0,1,27.6,51.58a25.8,25.8,0,0,0,6.66,1.31c.51,0,1.06,0,1.57,0h.59C44.93,48.11,51.36,39.6,51.36,39.6Z" transform="translate(0 0)"/><path class="cls-24" d="M56.93,16.22c-6.46,6.55-18.07,16.19-32.7,19.07l.32-.12.12-.05s.07,0,.12,0a1.59,1.59,0,0,0,.27-.12s0,0,.05,0l.08,0s0,0,.07,0a.24.24,0,0,0,.1-.05s0,0,.05,0h0a.08.08,0,0,0,.05,0,.93.93,0,0,1,.2-.07s.07,0,.12,0l.52-.23.3-.14c.14-.08.32-.15.49-.25l.32-.15.37-.17a1.07,1.07,0,0,1,.27-.12,3.55,3.55,0,0,1,.39-.2,1.13,1.13,0,0,1,.25-.12s.05,0,.1,0a1,1,0,0,1,.27-.13h0s0,0,0,0,.28-.12.4-.2l.15-.07c.12-.08.24-.13.37-.2a.9.9,0,0,1,.24-.12l.25-.13.12-.07.15-.07c.1,0,.2-.13.32-.18l.17-.1s.05,0,.08,0l.34-.2.13-.08s0,0,.09,0a.65.65,0,0,0,.15-.1l.25-.15.17-.1s0,0,0,0L33,31l.27-.14.27-.15a.35.35,0,0,1,.08-.05,1.53,1.53,0,0,0,.27-.17l.17-.1.27-.15c.17-.1.35-.2.52-.32l.17-.1.47-.3.07,0a.35.35,0,0,1,.08-.05c.64-.4,1.3-.82,2-1.26,0,0,0,0,.07-.05.2-.12.4-.27.59-.39a.35.35,0,0,1,.08-.05s0,0,0,0c.2-.15.4-.27.62-.42l0,0,0,0c.22-.14.42-.29.64-.44.07-.05.12-.1.2-.15l.14-.1a1.15,1.15,0,0,0,.2-.14c.2-.13.37-.28.54-.4l.13-.07s0,0,0,0,0,0,0,0l.54-.4,0,0s.05,0,.07-.05a.43.43,0,0,1,.1-.07s.05,0,.07,0a.35.35,0,0,1,.08-.05,3.49,3.49,0,0,0,.32-.25c.17-.15.34-.27.54-.42,0,0,.05,0,.07,0h0l0,0a0,0,0,0,0,0,0l.84-.66a.22.22,0,0,0,.09-.1c.3-.25.62-.49.92-.76s.41-.37.64-.57a.78.78,0,0,1,.24-.2.24.24,0,0,0,.1-.1l.89-.81,0-.05,0,0,.1-.1a5.76,5.76,0,0,1,.45-.42l.17-.17.32-.32.1-.1c.22-.2.42-.42.64-.64a.53.53,0,0,0,.12-.15l0,0,.07-.07c.15-.15.29-.32.44-.47l0,0,.07-.1,0-.05.3-.3.42-.44a.68.68,0,0,1,.17-.17c.05-.08.12-.13.17-.2l0,0c.15-.18.3-.33.45-.5s.32-.39.49-.59.49-.62.72-.91l.07-.1a1.25,1.25,0,0,0,.12-.17c.27-.35.55-.69.79-1.06l0,0a.43.43,0,0,1,.07-.1,3,3,0,0,0,.27-.39c.12-.17.25-.37.4-.57s.07-.09.09-.14,0-.08.08-.1,0,0,0-.05c.13-.2.25-.4.37-.57s.13-.17.18-.27a1,1,0,0,1,.17-.27c0-.07.07-.12.12-.2a4.44,4.44,0,0,0,.32-.57,1.74,1.74,0,0,0,.1-.19,23.52,23.52,0,0,0-3-2.89c-2.07,2.86-16.46,21.52-40.93,26a60,60,0,0,1-10.8,1H0s3.67,3.12,12.32,2.46a25.51,25.51,0,0,0,6.36,9.12c.64.59,1.31,1.13,2,1.65C42.39,39.43,53.9,25.09,59.1,16.64a46.88,46.88,0,0,0,3.55-6.81A65,65,0,0,1,58.24,15C57.77,15.35,57.35,15.8,56.93,16.22Z" transform="translate(0 0)"/><path class="cls-25" d="M44.46,38.86A62.57,62.57,0,0,1,24.79,50.45,71.11,71.11,0,0,1,16.31,53a38.9,38.9,0,0,0,11.27-1.35A59.9,59.9,0,0,0,37.85,48a68.52,68.52,0,0,0,13.48-8.33S44.9,48.11,36.42,53A25.55,25.55,0,0,0,59.71,18.39,58.79,58.79,0,0,1,44.46,38.86Z" transform="translate(0 0)"/><path class="cls-26" d="M10.37,29.23A77,77,0,0,0,44.85,12s0,0,0-.05A58,58,0,0,0,50.64,6.6,42.84,42.84,0,0,0,55.8,0a48.84,48.84,0,0,1-7.1,5.33,63.28,63.28,0,0,1-8.9,4.73,65.13,65.13,0,0,1-6.58,2.46A65.89,65.89,0,0,1,26,14.32a57.67,57.67,0,0,1-8.47.91,86.16,86.16,0,0,0,14-5.82,59.82,59.82,0,0,0,10.42-6.8c-.73-.17-1.5-.34-2.26-.44a28.39,28.39,0,0,0-3.82-.3A25.54,25.54,0,0,0,10.33,27.4c0,.3,0,.62,0,.92S10.35,28.93,10.37,29.23Z" transform="translate(0 0)"/><path class="cls-27" d="M60.33,6.93a2.86,2.86,0,1,0-2.86-2.86A2.86,2.86,0,0,0,60.33,6.93Z" transform="translate(0 0)"/><path class="cls-28" d="M17.57,15.23a58.26,58.26,0,0,0,8.48-.91,58.74,58.74,0,0,0,7.2-1.78,66,66,0,0,0,6.58-2.46,65.78,65.78,0,0,0,8.89-4.73,25,25,0,0,0-6.78-2.74,58,58,0,0,1-10.42,6.8A85.18,85.18,0,0,1,17.57,15.23Z" transform="translate(0 0)"/><path class="cls-29" d="M51.38,39.6A68,68,0,0,1,37.9,47.93a56.9,56.9,0,0,1-10.27,3.65,25.72,25.72,0,0,0,6.65,1.31c.52,0,1.06,0,1.58,0h.59C44.93,48.11,51.38,39.6,51.38,39.6Z" transform="translate(0 0)"/><path class="cls-30" d="M56.81,12.82A23.1,23.1,0,0,0,55,10.55a.88.88,0,0,1-.12.2c-.1.19-.22.36-.32.56l-.13.2a1,1,0,0,1-.17.27c0,.1-.12.17-.17.27s-.25.4-.37.57,0,0,0,.05,0,.07-.08.1a1.21,1.21,0,0,1-.1.14,6.42,6.42,0,0,1-.39.57,2.55,2.55,0,0,0-.27.4s0,.07-.08.09l0,0c-.25.34-.52.71-.79,1.06,0,0-.07.1-.12.15s-.05.07-.08.09c-.24.3-.47.62-.71.92s-.32.39-.49.59-.3.34-.45.49l0,0c-.05.07-.13.12-.18.19a.55.55,0,0,1-.17.17,5.76,5.76,0,0,1-.42.45l-.29.29,0,.05s-.05.08-.08.1l0,0c-.15.14-.3.32-.44.47l-.08.07,0,0a.87.87,0,0,0-.13.15c-.19.22-.41.42-.64.64l-.1.1-.32.32-.17.17a5.68,5.68,0,0,1-.44.42l-.1.1,0,0,0,0-.89.81a.24.24,0,0,0-.1.1,1,1,0,0,1-.25.19l-.64.57-.91.77a.38.38,0,0,0-.1.09c-.27.23-.56.45-.84.67a0,0,0,0,0,0,0l0,0h0s0,.05-.07.05c-.18.15-.35.27-.55.42l-.32.24a.1.1,0,0,1-.07.05s-.05,0-.07.05l-.1.08-.08,0,0,0-.54.39s0,0,0,0l0,0-.12.08c-.17.14-.37.27-.54.39a1.15,1.15,0,0,0-.2.15,1.3,1.3,0,0,0-.15.1l-.19.15c-.23.14-.42.29-.65.44l0,0,0,0c-.2.15-.4.27-.62.42,0,0,0,0,0,0s0,0-.07,0c-.2.12-.39.27-.59.4a.1.1,0,0,0-.07,0c-.67.45-1.34.87-2,1.26,0,0-.05,0-.07,0l-.07.05a2.73,2.73,0,0,1-.47.27l-.18.1-.51.32-.27.15-.18.1a1.53,1.53,0,0,0-.27.17s0,0-.07.05l-.27.15c-.1,0-.17.1-.27.14l-.37.23s0,0-.05,0l-.17.1L32,31.4a.44.44,0,0,0-.15.1s-.05,0-.1.05l-.12.07a2.91,2.91,0,0,0-.35.2.1.1,0,0,0-.07.05A1.31,1.31,0,0,0,31,32l-.32.18-.15.07-.12.07-.25.13a.82.82,0,0,1-.25.12l-.37.2-.14.07a3,3,0,0,1-.4.2L29,33h0a2.19,2.19,0,0,1-.27.13l-.1.05c-.1,0-.17.07-.25.12s-.27.12-.39.2a1.25,1.25,0,0,1-.27.12l-.37.17L27,34c-.5.25-.94.44-1.31.62l-.12.05-.2.07a.08.08,0,0,0-.05,0h0s0,0-.05,0-.08,0-.1,0a.35.35,0,0,0-.08.05l-.07,0s0,0,0,0a2.38,2.38,0,0,0-.27.12l-.25.1a2.53,2.53,0,0,0-.29.12c14.61-2.86,26.24-12.49,32.7-19.07.42-.45.84-.87,1.23-1.26A13.57,13.57,0,0,0,56.81,12.82Z" transform="translate(0 0)"/></svg>