<svg width="1650" height="573" viewBox="0 0 1650 573" fill="none" xmlns="http://www.w3.org/2000/svg">
<path d="M610.751 315H589.737V190.407H610.751V315ZM677.882 315H596.804V296.404H677.882V315ZM666.353 260.7H596.804V242.104H666.353V260.7ZM677.882 209.003H596.804V190.407H677.882V209.003ZM738.49 315H711.898L679.727 224.438H702.786L718.221 273.717L725.659 301.425L732.912 273.717L748.16 224.438H770.847L738.49 315ZM815.967 316.86C807.289 316.86 799.603 314.938 792.908 311.095C786.338 307.128 781.193 301.611 777.474 294.544C773.878 287.354 772.081 279.11 772.081 269.812C772.081 260.266 773.878 252.022 777.474 245.079C781.193 238.013 786.338 232.496 792.908 228.529C799.603 224.562 807.289 222.578 815.967 222.578C824.769 222.578 832.456 224.562 839.026 228.529C845.721 232.496 850.928 238.013 854.647 245.079C858.366 252.022 860.226 260.266 860.226 269.812C860.226 279.11 858.366 287.354 854.647 294.544C850.928 301.611 845.721 307.128 839.026 311.095C832.456 314.938 824.769 316.86 815.967 316.86ZM816.153 299.565C820.74 299.565 824.707 298.512 828.055 296.404C831.526 294.297 834.191 291.073 836.051 286.734C838.034 282.271 839.026 276.63 839.026 269.812C839.026 262.745 838.034 257.043 836.051 252.704C834.191 248.365 831.526 245.141 828.055 243.034C824.707 240.926 820.74 239.872 816.153 239.872C811.814 239.872 807.909 240.926 804.438 243.034C800.966 245.141 798.239 248.365 796.256 252.704C794.396 257.043 793.466 262.745 793.466 269.812C793.466 276.63 794.396 282.271 796.256 286.734C798.239 291.073 800.966 294.297 804.438 296.404C807.909 298.512 811.814 299.565 816.153 299.565ZM899.28 315H878.452V190.407H899.28V315ZM970.032 315H943.439L911.269 224.438H934.327L949.762 273.717L957.2 301.425L964.453 273.717L979.702 224.438H1002.39L970.032 315ZM1049.55 316.86C1040.63 316.86 1032.76 314.938 1025.94 311.095C1019.24 307.128 1014.04 301.611 1010.32 294.544C1006.72 287.354 1004.92 279.11 1004.92 269.812C1004.92 260.266 1006.72 251.96 1010.32 244.893C1014.04 237.827 1019.12 232.372 1025.57 228.529C1032.14 224.562 1039.64 222.578 1048.07 222.578C1057.12 222.578 1064.8 224.438 1071.13 228.157C1077.45 231.876 1082.22 236.959 1085.44 243.406C1088.67 249.852 1090.28 257.291 1090.28 265.721C1090.28 267.456 1090.22 269.192 1090.09 270.928C1089.97 272.539 1089.78 273.841 1089.54 274.833H1020.17V261.444H1075.77L1071.68 266.279C1071.68 257.477 1069.64 250.782 1065.55 246.195C1061.46 241.608 1055.63 239.315 1048.07 239.315C1040.88 239.315 1035.17 241.67 1030.96 246.381C1026.74 251.092 1024.64 258.096 1024.64 267.394V271.486C1024.64 277.56 1025.63 282.705 1027.61 286.92C1029.72 291.135 1032.69 294.359 1036.54 296.59C1040.38 298.698 1044.78 299.751 1049.74 299.751C1055.07 299.751 1059.41 298.946 1062.76 297.334C1066.23 295.722 1069.02 293.739 1071.13 291.383C1073.23 288.904 1074.84 286.424 1075.96 283.945L1088.79 297.52C1085.44 302.603 1080.55 307.128 1074.1 311.095C1067.78 314.938 1059.6 316.86 1049.55 316.86ZM1165.81 315H1120.62V296.404H1162.65C1171.2 296.404 1177.46 294.978 1181.43 292.127C1185.52 289.152 1187.56 284.503 1187.56 278.18C1187.56 273.841 1186.51 270.37 1184.4 267.766C1182.42 265.163 1179.63 263.241 1176.04 262.002C1172.44 260.762 1168.16 260.142 1163.2 260.142H1120.62V242.29H1161.16C1165.37 242.29 1169.03 241.794 1172.13 240.802C1175.23 239.81 1177.65 238.137 1179.38 235.781C1181.24 233.302 1182.17 229.955 1182.17 225.739C1182.17 221.524 1181.24 218.239 1179.38 215.884C1177.52 213.404 1174.98 211.669 1171.76 210.677C1168.54 209.561 1164.75 209.003 1160.41 209.003H1120.62V190.407H1166.74C1175.29 190.407 1182.3 191.771 1187.75 194.498C1193.21 197.226 1197.23 201.007 1199.84 205.842C1202.57 210.553 1203.93 216.008 1203.93 222.206C1203.93 226.421 1203.12 230.203 1201.51 233.55C1200.02 236.773 1197.79 239.562 1194.82 241.918C1191.97 244.273 1188.49 246.195 1184.4 247.683C1180.31 249.046 1175.73 249.976 1170.64 250.472C1180.19 251.092 1187.75 252.828 1193.33 255.679C1199.03 258.53 1203.06 262.25 1205.42 266.837C1207.9 271.3 1209.14 276.32 1209.14 281.899C1209.14 289.338 1207.4 295.536 1203.93 300.495C1200.46 305.33 1195.5 308.987 1189.05 311.467C1182.61 313.822 1174.86 315 1165.81 315ZM1131.22 315H1110.21V190.407H1131.22V315ZM1279.92 275.577H1236.78V256.981H1278.06C1282.77 256.981 1287.17 256.299 1291.26 254.935C1295.36 253.447 1298.64 251.03 1301.12 247.683C1303.6 244.211 1304.84 239.562 1304.84 233.736C1304.84 227.165 1303.6 222.144 1301.12 218.673C1298.64 215.078 1295.36 212.598 1291.26 211.235C1287.17 209.747 1282.77 209.003 1278.06 209.003H1236.78V190.407H1279.92C1288.72 190.407 1296.66 191.957 1303.72 195.056C1310.79 198.032 1316.37 202.743 1320.46 209.189C1324.68 215.512 1326.78 223.694 1326.78 233.736C1326.78 243.158 1324.68 250.968 1320.46 257.167C1316.37 263.365 1310.79 268.014 1303.72 271.114C1296.66 274.089 1288.72 275.577 1279.92 275.577ZM1250.17 315H1229.15V190.407H1250.17V315ZM1363.49 315H1342.47V190.407H1368.32L1395.1 245.079L1407.37 276.878L1419.65 245.079L1446.42 190.407H1472.27V315H1451.26V256.423L1453.86 215.326L1439.54 251.216L1417.97 293.987H1396.77L1375.2 251.216L1360.51 215.326L1363.49 256.423V315Z" fill="white"/>
<path d="M604.594 426H591.547V381.466H605.377C609.625 381.466 613.256 382.35 616.271 384.119C619.301 385.887 621.621 388.424 623.23 391.73C624.839 395.035 625.644 399 625.644 403.624C625.644 408.292 624.817 412.301 623.165 415.649C621.527 418.984 619.135 421.542 615.989 423.325C612.857 425.108 609.059 426 604.594 426ZM595.613 422.347H604.355C608.182 422.347 611.386 421.593 613.966 420.085C616.547 418.578 618.482 416.425 619.772 413.627C621.063 410.829 621.708 407.495 621.708 403.624C621.693 399.783 621.055 396.477 619.794 393.708C618.547 390.939 616.692 388.816 614.227 387.337C611.777 385.858 608.748 385.119 605.138 385.119H595.613V422.347ZM648.199 426.696C645.082 426.696 642.386 425.971 640.11 424.521C637.834 423.057 636.072 421.035 634.826 418.454C633.593 415.859 632.977 412.873 632.977 409.495C632.977 406.132 633.593 403.146 634.826 400.536C636.072 397.912 637.79 395.861 639.979 394.382C642.183 392.889 644.727 392.143 647.612 392.143C649.424 392.143 651.171 392.476 652.852 393.143C654.534 393.795 656.042 394.803 657.375 396.166C658.724 397.514 659.789 399.217 660.572 401.276C661.355 403.32 661.746 405.741 661.746 408.539V410.452H635.652V407.038H657.788C657.788 404.893 657.354 402.965 656.484 401.254C655.628 399.529 654.432 398.166 652.896 397.166C651.374 396.166 649.612 395.665 647.612 395.665C645.495 395.665 643.632 396.231 642.023 397.362C640.414 398.492 639.153 399.985 638.24 401.841C637.341 403.697 636.884 405.726 636.87 407.93V409.974C636.87 412.627 637.326 414.946 638.24 416.932C639.167 418.904 640.479 420.433 642.175 421.52C643.872 422.608 645.879 423.151 648.199 423.151C649.779 423.151 651.163 422.905 652.352 422.412C653.555 421.919 654.563 421.26 655.375 420.433C656.201 419.592 656.824 418.672 657.245 417.672L660.92 418.868C660.412 420.274 659.579 421.571 658.419 422.76C657.274 423.949 655.839 424.905 654.114 425.63C652.403 426.341 650.431 426.696 648.199 426.696ZM683.323 426.696C680.336 426.696 677.734 425.949 675.516 424.456C673.313 422.963 671.602 420.919 670.384 418.324C669.167 415.729 668.558 412.772 668.558 409.452C668.558 406.103 669.174 403.124 670.406 400.515C671.653 397.905 673.378 395.861 675.582 394.382C677.785 392.889 680.344 392.143 683.258 392.143C685.49 392.143 687.512 392.578 689.325 393.447C691.137 394.303 692.63 395.513 693.804 397.079C694.993 398.63 695.739 400.442 696.044 402.515H692.13C691.724 400.631 690.745 399.021 689.194 397.688C687.657 396.34 685.7 395.665 683.323 395.665C681.192 395.665 679.307 396.245 677.669 397.405C676.031 398.55 674.748 400.152 673.82 402.211C672.907 404.255 672.45 406.625 672.45 409.321C672.45 412.032 672.9 414.432 673.798 416.519C674.697 418.592 675.958 420.216 677.582 421.39C679.22 422.564 681.134 423.151 683.323 423.151C684.801 423.151 686.15 422.876 687.367 422.325C688.6 421.76 689.629 420.962 690.455 419.933C691.296 418.904 691.861 417.679 692.151 416.258H696.066C695.776 418.273 695.058 420.071 693.913 421.651C692.782 423.217 691.311 424.449 689.498 425.348C687.701 426.246 685.642 426.696 683.323 426.696ZM717.343 426.696C714.458 426.696 711.907 425.964 709.689 424.5C707.485 423.035 705.76 421.013 704.514 418.433C703.267 415.838 702.643 412.844 702.643 409.452C702.643 406.031 703.267 403.023 704.514 400.428C705.76 397.818 707.485 395.789 709.689 394.339C711.907 392.875 714.458 392.143 717.343 392.143C720.228 392.143 722.772 392.875 724.976 394.339C727.179 395.803 728.904 397.833 730.151 400.428C731.412 403.023 732.043 406.031 732.043 409.452C732.043 412.844 731.42 415.838 730.173 418.433C728.926 421.013 727.194 423.035 724.976 424.5C722.772 425.964 720.228 426.696 717.343 426.696ZM717.343 423.151C719.663 423.151 721.627 422.528 723.236 421.281C724.845 420.035 726.063 418.375 726.889 416.302C727.73 414.229 728.151 411.945 728.151 409.452C728.151 406.958 727.73 404.668 726.889 402.58C726.063 400.493 724.845 398.818 723.236 397.557C721.627 396.296 719.663 395.665 717.343 395.665C715.038 395.665 713.074 396.296 711.45 397.557C709.841 398.818 708.616 400.493 707.775 402.58C706.949 404.668 706.536 406.958 706.536 409.452C706.536 411.945 706.949 414.229 707.775 416.302C708.616 418.375 709.841 420.035 711.45 421.281C713.059 422.528 715.024 423.151 717.343 423.151ZM752.565 426.696C749.825 426.696 747.426 425.971 745.367 424.521C743.309 423.072 741.7 421.049 740.54 418.454C739.395 415.859 738.822 412.837 738.822 409.387C738.822 405.951 739.395 402.943 740.54 400.362C741.7 397.767 743.316 395.752 745.389 394.317C747.462 392.868 749.876 392.143 752.63 392.143C754.66 392.143 756.349 392.505 757.697 393.23C759.045 393.94 760.125 394.825 760.937 395.883C761.749 396.941 762.379 397.97 762.829 398.971H763.177V381.466H767.069V426H763.285V419.803H762.829C762.379 420.817 761.742 421.861 760.915 422.934C760.089 423.992 758.994 424.884 757.632 425.609C756.283 426.333 754.595 426.696 752.565 426.696ZM753.022 423.151C755.182 423.151 757.023 422.564 758.545 421.39C760.067 420.201 761.227 418.57 762.024 416.497C762.836 414.41 763.242 412.018 763.242 409.321C763.242 406.654 762.843 404.298 762.046 402.254C761.249 400.196 760.089 398.587 758.567 397.427C757.045 396.253 755.196 395.665 753.022 395.665C750.789 395.665 748.905 396.274 747.368 397.492C745.846 398.695 744.686 400.326 743.889 402.385C743.106 404.443 742.714 406.755 742.714 409.321C742.714 411.916 743.113 414.258 743.91 416.345C744.708 418.433 745.868 420.093 747.39 421.325C748.926 422.543 750.804 423.151 753.022 423.151ZM778.137 426V392.599H782.03V426H778.137ZM780.116 386.859C779.319 386.859 778.638 386.59 778.072 386.054C777.507 385.503 777.224 384.844 777.224 384.075C777.224 383.307 777.507 382.655 778.072 382.118C778.638 381.567 779.319 381.292 780.116 381.292C780.914 381.292 781.595 381.567 782.16 382.118C782.726 382.655 783.008 383.307 783.008 384.075C783.008 384.844 782.726 385.503 782.16 386.054C781.595 386.59 780.914 386.859 780.116 386.859ZM796.137 405.125V426H792.266V392.599H796.028V397.84H796.376C797.159 396.129 798.377 394.759 800.029 393.73C801.697 392.686 803.755 392.164 806.205 392.164C808.452 392.164 810.424 392.636 812.12 393.578C813.83 394.506 815.157 395.876 816.099 397.688C817.056 399.5 817.534 401.725 817.534 404.363V426H813.664V404.603C813.664 401.863 812.895 399.696 811.359 398.101C809.837 396.506 807.793 395.709 805.227 395.709C803.472 395.709 801.914 396.086 800.551 396.84C799.189 397.593 798.109 398.681 797.311 400.101C796.528 401.508 796.137 403.182 796.137 405.125ZM840.47 439.221C838.194 439.221 836.201 438.924 834.49 438.33C832.78 437.75 831.337 436.952 830.163 435.938C828.989 434.923 828.075 433.785 827.423 432.524L830.598 430.436C831.076 431.277 831.714 432.103 832.511 432.915C833.323 433.727 834.374 434.401 835.664 434.937C836.969 435.474 838.571 435.742 840.47 435.742C843.427 435.742 845.812 435.003 847.624 433.524C849.451 432.045 850.364 429.747 850.364 426.631V419.107H850.016C849.567 420.122 848.922 421.136 848.081 422.151C847.24 423.151 846.138 423.985 844.776 424.652C843.427 425.319 841.753 425.652 839.753 425.652C837.085 425.652 834.715 424.992 832.642 423.673C830.583 422.354 828.96 420.469 827.771 418.02C826.597 415.555 826.01 412.619 826.01 409.213C826.01 405.835 826.582 402.863 827.727 400.297C828.887 397.731 830.504 395.731 832.577 394.295C834.65 392.86 837.063 392.143 839.818 392.143C841.862 392.143 843.558 392.505 844.906 393.23C846.254 393.94 847.334 394.825 848.146 395.883C848.973 396.941 849.618 397.97 850.082 398.971H850.473V392.599H854.257V426.87C854.257 429.697 853.655 432.023 852.452 433.85C851.249 435.677 849.61 437.025 847.537 437.895C845.464 438.779 843.109 439.221 840.47 439.221ZM840.209 422.108C842.355 422.108 844.189 421.593 845.711 420.564C847.233 419.52 848.4 418.027 849.212 416.084C850.024 414.142 850.429 411.829 850.429 409.147C850.429 406.538 850.031 404.226 849.233 402.211C848.436 400.181 847.276 398.587 845.754 397.427C844.247 396.253 842.398 395.665 840.209 395.665C837.977 395.665 836.092 396.267 834.555 397.47C833.019 398.673 831.859 400.297 831.076 402.341C830.293 404.371 829.902 406.639 829.902 409.147C829.902 411.699 830.301 413.953 831.098 415.91C831.895 417.853 833.062 419.375 834.599 420.477C836.136 421.564 838.006 422.108 840.209 422.108ZM894.882 392.599V395.97H878.943V392.599H894.882ZM883.923 384.597H887.815V417.28C887.815 418.672 888.054 419.766 888.533 420.564C889.011 421.347 889.634 421.905 890.403 422.238C891.171 422.557 891.99 422.716 892.86 422.716C893.367 422.716 893.802 422.687 894.165 422.629C894.527 422.557 894.846 422.485 895.121 422.412L895.948 425.913C895.571 426.058 895.107 426.188 894.556 426.304C894.005 426.435 893.324 426.5 892.512 426.5C891.091 426.5 889.721 426.188 888.402 425.565C887.097 424.942 886.025 424.014 885.184 422.782C884.343 421.549 883.923 420.02 883.923 418.193V384.597ZM908.261 405.125V426H904.39V381.466H908.261V397.84H908.609C909.392 396.115 910.602 394.738 912.24 393.708C913.893 392.679 915.98 392.164 918.503 392.164C920.764 392.164 922.75 392.628 924.461 393.556C926.172 394.484 927.505 395.854 928.462 397.666C929.419 399.478 929.897 401.711 929.897 404.363V426H926.005V404.603C926.005 401.848 925.237 399.681 923.7 398.101C922.178 396.506 920.119 395.709 917.524 395.709C915.741 395.709 914.154 396.086 912.762 396.84C911.37 397.593 910.269 398.681 909.457 400.101C908.66 401.508 908.261 403.182 908.261 405.125ZM953.594 426.696C950.477 426.696 947.781 425.971 945.505 424.521C943.229 423.057 941.468 421.035 940.221 418.454C938.989 415.859 938.373 412.873 938.373 409.495C938.373 406.132 938.989 403.146 940.221 400.536C941.468 397.912 943.186 395.861 945.375 394.382C947.578 392.889 950.122 392.143 953.007 392.143C954.819 392.143 956.566 392.476 958.248 393.143C959.929 393.795 961.437 394.803 962.771 396.166C964.119 397.514 965.184 399.217 965.967 401.276C966.75 403.32 967.142 405.741 967.142 408.539V410.452H941.047V407.038H963.184C963.184 404.893 962.749 402.965 961.879 401.254C961.024 399.529 959.828 398.166 958.291 397.166C956.769 396.166 955.008 395.665 953.007 395.665C950.891 395.665 949.028 396.231 947.419 397.362C945.809 398.492 944.548 399.985 943.635 401.841C942.736 403.697 942.279 405.726 942.265 407.93V409.974C942.265 412.627 942.722 414.946 943.635 416.932C944.563 418.904 945.875 420.433 947.571 421.52C949.267 422.608 951.275 423.151 953.594 423.151C955.174 423.151 956.559 422.905 957.748 422.412C958.951 421.919 959.958 421.26 960.77 420.433C961.597 419.592 962.22 418.672 962.64 417.672L966.315 418.868C965.808 420.274 964.974 421.571 963.815 422.76C962.669 423.949 961.234 424.905 959.509 425.63C957.798 426.341 955.827 426.696 953.594 426.696ZM1015.33 399.927L1011.79 400.928C1011.44 399.927 1010.95 399.021 1010.31 398.21C1009.67 397.398 1008.84 396.753 1007.81 396.274C1006.8 395.796 1005.53 395.557 1004.03 395.557C1001.77 395.557 999.91 396.093 998.46 397.166C997.01 398.239 996.286 399.623 996.286 401.319C996.286 402.754 996.778 403.921 997.764 404.82C998.765 405.704 1000.3 406.408 1002.37 406.929L1007.42 408.169C1010.22 408.85 1012.31 409.93 1013.7 411.409C1015.11 412.888 1015.81 414.743 1015.81 416.976C1015.81 418.86 1015.29 420.535 1014.25 421.999C1013.2 423.463 1011.75 424.616 1009.88 425.456C1008.02 426.283 1005.87 426.696 1003.42 426.696C1000.16 426.696 997.467 425.964 995.351 424.5C993.234 423.021 991.879 420.89 991.284 418.106L995.003 417.193C995.481 419.179 996.416 420.68 997.808 421.694C999.214 422.709 1001.06 423.217 1003.35 423.217C1005.92 423.217 1007.97 422.644 1009.51 421.499C1011.04 420.339 1011.81 418.889 1011.81 417.15C1011.81 415.801 1011.36 414.671 1010.46 413.757C1009.56 412.83 1008.2 412.148 1006.38 411.713L1000.92 410.409C998.018 409.713 995.872 408.611 994.481 407.103C993.089 405.596 992.393 403.726 992.393 401.493C992.393 399.652 992.893 398.036 993.894 396.644C994.894 395.238 996.271 394.136 998.025 393.339C999.779 392.541 1001.78 392.143 1004.03 392.143C1007.09 392.143 1009.53 392.839 1011.36 394.23C1013.2 395.607 1014.52 397.507 1015.33 399.927ZM1033.62 426.761C1031.6 426.761 1029.76 426.37 1028.09 425.587C1026.43 424.79 1025.1 423.644 1024.11 422.151C1023.13 420.643 1022.64 418.817 1022.64 416.671C1022.64 415.019 1022.95 413.627 1023.57 412.496C1024.19 411.365 1025.08 410.438 1026.22 409.713C1027.37 408.988 1028.72 408.415 1030.29 407.995C1031.86 407.575 1033.58 407.248 1035.47 407.016C1037.34 406.784 1038.92 406.582 1040.21 406.408C1041.51 406.234 1042.5 405.958 1043.18 405.581C1043.87 405.204 1044.21 404.595 1044.21 403.755V402.972C1044.21 400.696 1043.53 398.905 1042.16 397.601C1040.81 396.282 1038.87 395.622 1036.33 395.622C1033.93 395.622 1031.96 396.151 1030.44 397.209C1028.93 398.268 1027.88 399.514 1027.27 400.949L1023.59 399.623C1024.35 397.796 1025.39 396.34 1026.72 395.252C1028.06 394.15 1029.55 393.36 1031.2 392.882C1032.86 392.389 1034.53 392.143 1036.23 392.143C1037.5 392.143 1038.83 392.309 1040.21 392.643C1041.6 392.976 1042.89 393.556 1044.08 394.382C1045.26 395.194 1046.23 396.332 1046.97 397.796C1047.71 399.246 1048.08 401.087 1048.08 403.32V426H1044.21V420.716H1043.97C1043.5 421.702 1042.81 422.658 1041.9 423.586C1040.99 424.514 1039.84 425.275 1038.47 425.87C1037.09 426.464 1035.47 426.761 1033.62 426.761ZM1034.14 423.217C1036.2 423.217 1037.98 422.76 1039.49 421.847C1041 420.933 1042.16 419.723 1042.97 418.215C1043.79 416.693 1044.21 415.019 1044.21 413.192V408.365C1043.92 408.64 1043.43 408.887 1042.75 409.104C1042.08 409.321 1041.31 409.517 1040.42 409.691C1039.55 409.851 1038.68 409.988 1037.81 410.104C1036.94 410.22 1036.16 410.322 1035.47 410.409C1033.58 410.641 1031.97 411.003 1030.64 411.496C1029.3 411.989 1028.28 412.67 1027.57 413.54C1026.86 414.395 1026.51 415.497 1026.51 416.845C1026.51 418.875 1027.23 420.448 1028.68 421.564C1030.13 422.666 1031.95 423.217 1034.14 423.217ZM1062.24 381.466V426H1058.37V381.466H1062.24ZM1085.99 426.696C1082.87 426.696 1080.18 425.971 1077.9 424.521C1075.62 423.057 1073.86 421.035 1072.62 418.454C1071.38 415.859 1070.77 412.873 1070.77 409.495C1070.77 406.132 1071.38 403.146 1072.62 400.536C1073.86 397.912 1075.58 395.861 1077.77 394.382C1079.97 392.889 1082.52 392.143 1085.4 392.143C1087.22 392.143 1088.96 392.476 1090.64 393.143C1092.33 393.795 1093.83 394.803 1095.17 396.166C1096.51 397.514 1097.58 399.217 1098.36 401.276C1099.15 403.32 1099.54 405.741 1099.54 408.539V410.452H1073.44V407.038H1095.58C1095.58 404.893 1095.14 402.965 1094.28 401.254C1093.42 399.529 1092.22 398.166 1090.69 397.166C1089.16 396.166 1087.4 395.665 1085.4 395.665C1083.29 395.665 1081.42 396.231 1079.81 397.362C1078.21 398.492 1076.94 399.985 1076.03 401.841C1075.13 403.697 1074.68 405.726 1074.66 407.93V409.974C1074.66 412.627 1075.12 414.946 1076.03 416.932C1076.96 418.904 1078.27 420.433 1079.97 421.52C1081.66 422.608 1083.67 423.151 1085.99 423.151C1087.57 423.151 1088.95 422.905 1090.14 422.412C1091.35 421.919 1092.35 421.26 1093.17 420.433C1093.99 419.592 1094.62 418.672 1095.04 417.672L1098.71 418.868C1098.2 420.274 1097.37 421.571 1096.21 422.76C1095.07 423.949 1093.63 424.905 1091.9 425.63C1090.19 426.341 1088.22 426.696 1085.99 426.696ZM1130.51 399.927L1126.96 400.928C1126.62 399.927 1126.12 399.021 1125.48 398.21C1124.85 397.398 1124.01 396.753 1122.98 396.274C1121.97 395.796 1120.71 395.557 1119.2 395.557C1116.94 395.557 1115.08 396.093 1113.63 397.166C1112.18 398.239 1111.46 399.623 1111.46 401.319C1111.46 402.754 1111.95 403.921 1112.94 404.82C1113.94 405.704 1115.47 406.408 1117.55 406.929L1122.59 408.169C1125.39 408.85 1127.49 409.93 1128.88 411.409C1130.28 412.888 1130.99 414.743 1130.99 416.976C1130.99 418.86 1130.46 420.535 1129.42 421.999C1128.38 423.463 1126.92 424.616 1125.05 425.456C1123.19 426.283 1121.04 426.696 1118.59 426.696C1115.33 426.696 1112.64 425.964 1110.52 424.5C1108.41 423.021 1107.05 420.89 1106.46 418.106L1110.18 417.193C1110.65 419.179 1111.59 420.68 1112.98 421.694C1114.39 422.709 1116.24 423.217 1118.53 423.217C1121.09 423.217 1123.14 422.644 1124.68 421.499C1126.22 420.339 1126.99 418.889 1126.99 417.15C1126.99 415.801 1126.54 414.671 1125.64 413.757C1124.74 412.83 1123.38 412.148 1121.55 411.713L1116.09 410.409C1113.19 409.713 1111.05 408.611 1109.65 407.103C1108.26 405.596 1107.57 403.726 1107.57 401.493C1107.57 399.652 1108.07 398.036 1109.07 396.644C1110.07 395.238 1111.44 394.136 1113.2 393.339C1114.95 392.541 1116.95 392.143 1119.2 392.143C1122.26 392.143 1124.7 392.839 1126.53 394.23C1128.37 395.607 1129.7 397.507 1130.51 399.927ZM1170.19 426.696C1167.07 426.696 1164.37 425.971 1162.1 424.521C1159.82 423.057 1158.06 421.035 1156.81 418.454C1155.58 415.859 1154.97 412.873 1154.97 409.495C1154.97 406.132 1155.58 403.146 1156.81 400.536C1158.06 397.912 1159.78 395.861 1161.97 394.382C1164.17 392.889 1166.72 392.143 1169.6 392.143C1171.41 392.143 1173.16 392.476 1174.84 393.143C1176.52 393.795 1178.03 394.803 1179.36 396.166C1180.71 397.514 1181.78 399.217 1182.56 401.276C1183.34 403.32 1183.73 405.741 1183.73 408.539V410.452H1157.64V407.038H1179.78C1179.78 404.893 1179.34 402.965 1178.47 401.254C1177.62 399.529 1176.42 398.166 1174.88 397.166C1173.36 396.166 1171.6 395.665 1169.6 395.665C1167.48 395.665 1165.62 396.231 1164.01 397.362C1162.4 398.492 1161.14 399.985 1160.23 401.841C1159.33 403.697 1158.87 405.726 1158.86 407.93V409.974C1158.86 412.627 1159.31 414.946 1160.23 416.932C1161.16 418.904 1162.47 420.433 1164.16 421.52C1165.86 422.608 1167.87 423.151 1170.19 423.151C1171.77 423.151 1173.15 422.905 1174.34 422.412C1175.54 421.919 1176.55 421.26 1177.36 420.433C1178.19 419.592 1178.81 418.672 1179.23 417.672L1182.91 418.868C1182.4 420.274 1181.57 421.571 1180.41 422.76C1179.26 423.949 1177.83 424.905 1176.1 425.63C1174.39 426.341 1172.42 426.696 1170.19 426.696ZM1205.31 426.696C1202.33 426.696 1199.72 425.949 1197.51 424.456C1195.3 422.963 1193.59 420.919 1192.37 418.324C1191.16 415.729 1190.55 412.772 1190.55 409.452C1190.55 406.103 1191.16 403.124 1192.39 400.515C1193.64 397.905 1195.37 395.861 1197.57 394.382C1199.77 392.889 1202.33 392.143 1205.25 392.143C1207.48 392.143 1209.5 392.578 1211.31 393.447C1213.13 394.303 1214.62 395.513 1215.79 397.079C1216.98 398.63 1217.73 400.442 1218.03 402.515H1214.12C1213.71 400.631 1212.73 399.021 1211.18 397.688C1209.65 396.34 1207.69 395.665 1205.31 395.665C1203.18 395.665 1201.3 396.245 1199.66 397.405C1198.02 398.55 1196.74 400.152 1195.81 402.211C1194.9 404.255 1194.44 406.625 1194.44 409.321C1194.44 412.032 1194.89 414.432 1195.79 416.519C1196.69 418.592 1197.95 420.216 1199.57 421.39C1201.21 422.564 1203.12 423.151 1205.31 423.151C1206.79 423.151 1208.14 422.876 1209.36 422.325C1210.59 421.76 1211.62 420.962 1212.44 419.933C1213.28 418.904 1213.85 417.679 1214.14 416.258H1218.05C1217.76 418.273 1217.05 420.071 1215.9 421.651C1214.77 423.217 1213.3 424.449 1211.49 425.348C1209.69 426.246 1207.63 426.696 1205.31 426.696ZM1239.33 426.696C1236.45 426.696 1233.9 425.964 1231.68 424.5C1229.47 423.035 1227.75 421.013 1226.5 418.433C1225.26 415.838 1224.63 412.844 1224.63 409.452C1224.63 406.031 1225.26 403.023 1226.5 400.428C1227.75 397.818 1229.47 395.789 1231.68 394.339C1233.9 392.875 1236.45 392.143 1239.33 392.143C1242.22 392.143 1244.76 392.875 1246.96 394.339C1249.17 395.803 1250.89 397.833 1252.14 400.428C1253.4 403.023 1254.03 406.031 1254.03 409.452C1254.03 412.844 1253.41 415.838 1252.16 418.433C1250.91 421.013 1249.18 423.035 1246.96 424.5C1244.76 425.964 1242.22 426.696 1239.33 426.696ZM1239.33 423.151C1241.65 423.151 1243.62 422.528 1245.22 421.281C1246.83 420.035 1248.05 418.375 1248.88 416.302C1249.72 414.229 1250.14 411.945 1250.14 409.452C1250.14 406.958 1249.72 404.668 1248.88 402.58C1248.05 400.493 1246.83 398.818 1245.22 397.557C1243.62 396.296 1241.65 395.665 1239.33 395.665C1237.03 395.665 1235.06 396.296 1233.44 397.557C1231.83 398.818 1230.6 400.493 1229.76 402.58C1228.94 404.668 1228.52 406.958 1228.52 409.452C1228.52 411.945 1228.94 414.229 1229.76 416.302C1230.6 418.375 1231.83 420.035 1233.44 421.281C1235.05 422.528 1237.01 423.151 1239.33 423.151ZM1284.97 399.927L1281.43 400.928C1281.08 399.927 1280.58 399.021 1279.95 398.21C1279.31 397.398 1278.48 396.753 1277.45 396.274C1276.43 395.796 1275.17 395.557 1273.66 395.557C1271.4 395.557 1269.55 396.093 1268.1 397.166C1266.65 398.239 1265.92 399.623 1265.92 401.319C1265.92 402.754 1266.41 403.921 1267.4 404.82C1268.4 405.704 1269.94 406.408 1272.01 406.929L1277.05 408.169C1279.85 408.85 1281.95 409.93 1283.34 411.409C1284.75 412.888 1285.45 414.743 1285.45 416.976C1285.45 418.86 1284.93 420.535 1283.88 421.999C1282.84 423.463 1281.38 424.616 1279.51 425.456C1277.66 426.283 1275.5 426.696 1273.05 426.696C1269.79 426.696 1267.1 425.964 1264.99 424.5C1262.87 423.021 1261.51 420.89 1260.92 418.106L1264.64 417.193C1265.12 419.179 1266.05 420.68 1267.44 421.694C1268.85 422.709 1270.7 423.217 1272.99 423.217C1275.55 423.217 1277.61 422.644 1279.14 421.499C1280.68 420.339 1281.45 418.889 1281.45 417.15C1281.45 415.801 1281 414.671 1280.1 413.757C1279.2 412.83 1277.84 412.148 1276.01 411.713L1270.55 410.409C1267.65 409.713 1265.51 408.611 1264.12 407.103C1262.72 405.596 1262.03 403.726 1262.03 401.493C1262.03 399.652 1262.53 398.036 1263.53 396.644C1264.53 395.238 1265.91 394.136 1267.66 393.339C1269.41 392.541 1271.42 392.143 1273.66 392.143C1276.72 392.143 1279.16 392.839 1280.99 394.23C1282.83 395.607 1284.16 397.507 1284.97 399.927ZM1296.62 438.525C1295.85 438.525 1295.13 438.453 1294.47 438.308C1293.8 438.163 1293.27 438.003 1292.88 437.829L1293.92 434.415C1295.24 434.821 1296.42 434.966 1297.45 434.85C1298.48 434.749 1299.39 434.285 1300.19 433.459C1300.98 432.647 1301.69 431.4 1302.32 429.718L1303.53 426.326L1291.25 392.599H1295.45L1305.36 420.89H1305.67L1315.58 392.599H1319.78L1305.64 431.284C1305.05 432.893 1304.32 434.234 1303.45 435.307C1302.58 436.394 1301.57 437.199 1300.43 437.721C1299.29 438.257 1298.03 438.525 1296.62 438.525ZM1349.79 399.927L1346.25 400.928C1345.9 399.927 1345.41 399.021 1344.77 398.21C1344.13 397.398 1343.3 396.753 1342.27 396.274C1341.25 395.796 1339.99 395.557 1338.48 395.557C1336.22 395.557 1334.37 396.093 1332.92 397.166C1331.47 398.239 1330.74 399.623 1330.74 401.319C1330.74 402.754 1331.24 403.921 1332.22 404.82C1333.22 405.704 1334.76 406.408 1336.83 406.929L1341.88 408.169C1344.67 408.85 1346.77 409.93 1348.16 411.409C1349.57 412.888 1350.27 414.743 1350.27 416.976C1350.27 418.86 1349.75 420.535 1348.71 421.999C1347.66 423.463 1346.2 424.616 1344.33 425.456C1342.48 426.283 1340.33 426.696 1337.88 426.696C1334.61 426.696 1331.92 425.964 1329.81 424.5C1327.69 423.021 1326.34 420.89 1325.74 418.106L1329.46 417.193C1329.94 419.179 1330.87 420.68 1332.27 421.694C1333.67 422.709 1335.52 423.217 1337.81 423.217C1340.38 423.217 1342.43 422.644 1343.96 421.499C1345.5 420.339 1346.27 418.889 1346.27 417.15C1346.27 415.801 1345.82 414.671 1344.92 413.757C1344.02 412.83 1342.66 412.148 1340.83 411.713L1335.38 410.409C1332.48 409.713 1330.33 408.611 1328.94 407.103C1327.55 405.596 1326.85 403.726 1326.85 401.493C1326.85 399.652 1327.35 398.036 1328.35 396.644C1329.35 395.238 1330.73 394.136 1332.48 393.339C1334.24 392.541 1336.24 392.143 1338.48 392.143C1341.54 392.143 1343.99 392.839 1345.81 394.23C1347.65 395.607 1348.98 397.507 1349.79 399.927ZM1371.9 392.599V395.97H1355.96V392.599H1371.9ZM1360.94 384.597H1364.83V417.28C1364.83 418.672 1365.07 419.766 1365.55 420.564C1366.03 421.347 1366.65 421.905 1367.42 422.238C1368.19 422.557 1369.01 422.716 1369.88 422.716C1370.39 422.716 1370.82 422.687 1371.18 422.629C1371.55 422.557 1371.87 422.485 1372.14 422.412L1372.97 425.913C1372.59 426.058 1372.13 426.188 1371.58 426.304C1371.02 426.435 1370.34 426.5 1369.53 426.5C1368.11 426.5 1366.74 426.188 1365.42 425.565C1364.12 424.942 1363.04 424.014 1362.2 422.782C1361.36 421.549 1360.94 420.02 1360.94 418.193V384.597ZM1393.84 426.696C1390.72 426.696 1388.02 425.971 1385.75 424.521C1383.47 423.057 1381.71 421.035 1380.46 418.454C1379.23 415.859 1378.62 412.873 1378.62 409.495C1378.62 406.132 1379.23 403.146 1380.46 400.536C1381.71 397.912 1383.43 395.861 1385.62 394.382C1387.82 392.889 1390.37 392.143 1393.25 392.143C1395.06 392.143 1396.81 392.476 1398.49 393.143C1400.17 393.795 1401.68 394.803 1403.01 396.166C1404.36 397.514 1405.43 399.217 1406.21 401.276C1406.99 403.32 1407.38 405.741 1407.38 408.539V410.452H1381.29V407.038H1403.43C1403.43 404.893 1402.99 402.965 1402.12 401.254C1401.27 399.529 1400.07 398.166 1398.53 397.166C1397.01 396.166 1395.25 395.665 1393.25 395.665C1391.13 395.665 1389.27 396.231 1387.66 397.362C1386.05 398.492 1384.79 399.985 1383.88 401.841C1382.98 403.697 1382.52 405.726 1382.51 407.93V409.974C1382.51 412.627 1382.96 414.946 1383.88 416.932C1384.81 418.904 1386.12 420.433 1387.81 421.52C1389.51 422.608 1391.52 423.151 1393.84 423.151C1395.42 423.151 1396.8 422.905 1397.99 422.412C1399.19 421.919 1400.2 421.26 1401.01 420.433C1401.84 419.592 1402.46 418.672 1402.88 417.672L1406.56 418.868C1406.05 420.274 1405.22 421.571 1404.06 422.76C1402.91 423.949 1401.48 424.905 1399.75 425.63C1398.04 426.341 1396.07 426.696 1393.84 426.696ZM1415.91 426V392.599H1419.68V397.731H1420.02C1420.69 396.006 1421.8 394.651 1423.35 393.665C1424.92 392.665 1426.79 392.164 1428.98 392.164C1431.29 392.164 1433.18 392.708 1434.66 393.795C1436.15 394.868 1437.27 396.347 1438.01 398.231H1438.29C1439.04 396.376 1440.27 394.904 1441.96 393.817C1443.68 392.715 1445.75 392.164 1448.18 392.164C1451.29 392.164 1453.74 393.143 1455.53 395.1C1457.33 397.043 1458.23 399.884 1458.23 403.624V426H1454.36V403.624C1454.36 400.986 1453.69 399.007 1452.34 397.688C1450.99 396.369 1449.21 395.709 1447.01 395.709C1444.46 395.709 1442.49 396.492 1441.12 398.057C1439.74 399.623 1439.05 401.609 1439.05 404.016V426H1435.09V403.276C1435.09 401.015 1434.46 399.188 1433.2 397.796C1431.94 396.405 1430.16 395.709 1427.87 395.709C1426.34 395.709 1424.95 396.086 1423.72 396.84C1422.5 397.593 1421.54 398.645 1420.83 399.993C1420.13 401.326 1419.78 402.863 1419.78 404.603V426H1415.91Z" fill="white"/>
<path fill-rule="evenodd" clip-rule="evenodd" d="M410.653 344.082C408.758 345.262 406.536 346.096 403.987 346.567C401.502 346.984 398.926 347.192 396.26 347.192C393.649 347.192 391.219 347.13 388.969 347.011C385.06 346.894 381.087 346.421 377.061 345.589C373.088 344.762 369.27 343.367 365.598 341.415C366.659 339.992 367.82 339.041 369.062 338.568C370.367 338.097 371.609 337.471 372.79 336.701C373.506 334.75 374.158 332.346 374.748 329.501C375.401 326.715 376.172 323.967 377.061 321.237C378.005 318.508 379.283 316.26 380.879 314.482C382.539 312.767 384.761 311.933 387.545 311.995C386.601 315.135 385.92 318.19 385.504 321.148C385.087 324.168 384.761 327.16 384.525 330.125C384.288 333.146 383.899 336.166 383.373 339.193C385.677 336.819 387.872 334.007 389.948 330.75C392.079 327.487 394.211 324.376 396.342 321.418C398.537 318.391 400.85 316.141 403.28 314.662C405.709 313.121 408.404 312.884 411.369 313.947C405.738 323.37 400.523 332.764 395.725 342.123C398.564 340.582 401.349 338.658 404.078 336.346C406.744 333.978 409.41 331.639 412.077 329.326C414.805 326.952 417.591 325.002 420.429 323.459C423.277 321.98 426.268 321.301 429.408 321.418C430.712 322.245 431.983 323.078 433.226 323.903C430.151 325.618 427.394 327.723 424.964 330.215C422.534 332.645 420.221 335.103 418.035 337.59C415.777 340.082 413.319 342.242 410.653 344.082Z" fill="white"/>
<path fill-rule="evenodd" clip-rule="evenodd" d="M348.176 311.905C348.294 310.899 348.176 309.802 347.823 308.615C347.46 307.435 347.197 306.31 347.016 305.239C346.781 304.171 346.989 303.316 347.641 302.664C351.134 303.727 353.626 305.268 355.105 307.282C356.646 309.358 357.535 311.759 357.771 314.483C358.008 317.211 357.979 320.05 357.681 323.015C357.389 325.98 357.181 328.882 357.064 331.723C356.945 334.569 357.236 337.173 357.953 339.548C364.229 343.576 370.451 346.269 376.617 347.637C382.719 348.935 388.761 349.379 394.746 348.97C400.731 348.554 406.627 347.755 412.431 346.567C418.236 345.38 423.958 344.283 429.589 343.277C431.601 342.923 433.823 342.568 436.255 342.214C438.678 341.86 441.024 341.743 443.274 341.86C445.523 341.978 447.42 342.596 448.961 343.721C450.44 344.79 451.273 346.631 451.446 349.233C440.844 350.54 430.442 352.934 420.257 356.434C410.118 359.872 400.079 363.989 390.121 368.786C380.227 373.586 370.367 378.591 360.528 383.806V430.911H336.35V384.077C333.393 372.996 332.768 361.468 334.491 349.498C336.205 337.472 340.768 324.938 348.176 311.905Z" fill="white"/>
<path fill-rule="evenodd" clip-rule="evenodd" d="M247.301 322.038C249.37 323.342 251.8 324.231 254.584 324.704C257.314 325.237 260.126 325.502 263.027 325.502C265.875 325.502 268.512 325.418 270.944 325.237C275.207 325.12 279.533 324.613 283.913 323.724C288.239 322.836 292.42 321.328 296.446 319.197C295.266 317.656 293.988 316.614 292.629 316.086C291.204 315.551 289.843 314.899 288.538 314.128C287.767 311.934 287.059 309.33 286.407 306.31C285.69 303.228 284.866 300.206 283.913 297.241C282.907 294.276 281.519 291.846 279.741 289.951C277.964 288 275.56 287.084 272.54 287.201C273.546 290.575 274.289 293.896 274.762 297.152C275.178 300.471 275.534 303.727 275.832 306.929C276.124 310.192 276.54 313.475 277.075 316.794C274.581 314.247 272.187 311.198 269.874 307.643C267.561 304.088 265.222 300.679 262.855 297.422C260.542 294.159 258.057 291.7 255.391 290.042C252.724 288.382 249.786 288.145 246.585 289.333C252.689 299.582 258.383 309.774 263.653 319.905C260.513 318.246 257.494 316.17 254.584 313.683C251.626 311.136 248.689 308.587 245.786 306.04C242.884 303.436 239.864 301.331 236.727 299.728C233.643 298.067 230.386 297.305 226.95 297.422C225.581 298.366 224.22 299.283 222.86 300.172C226.233 302.067 229.227 304.351 231.838 307.017C234.441 309.684 236.961 312.35 239.393 315.016C241.815 317.747 244.453 320.086 247.301 322.038Z" fill="white"/>
<path fill-rule="evenodd" clip-rule="evenodd" d="M315.293 287.11C315.173 285.985 315.293 284.798 315.646 283.555C316.062 282.251 316.389 281.035 316.626 279.91C316.798 278.786 316.563 277.833 315.909 277.064C312.12 278.196 309.396 279.883 307.738 282.132C306.078 284.382 305.098 286.993 304.8 289.951C304.565 292.916 304.599 295.998 304.89 299.199C305.244 302.456 305.488 305.622 305.607 308.706C305.779 311.843 305.454 314.691 304.628 317.238C297.754 321.619 290.997 324.529 284.358 325.946C277.665 327.432 271.091 327.931 264.633 327.459C258.112 327.043 251.683 326.189 245.343 324.883C239.066 323.578 232.845 322.362 226.678 321.237C224.548 320.884 222.144 320.494 219.478 320.085C216.876 319.725 214.327 319.606 211.842 319.725C209.348 319.842 207.279 320.53 205.62 321.772C204.015 322.953 203.126 324.938 202.954 327.724C214.444 329.147 225.735 331.757 236.809 335.548C247.892 339.34 258.828 343.839 269.612 349.054C280.394 354.267 291.143 359.719 301.87 365.413V431H328.18V365.676C331.381 353.588 332.026 341.027 330.13 327.994C328.297 314.954 323.346 301.331 315.293 287.11Z" fill="white"/>
<path fill-rule="evenodd" clip-rule="evenodd" d="M335.824 322.126C335.76 322.064 335.58 320.468 335.289 317.328C335.053 314.191 335.198 310.01 335.734 304.795C336.204 299.582 337.538 293.831 339.733 287.555C341.864 281.271 345.302 274.959 350.044 268.62C359.702 256.123 366.958 245.102 371.819 235.562C376.617 226.022 378.839 217.516 378.485 210.052C378.54 210.17 378.631 211.802 378.748 214.941C378.865 218.023 378.839 221.96 378.657 226.765C378.485 231.618 377.95 236.659 377.061 241.874C376.172 247.025 374.686 251.768 372.617 256.094C372.672 255.977 374.304 254.761 377.505 252.448C380.643 250.136 384.879 247.352 390.211 244.096C395.489 240.777 401.383 237.604 407.896 234.582C414.416 231.5 421.055 229.188 427.811 227.654C433.199 226.404 438.233 224.335 442.92 221.432C447.656 218.467 451.954 215.175 455.808 211.565C459.716 207.948 463.063 204.428 465.847 200.991C468.631 197.61 470.798 194.824 472.332 192.631C473.818 190.381 474.589 189.229 474.644 189.166C474.706 189.229 474.319 190.562 473.492 193.166C472.721 195.713 471.18 199.032 468.867 203.122C466.555 207.267 463.181 211.711 458.737 216.453C454.293 221.189 448.454 225.814 441.225 230.32C433.997 234.764 425.081 238.61 414.48 241.874C401.148 245.838 389.886 250.518 380.707 255.913C371.576 261.365 364.055 267.44 358.125 274.133C352.266 280.889 347.579 288.291 344.086 296.352C340.593 304.351 337.836 312.94 335.824 322.126Z" fill="white"/>
<path fill-rule="evenodd" clip-rule="evenodd" d="M337.42 271.112C337.357 270.995 337.157 269.065 336.794 265.335C336.44 261.663 336.115 256.739 335.824 250.58C335.525 244.478 335.461 237.757 335.642 230.403C335.878 223.119 336.559 215.829 337.683 208.545C338.815 201.253 340.648 194.588 343.197 188.548C345.682 182.5 349.064 177.674 353.327 174.057C353.272 174 352.23 174.292 350.216 174.946C348.266 175.598 345.863 176.958 343.015 179.034C340.177 181.167 337.42 184.395 334.753 188.722C332.087 193.047 330.011 198.824 328.532 206.053C327.053 213.342 326.664 222.467 327.38 233.43C327.316 233.368 326.164 232.479 323.907 230.764C321.658 228.987 318.638 226.765 314.847 224.098C311.11 221.432 306.939 218.704 302.313 215.918C297.688 213.134 292.981 210.676 288.184 208.545C283.441 206.351 278.942 204.899 274.671 204.185C269.401 203.296 263.769 201.636 257.784 199.213C251.8 196.721 245.939 193.637 240.191 189.964C234.504 186.29 229.372 182.173 224.809 177.612C220.311 173.049 216.875 168.252 214.507 163.218C214.507 163.273 215.033 164.434 216.103 166.682C217.228 168.995 218.915 171.953 221.173 175.57C223.422 179.244 226.324 183.18 229.879 187.389C233.371 191.658 237.524 195.775 242.322 199.741C247.119 203.712 252.634 207.15 258.855 210.052L198.591 215.029C198.71 215.029 200.459 215.029 203.842 215.029C207.278 214.967 211.777 214.967 217.345 215.029C222.915 215.029 228.99 215.12 235.565 215.294C242.204 215.412 248.724 215.619 255.118 215.918C261.521 216.217 267.27 216.627 272.358 217.162C277.456 217.696 281.31 218.376 283.912 219.21C287.766 220.453 292.274 222.522 297.425 225.431C302.577 228.334 307.827 231.98 313.16 236.36C318.493 240.804 323.317 245.928 327.643 251.734C331.97 257.544 335.226 264.002 337.42 271.112Z" fill="white"/>
<path fill-rule="evenodd" clip-rule="evenodd" d="M272.277 276.98C272.158 276.98 271.207 275.556 269.43 272.71C267.652 269.925 265.547 265.627 263.117 259.823C260.633 253.955 258.383 246.58 256.361 237.693C256.306 237.693 256.035 238.582 255.563 240.359C255.092 242.074 254.702 244.504 254.412 247.651C254.057 250.726 254.112 254.345 254.584 258.49C255.064 262.642 256.215 267.141 258.057 272.001C257.993 272.001 256.688 271.821 254.139 271.466C251.592 271.112 248.216 270.488 244.009 269.6C239.747 268.773 235.095 267.612 230.061 266.133C224.963 264.711 219.84 262.905 214.679 260.712C209.529 258.579 204.758 256.003 200.369 252.983C195.925 250.018 192.288 246.609 189.441 242.762C189.378 242.817 189.649 243.651 190.238 245.247C190.774 246.845 191.899 248.921 193.621 251.469C195.335 254.073 197.946 256.801 201.439 259.649C204.931 262.552 209.584 265.273 215.396 267.822C215.332 267.822 214.18 268.002 211.923 268.355C209.674 268.711 206.743 269.244 203.125 269.953C199.516 270.723 195.571 271.765 191.309 273.064C187.037 274.314 182.866 275.821 178.775 277.598C174.685 279.376 171.075 281.479 167.929 283.909C164.791 286.276 162.479 289.007 161 292.089C161 292.027 162.396 291.165 165.181 289.506C167.964 287.908 172.227 286.042 177.978 283.909C183.726 281.715 191.01 279.73 199.843 277.952C208.666 276.175 219.097 275.112 231.122 274.758C243.148 274.342 256.869 275.085 272.277 276.98Z" fill="white"/>
<path fill-rule="evenodd" clip-rule="evenodd" d="M410.209 304.615C410.209 304.56 410.861 303.844 412.168 302.484C413.528 301.177 415.515 299.643 418.117 297.866C420.666 296.143 423.868 294.602 427.721 293.241C431.568 291.881 436.012 291.138 441.053 291.019C446.087 290.902 451.69 291.819 457.849 293.776C457.786 293.776 456.898 293.685 455.182 293.506C453.467 293.331 451.245 293.241 448.517 293.241C445.788 293.241 442.885 293.477 439.81 293.95C436.726 294.366 433.824 295.137 431.095 296.263C428.374 297.45 426.152 299.108 424.429 301.24C424.548 301.24 426.297 301.567 429.671 302.219C433.054 302.871 437.469 304.052 442.921 305.774C448.426 307.489 454.384 309.864 460.778 312.884C467.181 315.968 473.464 319.904 479.623 324.703C479.561 324.584 477.908 323.605 474.645 321.772C471.388 319.932 466.708 317.773 460.606 315.28C454.502 312.794 447.212 310.51 438.74 308.44C430.206 306.427 420.702 305.15 410.209 304.615Z" fill="white"/>
<path fill-rule="evenodd" clip-rule="evenodd" d="M233.435 133L238.323 142.86L249.251 144.464L241.343 152.192L243.211 163.037L233.435 157.886L223.658 163.037L225.527 152.192L217.618 144.464L228.546 142.86L233.435 133Z" fill="white"/>
<path fill-rule="evenodd" clip-rule="evenodd" d="M213.529 220.627L218.235 230.229L228.81 231.737L221.174 239.208L222.951 249.782L213.529 244.803L204.015 249.782L205.792 239.208L198.147 231.737L208.731 230.229L213.529 220.627Z" fill="white"/>
<path fill-rule="evenodd" clip-rule="evenodd" d="M462.645 252.004L466.472 259.733L474.997 260.982L468.776 266.934L470.2 275.466L462.645 271.466L455 275.466L456.424 266.934L450.293 260.982L458.827 259.733L462.645 252.004Z" fill="white"/>
<path fill-rule="evenodd" clip-rule="evenodd" d="M483.441 198.769L486.551 205.074L493.489 206.142L488.51 211.03L489.662 218.052L483.441 214.676L477.219 218.052L478.38 211.03L473.311 206.142L480.33 205.074L483.441 198.769Z" fill="white"/>
<path fill-rule="evenodd" clip-rule="evenodd" d="M406.209 178.59L408.612 183.569L414.117 184.278L410.118 188.187L411.097 193.61L406.209 191.033L401.321 193.61L402.21 188.187L398.301 184.278L403.815 183.569L406.209 178.59Z" fill="white"/>
<path fill-rule="evenodd" clip-rule="evenodd" d="M454.556 159.219L457.758 165.614L464.777 166.682L459.717 171.661L460.869 178.771L454.556 175.391L448.163 178.771L449.405 171.661L444.254 166.682L451.364 165.614L454.556 159.219Z" fill="white"/>
<path fill-rule="evenodd" clip-rule="evenodd" d="M461.049 317.682L464.332 324.348L471.805 325.502L466.381 330.66L467.624 338.124L461.049 334.569L454.383 338.124L455.626 330.66L450.293 325.502L457.666 324.348L461.049 317.682Z" fill="white"/>
<path fill-rule="evenodd" clip-rule="evenodd" d="M385.413 275.377L389.676 284L399.189 285.424L392.26 292.173L393.857 301.685L385.413 297.152L376.789 301.685L378.485 292.173L371.547 285.424L381.06 284L385.413 275.377Z" fill="white"/>
<path fill-rule="evenodd" clip-rule="evenodd" d="M422.833 249.783L425.59 255.38L431.72 256.269L427.277 260.622L428.338 266.76L422.833 263.912L417.228 266.76L418.298 260.622L413.854 256.269L420.076 255.38L422.833 249.783Z" fill="white"/>
<path fill-rule="evenodd" clip-rule="evenodd" d="M479.269 287.375L482.471 293.866L489.581 294.839L484.421 299.906L485.582 306.928L479.269 303.643L472.867 306.928L474.109 299.906L468.958 294.839L476.068 293.866L479.269 287.375Z" fill="white"/>
<path fill-rule="evenodd" clip-rule="evenodd" d="M430.297 195.742L432.609 200.456L437.761 201.165L434.033 204.809L434.922 209.962L430.297 207.475L425.672 209.962L426.56 204.809L422.833 201.165L427.984 200.456L430.297 195.742Z" fill="white"/>
<path fill-rule="evenodd" clip-rule="evenodd" d="M396.17 206.323L398.836 211.565L404.613 212.454L400.433 216.544L401.412 222.321L396.17 219.564L391.01 222.321L391.989 216.544L387.817 212.454L393.594 211.565L396.17 206.323Z" fill="white"/>
<path fill-rule="evenodd" clip-rule="evenodd" d="M360.529 193.345L364.438 201.344L373.325 202.677L366.931 208.898L368.437 217.786L360.529 213.607L352.53 217.786L354.044 208.898L347.642 202.677L356.529 201.344L360.529 193.345Z" fill="white"/>
<path fill-rule="evenodd" clip-rule="evenodd" d="M357.154 227.292L359.458 232.006L364.618 232.716L360.882 236.36L361.771 241.513L357.154 239.026L352.529 241.513L353.418 236.36L349.682 232.716L354.842 232.006L357.154 227.292Z" fill="white"/>
<path fill-rule="evenodd" clip-rule="evenodd" d="M377.152 153.704L379.546 158.683L385.06 159.481L381.151 163.301L382.04 168.725L377.152 166.147L372.263 168.725L373.234 163.301L369.234 159.481L374.748 158.683L377.152 153.704Z" fill="white"/>
<path fill-rule="evenodd" clip-rule="evenodd" d="M328.088 161.35L331.198 167.662L338.218 168.725L333.157 173.613L334.309 180.633L328.088 177.348L321.866 180.633L323.018 173.613L317.958 168.725L324.977 167.662L328.088 161.35Z" fill="white"/>
<path fill-rule="evenodd" clip-rule="evenodd" d="M273.338 174.237L276.096 179.834L282.226 180.723L277.782 185.076L278.853 191.214L273.338 188.366L267.743 191.214L268.804 185.076L264.36 180.723L270.582 179.834L273.338 174.237Z" fill="white"/>
<path fill-rule="evenodd" clip-rule="evenodd" d="M274.137 149.261L276.631 154.331L282.226 155.129L278.136 159.128L279.115 164.726L274.137 162.059L269.077 164.726L270.056 159.128L265.966 155.129L271.561 154.331L274.137 149.261Z" fill="white"/>
<path fill-rule="evenodd" clip-rule="evenodd" d="M176.11 290.575L179.574 297.596L187.401 298.755L181.705 304.171L183.039 311.905L176.11 308.261L169.181 311.905L170.514 304.171L164.909 298.755L172.646 297.596L176.11 290.575Z" fill="white"/>
<path fill-rule="evenodd" clip-rule="evenodd" d="M177.796 247.469L181.178 254.491L188.905 255.65L183.31 261.066L184.643 268.711L177.796 265.065L170.867 268.711L172.2 261.066L166.596 255.65L174.331 254.491L177.796 247.469Z" fill="white"/>
<path fill-rule="evenodd" clip-rule="evenodd" d="M211.034 293.241L213.973 299.2L220.548 300.172L215.841 304.795L216.902 311.372L211.034 308.261L205.176 311.372L206.327 304.795L201.53 300.172L208.105 299.2L211.034 293.241Z" fill="white"/>
<path fill-rule="evenodd" clip-rule="evenodd" d="M297.426 238.138L300.183 243.735L306.314 244.624L301.87 248.985L302.94 255.115L297.426 252.269L291.83 255.115L292.891 248.985L288.447 244.624L294.578 243.735L297.426 238.138Z" fill="white"/>
<path fill-rule="evenodd" clip-rule="evenodd" d="M299.023 261.78L301.426 266.669L306.85 267.467L302.94 271.287L303.829 276.619L299.023 274.043L294.225 276.619L295.114 271.287L291.205 267.467L296.629 266.669L299.023 261.78Z" fill="white"/>
</svg>
