<?xml version="1.0" encoding="utf-8"?>
<!-- Generator: Adobe Illustrator 25.0.0, SVG Export Plug-In . SVG Version: 6.00 Build 0)  -->
<svg version="1.1" id="Layer_1" xmlns="http://www.w3.org/2000/svg" xmlns:xlink="http://www.w3.org/1999/xlink" x="0px" y="0px"
	 viewBox="0 0 173 42" style="enable-background:new 0 0 173 42;" xml:space="preserve">
<style type="text/css">
	.st0{fill:#00538E;}
	.st1{fill-rule:evenodd;clip-rule:evenodd;fill:#00538E;}
	.st2{fill-rule:evenodd;clip-rule:evenodd;fill:#E9262C;}
</style>
<g>
	<path class="st0" d="M59.6,24.8h-2.8V8.3h2.8V24.8z M68.4,24.8H57.8v-2.4h10.7V24.8z M66.9,17.6h-9.2v-2.4h9.2V17.6z M68.4,10.8
		H57.8V8.3h10.7V10.8z M76.4,24.8h-3.5l-4.2-11.9h3l2,6.5l1,3.6l1-3.6l2-6.5h3L76.4,24.8z M86.6,25c-1.1,0-2.2-0.3-3-0.8
		c-0.9-0.5-1.5-1.2-2-2.2c-0.5-0.9-0.7-2-0.7-3.3c0-1.3,0.2-2.3,0.7-3.3c0.5-0.9,1.2-1.7,2-2.2c0.9-0.5,1.9-0.8,3-0.8
		c1.2,0,2.2,0.3,3,0.8c0.9,0.5,1.6,1.2,2.1,2.2c0.5,0.9,0.7,2,0.7,3.3c0,1.2-0.2,2.3-0.7,3.3c-0.5,0.9-1.2,1.7-2.1,2.2
		C88.8,24.7,87.8,25,86.6,25z M86.6,22.7c0.6,0,1.1-0.1,1.6-0.4c0.5-0.3,0.8-0.7,1.1-1.3c0.3-0.6,0.4-1.3,0.4-2.2
		c0-0.9-0.1-1.7-0.4-2.3c-0.2-0.6-0.6-1-1.1-1.3c-0.4-0.3-1-0.4-1.6-0.4c-0.6,0-1.1,0.1-1.5,0.4c-0.5,0.3-0.8,0.7-1.1,1.3
		c-0.2,0.6-0.4,1.3-0.4,2.3c0,0.9,0.1,1.6,0.4,2.2c0.3,0.6,0.6,1,1.1,1.3C85.6,22.6,86.1,22.7,86.6,22.7z M97.6,24.8h-2.7V8.3h2.7
		V24.8z M106.9,24.8h-3.5l-4.2-11.9h3l2,6.5l1,3.6l1-3.6l2-6.5h3L106.9,24.8z M117.4,25c-1.2,0-2.2-0.3-3.1-0.8
		c-0.9-0.5-1.6-1.2-2.1-2.2c-0.5-0.9-0.7-2-0.7-3.3c0-1.3,0.2-2.4,0.7-3.3c0.5-0.9,1.2-1.6,2-2.2c0.9-0.5,1.9-0.8,3-0.8
		c1.2,0,2.2,0.2,3,0.7c0.8,0.5,1.5,1.2,1.9,2c0.4,0.8,0.6,1.8,0.6,2.9c0,0.2,0,0.5,0,0.7c0,0.2,0,0.4-0.1,0.5h-9.1v-1.8h7.3
		l-0.5,0.6c0-1.2-0.3-2-0.8-2.6c-0.5-0.6-1.3-0.9-2.3-0.9c-0.9,0-1.7,0.3-2.3,0.9c-0.6,0.6-0.8,1.5-0.8,2.8V19c0,0.8,0.1,1.5,0.4,2
		c0.3,0.6,0.7,1,1.2,1.3c0.5,0.3,1.1,0.4,1.7,0.4c0.7,0,1.3-0.1,1.7-0.3c0.5-0.2,0.8-0.5,1.1-0.8c0.3-0.3,0.5-0.7,0.6-1l1.7,1.8
		c-0.4,0.7-1.1,1.3-1.9,1.8C119.8,24.7,118.7,25,117.4,25z M132.7,24.8h-5.9v-2.4h5.5c1.1,0,2-0.2,2.5-0.6c0.5-0.4,0.8-1,0.8-1.8
		c0-0.6-0.1-1-0.4-1.4c-0.3-0.3-0.6-0.6-1.1-0.8c-0.5-0.2-1-0.2-1.7-0.2h-5.6v-2.4h5.3c0.6,0,1-0.1,1.4-0.2c0.4-0.1,0.7-0.4,1-0.7
		c0.2-0.3,0.4-0.8,0.4-1.3c0-0.6-0.1-1-0.4-1.3c-0.2-0.3-0.6-0.6-1-0.7c-0.4-0.1-0.9-0.2-1.5-0.2h-5.2V8.3h6.1c1.1,0,2,0.2,2.8,0.5
		c0.7,0.4,1.2,0.9,1.6,1.5c0.4,0.6,0.5,1.3,0.5,2.2c0,0.6-0.1,1.1-0.3,1.5c-0.2,0.4-0.5,0.8-0.9,1.1c-0.4,0.3-0.8,0.6-1.4,0.8
		c-0.5,0.2-1.1,0.3-1.8,0.4c1.3,0.1,2.3,0.3,3,0.7c0.8,0.4,1.3,0.9,1.6,1.5c0.3,0.6,0.5,1.2,0.5,2c0,1-0.2,1.8-0.7,2.4
		c-0.5,0.6-1.1,1.1-2,1.4C134.9,24.6,133.9,24.8,132.7,24.8z M128.1,24.8h-2.8V8.3h2.8V24.8z M147.7,19.6H142v-2.4h5.4
		c0.6,0,1.2-0.1,1.7-0.3c0.5-0.2,1-0.5,1.3-1c0.3-0.5,0.5-1.1,0.5-1.8c0-0.9-0.2-1.5-0.5-2c-0.3-0.5-0.8-0.8-1.3-1
		c-0.5-0.2-1.1-0.3-1.7-0.3H142V8.3h5.7c1.2,0,2.2,0.2,3.1,0.6c0.9,0.4,1.7,1,2.2,1.9c0.6,0.8,0.8,1.9,0.8,3.2
		c0,1.2-0.3,2.3-0.8,3.1c-0.5,0.8-1.3,1.4-2.2,1.8C149.9,19.4,148.9,19.6,147.7,19.6z M143.8,24.8H141V8.3h2.8V24.8z M158.7,24.8
		h-2.8V8.3h3.4l3.5,7.2l1.6,4.2l1.6-4.2l3.5-7.2h3.4v16.4h-2.8V17l0.3-5.4l-1.9,4.7l-2.8,5.6h-2.8l-2.8-5.6l-1.9-4.7l0.4,5.4V24.8z"
		/>
	<path class="st0" d="M58.8,39.4h-1.7v-5.9h1.8c0.6,0,1,0.1,1.4,0.3c0.4,0.2,0.7,0.6,0.9,1c0.2,0.4,0.3,1,0.3,1.6
		c0,0.6-0.1,1.1-0.3,1.6c-0.2,0.4-0.5,0.8-0.9,1C59.9,39.3,59.4,39.4,58.8,39.4z M57.6,39h1.2c0.5,0,0.9-0.1,1.3-0.3
		c0.3-0.2,0.6-0.5,0.8-0.9C61,37.4,61,37,61,36.5c0-0.5-0.1-0.9-0.3-1.3c-0.2-0.4-0.4-0.6-0.7-0.8c-0.3-0.2-0.7-0.3-1.2-0.3h-1.3V39
		z M64.5,39.5c-0.4,0-0.8-0.1-1.1-0.3c-0.3-0.2-0.5-0.5-0.7-0.8c-0.2-0.3-0.2-0.7-0.2-1.2c0-0.4,0.1-0.8,0.2-1.2
		c0.2-0.3,0.4-0.6,0.7-0.8c0.3-0.2,0.6-0.3,1-0.3c0.2,0,0.5,0,0.7,0.1c0.2,0.1,0.4,0.2,0.6,0.4c0.2,0.2,0.3,0.4,0.4,0.7
		c0.1,0.3,0.2,0.6,0.2,1v0.3h-3.4v-0.4h2.9c0-0.3-0.1-0.5-0.2-0.8c-0.1-0.2-0.3-0.4-0.5-0.5c-0.2-0.1-0.4-0.2-0.7-0.2
		c-0.3,0-0.5,0.1-0.7,0.2c-0.2,0.1-0.4,0.3-0.5,0.6c-0.1,0.2-0.2,0.5-0.2,0.8v0.3c0,0.3,0.1,0.7,0.2,0.9c0.1,0.3,0.3,0.5,0.5,0.6
		c0.2,0.1,0.5,0.2,0.8,0.2c0.2,0,0.4,0,0.5-0.1c0.2-0.1,0.3-0.2,0.4-0.3c0.1-0.1,0.2-0.2,0.2-0.4l0.5,0.2c-0.1,0.2-0.2,0.4-0.3,0.5
		c-0.2,0.2-0.3,0.3-0.6,0.4C65.1,39.5,64.8,39.5,64.5,39.5z M69.2,39.5c-0.4,0-0.7-0.1-1-0.3c-0.3-0.2-0.5-0.5-0.7-0.8
		s-0.2-0.7-0.2-1.2c0-0.4,0.1-0.8,0.2-1.2c0.2-0.3,0.4-0.6,0.7-0.8c0.3-0.2,0.6-0.3,1-0.3c0.3,0,0.6,0.1,0.8,0.2
		c0.2,0.1,0.4,0.3,0.6,0.5c0.2,0.2,0.3,0.4,0.3,0.7h-0.5c-0.1-0.2-0.2-0.5-0.4-0.6c-0.2-0.2-0.5-0.3-0.8-0.3c-0.3,0-0.5,0.1-0.7,0.2
		c-0.2,0.2-0.4,0.4-0.5,0.6c-0.1,0.3-0.2,0.6-0.2,0.9c0,0.4,0.1,0.7,0.2,0.9c0.1,0.3,0.3,0.5,0.5,0.6c0.2,0.2,0.5,0.2,0.8,0.2
		c0.2,0,0.4,0,0.5-0.1c0.2-0.1,0.3-0.2,0.4-0.3c0.1-0.1,0.2-0.3,0.2-0.5h0.5c0,0.3-0.1,0.5-0.3,0.7c-0.1,0.2-0.3,0.4-0.6,0.5
		C69.7,39.5,69.5,39.5,69.2,39.5z M73.6,39.5c-0.4,0-0.7-0.1-1-0.3c-0.3-0.2-0.5-0.5-0.7-0.8c-0.2-0.3-0.2-0.7-0.2-1.2
		c0-0.5,0.1-0.8,0.2-1.2c0.2-0.3,0.4-0.6,0.7-0.8c0.3-0.2,0.6-0.3,1-0.3c0.4,0,0.7,0.1,1,0.3c0.3,0.2,0.5,0.5,0.7,0.8
		c0.2,0.3,0.2,0.7,0.2,1.2c0,0.4-0.1,0.8-0.2,1.2c-0.2,0.3-0.4,0.6-0.7,0.8C74.4,39.4,74,39.5,73.6,39.5z M73.6,39.1
		c0.3,0,0.6-0.1,0.8-0.2c0.2-0.2,0.4-0.4,0.5-0.7c0.1-0.3,0.2-0.6,0.2-0.9c0-0.3-0.1-0.6-0.2-0.9c-0.1-0.3-0.3-0.5-0.5-0.7
		c-0.2-0.2-0.5-0.2-0.8-0.2c-0.3,0-0.6,0.1-0.8,0.2c-0.2,0.2-0.4,0.4-0.5,0.7c-0.1,0.3-0.2,0.6-0.2,0.9c0,0.3,0.1,0.6,0.2,0.9
		c0.1,0.3,0.3,0.5,0.5,0.7C73.1,39,73.3,39.1,73.6,39.1z M78.3,39.5c-0.4,0-0.7-0.1-0.9-0.3c-0.3-0.2-0.5-0.5-0.6-0.8
		c-0.2-0.3-0.2-0.7-0.2-1.2c0-0.5,0.1-0.8,0.2-1.2c0.2-0.3,0.4-0.6,0.6-0.8c0.3-0.2,0.6-0.3,1-0.3c0.3,0,0.5,0,0.7,0.1
		c0.2,0.1,0.3,0.2,0.4,0.3c0.1,0.1,0.2,0.3,0.2,0.4h0v-2.3h0.5v5.9h-0.5v-0.8h-0.1c-0.1,0.1-0.1,0.3-0.3,0.4
		c-0.1,0.1-0.3,0.3-0.4,0.4C78.8,39.5,78.5,39.5,78.3,39.5z M78.3,39.1c0.3,0,0.5-0.1,0.7-0.2c0.2-0.2,0.4-0.4,0.5-0.6
		c0.1-0.3,0.2-0.6,0.2-0.9c0-0.4-0.1-0.7-0.2-0.9c-0.1-0.3-0.3-0.5-0.5-0.6c-0.2-0.2-0.4-0.2-0.7-0.2c-0.3,0-0.5,0.1-0.7,0.2
		c-0.2,0.2-0.4,0.4-0.5,0.6C77,36.6,77,36.9,77,37.2c0,0.3,0.1,0.7,0.2,0.9c0.1,0.3,0.3,0.5,0.5,0.7C77.8,39,78,39.1,78.3,39.1z
		 M81.6,39.4V35h0.5v4.4H81.6z M81.9,34.3c-0.1,0-0.2,0-0.3-0.1c-0.1-0.1-0.1-0.2-0.1-0.3c0-0.1,0-0.2,0.1-0.3
		c0.1-0.1,0.2-0.1,0.3-0.1c0.1,0,0.2,0,0.3,0.1c0.1,0.1,0.1,0.2,0.1,0.3c0,0.1,0,0.2-0.1,0.3C82.1,34.2,82,34.3,81.9,34.3z M84,36.7
		v2.7h-0.5V35H84v0.7h0c0.1-0.2,0.3-0.4,0.5-0.5c0.2-0.1,0.5-0.2,0.8-0.2c0.3,0,0.6,0.1,0.8,0.2c0.2,0.1,0.4,0.3,0.5,0.5
		c0.1,0.2,0.2,0.5,0.2,0.9v2.8h-0.5v-2.8c0-0.4-0.1-0.6-0.3-0.9c-0.2-0.2-0.5-0.3-0.8-0.3c-0.2,0-0.4,0-0.6,0.1
		c-0.2,0.1-0.3,0.2-0.4,0.4C84.1,36.2,84,36.4,84,36.7z M89.8,41.2c-0.3,0-0.6,0-0.8-0.1c-0.2-0.1-0.4-0.2-0.6-0.3
		c-0.2-0.1-0.3-0.3-0.4-0.4l0.4-0.3c0.1,0.1,0.1,0.2,0.3,0.3c0.1,0.1,0.2,0.2,0.4,0.3c0.2,0.1,0.4,0.1,0.6,0.1
		c0.4,0,0.7-0.1,0.9-0.3c0.2-0.2,0.4-0.5,0.4-0.9v-1h0c-0.1,0.1-0.1,0.3-0.3,0.4c-0.1,0.1-0.3,0.2-0.4,0.3c-0.2,0.1-0.4,0.1-0.7,0.1
		c-0.4,0-0.7-0.1-0.9-0.3c-0.3-0.2-0.5-0.4-0.6-0.7c-0.2-0.3-0.2-0.7-0.2-1.2c0-0.4,0.1-0.8,0.2-1.2c0.2-0.3,0.4-0.6,0.6-0.8
		c0.3-0.2,0.6-0.3,1-0.3c0.3,0,0.5,0,0.7,0.1c0.2,0.1,0.3,0.2,0.4,0.3c0.1,0.1,0.2,0.3,0.3,0.4h0.1V35h0.5v4.5
		c0,0.4-0.1,0.7-0.2,0.9c-0.2,0.2-0.4,0.4-0.6,0.5C90.5,41.1,90.2,41.2,89.8,41.2z M89.8,38.9c0.3,0,0.5-0.1,0.7-0.2
		c0.2-0.1,0.4-0.3,0.5-0.6c0.1-0.3,0.2-0.6,0.2-0.9c0-0.3-0.1-0.6-0.2-0.9c-0.1-0.3-0.3-0.5-0.5-0.6c-0.2-0.2-0.4-0.2-0.7-0.2
		c-0.3,0-0.5,0.1-0.7,0.2c-0.2,0.2-0.4,0.4-0.5,0.6c-0.1,0.3-0.2,0.6-0.2,0.9c0,0.3,0.1,0.6,0.2,0.9c0.1,0.3,0.3,0.5,0.5,0.6
		C89.3,38.9,89.5,38.9,89.8,38.9z M97,35v0.4h-2.1V35H97z M95.6,34h0.5v4.3c0,0.2,0,0.3,0.1,0.4c0.1,0.1,0.1,0.2,0.2,0.2
		c0.1,0,0.2,0.1,0.3,0.1c0.1,0,0.1,0,0.2,0c0,0,0.1,0,0.1,0l0.1,0.5c0,0-0.1,0-0.2,0.1c-0.1,0-0.2,0-0.3,0c-0.2,0-0.4,0-0.5-0.1
		c-0.2-0.1-0.3-0.2-0.4-0.4c-0.1-0.2-0.2-0.4-0.2-0.6V34z M98.8,36.7v2.7h-0.5v-5.9h0.5v2.2h0c0.1-0.2,0.3-0.4,0.5-0.5
		c0.2-0.1,0.5-0.2,0.8-0.2c0.3,0,0.6,0.1,0.8,0.2c0.2,0.1,0.4,0.3,0.5,0.5c0.1,0.2,0.2,0.5,0.2,0.9v2.8h-0.5v-2.8
		c0-0.4-0.1-0.6-0.3-0.9c-0.2-0.2-0.5-0.3-0.8-0.3c-0.2,0-0.4,0-0.6,0.1c-0.2,0.1-0.3,0.2-0.4,0.4C98.8,36.2,98.8,36.4,98.8,36.7z
		 M104.7,39.5c-0.4,0-0.8-0.1-1.1-0.3c-0.3-0.2-0.5-0.5-0.7-0.8c-0.2-0.3-0.2-0.7-0.2-1.2c0-0.4,0.1-0.8,0.2-1.2
		c0.2-0.3,0.4-0.6,0.7-0.8c0.3-0.2,0.6-0.3,1-0.3c0.2,0,0.5,0,0.7,0.1c0.2,0.1,0.4,0.2,0.6,0.4c0.2,0.2,0.3,0.4,0.4,0.7
		c0.1,0.3,0.2,0.6,0.2,1v0.3h-3.4v-0.4h2.9c0-0.3-0.1-0.5-0.2-0.8c-0.1-0.2-0.3-0.4-0.5-0.5c-0.2-0.1-0.4-0.2-0.7-0.2
		c-0.3,0-0.5,0.1-0.7,0.2c-0.2,0.1-0.4,0.3-0.5,0.6c-0.1,0.2-0.2,0.5-0.2,0.8v0.3c0,0.3,0.1,0.7,0.2,0.9c0.1,0.3,0.3,0.5,0.5,0.6
		c0.2,0.1,0.5,0.2,0.8,0.2c0.2,0,0.4,0,0.5-0.1c0.2-0.1,0.3-0.2,0.4-0.3c0.1-0.1,0.2-0.2,0.2-0.4l0.5,0.2c-0.1,0.2-0.2,0.4-0.3,0.5
		c-0.2,0.2-0.3,0.3-0.6,0.4C105.3,39.5,105,39.5,104.7,39.5z M112.9,36l-0.5,0.1c0-0.1-0.1-0.3-0.2-0.4c-0.1-0.1-0.2-0.2-0.3-0.3
		c-0.1-0.1-0.3-0.1-0.5-0.1c-0.3,0-0.5,0.1-0.7,0.2s-0.3,0.3-0.3,0.5c0,0.2,0.1,0.3,0.2,0.5c0.1,0.1,0.3,0.2,0.6,0.3l0.7,0.2
		c0.4,0.1,0.6,0.2,0.8,0.4c0.2,0.2,0.3,0.4,0.3,0.7c0,0.2-0.1,0.5-0.2,0.7c-0.1,0.2-0.3,0.3-0.6,0.5c-0.2,0.1-0.5,0.2-0.9,0.2
		c-0.4,0-0.8-0.1-1.1-0.3c-0.3-0.2-0.5-0.5-0.5-0.8l0.5-0.1c0.1,0.3,0.2,0.5,0.4,0.6c0.2,0.1,0.4,0.2,0.7,0.2c0.3,0,0.6-0.1,0.8-0.2
		c0.2-0.2,0.3-0.3,0.3-0.6c0-0.2-0.1-0.3-0.2-0.4c-0.1-0.1-0.3-0.2-0.5-0.3l-0.7-0.2c-0.4-0.1-0.7-0.2-0.8-0.4
		c-0.2-0.2-0.3-0.4-0.3-0.7c0-0.2,0.1-0.5,0.2-0.6c0.1-0.2,0.3-0.3,0.5-0.4c0.2-0.1,0.5-0.2,0.8-0.2c0.4,0,0.7,0.1,1,0.3
		C112.6,35.4,112.8,35.7,112.9,36z M115.3,39.5c-0.3,0-0.5-0.1-0.7-0.2c-0.2-0.1-0.4-0.3-0.5-0.5c-0.1-0.2-0.2-0.4-0.2-0.7
		c0-0.2,0-0.4,0.1-0.5c0.1-0.1,0.2-0.3,0.3-0.4c0.2-0.1,0.3-0.2,0.5-0.2s0.4-0.1,0.7-0.1c0.2,0,0.5-0.1,0.6-0.1
		c0.2,0,0.3-0.1,0.4-0.1c0.1,0,0.1-0.1,0.1-0.2v-0.1c0-0.3-0.1-0.5-0.3-0.7c-0.2-0.2-0.4-0.3-0.8-0.3c-0.3,0-0.6,0.1-0.8,0.2
		c-0.2,0.1-0.3,0.3-0.4,0.5L114,36c0.1-0.2,0.2-0.4,0.4-0.6c0.2-0.1,0.4-0.2,0.6-0.3c0.2-0.1,0.4-0.1,0.7-0.1c0.2,0,0.3,0,0.5,0.1
		c0.2,0,0.4,0.1,0.5,0.2c0.2,0.1,0.3,0.3,0.4,0.4c0.1,0.2,0.1,0.4,0.1,0.7v3h-0.5v-0.7h0c-0.1,0.1-0.2,0.3-0.3,0.4
		c-0.1,0.1-0.3,0.2-0.5,0.3C115.7,39.5,115.5,39.5,115.3,39.5z M115.3,39.1c0.3,0,0.5-0.1,0.7-0.2c0.2-0.1,0.4-0.3,0.5-0.5
		c0.1-0.2,0.2-0.4,0.2-0.7v-0.6c0,0-0.1,0.1-0.2,0.1c-0.1,0-0.2,0.1-0.3,0.1c-0.1,0-0.2,0-0.3,0.1c-0.1,0-0.2,0-0.3,0
		c-0.2,0-0.5,0.1-0.6,0.1c-0.2,0.1-0.3,0.2-0.4,0.3c-0.1,0.1-0.1,0.3-0.1,0.4c0,0.3,0.1,0.5,0.3,0.6C114.8,39,115.1,39.1,115.3,39.1
		z M119,33.6v5.9h-0.5v-5.9H119z M122.2,39.5c-0.4,0-0.8-0.1-1.1-0.3c-0.3-0.2-0.5-0.5-0.7-0.8c-0.2-0.3-0.2-0.7-0.2-1.2
		c0-0.4,0.1-0.8,0.2-1.2c0.2-0.3,0.4-0.6,0.7-0.8c0.3-0.2,0.6-0.3,1-0.3c0.2,0,0.5,0,0.7,0.1c0.2,0.1,0.4,0.2,0.6,0.4
		c0.2,0.2,0.3,0.4,0.4,0.7c0.1,0.3,0.2,0.6,0.2,1v0.3h-3.4v-0.4h2.9c0-0.3-0.1-0.5-0.2-0.8c-0.1-0.2-0.3-0.4-0.5-0.5
		c-0.2-0.1-0.4-0.2-0.7-0.2c-0.3,0-0.5,0.1-0.7,0.2c-0.2,0.1-0.4,0.3-0.5,0.6c-0.1,0.2-0.2,0.5-0.2,0.8v0.3c0,0.3,0.1,0.7,0.2,0.9
		c0.1,0.3,0.3,0.5,0.5,0.6c0.2,0.1,0.5,0.2,0.8,0.2c0.2,0,0.4,0,0.5-0.1c0.2-0.1,0.3-0.2,0.4-0.3c0.1-0.1,0.2-0.2,0.2-0.4l0.5,0.2
		c-0.1,0.2-0.2,0.4-0.3,0.5c-0.2,0.2-0.3,0.3-0.6,0.4C122.7,39.5,122.5,39.5,122.2,39.5z M128,36l-0.5,0.1c0-0.1-0.1-0.3-0.2-0.4
		c-0.1-0.1-0.2-0.2-0.3-0.3c-0.1-0.1-0.3-0.1-0.5-0.1c-0.3,0-0.5,0.1-0.7,0.2c-0.2,0.1-0.3,0.3-0.3,0.5c0,0.2,0.1,0.3,0.2,0.5
		c0.1,0.1,0.3,0.2,0.6,0.3l0.7,0.2c0.4,0.1,0.6,0.2,0.8,0.4c0.2,0.2,0.3,0.4,0.3,0.7c0,0.2-0.1,0.5-0.2,0.7
		c-0.1,0.2-0.3,0.3-0.6,0.5c-0.2,0.1-0.5,0.2-0.9,0.2c-0.4,0-0.8-0.1-1.1-0.3c-0.3-0.2-0.5-0.5-0.5-0.8l0.5-0.1
		c0.1,0.3,0.2,0.5,0.4,0.6c0.2,0.1,0.4,0.2,0.7,0.2c0.3,0,0.6-0.1,0.8-0.2c0.2-0.2,0.3-0.3,0.3-0.6c0-0.2-0.1-0.3-0.2-0.4
		c-0.1-0.1-0.3-0.2-0.5-0.3l-0.7-0.2c-0.4-0.1-0.7-0.2-0.8-0.4c-0.2-0.2-0.3-0.4-0.3-0.7c0-0.2,0.1-0.5,0.2-0.6
		c0.1-0.2,0.3-0.3,0.5-0.4c0.2-0.1,0.5-0.2,0.8-0.2c0.4,0,0.7,0.1,1,0.3C127.8,35.4,127.9,35.7,128,36z M133.3,39.5
		c-0.4,0-0.8-0.1-1.1-0.3c-0.3-0.2-0.5-0.5-0.7-0.8c-0.2-0.3-0.2-0.7-0.2-1.2c0-0.4,0.1-0.8,0.2-1.2c0.2-0.3,0.4-0.6,0.7-0.8
		c0.3-0.2,0.6-0.3,1-0.3c0.2,0,0.5,0,0.7,0.1c0.2,0.1,0.4,0.2,0.6,0.4c0.2,0.2,0.3,0.4,0.4,0.7c0.1,0.3,0.2,0.6,0.2,1v0.3h-3.4v-0.4
		h2.9c0-0.3-0.1-0.5-0.2-0.8c-0.1-0.2-0.3-0.4-0.5-0.5c-0.2-0.1-0.4-0.2-0.7-0.2c-0.3,0-0.5,0.1-0.7,0.2c-0.2,0.1-0.4,0.3-0.5,0.6
		c-0.1,0.2-0.2,0.5-0.2,0.8v0.3c0,0.3,0.1,0.7,0.2,0.9c0.1,0.3,0.3,0.5,0.5,0.6c0.2,0.1,0.5,0.2,0.8,0.2c0.2,0,0.4,0,0.5-0.1
		c0.2-0.1,0.3-0.2,0.4-0.3c0.1-0.1,0.2-0.2,0.2-0.4l0.5,0.2c-0.1,0.2-0.2,0.4-0.3,0.5c-0.2,0.2-0.3,0.3-0.6,0.4
		C133.8,39.5,133.6,39.5,133.3,39.5z M137.9,39.5c-0.4,0-0.7-0.1-1-0.3c-0.3-0.2-0.5-0.5-0.7-0.8c-0.2-0.3-0.2-0.7-0.2-1.2
		c0-0.4,0.1-0.8,0.2-1.2c0.2-0.3,0.4-0.6,0.7-0.8c0.3-0.2,0.6-0.3,1-0.3c0.3,0,0.6,0.1,0.8,0.2c0.2,0.1,0.4,0.3,0.6,0.5
		c0.2,0.2,0.3,0.4,0.3,0.7H139c-0.1-0.2-0.2-0.5-0.4-0.6c-0.2-0.2-0.5-0.3-0.8-0.3c-0.3,0-0.5,0.1-0.7,0.2c-0.2,0.2-0.4,0.4-0.5,0.6
		c-0.1,0.3-0.2,0.6-0.2,0.9c0,0.4,0.1,0.7,0.2,0.9c0.1,0.3,0.3,0.5,0.5,0.6c0.2,0.2,0.5,0.2,0.8,0.2c0.2,0,0.4,0,0.5-0.1
		c0.2-0.1,0.3-0.2,0.4-0.3c0.1-0.1,0.2-0.3,0.2-0.5h0.5c0,0.3-0.1,0.5-0.3,0.7c-0.1,0.2-0.3,0.4-0.6,0.5
		C138.5,39.5,138.2,39.5,137.9,39.5z M142.4,39.5c-0.4,0-0.7-0.1-1-0.3c-0.3-0.2-0.5-0.5-0.7-0.8c-0.2-0.3-0.2-0.7-0.2-1.2
		c0-0.5,0.1-0.8,0.2-1.2c0.2-0.3,0.4-0.6,0.7-0.8c0.3-0.2,0.6-0.3,1-0.3c0.4,0,0.7,0.1,1,0.3c0.3,0.2,0.5,0.5,0.7,0.8
		c0.2,0.3,0.2,0.7,0.2,1.2c0,0.4-0.1,0.8-0.2,1.2c-0.2,0.3-0.4,0.6-0.7,0.8C143.1,39.4,142.7,39.5,142.4,39.5z M142.4,39.1
		c0.3,0,0.6-0.1,0.8-0.2c0.2-0.2,0.4-0.4,0.5-0.7c0.1-0.3,0.2-0.6,0.2-0.9c0-0.3-0.1-0.6-0.2-0.9c-0.1-0.3-0.3-0.5-0.5-0.7
		c-0.2-0.2-0.5-0.2-0.8-0.2c-0.3,0-0.6,0.1-0.8,0.2c-0.2,0.2-0.4,0.4-0.5,0.7c-0.1,0.3-0.2,0.6-0.2,0.9c0,0.3,0.1,0.6,0.2,0.9
		c0.1,0.3,0.3,0.5,0.5,0.7C141.8,39,142.1,39.1,142.4,39.1z M148.4,36l-0.5,0.1c0-0.1-0.1-0.3-0.2-0.4c-0.1-0.1-0.2-0.2-0.3-0.3
		c-0.1-0.1-0.3-0.1-0.5-0.1c-0.3,0-0.5,0.1-0.7,0.2c-0.2,0.1-0.3,0.3-0.3,0.5c0,0.2,0.1,0.3,0.2,0.5c0.1,0.1,0.3,0.2,0.6,0.3
		l0.7,0.2c0.4,0.1,0.6,0.2,0.8,0.4c0.2,0.2,0.3,0.4,0.3,0.7c0,0.2-0.1,0.5-0.2,0.7c-0.1,0.2-0.3,0.3-0.6,0.5
		c-0.2,0.1-0.5,0.2-0.9,0.2c-0.4,0-0.8-0.1-1.1-0.3c-0.3-0.2-0.5-0.5-0.5-0.8l0.5-0.1c0.1,0.3,0.2,0.5,0.4,0.6
		c0.2,0.1,0.4,0.2,0.7,0.2c0.3,0,0.6-0.1,0.8-0.2c0.2-0.2,0.3-0.3,0.3-0.6c0-0.2-0.1-0.3-0.2-0.4c-0.1-0.1-0.3-0.2-0.5-0.3l-0.7-0.2
		c-0.4-0.1-0.7-0.2-0.8-0.4c-0.2-0.2-0.3-0.4-0.3-0.7c0-0.2,0.1-0.5,0.2-0.6c0.1-0.2,0.3-0.3,0.5-0.4c0.2-0.1,0.5-0.2,0.8-0.2
		c0.4,0,0.7,0.1,1,0.3C148.1,35.4,148.3,35.7,148.4,36z M149.9,41.1c-0.1,0-0.2,0-0.3,0c-0.1,0-0.2,0-0.2-0.1l0.1-0.4
		c0.2,0.1,0.3,0.1,0.5,0.1c0.1,0,0.3-0.1,0.4-0.2c0.1-0.1,0.2-0.3,0.3-0.5l0.2-0.4l-1.6-4.4h0.6l1.3,3.7h0l1.3-3.7h0.6l-1.9,5.1
		c-0.1,0.2-0.2,0.4-0.3,0.5c-0.1,0.1-0.2,0.2-0.4,0.3C150.3,41.1,150.1,41.1,149.9,41.1z M156.9,36l-0.5,0.1c0-0.1-0.1-0.3-0.2-0.4
		c-0.1-0.1-0.2-0.2-0.3-0.3c-0.1-0.1-0.3-0.1-0.5-0.1c-0.3,0-0.5,0.1-0.7,0.2s-0.3,0.3-0.3,0.5c0,0.2,0.1,0.3,0.2,0.5
		c0.1,0.1,0.3,0.2,0.6,0.3l0.7,0.2c0.4,0.1,0.6,0.2,0.8,0.4c0.2,0.2,0.3,0.4,0.3,0.7c0,0.2-0.1,0.5-0.2,0.7
		c-0.1,0.2-0.3,0.3-0.6,0.5c-0.2,0.1-0.5,0.2-0.9,0.2c-0.4,0-0.8-0.1-1.1-0.3c-0.3-0.2-0.5-0.5-0.5-0.8l0.5-0.1
		c0.1,0.3,0.2,0.5,0.4,0.6c0.2,0.1,0.4,0.2,0.7,0.2c0.3,0,0.6-0.1,0.8-0.2c0.2-0.2,0.3-0.3,0.3-0.6c0-0.2-0.1-0.3-0.2-0.4
		c-0.1-0.1-0.3-0.2-0.5-0.3l-0.7-0.2c-0.4-0.1-0.7-0.2-0.8-0.4c-0.2-0.2-0.3-0.4-0.3-0.7c0-0.2,0.1-0.5,0.2-0.6
		c0.1-0.2,0.3-0.3,0.5-0.4c0.2-0.1,0.5-0.2,0.8-0.2c0.4,0,0.7,0.1,1,0.3C156.6,35.4,156.8,35.7,156.9,36z M159.8,35v0.4h-2.1V35
		H159.8z M158.4,34h0.5v4.3c0,0.2,0,0.3,0.1,0.4c0.1,0.1,0.1,0.2,0.2,0.2c0.1,0,0.2,0.1,0.3,0.1c0.1,0,0.1,0,0.2,0c0,0,0.1,0,0.1,0
		l0.1,0.5c0,0-0.1,0-0.2,0.1c-0.1,0-0.2,0-0.3,0c-0.2,0-0.4,0-0.5-0.1c-0.2-0.1-0.3-0.2-0.4-0.4c-0.1-0.2-0.2-0.4-0.2-0.6V34z
		 M162.7,39.5c-0.4,0-0.8-0.1-1.1-0.3c-0.3-0.2-0.5-0.5-0.7-0.8c-0.2-0.3-0.2-0.7-0.2-1.2c0-0.4,0.1-0.8,0.2-1.2
		c0.2-0.3,0.4-0.6,0.7-0.8c0.3-0.2,0.6-0.3,1-0.3c0.2,0,0.5,0,0.7,0.1c0.2,0.1,0.4,0.2,0.6,0.4c0.2,0.2,0.3,0.4,0.4,0.7
		c0.1,0.3,0.2,0.6,0.2,1v0.3h-3.4v-0.4h2.9c0-0.3-0.1-0.5-0.2-0.8c-0.1-0.2-0.3-0.4-0.5-0.5c-0.2-0.1-0.4-0.2-0.7-0.2
		c-0.3,0-0.5,0.1-0.7,0.2c-0.2,0.1-0.4,0.3-0.5,0.6c-0.1,0.2-0.2,0.5-0.2,0.8v0.3c0,0.3,0.1,0.7,0.2,0.9c0.1,0.3,0.3,0.5,0.5,0.6
		c0.2,0.1,0.5,0.2,0.8,0.2c0.2,0,0.4,0,0.5-0.1c0.2-0.1,0.3-0.2,0.4-0.3c0.1-0.1,0.2-0.2,0.2-0.4l0.5,0.2c-0.1,0.2-0.2,0.4-0.3,0.5
		c-0.2,0.2-0.3,0.3-0.6,0.4C163.3,39.5,163,39.5,162.7,39.5z M165.6,39.4V35h0.5v0.7h0c0.1-0.2,0.2-0.4,0.4-0.5
		c0.2-0.1,0.5-0.2,0.7-0.2c0.3,0,0.6,0.1,0.7,0.2c0.2,0.1,0.3,0.3,0.4,0.6h0c0.1-0.2,0.3-0.4,0.5-0.6c0.2-0.1,0.5-0.2,0.8-0.2
		c0.4,0,0.7,0.1,1,0.4c0.2,0.3,0.4,0.6,0.4,1.1v2.9h-0.5v-2.9c0-0.3-0.1-0.6-0.3-0.8c-0.2-0.2-0.4-0.3-0.7-0.3
		c-0.3,0-0.6,0.1-0.8,0.3c-0.2,0.2-0.3,0.5-0.3,0.8v2.9h-0.5v-3c0-0.3-0.1-0.5-0.2-0.7c-0.2-0.2-0.4-0.3-0.7-0.3
		c-0.2,0-0.4,0-0.5,0.1c-0.2,0.1-0.3,0.2-0.4,0.4c-0.1,0.2-0.1,0.4-0.1,0.6v2.8H165.6z"/>
	<path class="st1" d="M33.3,28.6c-0.2,0.2-0.5,0.3-0.9,0.3C32,29,31.7,29,31.4,29c-0.3,0-0.7,0-1,0c-0.5,0-1-0.1-1.6-0.2
		c-0.5-0.1-1-0.3-1.5-0.5c0.1-0.2,0.3-0.3,0.5-0.4c0.2-0.1,0.3-0.1,0.5-0.2c0.1-0.3,0.2-0.6,0.3-0.9c0.1-0.4,0.2-0.7,0.3-1.1
		c0.1-0.4,0.3-0.7,0.5-0.9c0.2-0.2,0.5-0.3,0.9-0.3c-0.1,0.4-0.2,0.8-0.3,1.2c-0.1,0.4-0.1,0.8-0.1,1.2c0,0.4-0.1,0.8-0.2,1.2
		c0.3-0.3,0.6-0.7,0.9-1.1c0.3-0.4,0.6-0.8,0.8-1.2c0.3-0.4,0.6-0.7,0.9-0.9c0.3-0.2,0.7-0.2,1.1-0.1c-0.7,1.2-1.4,2.5-2.1,3.7
		c0.4-0.2,0.7-0.5,1.1-0.8c0.4-0.3,0.7-0.6,1.1-0.9c0.4-0.3,0.7-0.6,1.1-0.8c0.4-0.2,0.8-0.3,1.2-0.3c0.2,0.1,0.3,0.2,0.5,0.3
		c-0.4,0.2-0.8,0.5-1.1,0.8c-0.3,0.3-0.6,0.6-0.9,1C33.9,28.1,33.6,28.4,33.3,28.6z"/>
	<path class="st1" d="M25,24.4c0-0.1,0-0.3,0-0.4c0-0.2-0.1-0.3-0.1-0.4c0-0.1,0-0.3,0.1-0.3c0.5,0.1,0.8,0.3,1,0.6
		c0.2,0.3,0.3,0.6,0.4,0.9c0,0.4,0,0.7,0,1.1c0,0.4-0.1,0.8-0.1,1.1c0,0.4,0,0.7,0.1,1c0.8,0.5,1.6,0.9,2.5,1.1
		c0.8,0.2,1.6,0.2,2.4,0.2c0.8-0.1,1.6-0.2,2.3-0.3c0.8-0.2,1.5-0.3,2.3-0.4c0.3,0,0.6-0.1,0.9-0.1c0.3,0,0.6-0.1,0.9,0
		c0.3,0,0.5,0.1,0.7,0.2c0.2,0.1,0.3,0.4,0.3,0.7c-1.4,0.2-2.8,0.5-4.1,0.9c-1.3,0.5-2.7,1-4,1.6c-1.3,0.6-2.6,1.3-3.9,2V40h-3.2
		v-6.2c-0.4-1.5-0.5-3-0.2-4.6C23.5,27.7,24.1,26.1,25,24.4z"/>
	<path class="st1" d="M11.7,25.7c0.3,0.2,0.6,0.3,1,0.4c0.4,0.1,0.7,0.1,1.1,0.1c0.4,0,0.7,0,1,0c0.6,0,1.1-0.1,1.7-0.2
		c0.6-0.1,1.1-0.3,1.7-0.6c-0.2-0.2-0.3-0.3-0.5-0.4c-0.2-0.1-0.4-0.2-0.5-0.3c-0.1-0.3-0.2-0.6-0.3-1c-0.1-0.4-0.2-0.8-0.3-1.2
		c-0.1-0.4-0.3-0.7-0.5-1c-0.2-0.3-0.6-0.4-0.9-0.4c0.1,0.4,0.2,0.9,0.3,1.3c0.1,0.4,0.1,0.9,0.1,1.3c0,0.4,0.1,0.9,0.2,1.3
		c-0.3-0.3-0.6-0.7-0.9-1.2c-0.3-0.5-0.6-0.9-0.9-1.3c-0.3-0.4-0.6-0.8-1-1c-0.4-0.2-0.7-0.2-1.2-0.1c0.8,1.3,1.6,2.7,2.2,4
		c-0.4-0.2-0.8-0.5-1.2-0.8c-0.4-0.3-0.8-0.7-1.2-1c-0.4-0.3-0.8-0.6-1.2-0.8c-0.4-0.2-0.8-0.3-1.3-0.3c-0.2,0.1-0.4,0.2-0.5,0.4
		c0.4,0.2,0.8,0.6,1.2,0.9c0.3,0.4,0.7,0.7,1,1.1C11,25.1,11.4,25.5,11.7,25.7z"/>
	<path class="st1" d="M20.7,21.1c0-0.1,0-0.3,0-0.5c0.1-0.2,0.1-0.3,0.1-0.5c0-0.1,0-0.3-0.1-0.4c-0.5,0.1-0.9,0.4-1.1,0.7
		c-0.2,0.3-0.3,0.6-0.4,1c0,0.4,0,0.8,0,1.2c0,0.4,0.1,0.8,0.1,1.3c0,0.4,0,0.8-0.1,1.1c-0.9,0.6-1.8,1-2.7,1.1
		c-0.9,0.2-1.7,0.3-2.6,0.2c-0.9-0.1-1.7-0.2-2.5-0.3c-0.8-0.2-1.6-0.3-2.5-0.5c-0.3,0-0.6-0.1-0.9-0.2c-0.3,0-0.7-0.1-1,0
		c-0.3,0-0.6,0.1-0.8,0.3c-0.2,0.2-0.3,0.4-0.4,0.8c1.5,0.2,3,0.5,4.5,1c1.5,0.5,2.9,1.1,4.3,1.8c1.4,0.7,2.8,1.4,4.2,2.2v8.6h3.5
		v-8.6c0.4-1.6,0.5-3.2,0.3-5C22.4,24.8,21.8,23,20.7,21.1z"/>
	<path class="st1" d="M23.4,25.7c0,0,0-0.2-0.1-0.6c0-0.4,0-1,0.1-1.7c0.1-0.7,0.2-1.4,0.5-2.3c0.3-0.8,0.7-1.7,1.4-2.5
		c1.3-1.6,2.2-3.1,2.9-4.4c0.6-1.3,0.9-2.4,0.9-3.4c0,0,0,0.2,0,0.6c0,0.4,0,0.9,0,1.6c0,0.6-0.1,1.3-0.2,2
		c-0.1,0.7-0.3,1.3-0.6,1.9c0,0,0.2-0.2,0.6-0.5c0.4-0.3,1-0.7,1.7-1.1c0.7-0.4,1.5-0.9,2.3-1.3c0.9-0.4,1.7-0.7,2.6-0.9
		c0.7-0.2,1.4-0.4,2-0.8c0.6-0.4,1.2-0.8,1.7-1.3c0.5-0.5,1-0.9,1.3-1.4c0.4-0.4,0.7-0.8,0.9-1.1c0.2-0.3,0.3-0.4,0.3-0.5
		c0,0,0,0.2-0.2,0.5c-0.1,0.3-0.3,0.8-0.6,1.3c-0.3,0.5-0.7,1.1-1.3,1.8c-0.6,0.6-1.4,1.2-2.3,1.8c-1,0.6-2.1,1.1-3.5,1.5
		c-1.8,0.5-3.2,1.1-4.4,1.8c-1.2,0.7-2.2,1.5-3,2.4c-0.8,0.9-1.4,1.9-1.8,2.9C24,23.4,23.7,24.5,23.4,25.7z"/>
	<path class="st1" d="M23.6,19c0,0,0-0.3-0.1-0.8c0-0.5-0.1-1.1-0.1-1.9c0-0.8,0-1.7,0-2.7c0-1,0.1-1.9,0.3-2.9
		c0.1-1,0.4-1.8,0.7-2.6c0.3-0.8,0.8-1.4,1.3-1.9c0,0-0.1,0-0.4,0.1c-0.3,0.1-0.6,0.3-0.9,0.5c-0.4,0.3-0.7,0.7-1.1,1.3
		c-0.4,0.6-0.6,1.3-0.8,2.3c-0.2,1-0.2,2.2-0.2,3.6c0,0-0.2-0.1-0.5-0.4c-0.3-0.2-0.7-0.5-1.2-0.9c-0.5-0.4-1-0.7-1.7-1.1
		c-0.6-0.4-1.2-0.7-1.9-1c-0.6-0.3-1.2-0.5-1.8-0.6c-0.7-0.1-1.4-0.3-2.2-0.7c-0.8-0.3-1.6-0.7-2.3-1.2c-0.7-0.5-1.4-1-2-1.6
		c-0.6-0.6-1-1.2-1.4-1.9c0,0,0.1,0.2,0.2,0.5C7.8,5.6,8,6,8.3,6.4C8.6,6.9,9,7.4,9.5,8c0.5,0.6,1,1.1,1.6,1.6
		c0.6,0.5,1.4,1,2.2,1.4l-7.9,0.7c0,0,0.2,0,0.7,0c0.5,0,1,0,1.8,0c0.7,0,1.5,0,2.4,0c0.9,0,1.7,0,2.6,0.1c0.8,0,1.6,0.1,2.3,0.2
		c0.7,0.1,1.2,0.2,1.5,0.3c0.5,0.2,1.1,0.4,1.8,0.8c0.7,0.4,1.4,0.9,2.1,1.4c0.7,0.6,1.3,1.3,1.9,2C22.9,17.2,23.3,18.1,23.6,19z"/>
	<path class="st1" d="M15,19.8c0,0-0.1-0.2-0.4-0.6c-0.2-0.4-0.5-0.9-0.8-1.7c-0.3-0.8-0.6-1.7-0.9-2.9c0,0,0,0.1-0.1,0.4
		c-0.1,0.2-0.1,0.5-0.2,1c0,0.4,0,0.9,0,1.4c0.1,0.5,0.2,1.1,0.5,1.8c0,0-0.2,0-0.5-0.1c-0.3,0-0.8-0.1-1.3-0.2
		c-0.6-0.1-1.2-0.3-1.8-0.5c-0.7-0.2-1.3-0.4-2-0.7c-0.7-0.3-1.3-0.6-1.9-1c-0.6-0.4-1.1-0.8-1.4-1.3c0,0,0,0.1,0.1,0.3
		c0.1,0.2,0.2,0.5,0.4,0.8c0.2,0.3,0.6,0.7,1,1.1c0.5,0.4,1.1,0.7,1.8,1.1c0,0-0.2,0-0.5,0.1c-0.3,0-0.7,0.1-1.2,0.2
		c-0.5,0.1-1,0.2-1.6,0.4c-0.6,0.2-1.1,0.4-1.7,0.6c-0.5,0.2-1,0.5-1.4,0.8c-0.4,0.3-0.7,0.7-0.9,1.1c0,0,0.2-0.1,0.6-0.3
		c0.4-0.2,0.9-0.5,1.7-0.7c0.8-0.3,1.7-0.6,2.9-0.8c1.2-0.2,2.5-0.4,4.1-0.4C11.2,19.4,13,19.5,15,19.8z"/>
	<path class="st1" d="M33.2,23.4c0,0,0.1-0.1,0.3-0.3c0.2-0.2,0.4-0.4,0.8-0.6c0.3-0.2,0.8-0.4,1.3-0.6c0.5-0.2,1.1-0.3,1.8-0.3
		c0.7,0,1.4,0.1,2.2,0.4c0,0-0.1,0-0.4,0c-0.2,0-0.5,0-0.9,0c-0.4,0-0.7,0-1.1,0.1c-0.4,0.1-0.8,0.2-1.1,0.3
		c-0.4,0.2-0.7,0.4-0.9,0.7c0,0,0.2,0,0.7,0.1c0.4,0.1,1,0.2,1.7,0.5c0.7,0.2,1.5,0.5,2.4,0.9c0.8,0.4,1.7,0.9,2.5,1.6
		c0,0-0.2-0.1-0.7-0.4c-0.4-0.2-1-0.5-1.8-0.9c-0.8-0.3-1.8-0.6-2.9-0.9C35.8,23.7,34.6,23.5,33.2,23.4z"/>
	<path class="st2" d="M9.9,0.8l0.6,1.3L12,2.3l-1,1l0.2,1.4L9.9,4.1L8.6,4.8l0.2-1.4l-1-1l1.4-0.2L9.9,0.8z"/>
	<path class="st2" d="M7.3,12.4l0.6,1.3l1.4,0.2l-1,1l0.2,1.4l-1.2-0.7L6,16.2l0.2-1.4l-1-1l1.4-0.2L7.3,12.4z"/>
	<path class="st2" d="M40.1,16.5l0.5,1l1.1,0.2l-0.8,0.8l0.2,1.1l-1-0.5l-1,0.5l0.2-1.1l-0.8-0.8l1.1-0.2L40.1,16.5z"/>
	<path class="st2" d="M42.8,9.5l0.4,0.8l0.9,0.1l-0.7,0.6l0.2,0.9l-0.8-0.4L42,12l0.2-0.9l-0.7-0.6l0.9-0.1L42.8,9.5z"/>
	<path class="st2" d="M32.7,6.8L33,7.5l0.7,0.1l-0.5,0.5l0.1,0.7l-0.6-0.3L32,8.8l0.1-0.7l-0.5-0.5l0.7-0.1L32.7,6.8z"/>
	<path class="st2" d="M39,4.3l0.4,0.8l0.9,0.1l-0.7,0.7l0.2,0.9L39,6.4l-0.8,0.4l0.2-0.9l-0.7-0.7l0.9-0.1L39,4.3z"/>
	<path class="st2" d="M39.9,25.1l0.4,0.9l1,0.2l-0.7,0.7l0.2,1l-0.9-0.5L39,27.8l0.2-1l-0.7-0.7l1-0.2L39.9,25.1z"/>
	<path class="st2" d="M29.9,19.6l0.6,1.1l1.3,0.2l-0.9,0.9L31,23l-1.1-0.6L28.8,23l0.2-1.3l-0.9-0.9l1.3-0.2L29.9,19.6z"/>
	<path class="st2" d="M34.9,16.2l0.4,0.7l0.8,0.1l-0.6,0.6l0.1,0.8l-0.7-0.4l-0.7,0.4l0.1-0.8l-0.6-0.6l0.8-0.1L34.9,16.2z"/>
	<path class="st2" d="M42.3,21.1l0.4,0.9l0.9,0.1L43,22.8l0.2,0.9l-0.8-0.4l-0.8,0.4l0.2-0.9l-0.7-0.7l0.9-0.1L42.3,21.1z"/>
	<path class="st2" d="M35.8,9.1l0.3,0.6l0.7,0.1l-0.5,0.5l0.1,0.7l-0.6-0.3L35.2,11l0.1-0.7l-0.5-0.5l0.7-0.1L35.8,9.1z"/>
	<path class="st2" d="M31.3,10.5l0.4,0.7l0.8,0.1l-0.6,0.5l0.1,0.8l-0.7-0.4l-0.7,0.4l0.1-0.8l-0.5-0.5l0.8-0.1L31.3,10.5z"/>
	<path class="st2" d="M26.7,8.8l0.5,1.1l1.2,0.2l-0.8,0.8l0.2,1.2l-1-0.6L25.6,12l0.2-1.2L25,10l1.2-0.2L26.7,8.8z"/>
	<path class="st2" d="M26.2,13.2l0.3,0.6l0.7,0.1l-0.5,0.5l0.1,0.7l-0.6-0.3l-0.6,0.3l0.1-0.7L25.2,14l0.7-0.1L26.2,13.2z"/>
	<path class="st2" d="M28.8,3.5l0.3,0.7l0.7,0.1l-0.5,0.5l0.1,0.7l-0.6-0.3l-0.6,0.3l0.1-0.7l-0.5-0.5l0.7-0.1L28.8,3.5z"/>
	<path class="st2" d="M22.4,4.6l0.4,0.8l0.9,0.1l-0.7,0.6l0.2,0.9l-0.8-0.4l-0.8,0.4l0.2-0.9L21,5.5L22,5.4L22.4,4.6z"/>
	<path class="st2" d="M15.2,6.3L15.5,7l0.8,0.1l-0.6,0.6l0.1,0.8l-0.7-0.4l-0.7,0.4l0.1-0.8L14,7.1L14.8,7L15.2,6.3z"/>
	<path class="st2" d="M15.3,3l0.3,0.7l0.7,0.1l-0.5,0.5L15.9,5l-0.7-0.4L14.6,5l0.1-0.7l-0.5-0.5l0.7-0.1L15.3,3z"/>
	<path class="st2" d="M2.4,21.6l0.5,0.9l1,0.2l-0.7,0.7l0.2,1l-0.9-0.5l-0.9,0.5l0.2-1l-0.7-0.7l1-0.2L2.4,21.6z"/>
	<path class="st2" d="M2.6,15.9L3,16.8l1,0.2l-0.7,0.7l0.2,1l-0.9-0.5l-0.9,0.5l0.2-1L1.1,17l1-0.2L2.6,15.9z"/>
	<path class="st2" d="M7,21.9l0.4,0.8l0.9,0.1l-0.6,0.6l0.1,0.9L7,23.9l-0.8,0.4l0.2-0.9l-0.6-0.6l0.9-0.1L7,21.9z"/>
	<path class="st2" d="M18.3,14.7l0.4,0.7l0.8,0.1l-0.6,0.6l0.1,0.8l-0.7-0.4l-0.7,0.4l0.1-0.8l-0.6-0.6l0.8-0.1L18.3,14.7z"/>
	<path class="st2" d="M18.6,17.8l0.3,0.6l0.7,0.1L19.1,19l0.1,0.7l-0.6-0.3l-0.6,0.3L18,19l-0.5-0.5l0.7-0.1L18.6,17.8z"/>
</g>
</svg>
