<svg width="3804" height="1321" viewBox="0 0 3804 1321" fill="none" xmlns="http://www.w3.org/2000/svg">
<path d="M1316.58 737.431H1259.14V396.892H1316.58V737.431ZM1500.06 737.431H1278.46V686.604H1500.06V737.431ZM1468.55 589.017H1278.46V538.19H1468.55V589.017ZM1500.06 447.718H1278.46V396.892H1500.06V447.718ZM1665.72 737.431H1593.04L1505.11 489.905H1568.13L1610.32 624.595L1630.65 700.327L1650.47 624.595L1692.15 489.905H1754.16L1665.72 737.431ZM1877.48 742.513C1853.76 742.513 1832.75 737.261 1814.45 726.757C1796.5 715.914 1782.43 700.835 1772.27 681.521C1762.44 661.868 1757.53 639.335 1757.53 613.922C1757.53 587.831 1762.44 565.298 1772.27 546.322C1782.43 527.008 1796.5 511.929 1814.45 501.086C1832.75 490.243 1853.76 484.822 1877.48 484.822C1901.54 484.822 1922.55 490.243 1940.5 501.086C1958.8 511.929 1973.03 527.008 1983.2 546.322C1993.36 565.298 1998.45 587.831 1998.45 613.922C1998.45 639.335 1993.36 661.868 1983.2 681.521C1973.03 700.835 1958.8 715.914 1940.5 726.757C1922.55 737.261 1901.54 742.513 1877.48 742.513ZM1877.99 695.244C1890.53 695.244 1901.37 692.364 1910.52 686.604C1920 680.844 1927.29 672.034 1932.37 660.174C1937.79 647.976 1940.5 632.558 1940.5 613.922C1940.5 594.608 1937.79 579.021 1932.37 567.161C1927.29 555.302 1920 546.492 1910.52 540.731C1901.37 534.971 1890.53 532.091 1877.99 532.091C1866.13 532.091 1855.45 534.971 1845.97 540.731C1836.48 546.492 1829.02 555.302 1823.6 567.161C1818.52 579.021 1815.98 594.608 1815.98 613.922C1815.98 632.558 1818.52 647.976 1823.6 660.174C1829.02 672.034 1836.48 680.844 1845.97 686.604C1855.45 692.364 1866.13 695.244 1877.99 695.244ZM2105.19 737.431H2048.27V396.892H2105.19V737.431ZM2298.57 737.431H2225.89L2137.96 489.905H2200.98L2243.17 624.595L2263.5 700.327L2283.32 624.595L2325 489.905H2387.01L2298.57 737.431ZM2515.92 742.513C2491.53 742.513 2470.01 737.261 2451.37 726.757C2433.08 715.914 2418.84 700.835 2408.68 681.521C2398.85 661.868 2393.94 639.335 2393.94 613.922C2393.94 587.831 2398.85 565.128 2408.68 545.814C2418.84 526.5 2432.74 511.591 2450.36 501.086C2468.31 490.243 2488.82 484.822 2511.86 484.822C2536.59 484.822 2557.6 489.905 2574.88 500.07C2592.16 510.235 2605.21 524.128 2614.02 541.748C2622.83 559.368 2627.23 579.698 2627.23 602.74C2627.23 607.484 2627.06 612.228 2626.72 616.971C2626.39 621.376 2625.88 624.934 2625.2 627.645H2435.62V591.05H2587.59L2576.41 604.265C2576.41 580.207 2570.82 561.909 2559.63 549.372C2548.45 536.835 2532.53 530.566 2511.86 530.566C2492.2 530.566 2476.62 537.004 2465.1 549.88C2453.58 562.756 2447.81 581.901 2447.81 607.314V618.496C2447.81 635.1 2450.53 649.162 2455.95 660.682C2461.71 672.203 2469.84 681.013 2480.34 687.112C2490.85 692.873 2502.88 695.753 2516.43 695.753C2531 695.753 2542.86 693.55 2552.01 689.145C2561.5 684.74 2569.12 679.319 2574.88 672.881C2580.64 666.104 2585.05 659.327 2588.1 652.55L2623.17 689.654C2614.02 703.546 2600.63 715.914 2583.01 726.757C2565.73 737.261 2543.37 742.513 2515.92 742.513ZM2833.67 737.431H2710.16V686.604H2825.03C2848.41 686.604 2865.52 682.707 2876.36 674.914C2887.55 666.782 2893.14 654.075 2893.14 636.794C2893.14 624.934 2890.26 615.447 2884.5 608.331C2879.07 601.215 2871.45 595.963 2861.62 592.575C2851.8 589.186 2840.11 587.492 2826.55 587.492H2710.16V538.698H2820.96C2832.48 538.698 2842.48 537.343 2850.95 534.632C2859.42 531.921 2866.03 527.347 2870.77 520.909C2875.86 514.132 2878.4 504.983 2878.4 493.462C2878.4 481.942 2875.86 472.962 2870.77 466.524C2865.69 459.747 2858.74 455.004 2849.93 452.293C2841.12 449.243 2830.79 447.718 2818.93 447.718H2710.16V396.892H2836.21C2859.59 396.892 2878.74 400.619 2893.64 408.074C2908.55 415.528 2919.57 425.863 2926.68 439.078C2934.14 451.954 2937.86 466.863 2937.86 483.805C2937.86 495.326 2935.66 505.661 2931.26 514.81C2927.19 523.62 2921.09 531.244 2912.96 537.682C2905.17 544.12 2895.68 549.372 2884.5 553.438C2873.31 557.165 2860.78 559.707 2846.88 561.062C2872.98 562.756 2893.64 567.5 2908.89 575.293C2924.48 583.087 2935.49 593.252 2941.93 605.789C2948.71 617.988 2952.1 631.711 2952.1 646.959C2952.1 667.29 2947.35 684.232 2937.86 697.786C2928.38 711.001 2914.82 720.997 2897.2 727.774C2879.58 734.212 2858.4 737.431 2833.67 737.431ZM2739.13 737.431H2681.7V396.892H2739.13V737.431ZM3145.57 629.678H3027.65V578.851H3140.48C3153.36 578.851 3165.39 576.988 3176.57 573.26C3187.75 569.194 3196.73 562.587 3203.51 553.438C3210.29 543.95 3213.67 531.244 3213.67 515.318C3213.67 497.359 3210.29 483.636 3203.51 474.148C3196.73 464.322 3187.75 457.545 3176.57 453.818C3165.39 449.751 3153.36 447.718 3140.48 447.718H3027.65V396.892H3145.57C3169.62 396.892 3191.31 401.127 3210.62 409.598C3229.94 417.731 3245.19 430.607 3256.37 448.227C3267.89 465.508 3273.65 487.871 3273.65 515.318C3273.65 541.07 3267.89 562.417 3256.37 579.36C3245.19 596.302 3229.94 609.008 3210.62 617.48C3191.31 625.612 3169.62 629.678 3145.57 629.678ZM3064.24 737.431H3006.81V396.892H3064.24V737.431ZM3373.97 737.431H3316.53V396.892H3387.18L3460.37 546.322L3493.92 633.236L3527.47 546.322L3600.66 396.892H3671.31V737.431H3613.87V577.326L3620.99 464.999L3581.85 563.095L3522.89 679.996H3464.95L3405.99 563.095L3365.84 464.999L3373.97 577.326V737.431Z" fill="#00538E"/>
<path d="M1299.75 1042.27H1264.09V920.55H1301.89C1313.5 920.55 1323.43 922.967 1331.67 927.801C1339.95 932.635 1346.29 939.569 1350.69 948.603C1355.09 957.637 1357.28 968.474 1357.28 981.114C1357.28 993.873 1355.03 1004.83 1350.51 1013.98C1346.03 1023.09 1339.49 1030.09 1330.9 1034.96C1322.34 1039.84 1311.96 1042.27 1299.75 1042.27ZM1275.21 1032.29H1299.1C1309.56 1032.29 1318.32 1030.23 1325.37 1026.11C1332.42 1021.99 1337.71 1016.1 1341.24 1008.45C1344.76 1000.81 1346.53 991.693 1346.53 981.114C1346.49 970.614 1344.74 961.58 1341.3 954.012C1337.89 946.444 1332.82 940.639 1326.08 936.598C1319.38 932.556 1311.1 930.535 1301.24 930.535H1275.21V1032.29ZM1418.93 1044.17C1410.41 1044.17 1403.04 1042.19 1396.82 1038.23C1390.6 1034.23 1385.79 1028.7 1382.38 1021.65C1379.01 1014.56 1377.33 1006.39 1377.33 997.161C1377.33 987.969 1379.01 979.806 1382.38 972.674C1385.79 965.503 1390.48 959.896 1396.47 955.854C1402.49 951.773 1409.44 949.733 1417.33 949.733C1422.28 949.733 1427.06 950.644 1431.65 952.467C1436.25 954.25 1440.37 957.003 1444.01 960.728C1447.7 964.413 1450.61 969.069 1452.75 974.695C1454.89 980.282 1455.96 986.899 1455.96 994.546V999.776H1384.64V990.445H1445.14C1445.14 984.581 1443.95 979.311 1441.58 974.636C1439.24 969.92 1435.97 966.196 1431.77 963.462C1427.61 960.728 1422.8 959.361 1417.33 959.361C1411.54 959.361 1406.45 960.906 1402.05 963.997C1397.66 967.087 1394.21 971.169 1391.71 976.24C1389.25 981.312 1388.01 986.859 1387.97 992.882V998.469C1387.97 1005.72 1389.22 1012.06 1391.71 1017.49C1394.25 1022.88 1397.83 1027.06 1402.47 1030.03C1407.11 1033 1412.59 1034.49 1418.93 1034.49C1423.25 1034.49 1427.04 1033.81 1430.28 1032.47C1433.57 1031.12 1436.33 1029.32 1438.55 1027.06C1440.8 1024.76 1442.51 1022.24 1443.66 1019.51L1453.7 1022.78C1452.31 1026.62 1450.04 1030.17 1446.87 1033.42C1443.74 1036.67 1439.81 1039.28 1435.1 1041.26C1430.42 1043.2 1425.03 1044.17 1418.93 1044.17ZM1514.93 1044.17C1506.77 1044.17 1499.66 1042.13 1493.6 1038.05C1487.57 1033.97 1482.9 1028.38 1479.57 1021.29C1476.24 1014.2 1474.58 1006.12 1474.58 997.042C1474.58 987.889 1476.26 979.747 1479.63 972.615C1483.04 965.483 1487.75 959.896 1493.78 955.854C1499.8 951.773 1506.79 949.733 1514.76 949.733C1520.86 949.733 1526.39 950.921 1531.34 953.299C1536.29 955.636 1540.37 958.945 1543.58 963.224C1546.83 967.464 1548.87 972.417 1549.7 978.083H1539C1537.9 972.932 1535.22 968.534 1530.98 964.888C1526.78 961.203 1521.43 959.361 1514.93 959.361C1509.11 959.361 1503.96 960.946 1499.48 964.116C1495 967.246 1491.5 971.624 1488.96 977.251C1486.46 982.838 1485.22 989.316 1485.22 996.686C1485.22 1004.1 1486.45 1010.65 1488.9 1016.36C1491.36 1022.02 1494.81 1026.46 1499.24 1029.67C1503.72 1032.88 1508.95 1034.49 1514.93 1034.49C1518.98 1034.49 1522.66 1033.73 1525.99 1032.23C1529.36 1030.68 1532.17 1028.5 1534.43 1025.69C1536.73 1022.88 1538.27 1019.53 1539.06 1015.65H1549.76C1548.97 1021.15 1547.01 1026.07 1543.88 1030.39C1540.79 1034.66 1536.77 1038.03 1531.81 1040.49C1526.9 1042.95 1521.27 1044.17 1514.93 1044.17ZM1607.92 1044.17C1600.03 1044.17 1593.06 1042.17 1587 1038.17C1580.98 1034.17 1576.26 1028.64 1572.85 1021.59C1569.45 1014.5 1567.74 1006.31 1567.74 997.042C1567.74 987.691 1569.45 979.47 1572.85 972.377C1576.26 965.245 1580.98 959.698 1587 955.735C1593.06 951.734 1600.03 949.733 1607.92 949.733C1615.8 949.733 1622.76 951.734 1628.78 955.735C1634.8 959.737 1639.52 965.285 1642.93 972.377C1646.37 979.47 1648.1 987.691 1648.1 997.042C1648.1 1006.31 1646.39 1014.5 1642.99 1021.59C1639.58 1028.64 1634.84 1034.17 1628.78 1038.17C1622.76 1042.17 1615.8 1044.17 1607.92 1044.17ZM1607.92 1034.49C1614.26 1034.49 1619.63 1032.78 1624.03 1029.37C1628.42 1025.97 1631.75 1021.43 1634.01 1015.76C1636.31 1010.1 1637.46 1003.86 1637.46 997.042C1637.46 990.227 1636.31 983.967 1634.01 978.261C1631.75 972.555 1628.42 967.979 1624.03 964.532C1619.63 961.085 1614.26 959.361 1607.92 959.361C1601.62 959.361 1596.25 961.085 1591.81 964.532C1587.41 967.979 1584.07 972.555 1581.77 978.261C1579.51 983.967 1578.38 990.227 1578.38 997.042C1578.38 1003.86 1579.51 1010.1 1581.77 1015.76C1584.07 1021.43 1587.41 1025.97 1591.81 1029.37C1596.21 1032.78 1601.58 1034.49 1607.92 1034.49ZM1704.19 1044.17C1696.7 1044.17 1690.14 1042.19 1684.52 1038.23C1678.89 1034.27 1674.49 1028.74 1671.32 1021.65C1668.19 1014.56 1666.63 1006.29 1666.63 996.864C1666.63 987.473 1668.19 979.252 1671.32 972.199C1674.49 965.106 1678.91 959.599 1684.57 955.676C1690.24 951.714 1696.84 949.733 1704.37 949.733C1709.91 949.733 1714.53 950.723 1718.21 952.704C1721.9 954.646 1724.85 957.063 1727.07 959.955C1729.29 962.848 1731.01 965.661 1732.24 968.395H1733.19V920.55H1743.83V1042.27H1733.49V1025.33H1732.24C1731.01 1028.11 1729.27 1030.96 1727.01 1033.89C1724.75 1036.78 1721.76 1039.22 1718.04 1041.2C1714.35 1043.18 1709.74 1044.17 1704.19 1044.17ZM1705.44 1034.49C1711.34 1034.49 1716.37 1032.88 1720.53 1029.67C1724.69 1026.42 1727.86 1021.97 1730.04 1016.3C1732.26 1010.59 1733.37 1004.06 1733.37 996.686C1733.37 989.395 1732.28 982.956 1730.1 977.37C1727.92 971.743 1724.75 967.345 1720.59 964.175C1716.43 960.966 1711.38 959.361 1705.44 959.361C1699.33 959.361 1694.18 961.025 1689.98 964.353C1685.82 967.642 1682.65 972.1 1680.47 977.726C1678.33 983.353 1677.26 989.673 1677.26 996.686C1677.26 1003.78 1678.35 1010.18 1680.53 1015.88C1682.71 1021.59 1685.88 1026.13 1690.04 1029.49C1694.24 1032.82 1699.37 1034.49 1705.44 1034.49ZM1774.08 1042.27V950.981H1784.72V1042.27H1774.08ZM1779.49 935.29C1777.31 935.29 1775.45 934.557 1773.9 933.091C1772.36 931.585 1771.59 929.782 1771.59 927.682C1771.59 925.582 1772.36 923.799 1773.9 922.333C1775.45 920.828 1777.31 920.075 1779.49 920.075C1781.67 920.075 1783.53 920.828 1785.08 922.333C1786.62 923.799 1787.4 925.582 1787.4 927.682C1787.4 929.782 1786.62 931.585 1785.08 933.091C1783.53 934.557 1781.67 935.29 1779.49 935.29ZM1823.28 985.215V1042.27H1812.7V950.981H1822.98V965.304H1823.93C1826.07 960.629 1829.4 956.885 1833.92 954.071C1838.48 951.218 1844.1 949.792 1850.8 949.792C1856.94 949.792 1862.33 951.08 1866.96 953.655C1871.64 956.191 1875.26 959.936 1877.84 964.888C1880.46 969.841 1881.76 975.923 1881.76 983.135V1042.27H1871.18V983.789C1871.18 976.3 1869.08 970.376 1864.88 966.018C1860.72 961.659 1855.14 959.48 1848.12 959.48C1843.33 959.48 1839.07 960.51 1835.34 962.57C1831.62 964.631 1828.67 967.603 1826.49 971.486C1824.35 975.329 1823.28 979.905 1823.28 985.215ZM1944.45 1078.41C1938.23 1078.41 1932.78 1077.6 1928.11 1075.97C1923.43 1074.39 1919.49 1072.21 1916.28 1069.43C1913.07 1066.66 1910.57 1063.55 1908.79 1060.1L1917.47 1054.4C1918.78 1056.69 1920.52 1058.95 1922.7 1061.17C1924.92 1063.39 1927.79 1065.23 1931.32 1066.7C1934.88 1068.17 1939.26 1068.9 1944.45 1068.9C1952.53 1068.9 1959.05 1066.88 1964.01 1062.84C1969 1058.79 1971.49 1052.51 1971.49 1044V1023.43H1970.54C1969.31 1026.2 1967.55 1028.98 1965.25 1031.75C1962.96 1034.49 1959.94 1036.76 1956.22 1038.59C1952.53 1040.41 1947.96 1041.32 1942.49 1041.32C1935.2 1041.32 1928.72 1039.52 1923.06 1035.91C1917.43 1032.31 1912.99 1027.16 1909.74 1020.46C1906.53 1013.72 1904.93 1005.7 1904.93 996.389C1904.93 987.156 1906.49 979.034 1909.62 972.021C1912.79 965.007 1917.21 959.539 1922.88 955.617C1928.54 951.694 1935.14 949.733 1942.67 949.733C1948.26 949.733 1952.89 950.723 1956.58 952.704C1960.26 954.646 1963.21 957.063 1965.43 959.955C1967.69 962.848 1969.45 965.661 1970.72 968.395H1971.79V950.981H1982.13V1044.65C1982.13 1052.38 1980.49 1058.74 1977.2 1063.73C1973.91 1068.72 1969.43 1072.41 1963.77 1074.78C1958.1 1077.2 1951.66 1078.41 1944.45 1078.41ZM1943.74 1031.63C1949.6 1031.63 1954.61 1030.23 1958.78 1027.41C1962.94 1024.56 1966.13 1020.48 1968.34 1015.17C1970.56 1009.86 1971.67 1003.54 1971.67 996.21C1971.67 989.078 1970.58 982.758 1968.4 977.251C1966.22 971.704 1963.05 967.345 1958.89 964.175C1954.77 960.966 1949.72 959.361 1943.74 959.361C1937.64 959.361 1932.49 961.005 1928.29 964.294C1924.09 967.583 1920.92 972.021 1918.78 977.607C1916.64 983.155 1915.57 989.356 1915.57 996.21C1915.57 1003.18 1916.66 1009.35 1918.84 1014.69C1921.01 1020 1924.2 1024.16 1928.4 1027.18C1932.6 1030.15 1937.72 1031.63 1943.74 1031.63ZM2093.17 950.981V960.193H2049.61V950.981H2093.17ZM2063.22 929.109H2073.86V1018.44C2073.86 1022.24 2074.51 1025.23 2075.82 1027.41C2077.12 1029.55 2078.83 1031.08 2080.93 1031.99C2083.03 1032.86 2085.27 1033.3 2087.64 1033.3C2089.03 1033.3 2090.22 1033.22 2091.21 1033.06C2092.2 1032.86 2093.07 1032.66 2093.83 1032.47L2096.08 1042.03C2095.05 1042.43 2093.79 1042.79 2092.28 1043.1C2090.77 1043.46 2088.91 1043.64 2086.69 1043.64C2082.81 1043.64 2079.07 1042.79 2075.46 1041.08C2071.89 1039.38 2068.96 1036.84 2066.66 1033.48C2064.37 1030.11 2063.22 1025.93 2063.22 1020.94V929.109ZM2129.74 985.215V1042.27H2119.16V920.55H2129.74V965.304H2130.69C2132.83 960.589 2136.14 956.825 2140.61 954.012C2145.13 951.199 2150.84 949.792 2157.73 949.792C2163.91 949.792 2169.34 951.06 2174.02 953.596C2178.69 956.132 2182.34 959.876 2184.95 964.829C2187.57 969.782 2188.88 975.884 2188.88 983.135V1042.27H2178.24V983.789C2178.24 976.26 2176.14 970.337 2171.94 966.018C2167.78 961.659 2162.15 959.48 2155.06 959.48C2150.18 959.48 2145.85 960.51 2142.04 962.57C2138.24 964.631 2135.23 967.603 2133.01 971.486C2130.83 975.329 2129.74 979.905 2129.74 985.215ZM2253.64 1044.17C2245.13 1044.17 2237.76 1042.19 2231.53 1038.23C2225.31 1034.23 2220.5 1028.7 2217.09 1021.65C2213.72 1014.56 2212.04 1006.39 2212.04 997.161C2212.04 987.969 2213.72 979.806 2217.09 972.674C2220.5 965.503 2225.19 959.896 2231.18 955.854C2237.2 951.773 2244.15 949.733 2252.04 949.733C2256.99 949.733 2261.77 950.644 2266.36 952.467C2270.96 954.25 2275.08 957.003 2278.73 960.728C2282.41 964.413 2285.32 969.069 2287.46 974.695C2289.6 980.282 2290.67 986.899 2290.67 994.546V999.776H2219.35V990.445H2279.85C2279.85 984.581 2278.67 979.311 2276.29 974.636C2273.95 969.92 2270.68 966.196 2266.48 963.462C2262.32 960.728 2257.51 959.361 2252.04 959.361C2246.25 959.361 2241.16 960.906 2236.76 963.997C2232.37 967.087 2228.92 971.169 2226.42 976.24C2223.97 981.312 2222.72 986.859 2222.68 992.882V998.469C2222.68 1005.72 2223.93 1012.06 2226.42 1017.49C2228.96 1022.88 2232.54 1027.06 2237.18 1030.03C2241.82 1033 2247.3 1034.49 2253.64 1034.49C2257.96 1034.49 2261.75 1033.81 2265 1032.47C2268.28 1031.12 2271.04 1029.32 2273.26 1027.06C2275.52 1024.76 2277.22 1022.24 2278.37 1019.51L2288.41 1022.78C2287.03 1026.62 2284.75 1030.17 2281.58 1033.42C2278.45 1036.67 2274.53 1039.28 2269.81 1041.26C2265.13 1043.2 2259.75 1044.17 2253.64 1044.17ZM2422.39 971.01L2412.71 973.744C2411.75 971.01 2410.41 968.534 2408.66 966.315C2406.92 964.096 2404.64 962.333 2401.83 961.025C2399.06 959.718 2395.61 959.064 2391.49 959.064C2385.31 959.064 2380.23 960.53 2376.27 963.462C2372.31 966.394 2370.33 970.178 2370.33 974.814C2370.33 978.737 2371.68 981.926 2374.37 984.383C2377.1 986.8 2381.3 988.722 2386.97 990.148L2400.76 993.536C2408.41 995.398 2414.13 998.35 2417.94 1002.39C2421.78 1006.43 2423.7 1011.5 2423.7 1017.61C2423.7 1022.76 2422.27 1027.33 2419.42 1031.34C2416.57 1035.34 2412.59 1038.49 2407.48 1040.79C2402.4 1043.04 2396.52 1044.17 2389.82 1044.17C2380.91 1044.17 2373.56 1042.17 2367.77 1038.17C2361.99 1034.13 2358.28 1028.3 2356.66 1020.7L2366.82 1018.2C2368.13 1023.63 2370.69 1027.73 2374.49 1030.5C2378.33 1033.28 2383.38 1034.66 2389.65 1034.66C2396.66 1034.66 2402.26 1033.1 2406.46 1029.97C2410.66 1026.8 2412.76 1022.84 2412.76 1018.08C2412.76 1014.4 2411.54 1011.31 2409.08 1008.81C2406.62 1006.27 2402.9 1004.41 2397.91 1003.22L2382.99 999.658C2375.06 997.756 2369.2 994.744 2365.4 990.623C2361.59 986.503 2359.69 981.391 2359.69 975.289C2359.69 970.257 2361.06 965.839 2363.79 962.036C2366.53 958.192 2370.29 955.181 2375.08 953.001C2379.88 950.822 2385.35 949.733 2391.49 949.733C2399.85 949.733 2406.52 951.635 2411.52 955.438C2416.55 959.202 2420.17 964.393 2422.39 971.01ZM2472.36 1044.35C2466.86 1044.35 2461.82 1043.28 2457.27 1041.14C2452.71 1038.96 2449.08 1035.83 2446.39 1031.75C2443.7 1027.63 2442.35 1022.64 2442.35 1016.77C2442.35 1012.26 2443.2 1008.45 2444.9 1005.36C2446.61 1002.27 2449.02 999.737 2452.16 997.756C2455.29 995.774 2458.99 994.209 2463.27 993.06C2467.55 991.911 2472.26 991.02 2477.41 990.386C2482.53 989.752 2486.84 989.197 2490.37 988.722C2493.94 988.246 2496.65 987.493 2498.51 986.463C2500.38 985.433 2501.31 983.769 2501.31 981.471V979.331C2501.31 973.11 2499.45 968.217 2495.72 964.651C2492.04 961.045 2486.73 959.242 2479.79 959.242C2473.21 959.242 2467.85 960.688 2463.69 963.581C2459.56 966.473 2456.67 969.881 2455.01 973.804L2444.96 970.178C2447.02 965.186 2449.88 961.203 2453.52 958.232C2457.17 955.22 2461.25 953.061 2465.77 951.753C2470.28 950.406 2474.86 949.733 2479.49 949.733C2482.98 949.733 2486.61 950.188 2490.37 951.1C2494.18 952.011 2497.7 953.596 2500.95 955.854C2504.2 958.073 2506.83 961.184 2508.86 965.186C2510.88 969.148 2511.89 974.18 2511.89 980.282V1042.27H2501.31V1027.83H2500.65C2499.39 1030.52 2497.5 1033.14 2495.01 1035.67C2492.51 1038.21 2489.38 1040.29 2485.62 1041.92C2481.85 1043.54 2477.43 1044.35 2472.36 1044.35ZM2473.79 1034.66C2479.42 1034.66 2484.29 1033.42 2488.41 1030.92C2492.53 1028.42 2495.7 1025.12 2497.92 1020.99C2500.18 1016.83 2501.31 1012.26 2501.31 1007.27V994.071C2500.51 994.824 2499.19 995.497 2497.33 996.091C2495.5 996.686 2493.38 997.221 2490.97 997.696C2488.59 998.132 2486.21 998.508 2483.83 998.825C2481.46 999.142 2479.32 999.42 2477.41 999.658C2472.26 1000.29 2467.87 1001.28 2464.22 1002.63C2460.57 1003.98 2457.78 1005.84 2455.84 1008.22C2453.9 1010.55 2452.93 1013.57 2452.93 1017.25C2452.93 1022.8 2454.91 1027.1 2458.87 1030.15C2462.83 1033.16 2467.81 1034.66 2473.79 1034.66ZM2550.61 920.55V1042.27H2540.03V920.55H2550.61ZM2615.51 1044.17C2606.99 1044.17 2599.62 1042.19 2593.4 1038.23C2587.18 1034.23 2582.37 1028.7 2578.96 1021.65C2575.59 1014.56 2573.91 1006.39 2573.91 997.161C2573.91 987.969 2575.59 979.806 2578.96 972.674C2582.37 965.503 2587.06 959.896 2593.04 955.854C2599.07 951.773 2606.02 949.733 2613.91 949.733C2618.86 949.733 2623.63 950.644 2628.23 952.467C2632.83 954.25 2636.95 957.003 2640.59 960.728C2644.28 964.413 2647.19 969.069 2649.33 974.695C2651.47 980.282 2652.54 986.899 2652.54 994.546V999.776H2581.22V990.445H2641.72C2641.72 984.581 2640.53 979.311 2638.16 974.636C2635.82 969.92 2632.55 966.196 2628.35 963.462C2624.19 960.728 2619.37 959.361 2613.91 959.361C2608.12 959.361 2603.03 960.906 2598.63 963.997C2594.23 967.087 2590.79 971.169 2588.29 976.24C2585.83 981.312 2584.58 986.859 2584.55 992.882V998.469C2584.55 1005.72 2585.79 1012.06 2588.29 1017.49C2590.83 1022.88 2594.41 1027.06 2599.05 1030.03C2603.68 1033 2609.17 1034.49 2615.51 1034.49C2619.83 1034.49 2623.61 1033.81 2626.86 1032.47C2630.15 1031.12 2632.9 1029.32 2635.12 1027.06C2637.38 1024.76 2639.09 1022.24 2640.24 1019.51L2650.28 1022.78C2648.89 1026.62 2646.61 1030.17 2643.44 1033.42C2640.31 1036.67 2636.39 1039.28 2631.68 1041.26C2627 1043.2 2621.61 1044.17 2615.51 1044.17ZM2737.19 971.01L2727.5 973.744C2726.55 971.01 2725.2 968.534 2723.46 966.315C2721.71 964.096 2719.44 962.333 2716.62 961.025C2713.85 959.718 2710.4 959.064 2706.28 959.064C2700.1 959.064 2695.03 960.53 2691.07 963.462C2687.1 966.394 2685.12 970.178 2685.12 974.814C2685.12 978.737 2686.47 981.926 2689.16 984.383C2691.9 986.8 2696.1 988.722 2701.76 990.148L2715.55 993.536C2723.2 995.398 2728.93 998.35 2732.73 1002.39C2736.57 1006.43 2738.5 1011.5 2738.5 1017.61C2738.5 1022.76 2737.07 1027.33 2734.22 1031.34C2731.36 1035.34 2727.38 1038.49 2722.27 1040.79C2717.2 1043.04 2711.31 1044.17 2704.62 1044.17C2695.7 1044.17 2688.35 1042.17 2682.57 1038.17C2676.78 1034.13 2673.08 1028.3 2671.45 1020.7L2681.62 1018.2C2682.92 1023.63 2685.48 1027.73 2689.28 1030.5C2693.13 1033.28 2698.18 1034.66 2704.44 1034.66C2711.45 1034.66 2717.06 1033.1 2721.26 1029.97C2725.46 1026.8 2727.56 1022.84 2727.56 1018.08C2727.56 1014.4 2726.33 1011.31 2723.87 1008.81C2721.42 1006.27 2717.69 1004.41 2712.7 1003.22L2697.78 999.658C2689.86 997.756 2683.99 994.744 2680.19 990.623C2676.39 986.503 2674.48 981.391 2674.48 975.289C2674.48 970.257 2675.85 965.839 2678.59 962.036C2681.32 958.192 2685.08 955.181 2689.88 953.001C2694.67 950.822 2700.14 949.733 2706.28 949.733C2714.64 949.733 2721.32 951.635 2726.31 955.438C2731.34 959.202 2734.97 964.393 2737.19 971.01ZM2845.64 1044.17C2837.12 1044.17 2829.75 1042.19 2823.53 1038.23C2817.31 1034.23 2812.5 1028.7 2809.09 1021.65C2805.72 1014.56 2804.04 1006.39 2804.04 997.161C2804.04 987.969 2805.72 979.806 2809.09 972.674C2812.5 965.503 2817.19 959.896 2823.17 955.854C2829.2 951.773 2836.15 949.733 2844.04 949.733C2848.99 949.733 2853.76 950.644 2858.36 952.467C2862.96 954.25 2867.08 957.003 2870.72 960.728C2874.41 964.413 2877.32 969.069 2879.46 974.695C2881.6 980.282 2882.67 986.899 2882.67 994.546V999.776H2811.35V990.445H2871.85C2871.85 984.581 2870.66 979.311 2868.29 974.636C2865.95 969.92 2862.68 966.196 2858.48 963.462C2854.32 960.728 2849.5 959.361 2844.04 959.361C2838.25 959.361 2833.16 960.906 2828.76 963.997C2824.36 967.087 2820.92 971.169 2818.42 976.24C2815.96 981.312 2814.71 986.859 2814.68 992.882V998.469C2814.68 1005.72 2815.92 1012.06 2818.42 1017.49C2820.96 1022.88 2824.54 1027.06 2829.18 1030.03C2833.81 1033 2839.3 1034.49 2845.64 1034.49C2849.96 1034.49 2853.74 1033.81 2856.99 1032.47C2860.28 1031.12 2863.04 1029.32 2865.25 1027.06C2867.51 1024.76 2869.22 1022.24 2870.37 1019.51L2880.41 1022.78C2879.02 1026.62 2876.74 1030.17 2873.57 1033.42C2870.44 1036.67 2866.52 1039.28 2861.81 1041.26C2857.13 1043.2 2851.74 1044.17 2845.64 1044.17ZM2941.64 1044.17C2933.48 1044.17 2926.37 1042.13 2920.31 1038.05C2914.28 1033.97 2909.61 1028.38 2906.28 1021.29C2902.95 1014.2 2901.29 1006.12 2901.29 997.042C2901.29 987.889 2902.97 979.747 2906.34 972.615C2909.75 965.483 2914.46 959.896 2920.48 955.854C2926.51 951.773 2933.5 949.733 2941.46 949.733C2947.57 949.733 2953.09 950.921 2958.05 953.299C2963 955.636 2967.08 958.945 2970.29 963.224C2973.54 967.464 2975.58 972.417 2976.41 978.083H2965.71C2964.6 972.932 2961.93 968.534 2957.69 964.888C2953.49 961.203 2948.14 959.361 2941.64 959.361C2935.82 959.361 2930.67 960.946 2926.19 964.116C2921.71 967.246 2918.21 971.624 2915.67 977.251C2913.17 982.838 2911.92 989.316 2911.92 996.686C2911.92 1004.1 2913.15 1010.65 2915.61 1016.36C2918.07 1022.02 2921.51 1026.46 2925.95 1029.67C2930.43 1032.88 2935.66 1034.49 2941.64 1034.49C2945.68 1034.49 2949.37 1033.73 2952.7 1032.23C2956.06 1030.68 2958.88 1028.5 2961.14 1025.69C2963.43 1022.88 2964.98 1019.53 2965.77 1015.65H2976.47C2975.68 1021.15 2973.72 1026.07 2970.59 1030.39C2967.5 1034.66 2963.47 1038.03 2958.52 1040.49C2953.61 1042.95 2947.98 1044.17 2941.64 1044.17ZM3034.63 1044.17C3026.74 1044.17 3019.77 1042.17 3013.71 1038.17C3007.68 1034.17 3002.97 1028.64 2999.56 1021.59C2996.15 1014.5 2994.45 1006.31 2994.45 997.042C2994.45 987.691 2996.15 979.47 2999.56 972.377C3002.97 965.245 3007.68 959.698 3013.71 955.735C3019.77 951.734 3026.74 949.733 3034.63 949.733C3042.51 949.733 3049.47 951.734 3055.49 955.735C3061.51 959.737 3066.23 965.285 3069.63 972.377C3073.08 979.47 3074.8 987.691 3074.8 997.042C3074.8 1006.31 3073.1 1014.5 3069.69 1021.59C3066.29 1028.64 3061.55 1034.17 3055.49 1038.17C3049.47 1042.17 3042.51 1044.17 3034.63 1044.17ZM3034.63 1034.49C3040.97 1034.49 3046.34 1032.78 3050.73 1029.37C3055.13 1025.97 3058.46 1021.43 3060.72 1015.76C3063.02 1010.1 3064.17 1003.86 3064.17 997.042C3064.17 990.227 3063.02 983.967 3060.72 978.261C3058.46 972.555 3055.13 967.979 3050.73 964.532C3046.34 961.085 3040.97 959.361 3034.63 959.361C3028.33 959.361 3022.96 961.085 3018.52 964.532C3014.12 967.979 3010.77 972.555 3008.48 978.261C3006.22 983.967 3005.09 990.227 3005.09 997.042C3005.09 1003.86 3006.22 1010.1 3008.48 1015.76C3010.77 1021.43 3014.12 1025.97 3018.52 1029.37C3022.92 1032.78 3028.29 1034.49 3034.63 1034.49ZM3159.37 971.01L3149.68 973.744C3148.73 971.01 3147.38 968.534 3145.64 966.315C3143.89 964.096 3141.61 962.333 3138.8 961.025C3136.03 959.718 3132.58 959.064 3128.46 959.064C3122.28 959.064 3117.21 960.53 3113.24 963.462C3109.28 966.394 3107.3 970.178 3107.3 974.814C3107.3 978.737 3108.65 981.926 3111.34 984.383C3114.08 986.8 3118.28 988.722 3123.94 990.148L3137.73 993.536C3145.38 995.398 3151.1 998.35 3154.91 1002.39C3158.75 1006.43 3160.67 1011.5 3160.67 1017.61C3160.67 1022.76 3159.25 1027.33 3156.39 1031.34C3153.54 1035.34 3149.56 1038.49 3144.45 1040.79C3139.38 1043.04 3133.49 1044.17 3126.79 1044.17C3117.88 1044.17 3110.53 1042.17 3104.74 1038.17C3098.96 1034.13 3095.26 1028.3 3093.63 1020.7L3103.79 1018.2C3105.1 1023.63 3107.66 1027.73 3111.46 1030.5C3115.3 1033.28 3120.36 1034.66 3126.62 1034.66C3133.63 1034.66 3139.24 1033.1 3143.44 1029.97C3147.64 1026.8 3149.74 1022.84 3149.74 1018.08C3149.74 1014.4 3148.51 1011.31 3146.05 1008.81C3143.6 1006.27 3139.87 1004.41 3134.88 1003.22L3119.96 999.658C3112.04 997.756 3106.17 994.744 3102.37 990.623C3098.56 986.503 3096.66 981.391 3096.66 975.289C3096.66 970.257 3098.03 965.839 3100.76 962.036C3103.5 958.192 3107.26 955.181 3112.06 953.001C3116.85 950.822 3122.32 949.733 3128.46 949.733C3136.82 949.733 3143.5 951.635 3148.49 955.438C3153.52 959.202 3157.15 964.393 3159.37 971.01ZM3191.21 1076.51C3189.11 1076.51 3187.15 1076.31 3185.32 1075.91C3183.5 1075.52 3182.05 1075.08 3180.98 1074.6L3183.84 1065.27C3187.44 1066.38 3190.65 1066.78 3193.47 1066.46C3196.28 1066.18 3198.78 1064.92 3200.95 1062.66C3203.13 1060.44 3205.08 1057.03 3206.78 1052.44L3210.11 1043.16L3176.53 950.981H3188L3215.1 1028.3H3215.93L3243.03 950.981H3254.5L3215.87 1056.71C3214.25 1061.11 3212.25 1064.78 3209.87 1067.71C3207.49 1070.68 3204.74 1072.88 3201.61 1074.31C3198.52 1075.77 3195.05 1076.51 3191.21 1076.51ZM3336.54 971.01L3326.85 973.744C3325.9 971.01 3324.55 968.534 3322.81 966.315C3321.07 964.096 3318.79 962.333 3315.97 961.025C3313.2 959.718 3309.75 959.064 3305.63 959.064C3299.45 959.064 3294.38 960.53 3290.42 963.462C3286.46 966.394 3284.47 970.178 3284.47 974.814C3284.47 978.737 3285.82 981.926 3288.52 984.383C3291.25 986.8 3295.45 988.722 3301.12 990.148L3314.9 993.536C3322.55 995.398 3328.28 998.35 3332.08 1002.39C3335.92 1006.43 3337.85 1011.5 3337.85 1017.61C3337.85 1022.76 3336.42 1027.33 3333.57 1031.34C3330.71 1035.34 3326.73 1038.49 3321.62 1040.79C3316.55 1043.04 3310.67 1044.17 3303.97 1044.17C3295.05 1044.17 3287.7 1042.17 3281.92 1038.17C3276.13 1034.13 3272.43 1028.3 3270.8 1020.7L3280.97 1018.2C3282.28 1023.63 3284.83 1027.73 3288.63 1030.5C3292.48 1033.28 3297.53 1034.66 3303.79 1034.66C3310.8 1034.66 3316.41 1033.1 3320.61 1029.97C3324.81 1026.8 3326.91 1022.84 3326.91 1018.08C3326.91 1014.4 3325.68 1011.31 3323.23 1008.81C3320.77 1006.27 3317.04 1004.41 3312.05 1003.22L3297.13 999.658C3289.21 997.756 3283.35 994.744 3279.54 990.623C3275.74 986.503 3273.84 981.391 3273.84 975.289C3273.84 970.257 3275.2 965.839 3277.94 962.036C3280.67 958.192 3284.43 955.181 3289.23 953.001C3294.02 950.822 3299.49 949.733 3305.63 949.733C3313.99 949.733 3320.67 951.635 3325.66 955.438C3330.69 959.202 3334.32 964.393 3336.54 971.01ZM3396.97 950.981V960.193H3353.4V950.981H3396.97ZM3367.01 929.109H3377.65V1018.44C3377.65 1022.24 3378.31 1025.23 3379.61 1027.41C3380.92 1029.55 3382.63 1031.08 3384.73 1031.99C3386.83 1032.86 3389.06 1033.3 3391.44 1033.3C3392.83 1033.3 3394.02 1033.22 3395.01 1033.06C3396 1032.86 3396.87 1032.66 3397.62 1032.47L3399.88 1042.03C3398.85 1042.43 3397.58 1042.79 3396.08 1043.1C3394.57 1043.46 3392.71 1043.64 3390.49 1043.64C3386.61 1043.64 3382.86 1042.79 3379.26 1041.08C3375.69 1039.38 3372.76 1036.84 3370.46 1033.48C3368.16 1030.11 3367.01 1025.93 3367.01 1020.94V929.109ZM3456.92 1044.17C3448.4 1044.17 3441.03 1042.19 3434.81 1038.23C3428.59 1034.23 3423.78 1028.7 3420.37 1021.65C3417 1014.56 3415.32 1006.39 3415.32 997.161C3415.32 987.969 3417 979.806 3420.37 972.674C3423.78 965.503 3428.47 959.896 3434.46 955.854C3440.48 951.773 3447.43 949.733 3455.32 949.733C3460.27 949.733 3465.05 950.644 3469.64 952.467C3474.24 954.25 3478.36 957.003 3482 960.728C3485.69 964.413 3488.6 969.069 3490.74 974.695C3492.88 980.282 3493.95 986.899 3493.95 994.546V999.776H3422.63V990.445H3483.13C3483.13 984.581 3481.95 979.311 3479.57 974.636C3477.23 969.92 3473.96 966.196 3469.76 963.462C3465.6 960.728 3460.79 959.361 3455.32 959.361C3449.53 959.361 3444.44 960.906 3440.04 963.997C3435.65 967.087 3432.2 971.169 3429.7 976.24C3427.25 981.312 3426 986.859 3425.96 992.882V998.469C3425.96 1005.72 3427.21 1012.06 3429.7 1017.49C3432.24 1022.88 3435.82 1027.06 3440.46 1030.03C3445.1 1033 3450.58 1034.49 3456.92 1034.49C3461.24 1034.49 3465.03 1033.81 3468.28 1032.47C3471.56 1031.12 3474.32 1029.32 3476.54 1027.06C3478.8 1024.76 3480.5 1022.24 3481.65 1019.51L3491.69 1022.78C3490.31 1026.62 3488.03 1030.17 3484.86 1033.42C3481.73 1036.67 3477.8 1039.28 3473.09 1041.26C3468.41 1043.2 3463.03 1044.17 3456.92 1044.17ZM3517.26 1042.27V950.981H3527.55V965.007H3528.5C3530.32 960.292 3533.35 956.587 3537.59 953.893C3541.87 951.159 3547 949.792 3552.98 949.792C3559.28 949.792 3564.45 951.278 3568.5 954.25C3572.58 957.182 3575.63 961.223 3577.65 966.374H3578.42C3580.48 961.303 3583.83 957.281 3588.47 954.309C3593.14 951.298 3598.81 949.792 3605.46 949.792C3613.94 949.792 3620.64 952.467 3625.55 957.816C3630.47 963.125 3632.92 970.891 3632.92 981.114V1042.27H3622.34V981.114C3622.34 973.903 3620.5 968.494 3616.82 964.888C3613.13 961.283 3608.28 959.48 3602.26 959.48C3595.28 959.48 3589.91 961.619 3586.15 965.899C3582.38 970.178 3580.5 975.606 3580.5 982.184V1042.27H3569.69V980.163C3569.69 973.982 3567.96 968.989 3564.51 965.186C3561.07 961.382 3556.21 959.48 3549.95 959.48C3545.75 959.48 3541.97 960.51 3538.6 962.57C3535.27 964.631 3532.64 967.503 3530.7 971.188C3528.79 974.834 3527.84 979.034 3527.84 983.789V1042.27H3517.26Z" fill="#00538E"/>
<path fill-rule="evenodd" clip-rule="evenodd" d="M769.668 817.631C764.489 820.857 758.416 823.135 751.449 824.423C744.657 825.564 737.617 826.133 730.33 826.133C723.193 826.133 716.551 825.963 710.4 825.637C699.717 825.317 688.858 824.024 677.854 821.751C666.996 819.491 656.56 815.678 646.522 810.343C649.423 806.451 652.595 803.852 655.991 802.56C659.557 801.272 662.953 799.562 666.179 797.459C668.137 792.124 669.92 785.556 671.533 777.777C673.316 770.164 675.425 762.653 677.854 755.191C680.434 747.733 683.927 741.587 688.29 736.729C692.828 732.04 698.901 729.762 706.509 729.932C703.929 738.512 702.068 746.863 700.931 754.948C699.79 763.202 698.901 771.379 698.255 779.483C697.608 787.742 696.544 795.996 695.106 804.27C701.403 797.779 707.403 790.093 713.077 781.193C718.903 772.273 724.728 763.771 730.553 755.686C736.553 747.412 742.874 741.262 749.515 737.22C756.157 733.007 763.522 732.361 771.626 735.266C756.234 761.021 741.98 786.697 728.867 812.277C736.626 808.064 744.239 802.808 751.697 796.487C758.984 790.016 766.272 783.622 773.559 777.301C781.017 770.81 788.63 765.481 796.389 761.264C804.172 757.221 812.349 755.366 820.929 755.686C824.495 757.945 827.969 760.224 831.365 762.478C822.96 767.167 815.424 772.919 808.783 779.73C802.141 786.372 795.821 793.091 789.845 799.888C783.675 806.699 776.955 812.602 769.668 817.631Z" fill="#00538E"/>
<path fill-rule="evenodd" clip-rule="evenodd" d="M598.906 729.686C599.227 726.936 598.906 723.938 597.939 720.693C596.948 717.467 596.229 714.392 595.733 711.467C595.092 708.547 595.661 706.21 597.444 704.427C606.99 707.332 613.802 711.545 617.844 717.049C622.056 722.724 624.485 729.287 625.132 736.73C625.778 744.188 625.7 751.947 624.884 760.051C624.087 768.154 623.519 776.088 623.198 783.852C622.872 791.63 623.669 798.748 625.627 805.239C642.782 816.248 659.786 823.608 676.64 827.349C693.319 830.896 709.833 832.11 726.191 830.993C742.549 829.856 758.664 827.67 774.527 824.424C790.394 821.179 806.033 818.181 821.425 815.431C826.924 814.465 832.997 813.493 839.644 812.526C846.266 811.559 852.679 811.239 858.829 811.559C864.975 811.88 870.159 813.571 874.371 816.646C878.414 819.566 880.692 824.599 881.163 831.712C852.188 835.283 823.757 841.827 795.918 851.393C768.206 860.789 740.766 872.041 713.549 885.154C686.507 898.272 659.558 911.953 632.667 926.207V1054.95H566.583V926.946C558.499 896.659 556.793 865.152 561.501 832.436C566.185 799.564 578.656 765.307 598.906 729.686Z" fill="#00538E"/>
<path fill-rule="evenodd" clip-rule="evenodd" d="M323.192 757.38C328.846 760.946 335.488 763.375 343.096 764.667C350.559 766.125 358.245 766.849 366.174 766.849C373.957 766.849 381.167 766.62 387.813 766.125C399.463 765.804 411.288 764.419 423.26 761.99C435.085 759.561 446.512 755.441 457.515 749.616C454.291 745.404 450.797 742.557 447.081 741.114C443.189 739.651 439.467 737.868 435.901 735.76C433.793 729.765 431.859 722.647 430.077 714.393C428.118 705.968 425.864 697.709 423.26 689.605C420.51 681.501 416.716 674.86 411.858 669.681C407 664.346 400.429 661.844 392.176 662.165C394.925 671.386 396.956 680.462 398.249 689.362C399.385 698.433 400.357 707.333 401.173 716.083C401.97 725.003 403.107 733.977 404.57 743.047C397.753 736.085 391.21 727.753 384.888 718.036C378.566 708.32 372.173 699.001 365.703 690.101C359.382 681.181 352.59 674.462 345.302 669.929C338.014 665.391 329.983 664.745 321.234 667.99C337.917 696.004 353.48 723.862 367.884 751.55C359.304 747.017 351.05 741.342 343.096 734.545C335.012 727.583 326.986 720.616 319.051 713.654C311.118 706.537 302.865 700.784 294.289 696.402C285.861 691.864 276.96 689.78 267.568 690.101C263.827 692.681 260.105 695.187 256.39 697.617C265.609 702.796 273.79 709.039 280.928 716.326C288.041 723.614 294.93 730.901 301.576 738.189C308.198 745.652 315.407 752.045 323.192 757.38Z" fill="#00538E"/>
<path fill-rule="evenodd" clip-rule="evenodd" d="M509.026 661.916C508.7 658.841 509.026 655.596 509.992 652.2C511.129 648.634 512.023 645.311 512.67 642.235C513.141 639.165 512.499 636.561 510.711 634.457C500.353 637.552 492.91 642.162 488.378 648.308C483.841 654.459 481.163 661.596 480.346 669.68C479.705 677.784 479.798 686.208 480.593 694.958C481.561 703.859 482.228 712.512 482.552 720.941C483.022 729.516 482.134 737.299 479.876 744.261C461.088 756.237 442.62 764.19 424.475 768.062C406.182 772.124 388.212 773.489 370.562 772.197C352.74 771.06 335.168 768.728 317.837 765.157C300.683 761.591 283.679 758.268 266.824 755.193C261 754.226 254.432 753.162 247.144 752.044C240.031 751.058 233.064 750.733 226.272 751.058C219.455 751.379 213.802 753.259 209.268 756.655C204.88 759.881 202.451 765.308 201.98 772.921C233.385 776.812 264.246 783.944 294.513 794.307C324.804 804.67 354.695 816.967 384.17 831.221C413.641 845.471 443.018 860.372 472.34 875.933V1055.2H544.25V876.652C552.999 843.615 554.761 809.281 549.578 773.659C544.57 738.018 531.039 700.784 509.026 661.916Z" fill="#00538E"/>
<path fill-rule="evenodd" clip-rule="evenodd" d="M565.144 757.621C564.969 757.451 564.477 753.088 563.683 744.508C563.036 735.933 563.434 724.506 564.897 710.252C566.184 696.002 569.828 680.285 575.828 663.13C581.653 645.956 591.049 628.704 604.011 611.379C630.407 577.22 650.239 547.098 663.526 521.023C676.639 494.948 682.712 471.7 681.745 451.3C681.896 451.621 682.144 456.081 682.464 464.661C682.785 473.085 682.712 483.846 682.216 496.979C681.745 510.242 680.283 524.02 677.854 538.275C675.424 552.354 671.363 565.317 665.708 577.142C665.858 576.821 670.318 573.498 679.068 567.177C687.643 560.857 699.221 553.248 713.796 544.348C728.221 535.277 744.331 526.605 762.132 518.346C779.953 509.921 798.099 503.601 816.565 499.408C831.291 495.992 845.05 490.337 857.862 482.403C870.804 474.3 882.552 465.302 893.085 455.435C903.769 445.548 912.917 435.928 920.525 426.532C928.133 417.291 934.056 409.678 938.248 403.683C942.31 397.532 944.419 394.384 944.569 394.214C944.739 394.384 943.68 398.028 941.421 405.145C939.312 412.107 935.1 421.178 928.779 432.357C922.459 443.687 913.237 455.833 901.092 468.795C888.946 481.738 872.986 494.379 853.227 506.695C833.473 518.841 809.103 529.355 780.128 538.275C743.69 549.109 712.907 561.901 687.818 576.646C662.861 591.547 642.305 608.153 626.097 626.445C610.084 644.911 597.273 665.142 587.726 687.175C578.179 709.037 570.644 732.513 565.144 757.621Z" fill="#00538E"/>
<path fill-rule="evenodd" clip-rule="evenodd" d="M569.505 618.189C569.334 617.869 568.786 612.593 567.795 602.4C566.827 592.362 565.939 578.905 565.142 562.07C564.326 545.391 564.151 527.022 564.647 506.923C565.292 487.013 567.154 467.089 570.224 447.179C573.319 427.25 578.328 409.031 585.295 392.522C592.087 375.994 601.332 362.804 612.983 352.917C612.832 352.761 609.985 353.558 604.481 355.346C599.151 357.129 592.582 360.846 584.799 366.52C577.04 372.35 569.505 381.173 562.218 392.999C554.93 404.819 549.255 420.609 545.213 440.368C541.171 460.292 540.106 485.23 542.065 515.197C541.89 515.027 538.742 512.597 532.572 507.909C526.425 503.051 518.171 496.978 507.81 489.69C497.595 482.403 486.194 474.945 473.552 467.332C460.911 459.724 448.046 453.004 434.934 447.179C421.97 441.184 409.674 437.215 397.998 435.262C383.594 432.832 368.203 428.295 351.844 421.673C335.487 414.861 319.469 406.432 303.757 396.395C288.214 386.352 274.187 375.1 261.717 362.634C249.421 350.162 240.029 337.049 233.558 323.29C233.558 323.441 234.996 326.614 237.92 332.759C240.995 339.08 245.606 347.165 251.777 357.051C257.923 367.094 265.856 377.85 275.573 389.355C285.119 401.025 296.47 412.277 309.582 423.116C322.693 433.969 337.766 443.365 354.77 451.299L190.056 464.903C190.38 464.903 195.161 464.903 204.407 464.903C213.8 464.733 226.095 464.733 241.315 464.903C256.538 464.903 273.144 465.15 291.114 465.626C309.261 465.947 327.081 466.516 344.556 467.332C362.058 468.148 377.77 469.27 391.679 470.733C405.612 472.19 416.145 474.051 423.258 476.33C433.791 479.726 446.112 485.381 460.191 493.334C474.271 501.268 488.623 511.232 503.198 523.203C517.773 535.349 530.959 549.356 542.784 565.223C554.609 581.105 563.51 598.756 569.505 618.189Z" fill="#00538E"/>
<path fill-rule="evenodd" clip-rule="evenodd" d="M391.457 634.227C391.132 634.227 388.532 630.336 383.674 622.557C378.815 614.944 373.063 603.197 366.421 587.334C359.631 571.297 353.48 551.139 347.955 526.847C347.805 526.847 347.065 529.276 345.773 534.135C344.486 538.823 343.421 545.465 342.626 554.064C341.659 562.469 341.808 572.361 343.097 583.69C344.408 595.039 347.557 607.336 352.59 620.619C352.415 620.619 348.849 620.128 341.882 619.156C334.919 618.19 325.694 616.484 314.193 614.055C302.545 611.796 289.829 608.623 276.07 604.581C262.137 600.695 248.135 595.758 234.03 589.763C219.952 583.933 206.912 576.893 194.916 568.639C182.77 560.535 172.83 551.217 165.047 540.703C164.876 540.854 165.616 543.133 167.227 547.495C168.69 551.863 171.765 557.538 176.474 564.5C181.157 571.617 188.295 579.075 197.841 586.858C207.386 594.792 220.102 602.23 235.989 609.197C235.814 609.197 232.666 609.687 226.495 610.654C220.349 611.626 212.338 613.083 202.45 615.022C192.584 617.126 181.802 619.973 170.154 623.524C158.478 626.94 147.076 631.06 135.896 635.918C124.716 640.776 114.85 646.524 106.251 653.165C97.6745 659.637 91.3548 667.099 87.3125 675.523C87.3125 675.353 91.1271 672.997 98.7392 668.464C106.347 664.097 117.998 658.995 133.716 653.165C149.428 647.17 169.336 641.743 193.478 636.885C217.595 632.026 246.104 629.121 278.97 628.154C311.842 627.017 349.345 629.048 391.457 634.227Z" fill="#00538E"/>
<path fill-rule="evenodd" clip-rule="evenodd" d="M768.454 709.76C768.454 709.61 770.237 707.652 773.808 703.935C777.525 700.364 782.956 696.172 790.069 691.313C797.036 686.605 805.786 682.393 816.319 678.672C826.832 674.955 838.978 672.924 852.757 672.599C866.516 672.278 881.829 674.785 898.664 680.134C898.494 680.134 896.064 679.886 891.376 679.396C886.688 678.919 880.615 678.672 873.157 678.672C865.7 678.672 857.766 679.318 849.361 680.61C840.931 681.747 832.998 683.856 825.54 686.931C818.102 690.176 812.029 694.709 807.321 700.534C807.647 700.534 812.427 701.428 821.649 703.211C830.894 704.994 842.962 708.22 857.863 712.928C872.909 717.616 889.195 724.107 906.67 732.362C924.17 740.791 941.345 751.547 958.179 764.665C958.009 764.34 953.49 761.663 944.57 756.654C935.67 751.625 922.878 745.722 906.199 738.911C889.515 732.114 869.591 725.871 846.436 720.216C823.111 714.711 797.133 711.223 768.454 709.76Z" fill="#00538E"/>
<path fill-rule="evenodd" clip-rule="evenodd" d="M285.292 240.7L298.653 267.65L328.522 272.032L306.906 293.156L312.014 322.797L285.292 308.718L258.571 322.797L263.678 293.156L242.062 272.032L271.932 267.65L285.292 240.7Z" fill="#E9262C"/>
<path fill-rule="evenodd" clip-rule="evenodd" d="M230.883 480.203L243.746 506.448L272.65 510.568L251.778 530.988L256.637 559.89L230.883 546.282L204.879 559.89L209.738 530.988L188.843 510.568L217.77 506.448L230.883 480.203Z" fill="#E9262C"/>
<path fill-rule="evenodd" clip-rule="evenodd" d="M911.775 565.964L922.235 587.088L945.535 590.503L928.531 606.769L932.423 630.089L911.775 619.158L890.879 630.089L894.77 606.769L878.014 590.503L901.339 587.088L911.775 565.964Z" fill="#E9262C"/>
<path fill-rule="evenodd" clip-rule="evenodd" d="M968.612 420.46L977.114 437.693L996.076 440.613L982.468 453.973L985.616 473.164L968.612 463.938L951.607 473.164L954.78 453.973L940.924 440.613L960.11 437.693L968.612 420.46Z" fill="#E9262C"/>
<path fill-rule="evenodd" clip-rule="evenodd" d="M757.521 365.307L764.09 378.915L779.136 380.853L768.205 391.537L770.882 406.36L757.521 399.315L744.161 406.36L746.59 391.537L735.906 380.853L750.977 378.915L757.521 365.307Z" fill="#E9262C"/>
<path fill-rule="evenodd" clip-rule="evenodd" d="M889.664 312.36L898.414 329.84L917.6 332.76L903.768 346.369L906.916 365.802L889.664 356.562L872.188 365.802L875.584 346.369L861.505 332.76L880.938 329.84L889.664 312.36Z" fill="#E9262C"/>
<path fill-rule="evenodd" clip-rule="evenodd" d="M907.412 745.476L916.385 763.695L936.81 766.848L921.987 780.947L925.383 801.347L907.412 791.63L889.193 801.347L892.589 780.947L878.014 766.848L898.166 763.695L907.412 745.476Z" fill="#E9262C"/>
<path fill-rule="evenodd" clip-rule="evenodd" d="M700.682 629.846L712.333 653.414L738.335 657.306L719.397 675.753L723.76 701.75L700.682 689.362L677.11 701.75L681.745 675.753L662.782 657.306L688.784 653.414L700.682 629.846Z" fill="#E9262C"/>
<path fill-rule="evenodd" clip-rule="evenodd" d="M802.957 559.891L810.492 575.19L827.249 577.619L815.103 589.517L818.003 606.293L802.957 598.51L787.638 606.293L790.563 589.517L778.417 577.619L795.421 575.19L802.957 559.891Z" fill="#E9262C"/>
<path fill-rule="evenodd" clip-rule="evenodd" d="M957.212 662.639L965.962 680.382L985.395 683.039L971.291 696.89L974.464 716.081L957.212 707.103L939.712 716.081L943.108 696.89L929.028 683.039L948.462 680.382L957.212 662.639Z" fill="#E9262C"/>
<path fill-rule="evenodd" clip-rule="evenodd" d="M823.358 412.186L829.679 425.07L843.759 427.009L833.571 436.968L836 451.053L823.358 444.256L810.717 451.053L813.146 436.968L802.958 427.009L817.038 425.07L823.358 412.186Z" fill="#E9262C"/>
<path fill-rule="evenodd" clip-rule="evenodd" d="M730.082 441.108L737.37 455.435L753.16 457.865L741.733 469.044L744.41 484.833L730.082 477.298L715.979 484.833L718.656 469.044L707.253 457.865L723.043 455.435L730.082 441.108Z" fill="#E9262C"/>
<path fill-rule="evenodd" clip-rule="evenodd" d="M632.666 405.635L643.349 427.498L667.641 431.142L650.166 448.146L654.281 472.438L632.666 461.016L610.803 472.438L614.942 448.146L597.442 431.142L621.734 427.498L632.666 405.635Z" fill="#E9262C"/>
<path fill-rule="evenodd" clip-rule="evenodd" d="M623.445 498.421L629.742 511.305L643.846 513.243L633.633 523.203L636.062 537.288L623.445 530.491L610.804 537.288L613.233 523.203L603.021 513.243L617.124 511.305L623.445 498.421Z" fill="#E9262C"/>
<path fill-rule="evenodd" clip-rule="evenodd" d="M678.102 297.289L684.646 310.897L699.717 313.079L689.034 323.519L691.463 338.342L678.102 331.298L664.742 338.342L667.394 323.519L656.463 313.079L671.534 310.897L678.102 297.289Z" fill="#E9262C"/>
<path fill-rule="evenodd" clip-rule="evenodd" d="M544 318.186L552.503 335.438L571.687 338.343L557.857 351.704L561.005 370.89L544 361.911L526.996 370.89L530.144 351.704L516.313 338.343L535.498 335.438L544 318.186Z" fill="#E9262C"/>
<path fill-rule="evenodd" clip-rule="evenodd" d="M394.357 353.408L401.893 368.707L418.649 371.136L406.503 383.034L409.43 399.81L394.357 392.027L379.065 399.81L381.964 383.034L369.818 371.136L386.823 368.707L394.357 353.408Z" fill="#E9262C"/>
<path fill-rule="evenodd" clip-rule="evenodd" d="M396.538 285.144L403.355 299L418.648 301.182L407.469 312.113L410.145 327.412L396.538 320.125L382.707 327.412L385.383 312.113L374.205 301.182L389.497 299L396.538 285.144Z" fill="#E9262C"/>
<path fill-rule="evenodd" clip-rule="evenodd" d="M128.61 671.385L138.078 690.576L159.47 693.743L143.904 708.547L147.548 729.686L128.61 719.726L109.671 729.686L113.315 708.547L97.9961 693.743L119.141 690.576L128.61 671.385Z" fill="#E9262C"/>
<path fill-rule="evenodd" clip-rule="evenodd" d="M133.218 553.568L142.464 572.759L163.583 575.927L148.291 590.73L151.934 611.626L133.218 601.661L114.282 611.626L117.926 590.73L102.606 575.927L123.75 572.759L133.218 553.568Z" fill="#E9262C"/>
<path fill-rule="evenodd" clip-rule="evenodd" d="M224.067 678.673L232.099 694.958L250.069 697.616L237.204 710.253L240.103 728.229L224.067 719.726L208.053 728.229L211.202 710.253L198.09 697.616L216.06 694.958L224.067 678.673Z" fill="#E9262C"/>
<path fill-rule="evenodd" clip-rule="evenodd" d="M460.195 528.064L467.731 543.363L484.487 545.792L472.341 557.71L475.266 574.466L460.195 566.688L444.901 574.466L447.8 557.71L435.654 545.792L452.412 543.363L460.195 528.064Z" fill="#E9262C"/>
<path fill-rule="evenodd" clip-rule="evenodd" d="M464.558 592.683L471.126 606.044L485.95 608.225L475.265 618.666L477.695 633.241L464.558 626.201L451.444 633.241L453.873 618.666L443.19 608.225L458.014 606.044L464.558 592.683Z" fill="#E9262C"/>
</svg>
