<?xml version="1.0" encoding="utf-8"?>
<!-- Generator: Adobe Illustrator 25.0.0, SVG Export Plug-In . SVG Version: 6.00 Build 0)  -->
<svg version="1.1" id="Layer_1" xmlns="http://www.w3.org/2000/svg" xmlns:xlink="http://www.w3.org/1999/xlink" x="0px" y="0px"
	 viewBox="0 0 120 42" style="enable-background:new 0 0 120 42;" xml:space="preserve">
<style type="text/css">
	.st0{fill:#FFFFFF;}
	.st1{fill:#FFFFFF;fill-opacity:0.7;}
</style>
<path class="st0" d="M32.4,41.9v-25c0-0.1,0-0.2,0-0.3l0-0.2c0-0.1,0-0.2,0-0.2c0-0.1,0-0.2,0-0.2c0-0.1,0-0.1,0-0.2
	c0-0.1,0-0.1,0-0.2c0,0,0-0.1,0-0.1c0,0,0-0.1,0-0.2c0,0,0-0.1,0-0.2c0-0.1,0-0.1,0-0.2c0-0.1,0-0.1,0-0.2c0-0.1,0-0.1,0-0.1
	c0,0,0-0.1-0.1-0.2c0-0.1,0-0.1-0.1-0.2c0-0.1,0-0.1-0.1-0.2c0-0.1,0-0.1-0.1-0.2c-0.1-0.1-0.1-0.2-0.2-0.4l-0.1-0.1c0,0,0,0,0-0.1
	c0-0.1-0.1-0.1-0.1-0.2c0-0.1-0.1-0.1-0.1-0.2c0-0.1-0.1-0.1-0.1-0.1c0,0-0.1-0.1-0.1-0.1c0,0,0-0.1-0.1-0.1L31,12.7
	c0,0-0.1-0.1-0.1-0.1c0,0-0.1-0.1-0.1-0.1c0,0-0.1-0.1-0.1-0.1c0,0,0,0,0-0.1l-0.1-0.1c0,0-0.1-0.1-0.1-0.1c0,0-0.1-0.1-0.1-0.2
	c0,0-0.1-0.1-0.1-0.1c0,0-0.1-0.1-0.1-0.1c0,0-0.1-0.1-0.1-0.1c-0.1-0.1-0.2-0.2-0.4-0.4c-0.1,0-0.1-0.1-0.2-0.1
	c-0.1,0-0.1-0.1-0.2-0.2c-0.2-0.2-0.5-0.4-0.7-0.6c0,0-0.1-0.1-0.1-0.1c-0.3-0.2-0.6-0.4-1-0.6l-0.2-0.1c-0.2-0.1-0.3-0.2-0.5-0.2
	c-0.1,0-0.1-0.1-0.2-0.1c-0.1,0-0.2-0.1-0.3-0.1c-0.1,0-0.1-0.1-0.2-0.1c-0.1,0-0.2-0.1-0.2-0.1c-0.1,0-0.2-0.1-0.3-0.1
	c-0.1,0-0.1-0.1-0.2-0.1l-0.1,0l-0.2-0.1c-0.1,0-0.2,0-0.2-0.1c-0.1,0-0.1,0-0.2-0.1l-0.1,0c-0.1,0-0.1,0-0.2,0
	c-0.1,0-0.1,0-0.2-0.1c-0.1,0-0.1,0-0.2,0l-0.1,0c0,0-0.1,0-0.1,0c0,0-0.1,0-0.1,0c0,0-0.1,0-0.2,0c0,0-0.1,0-0.1,0l-0.1,0
	c-0.1,0-0.1,0-0.2,0c-0.1,0-0.1,0-0.2,0c-0.1,0-0.1,0-0.2,0l0,0c-0.1,0-0.1,0-0.2,0l-0.2,0C22,8,22,8,21.9,8l-0.1,0l-0.2,0
	c-0.1,0-0.1,0-0.2,0h0c0,0-0.1,0-0.1,0h-0.1h-0.1H21h-0.1c-1.8,0-3.6,0.3-5.2,1c-1.6,0.6-3,1.6-4.1,2.7c0,0,0,0,0.1-0.1
	c0.3-0.3,0.7-0.6,1.1-0.8c0,0,0.1,0,0.1-0.1c0.2-0.1,0.4-0.2,0.6-0.3l0.2-0.1c0.4-0.1,0.9-0.2,1.4-0.3l0.2,0l0.1,0
	c0.1,0,0.2,0,0.3,0c1.4,0,2.7,0.4,3.6,1.1c1,0.7,1.5,1.7,1.6,2.8c0,0,0,0.1,0,0.1c0,0,0,0.1,0,0.1v19.7c0.3,2.2,1.6,4.2,3.7,5.7
	C26.7,41.1,29.5,41.9,32.4,41.9L32.4,41.9z"/>
<path class="st0" d="M0,0v25c0,0.1,0,0.2,0,0.3l0,0.2c0,0.1,0,0.2,0,0.2c0,0.1,0,0.2,0,0.2c0,0.1,0,0.1,0,0.2l0,0.2l0,0.1
	c0,0.1,0,0.1,0,0.2c0,0,0,0.1,0,0.2c0,0.1,0,0.1,0,0.2c0,0.1,0,0.1,0,0.2c0,0.1,0,0.1,0,0.1c0,0,0,0.1,0.1,0.2c0,0.1,0,0.1,0.1,0.2
	c0,0.1,0,0.1,0.1,0.2c0,0.1,0,0.1,0.1,0.2c0.1,0.1,0.1,0.2,0.2,0.4l0.1,0.1c0,0,0,0,0,0.1c0,0.1,0.1,0.1,0.1,0.2
	C1,28.7,1,28.7,1,28.8c0,0.1,0.1,0.1,0.1,0.1c0,0,0.1,0.1,0.1,0.1c0,0,0,0.1,0.1,0.1l0.1,0.1c0,0,0.1,0.1,0.1,0.1
	c0,0,0.1,0.1,0.1,0.1c0,0,0.1,0.1,0.1,0.1c0,0,0,0,0,0.1l0.1,0.1c0,0,0.1,0.1,0.1,0.1c0,0,0.1,0.1,0.1,0.2l0.1,0.1l0.1,0.1
	c0,0,0.1,0.1,0.1,0.1c0.1,0.1,0.2,0.2,0.4,0.4c0.1,0,0.1,0.1,0.2,0.1C2.9,30.9,2.9,31,3,31c0.2,0.2,0.5,0.4,0.7,0.6
	c0,0,0.1,0.1,0.1,0.1c0.3,0.2,0.6,0.4,1,0.6L5,32.4c0.2,0.1,0.3,0.2,0.5,0.2c0.1,0,0.1,0.1,0.2,0.1c0.1,0,0.2,0.1,0.3,0.1
	c0.1,0,0.1,0.1,0.2,0.1c0.1,0,0.2,0.1,0.2,0.1c0.1,0,0.2,0.1,0.3,0.1c0.1,0,0.1,0.1,0.2,0.1l0.1,0c0.1,0,0.1,0,0.2,0.1
	c0.1,0,0.2,0,0.2,0.1c0.1,0,0.1,0,0.2,0.1l0.1,0c0.1,0,0.1,0,0.2,0c0.1,0,0.1,0,0.2,0.1c0.1,0,0.1,0,0.2,0l0.1,0c0,0,0.1,0,0.1,0
	c0,0,0.1,0,0.1,0c0,0,0.1,0,0.2,0c0,0,0.1,0,0.1,0l0.1,0c0.1,0,0.1,0,0.2,0c0.1,0,0.1,0,0.2,0c0.1,0,0.1,0,0.2,0l0,0
	c0.1,0,0.1,0,0.2,0l0.2,0c0.1,0,0.1,0,0.2,0h0.1l0.2,0c0.1,0,0.1,0,0.2,0h0c0,0,0.1,0,0.1,0h0.1h0.1h0.2h0.1c1.8,0,3.6-0.3,5.2-1
	c1.6-0.6,3-1.6,4.1-2.7l-0.1,0.1c-0.3,0.3-0.7,0.6-1.1,0.8c0,0-0.1,0-0.1,0.1c-0.2,0.1-0.4,0.2-0.6,0.3l-0.2,0.1
	c-0.4,0.1-0.9,0.2-1.4,0.3l-0.2,0l-0.1,0c-0.1,0-0.2,0-0.3,0c-1.4,0-2.7-0.4-3.6-1.1c-1-0.7-1.5-1.7-1.6-2.8c0,0,0-0.1,0-0.1
	s0-0.1,0-0.1V8c-0.3-2.2-1.6-4.2-3.7-5.7C5.7,0.8,2.9,0,0,0L0,0z"/>
<path class="st1" d="M39.9,39v-6.7h2.7c0.4,0,0.8,0.1,1.1,0.2c0.3,0.2,0.6,0.4,0.8,0.7c0.2,0.3,0.3,0.7,0.3,1.1v0.1
	c0,0.4-0.1,0.8-0.3,1.1c-0.2,0.3-0.4,0.5-0.8,0.7c-0.3,0.2-0.7,0.2-1.1,0.2H41V39H39.9z M41,35.5h1.4c0.3,0,0.6-0.1,0.8-0.3
	c0.2-0.2,0.3-0.4,0.3-0.7v-0.1c0-0.3-0.1-0.6-0.3-0.7s-0.5-0.3-0.8-0.3H41V35.5z"/>
<path class="st1" d="M49.1,39.2c-0.8,0-1.5-0.2-2-0.7c-0.5-0.5-0.7-1.1-0.7-2v-1.6c0-0.9,0.2-1.5,0.7-2c0.5-0.5,1.2-0.7,2-0.7
	c0.8,0,1.5,0.2,2,0.7c0.5,0.5,0.7,1.1,0.7,2v1.6c0,0.9-0.2,1.5-0.7,2C50.6,39,50,39.2,49.1,39.2z M49.1,38.2c0.5,0,0.9-0.1,1.2-0.4
	c0.3-0.3,0.4-0.7,0.4-1.2v-1.7c0-0.5-0.1-0.9-0.4-1.2c-0.3-0.3-0.7-0.4-1.2-0.4c-0.5,0-0.9,0.1-1.2,0.4c-0.3,0.3-0.4,0.7-0.4,1.2
	v1.7c0,0.5,0.1,0.9,0.4,1.2C48.3,38,48.6,38.2,49.1,38.2z"/>
<path class="st1" d="M54,39v-6.7h2.8c0.4,0,0.8,0.1,1.1,0.2c0.3,0.1,0.6,0.4,0.7,0.6c0.2,0.3,0.3,0.6,0.3,0.9v0.1
	c0,0.4-0.1,0.7-0.3,1c-0.2,0.2-0.4,0.4-0.7,0.5V36c0.2,0,0.4,0.1,0.6,0.3c0.1,0.2,0.2,0.4,0.2,0.6V39h-1.1v-2c0-0.2,0-0.3-0.1-0.4
	c-0.1-0.1-0.2-0.2-0.4-0.2h-1.9V39H54z M55.1,35.4h1.6c0.3,0,0.6-0.1,0.8-0.3c0.2-0.2,0.3-0.4,0.3-0.7v-0.1c0-0.3-0.1-0.5-0.3-0.7
	c-0.2-0.2-0.4-0.3-0.8-0.3h-1.6V35.4z"/>
<path class="st1" d="M62.4,39v-5.6h-2v-1h5.1v1h-2V39H62.4z"/>
<path class="st1" d="M67.4,39v-6.7h4.2v1h-3v1.8h2.8v1h-2.8V39H67.4z"/>
<path class="st1" d="M75.9,39.2c-0.8,0-1.5-0.2-2-0.7c-0.5-0.5-0.7-1.1-0.7-2v-1.6c0-0.9,0.2-1.5,0.7-2c0.5-0.5,1.2-0.7,2-0.7
	c0.8,0,1.5,0.2,2,0.7c0.5,0.5,0.7,1.1,0.7,2v1.6c0,0.9-0.2,1.5-0.7,2C77.4,39,76.7,39.2,75.9,39.2z M75.9,38.2
	c0.5,0,0.9-0.1,1.2-0.4c0.3-0.3,0.4-0.7,0.4-1.2v-1.7c0-0.5-0.1-0.9-0.4-1.2c-0.3-0.3-0.7-0.4-1.2-0.4c-0.5,0-0.9,0.1-1.2,0.4
	c-0.3,0.3-0.4,0.7-0.4,1.2v1.7c0,0.5,0.1,0.9,0.4,1.2C75,38,75.4,38.2,75.9,38.2z"/>
<path class="st1" d="M80.7,39v-6.7h1.2V38H85v1H80.7z"/>
<path class="st1" d="M86.9,39v-6.7H88V39H86.9z"/>
<path class="st1" d="M92.8,39.2c-0.8,0-1.5-0.2-2-0.7c-0.5-0.5-0.7-1.1-0.7-2v-1.6c0-0.9,0.2-1.5,0.7-2c0.5-0.5,1.2-0.7,2-0.7
	c0.8,0,1.5,0.2,2,0.7c0.5,0.5,0.7,1.1,0.7,2v1.6c0,0.9-0.2,1.5-0.7,2C94.3,39,93.7,39.2,92.8,39.2z M92.8,38.2
	c0.5,0,0.9-0.1,1.2-0.4c0.3-0.3,0.4-0.7,0.4-1.2v-1.7c0-0.5-0.1-0.9-0.4-1.2c-0.3-0.3-0.7-0.4-1.2-0.4c-0.5,0-0.9,0.1-1.2,0.4
	c-0.3,0.3-0.4,0.7-0.4,1.2v1.7c0,0.5,0.1,0.9,0.4,1.2C91.9,38,92.3,38.2,92.8,38.2z"/>
<path class="st0" d="M51.5,12.1c-0.9-0.5-2-0.8-3.1-0.8c-0.7,0-1.5,0.1-2.2,0.3c-0.5,0.2-1,0.5-1.4,0.8c-0.3,0.2-0.5,0.5-0.7,0.8
	h-0.1V5.7H40v20.6h4.2v-7.5c-0.1-1,0.2-2.1,0.8-2.9c0.3-0.3,0.7-0.6,1.1-0.8c0.4-0.2,0.9-0.2,1.3-0.2c0.4,0,0.7,0,1.1,0.1
	c0.4,0.1,0.7,0.3,0.9,0.6c0.5,0.6,0.8,1.4,0.7,2.2v8.5h4.2v-8.8c0-1.1-0.2-2.2-0.7-3.2C53.1,13.4,52.4,12.7,51.5,12.1z"/>
<path class="st0" d="M70.2,22.2v-5.3c0-1.9-0.6-3.3-1.7-4.3c-1.3-1-3-1.6-4.6-1.5c-1.1,0-2.2,0.2-3.2,0.6c-0.8,0.3-1.6,0.9-2.1,1.5
	c-0.5,0.6-0.9,1.3-1.1,2.1l-0.1,0.3l3.9,1.3l0.1-0.3c0.1-0.5,0.4-1.1,0.8-1.4c0.5-0.4,1.2-0.6,1.8-0.5c0.7-0.1,1.3,0.2,1.8,0.6
	c0.2,0.2,0.3,0.4,0.4,0.7c0.1,0.2,0.1,0.5,0.1,0.8v0.5h-3.6c-1,0-2,0.2-3,0.5c-0.8,0.3-1.5,0.9-2.1,1.6C57,20,56.7,21,56.8,21.9
	c0,0.9,0.2,1.9,0.7,2.6c0.5,0.7,1.2,1.3,2,1.6c0.9,0.4,1.9,0.6,2.9,0.6c0.8,0,1.7-0.1,2.5-0.5c0.5-0.2,1-0.6,1.4-1.1
	c0.2-0.2,0.3-0.5,0.5-0.8h0.1c0,0.3,0.1,0.5,0.3,0.8c0.1,0.2,0.3,0.4,0.5,0.6c0.6,0.4,1.2,0.6,1.9,0.6h2.7v-3.6h-1.4
	C70.4,22.8,70.2,22.7,70.2,22.2z M66.1,20.4c0,0.4-0.1,0.8-0.2,1.1c-0.1,0.4-0.4,0.7-0.7,0.9c-0.6,0.5-1.5,0.8-2.3,0.8
	c-0.6,0-1.1-0.1-1.6-0.4c-0.2-0.1-0.3-0.3-0.4-0.5c-0.1-0.2-0.1-0.4-0.1-0.6c0-0.2,0-0.4,0.1-0.5s0.2-0.3,0.4-0.4
	c0.4-0.3,0.9-0.4,1.4-0.4H66.1z"/>
<path class="st0" d="M79.4,11.9c-0.5,0.3-0.9,0.7-1.1,1.2h0v-1.6h-4.1v14.8h4.2V18c0-0.4,0-0.8,0.2-1.1c0.1-0.4,0.3-0.7,0.6-0.9
	c0.6-0.5,1.3-0.7,2.1-0.7h2.1v-3.8h-2C80.6,11.5,80,11.6,79.4,11.9z"/>
<path class="st0" d="M90.7,11.9c-0.5,0.3-0.9,0.7-1.1,1.2h0v-1.6h-4.1v14.8h4.2V18c0-0.4,0-0.8,0.2-1.1c0.1-0.4,0.4-0.7,0.6-0.9
	c0.6-0.5,1.3-0.7,2.1-0.7h2.1v-3.8h-2C91.9,11.5,91.3,11.6,90.7,11.9z"/>
<path class="st0" d="M106.8,19c0.1,1-0.2,2.1-0.8,2.9c-0.3,0.3-0.7,0.6-1.1,0.8c-0.4,0.2-0.9,0.2-1.3,0.2c-0.4,0-0.7,0-1.1-0.1
	c-0.4-0.1-0.7-0.3-0.9-0.6c-0.5-0.6-0.8-1.4-0.7-2.2v-8.5h-4.2v8.8c0,1.1,0.2,2.2,0.7,3.2c0.5,0.9,1.2,1.7,2,2.2
	c0.9,0.5,2,0.8,3.1,0.8c0.8,0,1.5-0.1,2.2-0.3c0.5-0.2,1-0.5,1.4-0.9c0.3-0.3,0.5-0.6,0.7-0.9h0.1v3.3c0,0.5-0.2,0.6-0.5,0.6h-8V32
	h9.2c0.5,0,0.9-0.1,1.3-0.2c0.4-0.2,0.8-0.4,1.1-0.7c0.3-0.3,0.6-0.7,0.7-1.2c0.2-0.4,0.2-0.9,0.2-1.4v-17h-4.2V19z"/>
<path class="st0" d="M119.2,21.8c-0.3-0.3-0.6-0.5-0.9-0.6c-0.3-0.1-0.7-0.2-1.1-0.2c-0.4,0-0.8,0.1-1.1,0.2
	c-0.4,0.1-0.7,0.3-0.9,0.6c-0.3,0.3-0.5,0.6-0.6,0.9c-0.1,0.4-0.2,0.7-0.2,1.1c0,0.4,0.1,0.8,0.2,1.1c0.1,0.4,0.4,0.7,0.6,0.9
	c0.3,0.3,0.6,0.5,0.9,0.6c0.4,0.1,0.7,0.2,1.1,0.2c0.4,0,0.7-0.1,1.1-0.2c0.3-0.1,0.7-0.3,0.9-0.6c0.3-0.3,0.5-0.6,0.6-0.9
	s0.2-0.7,0.2-1.1c0-0.4-0.1-0.8-0.2-1.1C119.7,22.3,119.5,22,119.2,21.8z"/>
</svg>
