<svg id="Layer_1" data-name="Layer 1" xmlns="http://www.w3.org/2000/svg" xmlns:xlink="http://www.w3.org/1999/xlink" viewBox="0 0 200 50"><defs><style>.cls-1{fill:#fff;}.cls-2{fill:url(#linear-gradient);}.cls-3{fill:url(#linear-gradient-2);}.cls-4{fill:url(#linear-gradient-3);}.cls-5{fill:url(#linear-gradient-4);}.cls-6{fill:url(#linear-gradient-5);}.cls-7{fill:url(#linear-gradient-6);}.cls-8{fill:url(#linear-gradient-7);}.cls-9{fill:url(#linear-gradient-8);}.cls-10{fill:url(#linear-gradient-9);}</style><linearGradient id="linear-gradient" x1="-817.93" y1="1110.61" x2="-813.45" y2="1099.22" gradientTransform="translate(900 -1103.93)" gradientUnits="userSpaceOnUse"><stop offset="0" stop-color="#662d91"/><stop offset="0.2" stop-color="#0664a4"/><stop offset="0.35" stop-color="#1099de"/><stop offset="0.49" stop-color="#11a1e7"/><stop offset="0.61" stop-color="#04b1bf"/><stop offset="1" stop-color="#8edff8"/></linearGradient><linearGradient id="linear-gradient-2" x1="-841.16" y1="1152.08" x2="-796.92" y2="1078.31" gradientTransform="translate(900 -1103.93)" gradientUnits="userSpaceOnUse"><stop offset="0" stop-color="#662d91"/><stop offset="0.27" stop-color="#0664a4"/><stop offset="0.49" stop-color="#11a1e7"/><stop offset="0.74" stop-color="#04b1bf"/><stop offset="1" stop-color="#8edff8"/></linearGradient><linearGradient id="linear-gradient-3" x1="-859.08" y1="1141.34" x2="-814.84" y2="1067.55" xlink:href="#linear-gradient-2"/><linearGradient id="linear-gradient-4" x1="-798.09" y1="1081.24" x2="-839.22" y2="1111.38" gradientTransform="translate(900 -1103.93)" gradientUnits="userSpaceOnUse"><stop offset="0" stop-color="#662d91"/><stop offset="0.51" stop-color="#ed1e79"/><stop offset="1" stop-color="#f7931e"/></linearGradient><linearGradient id="linear-gradient-5" x1="-806.88" y1="1126.94" x2="-833.34" y2="1146.04" xlink:href="#linear-gradient-4"/><linearGradient id="linear-gradient-6" x1="-788.96" y1="1093.69" x2="-830.09" y2="1123.84" xlink:href="#linear-gradient-4"/><linearGradient id="linear-gradient-7" x1="-853.68" y1="1160.73" x2="-826.51" y2="1140.93" gradientTransform="translate(900 -1103.93)" gradientUnits="userSpaceOnUse"><stop offset="0" stop-color="#fff33b"/><stop offset="0.04" stop-color="#fee72e"/><stop offset="0.12" stop-color="#fed51b"/><stop offset="0.2" stop-color="#fdca10"/><stop offset="0.28" stop-color="#fdc70c"/><stop offset="0.67" stop-color="#f3903f"/><stop offset="0.89" stop-color="#ed683c"/><stop offset="1" stop-color="#e93e3a"/></linearGradient><linearGradient id="linear-gradient-8" x1="-817.89" y1="1110.53" x2="-813.4" y2="1099.11" gradientTransform="translate(900 -1103.93)" gradientUnits="userSpaceOnUse"><stop offset="0" stop-color="#fff"/><stop offset="0.2" stop-color="#0664a4"/><stop offset="0.35" stop-color="#1099de"/><stop offset="0.49" stop-color="#11a1e7"/><stop offset="0.61" stop-color="#04b1bf"/><stop offset="1" stop-color="#8edff8"/></linearGradient><linearGradient id="linear-gradient-9" x1="-788.84" y1="1093.58" x2="-830.06" y2="1123.79" xlink:href="#linear-gradient-4"/></defs><path class="cls-1" d="M120.82,38.39A6.2,6.2,0,0,1,117,36.81a1.88,1.88,0,0,1-.65-1.42V0l-9.18,3.88c4.09,1.46,4.09,3,4.09,3V14a18.55,18.55,0,0,0-10.36-.47,14.53,14.53,0,0,0-10,11.31,13.61,13.61,0,0,0,5.65,14.44c7.54,4.25,14.81-2.6,14.81-2.6v3.81Zm-19.18-1.88c-5.83-2.45-5-11-5-11,0-10.55,7.6-10.8,7.6-10.8A5.46,5.46,0,0,1,110.05,17a7.47,7.47,0,0,1,1.34,4.34v14c-5.34,3.44-9.75,1.1-9.75,1.1Z"/><path class="cls-1" d="M147.55,17.67c-5.11-6.24-13.19-4.36-13.19-4.36-14.5,4-10.5,18.67-10.5,18.67,2.25,6.78,7.94,8.31,11.89,8.48A14.13,14.13,0,0,0,144,38.32,14,14,0,0,0,150.39,26,13.21,13.21,0,0,0,147.55,17.67Zm-8.64,21.58s-8.17,1.46-9.42-11.69c0,0-1.31-9.51,3.76-12.49a4.94,4.94,0,0,1,3.32-.58c1.89.35,4.71,1.7,6.66,6.55a19.91,19.91,0,0,1,1,11.17C143.54,35.3,142.11,38.71,138.91,39.25Z"/><path class="cls-1" d="M152.26,16.42,162.85,7v8.09l10.29-1.3v3l-10.31-.65V32s.65,8.1,10.85,3.55c0,0-3.65,7.06-11.38,4.49a8.47,8.47,0,0,1-5.09-7.46V16.46Z"/><path class="cls-1" d="M94,46.29v1.22H94a1.42,1.42,0,0,0-.51-.76,1.23,1.23,0,0,0-.76-.26.94.94,0,0,0-.66.23,1.1,1.1,0,0,0-.37.63,3.22,3.22,0,0,0-.11.81,3.34,3.34,0,0,0,.11.89.86.86,0,0,0,.4.55,1.17,1.17,0,0,0,.63.19.53.53,0,0,0,.25,0l.28-.06V49a1.31,1.31,0,0,0,0-.28l-.13-.12a.45.45,0,0,0-.2,0h-.1v-.1h1.7v.1a.66.66,0,0,0-.28,0c-.07,0-.09.07-.12.14a.88.88,0,0,0,0,.23v.72a3.38,3.38,0,0,1-.7.23,3.84,3.84,0,0,1-.76.08,2.22,2.22,0,0,1-.84-.14,2.63,2.63,0,0,1-.58-.35,2.09,2.09,0,0,1-.4-.49,2.17,2.17,0,0,1-.18-.79,1.8,1.8,0,0,1,.56-1.35,1.91,1.91,0,0,1,1.39-.56H93a1.31,1.31,0,0,1,.36.12,1.11,1.11,0,0,0,.31.09h.14a.72.72,0,0,0,.12-.21h.11Z"/><path class="cls-1" d="M98.78,48.65l-.14,1.24H95.55v-.1h.12a.85.85,0,0,0,.26,0,.15.15,0,0,0,.08-.11.62.62,0,0,0,0-.33V47a.69.69,0,0,0,0-.35.14.14,0,0,0-.11-.11.45.45,0,0,0-.23,0h-.12v-.09h1.89v.09H97l-.11.11a.92.92,0,0,0,0,.33v2.23a2,2,0,0,0,0,.35.29.29,0,0,0,.11.11.76.76,0,0,0,.3,0h.31a1.09,1.09,0,0,0,.47-.09,1,1,0,0,0,.32-.31,1.74,1.74,0,0,0,.25-.63h.12Z"/><path class="cls-1" d="M102,46.33a1.8,1.8,0,0,1,1.38.48,1.82,1.82,0,0,1,.52,1.3,1.84,1.84,0,0,1-3.14,1.37l-.17-.18a1.84,1.84,0,0,1-.42-1.21,1.76,1.76,0,0,1,.53-1.3A1.65,1.65,0,0,1,102,46.33Zm0,.16a.81.81,0,0,0-.74.49,2.6,2.6,0,0,0-.21,1.16,2.17,2.17,0,0,0,.32,1.32.66.66,0,0,0,.63.3.69.69,0,0,0,.44-.13.9.9,0,0,0,.35-.54,4,4,0,0,0,0-2,1.08,1.08,0,0,0-.32-.49.86.86,0,0,0-.44-.12Z"/><path class="cls-1" d="M107.33,48.06a1.76,1.76,0,0,1,.7.27.81.81,0,0,1,0,1.25,1.78,1.78,0,0,1-1.14.31h-1.76v-.1a.7.7,0,0,0,.32,0,.2.2,0,0,0,.11-.11.69.69,0,0,0,0-.35V47a.65.65,0,0,0,0-.34.24.24,0,0,0-.11-.13h-.32v-.08h1.67a2.21,2.21,0,0,1,.85.11,1,1,0,0,1,.4.32.86.86,0,0,1,.14.47.61.61,0,0,1-.19.44A1.54,1.54,0,0,1,107.33,48.06Zm-.94.13v1.28a.23.23,0,0,0,.19.27h.08a.68.68,0,0,0,.65-.34.7.7,0,0,0,.08-.4,1,1,0,0,0-.12-.44.6.6,0,0,0-.3-.29,1.32,1.32,0,0,0-.59-.11Zm0-.21a1,1,0,0,0,.53-.09,1.23,1.23,0,0,0,.28-.23.68.68,0,0,0,.09-.39.62.62,0,0,0-.09-.38.58.58,0,0,0-.26-.23,1.66,1.66,0,0,0-.55-.07Z"/><path class="cls-1" d="M111.65,48.89h-1.24l-.13.35a.6.6,0,0,0-.07.27.24.24,0,0,0,.11.21,1.36,1.36,0,0,0,.35.07v.1h-1.16v-.1a.52.52,0,0,0,.3-.16,2,2,0,0,0,.3-.54l1.25-2.82h0l1.29,2.87a1.15,1.15,0,0,0,.3.51.38.38,0,0,0,.25.09v.1h-1.69v-.1h.07a.5.5,0,0,0,.27,0v-.12a.14.14,0,0,0,0-.09,1.34,1.34,0,0,0-.07-.18Zm-.1-.19L111,47.49l-.53,1.21Z"/><path class="cls-1" d="M117.55,48.65l-.15,1.24h-3.11v-.1h.12a.74.74,0,0,0,.25,0,.22.22,0,0,0,.1-.11.92.92,0,0,0,0-.33V47a1,1,0,0,0,0-.35.19.19,0,0,0-.12-.11.45.45,0,0,0-.23,0h-.12v-.09h1.89v.09h-.42l-.12.11a.91.91,0,0,0,0,.33v2.23a1,1,0,0,0,0,.35.19.19,0,0,0,.12.11.91.91,0,0,0,.33,0h.3a.9.9,0,0,0,.46-.09,1.08,1.08,0,0,0,.33-.31,2.3,2.3,0,0,0,.25-.63h.12Z"/><path class="cls-1" d="M123.68,46.38v.94h-.09a1.72,1.72,0,0,0-.19-.47.85.85,0,0,0-.28-.22.87.87,0,0,0-.35-.05h-.26v2.71a1,1,0,0,0,0,.35.19.19,0,0,0,.12.11.45.45,0,0,0,.23,0H123v.19h-1.83v-.09h.37l.12-.11a.86.86,0,0,0,0-.32V46.61h-.27a.72.72,0,0,0-.51.14,1,1,0,0,0-.27.6h0v-.94h3.14Z"/><path class="cls-1" d="M126.23,46.56V48h.08a.52.52,0,0,0,.48-.21,1.26,1.26,0,0,0,.19-.63h.09v1.89H127a1.2,1.2,0,0,0-.14-.49.58.58,0,0,0-.23-.26.86.86,0,0,0-.39-.06v.95a1,1,0,0,0,0,.35.31.31,0,0,0,.09.11.5.5,0,0,0,.21.05h.2a1.2,1.2,0,0,0,.8-.24,1.23,1.23,0,0,0,.42-.7H128l-.16,1.13h-3v-.1h.12a.8.8,0,0,0,.26,0,.24.24,0,0,0,.09-.11.92.92,0,0,0,0-.33V47a.76.76,0,0,0,0-.3.26.26,0,0,0-.09-.14.59.59,0,0,0-.29-.07h-.11V46.4h3v1.05h-.09a1.41,1.41,0,0,0-.21-.56.64.64,0,0,0-.4-.24h-.82Z"/><path class="cls-1" d="M132.83,46.29v1.2h-.09a1.21,1.21,0,0,0-.42-.72,1.18,1.18,0,0,0-.7-.26,1.28,1.28,0,0,0-.6.19,1,1,0,0,0-.39.49,1.94,1.94,0,0,0-.16.86,3.12,3.12,0,0,0,.11.86,1,1,0,0,0,.37.58,1,1,0,0,0,.66.21,1.42,1.42,0,0,0,.6-.14,2,2,0,0,0,.57-.51v.3a1.69,1.69,0,0,1-1.34.58,2,2,0,0,1-1-.23,1.5,1.5,0,0,1-.67-.65,1.74,1.74,0,0,1-.24-.94,2.11,2.11,0,0,1,.26-1,1.84,1.84,0,0,1,.72-.69,2,2,0,0,1,.94-.26,2.15,2.15,0,0,1,.8.16,1,1,0,0,0,.3.1.22.22,0,0,0,.13-.08.21.21,0,0,0,.07-.18h.08Z"/><path class="cls-1" d="M135.48,48.19v1.09a1,1,0,0,0,0,.35.38.38,0,0,0,.11.11.69.69,0,0,0,.24,0h.11v.1h-1.83v-.1h.11a.75.75,0,0,0,.26,0,.24.24,0,0,0,.09-.11.92.92,0,0,0,0-.33V47a1,1,0,0,0,0-.35.21.21,0,0,0-.11-.11.49.49,0,0,0-.24,0h-.11v-.09h1.83v.09h-.11a.57.57,0,0,0-.26,0s-.06.07-.11.11a.91.91,0,0,0,0,.33v1h1.23V47a.65.65,0,0,0,0-.34.24.24,0,0,0-.11-.13h-.35v-.08h1.89v.08h-.38c-.05,0-.07.08-.11.13a.58.58,0,0,0,0,.32v2.29a.69.69,0,0,0,0,.35.17.17,0,0,0,.11.12.61.61,0,0,0,.24,0h.11v.1h-1.84v-.1h.12a.75.75,0,0,0,.26,0l.11-.12a.86.86,0,0,0,0-.32V48.19Z"/><path class="cls-1" d="M140.37,46.38l1.74,2.18V47.05a.58.58,0,0,0-.09-.41.56.56,0,0,0-.42-.15V46.4h1.16v.09l-.3.07a.28.28,0,0,0-.12.14,1.34,1.34,0,0,0-.05.35v2.89h0L139.88,47v2.27a.5.5,0,0,0,.14.42.57.57,0,0,0,.33.11h.08v.13h-1.25v-.09a.64.64,0,0,0,.4-.11.58.58,0,0,0,.12-.4V46.81l-.08-.09a1,1,0,0,0-.17-.18.62.62,0,0,0-.27,0v-.09h1.19Z"/><path class="cls-1" d="M145.9,46.33a1.75,1.75,0,0,1,1.37.48,1.79,1.79,0,0,1,.53,1.3,2,2,0,0,1-.39,1.19,1.94,1.94,0,0,1-2.74.18.77.77,0,0,1-.18-.18,1.9,1.9,0,0,1-.43-1.21,1.81,1.81,0,0,1,.54-1.3A1.61,1.61,0,0,1,145.9,46.33Zm0,.16a.81.81,0,0,0-.73.49,2.6,2.6,0,0,0-.21,1.16,2.17,2.17,0,0,0,.32,1.32.67.67,0,0,0,.62.3.69.69,0,0,0,.44-.13.86.86,0,0,0,.35-.54,2.49,2.49,0,0,0,.12-.94,2.82,2.82,0,0,0-.14-1,.94.94,0,0,0-.33-.49.86.86,0,0,0-.42-.13Z"/><path class="cls-1" d="M152.24,48.65l-.14,1.24H149v-.1h.11a.75.75,0,0,0,.26,0,.2.2,0,0,0,.09-.11.91.91,0,0,0,0-.33V47a1,1,0,0,0,0-.35.17.17,0,0,0-.11-.11.49.49,0,0,0-.24,0H149v-.09h1.89v.09h-.15a.53.53,0,0,0-.25,0l-.11.11a.62.62,0,0,0,0,.33v2.23a1,1,0,0,0,0,.35.2.2,0,0,0,.11.11.92.92,0,0,0,.33,0h.3a.9.9,0,0,0,.46-.09,1,1,0,0,0,.32-.31,2.22,2.22,0,0,0,.27-.63h.08Z"/><path class="cls-1" d="M155.45,46.33a1.75,1.75,0,0,1,1.36.48,1.8,1.8,0,0,1,.54,1.3,1.86,1.86,0,0,1-3.15,1.37L154,49.3a1.89,1.89,0,0,1-.41-1.21,1.77,1.77,0,0,1,.54-1.3A1.61,1.61,0,0,1,155.45,46.33Zm0,.16a.83.83,0,0,0-.75.49,2.6,2.6,0,0,0-.21,1.16,2.24,2.24,0,0,0,.32,1.32.68.68,0,0,0,.64.3.71.71,0,0,0,.44-.13,1,1,0,0,0,.35-.54,2.7,2.7,0,0,0,.11-.94,2.82,2.82,0,0,0-.14-1,.92.92,0,0,0-.32-.49A.9.9,0,0,0,155.45,46.49Z"/><path class="cls-1" d="M162.09,46.29v1.22H162a1.42,1.42,0,0,0-.51-.76,1.14,1.14,0,0,0-.77-.26,1,1,0,0,0-.65.23,1.1,1.1,0,0,0-.37.63,3.22,3.22,0,0,0-.11.81,3.8,3.8,0,0,0,.11.89.9.9,0,0,0,.4.55,1.13,1.13,0,0,0,.62.19.57.57,0,0,0,.26,0l.28-.06V49a1.31,1.31,0,0,0,0-.28,1.25,1.25,0,0,1-.12-.12.52.52,0,0,0-.21,0h-.1v-.1h1.7v.1a.61.61,0,0,0-.27,0,.29.29,0,0,0-.13.14.88.88,0,0,0,0,.23v.72a3.29,3.29,0,0,1-.69.23,4.13,4.13,0,0,1-.78.08,2.16,2.16,0,0,1-.83-.14,2.63,2.63,0,0,1-.58-.35,2.09,2.09,0,0,1-.4-.49,2,2,0,0,1-.17-.79,1.83,1.83,0,0,1,.55-1.35,1.92,1.92,0,0,1,1.4-.56h.46a1.35,1.35,0,0,1,.37.12,1,1,0,0,0,.3.09h.14a.55.55,0,0,0,.12-.21h.11Z"/><path class="cls-1" d="M165.41,49.79v.1h-1.84v-.1h.12a.8.8,0,0,0,.26,0,.33.33,0,0,0,.09-.11,1.82,1.82,0,0,0,0-.33V47a2,2,0,0,0,0-.35.25.25,0,0,0-.12-.11.45.45,0,0,0-.23,0h-.12v-.09h1.84v.09h-.12a.53.53,0,0,0-.25,0s-.08.07-.12.11a.92.92,0,0,0,0,.33v2.3a1,1,0,0,0,0,.35.32.32,0,0,0,.12.11.59.59,0,0,0,.23,0Z"/><path class="cls-1" d="M167.91,46.56V48H168a.51.51,0,0,0,.48-.21,1.26,1.26,0,0,0,.19-.63h.09v1.89h-.11a1.37,1.37,0,0,0-.13-.49.55.55,0,0,0-.24-.26.86.86,0,0,0-.39-.06v.95a1,1,0,0,0,0,.35.31.31,0,0,0,.09.11.5.5,0,0,0,.21.05h.21a1.15,1.15,0,0,0,1.21-.94h.09l-.11,1.13h-3v-.1h.11a.7.7,0,0,0,.25,0,.36.36,0,0,0,.1-.11,1.82,1.82,0,0,0,0-.33V47a1.5,1.5,0,0,0,0-.3.28.28,0,0,0-.1-.14.53.53,0,0,0-.28-.07h-.11V46.4h2.95v1.05h-.1a1.26,1.26,0,0,0-.2-.56.64.64,0,0,0-.4-.24h-.84Z"/><path class="cls-1" d="M173.42,46.29v1.16h-.07a1.15,1.15,0,0,0-.37-.73.93.93,0,0,0-.63-.27.56.56,0,0,0-.41.14.44.44,0,0,0-.17.32.78.78,0,0,0,0,.21,1,1,0,0,0,.24.23l.56.3a2.3,2.3,0,0,1,.83.59.92.92,0,0,1,.21.62,1,1,0,0,1-.35.77,1.2,1.2,0,0,1-.89.31,1.4,1.4,0,0,1-.29,0l-.38-.12h-.35a.25.25,0,0,0-.11.17h-.1V48.65h.1a1.49,1.49,0,0,0,.44.86,1,1,0,0,0,.69.3.67.67,0,0,0,.47-.16.51.51,0,0,0,.16-.37.39.39,0,0,0-.07-.23,1.21,1.21,0,0,0-.21-.24q-.24-.15-.48-.27a6,6,0,0,1-.7-.4,1.16,1.16,0,0,1-.33-.37,1,1,0,0,1-.11-.44.93.93,0,0,1,.3-.72,1,1,0,0,1,.76-.3.91.91,0,0,1,.33,0l.3.11a1.14,1.14,0,0,0,.26.09h.11c.05,0,.05-.09.07-.2h.14Z"/><path class="cls-1" d="M173.68,43.29H90.61v.76h83.07Z"/><path class="cls-2" d="M83.15,6.6a2.68,2.68,0,1,0-2.67-2.69v0A2.69,2.69,0,0,0,83.15,6.6Z"/><path class="cls-1" d="M80,15.35c-6.09,6.18-17,15.24-30.75,17.9l.3-.12h.24A.8.8,0,0,0,50,33h.11a.1.1,0,0,0,.08-.05h.18l.18-.06a.19.19,0,0,0,.12,0,2.49,2.49,0,0,1,.49-.21l.27-.14.47-.21.3-.14.35-.16a1.12,1.12,0,0,1,.25-.11,2.69,2.69,0,0,1,.38-.19,1,1,0,0,1,.23-.12h.09a.91.91,0,0,1,.26-.13h0a2.36,2.36,0,0,0,.37-.18l.14-.07a3.9,3.9,0,0,1,.35-.19,1,1,0,0,1,.23-.11,1,1,0,0,1,.23-.12l.12-.07.13-.07.31-.17.16-.09a.08.08,0,0,0,.07-.05l.33-.18.11-.07.1,0a.39.39,0,0,0,.14-.08l.22-.14.17-.1h0l.47-.5.26-.14.25-.13.07-.05a.82.82,0,0,0,.25-.16l.16-.09.27-.14c.16-.1.32-.19.48-.31l.17-.09a1.86,1.86,0,0,1,.43-.25l.08-.05a.07.07,0,0,0,.06-.05c.61-.37,1.24-.76,1.89-1.19l.07,0c.18-.12.37-.26.56-.37l.06,0h0c.19-.14.38-.27.58-.39h0l.6-.43.19-.13a1.1,1.1,0,0,1,.14-.09,1.39,1.39,0,0,0,.19-.15c.18-.11.34-.25.51-.36l.11-.08h0l.52-.37h0l.08,0a.27.27,0,0,1,.08-.07h.08l.06,0,.3-.23.51-.39s0,0,.08,0h0l.79-.64a.14.14,0,0,0,.09-.09c.28-.23.58-.46.86-.72l.6-.53a.69.69,0,0,1,.24-.18.3.3,0,0,0,.09-.1c.28-.25.56-.49.83-.77h0l.1-.09c.13-.15.27-.26.41-.4l.16-.16.3-.3.1-.1c.2-.18.39-.39.6-.6a.81.81,0,0,0,.12-.14h0l.07-.08c.14-.13.28-.3.42-.43h0s0-.06.08-.09h0l.27-.28c.14-.14.25-.28.38-.42a.49.49,0,0,1,.16-.16c0-.07.11-.11.16-.19h0c.13-.16.27-.3.41-.46l.46-.57c.24-.27.47-.57.68-.85l.07-.1a.91.91,0,0,0,.11-.16c.26-.32.49-.65.75-1h0a.31.31,0,0,1-.05-.44.32.32,0,0,1,.44,0h0a2.45,2.45,0,0,0,.26-.37c.11-.16.23-.35.37-.53s.07-.1.09-.14,0-.07.07-.1,0,0,0,0l.35-.54c0-.09.12-.16.17-.26a1.32,1.32,0,0,1,.16-.25l.11-.18a3.6,3.6,0,0,0,.31-.54l.09-.19a25.89,25.89,0,0,0-2.83-2.71C73.49,10,60,27.56,37,31.84a55.8,55.8,0,0,1-10.15.94h-.46s3.44,2.95,11.59,2.32a24.5,24.5,0,0,0,7.85,10.13C66.22,37.18,77,23.69,82,15.75a40.72,40.72,0,0,0,3.31-6.39,63,63,0,0,1-4.17,4.77A14.46,14.46,0,0,1,80,15.35Z"/><path class="cls-3" d="M68.24,36.65A58.38,58.38,0,0,1,49.76,47.54a65.76,65.76,0,0,1-8,2.4,36.34,36.34,0,0,0,10.59-1.27A53.13,53.13,0,0,0,62,45.23,64.42,64.42,0,0,0,74.73,37.4s-6.07,8-14,12.54A24,24,0,0,0,82.6,17.43,55.48,55.48,0,0,1,68.24,36.65Z"/><path class="cls-4" d="M36.2,27.59A72.39,72.39,0,0,0,68.61,11.35v0a54.6,54.6,0,0,0,5.42-5A42.29,42.29,0,0,0,78.93.14a48.42,48.42,0,0,1-6.67,5A62.06,62.06,0,0,1,63.9,9.61a53,53,0,0,1-6.2,2.3,60.63,60.63,0,0,1-6.79,1.68,54.43,54.43,0,0,1-8,.86A82.82,82.82,0,0,0,56.08,9a55.48,55.48,0,0,0,9.85-6.41,19.73,19.73,0,0,0-2.14-.42,26,26,0,0,0-3.63-.28,24,24,0,0,0-24,24v.88A4.46,4.46,0,0,0,36.2,27.59Z"/><path class="cls-5" d="M43,14.42a51.81,51.81,0,0,0,8-.86,58.49,58.49,0,0,0,6.79-1.67,63.25,63.25,0,0,0,6.2-2.3,63.15,63.15,0,0,0,8.36-4.45,24.25,24.25,0,0,0-6.33-2.59A57.57,57.57,0,0,1,56.13,9,81.52,81.52,0,0,1,43,14.42Z"/><path class="cls-6" d="M74.72,37.36A62.59,62.59,0,0,1,62,45.23a55.79,55.79,0,0,1-9.66,3.44,24.88,24.88,0,0,0,6.27,1.23c.49,0,1,0,1.49,0h.56C68.66,45.33,74.72,37.36,74.72,37.36Z"/><path class="cls-7" d="M79.83,12.15A23,23,0,0,0,78.18,10a.76.76,0,0,1-.12.19c-.09.18-.2.34-.3.53l-.11.18a1.45,1.45,0,0,1-.17.26,2.13,2.13,0,0,1-.16.25c-.11.19-.24.38-.35.54s0,0,0,0l-.08.09a.67.67,0,0,1-.09.14,6.3,6.3,0,0,1-.37.53,3.57,3.57,0,0,0-.25.38l-.08.09h0c-.23.33-.49.68-.74,1,0,0-.07.09-.11.14s0,.07-.08.09c-.23.28-.43.58-.67.86l-.46.56c-.14.16-.28.33-.42.46h0c0,.07-.13.11-.17.19a.81.81,0,0,1-.16.16c-.12.14-.26.27-.37.41l-.28.29h0a.16.16,0,0,0-.07.09h0l-.42.44-.07.07h0a.36.36,0,0,0-.11.14c-.19.21-.4.39-.61.6l-.09.09-.3.3-.16.17a3.89,3.89,0,0,1-.43.39l-.08.09h0c-.28.25-.56.51-.84.74a.43.43,0,0,0-.09.1,1,1,0,0,1-.23.18l-.6.53c-.29.24-.56.49-.86.72a.35.35,0,0,0-.1.09l-.79.64h0s0,0-.07,0l-.51.4-.3.22s0,0-.07,0l-.07.05-.1.07-.06,0h0L65.1,24h0L65,24.1l-.51.36a.86.86,0,0,0-.18.14l-.15.1-.18.13-.61.42h0a6.55,6.55,0,0,1-.58.4h0l-.07.05c-.19.11-.37.25-.56.36l-.07.05c-.62.43-1.25.82-1.88,1.19l-.07.05-.07,0a2.51,2.51,0,0,1-.45.26l-.16.09c-.16.1-.32.21-.49.3l-.25.14-.16.1a.87.87,0,0,0-.26.16l-.07,0-.26.14c-.09,0-.16.08-.25.13l-.35.22h0l-.16.09-.23.14a.42.42,0,0,0-.14.09.16.16,0,0,0-.09,0l-.12.08a2.07,2.07,0,0,0-.32.19h-.07c-.08,0-.12.07-.17.09l-.3.17-.14.07-.12.06-.22.13a1.75,1.75,0,0,1-.24.11c-.11.06-.23.11-.35.19l-.14.06a3.13,3.13,0,0,1-.36.19h0a1.23,1.23,0,0,1-.26.12h-.09a1,1,0,0,0-.23.12,3.24,3.24,0,0,0-.37.19l-.26.11-.35.16-.78.66c-.46.23-.88.41-1.22.58a.29.29,0,0,1-.13,0l-.18.08h0c-.05,0-.07,0-.1,0s0,0-.06,0H50a1.35,1.35,0,0,0-.26.11,2.18,2.18,0,0,1-.23.09l-.28.12C63,30.37,73.88,21.32,80,15.16c.39-.42.79-.82,1.14-1.19A8.15,8.15,0,0,0,79.83,12.15Z"/><path class="cls-8" d="M74.75,37.32A64.66,64.66,0,0,1,62,45.17a53.56,53.56,0,0,1-9.68,3.43,24,24,0,0,0,6.27,1.24h2C68.69,45.33,74.75,37.32,74.75,37.32Z"/><path class="cls-1" d="M80,15.28c-6.08,6.18-17,15.26-30.81,18l.3-.11.12,0h.11A.8.8,0,0,0,50,33h.19a.19.19,0,0,0,.1,0h.09l.19-.07h.11l.49-.22.28-.13c.14-.08.31-.14.47-.24l.3-.14.35-.16a1.12,1.12,0,0,1,.25-.11l.37-.19a1,1,0,0,1,.23-.11h.1a.64.64,0,0,1,.25-.12h0s.27-.12.38-.19l.14-.07c.11-.07.23-.12.35-.19a.82.82,0,0,1,.23-.11l.23-.12.11-.07.15-.06c.09,0,.18-.13.3-.17l.16-.1h.07l.32-.19.13-.07h.08a.71.71,0,0,0,.14-.1l.24-.14.16-.09h0l.53-.56.25-.13.25-.14.08-.05a1.32,1.32,0,0,0,.25-.16l.16-.09.26-.14c.16-.1.33-.19.49-.31l.16-.09a4,4,0,0,1,.44-.27.08.08,0,0,0,.07,0l.07-.05c.61-.37,1.23-.77,1.89-1.18l.06-.05.56-.37.07-.05h0c.19-.14.38-.25.59-.39h0c.21-.13.39-.28.6-.42a2.31,2.31,0,0,0,.19-.14L64,25l.19-.13c.19-.13.35-.27.51-.38l.12-.07h0l.51-.37h0a.08.08,0,0,0,.07-.05l.09-.07h.07l.07,0,.3-.24c.16-.14.32-.25.51-.4h.07l.79-.62a.2.2,0,0,0,.09-.09c.28-.24.58-.46.86-.72l.61-.54a.65.65,0,0,1,.22-.18.47.47,0,0,0,.1-.1l.83-.76v-.05h0l.1-.09a5.33,5.33,0,0,1,.42-.4l.16-.16.3-.3.1-.09c.21-.19.39-.4.6-.61a.36.36,0,0,0,.11-.14h0l.07-.06c.14-.15.27-.31.42-.45h0l.06-.09v-.05l.28-.28.4-.42a.81.81,0,0,1,.16-.16c.05-.07.11-.12.16-.19h0c.13-.16.27-.31.41-.47s.31-.36.47-.55.46-.59.67-.86l.07-.09.11-.16c.26-.33.52-.65.75-1h0a.2.2,0,0,1,.06-.09,3.09,3.09,0,0,0,.26-.37c.11-.16.23-.35.38-.54s.06-.09.08-.13,0-.08.08-.1,0,0,0-.05.23-.37.34-.53a.9.9,0,0,0,.17-.26,1.07,1.07,0,0,1,.16-.25c0-.07.07-.11.12-.19a5.54,5.54,0,0,0,.3-.53c0-.07.07-.12.09-.19a22,22,0,0,0-2.82-2.72c-1.95,2.7-15.51,20.28-38.57,24.5a56.13,56.13,0,0,1-10.18.94h0S29.81,36.05,38,35.43A24.2,24.2,0,0,0,44,44c.6.55,1.24,1.06,1.89,1.55,20.45-8.42,31.3-21.94,36.2-29.9a43,43,0,0,0,3.34-6.42,58.29,58.29,0,0,1-4.15,4.87A13.4,13.4,0,0,0,80,15.28Z"/><path class="cls-1" d="M68.24,36.62A59,59,0,0,1,49.71,47.54a65.53,65.53,0,0,1-8,2.4,36.62,36.62,0,0,0,10.62-1.27A56.59,56.59,0,0,0,62,45.23a64.88,64.88,0,0,0,12.7-7.85s-6.06,7.95-14,12.56A24.06,24.06,0,0,0,82.61,17.32,55.21,55.21,0,0,1,68.24,36.62Z"/><path class="cls-1" d="M36.13,27.54A72.62,72.62,0,0,0,68.61,11.31v-.05a54.24,54.24,0,0,0,5.46-5A40,40,0,0,0,78.93,0a46.18,46.18,0,0,1-6.69,5,59.1,59.1,0,0,1-8.39,4.46,61.53,61.53,0,0,1-6.2,2.32,60.84,60.84,0,0,1-6.8,1.69,53.49,53.49,0,0,1-8,.86A81.71,81.71,0,0,0,56.06,8.87a57.15,57.15,0,0,0,9.87-6.41c-.7-.16-1.43-.32-2.14-.42a29.09,29.09,0,0,0-3.6-.28,24.07,24.07,0,0,0-24.11,24v.9A8.08,8.08,0,0,0,36.13,27.54Z"/><path class="cls-9" d="M83.2,6.53a2.7,2.7,0,1,0-2.7-2.69,2.69,2.69,0,0,0,2.7,2.69Z"/><path class="cls-1" d="M42.91,14.35a55,55,0,0,0,8-.86,54.53,54.53,0,0,0,6.78-1.67,61.53,61.53,0,0,0,6.2-2.32A62.29,62.29,0,0,0,72.26,5a23.88,23.88,0,0,0-6.33-2.58A55.32,55.32,0,0,1,56.1,8.87,80.82,80.82,0,0,1,42.91,14.35Z"/><path class="cls-1" d="M74.76,37.32a64.3,64.3,0,0,1-12.7,7.85,53.56,53.56,0,0,1-9.68,3.43,24,24,0,0,0,6.27,1.24H60.7C68.69,45.33,74.76,37.32,74.76,37.32Z"/><path class="cls-10" d="M79.88,12.08a21.86,21.86,0,0,0-1.7-2.14.57.57,0,0,1-.12.18c-.09.19-.2.35-.3.54l-.11.19a2.2,2.2,0,0,1-.17.25c0,.09-.11.16-.16.25s-.24.38-.35.54,0,0,0,0,0,.07-.08.09a1.1,1.1,0,0,1-.09.14,6.3,6.3,0,0,1-.37.53,3,3,0,0,0-.25.37.09.09,0,0,1-.08.09h0l-.74,1a1.48,1.48,0,0,1-.11.14s0,.07-.08.09c-.23.28-.43.58-.67.87l-.46.55c-.16.19-.28.32-.42.46h0c-.05.07-.13.12-.17.18a.49.49,0,0,1-.16.16c-.13.15-.26.29-.4.43l-.27.27v.05a.51.51,0,0,1-.08.09h0c-.14.13-.28.3-.41.44l-.08.07h0a.53.53,0,0,0-.12.14c-.18.21-.39.4-.6.6l-.09.1-.31.3-.16.16a5.33,5.33,0,0,1-.42.4l-.09.09h-.05l-.84.76a.28.28,0,0,0-.09.1,1.08,1.08,0,0,1-.24.18l-.6.53c-.27.24-.57.49-.86.72a.49.49,0,0,0-.09.1c-.25.21-.53.42-.79.63h0s0,0-.07,0l-.52.4-.3.23s0,0-.06,0,0,0-.07.05l-.09.08h-.08L65,24h0l-.11.08c-.16.13-.35.25-.51.37a.85.85,0,0,0-.19.14,1.1,1.1,0,0,0-.14.09l-.18.14c-.22.13-.39.28-.61.42h0c-.19.14-.38.25-.59.39h-.06l-.56.38A.06.06,0,0,0,62,26c-.63.42-1.27.82-1.89,1.19H60s0,0-.07,0a2.82,2.82,0,0,1-.44.26l-.16.09-.49.3-.26.15-.17.09a1.32,1.32,0,0,0-.25.16l-.07,0-.25.14-.26.13-.34.22h-.05l-.16.09-.57.7a.42.42,0,0,0-.14.09.12.12,0,0,0-.09.05l-.12.07a2.68,2.68,0,0,0-.33.18l-.06.05-.2.12-.3.17-.14.07-.12.07-.23.12a.66.66,0,0,1-.24.11l-.35.19-.13.07a2.53,2.53,0,0,1-.37.18v0h0c-.09,0-.17.09-.26.12l-.09.05a.44.44,0,0,0-.24.11c-.07.05-.25.11-.37.19a1.12,1.12,0,0,1-.25.11l-.35.16-.33.2-1.23.58a.19.19,0,0,0-.12.05l-.18.07a0,0,0,0,0,0,0h-.14a.2.2,0,0,0-.08,0h-.06a2.06,2.06,0,0,0-.26.12l-.23.09-.28.11c13.77-2.69,24.73-11.77,30.82-18,.39-.42.79-.82,1.15-1.18A12.43,12.43,0,0,0,79.88,12.08Z"/></svg>