<?xml version="1.0" encoding="utf-8"?>
<!-- Generator: Adobe Illustrator 16.0.0, SVG Export Plug-In . SVG Version: 6.00 Build 0)  -->
<!DOCTYPE svg PUBLIC "-//W3C//DTD SVG 1.1//EN" "http://www.w3.org/Graphics/SVG/1.1/DTD/svg11.dtd">
<svg version="1.1" id="Layer_1" xmlns="http://www.w3.org/2000/svg" xmlns:xlink="http://www.w3.org/1999/xlink" x="0px" y="0px"
	 width="50px" height="50px" viewBox="0 0 50 50" enable-background="new 0 0 50 50" xml:space="preserve">
<metadata><?xpacket begin="﻿" id="W5M0MpCehiHzreSzNTczkc9d"?>
<x:xmpmeta xmlns:x="adobe:ns:meta/" x:xmptk="Adobe XMP Core 5.3-c011 66.145661, 2012/02/06-14:56:27        ">
   <rdf:RDF xmlns:rdf="http://www.w3.org/1999/02/22-rdf-syntax-ns#">
      <rdf:Description rdf:about=""
            xmlns:dc="http://purl.org/dc/elements/1.1/">
         <dc:format>image/svg+xml</dc:format>
         <dc:title>
            <rdf:Alt>
               <rdf:li xml:lang="x-default">dgt_icon</rdf:li>
            </rdf:Alt>
         </dc:title>
      </rdf:Description>
      <rdf:Description rdf:about=""
            xmlns:xmp="http://ns.adobe.com/xap/1.0/"
            xmlns:xmpGImg="http://ns.adobe.com/xap/1.0/g/img/">
         <xmp:MetadataDate>2024-06-24T16:39:32+05:30</xmp:MetadataDate>
         <xmp:ModifyDate>2024-06-24T16:39:32+05:30</xmp:ModifyDate>
         <xmp:CreateDate>2024-06-24T16:39:31+05:30</xmp:CreateDate>
         <xmp:CreatorTool>Adobe Illustrator CS6 (Windows)</xmp:CreatorTool>
         <xmp:Thumbnails>
            <rdf:Alt>
               <rdf:li rdf:parseType="Resource">
                  <xmpGImg:width>256</xmpGImg:width>
                  <xmpGImg:height>116</xmpGImg:height>
                  <xmpGImg:format>JPEG</xmpGImg:format>
                  <xmpGImg:image>/9j/4AAQSkZJRgABAgEASABIAAD/7QAsUGhvdG9zaG9wIDMuMAA4QklNA+0AAAAAABAASAAAAAEA&#xA;AQBIAAAAAQAB/+4ADkFkb2JlAGTAAAAAAf/bAIQABgQEBAUEBgUFBgkGBQYJCwgGBggLDAoKCwoK&#xA;DBAMDAwMDAwQDA4PEA8ODBMTFBQTExwbGxscHx8fHx8fHx8fHwEHBwcNDA0YEBAYGhURFRofHx8f&#xA;Hx8fHx8fHx8fHx8fHx8fHx8fHx8fHx8fHx8fHx8fHx8fHx8fHx8fHx8fHx8f/8AAEQgAdAEAAwER&#xA;AAIRAQMRAf/EAaIAAAAHAQEBAQEAAAAAAAAAAAQFAwIGAQAHCAkKCwEAAgIDAQEBAQEAAAAAAAAA&#xA;AQACAwQFBgcICQoLEAACAQMDAgQCBgcDBAIGAnMBAgMRBAAFIRIxQVEGE2EicYEUMpGhBxWxQiPB&#xA;UtHhMxZi8CRygvElQzRTkqKyY3PCNUQnk6OzNhdUZHTD0uIIJoMJChgZhJRFRqS0VtNVKBry4/PE&#xA;1OT0ZXWFlaW1xdXl9WZ2hpamtsbW5vY3R1dnd4eXp7fH1+f3OEhYaHiImKi4yNjo+Ck5SVlpeYmZ&#xA;qbnJ2en5KjpKWmp6ipqqusra6voRAAICAQIDBQUEBQYECAMDbQEAAhEDBCESMUEFURNhIgZxgZEy&#xA;obHwFMHR4SNCFVJicvEzJDRDghaSUyWiY7LCB3PSNeJEgxdUkwgJChgZJjZFGidkdFU38qOzwygp&#xA;0+PzhJSktMTU5PRldYWVpbXF1eX1RlZmdoaWprbG1ub2R1dnd4eXp7fH1+f3OEhYaHiImKi4yNjo&#xA;+DlJWWl5iZmpucnZ6fkqOkpaanqKmqq6ytrq+v/aAAwDAQACEQMRAD8A9U4qxfXvzF0LSNRGlRw3&#xA;mrauYhP+j9Mt3uZFiJKh3ccYkBKkfG4xVILD89PLV/8AFZ6RrNzHFEJr14LQT/VgZpYeMyRSPJUN&#xA;bvUorLQdcVZl5d80+XvMdkbzRL+K+gU8ZPTJDxt/LJGwV42/yWAOKprirsVeUv5d0bzb5t84aj5r&#xA;tpNYsPLksdnpekAyPEipaJcSukCkCSaRpaAnfsMVQfkzyn+Tnm+7vG0jyXENGtERRqtxE8Cy3Lby&#xA;QRxPRz6Q+23jt74qpah5d/KCy1mXSz+Wup3BilEJvLfSriW1apA5rKGoU3+1irGoPLn5D6b5y842&#xA;fmb6npkkNzDa6Vbc3hMEP1SJzLDwOzmVyeZ3qNsKso/LDzz568z+UNK07REha9sbWKPWvMOqCSSN&#xA;JWBMcccSFHnm9HhI7FwoqKkk4FZhcaZ+aNjD9aj8z6XdiFS08V9pzW8JCglj6sVwWjHuQ1MVYfF+&#xA;fOsXEEMMegxQSXFybKLzFPcSjQGkGwdLwQB2DHYDgB/lYqzFNG/NS4RppfNGm20rgGOC20tpYV7/&#xA;AG5bnm4P0Yqv0PzVr9r5gi8s+bbaCLUbuN5dK1Oy5i0vBEOUsYSQs8UyL8RQsQV3BxVd5nbW7zzn&#xA;omiWOtXWjWlxp2p3ty9lHZvJJJaz2EUQJvLe7UKFu5PsgV23xVgH5oecNS8m2/o6X5z1HzB5gjdz&#xA;eaClz5etrqC1hspr+a5kQ6XK4VIYK0KfFyFNyAVDIPIPnOdI59S8x+YHOiz6BoOtpNq72EK2kmrP&#xA;eK8RuLe3sI2X9zEoLr9rp1pilF6rrMmoeZtRlTzlJoXlix0bS9RivLQ6YbaQ39xfIZnuL22uhxZL&#xA;aLhxYL9+KonRdOfXbV7vRPzM1HVLSNzE9xZfoC4jWQAMULxacyhgrA09xiqWflf5o1rUfPfnjQrn&#xA;XH1/RtGTR5tFv5EtA7x6jZtcO3qWUVvFIrGhQ8emKvTMVdiqX6Z5h0DVZZ4dL1O0v5bU8bqO2njm&#xA;aJjUUkCMxU7d8VTDFXmvnn84Lry1rl9aQ6KL3TNFitZ9bvGuo4JUS8fhH9WgYEzEdTuKn4cVelYq&#xA;tmmihieaZ1jhjUvJI5CqqqKlmJ2AAxVJrTzp5Z1DRb7WNJ1G31Oz0+OR7h7WVJApjQyFWIPwniO+&#xA;KsPh1v8AOa48rp5kjPl9IJbIajHprwXhlEbRessLTCcJz4/CW4Ur2pirL4POnl4eW9M8walfW2l2&#xA;OqQQ3EEl5NHCn7+ISqnOQoCeJxVN7W7tby2iurSZLi2nUSQzxMHjdGFQyspIIPiMVeXfnT57ayks&#xA;fKmlXMv6S1CRDqVtYsEvzZycgsdrJJxiE0zLxA5c6VKqcVSvR/yl8o+XfKN75j862CAWyT3r6Tby&#xA;zNBa2xUMLP7Y+s0I5fH8PqMxHWuFVK/0O1ji0m/80+RdO0fQp2isbW80u5ePUdLFzJxtzOY44FA9&#xA;WWjem54lt64qoeYvL3mjyd5ptLuyu2ur66Jj0PW5eKyXkiqX/ROrcQqzGZVIt5yOQfbFXsXlfzDZ&#xA;eY/L9hrdkGW2vohKqP8AbRujxv8A5SOCre4wKmmKsB8mrM2ufmKsE4tZjqiiK5ZQ6xt+jbfi5UlQ&#xA;wU70riqp5Jh1uLzPqQ8yeZYdV10W0ITSrDnFaW9oD8E7wEsBNM1SST02X4cVY5r+neYH813TRaL5&#xA;tmtmuarcWeuLBaMpI+KOD10CJ/k7fRhVkHkW0tJ/NXnxpoY5WGsRAF1DED9H23iMCt/lZdWdl5Iv&#xA;r2+ljtnh1PWJdWlc8UjeO/nDFy3QLGq/RiqDitLr8wE/TeuRy23kaEGbTNCYFJNQVPiF1ej4T6Rp&#xA;WKA7H7T+GKsGf81/MkWi6dqus6esXlzVpYol0GbSnSzaxuCBGkV6ZGV5PRPMcowjbjbbCqU6xr8H&#xA;kfVPMFj+kL3Tr/SJ7yTyxpk13eG3W2MEb2YhtwDBPFJI0vqeo9ECgU64q9e87zCa28l3UxQXz63Y&#xA;NC0JDLzkik9YI29VMRfoemBUw1H/AMmj5e/7Yet/9Rek4q+aLfzPoK/lbc2135nTU9Xu7q6vbh7+&#xA;+jnvHkvPIkkThizcyqXkv1VK9GAjqWxQyS58z+XoPIU+lG5e58wXXkjyjbaJpmnSk6idVjN5cWjQ&#xA;xwuk3K3kkgnam4ShoeQDKo/ytpvlnzS8mieRmbSJtCtdBu7fy3qkwt52l0bWtTa7ttThi+syAM8i&#xA;yOOJKu8bEbgYpZJb/kHqmsazLrnmLzBqGiX8cdnb2Q8v6i7TyfUrRrX65f3s1tA1xdyLLInJYU4o&#xA;eNW5Giqv+Tui2uhfmp+ZGiWjvJaaXa+V7K3eUgyNHb6W0SFyoVSxVd6AfLFD2FmVFLMQqqKsx2AA&#xA;6knFLDfOfnGyawbQtCprHmDWIZIbG0tZAVRGHpvczypyWGGLlux3J2WpxVhHlb8rfzB8o31hrVlH&#xA;ol5caTYfos6faJLaPfW7Seo0kk5HATgqOPJSp3qRiqeTfnJeX+nwjRPLl/BeX18NHtL3U1gisUvi&#xA;SsiyNHM8zrEyuCUSjMvENiqA/RP5N6VqTTebdQtdZ822k3r6lql4HdvXorceC8okjjHHhF0Qe++F&#xA;XrUE8M8Mc8DrLDKoeKRCGVlYVVlI6gjArEPPerSafrHl6PUAT5Tv5Lmy1vkkckDSXMQhtIrkOrfu&#xA;ZGdwSKDlxDbHFUu/MTy3+WFpGureYIpLSS5VLE2+nyTwy6glQUtGt7UqbkbU4lTQeAxVVXz55iis&#xA;1li8gammixqEXlNp0coiHwBfqpuAwPbh9GKu8g+UPy6lWPXNEsbgNbGW1t7XUTclrBif30MVtdMw&#xA;tzvQ8B06GhxVS/LSG1tfM3mmx8v+p/g+2mjS1jb/AHni1LlIb6Kz7+itU5D7IflxxVh5Vb/8+ptM&#xA;uri3e2Oqw6hstz6jzafpZNta8vRFvWFpGnp6vv1xVn/5m6vavpn+EotPbWNW8yQz29vpqyCFRCEp&#xA;LcTSkH0o4+Q+KhJagAxViOq+Tfzlk0XSoNV1DT/MVjpU1vc3ukQK9rPei1YSRo1y4ZHIdVbdEDU3&#xA;xVNPzC80aL5h/Jm+1+0doWQRzWMcqkTxajbXC+lAyKSRKJ04ED9WKpj+VVzbRT+bNDQGB9N1q4mj&#xA;s3qGjt75UuUNOymV5QKeGKs4mu7SBgs00cTEVAdgpp9JxVgHlL0LnUPzJAthqUMuo8TZqUIuAdNt&#xA;wYgWIT4/s7mmKqP5RacllNqaaT5Um8saAeA/3Jep+kbi7XZvtNJ/o8KfBHvQ9V2riqX695TvrjzX&#xA;c3K/l1DfwyXPP9LHXGgMgJBMptgtFPfjhVkf5f8A/KU+ff8Atsxf90+2wK8rvpvrVrq95qGqTW2l&#xA;XPmCS5vvKywwS27zQX8dt9Sm/eR3jT3Kqs/Ff3Xc4Ve1+aPOWh+XmtLK7inu77UeaWOlWUDXE8yx&#xA;gGTjGuwVQdyxAwK8SlPn2ytNJ0XzBpV2PI6ausdpo7pYR3b2kX7/AE+2E7XX7xxIgX0lUMVT7ZrT&#xA;Cr3PR/MPl7zKuoW1qfXeydrPULaeJkZea1oVkA5RyLurCqsOhOBXmHk6Lj+bH+DGvornRfJiXF9o&#xA;cVS0ga6jjjW2cn4W+pRzuq9wHWvTFXp+veUNE126tLu++tR3dkk0VtcWV7eWEix3BjaVC9nNAzKz&#xA;QRmjV+yMVeL3Hmmzgu/OVv8A4Y803I8pR3Mss9v5l1hIuFu0xU3LXd1aen6sMUc6fV/rFY5ARUjj&#xA;ihI9N8y3cPlOxWDUHTSodMPm/UbLSNQuo7m6bVtcdJRdahDBeXxh0uDkLtkPqk/arTZSoal5i5+T&#xA;xqWtajL6Plp9M8xaZpmuXc8OsK2pR38M+jjU7N0umdlgFzayFA/Ap6q8B8KrO47i0P5haR5SvNA8&#xA;0aXHq0Uksd3feZdWL0iinklaNbO8vbZkjMMSPzuUcGVPgI3xQ9M8t+R/Lfly81G+0qCYX2rGE6le&#xA;XV1dXs831dSkPOW7lmf4FYgb9MUqH5keWL7zR5I1XQbG4W1u76NVilcsEPCRZDG5T4gkgTg1OxxV&#xA;5/pflfXvIXkjz15kFnp2iapdWvr2NlpYaWG3+q25VW5Sjcs5LcacfvOKsint9e8u+d/KlmPMeo6r&#xA;ZazPeQXltfizZOMNlLOhQwW8DBg8Y74qk9hffktJ5ktNft5r93e8aXTy9tqn6LW9vXETTxc4fqqt&#xA;K7U58uPI1G++Kptb/wDKJ/mR/wAxmq/9QceFWV+Sf+UM0D/tnWn/ACYTArDdA0LzN530Sx1TzD5g&#xA;f9E3cy3b6HZ20UEZWCcvFE859SZlDRqTQiuFUn85zXtxL5+80K7R3PluKPRtFmUcmtElhhnv7mIf&#xA;syMtz9vqFQYqgpvIuovajyFBo8svlKXWrbVl1o3CtaHS0VJJY2fl6nqu0bCgH7XKuKpj5Y1XV4dJ&#xA;8g68b6a6iuby50C7MjMVurJ5Z1srlgTQyD6tGwfqQ57HFU08zaJ5i8jaJrnmHy5rrLptq1xqzaBe&#xA;W8U0BZ3M9xHHMvpzxrIzMR8RocCsN8wa75Zf8x/0tpmto1p+kLTUHsILO7lv7m+sopLKSLTwEWGa&#xA;OeJvTlYMeJWvvhVN/MemfmPrOuQ+bI9GvtGQWoskttP1a0h1BrdpTKvqRXFtNAHZiPgWUHoCSRiq&#xA;rpA0y9W/W/8APHmvQbzSo0m1Kz1aWytXhikJCyczamJ0JUgMjkYFSa613yvpXkjVof0LrXmDyZqV&#xA;76+qeZb94YZJJ7p0j9ezj4wyScWVWVkjUct64VeteTvJVh5YguilzPqOpX8gl1DVbxle5nKjjGGZ&#xA;Qo4xp8KqBtgVg0nlDypr35y+aLXzVp0N/LJp+m3Gix3IJ/cIJY7kxbjb1OPKmKsk/wCVJ/lR/wBS&#xA;xZf8A39cVd/ypP8AKj/qWLL/AIBv64qgfy50LRdB87+ddL0e1jsrGI6Y6W0WyqZLZyxp7nFUX+Xc&#xA;iS+ZfPskZ5R/ptY+Y3HKOxtlda+KnY4qxry95C0rzdoGqeZlSK18z32s317pOtqgNxbNZXbW9qhY&#xA;jkYwtqOSdCCe5xVDwP5580+abu4tLyx8vebdK0uTSL6wuI5ZJYjcSxy/XbY14SRM0QMbUIoaNvhV&#xA;l/mW28/yaPcm4udCgtYrZpJrmaC4k9F0jJeZQzsvwbstQcVefeU/MOs215caf5WvdL1jWdUsrWzt&#xA;4bO2uLeOxFlGI1vLlZAqpCI5CQoX424hBSuKss1DyhaeUx5KnsZHnvLPWPRvr2SnqXR1aN4rqWXx&#xA;Z5fTf24gdhgVOPNOnLq3n3QNKubq+hsH0rVrqSGxvryw5zQ3Gmxxs7WcsDPwWeQAMSPiOKvFf8dR&#xA;/pP676dx+hPqH6W/QP8AinzD+nf0fx+sfWOf1j9Het9R/wBK+p+v6nD9rFCeazpraZNcz2kcXmHy&#xA;b5Xii812VxHc3lvr0en68161+9rq0V1btJwMLy+nLvNGQrPzVSVKN8neR9e1fzCNI1y3Hliw0tx5&#xA;lm07T7m5Oqy3Woz6hYwC81dbu4lmP1W3ZneN0J58KALirPNf8qeRfL+j3es6zq2sWOmWKGW5uZfM&#xA;GucVWtAABeFmZmIVVUFmYgAEnFWP/k7rN/c+evPelGXUl0ayj0K70zTdYmnuLuzOo6eZ54pHuZJ5&#xA;lbmByQyEK1aYqyf80LSC+0rSLC5DPaXms2EFzErMnON5fiUlCrUPzxVgvnjy5o/ly1866fo0LWtl&#xA;P5Ue4lt/VlkUyiaVA9JGffjthVm3nP8A8mD+X3/MbqP/AHTJ8CsQ0f8A9Z48s/8AGbRP+6vbYqyC&#xA;3/5RP8yP+YzVf+oOPCrK/JP/AChmgf8AbOtP+TCYFYVq9rr35e2dg2l679d0p7+C0svLl3bxvLIt&#xA;3OA8MFxFxlLRq7OvJW2G+2FUVq9xD5M836nqeqxBvJvmlYfr90V5xWl9HGLc/WF3pBcRKoLkUDD4&#xA;uuBXnmpWnly3vI/L9p5gu5vLNxqcZe1t7910yLTnniSSzNaNxpKSeMnDicKvQNOnsvOPmfRxoMYH&#xA;kryk7TRXka8Le6vlia3hitunOK3R2JdfhLUArgVQtrLzB+Yaa9Zanrv6O0eG/udMvvL9nbx+uIIZ&#xA;OCrLcy83H1iMc6ooHFtjirGNS8vz+VNdurDSoVXVtHkk8x+UpdlN5YEBNR0qSQ7t6aGkfU8eHSmF&#xA;WSTee7XzL5cgl80+QtSl8valHHd2s0UcOpxmJvjjldLZjPE3EhvsVGBWNxaP+V91rKT+R/LNz5m1&#xA;1lUodQa+XTbPj9h7lr7ZeBqVjCs3WgGFXoOj/ly09/BrnnK9/T+twEPawlfT06yYf8stqSRyH+/X&#xA;q/ywKzXFWPebPIuheZ/qst961tqFgxfT9UspWt7u3Lfa9OVezU3BBHtiqUr+Wd+qgDzz5loBTe4s&#xA;yfvNpirf/KtNQ/6njzL/ANJFl/2SYqgE/Ja2TWZNZHm7zGNRniWC5nW6tozLEhJVJPTtkrSpoeo7&#xA;HFWY+WvLOj+W9Jj0vSYTFbIzSMWYvJJJIeTySOxLO7HqTirDdJ1208g6nqGheYn+o6FeXs99oGsS&#xA;VFoFvJDNNazSn4YXjmkcrzNGU9a1xVd551L8sdSit9Sm802Wla1Y1/Res2d1C11GT1QIpb1o2/ai&#xA;IIPsd8VYJ5h8/wDn3V9BsIrzQ2itLLUYLweamhvY7C5WwkWeIyWiwSXMSTOoViw4DqCcKp1+W2t6&#xA;fLr955w1/wAx6PDzsRpttbRaol0/prcyXZknllMZBX1uKrTZR2xVkT6xF588z6THoZNx5X0K6/SF&#xA;/rCgiC4u4kZLe2tnI/ehGf1JGX4RQCu+BU61H/yaPl7/ALYet/8AUXpOKvC/+VQa5/j39BfWrj6p&#xA;w/wz+kP0LL/xwPqHrfXf0lx+ofXfq/8AuJ9Thy478a4oena75Ki1rWfM/lLTp10q0k8v+XLZAqyt&#xA;ELWC/wBSL2zJBNayGKaGMwuFlU8WO+KVTynoHmXS9b1nRH19tQ1228t6LAvmC9txIzP9c1bhJJAJ&#xA;F5lFoPikq1KszGtVUXo3lLzP5h1638w/mBHbxfoaU/4f8t2chns4riKqHVJnZUM08hqbdWUehGRt&#xA;6pYqqln5e/8Ak8/za/8ABe/7p74qyXzV5E1PzBdpIfM9/Y2sM8V1bWVvFYlIpoN0dZHt2lPxb0Zz&#xA;92KpLqP5PX2pfXfr3nLVbj9IWh0+7LxWBL2pYsY6/V/h3Y7rQ++Kqt3+VGr3l9Y39z531iS7015J&#xA;LGUx2IMbyxtC5AFvQ8o3I3xVCxfkpcRaFb6BH5x1ddItDC1vacLLiht5Vni39Dl8MiK25xVXX8ot&#xA;SW11C1HnXVxb6o8kl/HwsaStMgjkJ/0fbkoptirKPKXlq/0CzFnPrd1q1tFFFBZxXMVrGII4V4gK&#xA;beGFmqKV5k9PniqV/mBpOtC80fzTotpHqV95eNwzaVIPjnguVRZvq7HZJ1WP4DTfde+6qXal5/8A&#xA;Nd5Z3t5onlOVtH0+3ae/bXPV06WcBeckFtbvFI7sErVnAQnYE4qrweQPylutNi80jyvp/ozWq34r&#xA;bR/3bR+tUxD92WofDFUJon5g+aI9P03VNR8quvlnVYEn019G9W+ubaJ0DwrdWscSsOaEbxcgp2OK&#xA;pp5I0vVrnW9V846paDS5tait7e20riBMltamQxSXbDrO/qmq/sKAu5GKp55j8peWvMsEUGu6fFfx&#xA;QMXhEoNVLDi1CCD8Q2I798VTSCCC3gjt4I1ighVY4okAVVRRRVUDYAAbYqvxV2KuxV2KuxV2KuxV&#xA;2KrJoYZomimRZInFHjcBlI8CDtiqCs/Lnl6ynNxZaXaW05NTLDBFG5P+sqg98VTDFUtufLPly6uP&#xA;rNzpVnPcVr60lvE718eTKTiqYoiIioihUUAKoFAANgABirGPPH5Y+RvPK2a+adMGojTzIbP99PAU&#xA;9bj6m8EkRPL016+GKsU/6Fg/Iz/qWv8Ap+1D/soxWmV+R/yx8j+RlvF8raYNOGoGM3n76ecv6PL0&#xA;955JSOPqN08cVQ/nb8ovy6873tvfeZ9HS/vLWMww3AmngcRli3Bmgki5AMSQGrSpp1OKsc/6Fg/I&#xA;z/qWv+n7UP8AsoxWmX+Sfy58leR7S5tfK2lpp0V44lumDyTSSMo4qGlmaSQqu/FeVBUkDc1VZJir&#xA;sVdirsVdirsVdiqyaGKeGSGZQ8UqlJEPRlYUIPzGKsDb8nrYae2lQeafMFvoxjNumlx3Vv6KW5HH&#xA;0EL27S8Anwir1p3xVnFjZW9jZW9lbLwt7WJIYVrWiRqFUV+QxVXxV2KuxV2KuxV2KuxV2KuxV2Ku&#xA;xV2KuxV2KuxV2KuxV2KuxV2KuxV2KuxV2KuxV2KuxV2KuxV2KuxV2KuxV2KuxV2KuxV2KuxV2Kux&#xA;V2KuxV2KuxV2KuxV2KuxV2KuxV2KuxV2KuxV2KuxV2KuxV2KuxV2KuxV2KuxV2KuxV2KuxV2KuxV&#xA;2KuxV2KuxV2KuxV2KuxV2KuxV2KuxV2KuxV2KuxV2KuxV2KuxV2KuxV2KuxV2KuxV2KuxV2KuxV2&#xA;KuxV2KuxV2KuxV2KuxV2Ksb85+dY/LQ0+JNOudVvtTlkis7K0MSuxiiaZ95XjB+FNlFSewxVhyfm&#xA;L+Y+kCTUvMHliW40m7gmvLeK0RYZdPiglkLJeyzyiMsbdVk/Z+L4aYq9N02/g1HTrXULev1e8hju&#xA;IeQo3CVQ61HjQ4qiMVdirsVdirsVdirsVdirsVdirsVdirsVdirsVdirsVdirsVdirsVdirsVdir&#xA;sVdirsVYh+ZOq69Z22hWWiXg0661rVoNOkv/AEknaGJ4ZpnZI5KoW/chRyBG+KsM8xXfm/y/5t0v&#xA;SNV/MprDTr+zurl7+7tNJgVZLd4VSMNJCqfEJT37Yqx3QLrVm1fyb5v836kvmG31aSVbVrqX6lHp&#xA;r2X1gtdpFD6VnIDEKlnHMfs17FV1hpt/oVv5n1PzFr2n+ZtJ13TLxtO0ldRctqp9RpxOPUYLD6UP&#xA;7qkH0bgVVeq/lXpmpWHkqxW+u/rRugbu1QPLKsFtPR4bdZZ/30gjU/aff6KYFZbirsVdirsVdirs&#xA;VdirsVdirsVdirsVdirsVdirsVdirsVdirsVdirsVdirsVdirsVQ+pajY6Zp9xqF/MtvZWkbTXE7&#xA;mioiCrMfoxVgV9+Zul6z/hqbyxfCWG616DT9SjkhaOVY5LS4m4tHOqunL01ZWpuOhxVnGpaHomqG&#xA;I6np9tfGHkITcwxzcOdOXHmGpy4itPDFXln5teZvy7u/JeteVLGCPU9RsrWWOzsrGykuo7O4VCI/&#xA;jhjeKBlO32gRiqaeQfy+/Ky/01NU09YtfspI/RitrxlvLa0PqGaSGGGVT6R9VySGHIYq9LjjSNFj&#xA;jUIiAKiKKAAbAADFW8VdirsVdirsVdirsVdirsVdirsVdirsVdirsVdirsVdirsVdirsVdirsVdi&#xA;rsVdiqC1rR9P1rSLzSdRj9axvonguI+lUcUND2I6g9jirxPW/LWqWHmPSLPU7iKPzRpsqP5P803I&#xA;K2uppCDx0/UuH2bhUZlR+pBJXeoJVfpv5W+dlgkfXPLmma5qk0ss1xqM+tagjv6jllXgsRVQqkDb&#xA;bFXpv5e2uq2GkyaVe+Xbby9BZOFs47K4W5gmRqszqeMcgav2ua1PXArCPzF1K18qec4dT8qXMNt5&#xA;gu4/W8zWUwP6PNggI+u3xQqYpEbaNl+OT7NDhVPPy9/NSfXZ4tO8w2DaRqF+r3GhSyI0MOoWisQJ&#xA;IVdnZJAvxNGzV4kMNjgV6JirsVdirsVdirsVdirsVdirsVdirsVdirsVdirsVdirsVdirsVdirsV&#xA;dirsVdirsVdiqB1rQ9I1zTpdN1ezivrGYfvLeZQymnQ79COxG4xVI9L/AC30HSHuG0q61OzWeB7f&#xA;0hqF3LHGHH240nklVXXqrU2qcVS+4/LTVvQk+r+efMSz8W9H1Li0KB6fDypa8qV674q85/J3yRJ5&#xA;xs4tf8xfvNMiuPUubKSX159R1OD4ZLnUGIVgkTbQ27AcV6juyqdXf5ba3f6zd+V0ur+bRzqKa3e+&#xA;Yr7+8t2J5RW2lOeku37yVaKo2C12wq9lUcVC1JoKVO5wK3irsVdirsVdirsVdirsVdirsVdirsVd&#xA;irsVdirsVdirsVdirsVdirsVdirsVdirsVdirsVdirwv8xeX+K9S/wAEfpD0+C/8rE/RHDh6PJf7&#xA;rl/x/eny5en8XCtfixV7B5W/QP8AhvTP8P8AD9CfVov0d6dePocRwpy+Lp47+OKppirsVdirsVdi&#xA;rsVdirsVdirsVdirsVdirsVdirsVf//Z</xmpGImg:image>
               </rdf:li>
            </rdf:Alt>
         </xmp:Thumbnails>
      </rdf:Description>
      <rdf:Description rdf:about=""
            xmlns:xmpMM="http://ns.adobe.com/xap/1.0/mm/"
            xmlns:stRef="http://ns.adobe.com/xap/1.0/sType/ResourceRef#"
            xmlns:stEvt="http://ns.adobe.com/xap/1.0/sType/ResourceEvent#"
            xmlns:stMfs="http://ns.adobe.com/xap/1.0/sType/ManifestItem#">
         <xmpMM:InstanceID>xmp.iid:7BC85D211532EF11B9DBCFC82E82AD68</xmpMM:InstanceID>
         <xmpMM:DocumentID>xmp.did:7BC85D211532EF11B9DBCFC82E82AD68</xmpMM:DocumentID>
         <xmpMM:OriginalDocumentID>uuid:5D20892493BFDB11914A8590D31508C8</xmpMM:OriginalDocumentID>
         <xmpMM:RenditionClass>proof:pdf</xmpMM:RenditionClass>
         <xmpMM:DerivedFrom rdf:parseType="Resource">
            <stRef:instanceID>uuid:539c7a26-9d26-468e-911f-7b9c97a1c997</stRef:instanceID>
            <stRef:documentID>xmp.did:3D7B2A930B2FEF11A451C9FA8E1BFB47</stRef:documentID>
            <stRef:originalDocumentID>uuid:5D20892493BFDB11914A8590D31508C8</stRef:originalDocumentID>
            <stRef:renditionClass>proof:pdf</stRef:renditionClass>
         </xmpMM:DerivedFrom>
         <xmpMM:History>
            <rdf:Seq>
               <rdf:li rdf:parseType="Resource">
                  <stEvt:action>saved</stEvt:action>
                  <stEvt:instanceID>xmp.iid:367B2A930B2FEF11A451C9FA8E1BFB47</stEvt:instanceID>
                  <stEvt:when>2024-06-20T19:17:03+05:30</stEvt:when>
                  <stEvt:softwareAgent>Adobe Illustrator CS6 (Windows)</stEvt:softwareAgent>
                  <stEvt:changed>/</stEvt:changed>
               </rdf:li>
               <rdf:li rdf:parseType="Resource">
                  <stEvt:action>saved</stEvt:action>
                  <stEvt:instanceID>xmp.iid:7BC85D211532EF11B9DBCFC82E82AD68</stEvt:instanceID>
                  <stEvt:when>2024-06-24T16:39:32+05:30</stEvt:when>
                  <stEvt:softwareAgent>Adobe Illustrator CS6 (Windows)</stEvt:softwareAgent>
                  <stEvt:changed>/</stEvt:changed>
               </rdf:li>
            </rdf:Seq>
         </xmpMM:History>
         <xmpMM:Manifest>
            <rdf:Seq>
               <rdf:li rdf:parseType="Resource">
                  <stMfs:linkForm>EmbedByReference</stMfs:linkForm>
                  <stMfs:reference rdf:parseType="Resource">
                     <stRef:filePath>C:\Users\Dell\Downloads\knowledge (3).png</stRef:filePath>
                  </stMfs:reference>
               </rdf:li>
            </rdf:Seq>
         </xmpMM:Manifest>
      </rdf:Description>
      <rdf:Description rdf:about=""
            xmlns:illustrator="http://ns.adobe.com/illustrator/1.0/">
         <illustrator:StartupProfile>Print</illustrator:StartupProfile>
      </rdf:Description>
      <rdf:Description rdf:about=""
            xmlns:xmpTPg="http://ns.adobe.com/xap/1.0/t/pg/"
            xmlns:stDim="http://ns.adobe.com/xap/1.0/sType/Dimensions#"
            xmlns:xmpG="http://ns.adobe.com/xap/1.0/g/">
         <xmpTPg:HasVisibleOverprint>False</xmpTPg:HasVisibleOverprint>
         <xmpTPg:HasVisibleTransparency>True</xmpTPg:HasVisibleTransparency>
         <xmpTPg:NPages>1</xmpTPg:NPages>
         <xmpTPg:MaxPageSize rdf:parseType="Resource">
            <stDim:w>50.000000</stDim:w>
            <stDim:h>50.000000</stDim:h>
            <stDim:unit>Pixels</stDim:unit>
         </xmpTPg:MaxPageSize>
         <xmpTPg:PlateNames>
            <rdf:Seq>
               <rdf:li>Black</rdf:li>
            </rdf:Seq>
         </xmpTPg:PlateNames>
         <xmpTPg:SwatchGroups>
            <rdf:Seq>
               <rdf:li rdf:parseType="Resource">
                  <xmpG:groupName>Default Swatch Group</xmpG:groupName>
                  <xmpG:groupType>0</xmpG:groupType>
                  <xmpG:Colorants>
                     <rdf:Seq>
                        <rdf:li rdf:parseType="Resource">
                           <xmpG:swatchName>White</xmpG:swatchName>
                           <xmpG:mode>CMYK</xmpG:mode>
                           <xmpG:type>PROCESS</xmpG:type>
                           <xmpG:cyan>0.000000</xmpG:cyan>
                           <xmpG:magenta>0.000000</xmpG:magenta>
                           <xmpG:yellow>0.000000</xmpG:yellow>
                           <xmpG:black>0.000000</xmpG:black>
                        </rdf:li>
                        <rdf:li rdf:parseType="Resource">
                           <xmpG:swatchName>Black</xmpG:swatchName>
                           <xmpG:mode>CMYK</xmpG:mode>
                           <xmpG:type>PROCESS</xmpG:type>
                           <xmpG:cyan>0.000000</xmpG:cyan>
                           <xmpG:magenta>0.000000</xmpG:magenta>
                           <xmpG:yellow>0.000000</xmpG:yellow>
                           <xmpG:black>100.000000</xmpG:black>
                        </rdf:li>
                        <rdf:li rdf:parseType="Resource">
                           <xmpG:swatchName>CMYK Red</xmpG:swatchName>
                           <xmpG:mode>CMYK</xmpG:mode>
                           <xmpG:type>PROCESS</xmpG:type>
                           <xmpG:cyan>0.000000</xmpG:cyan>
                           <xmpG:magenta>100.000000</xmpG:magenta>
                           <xmpG:yellow>100.000000</xmpG:yellow>
                           <xmpG:black>0.000000</xmpG:black>
                        </rdf:li>
                        <rdf:li rdf:parseType="Resource">
                           <xmpG:swatchName>CMYK Yellow</xmpG:swatchName>
                           <xmpG:mode>CMYK</xmpG:mode>
                           <xmpG:type>PROCESS</xmpG:type>
                           <xmpG:cyan>0.000000</xmpG:cyan>
                           <xmpG:magenta>0.000000</xmpG:magenta>
                           <xmpG:yellow>100.000000</xmpG:yellow>
                           <xmpG:black>0.000000</xmpG:black>
                        </rdf:li>
                        <rdf:li rdf:parseType="Resource">
                           <xmpG:swatchName>CMYK Green</xmpG:swatchName>
                           <xmpG:mode>CMYK</xmpG:mode>
                           <xmpG:type>PROCESS</xmpG:type>
                           <xmpG:cyan>100.000000</xmpG:cyan>
                           <xmpG:magenta>0.000000</xmpG:magenta>
                           <xmpG:yellow>100.000000</xmpG:yellow>
                           <xmpG:black>0.000000</xmpG:black>
                        </rdf:li>
                        <rdf:li rdf:parseType="Resource">
                           <xmpG:swatchName>CMYK Cyan</xmpG:swatchName>
                           <xmpG:mode>CMYK</xmpG:mode>
                           <xmpG:type>PROCESS</xmpG:type>
                           <xmpG:cyan>100.000000</xmpG:cyan>
                           <xmpG:magenta>0.000000</xmpG:magenta>
                           <xmpG:yellow>0.000000</xmpG:yellow>
                           <xmpG:black>0.000000</xmpG:black>
                        </rdf:li>
                        <rdf:li rdf:parseType="Resource">
                           <xmpG:swatchName>CMYK Blue</xmpG:swatchName>
                           <xmpG:mode>CMYK</xmpG:mode>
                           <xmpG:type>PROCESS</xmpG:type>
                           <xmpG:cyan>100.000000</xmpG:cyan>
                           <xmpG:magenta>100.000000</xmpG:magenta>
                           <xmpG:yellow>0.000000</xmpG:yellow>
                           <xmpG:black>0.000000</xmpG:black>
                        </rdf:li>
                        <rdf:li rdf:parseType="Resource">
                           <xmpG:swatchName>CMYK Magenta</xmpG:swatchName>
                           <xmpG:mode>CMYK</xmpG:mode>
                           <xmpG:type>PROCESS</xmpG:type>
                           <xmpG:cyan>0.000000</xmpG:cyan>
                           <xmpG:magenta>100.000000</xmpG:magenta>
                           <xmpG:yellow>0.000000</xmpG:yellow>
                           <xmpG:black>0.000000</xmpG:black>
                        </rdf:li>
                        <rdf:li rdf:parseType="Resource">
                           <xmpG:swatchName>C=15 M=100 Y=90 K=10</xmpG:swatchName>
                           <xmpG:mode>CMYK</xmpG:mode>
                           <xmpG:type>PROCESS</xmpG:type>
                           <xmpG:cyan>14.999998</xmpG:cyan>
                           <xmpG:magenta>100.000000</xmpG:magenta>
                           <xmpG:yellow>90.000000</xmpG:yellow>
                           <xmpG:black>10.000002</xmpG:black>
                        </rdf:li>
                        <rdf:li rdf:parseType="Resource">
                           <xmpG:swatchName>C=0 M=90 Y=85 K=0</xmpG:swatchName>
                           <xmpG:mode>CMYK</xmpG:mode>
                           <xmpG:type>PROCESS</xmpG:type>
                           <xmpG:cyan>0.000000</xmpG:cyan>
                           <xmpG:magenta>90.000000</xmpG:magenta>
                           <xmpG:yellow>85.000000</xmpG:yellow>
                           <xmpG:black>0.000000</xmpG:black>
                        </rdf:li>
                        <rdf:li rdf:parseType="Resource">
                           <xmpG:swatchName>C=0 M=80 Y=95 K=0</xmpG:swatchName>
                           <xmpG:mode>CMYK</xmpG:mode>
                           <xmpG:type>PROCESS</xmpG:type>
                           <xmpG:cyan>0.000000</xmpG:cyan>
                           <xmpG:magenta>80.000000</xmpG:magenta>
                           <xmpG:yellow>95.000000</xmpG:yellow>
                           <xmpG:black>0.000000</xmpG:black>
                        </rdf:li>
                        <rdf:li rdf:parseType="Resource">
                           <xmpG:swatchName>C=0 M=50 Y=100 K=0</xmpG:swatchName>
                           <xmpG:mode>CMYK</xmpG:mode>
                           <xmpG:type>PROCESS</xmpG:type>
                           <xmpG:cyan>0.000000</xmpG:cyan>
                           <xmpG:magenta>50.000000</xmpG:magenta>
                           <xmpG:yellow>100.000000</xmpG:yellow>
                           <xmpG:black>0.000000</xmpG:black>
                        </rdf:li>
                        <rdf:li rdf:parseType="Resource">
                           <xmpG:swatchName>C=0 M=35 Y=85 K=0</xmpG:swatchName>
                           <xmpG:mode>CMYK</xmpG:mode>
                           <xmpG:type>PROCESS</xmpG:type>
                           <xmpG:cyan>0.000000</xmpG:cyan>
                           <xmpG:magenta>35.000004</xmpG:magenta>
                           <xmpG:yellow>85.000000</xmpG:yellow>
                           <xmpG:black>0.000000</xmpG:black>
                        </rdf:li>
                        <rdf:li rdf:parseType="Resource">
                           <xmpG:swatchName>C=5 M=0 Y=90 K=0</xmpG:swatchName>
                           <xmpG:mode>CMYK</xmpG:mode>
                           <xmpG:type>PROCESS</xmpG:type>
                           <xmpG:cyan>5.000001</xmpG:cyan>
                           <xmpG:magenta>0.000000</xmpG:magenta>
                           <xmpG:yellow>90.000000</xmpG:yellow>
                           <xmpG:black>0.000000</xmpG:black>
                        </rdf:li>
                        <rdf:li rdf:parseType="Resource">
                           <xmpG:swatchName>C=20 M=0 Y=100 K=0</xmpG:swatchName>
                           <xmpG:mode>CMYK</xmpG:mode>
                           <xmpG:type>PROCESS</xmpG:type>
                           <xmpG:cyan>19.999998</xmpG:cyan>
                           <xmpG:magenta>0.000000</xmpG:magenta>
                           <xmpG:yellow>100.000000</xmpG:yellow>
                           <xmpG:black>0.000000</xmpG:black>
                        </rdf:li>
                        <rdf:li rdf:parseType="Resource">
                           <xmpG:swatchName>C=50 M=0 Y=100 K=0</xmpG:swatchName>
                           <xmpG:mode>CMYK</xmpG:mode>
                           <xmpG:type>PROCESS</xmpG:type>
                           <xmpG:cyan>50.000000</xmpG:cyan>
                           <xmpG:magenta>0.000000</xmpG:magenta>
                           <xmpG:yellow>100.000000</xmpG:yellow>
                           <xmpG:black>0.000000</xmpG:black>
                        </rdf:li>
                        <rdf:li rdf:parseType="Resource">
                           <xmpG:swatchName>C=75 M=0 Y=100 K=0</xmpG:swatchName>
                           <xmpG:mode>CMYK</xmpG:mode>
                           <xmpG:type>PROCESS</xmpG:type>
                           <xmpG:cyan>75.000000</xmpG:cyan>
                           <xmpG:magenta>0.000000</xmpG:magenta>
                           <xmpG:yellow>100.000000</xmpG:yellow>
                           <xmpG:black>0.000000</xmpG:black>
                        </rdf:li>
                        <rdf:li rdf:parseType="Resource">
                           <xmpG:swatchName>C=85 M=10 Y=100 K=10</xmpG:swatchName>
                           <xmpG:mode>CMYK</xmpG:mode>
                           <xmpG:type>PROCESS</xmpG:type>
                           <xmpG:cyan>85.000000</xmpG:cyan>
                           <xmpG:magenta>10.000002</xmpG:magenta>
                           <xmpG:yellow>100.000000</xmpG:yellow>
                           <xmpG:black>10.000002</xmpG:black>
                        </rdf:li>
                        <rdf:li rdf:parseType="Resource">
                           <xmpG:swatchName>C=90 M=30 Y=95 K=30</xmpG:swatchName>
                           <xmpG:mode>CMYK</xmpG:mode>
                           <xmpG:type>PROCESS</xmpG:type>
                           <xmpG:cyan>90.000000</xmpG:cyan>
                           <xmpG:magenta>30.000002</xmpG:magenta>
                           <xmpG:yellow>95.000000</xmpG:yellow>
                           <xmpG:black>30.000002</xmpG:black>
                        </rdf:li>
                        <rdf:li rdf:parseType="Resource">
                           <xmpG:swatchName>C=75 M=0 Y=75 K=0</xmpG:swatchName>
                           <xmpG:mode>CMYK</xmpG:mode>
                           <xmpG:type>PROCESS</xmpG:type>
                           <xmpG:cyan>75.000000</xmpG:cyan>
                           <xmpG:magenta>0.000000</xmpG:magenta>
                           <xmpG:yellow>75.000000</xmpG:yellow>
                           <xmpG:black>0.000000</xmpG:black>
                        </rdf:li>
                        <rdf:li rdf:parseType="Resource">
                           <xmpG:swatchName>C=80 M=10 Y=45 K=0</xmpG:swatchName>
                           <xmpG:mode>CMYK</xmpG:mode>
                           <xmpG:type>PROCESS</xmpG:type>
                           <xmpG:cyan>80.000000</xmpG:cyan>
                           <xmpG:magenta>10.000002</xmpG:magenta>
                           <xmpG:yellow>45.000000</xmpG:yellow>
                           <xmpG:black>0.000000</xmpG:black>
                        </rdf:li>
                        <rdf:li rdf:parseType="Resource">
                           <xmpG:swatchName>C=70 M=15 Y=0 K=0</xmpG:swatchName>
                           <xmpG:mode>CMYK</xmpG:mode>
                           <xmpG:type>PROCESS</xmpG:type>
                           <xmpG:cyan>70.000000</xmpG:cyan>
                           <xmpG:magenta>14.999998</xmpG:magenta>
                           <xmpG:yellow>0.000000</xmpG:yellow>
                           <xmpG:black>0.000000</xmpG:black>
                        </rdf:li>
                        <rdf:li rdf:parseType="Resource">
                           <xmpG:swatchName>C=85 M=50 Y=0 K=0</xmpG:swatchName>
                           <xmpG:mode>CMYK</xmpG:mode>
                           <xmpG:type>PROCESS</xmpG:type>
                           <xmpG:cyan>85.000000</xmpG:cyan>
                           <xmpG:magenta>50.000000</xmpG:magenta>
                           <xmpG:yellow>0.000000</xmpG:yellow>
                           <xmpG:black>0.000000</xmpG:black>
                        </rdf:li>
                        <rdf:li rdf:parseType="Resource">
                           <xmpG:swatchName>C=100 M=95 Y=5 K=0</xmpG:swatchName>
                           <xmpG:mode>CMYK</xmpG:mode>
                           <xmpG:type>PROCESS</xmpG:type>
                           <xmpG:cyan>100.000000</xmpG:cyan>
                           <xmpG:magenta>95.000000</xmpG:magenta>
                           <xmpG:yellow>5.000001</xmpG:yellow>
                           <xmpG:black>0.000000</xmpG:black>
                        </rdf:li>
                        <rdf:li rdf:parseType="Resource">
                           <xmpG:swatchName>C=100 M=100 Y=25 K=25</xmpG:swatchName>
                           <xmpG:mode>CMYK</xmpG:mode>
                           <xmpG:type>PROCESS</xmpG:type>
                           <xmpG:cyan>100.000000</xmpG:cyan>
                           <xmpG:magenta>100.000000</xmpG:magenta>
                           <xmpG:yellow>25.000000</xmpG:yellow>
                           <xmpG:black>25.000000</xmpG:black>
                        </rdf:li>
                        <rdf:li rdf:parseType="Resource">
                           <xmpG:swatchName>C=75 M=100 Y=0 K=0</xmpG:swatchName>
                           <xmpG:mode>CMYK</xmpG:mode>
                           <xmpG:type>PROCESS</xmpG:type>
                           <xmpG:cyan>75.000000</xmpG:cyan>
                           <xmpG:magenta>100.000000</xmpG:magenta>
                           <xmpG:yellow>0.000000</xmpG:yellow>
                           <xmpG:black>0.000000</xmpG:black>
                        </rdf:li>
                        <rdf:li rdf:parseType="Resource">
                           <xmpG:swatchName>C=50 M=100 Y=0 K=0</xmpG:swatchName>
                           <xmpG:mode>CMYK</xmpG:mode>
                           <xmpG:type>PROCESS</xmpG:type>
                           <xmpG:cyan>50.000000</xmpG:cyan>
                           <xmpG:magenta>100.000000</xmpG:magenta>
                           <xmpG:yellow>0.000000</xmpG:yellow>
                           <xmpG:black>0.000000</xmpG:black>
                        </rdf:li>
                        <rdf:li rdf:parseType="Resource">
                           <xmpG:swatchName>C=35 M=100 Y=35 K=10</xmpG:swatchName>
                           <xmpG:mode>CMYK</xmpG:mode>
                           <xmpG:type>PROCESS</xmpG:type>
                           <xmpG:cyan>35.000004</xmpG:cyan>
                           <xmpG:magenta>100.000000</xmpG:magenta>
                           <xmpG:yellow>35.000004</xmpG:yellow>
                           <xmpG:black>10.000002</xmpG:black>
                        </rdf:li>
                        <rdf:li rdf:parseType="Resource">
                           <xmpG:swatchName>C=10 M=100 Y=50 K=0</xmpG:swatchName>
                           <xmpG:mode>CMYK</xmpG:mode>
                           <xmpG:type>PROCESS</xmpG:type>
                           <xmpG:cyan>10.000002</xmpG:cyan>
                           <xmpG:magenta>100.000000</xmpG:magenta>
                           <xmpG:yellow>50.000000</xmpG:yellow>
                           <xmpG:black>0.000000</xmpG:black>
                        </rdf:li>
                        <rdf:li rdf:parseType="Resource">
                           <xmpG:swatchName>C=0 M=95 Y=20 K=0</xmpG:swatchName>
                           <xmpG:mode>CMYK</xmpG:mode>
                           <xmpG:type>PROCESS</xmpG:type>
                           <xmpG:cyan>0.000000</xmpG:cyan>
                           <xmpG:magenta>95.000000</xmpG:magenta>
                           <xmpG:yellow>19.999998</xmpG:yellow>
                           <xmpG:black>0.000000</xmpG:black>
                        </rdf:li>
                        <rdf:li rdf:parseType="Resource">
                           <xmpG:swatchName>C=25 M=25 Y=40 K=0</xmpG:swatchName>
                           <xmpG:mode>CMYK</xmpG:mode>
                           <xmpG:type>PROCESS</xmpG:type>
                           <xmpG:cyan>25.000000</xmpG:cyan>
                           <xmpG:magenta>25.000000</xmpG:magenta>
                           <xmpG:yellow>39.999996</xmpG:yellow>
                           <xmpG:black>0.000000</xmpG:black>
                        </rdf:li>
                        <rdf:li rdf:parseType="Resource">
                           <xmpG:swatchName>C=40 M=45 Y=50 K=5</xmpG:swatchName>
                           <xmpG:mode>CMYK</xmpG:mode>
                           <xmpG:type>PROCESS</xmpG:type>
                           <xmpG:cyan>39.999996</xmpG:cyan>
                           <xmpG:magenta>45.000000</xmpG:magenta>
                           <xmpG:yellow>50.000000</xmpG:yellow>
                           <xmpG:black>5.000001</xmpG:black>
                        </rdf:li>
                        <rdf:li rdf:parseType="Resource">
                           <xmpG:swatchName>C=50 M=50 Y=60 K=25</xmpG:swatchName>
                           <xmpG:mode>CMYK</xmpG:mode>
                           <xmpG:type>PROCESS</xmpG:type>
                           <xmpG:cyan>50.000000</xmpG:cyan>
                           <xmpG:magenta>50.000000</xmpG:magenta>
                           <xmpG:yellow>60.000004</xmpG:yellow>
                           <xmpG:black>25.000000</xmpG:black>
                        </rdf:li>
                        <rdf:li rdf:parseType="Resource">
                           <xmpG:swatchName>C=55 M=60 Y=65 K=40</xmpG:swatchName>
                           <xmpG:mode>CMYK</xmpG:mode>
                           <xmpG:type>PROCESS</xmpG:type>
                           <xmpG:cyan>55.000000</xmpG:cyan>
                           <xmpG:magenta>60.000004</xmpG:magenta>
                           <xmpG:yellow>65.000000</xmpG:yellow>
                           <xmpG:black>39.999996</xmpG:black>
                        </rdf:li>
                        <rdf:li rdf:parseType="Resource">
                           <xmpG:swatchName>C=25 M=40 Y=65 K=0</xmpG:swatchName>
                           <xmpG:mode>CMYK</xmpG:mode>
                           <xmpG:type>PROCESS</xmpG:type>
                           <xmpG:cyan>25.000000</xmpG:cyan>
                           <xmpG:magenta>39.999996</xmpG:magenta>
                           <xmpG:yellow>65.000000</xmpG:yellow>
                           <xmpG:black>0.000000</xmpG:black>
                        </rdf:li>
                        <rdf:li rdf:parseType="Resource">
                           <xmpG:swatchName>C=30 M=50 Y=75 K=10</xmpG:swatchName>
                           <xmpG:mode>CMYK</xmpG:mode>
                           <xmpG:type>PROCESS</xmpG:type>
                           <xmpG:cyan>30.000002</xmpG:cyan>
                           <xmpG:magenta>50.000000</xmpG:magenta>
                           <xmpG:yellow>75.000000</xmpG:yellow>
                           <xmpG:black>10.000002</xmpG:black>
                        </rdf:li>
                        <rdf:li rdf:parseType="Resource">
                           <xmpG:swatchName>C=35 M=60 Y=80 K=25</xmpG:swatchName>
                           <xmpG:mode>CMYK</xmpG:mode>
                           <xmpG:type>PROCESS</xmpG:type>
                           <xmpG:cyan>35.000004</xmpG:cyan>
                           <xmpG:magenta>60.000004</xmpG:magenta>
                           <xmpG:yellow>80.000000</xmpG:yellow>
                           <xmpG:black>25.000000</xmpG:black>
                        </rdf:li>
                        <rdf:li rdf:parseType="Resource">
                           <xmpG:swatchName>C=40 M=65 Y=90 K=35</xmpG:swatchName>
                           <xmpG:mode>CMYK</xmpG:mode>
                           <xmpG:type>PROCESS</xmpG:type>
                           <xmpG:cyan>39.999996</xmpG:cyan>
                           <xmpG:magenta>65.000000</xmpG:magenta>
                           <xmpG:yellow>90.000000</xmpG:yellow>
                           <xmpG:black>35.000004</xmpG:black>
                        </rdf:li>
                        <rdf:li rdf:parseType="Resource">
                           <xmpG:swatchName>C=40 M=70 Y=100 K=50</xmpG:swatchName>
                           <xmpG:mode>CMYK</xmpG:mode>
                           <xmpG:type>PROCESS</xmpG:type>
                           <xmpG:cyan>39.999996</xmpG:cyan>
                           <xmpG:magenta>70.000000</xmpG:magenta>
                           <xmpG:yellow>100.000000</xmpG:yellow>
                           <xmpG:black>50.000000</xmpG:black>
                        </rdf:li>
                        <rdf:li rdf:parseType="Resource">
                           <xmpG:swatchName>C=50 M=70 Y=80 K=70</xmpG:swatchName>
                           <xmpG:mode>CMYK</xmpG:mode>
                           <xmpG:type>PROCESS</xmpG:type>
                           <xmpG:cyan>50.000000</xmpG:cyan>
                           <xmpG:magenta>70.000000</xmpG:magenta>
                           <xmpG:yellow>80.000000</xmpG:yellow>
                           <xmpG:black>70.000000</xmpG:black>
                        </rdf:li>
                     </rdf:Seq>
                  </xmpG:Colorants>
               </rdf:li>
               <rdf:li rdf:parseType="Resource">
                  <xmpG:groupName>Grays</xmpG:groupName>
                  <xmpG:groupType>1</xmpG:groupType>
                  <xmpG:Colorants>
                     <rdf:Seq>
                        <rdf:li rdf:parseType="Resource">
                           <xmpG:swatchName>C=0 M=0 Y=0 K=100</xmpG:swatchName>
                           <xmpG:mode>CMYK</xmpG:mode>
                           <xmpG:type>PROCESS</xmpG:type>
                           <xmpG:cyan>0.000000</xmpG:cyan>
                           <xmpG:magenta>0.000000</xmpG:magenta>
                           <xmpG:yellow>0.000000</xmpG:yellow>
                           <xmpG:black>100.000000</xmpG:black>
                        </rdf:li>
                        <rdf:li rdf:parseType="Resource">
                           <xmpG:swatchName>C=0 M=0 Y=0 K=90</xmpG:swatchName>
                           <xmpG:mode>CMYK</xmpG:mode>
                           <xmpG:type>PROCESS</xmpG:type>
                           <xmpG:cyan>0.000000</xmpG:cyan>
                           <xmpG:magenta>0.000000</xmpG:magenta>
                           <xmpG:yellow>0.000000</xmpG:yellow>
                           <xmpG:black>89.999405</xmpG:black>
                        </rdf:li>
                        <rdf:li rdf:parseType="Resource">
                           <xmpG:swatchName>C=0 M=0 Y=0 K=80</xmpG:swatchName>
                           <xmpG:mode>CMYK</xmpG:mode>
                           <xmpG:type>PROCESS</xmpG:type>
                           <xmpG:cyan>0.000000</xmpG:cyan>
                           <xmpG:magenta>0.000000</xmpG:magenta>
                           <xmpG:yellow>0.000000</xmpG:yellow>
                           <xmpG:black>79.998795</xmpG:black>
                        </rdf:li>
                        <rdf:li rdf:parseType="Resource">
                           <xmpG:swatchName>C=0 M=0 Y=0 K=70</xmpG:swatchName>
                           <xmpG:mode>CMYK</xmpG:mode>
                           <xmpG:type>PROCESS</xmpG:type>
                           <xmpG:cyan>0.000000</xmpG:cyan>
                           <xmpG:magenta>0.000000</xmpG:magenta>
                           <xmpG:yellow>0.000000</xmpG:yellow>
                           <xmpG:black>69.999702</xmpG:black>
                        </rdf:li>
                        <rdf:li rdf:parseType="Resource">
                           <xmpG:swatchName>C=0 M=0 Y=0 K=60</xmpG:swatchName>
                           <xmpG:mode>CMYK</xmpG:mode>
                           <xmpG:type>PROCESS</xmpG:type>
                           <xmpG:cyan>0.000000</xmpG:cyan>
                           <xmpG:magenta>0.000000</xmpG:magenta>
                           <xmpG:yellow>0.000000</xmpG:yellow>
                           <xmpG:black>59.999104</xmpG:black>
                        </rdf:li>
                        <rdf:li rdf:parseType="Resource">
                           <xmpG:swatchName>C=0 M=0 Y=0 K=50</xmpG:swatchName>
                           <xmpG:mode>CMYK</xmpG:mode>
                           <xmpG:type>PROCESS</xmpG:type>
                           <xmpG:cyan>0.000000</xmpG:cyan>
                           <xmpG:magenta>0.000000</xmpG:magenta>
                           <xmpG:yellow>0.000000</xmpG:yellow>
                           <xmpG:black>50.000000</xmpG:black>
                        </rdf:li>
                        <rdf:li rdf:parseType="Resource">
                           <xmpG:swatchName>C=0 M=0 Y=0 K=40</xmpG:swatchName>
                           <xmpG:mode>CMYK</xmpG:mode>
                           <xmpG:type>PROCESS</xmpG:type>
                           <xmpG:cyan>0.000000</xmpG:cyan>
                           <xmpG:magenta>0.000000</xmpG:magenta>
                           <xmpG:yellow>0.000000</xmpG:yellow>
                           <xmpG:black>39.999401</xmpG:black>
                        </rdf:li>
                        <rdf:li rdf:parseType="Resource">
                           <xmpG:swatchName>C=0 M=0 Y=0 K=30</xmpG:swatchName>
                           <xmpG:mode>CMYK</xmpG:mode>
                           <xmpG:type>PROCESS</xmpG:type>
                           <xmpG:cyan>0.000000</xmpG:cyan>
                           <xmpG:magenta>0.000000</xmpG:magenta>
                           <xmpG:yellow>0.000000</xmpG:yellow>
                           <xmpG:black>29.998802</xmpG:black>
                        </rdf:li>
                        <rdf:li rdf:parseType="Resource">
                           <xmpG:swatchName>C=0 M=0 Y=0 K=20</xmpG:swatchName>
                           <xmpG:mode>CMYK</xmpG:mode>
                           <xmpG:type>PROCESS</xmpG:type>
                           <xmpG:cyan>0.000000</xmpG:cyan>
                           <xmpG:magenta>0.000000</xmpG:magenta>
                           <xmpG:yellow>0.000000</xmpG:yellow>
                           <xmpG:black>19.999701</xmpG:black>
                        </rdf:li>
                        <rdf:li rdf:parseType="Resource">
                           <xmpG:swatchName>C=0 M=0 Y=0 K=10</xmpG:swatchName>
                           <xmpG:mode>CMYK</xmpG:mode>
                           <xmpG:type>PROCESS</xmpG:type>
                           <xmpG:cyan>0.000000</xmpG:cyan>
                           <xmpG:magenta>0.000000</xmpG:magenta>
                           <xmpG:yellow>0.000000</xmpG:yellow>
                           <xmpG:black>9.999103</xmpG:black>
                        </rdf:li>
                        <rdf:li rdf:parseType="Resource">
                           <xmpG:swatchName>C=0 M=0 Y=0 K=5</xmpG:swatchName>
                           <xmpG:mode>CMYK</xmpG:mode>
                           <xmpG:type>PROCESS</xmpG:type>
                           <xmpG:cyan>0.000000</xmpG:cyan>
                           <xmpG:magenta>0.000000</xmpG:magenta>
                           <xmpG:yellow>0.000000</xmpG:yellow>
                           <xmpG:black>4.998803</xmpG:black>
                        </rdf:li>
                     </rdf:Seq>
                  </xmpG:Colorants>
               </rdf:li>
               <rdf:li rdf:parseType="Resource">
                  <xmpG:groupName>Brights</xmpG:groupName>
                  <xmpG:groupType>1</xmpG:groupType>
                  <xmpG:Colorants>
                     <rdf:Seq>
                        <rdf:li rdf:parseType="Resource">
                           <xmpG:swatchName>C=0 M=100 Y=100 K=0</xmpG:swatchName>
                           <xmpG:mode>CMYK</xmpG:mode>
                           <xmpG:type>PROCESS</xmpG:type>
                           <xmpG:cyan>0.000000</xmpG:cyan>
                           <xmpG:magenta>100.000000</xmpG:magenta>
                           <xmpG:yellow>100.000000</xmpG:yellow>
                           <xmpG:black>0.000000</xmpG:black>
                        </rdf:li>
                        <rdf:li rdf:parseType="Resource">
                           <xmpG:swatchName>C=0 M=75 Y=100 K=0</xmpG:swatchName>
                           <xmpG:mode>CMYK</xmpG:mode>
                           <xmpG:type>PROCESS</xmpG:type>
                           <xmpG:cyan>0.000000</xmpG:cyan>
                           <xmpG:magenta>75.000000</xmpG:magenta>
                           <xmpG:yellow>100.000000</xmpG:yellow>
                           <xmpG:black>0.000000</xmpG:black>
                        </rdf:li>
                        <rdf:li rdf:parseType="Resource">
                           <xmpG:swatchName>C=0 M=10 Y=95 K=0</xmpG:swatchName>
                           <xmpG:mode>CMYK</xmpG:mode>
                           <xmpG:type>PROCESS</xmpG:type>
                           <xmpG:cyan>0.000000</xmpG:cyan>
                           <xmpG:magenta>10.000002</xmpG:magenta>
                           <xmpG:yellow>95.000000</xmpG:yellow>
                           <xmpG:black>0.000000</xmpG:black>
                        </rdf:li>
                        <rdf:li rdf:parseType="Resource">
                           <xmpG:swatchName>C=85 M=10 Y=100 K=0</xmpG:swatchName>
                           <xmpG:mode>CMYK</xmpG:mode>
                           <xmpG:type>PROCESS</xmpG:type>
                           <xmpG:cyan>85.000000</xmpG:cyan>
                           <xmpG:magenta>10.000002</xmpG:magenta>
                           <xmpG:yellow>100.000000</xmpG:yellow>
                           <xmpG:black>0.000000</xmpG:black>
                        </rdf:li>
                        <rdf:li rdf:parseType="Resource">
                           <xmpG:swatchName>C=100 M=90 Y=0 K=0</xmpG:swatchName>
                           <xmpG:mode>CMYK</xmpG:mode>
                           <xmpG:type>PROCESS</xmpG:type>
                           <xmpG:cyan>100.000000</xmpG:cyan>
                           <xmpG:magenta>90.000000</xmpG:magenta>
                           <xmpG:yellow>0.000000</xmpG:yellow>
                           <xmpG:black>0.000000</xmpG:black>
                        </rdf:li>
                        <rdf:li rdf:parseType="Resource">
                           <xmpG:swatchName>C=60 M=90 Y=0 K=0</xmpG:swatchName>
                           <xmpG:mode>CMYK</xmpG:mode>
                           <xmpG:type>PROCESS</xmpG:type>
                           <xmpG:cyan>60.000004</xmpG:cyan>
                           <xmpG:magenta>90.000000</xmpG:magenta>
                           <xmpG:yellow>0.003099</xmpG:yellow>
                           <xmpG:black>0.003099</xmpG:black>
                        </rdf:li>
                     </rdf:Seq>
                  </xmpG:Colorants>
               </rdf:li>
            </rdf:Seq>
         </xmpTPg:SwatchGroups>
      </rdf:Description>
      <rdf:Description rdf:about=""
            xmlns:pdf="http://ns.adobe.com/pdf/1.3/">
         <pdf:Producer>Adobe PDF library 10.01</pdf:Producer>
      </rdf:Description>
   </rdf:RDF>
</x:xmpmeta>
                                                                                                    
                                                                                                    
                                                                                                    
                                                                                                    
                                                                                                    
                                                                                                    
                                                                                                    
                                                                                                    
                                                                                                    
                                                                                                    
                                                                                                    
                                                                                                    
                                                                                                    
                                                                                                    
                                                                                                    
                                                                                                    
                                                                                                    
                                                                                                    
                                                                                                    
                                                                                                    
                           
<?xpacket end="w"?>
	</metadata>
<g>
	<path fill-rule="evenodd" clip-rule="evenodd" d="M-78.963-48.952c0.394-0.198,0.685-0.327,0.958-0.485
		c2.19-1.264,4.377-2.535,6.566-3.802c0.935-0.54,1.907-0.973,2.993-1.125c1.392-0.195,2.656,0.48,3.112,1.697
		c0.498,1.33,0.02,2.729-1.197,3.476c-3.998,2.454-8.002,4.897-11.995,7.359c-1.465,0.905-2.996,1.109-4.655,0.652
		c-2.564-0.705-5.151-1.335-7.702-2.082c-0.751-0.221-1.23,0.046-1.781,0.432c0.17,0.306,0.338,0.596,0.495,0.894
		c0.466,0.884,0.227,1.811-0.626,2.326c-0.641,0.388-1.294,0.759-1.959,1.104c-0.854,0.447-1.821,0.187-2.3-0.647
		c-1.89-3.294-3.769-6.595-5.637-9.902c-0.492-0.871-0.201-1.839,0.671-2.354c0.607-0.357,1.223-0.704,1.844-1.039
		c0.91-0.491,1.871-0.225,2.405,0.654c0.137,0.226,0.265,0.454,0.413,0.708c0.951-0.548,1.874-1.093,2.811-1.614
		c1.155-0.644,2.3-1.31,3.488-1.891c1.216-0.596,2.483-0.585,3.777-0.149c1.949,0.656,3.917,1.249,5.875,1.878
		c0.539,0.175,1.139,0.286,1.583,0.602C-78.72-51.474-78.491-50.36-78.963-48.952z M-93.391-44.097
		c0.342-0.192,0.675-0.352,0.975-0.558c0.372-0.256,0.74-0.275,1.169-0.16c2.793,0.76,5.597,1.483,8.388,2.252
		c1.234,0.341,2.378,0.254,3.477-0.421c4.049-2.487,8.104-4.963,12.148-7.457c0.213-0.131,0.42-0.344,0.522-0.567
		c0.469-1.032-0.208-1.996-1.349-1.947c-0.974,0.041-1.816,0.464-2.635,0.936c-2.244,1.291-4.48,2.594-6.722,3.891
		c-1.037,0.602-2.156,0.928-3.344,0.674c-1.852-0.395-3.688-0.866-5.528-1.317c-0.549-0.136-0.771-0.473-0.663-0.908
		c0.104-0.416,0.508-0.598,1.036-0.455c0.638,0.172,1.271,0.365,1.913,0.527c0.84,0.211,1.678,0.454,2.532,0.583
		c0.72,0.109,1.207-0.302,1.315-0.944c0.104-0.61-0.311-1.205-0.967-1.375c-0.314-0.082-0.64-0.119-0.947-0.216
		c-1.931-0.613-3.862-1.23-5.788-1.863c-0.709-0.234-1.416-0.302-2.121-0.048c-0.495,0.178-0.991,0.377-1.449,0.633
		c-1.655,0.928-3.294,1.883-4.939,2.83c-0.096,0.055-0.178,0.131-0.275,0.203C-95.55-47.889-94.477-46.003-93.391-44.097z
		 M-99.237-51.308c-0.183,0.087-0.291,0.131-0.392,0.188c-0.501,0.28-0.993,0.576-1.502,0.84c-0.349,0.181-0.422,0.373-0.211,0.729
		c0.677,1.15,1.326,2.316,1.987,3.478c1.132,1.989,2.261,3.979,3.394,5.968c0.268,0.47,0.306,0.479,0.787,0.21
		c0.487-0.272,0.967-0.561,1.463-0.817c0.335-0.174,0.406-0.375,0.207-0.702c-0.277-0.45-0.528-0.914-0.79-1.373
		c-1.538-2.704-3.074-5.407-4.615-8.108C-98.996-51.047-99.127-51.172-99.237-51.308z"/>
	<path fill-rule="evenodd" clip-rule="evenodd" d="M-61.631-61.262c0.269,0,0.49-0.017,0.709,0.003
		c0.931,0.084,1.387,1.036,0.819,1.777c-0.964,1.259-1.953,2.5-2.954,3.732c-0.452,0.556-1.233,0.552-1.689-0.01
		c-1.001-1.231-1.991-2.473-2.954-3.732c-0.554-0.726-0.121-1.655,0.787-1.765c0.144-0.018,0.291-0.015,0.489-0.023
		c0.022-0.216,0.059-0.428,0.066-0.642c0.243-7.437-5.021-13.65-11.82-15.044c-0.59-0.121-1.191-0.187-1.789-0.265
		c-0.535-0.069-0.785-0.324-0.79-0.869c-0.006-0.982-0.004-1.965-0.001-2.948c0.003-0.702,0.267-0.968,0.973-0.915
		c3.028,0.226,5.874,1.071,8.474,2.633c5.051,3.035,8.178,7.447,9.364,13.199c0.305,1.482,0.406,2.99,0.317,4.506
		C-61.636-61.525-61.631-61.425-61.631-61.262z M-63.897-56.974c0.752-0.952,1.465-1.855,2.227-2.821
		c-0.219-0.013-0.347-0.025-0.475-0.029c-0.804-0.016-1.036-0.304-0.965-1.096c0.149-1.66,0.114-3.324-0.25-4.948
		c-1.566-6.984-5.759-11.656-12.591-13.929c-1.063-0.354-2.191-0.516-3.344-0.778c0,0.719,0,1.314,0,1.928
		c0.691,0.141,1.387,0.253,2.067,0.43c7.973,2.065,13.054,9.399,12.204,17.605c-0.05,0.491-0.258,0.709-0.738,0.782
		c-0.098,0.014-0.194,0.027-0.355,0.05C-65.367-58.833-64.65-57.925-63.897-56.974z"/>
	<path fill-rule="evenodd" clip-rule="evenodd" d="M-83.393-64.933c-2.799-2.233-2.515-5.734-0.704-7.63
		c1.966-2.056,5.165-2.152,7.271-0.208c1.93,1.782,2.481,5.455-0.424,7.799c0.772,0.428,1.611,0.802,2.349,1.318
		c2.28,1.595,3.55,3.819,3.932,6.557c0.063,0.464-0.196,0.801-0.663,0.868c-0.103,0.015-0.206,0.015-0.31,0.015
		c-5.604,0.001-11.208,0-16.812,0c-0.073,0-0.148,0.003-0.222-0.003c-0.558-0.043-0.828-0.352-0.747-0.906
		c0.542-3.715,2.575-6.268,6.067-7.678c0.054-0.021,0.109-0.043,0.163-0.067C-83.467-64.881-83.444-64.9-83.393-64.933z
		 M-72.555-57.682c-0.524-3.044-3.498-6.284-7.807-6.284c-4.219,0-7.26,3.157-7.801,6.284
		C-82.959-57.682-77.759-57.682-72.555-57.682z M-76.673-69.072c0.002-2.036-1.618-3.662-3.659-3.67
		c-2.063-0.008-3.716,1.621-3.717,3.663c-0.001,2.027,1.632,3.664,3.666,3.671C-78.315-65.4-76.675-67.021-76.673-69.072z"/>
	<path fill-rule="evenodd" clip-rule="evenodd" d="M-98.502-62.969c-0.501,0.001-1.003,0.007-1.504-0.001
		c-0.591-0.009-0.882-0.294-0.843-0.875c0.174-2.542,0.831-4.958,1.961-7.245c0.212-0.43,0.618-0.559,1.041-0.323
		c0.952,0.528,1.894,1.071,2.833,1.622c0.415,0.244,0.495,0.568,0.273,1.059c-0.576,1.275-0.994,2.596-1.21,3.978
		c-0.052,0.333-0.094,0.667-0.13,1.002c-0.056,0.516-0.31,0.77-0.827,0.78C-97.44-62.96-97.971-62.969-98.502-62.969z
		 M-97.91-69.813c-0.769,1.746-1.26,3.515-1.445,5.41c0.59,0,1.121,0.019,1.648-0.015c0.107-0.007,0.262-0.192,0.292-0.32
		c0.133-0.54,0.197-1.096,0.344-1.631c0.23-0.84,0.509-1.667,0.773-2.519C-96.816-69.184-97.338-69.484-97.91-69.813z"/>
	<path fill-rule="evenodd" clip-rule="evenodd" d="M-81.754-79.615c0,0.513,0.007,1.027-0.003,1.54
		c-0.009,0.515-0.26,0.797-0.773,0.837c-1.766,0.138-3.444,0.591-5.051,1.327c-0.49,0.224-0.809,0.118-1.083-0.343
		c-0.523-0.883-1.041-1.77-1.548-2.663c-0.278-0.488-0.153-0.879,0.349-1.125c2.232-1.091,4.593-1.722,7.068-1.92
		c0.784-0.063,1.039,0.192,1.041,0.98C-81.753-80.525-81.754-80.071-81.754-79.615z M-83.216-80.489
		c-1.893,0.208-3.681,0.669-5.414,1.453c0.314,0.54,0.615,1.056,0.879,1.511c1.532-0.404,3.017-0.795,4.534-1.194
		C-83.216-79.254-83.216-79.849-83.216-80.489z"/>
	<path fill-rule="evenodd" clip-rule="evenodd" d="M-98.487-61.978c0.516,0,1.03-0.006,1.546,0.001
		c0.523,0.008,0.805,0.252,0.847,0.76c0.142,1.738,0.588,3.395,1.321,4.977c0.254,0.551,0.147,0.86-0.386,1.168
		c-0.852,0.493-1.706,0.983-2.563,1.466c-0.583,0.331-0.949,0.211-1.242-0.394c-1.059-2.185-1.67-4.489-1.879-6.903
		c-0.071-0.811,0.178-1.074,0.985-1.075C-99.401-61.979-98.943-61.978-98.487-61.978z M-99.365-60.53
		c0.212,1.88,0.672,3.661,1.458,5.393c0.455-0.263,0.877-0.526,1.319-0.749c0.277-0.14,0.274-0.279,0.178-0.551
		c-0.281-0.796-0.536-1.604-0.757-2.42c-0.148-0.544-0.223-1.11-0.331-1.673C-98.125-60.53-98.724-60.53-99.365-60.53z"/>
	<path fill-rule="evenodd" clip-rule="evenodd" d="M-94.041-70.494c-0.236-0.095-0.409-0.142-0.559-0.227
		c-0.884-0.5-1.763-1.005-2.639-1.516c-0.54-0.316-0.624-0.695-0.273-1.207c1.409-2.06,3.147-3.794,5.219-5.197
		c0.521-0.353,0.899-0.278,1.215,0.255c0.516,0.871,1.023,1.746,1.525,2.625c0.282,0.495,0.221,0.794-0.255,1.132
		c-1.432,1.015-2.643,2.24-3.659,3.666C-93.608-70.765-93.854-70.643-94.041-70.494z M-91.99-77.108
		c-1.548,1.127-2.86,2.421-3.971,3.96c0.569,0.327,1.089,0.625,1.541,0.885c1.114-1.119,2.199-2.208,3.314-3.327
		C-91.365-76.034-91.664-76.548-91.99-77.108z"/>
	<path fill-rule="evenodd" clip-rule="evenodd" d="M-98.919-49.3c-0.009,0.358-0.326,0.672-0.683,0.675
		c-0.368,0.002-0.71-0.346-0.699-0.71c0.011-0.353,0.337-0.667,0.692-0.669C-99.225-50.005-98.909-49.683-98.919-49.3z"/>
</g>
<g>
	<path fill-rule="evenodd" clip-rule="evenodd" d="M-43.765-59.497c0-0.268,0-0.472,0-0.676c0-7.344-0.005-14.688,0.002-22.031
		c0.003-2.736,1.76-4.976,4.39-5.6c0.45-0.107,0.925-0.152,1.39-0.153c9.009-0.009,18.02-0.009,27.03-0.005
		c2.857,0.001,4.799,1.928,4.834,4.791c0.016,1.233,0.008,2.465,0.001,3.698c-0.004,0.831-0.264,1.08-1.098,1.08
		c-1.945,0.001-3.889,0-5.833,0c-0.188,0-0.376,0-0.624,0c0,0.244,0,0.447,0,0.648c0,8.247,0.008,16.493-0.006,24.739
		c-0.003,2.287-0.833,4.194-2.743,5.547c-0.875,0.618-1.867,0.918-2.933,0.919c-8.438,0.006-16.875,0.018-25.312-0.003
		c-4.409-0.01-7.908-3.545-7.942-7.962c-0.011-1.303-0.004-2.604-0.001-3.906c0.002-0.81,0.281-1.084,1.106-1.085
		c2.343-0.004,4.687-0.002,7.03-0.002C-44.265-59.497-44.058-59.497-43.765-59.497z M-42.15-59.471c0.279,0,0.501,0,0.723,0
		c5.814,0,11.63,0,17.445,0c1.17,0,1.34,0.175,1.341,1.366c0.003,2.257-0.02,4.514,0.017,6.77c0.044,2.776,2.188,3.48,4.181,3.061
		c1.856-0.392,3.149-2.353,3.148-4.509c-0.006-9.946-0.001-19.894-0.021-29.84c-0.002-1.303,0.191-2.519,0.989-3.585
		c0.014-0.019-0.009-0.063-0.016-0.112c-0.136-0.006-0.272-0.018-0.41-0.018c-7.725,0-15.449-0.001-23.173,0.003
		c-0.345,0-0.697,0.02-1.034,0.084c-1.517,0.292-3.215,1.731-3.202,4.229c0.039,7.308,0.014,14.616,0.014,21.925
		C-42.15-59.91-42.15-59.724-42.15-59.471z M-50.977-57.851c0,1.13-0.003,2.203,0.001,3.278c0.013,3.662,2.762,6.409,6.423,6.41
		c6.91,0.003,13.82,0.001,20.729,0c0.182,0,0.363-0.016,0.619-0.027c-1.011-1.421-1.09-2.987-1.083-4.576
		c0.008-1.51,0.005-3.021,0.007-4.531c0.001-0.182,0-0.364,0-0.554C-33.209-57.851-42.058-57.851-50.977-57.851z M-13.661-80.05
		c2.006,0,3.952,0,5.929,0c0-1.217,0.057-2.396-0.015-3.568c-0.094-1.54-1.381-2.691-2.901-2.709
		c-1.559-0.018-2.891,1.109-2.997,2.656C-13.726-82.482-13.661-81.285-13.661-80.05z"/>
	<path fill-rule="evenodd" clip-rule="evenodd" d="M-34.668-68.078c0.771-0.874,1.5-1.71,2.241-2.537
		c0.422-0.472,0.895-0.541,1.264-0.208c0.383,0.344,0.365,0.792-0.064,1.281c-0.858,0.978-1.716,1.955-2.582,2.924
		c-0.446,0.499-0.768,0.537-1.313,0.179c-0.681-0.448-1.359-0.898-2.031-1.358c-0.494-0.338-0.613-0.79-0.336-1.194
		c0.278-0.405,0.736-0.466,1.234-0.145C-35.734-68.796-35.219-68.445-34.668-68.078z"/>
	<path fill-rule="evenodd" clip-rule="evenodd" d="M-34.667-80.266c0.768-0.87,1.51-1.718,2.26-2.558
		c0.401-0.45,0.86-0.521,1.226-0.211c0.394,0.334,0.39,0.799-0.03,1.281c-0.844,0.966-1.692,1.929-2.546,2.886
		c-0.516,0.579-0.798,0.61-1.429,0.19c-0.664-0.442-1.33-0.879-1.988-1.329c-0.475-0.325-0.586-0.752-0.327-1.152
		c0.271-0.415,0.738-0.487,1.229-0.172C-35.736-80.986-35.209-80.626-34.667-80.266z"/>
	<path fill-rule="evenodd" clip-rule="evenodd" d="M-34.471-74.602c0.676-0.782,1.328-1.544,1.993-2.294
		c0.146-0.165,0.335-0.401,0.509-0.404c0.297-0.006,0.665,0.066,0.878,0.251c0.306,0.263,0.271,0.675,0.008,0.986
		c-0.851,1.004-1.715,1.996-2.587,2.981c-0.271,0.307-0.628,0.349-0.996,0.176c-0.813-0.382-1.628-0.76-2.432-1.162
		c-0.497-0.248-0.655-0.686-0.446-1.114c0.207-0.427,0.643-0.565,1.144-0.335C-35.759-75.225-35.125-74.913-34.471-74.602z"/>
	<path fill-rule="evenodd" clip-rule="evenodd" d="M-30.784-64.465c-0.163,0.294-0.246,0.526-0.396,0.704
		c-0.772,0.912-1.568,1.805-2.343,2.715c-0.354,0.417-0.749,0.512-1.243,0.269c-0.775-0.382-1.563-0.741-2.338-1.124
		c-0.499-0.247-0.655-0.673-0.436-1.106c0.209-0.412,0.63-0.555,1.104-0.341c0.553,0.248,1.102,0.505,1.634,0.791
		c0.283,0.151,0.424,0.052,0.602-0.158c0.613-0.729,1.245-1.442,1.867-2.165c0.258-0.3,0.606-0.407,0.932-0.236
		C-31.156-64.988-30.996-64.699-30.784-64.465z"/>
	<path fill-rule="evenodd" clip-rule="evenodd" d="M-21.576-62.359c-0.989,0-1.979,0.004-2.969-0.001
		c-0.654-0.002-1.001-0.275-1.015-0.786c-0.015-0.537,0.34-0.841,1.014-0.843c1.979-0.005,3.958-0.005,5.938,0
		c0.663,0.002,1.039,0.321,1.021,0.843c-0.015,0.498-0.381,0.784-1.021,0.786C-19.597-62.355-20.586-62.359-21.576-62.359z"/>
	<path fill-rule="evenodd" clip-rule="evenodd" d="M-21.569-79.856c-1.007,0-2.014,0.003-3.021-0.001
		c-0.609-0.003-0.954-0.284-0.971-0.776c-0.018-0.523,0.325-0.846,0.956-0.849c2.015-0.009,4.027-0.009,6.041,0
		c0.627,0.002,0.989,0.329,0.978,0.835c-0.012,0.5-0.377,0.789-1.015,0.791C-19.589-79.854-20.579-79.856-21.569-79.856z"/>
	<path fill-rule="evenodd" clip-rule="evenodd" d="M-21.608-67.043c-0.989,0-1.979,0.004-2.968-0.002
		c-0.642-0.004-0.985-0.297-0.983-0.818c0.002-0.517,0.345-0.807,0.994-0.808c1.996-0.005,3.992-0.005,5.988,0
		c0.632,0.001,0.995,0.314,0.99,0.818c-0.003,0.502-0.37,0.805-1.001,0.807C-19.594-67.039-20.601-67.043-21.608-67.043z"/>
	<path fill-rule="evenodd" clip-rule="evenodd" d="M-21.582-71.292c-1.023,0-2.047,0.005-3.07-0.002
		c-0.582-0.004-0.897-0.281-0.908-0.77c-0.011-0.512,0.312-0.809,0.92-0.811c2.047-0.006,4.095-0.006,6.142,0
		c0.571,0.002,0.903,0.295,0.916,0.771c0.012,0.498-0.331,0.805-0.928,0.81C-19.534-71.287-20.557-71.292-21.582-71.292z"/>
	<path fill-rule="evenodd" clip-rule="evenodd" d="M-21.62-75.578c-1.006,0-2.012,0.003-3.019-0.001
		c-0.575-0.003-0.903-0.281-0.921-0.761c-0.02-0.513,0.297-0.831,0.904-0.834c2.047-0.012,4.094-0.011,6.142,0
		c0.604,0.003,0.939,0.324,0.929,0.818c-0.009,0.485-0.364,0.776-0.965,0.778C-19.573-75.576-20.596-75.578-21.62-75.578z"/>
</g>
<g>
	<path fill-rule="evenodd" clip-rule="evenodd" d="M2.91-84.907c0.822,0,1.645,0,2.466,0c0.708,0.102,1.42,0.183,2.124,0.309
		c2.623,0.469,5.107,1.36,7.494,2.531c0.294,0.144,0.515,0.152,0.812,0.006c2.36-1.158,4.815-2.042,7.409-2.512
		c0.688-0.125,1.379-0.223,2.068-0.333c0.91,0,1.82,0,2.73,0c0.358,0.061,0.717,0.118,1.074,0.181
		c4.207,0.747,7.071,3.056,8.346,7.197c0.188,0.611,0.299,1.247,0.445,1.871c0,1.38,0,2.76,0,4.14
		c-0.024,0.068-0.063,0.135-0.072,0.206c-0.392,3.055-1.399,5.914-2.728,8.676c-0.082,0.172-0.054,0.46,0.033,0.642
		c0.972,2.025,1.775,4.112,2.28,6.305c0.189,0.825,0.326,1.662,0.486,2.493c0,1.351,0,2.701,0,4.052
		c-0.058,0.256-0.127,0.509-0.171,0.767c-0.712,4.195-3.62,7.278-7.765,8.213c-0.638,0.144-1.286,0.239-1.93,0.357
		c-0.91,0-1.82,0-2.73,0c-0.474-0.07-0.947-0.137-1.42-0.213c-2.795-0.45-5.445-1.348-7.977-2.602
		c-0.356-0.177-0.633-0.153-0.976,0.014c-2.336,1.142-4.763,2.021-7.333,2.472c-0.702,0.122-1.409,0.22-2.113,0.329
		c-0.881,0-1.762,0-2.643,0c-0.14-0.031-0.277-0.074-0.418-0.091c-2.187-0.255-4.196-0.955-5.893-2.397
		c-2.477-2.106-3.479-4.899-3.63-8.05c-0.138-2.883,0.478-5.648,1.443-8.345c0.094-0.263,0.089-0.42-0.138-0.633
		c-1.542-1.45-1.768-3.743-0.556-5.438c0.246-0.345,0.688-0.65,0.732-1.012c0.051-0.404-0.257-0.85-0.391-1.283
		c-0.956-3.086-1.496-6.222-0.827-9.439c0.87-4.186,3.35-6.908,7.532-7.984C1.41-84.669,2.166-84.767,2.91-84.907z M28.572-69.617
		c-2.277,1.019-3.919,0.853-5.318-0.5c-0.619-0.597-1.022-1.323-1.188-2.164c-0.223-1.124-0.013-2.181,0.625-3.193
		c-0.071-0.043-0.127-0.069-0.172-0.106c-2.125-1.77-4.393-3.332-6.834-4.632c-0.16-0.085-0.457-0.047-0.629,0.046
		C9.9-77.374,5.568-73.596,1.873-69.071c-0.85,1.04-1.624,2.14-2.387,3.151c0.496,0.586,0.931,1.099,1.402,1.656
		c-0.497,0.244-0.872,0.429-1.239,0.609c-1.063-1.461-2.385-1.917-3.743-1.319c-1.25,0.55-1.923,1.897-1.63,3.266
		c0.273,1.282,1.467,2.206,2.821,2.197c0.674-0.005,1.267-0.223,1.781-0.646c0.765-0.631,1.061-1.48,1.058-2.463
		c0.438-0.038,0.843-0.072,1.283-0.109c0.137,1.642-0.54,2.866-1.751,3.837c2.47,3.677,5.399,6.884,8.763,9.698
		c2.12,1.774,4.382,3.346,6.823,4.649c0.15,0.08,0.392,0.16,0.513,0.095c0.876-0.468,1.731-0.974,2.604-1.473
		c-0.608-1.398-0.579-2.715,0.167-4.023c0.395,0.236,0.756,0.452,1.114,0.666c-0.658,1.758-0.301,3.125,1.007,3.92
		c1.157,0.703,2.671,0.491,3.578-0.501c0.928-1.016,1.009-2.538,0.194-3.645c-0.913-1.237-2.286-1.444-4.082-0.591
		c-0.252-0.324-0.509-0.656-0.765-0.986c1.316-1.204,3.271-1.186,5.257,0.033c0.035-0.021,0.077-0.039,0.108-0.068
		c3.392-3.209,6.276-6.813,8.512-10.925c0.13-0.238,0.13-0.416-0.011-0.643c-0.701-1.135-1.345-2.307-2.092-3.41
		C30.341-67.305,29.432-68.456,28.572-69.617z M34.208-63.971c-0.013,0.02,0.024-0.026,0.047-0.08
		c0.203-0.47,0.417-0.937,0.604-1.414c1.281-3.287,2.136-6.649,1.611-10.213c-0.473-3.223-2.081-5.658-5.125-7.016
		c-1.498-0.668-3.093-0.902-4.719-0.883c-2.684,0.031-5.25,0.658-7.739,1.631c-0.656,0.256-1.302,0.54-1.873,0.778
		c2.224,1.55,4.432,3.09,6.671,4.652c1.676-1.002,3.592-1.091,4.604-0.153c-0.213,0.357-0.429,0.718-0.642,1.075
		c-1.649-0.825-3.114-0.186-3.832,0.861c-0.772,1.126-0.623,2.669,0.344,3.632c0.982,0.979,2.536,1.111,3.667,0.305
		c0.557-0.397,0.934-0.926,1.105-1.592c0.233-0.905,0.044-1.736-0.487-2.507c0.356-0.275,0.688-0.531,1.017-0.785
		c1.188,1.347,1.199,3.149,0.11,5.049C31.135-68.385,32.673-66.175,34.208-63.971z M13.883-81.186
		c-1.158-0.439-2.301-0.93-3.479-1.308c-2.892-0.928-5.842-1.445-8.873-0.824c-3.542,0.726-5.897,2.799-6.904,6.309
		c-0.62,2.162-0.563,4.357-0.128,6.535c0.28,1.399,0.694,2.772,1.045,4.146c0.46-0.085,0.801-0.181,1.146-0.203
		c0.362-0.023,0.747-0.041,1.09,0.056c0.406,0.115,0.564-0.061,0.763-0.354c2.44-3.609,5.356-6.791,8.686-9.597
		C9.295-78.17,11.497-79.723,13.883-81.186z M-4.366-58.401c-1.1,3.119-1.811,6.244-1.266,9.523
		c0.525,3.161,2.136,5.544,5.139,6.856c1.529,0.669,3.153,0.896,4.807,0.873c2.547-0.037,4.99-0.618,7.362-1.518
		c0.743-0.282,1.473-0.604,2.277-0.935c-0.168-0.1-0.242-0.145-0.318-0.188c-3.197-1.835-6.099-4.063-8.756-6.611
		c-2.399-2.304-4.549-4.82-6.415-7.577c-0.091-0.135-0.297-0.317-0.406-0.292C-2.753-58.079-3.541-58.146-4.366-58.401z
		 M16.858-43.593c0.977,0.388,1.873,0.78,2.793,1.103c2.962,1.039,5.988,1.676,9.144,1.184c3.272-0.511,5.715-2.174,7.021-5.3
		c0.678-1.624,0.873-3.338,0.803-5.083c-0.072-1.795-0.387-3.554-0.947-5.258c-0.433-1.315-0.944-2.604-1.421-3.905
		c-2.421,4.088-5.343,7.658-8.716,10.851c1.209,2.204,0.438,4.311-0.934,5.445c-1.278,1.057-3.569,1.583-5.673-0.278
		C18.271-44.441,17.609-44.044,16.858-43.593z"/>
	<path fill-rule="evenodd" clip-rule="evenodd" d="M7.287-55.537c0.628,0,1.213,0,1.798,0c0.158,0,0.317,0,0.521,0
		c0-0.605,0-1.171,0-1.767c0.461,0,0.877,0,1.348,0c0,0.568,0,1.133,0,1.76c0.569,0,1.089,0,1.617,0c0,0.482,0,0.9,0,1.342
		c-2.661,0-5.297,0-7.974,0c0-0.421,0-0.836,0-1.32c0.418,0,0.846,0,1.316,0c0-1.046,0-2.026,0-3.006
		c0.001-1.919,0.872-3.07,2.718-3.594c1.268-0.359,2.531-0.73,3.803-1.072c0.286-0.077,0.398-0.203,0.358-0.484
		c-0.008-0.058-0.008-0.118,0-0.176c0.101-0.751-0.076-1.33-0.718-1.858c-0.748-0.617-1.144-1.524-1.237-2.506
		c-0.12-1.271-0.206-2.553,0.103-3.808c0.519-2.108,2.608-3.592,4.778-3.438c2.226,0.159,4.099,1.887,4.267,4.081
		c0.09,1.175,0.049,2.376-0.087,3.547c-0.122,1.052-0.769,1.877-1.573,2.57c-0.15,0.129-0.264,0.376-0.276,0.576
		c-0.029,0.45-0.143,1.014,0.075,1.323c0.198,0.283,0.786,0.293,1.204,0.419c0.447,0.135,0.896,0.264,1.391,0.41
		c-0.116,0.419-0.227,0.821-0.353,1.274c-0.743-0.205-1.465-0.382-2.17-0.608c-0.377-0.12-0.642-0.11-0.979,0.167
		c-1.083,0.891-2.664,0.841-3.721-0.082c-0.22-0.193-0.396-0.221-0.662-0.143c-1.349,0.394-2.703,0.766-4.054,1.15
		c-0.842,0.241-1.421,0.785-1.476,1.662C7.233-57.949,7.287-56.775,7.287-55.537z M12.132-70.601c0,0.692-0.028,1.307,0.006,1.918
		c0.086,1.535,1.185,2.761,2.695,3.048c1.417,0.269,2.883-0.487,3.547-1.803c0.197-0.393,0.236-0.716-0.109-1.053
		c-0.218-0.212-0.373-0.487-0.562-0.73c-0.35-0.45-0.617-1.069-1.078-1.298c-0.461-0.23-1.116-0.077-1.686-0.08
		C14.023-70.604,13.103-70.601,12.132-70.601z M12.348-71.946c1.459,0,2.882,0.028,4.302-0.015c0.52-0.016,0.842,0.14,1.109,0.569
		c0.25,0.401,0.565,0.76,0.885,1.18c0.296-1.811-0.803-3.448-2.511-3.84C14.547-74.417,12.832-73.484,12.348-71.946z M16.667-64.311
		c-0.852,0-1.658,0-2.533,0c0.175,0.517-0.323,1.197,0.389,1.633c0.59,0.36,1.198,0.363,1.782-0.004
		C16.999-63.12,16.537-63.796,16.667-64.311z"/>
	<path fill-rule="evenodd" clip-rule="evenodd" d="M24.915-55.538c0.466,0,0.884,0,1.323,0c0,0.47,0,0.888,0,1.333
		c-4.103,0-8.187,0-12.298,0c0-0.436,0-0.854,0-1.32c1.95,0,3.896,0,5.89,0c0-0.608,0-1.174,0-1.773c0.477,0,0.904,0,1.379,0
		c0,0.576,0,1.142,0,1.733c0.789,0,1.53,0,2.325,0c0.008-0.153,0.022-0.308,0.022-0.463c0.002-0.865,0.004-1.73,0.001-2.597
		c-0.005-1.202-0.469-1.82-1.63-2.185c-0.082-0.025-0.16-0.063-0.29-0.115c0.112-0.406,0.224-0.809,0.334-1.207
		c1.623,0.132,2.911,1.576,2.94,3.299c0.016,0.924,0.003,1.848,0.003,2.772C24.915-55.903,24.915-55.746,24.915-55.538z"/>
	<path fill-rule="evenodd" clip-rule="evenodd" d="M18.907-58.916c-0.634-0.181-1.223-0.349-1.861-0.53
		c0.116-0.426,0.226-0.826,0.35-1.281c0.632,0.176,1.23,0.342,1.875,0.521C19.145-59.761,19.028-59.347,18.907-58.916z"/>
	<path fill-rule="evenodd" clip-rule="evenodd" d="M-3.584-61.705c0-0.442,0-0.86,0-1.305c0.432,0,0.846,0,1.281,0
		c0,0.443,0,0.86,0,1.305C-2.735-61.705-3.149-61.705-3.584-61.705z"/>
	<path fill-rule="evenodd" clip-rule="evenodd" d="M22.6-47.143c-0.448,0-0.854,0-1.299,0c0-0.421,0-0.834,0-1.283
		c0.425,0,0.851,0,1.299,0C22.6-47.999,22.6-47.596,22.6-47.143z"/>
	<path fill-rule="evenodd" clip-rule="evenodd" d="M20.533-59.845c0.44,0.122,0.827,0.229,1.275,0.354
		c-0.117,0.434-0.229,0.844-0.349,1.287c-0.437-0.121-0.837-0.232-1.283-0.356C20.294-58.982,20.404-59.38,20.533-59.845z"/>
	<path fill-rule="evenodd" clip-rule="evenodd" d="M25.526-72.487c0-0.448,0-0.852,0-1.283c0.438,0,0.852,0,1.298,0
		c0,0.423,0,0.837,0,1.283C26.396-72.487,25.982-72.487,25.526-72.487z"/>
</g>
<image overflow="visible" width="512" height="512" xlink:href="C:\Users\Dell\Downloads\knowledge (3).png"  transform="matrix(0.0957 0 0 0.0957 42.7461 -86.209)">
</image>
<path fill-rule="evenodd" clip-rule="evenodd" d="M111.207-47.608c0.178,0.009,0.295,0.019,0.413,0.019
	c0.812,0.001,1.623,0.001,2.505,0.001c0-0.234,0-0.436,0-0.636c0-5.854,0-11.707,0-17.56c0-0.795,0.137-0.93,0.938-0.93
	c2.112,0,4.226-0.001,6.339,0c0.779,0,0.926,0.15,0.926,0.948c0.001,5.836,0,11.671,0,17.508c0,0.203,0,0.408,0,0.64
	c0.976,0,1.904,0,2.917,0c0-0.188,0-0.388,0-0.587c0-4.225,0-8.451,0-12.676c0.001-0.77,0.175-0.943,0.944-0.943
	c2.112-0.002,4.226-0.002,6.339,0c0.745,0,0.921,0.174,0.921,0.908c0.001,4.208,0,8.416,0,12.625c0,0.206,0,0.413,0,0.66
	c0.964,0,1.905,0,2.918,0c0-0.192,0-0.393,0-0.593c0-7.135-0.001-14.271,0-21.405c0-0.855,0.17-1.025,1.03-1.025
	c2.078,0,4.155-0.001,6.233,0c0.77,0,0.944,0.175,0.944,0.944c0.001,7.152,0.001,14.305,0.001,21.458c0,0.202,0,0.405,0,0.663
	c1.125,0,2.192-0.001,3.262,0.001c0.173,0,0.404-0.056,0.506,0.032c0.199,0.173,0.439,0.426,0.444,0.65
	c0.004,0.182-0.287,0.408-0.494,0.544c-0.123,0.081-0.337,0.029-0.51,0.029c-16.003,0.001-32.003,0.001-48.006,0.001
	c-0.069,0-0.138,0.001-0.208,0c-0.563-0.014-0.829-0.22-0.821-0.638c0.007-0.417,0.276-0.618,0.842-0.619
	c1.108-0.003,2.216-0.001,3.407-0.001c0-0.224,0-0.423,0-0.622c0-3.273-0.001-6.547,0-9.819c0.001-0.774,0.168-0.948,0.942-0.95
	c2.096-0.004,4.19-0.003,6.286,0c0.807,0.001,0.98,0.179,0.98,0.975c0,3.256,0,6.512,0,9.767
	C111.207-48.05,111.207-47.86,111.207-47.608z M137.66-69.356c0,7.279,0,14.504,0,21.738c1.897,0,3.759,0,5.643,0
	c0-7.255,0-14.48,0-21.738C141.419-69.356,139.559-69.356,137.66-69.356z M115.396-47.627c1.9,0,3.773,0,5.646,0
	c0-5.963,0-11.889,0-17.818c-1.9,0-3.764,0-5.646,0C115.396-59.493,115.396-53.565,115.396-47.627z M126.528-60.539
	c0,4.346,0,8.628,0,12.908c1.908,0,3.781,0,5.644,0c0-4.323,0-8.605,0-12.908C130.278-60.539,128.419-60.539,126.528-60.539z
	 M104.281-57.666c0,3.38,0,6.71,0,10.047c1.895,0,3.754,0,5.641,0c0-3.359,0-6.688,0-10.047
	C108.032-57.666,106.172-57.666,104.281-57.666z"/>
<path fill-rule="evenodd" clip-rule="evenodd" d="M121.424-75.031c1.803,1.082,3.579,2.15,5.361,3.221
	c0.285-0.215,0.54-0.451,0.833-0.621c1.123-0.648,2.267-0.667,3.404-0.037c0.22,0.122,0.364,0.177,0.58-0.029
	c1.984-1.882,3.981-3.751,6.006-5.652c-0.553-0.966-0.696-1.979-0.298-3.03c0.286-0.754,0.789-1.334,1.488-1.739
	c1.371-0.792,3.161-0.499,4.213,0.686c1.086,1.225,1.142,3.047,0.131,4.345c-1.094,1.403-2.754,1.651-4.687,0.68
	c-2.072,1.946-4.152,3.899-6.226,5.846c0.982,1.785,0.386,3.454-0.608,4.348c-1.069,0.963-2.648,1.153-3.91,0.451
	c-1.427-0.794-1.964-2.188-1.574-4.156c-0.915-0.552-1.847-1.112-2.776-1.672c-0.756-0.455-1.505-0.921-2.273-1.353
	c-0.137-0.077-0.416-0.09-0.521-0.002c-1.391,1.161-2.842,1.197-4.408,0.258c-2.036,1.844-4.084,3.7-6.152,5.572
	c0.42,0.824,0.604,1.661,0.384,2.566c-0.469,1.924-2.472,3.057-4.351,2.44c-1.871-0.614-2.837-2.731-2.071-4.543
	c0.77-1.819,2.953-2.618,4.687-1.669c0.414,0.227,0.635,0.167,0.959-0.133c1.793-1.656,3.609-3.288,5.421-4.924
	c0.183-0.165,0.277-0.284,0.153-0.562c-0.662-1.484-0.345-3.016,0.798-4.017c1.112-0.975,2.696-1.126,3.958-0.378
	c1.326,0.785,1.911,2.247,1.543,3.852C121.472-75.218,121.455-75.152,121.424-75.031z M142.601-79.98
	c-0.001-1.163-0.94-2.112-2.1-2.121c-1.176-0.008-2.161,0.962-2.158,2.127c0.003,1.14,0.968,2.115,2.113,2.133
	C141.616-77.823,142.602-78.806,142.601-79.98z M118.215-74.09c1.171,0.003,2.157-0.985,2.144-2.146
	c-0.013-1.142-0.989-2.113-2.13-2.117c-1.141-0.004-2.118,0.959-2.134,2.104C116.079-75.073,117.042-74.093,118.215-74.09z
	 M129.367-67.419c1.174-0.006,2.108-0.934,2.113-2.099c0.004-1.185-0.952-2.132-2.146-2.124c-1.168,0.008-2.112,0.945-2.118,2.104
	C127.21-68.359,128.169-67.415,129.367-67.419z M104.973-66.143c-0.002,1.165,0.93,2.119,2.088,2.133
	c1.176,0.014,2.164-0.948,2.17-2.116c0.008-1.156-0.997-2.156-2.153-2.144C105.928-68.257,104.977-67.296,104.973-66.143z"/>
<g>
	<path fill-rule="evenodd" clip-rule="evenodd" d="M200.909-57.046c-0.385,1.032-1.126,1.512-2.229,1.591
		c-1.251,0.09-2.493,0.294-3.74,0.434c-0.359,0.04-0.577,0.177-0.691,0.546c-0.135,0.437-0.324,0.859-0.528,1.269
		c-0.164,0.329-0.144,0.573,0.096,0.869c0.852,1.046,1.674,2.116,2.506,3.178c0.803,1.025,0.748,2.04-0.168,2.96
		c-1.428,1.436-2.859,2.866-4.294,4.295c-0.899,0.894-1.927,0.945-2.926,0.161c-1.073-0.843-2.151-1.678-3.217-2.531
		c-0.257-0.206-0.47-0.263-0.783-0.104c-0.448,0.228-0.922,0.413-1.399,0.573c-0.312,0.105-0.433,0.3-0.468,0.601
		c-0.155,1.339-0.333,2.675-0.47,4.015c-0.133,1.294-0.903,2.019-2.209,2.02c-2.056,0.001-4.11,0.002-6.166-0.001
		c-1.125-0.001-1.941-0.683-2.088-1.79c-0.182-1.365-0.335-2.735-0.481-4.105c-0.041-0.388-0.152-0.65-0.572-0.77
		c-0.408-0.116-0.806-0.295-1.183-0.494c-0.374-0.197-0.652-0.17-0.989,0.107c-1.019,0.837-2.068,1.636-3.104,2.45
		c-1.048,0.824-2.051,0.772-2.993-0.166c-1.423-1.418-2.844-2.839-4.262-4.262c-0.919-0.922-0.973-1.935-0.168-2.958
		c0.814-1.036,1.613-2.085,2.45-3.104c0.285-0.347,0.328-0.639,0.116-1.029c-0.202-0.375-0.382-0.773-0.496-1.182
		c-0.114-0.404-0.368-0.511-0.734-0.552c-1.232-0.139-2.46-0.341-3.695-0.43c-1.102-0.079-1.846-0.556-2.229-1.591
		c0-2.454,0-4.908,0-7.362c0.44-1.326,1.525-1.561,2.729-1.658c1.113-0.09,2.221-0.254,3.331-0.38
		c0.287-0.033,0.467-0.157,0.567-0.446c0.15-0.433,0.314-0.865,0.527-1.269c0.207-0.392,0.17-0.682-0.115-1.029
		c-0.837-1.019-1.636-2.068-2.45-3.104c-0.805-1.024-0.751-2.031,0.165-2.958c0.313-0.317,0.621-0.637,0.944-0.942
		c0.361-0.341,0.762-0.348,1.055-0.037c0.272,0.29,0.252,0.686-0.071,1.026c-0.306,0.323-0.629,0.628-0.941,0.946
		c-0.406,0.413-0.426,0.616-0.073,1.07c0.837,1.078,1.666,2.162,2.529,3.218c0.579,0.708,0.695,1.427,0.282,2.252
		c-0.226,0.45-0.399,0.927-0.576,1.399c-0.275,0.732-0.797,1.148-1.564,1.243c-1.368,0.168-2.736,0.328-4.105,0.48
		c-0.677,0.076-0.853,0.253-0.854,0.932c-0.001,1.963-0.001,3.925,0.001,5.888c0,0.653,0.179,0.841,0.821,0.914
		c1.369,0.155,2.737,0.315,4.105,0.479c0.768,0.092,1.301,0.486,1.583,1.219c0.197,0.514,0.401,1.026,0.634,1.524
		c0.356,0.766,0.243,1.442-0.281,2.094c-0.847,1.05-1.671,2.117-2.504,3.18c-0.446,0.569-0.437,0.731,0.078,1.246
		c1.387,1.389,2.775,2.776,4.164,4.163c0.475,0.474,0.653,0.488,1.177,0.08c1.052-0.819,2.115-1.626,3.143-2.476
		c0.722-0.598,1.453-0.707,2.293-0.287c0.449,0.225,0.926,0.399,1.396,0.578c0.715,0.271,1.122,0.786,1.216,1.534
		c0.172,1.367,0.331,2.736,0.482,4.105c0.078,0.703,0.248,0.873,0.959,0.874c1.947,0.001,3.896,0.001,5.843,0
		c0.681-0.001,0.86-0.176,0.936-0.849c0.154-1.369,0.314-2.738,0.48-4.105c0.094-0.77,0.509-1.289,1.239-1.567
		c0.515-0.195,1.025-0.402,1.524-0.632c0.731-0.336,1.391-0.248,2.017,0.25c1.067,0.849,2.144,1.688,3.216,2.53
		c0.587,0.462,0.749,0.453,1.282-0.081c1.378-1.377,2.755-2.754,4.13-4.133c0.491-0.491,0.504-0.667,0.078-1.212
		c-0.82-1.051-1.629-2.111-2.475-3.143c-0.582-0.708-0.692-1.428-0.278-2.252c0.227-0.449,0.399-0.927,0.577-1.398
		c0.275-0.732,0.798-1.146,1.566-1.239c1.353-0.166,2.705-0.328,4.06-0.477c0.729-0.079,0.895-0.244,0.895-0.985
		c0.001-1.948,0.002-3.896,0-5.843c-0.001-0.648-0.182-0.835-0.827-0.909c-1.369-0.155-2.738-0.314-4.106-0.479
		c-0.766-0.092-1.298-0.491-1.579-1.223c-0.203-0.528-0.418-1.052-0.65-1.567c-0.322-0.715-0.237-1.363,0.249-1.975
		c0.839-1.056,1.667-2.121,2.501-3.181c0.519-0.659,0.513-0.78-0.092-1.385c-1.366-1.367-2.732-2.733-4.1-4.098
		c-0.472-0.471-0.653-0.483-1.177-0.074c-1.051,0.821-2.113,1.628-3.143,2.476c-0.722,0.595-1.454,0.705-2.293,0.281
		c-0.449-0.227-0.927-0.397-1.398-0.578c-0.712-0.273-1.119-0.787-1.212-1.537c-0.17-1.367-0.33-2.736-0.482-4.105
		c-0.077-0.7-0.248-0.868-0.963-0.868c-1.948-0.001-3.896-0.001-5.843,0c-0.679,0-0.855,0.176-0.932,0.853
		c-0.152,1.37-0.312,2.738-0.48,4.106c-0.093,0.746-0.485,1.27-1.2,1.546c-0.527,0.204-1.053,0.416-1.567,0.65
		c-0.731,0.334-1.391,0.242-2.016-0.256c-1.055-0.84-2.12-1.668-3.18-2.503c-0.623-0.49-0.769-0.484-1.317,0.062
		c-0.293,0.292-0.578,0.594-0.882,0.875c-0.321,0.296-0.713,0.303-0.991,0.041c-0.302-0.283-0.313-0.683,0.005-1.02
		c0.39-0.413,0.785-0.822,1.209-1.198c0.766-0.679,1.79-0.674,2.65-0.005c1.089,0.847,2.18,1.692,3.25,2.562
		c0.295,0.24,0.54,0.263,0.869,0.098c0.408-0.206,0.83-0.4,1.267-0.532c0.373-0.113,0.506-0.331,0.547-0.688
		c0.14-1.248,0.344-2.49,0.434-3.741c0.079-1.101,0.555-1.846,1.591-2.228c2.454,0,4.908,0,7.361,0
		c1.034,0.383,1.512,1.126,1.591,2.227c0.091,1.25,0.294,2.491,0.435,3.738c0.04,0.356,0.168,0.578,0.542,0.691
		c0.451,0.136,0.892,0.327,1.311,0.546c0.326,0.171,0.555,0.11,0.825-0.107c1.039-0.834,2.095-1.648,3.142-2.474
		c1.069-0.844,2.07-0.796,3.026,0.157c1.411,1.407,2.819,2.816,4.227,4.227c0.943,0.946,1.005,1.948,0.188,2.991
		c-0.822,1.049-1.637,2.104-2.476,3.141c-0.241,0.298-0.308,0.551-0.121,0.905c0.213,0.404,0.396,0.832,0.529,1.268
		c0.114,0.372,0.337,0.501,0.694,0.542c1.247,0.14,2.488,0.344,3.738,0.434c1.102,0.079,1.844,0.558,2.227,1.591
		C200.909-61.954,200.909-59.5,200.909-57.046z"/>
	<path fill-rule="evenodd" clip-rule="evenodd" d="M174.285-50.282c0-0.395-0.011-0.727,0.002-1.058
		c0.02-0.488,0.267-0.754,0.682-0.758c0.423-0.005,0.701,0.291,0.713,0.782c0.011,0.442,0.002,0.885,0.002,1.362
		c0.318,0.04,0.602,0.074,0.958,0.118c0-0.21,0-0.372,0-0.534c0-1.059-0.005-2.116,0.003-3.175c0.004-0.547,0.256-0.846,0.689-0.855
		c0.452-0.01,0.722,0.3,0.726,0.867c0.008,1.043,0.002,2.086,0.002,3.129c0,0.165,0,0.33,0,0.558
		c0.334-0.034,0.615-0.063,0.926-0.094c0-2.165,0-4.302,0-6.368c-1.093,0-2.17,0-3.304,0c0,0.486,0.004,1.049-0.002,1.611
		c-0.004,0.359-0.168,0.662-0.524,0.711c-0.221,0.03-0.513-0.071-0.687-0.217c-0.133-0.111-0.172-0.383-0.18-0.586
		c-0.021-0.612,0.011-1.228-0.021-1.839c-0.009-0.16-0.131-0.376-0.267-0.458c-2.477-1.504-3.729-3.684-3.536-6.586
		c0.155-2.341,1.306-4.147,3.301-5.384c0.828-0.513,1.818,0.062,1.83,1.035c0.015,1.196-0.009,2.393,0.017,3.588
		c0.004,0.215,0.113,0.47,0.259,0.632c0.447,0.5,0.935,0.964,1.427,1.463c0.576-0.553,1.126-1.063,1.65-1.599
		c0.1-0.101,0.142-0.297,0.143-0.45c0.012-1.181,0.016-2.362,0.003-3.542c-0.006-0.509,0.18-0.902,0.616-1.15
		c0.457-0.261,0.905-0.186,1.344,0.087c4.376,2.717,4.253,9.228-0.235,11.828c-0.313,0.181-0.412,0.369-0.408,0.717
		c0.017,1.871,0.008,3.742,0.008,5.613c0,0.163,0,0.325,0,0.585c0.435-0.16,0.792-0.277,1.138-0.422
		c4.459-1.86,7.184-6.468,6.642-11.26c-0.2-1.778-0.799-3.42-1.811-4.904c-0.078-0.114-0.163-0.223-0.233-0.341
		c-0.222-0.37-0.154-0.75,0.164-0.974c0.316-0.222,0.741-0.18,0.966,0.188c0.516,0.848,1.079,1.686,1.451,2.598
		c2.953,7.253-1.518,15.354-9.217,16.759c-6.751,1.23-13.313-3.463-14.32-10.241c-0.99-6.657,3.42-12.852,10.011-13.997
		c3.441-0.598,6.6,0.159,9.438,2.209c0.111,0.081,0.225,0.164,0.318,0.263c0.253,0.271,0.285,0.583,0.065,0.878
		c-0.229,0.308-0.543,0.391-0.894,0.201c-0.146-0.08-0.277-0.19-0.413-0.289c-6.479-4.706-15.817-0.882-17.134,7.015
		c-0.879,5.278,2.143,10.38,7.195,12.146C173.925-50.372,174.069-50.342,174.285-50.282z M174.225-67.619
		c-1.429,0.756-2.939,3.223-2.213,5.927c0.652,2.425,3.048,4.21,5.515,4.08c2.829-0.15,4.931-2.108,5.328-4.964
		c0.262-1.885-0.98-4.531-2.376-5.016c0,1.17-0.009,2.333,0.005,3.495c0.005,0.446-0.148,0.8-0.467,1.101
		c-0.603,0.567-1.194,1.146-1.798,1.711c-0.608,0.569-1.262,0.554-1.864-0.038c-0.524-0.516-1.027-1.054-1.565-1.555
		c-0.411-0.382-0.589-0.816-0.573-1.382C174.246-65.371,174.225-66.483,174.225-67.619z"/>
</g>
<path fill-rule="evenodd" clip-rule="evenodd" d="M0,25.787c0.06-0.144,0.124-0.288,0.179-0.433c0.71-1.835,3.032-2.382,4.451-1.02
	c0.999,0.959,1.948,1.968,3.027,3.066c0.017-0.313,0.032-0.475,0.032-0.638c0.002-2.28,0.001-4.561,0.001-6.842
	c0-0.08,0-0.16,0-0.239c0.005-0.708,0.262-1.07,0.752-1.058c0.477,0.012,0.722,0.361,0.722,1.042
	c0.001,2.903,0.007,5.806-0.007,8.708c-0.002,0.35,0.092,0.6,0.349,0.834c0.401,0.363,0.79,0.745,1.149,1.15
	c0.259,0.291,0.544,0.338,0.812,0.276c-0.049-0.607-0.201-1.2-0.12-1.758c0.199-1.379,1.363-2.303,2.803-2.312
	c1.994-0.012,3.988-0.009,5.981,0.003c0.324,0.002,0.552-0.083,0.792-0.319c2.061-2.026,4.534-2.938,7.425-2.673
	c0.095,0.008,0.19,0.001,0.325,0.001c0-1.887,0-3.773,0-5.704c-0.835,0.271-1.465-0.071-2.001-0.695
	c-0.208-0.241-0.452-0.45-0.673-0.679c-0.646-0.673-0.705-1.349-0.18-2.111c0.307-0.446,0.625-0.886,0.937-1.328
	c0.008-0.012,0.006-0.031,0.022-0.121c-0.455-0.083-0.909-0.199-1.37-0.243c-0.988-0.093-1.598-0.566-1.706-1.599
	c-0.464,0-0.905,0-1.392,0c-0.009,0.187-0.022,0.356-0.022,0.524c-0.002,1.483-0.009,2.967,0.002,4.45
	c0.005,0.592-0.178,1.075-0.717,1.354c-0.519,0.268-1.062,0.211-1.471-0.181c-0.809-0.776-1.542-0.763-2.348,0.002
	c-0.412,0.392-0.954,0.443-1.472,0.178c-0.545-0.278-0.707-0.765-0.7-1.357c0.017-1.467,0.005-2.935,0.005-4.402
	c0-0.173,0-0.346,0-0.564c-0.189-0.009-0.344-0.023-0.498-0.023c-1.659-0.001-3.318-0.003-4.977,0
	c-0.766,0.001-0.95,0.19-0.951,0.967c-0.002,1.212,0.001,2.424-0.002,3.636c-0.001,0.158-0.004,0.321-0.041,0.474
	c-0.089,0.377-0.341,0.563-0.73,0.549c-0.37-0.013-0.595-0.207-0.664-0.567c-0.029-0.155-0.037-0.316-0.037-0.475
	c-0.003-1.212-0.005-2.424-0.001-3.637c0.006-1.545,0.863-2.401,2.398-2.401c4.338,0,8.677,0,13.015,0c0.19,0,0.38,0,0.562,0
	c0.321-1.196,0.645-1.471,1.871-1.636c0.41-0.056,0.815-0.139,1.312-0.224c-0.315-0.443-0.604-0.85-0.895-1.256
	c-0.704-0.984-0.656-1.594,0.192-2.438c0.271-0.271,0.539-0.544,0.813-0.812c0.664-0.647,1.332-0.704,2.106-0.175
	c0.447,0.306,0.886,0.624,1.331,0.934c0.021,0.016,0.06,0.011,0.119,0.02c0.071-0.42,0.17-0.836,0.207-1.259
	C30.792,1.974,31.118,1.354,31.868,1c0.798,0,1.596,0,2.393,0c0.72,0.29,1.098,0.813,1.168,1.594
	c0.043,0.485,0.166,0.963,0.253,1.441c0.06-0.006,0.079-0.003,0.091-0.011c0.47-0.327,0.934-0.663,1.41-0.983
	c0.699-0.471,1.384-0.415,2,0.163c0.302,0.284,0.59,0.584,0.882,0.877c0.811,0.814,0.86,1.459,0.186,2.41
	c-0.292,0.411-0.585,0.821-0.909,1.276c0.355,0.055,0.637,0.094,0.916,0.142c0.298,0.052,0.595,0.109,0.892,0.169
	c0.815,0.162,1.277,0.686,1.315,1.521c0.02,0.414,0.006,0.83,0.005,1.244c-0.004,1.141-0.457,1.661-1.577,1.833
	c-0.492,0.076-0.98,0.175-1.539,0.276c0.348,0.488,0.643,0.901,0.935,1.315c0.632,0.894,0.574,1.548-0.204,2.334
	c-0.247,0.249-0.495,0.498-0.744,0.745c-0.783,0.773-1.438,0.828-2.336,0.193c-0.42-0.298-0.837-0.599-1.27-0.909
	c-0.05,0.111-0.079,0.152-0.087,0.197c-0.083,0.486-0.166,0.972-0.244,1.459c-0.137,0.86-0.629,1.361-1.479,1.421
	c-0.556,0.04-1.118,0.04-1.674-0.002c-0.823-0.062-1.285-0.52-1.436-1.346c-0.104-0.568-0.205-1.137-0.306-1.706
	c-0.051-0.01-0.101-0.02-0.151-0.029c-0.067,0.184-0.191,0.368-0.193,0.552c-0.013,2.138-0.002,4.275-0.016,6.412
	c-0.001,0.283,0.11,0.387,0.351,0.468c1.371,0.461,2.536,1.248,3.553,2.266c1.171,1.174,2.348,2.344,3.516,3.521
	c0.155,0.157,0.269,0.354,0.414,0.55c0.216-0.202,0.333-0.307,0.444-0.417c1.101-1.091,2.137-1.094,3.226-0.005
	c2.087,2.085,4.174,4.171,6.258,6.26c0.371,0.37,0.728,0.755,1.091,1.133c0,0.192,0,0.383,0,0.575
	c-1.677,1.675-3.354,3.352-5.031,5.027c-0.214,0.214-0.42,0.437-0.647,0.637c-0.339,0.302-0.74,0.299-1.027,0.015
	c-0.277-0.275-0.275-0.705,0.009-1.032c0.084-0.097,0.179-0.183,0.269-0.272c1.431-1.432,2.859-2.866,4.298-4.291
	c0.123-0.121,0.303-0.184,0.427-0.255c-1.767-1.768-3.408-3.41-5.03-5.033c-3.503,3.501-7.027,7.025-10.534,10.529
	c1.625,1.622,3.269,3.263,5.021,5.013c0.076-0.116,0.15-0.285,0.271-0.408c0.93-0.941,1.864-1.879,2.805-2.81
	c0.408-0.404,0.854-0.412,1.16-0.04c0.267,0.321,0.214,0.712-0.17,1.098c-1.289,1.296-2.584,2.588-3.877,3.881
	c-0.19,0-0.383,0-0.573,0c-0.604-0.589-1.213-1.172-1.81-1.767c-1.437-1.43-2.867-2.862-4.297-4.297
	c-0.499-0.499-0.496-0.837,0.004-1.339c0.19-0.191,0.392-0.371,0.633-0.6c-0.919-0.854-1.868-1.671-1.232-3.14
	c-0.215-0.012-0.38-0.025-0.545-0.026c-2.536-0.012-5.072-0.012-7.606-0.041c-0.555-0.006-1.111-0.096-1.662-0.177
	c-0.453-0.068-0.693-0.387-0.646-0.791c0.044-0.398,0.365-0.682,0.809-0.633c3.5,0.381,7.011,0.096,10.516,0.194
	c0.367,0.01,0.616-0.112,0.87-0.368c1.864-1.88,3.742-3.744,5.644-5.641c-0.606-0.605-1.192-1.191-1.777-1.775
	c-0.836-0.835-1.662-1.677-2.508-2.5c-3.079-3.004-8.315-2.775-11.11,0.489c-0.264,0.31-0.555,0.433-0.952,0.431
	c-2.104-0.009-4.21-0.007-6.315-0.003c-0.894,0.002-1.411,0.341-1.585,1.016c-0.17,0.656,0.22,1.364,0.873,1.535
	c0.243,0.064,0.504,0.078,0.757,0.078c2.808,0.005,5.615,0.014,8.422-0.005c0.5-0.004,0.896,0.109,1.217,0.506
	c0.201,0.246,0.463,0.44,0.665,0.687c0.251,0.307,0.26,0.646-0.004,0.958c-0.263,0.309-0.638,0.33-0.985,0.078
	c-0.026-0.02-0.058-0.036-0.073-0.062c-0.474-0.745-1.201-0.726-1.969-0.722c-3.573,0.022-7.146,0.004-10.719,0.018
	c-0.432,0.002-0.751-0.128-1.055-0.435c-2.043-2.062-4.102-4.109-6.153-6.162c-0.389-0.389-0.833-0.571-1.386-0.41
	c-0.513,0.148-0.8,0.502-0.915,1.002c-0.105,0.459,0.054,0.859,0.373,1.18c2.536,2.54,5.065,5.084,7.623,7.603
	c0.932,0.918,2.118,1.309,3.408,1.441c1.25,0.129,2.498,0.297,3.745,0.464c0.478,0.063,0.745,0.402,0.689,0.806
	c-0.053,0.39-0.384,0.674-0.824,0.621c-1.612-0.19-3.229-0.358-4.83-0.628c-1.337-0.226-2.469-0.911-3.428-1.87
	c-2.448-2.448-4.908-4.884-7.33-7.354C0.514,27.969,0.295,27.414,0,26.936C0,26.553,0,26.17,0,25.787z M39.295,5.326
	c-0.321-0.307-0.633-0.581-0.914-0.882c-0.2-0.214-0.349-0.249-0.599-0.056c-0.555,0.428-1.131,0.829-1.709,1.224
	c-0.633,0.432-1.576,0.048-1.72-0.701c-0.138-0.718-0.238-1.444-0.385-2.161c-0.024-0.121-0.191-0.293-0.303-0.302
	c-0.456-0.035-0.917-0.014-1.394-0.014C32.135,3.224,32,3.973,31.875,4.723c-0.168,1.001-1.075,1.373-1.912,0.78
	c-0.621-0.439-1.239-0.881-1.757-1.251c-0.444,0.416-0.833,0.781-1.241,1.164c0.448,0.631,0.916,1.274,1.367,1.929
	c0.481,0.698,0.063,1.642-0.776,1.782c-0.782,0.13-1.564,0.263-2.379,0.4c0,0.459,0.015,0.889-0.005,1.316
	c-0.014,0.296,0.118,0.374,0.386,0.412c0.693,0.098,1.383,0.215,2.069,0.352c0.812,0.162,1.17,1.093,0.693,1.778
	c-0.401,0.575-0.824,1.134-1.212,1.718c-0.067,0.103-0.066,0.339,0.008,0.432c0.286,0.358,0.615,0.683,0.938,1.03
	c0.714-0.51,1.358-0.977,2.009-1.432c0.724-0.506,1.661-0.097,1.805,0.773c0.128,0.778,0.267,1.554,0.403,2.345
	c0.486,0,0.916-0.011,1.344,0.004c0.268,0.01,0.346-0.101,0.38-0.356c0.09-0.662,0.207-1.321,0.334-1.976
	c0.185-0.95,1.079-1.303,1.868-0.746c0.634,0.448,1.265,0.901,1.801,1.284c0.453-0.399,0.856-0.754,1.271-1.117
	c-0.499-0.702-0.989-1.368-1.455-2.052c-0.395-0.58-0.016-1.528,0.668-1.667c0.716-0.146,1.443-0.242,2.16-0.386
	c0.131-0.026,0.328-0.174,0.337-0.279c0.036-0.471,0.015-0.946,0.015-1.438c-0.806-0.136-1.557-0.271-2.31-0.388
	c-0.904-0.14-1.323-1.08-0.8-1.824C38.332,6.671,38.788,6.038,39.295,5.326z M31.79,40.938c3.172-3.165,6.27-6.256,9.459-9.438
	c-0.207-0.17-0.451-0.348-0.67-0.553c-0.449-0.422-0.642-0.429-1.078,0.006c-1.736,1.735-3.472,3.47-5.208,5.205
	c-1.036,1.037-2.071,2.076-3.11,3.11c-0.251,0.249-0.409,0.507-0.142,0.828C31.296,40.399,31.566,40.688,31.79,40.938z
	 M20.824,11.099c-1.288,0-2.521,0-3.752,0c0,1.626,0,3.22,0,4.875c0.32-0.213,0.582-0.388,0.846-0.563
	c0.918-0.615,1.105-0.615,2.017-0.012c0.28,0.185,0.565,0.36,0.889,0.566C20.824,14.292,20.824,12.718,20.824,11.099z"/>
<path fill-rule="evenodd" clip-rule="evenodd" d="M43.941,38.003c-0.005,1.129-0.921,2.046-2.033,2.037
	c-1.159-0.01-2.021-0.874-2.029-2.033c-0.007-1.175,0.878-2.066,2.049-2.064C43.035,35.943,43.945,36.875,43.941,38.003z
	 M41.912,37.405c-0.371,0.011-0.601,0.268-0.58,0.629c0.021,0.371,0.253,0.536,0.59,0.548c0.33,0.013,0.601-0.297,0.569-0.627
	C42.457,37.598,42.235,37.431,41.912,37.405z"/>
<path fill-rule="evenodd" clip-rule="evenodd" d="M33.129,7.708c1.492,0.013,2.658,1.208,2.633,2.7
	c-0.023,1.432-1.271,2.635-2.699,2.605c-1.46-0.029-2.64-1.229-2.624-2.67C30.456,8.835,31.619,7.694,33.129,7.708z M33.077,11.538
	c0.709,0.007,1.205-0.483,1.207-1.192c0.002-0.651-0.524-1.192-1.172-1.205c-0.628-0.012-1.203,0.537-1.226,1.168
	C31.863,10.984,32.393,11.53,33.077,11.538z"/>
</svg>
